<svg width="17" height="16" viewBox="0 0 17 16" fill="none" xmlns="http://www.w3.org/2000/svg">
<path d="M8.09074 14.72C6.75845 14.72 5.4561 14.3248 4.34852 13.5843C3.24095 12.8438 2.37793 11.7914 1.86869 10.5603C1.35945 9.32918 1.22689 7.97465 1.48778 6.66815C1.74867 5.36165 2.39129 4.16191 3.33429 3.22076C4.2773 2.27962 5.47831 1.63939 6.78533 1.38109C8.09234 1.12279 9.44661 1.25804 10.6767 1.76971C11.9069 2.28139 12.9575 3.14649 13.6958 4.25553C14.4341 5.36458 14.8267 6.66771 14.8241 8C14.8188 9.78294 14.1073 11.4911 12.8453 12.7506C11.5833 14.0101 9.87369 14.7182 8.09074 14.72ZM8.09074 2.25333C6.95737 2.25334 5.84942 2.58926 4.90687 3.21866C3.96431 3.84806 3.22945 4.74269 2.79512 5.78955C2.36079 6.8364 2.24648 7.9885 2.46662 9.10029C2.68676 10.2121 3.23149 11.2337 4.03198 12.036C4.83246 12.8384 5.8528 13.3855 6.96408 13.6082C8.07535 13.8309 9.22771 13.7193 10.2756 13.2874C11.3234 12.8555 12.2198 12.1227 12.8514 11.1816C13.4829 10.2405 13.8214 9.13337 13.8241 8C13.825 7.24621 13.6774 6.49963 13.3897 5.80289C13.102 5.10614 12.68 4.47288 12.1476 3.93925C11.6152 3.40563 10.9829 2.98209 10.2868 2.69282C9.59077 2.40354 8.84453 2.25421 8.09074 2.25333Z" fill="#8B5CE4"/>
<path d="M9.96415 10.3533C9.89829 10.3548 9.83285 10.3425 9.77201 10.3173C9.71117 10.292 9.65627 10.2544 9.61082 10.2067L7.73749 8.34C7.64369 8.24632 7.59094 8.11923 7.59082 7.98667V4.24667C7.59082 4.11406 7.6435 3.98688 7.73727 3.89311C7.83104 3.79934 7.95821 3.74667 8.09082 3.74667C8.22343 3.74667 8.35061 3.79934 8.44437 3.89311C8.53814 3.98688 8.59082 4.11406 8.59082 4.24667V7.78L10.3175 9.5C10.4111 9.59375 10.4637 9.72083 10.4637 9.85333C10.4637 9.98583 10.4111 10.1129 10.3175 10.2067C10.2713 10.2534 10.2163 10.2905 10.1556 10.3156C10.0949 10.3408 10.0298 10.3536 9.96415 10.3533Z" fill="#8B5CE4"/>
</svg>
