<svg width="22" height="22" viewBox="0 0 22 22" fill="none" xmlns="http://www.w3.org/2000/svg">
    <path d="M11 13.4C10.0617 13.402 9.14385 13.1254 8.36283 12.6053C7.58181 12.0853 6.97273 11.3451 6.61273 10.4785C6.25273 9.61201 6.15802 8.65813 6.34059 7.73773C6.52317 6.81733 6.97481 5.97182 7.63832 5.30832C8.30182 4.64482 9.14732 4.19317 10.0677 4.0106C10.9881 3.82802 11.942 3.92273 12.8085 4.28273C13.6751 4.64273 14.4152 5.25182 14.9353 6.03284C15.4554 6.81386 15.732 7.73167 15.73 8.67C15.73 9.92447 15.2317 11.1276 14.3446 12.0146C13.4576 12.9017 12.2545 13.4 11 13.4ZM11 5.4C10.3588 5.39802 9.73136 5.58636 9.19723 5.94117C8.6631 6.29598 8.24626 6.8013 7.9995 7.39316C7.75274 7.98501 7.68715 8.63678 7.81103 9.26594C7.93492 9.89509 8.24271 10.4733 8.69543 10.9275C9.14815 11.3816 9.72544 11.6912 10.3542 11.817C10.983 11.9428 11.6349 11.8792 12.2276 11.6343C12.8202 11.3894 13.3268 10.9741 13.6833 10.4411C14.0397 9.90805 14.23 9.28123 14.23 8.64C14.2221 7.78763 13.8786 6.97272 13.274 6.37185C12.6694 5.77099 11.8524 5.43259 11 5.43V5.4Z" fill="white"/>
    <path d="M17.9999 18.28C17.8319 18.2794 17.669 18.2217 17.5382 18.1163C17.4073 18.0109 17.3162 17.8641 17.2799 17.7C16.9814 16.4723 16.2787 15.3807 15.2847 14.6008C14.2908 13.8208 13.0633 13.3979 11.7999 13.4H10.1999C8.93819 13.4001 7.71308 13.8241 6.72115 14.6039C5.72922 15.3836 5.02797 16.474 4.72991 17.7C4.70627 17.7959 4.66398 17.8861 4.60546 17.9657C4.54694 18.0452 4.47332 18.1124 4.38882 18.1635C4.30432 18.2145 4.21059 18.2485 4.11297 18.2633C4.01536 18.2782 3.91578 18.2736 3.81991 18.25C3.72405 18.2264 3.63378 18.1841 3.55425 18.1255C3.47473 18.067 3.40752 17.9934 3.35644 17.9089C3.30537 17.8244 3.27144 17.7307 3.2566 17.6331C3.24175 17.5354 3.24627 17.4359 3.26991 17.34C3.64858 15.7879 4.53752 14.408 5.79416 13.4216C7.05081 12.4351 8.60234 11.8993 10.1999 11.9H11.7899C13.3897 11.8963 14.9441 12.4322 16.2016 13.4212C17.4591 14.4102 18.3464 15.7944 18.7199 17.35C18.7654 17.5435 18.7334 17.7471 18.6305 17.9172C18.5277 18.0873 18.3624 18.2104 18.1699 18.26L17.9999 18.28Z" fill="white"/>
    <path d="M10.9999 21.31C8.96082 21.31 6.96749 20.7053 5.27202 19.5725C3.57655 18.4396 2.25509 16.8294 1.47475 14.9455C0.694409 13.0616 0.490236 10.9886 0.88805 8.98862C1.28586 6.98867 2.2678 5.15161 3.70968 3.70973C5.15155 2.26785 6.98862 1.28592 8.98856 0.888103C10.9885 0.49029 13.0615 0.694462 14.9454 1.4748C16.8293 2.25514 18.4395 3.5766 19.5724 5.27207C20.7053 6.96754 21.3099 8.96087 21.3099 11C21.3073 13.7336 20.2202 16.3544 18.2873 18.2873C16.3544 20.2203 13.7335 21.3074 10.9999 21.31ZM10.9999 2.19C9.25749 2.19 7.55417 2.7067 6.10537 3.67475C4.65658 4.64281 3.52738 6.01874 2.86057 7.62856C2.19376 9.23838 2.01929 11.0098 2.35923 12.7187C2.69916 14.4277 3.53823 15.9975 4.77034 17.2296C6.00244 18.4617 7.57223 19.3008 9.2812 19.6407C10.9902 19.9807 12.7616 19.8062 14.3714 19.1394C15.9812 18.4726 17.3571 17.3434 18.3252 15.8946C19.2932 14.4458 19.8099 12.7425 19.8099 11C19.8073 8.66425 18.8783 6.42493 17.2266 4.77331C15.575 3.12169 13.3357 2.19265 10.9999 2.19Z" fill="white"/>
</svg>