<svg width="24" height="24" viewBox="0 0 24 24" fill="none" xmlns="http://www.w3.org/2000/svg">
    <path d="M7.00003 22.76C6.00629 22.7547 5.05505 22.3562 4.35423 21.6517C3.65341 20.9471 3.26002 19.9938 3.26003 19V11C3.25665 10.0137 3.64092 9.06561 4.33003 8.36C4.67929 8.00794 5.09542 7.72926 5.55394 7.54035C6.01247 7.35145 6.50413 7.25613 7.00003 7.26H17C17.9903 7.26525 18.9386 7.66098 19.6388 8.36123C20.3391 9.06148 20.7348 10.0097 20.74 11V19C20.7412 19.9956 20.3495 20.9515 19.65 21.66C19.3007 22.0042 18.8867 22.276 18.4319 22.4596C17.9771 22.6433 17.4905 22.7352 17 22.73H7.00003V22.76ZM17 8.76H7.00003C6.70576 8.75767 6.41406 8.81495 6.14252 8.92838C5.87098 9.04181 5.62521 9.20904 5.42003 9.42C5.20728 9.62488 5.03755 9.87016 4.92079 10.1415C4.80402 10.4128 4.74257 10.7046 4.74003 11V19C4.73871 19.2972 4.79626 19.5916 4.90937 19.8664C5.02247 20.1412 5.18889 20.3909 5.39902 20.601C5.60914 20.8111 5.85881 20.9776 6.1336 21.0907C6.4084 21.2038 6.70287 21.2613 7.00003 21.26H17C17.2972 21.2613 17.5917 21.2038 17.8665 21.0907C18.1413 20.9776 18.3909 20.8111 18.601 20.601C18.8112 20.3909 18.9776 20.1412 19.0907 19.8664C19.2038 19.5916 19.2614 19.2972 19.26 19V11C19.2627 10.702 19.2061 10.4065 19.0936 10.1305C18.9811 9.85455 18.8149 9.60369 18.6046 9.3925C18.3944 9.18132 18.1442 9.014 17.8688 8.90027C17.5933 8.78654 17.298 8.72866 17 8.73V8.76Z" fill="white"/>
    <path d="M7.99998 8.75C7.90214 8.75178 7.80492 8.73413 7.71395 8.69809C7.62297 8.66204 7.54005 8.60831 7.46998 8.54C7.39639 8.47023 7.3373 8.38661 7.29612 8.29394C7.25493 8.20127 7.23245 8.10138 7.22998 8V6C7.22998 5.37407 7.35343 4.75428 7.59327 4.17611C7.83311 3.59795 8.18462 3.07277 8.62769 2.63063C9.07075 2.18849 9.59667 1.83808 10.1753 1.59946C10.754 1.36084 11.374 1.23869 12 1.24C13.2564 1.25053 14.4579 1.75636 15.3435 2.64761C16.2292 3.53886 16.7274 4.74355 16.73 6V8C16.7313 8.09886 16.7128 8.197 16.6756 8.2886C16.6384 8.3802 16.5832 8.46341 16.5133 8.53333C16.4434 8.60324 16.3602 8.65844 16.2686 8.69565C16.177 8.73287 16.0788 8.75135 15.98 8.75H7.97998H7.99998ZM12 2.75C11.5719 2.74869 11.1477 2.83171 10.7517 2.99432C10.3556 3.15694 9.99553 3.39597 9.69188 3.69776C9.38823 3.99955 9.147 4.35819 8.98196 4.75321C8.81691 5.14823 8.73129 5.57189 8.72998 6V7.25H15.23V6C15.23 5.14057 14.8907 4.31589 14.2858 3.70537C13.6809 3.09486 12.8594 2.74791 12 2.74V2.75Z" fill="white"/>
    <path d="M12 17.24C11.2724 17.24 10.5744 16.9517 10.059 16.4381C9.54355 15.9245 9.25265 15.2276 9.25 14.5C9.25 13.7697 9.53941 13.0692 10.0548 12.5519C10.5703 12.0346 11.2697 11.7427 12 11.74C12.7293 11.74 13.4288 12.0297 13.9445 12.5455C14.4603 13.0612 14.75 13.7607 14.75 14.49C14.75 15.2194 14.4603 15.9188 13.9445 16.4345C13.4288 16.9503 12.7293 17.24 12 17.24ZM12 13.24C11.6684 13.2452 11.352 13.38 11.1184 13.6154C10.8848 13.8509 10.7526 14.1684 10.75 14.5C10.75 14.6637 10.7824 14.8258 10.8453 14.9769C10.9083 15.128 11.0005 15.2651 11.1167 15.3804C11.2329 15.4956 11.3708 15.5868 11.5224 15.6485C11.674 15.7102 11.8363 15.7413 12 15.74C12.1632 15.7414 12.3251 15.7103 12.4762 15.6485C12.6273 15.5867 12.7645 15.4954 12.88 15.38C13.1164 15.1441 13.2495 14.824 13.25 14.49C13.25 14.1585 13.1183 13.8405 12.8839 13.6061C12.6495 13.3717 12.3315 13.24 12 13.24Z" fill="white"/>
    <path d="M12 19.24C11.8028 19.24 11.6135 19.1624 11.4732 19.0239C11.3328 18.8854 11.2526 18.6972 11.25 18.5V16.5C11.25 16.3002 11.3287 16.1084 11.4691 15.9661C11.6094 15.8239 11.8002 15.7426 12 15.74C12.0985 15.74 12.196 15.7594 12.287 15.7971C12.378 15.8348 12.4607 15.89 12.5303 15.9597C12.6 16.0293 12.6552 16.112 12.6929 16.203C12.7306 16.294 12.75 16.3915 12.75 16.49V18.49C12.75 18.6889 12.671 18.8797 12.5303 19.0203C12.3897 19.161 12.1989 19.24 12 19.24Z" fill="white"/>
</svg>