<svg width="32" height="32" viewBox="0 0 32 32" fill="none" xmlns="http://www.w3.org/2000/svg">
<ellipse opacity="0.2" cx="16" cy="16" rx="16" ry="16" fill="#E59C50"/>
<path fill-rule="evenodd" clip-rule="evenodd" d="M21.0249 13.2341C20.8579 11.5014 19.3621 10.9204 17.4736 10.755L17.4735 8.35142L16.0101 8.35167L16.0102 10.6919C15.626 10.6919 15.2328 10.6994 14.8422 10.7072L14.8424 8.35152L13.3802 8.35148L13.3796 10.7544C13.0629 10.7608 12.7518 10.7667 12.4485 10.7669L12.4483 10.7595L10.4304 10.7588L10.4308 12.3214C10.4308 12.3214 11.5112 12.3008 11.4932 12.3206C12.0858 12.3208 12.2791 12.6648 12.3348 12.9617L12.335 15.6999C12.3758 15.7001 12.4292 15.7018 12.4896 15.7101L12.3354 15.7102L12.3347 19.5462C12.3087 19.7327 12.199 20.0301 11.785 20.0308C11.8037 20.0474 10.7215 20.0305 10.7215 20.0305L10.4309 21.7782L12.3352 21.778C12.5501 21.7783 12.7629 21.7806 12.9734 21.7829L12.9738 21.7829L12.9741 21.7829C13.1104 21.7843 13.2457 21.7858 13.38 21.7867L13.3807 24.218L14.8422 24.2183L14.8425 21.8129C15.2434 21.8213 15.6318 21.8245 16.0109 21.8242L16.0102 24.2183L17.4733 24.2182L17.4737 21.7916C19.9334 21.6504 21.6553 21.0307 21.8684 18.7215C22.041 16.8616 21.1665 16.0316 19.7702 15.6959C20.6182 15.2632 21.1485 14.5021 21.0245 13.2342L21.0249 13.2341ZM18.9776 18.4322C18.978 20.0996 16.3581 20.0629 15.1605 20.0461C15.0532 20.0446 14.9574 20.0432 14.8759 20.0433L14.8762 16.8224C14.9759 16.8224 15.0969 16.8196 15.2341 16.8164L15.2341 16.8164C16.4616 16.7874 18.977 16.728 18.978 18.4321L18.9776 18.4322ZM15.117 15.3511C16.1169 15.3674 18.2964 15.4031 18.2968 13.8882C18.297 12.3384 16.2002 12.3941 15.1761 12.4213C15.061 12.4244 14.9594 12.4271 14.8759 12.4271L14.8758 15.3483C14.9448 15.3483 15.026 15.3496 15.117 15.3511Z" fill="#E59C50"/>
</svg>
