<svg width="24" height="24" viewBox="0 0 24 24" fill="none" xmlns="http://www.w3.org/2000/svg">
<path d="M6.5 21.3699C5.63886 21.3672 4.81374 21.024 4.20482 20.4151C3.59589 19.8061 3.25264 18.981 3.25 18.1199V11.1199C3.25 10.2579 3.59241 9.43127 4.2019 8.82178C4.8114 8.21228 5.63805 7.86987 6.5 7.86987C7.36195 7.86987 8.1886 8.21228 8.7981 8.82178C9.40759 9.43127 9.75 10.2579 9.75 11.1199V18.1199C9.74736 18.981 9.40411 19.8061 8.79518 20.4151C8.18626 21.024 7.36114 21.3672 6.5 21.3699ZM6.5 9.36987C6.03587 9.36987 5.59075 9.55425 5.26256 9.88244C4.93437 10.2106 4.75 10.6557 4.75 11.1199V18.1199C4.75 18.584 4.93437 19.0291 5.26256 19.3573C5.59075 19.6855 6.03587 19.8699 6.5 19.8699C6.96413 19.8699 7.40925 19.6855 7.73744 19.3573C8.06563 19.0291 8.25 18.584 8.25 18.1199V11.1199C8.25 10.8901 8.20473 10.6625 8.11679 10.4502C8.02884 10.2379 7.89994 10.0449 7.73744 9.88244C7.57493 9.71993 7.38202 9.59103 7.1697 9.50308C6.95738 9.41514 6.72981 9.36987 6.5 9.36987Z" fill="white"/>
<path d="M18.0601 21.37H10.9401C10.2274 21.3673 9.54475 21.0831 9.04085 20.5792C8.53695 20.0753 8.25269 19.3926 8.25006 18.68V8.61996C8.2451 8.57676 8.2451 8.53315 8.25006 8.48995C8.5487 6.65838 9.23019 4.91036 10.2501 3.35996C10.4954 3.04652 10.833 2.81806 11.2152 2.70682C11.5974 2.59557 12.0048 2.60716 12.3801 2.73996C12.7685 2.86863 13.1064 3.11686 13.3453 3.44913C13.5841 3.78141 13.7118 4.18072 13.7101 4.58996V7.86996H18.0201C18.7318 7.86995 19.4145 8.15199 19.9186 8.6543C20.4228 9.15661 20.7074 9.83826 20.7101 10.55V18.68C20.7076 19.3857 20.4288 20.0625 19.9335 20.5653C19.4382 21.068 18.7657 21.3569 18.0601 21.37ZM9.75006 8.67996V18.68C9.75006 18.8362 9.78084 18.991 9.84064 19.1353C9.90044 19.2797 9.9881 19.4109 10.0986 19.5214C10.2091 19.6319 10.3403 19.7196 10.4847 19.7794C10.629 19.8392 10.7838 19.87 10.9401 19.87H18.0601C18.2163 19.87 18.3711 19.8392 18.5155 19.7794C18.6598 19.7196 18.791 19.6319 18.9015 19.5214C19.012 19.4109 19.0997 19.2797 19.1595 19.1353C19.2193 18.991 19.2501 18.8362 19.2501 18.68V10.55C19.2501 10.3942 19.2192 10.2399 19.1593 10.0961C19.0994 9.95225 19.0115 9.82172 18.9009 9.71201C18.7903 9.60231 18.659 9.5156 18.5147 9.45689C18.3704 9.39818 18.2159 9.36863 18.0601 9.36996H13.0001C12.8019 9.36736 12.6127 9.28752 12.4726 9.14742C12.3325 9.00733 12.2526 8.81806 12.2501 8.61996V4.61996C12.2499 4.52344 12.2187 4.42954 12.1611 4.35211C12.1034 4.27469 12.0225 4.21784 11.9301 4.18996C11.8501 4.15569 11.7608 4.14991 11.6771 4.17357C11.5933 4.19723 11.5203 4.2489 11.4701 4.31996C10.6097 5.64303 10.0248 7.12586 9.75006 8.67996Z" fill="white"/>
</svg>
