<svg width="24" height="24" viewBox="0 0 24 24" fill="none" xmlns="http://www.w3.org/2000/svg">
<path d="M18.21 12.7511H14.21C13.4144 12.7511 12.6513 12.435 12.0887 11.8724C11.5261 11.3098 11.21 10.5467 11.21 9.75107V5.75107C11.2099 5.64912 11.2305 5.54821 11.2707 5.45451C11.3109 5.3608 11.3697 5.27627 11.4436 5.20608C11.5176 5.13589 11.605 5.0815 11.7007 5.04625C11.7964 5.01101 11.8982 4.99563 12 5.00107H16C16.7957 5.00107 17.5587 5.31714 18.1213 5.87975C18.684 6.44236 19 7.20542 19 8.00107V12.0011C19.0002 12.103 18.9795 12.2039 18.9394 12.2976C18.8992 12.3913 18.8403 12.4759 18.7664 12.5461C18.6925 12.6162 18.605 12.6706 18.5093 12.7059C18.4137 12.7411 18.3118 12.7565 18.21 12.7511ZM12.75 6.54107V9.76107C12.75 10.1562 12.907 10.5352 13.1864 10.8147C13.4659 11.0941 13.8448 11.2511 14.24 11.2511H17.46V8.00107C17.4523 7.61626 17.2961 7.24934 17.0239 6.97718C16.7518 6.70502 16.3848 6.54874 16 6.54107H12.75Z" fill="white"/>
<path d="M16 19.001H8C7.20435 19.001 6.44129 18.6849 5.87868 18.1223C5.31607 17.5597 5 16.7966 5 16.001V8.00098C5 7.20533 5.31607 6.44227 5.87868 5.87966C6.44129 5.31705 7.20435 5.00098 8 5.00098H16C16.7956 5.00098 17.5587 5.31705 18.1213 5.87966C18.6839 6.44227 19 7.20533 19 8.00098V16.001C19 16.7966 18.6839 17.5597 18.1213 18.1223C17.5587 18.6849 16.7956 19.001 16 19.001ZM8 6.54098C7.61519 6.54865 7.24827 6.70493 6.97611 6.97709C6.70396 7.24925 6.54767 7.61616 6.54 8.00098V16.001C6.54767 16.3858 6.70396 16.7527 6.97611 17.0249C7.24827 17.297 7.61519 17.4533 8 17.461H16C16.3848 17.4533 16.7517 17.297 17.0239 17.0249C17.296 16.7527 17.4523 16.3858 17.46 16.001V8.00098C17.4523 7.61616 17.296 7.24925 17.0239 6.97709C16.7517 6.70493 16.3848 6.54865 16 6.54098H8Z" fill="white"/>
</svg>
