<svg width="24" height="24" viewBox="0 0 24 24" fill="none" xmlns="http://www.w3.org/2000/svg">
<path d="M18.11 22.71H5.89998C5.19358 22.71 4.51596 22.4301 4.01553 21.9316C3.51509 21.433 3.23262 20.7564 3.22997 20.05V4.00004C3.22467 3.64606 3.28982 3.29456 3.42162 2.96599C3.55342 2.63742 3.74925 2.33834 3.99772 2.08615C4.24618 1.83397 4.54231 1.63371 4.86889 1.49704C5.19546 1.36036 5.54595 1.29 5.89998 1.29004H18.11C18.4635 1.28998 18.8136 1.3604 19.1396 1.49719C19.4656 1.63399 19.7611 1.8344 20.0088 2.08673C20.2564 2.33905 20.4513 2.63822 20.582 2.96674C20.7127 3.29526 20.7766 3.64654 20.77 4.00004V20.1C20.7569 20.7968 20.4709 21.4606 19.9734 21.9487C19.476 22.4368 18.8069 22.7102 18.11 22.71ZM5.89998 2.79004C5.7425 2.78853 5.58637 2.81911 5.4411 2.8799C5.29583 2.9407 5.16445 3.03043 5.05498 3.14364C4.94551 3.25685 4.86024 3.39117 4.80437 3.5384C4.74849 3.68564 4.72318 3.84271 4.72997 4.00004V20.1C4.74293 20.4007 4.87221 20.6845 5.09052 20.8916C5.30882 21.0987 5.59907 21.2129 5.89998 21.21H18.11C18.4176 21.21 18.7127 21.0878 18.9302 20.8703C19.1478 20.6527 19.27 20.3577 19.27 20.05V4.00004C19.27 3.69239 19.1478 3.39734 18.9302 3.1798C18.7127 2.96225 18.4176 2.84004 18.11 2.84004L5.89998 2.79004Z" fill="white"/>
<path d="M20 12.75H14.47C14.2711 12.75 14.0803 12.671 13.9396 12.5303C13.799 12.3897 13.72 12.1989 13.72 12C13.72 11.8011 13.799 11.6103 13.9396 11.4697C14.0803 11.329 14.2711 11.25 14.47 11.25H20C20.1989 11.25 20.3896 11.329 20.5303 11.4697C20.671 11.6103 20.75 11.8011 20.75 12C20.75 12.1989 20.671 12.3897 20.5303 12.5303C20.3896 12.671 20.1989 12.75 20 12.75Z" fill="white"/>
<path d="M9.54 12.75H4C3.80109 12.75 3.61032 12.671 3.46967 12.5303C3.32902 12.3897 3.25 12.1989 3.25 12C3.25 11.8011 3.32902 11.6103 3.46967 11.4697C3.61032 11.329 3.80109 11.25 4 11.25H9.54C9.73891 11.25 9.92968 11.329 10.0703 11.4697C10.211 11.6103 10.29 11.8011 10.29 12C10.29 12.1989 10.211 12.3897 10.0703 12.5303C9.92968 12.671 9.73891 12.75 9.54 12.75Z" fill="white"/>
<path d="M15.36 6.13007H8.63995C8.44185 6.12748 8.25258 6.04763 8.11249 5.90753C7.97239 5.76744 7.89254 5.57818 7.88995 5.38007V2.00007C7.88995 1.80116 7.96897 1.61039 8.10962 1.46974C8.25028 1.32909 8.44104 1.25007 8.63995 1.25007H15.36C15.4588 1.24872 15.5569 1.2672 15.6486 1.30442C15.7402 1.34163 15.8234 1.39683 15.8933 1.46674C15.9632 1.53665 16.0184 1.61987 16.0556 1.71147C16.0928 1.80307 16.1113 1.9012 16.11 2.00007V5.38007C16.11 5.57898 16.0309 5.76975 15.8903 5.9104C15.7496 6.05105 15.5589 6.13007 15.36 6.13007ZM9.35995 4.63007H14.58V2.79007H9.38995L9.35995 4.63007Z" fill="white"/>
<path d="M15.36 22.7101H8.63995C8.44778 22.7104 8.26284 22.6369 8.12328 22.5048C7.98372 22.3727 7.9002 22.192 7.88995 22.0001V18.6201C7.89254 18.422 7.97239 18.2327 8.11249 18.0926C8.25258 17.9526 8.44185 17.8727 8.63995 17.8701H15.36C15.5589 17.8701 15.7496 17.9491 15.8903 18.0898C16.0309 18.2304 16.11 18.4212 16.11 18.6201V22.0001C16.1022 22.1929 16.0194 22.375 15.8793 22.5076C15.7392 22.6402 15.5528 22.7129 15.36 22.7101ZM9.35995 21.2101H14.58V19.3701H9.38995L9.35995 21.2101Z" fill="white"/>
<path d="M12 15.15C11.3627 15.15 10.7397 14.9609 10.21 14.6066C9.68024 14.2523 9.26753 13.7488 9.02412 13.1599C8.7807 12.5709 8.71752 11.923 8.84258 11.2981C8.96763 10.6732 9.2753 10.0995 9.72663 9.64954C10.178 9.19962 10.7526 8.89373 11.3779 8.77062C12.0032 8.64751 12.6509 8.7127 13.2391 8.95795C13.8273 9.2032 14.3295 9.61747 14.6822 10.1483C15.0348 10.6792 15.2219 11.3027 15.22 11.94C15.2173 12.7922 14.8769 13.6087 14.2733 14.2104C13.6697 14.8121 12.8522 15.15 12 15.15ZM12 10.22C11.6598 10.22 11.3272 10.3208 11.0444 10.5098C10.7615 10.6988 10.5411 10.9675 10.4109 11.2817C10.2807 11.596 10.2466 11.9419 10.313 12.2755C10.3794 12.6092 10.5432 12.9156 10.7837 13.1562C11.0243 13.3967 11.3308 13.5605 11.6644 13.6269C11.998 13.6933 12.3439 13.6592 12.6582 13.529C12.9725 13.3989 13.2411 13.1784 13.4301 12.8955C13.6191 12.6127 13.72 12.2801 13.72 11.94C13.72 11.4838 13.5387 11.0463 13.2162 10.7237C12.8936 10.4012 12.4561 10.22 12 10.22Z" fill="white"/>
</svg>
