<svg width="24" height="24" viewBox="0 0 24 24" fill="none" xmlns="http://www.w3.org/2000/svg">
<path d="M5.20001 16.5799C5.07025 16.5797 4.94282 16.5455 4.83049 16.4805C4.71816 16.4156 4.62488 16.3223 4.56001 16.2099C3.82587 14.9995 3.39635 13.6291 3.30832 12.2162C3.22029 10.8034 3.47637 9.39024 4.05458 8.0981C4.6328 6.80597 5.51588 5.67342 6.62806 4.79763C7.74024 3.92184 9.04831 3.32897 10.44 3.06989C10.5372 3.05264 10.6368 3.05474 10.7332 3.07609C10.8296 3.09743 10.9208 3.13759 11.0017 3.19426C11.0825 3.25093 11.1513 3.323 11.2042 3.40634C11.2572 3.48967 11.2931 3.58264 11.31 3.67989C11.3421 3.87586 11.2963 4.07661 11.1823 4.23921C11.0683 4.4018 10.8952 4.51332 10.7 4.54989C9.33147 4.80334 8.06536 5.44694 7.0541 6.40321C6.04283 7.35948 5.32951 8.58766 5.00001 9.93989C4.54486 11.8135 4.85049 13.7911 5.85001 15.4399C5.94312 15.6081 5.96806 15.8057 5.91968 15.9918C5.87129 16.1779 5.75327 16.3383 5.59001 16.4399C5.47524 16.5213 5.34036 16.5697 5.20001 16.5799Z" fill="white"/>
<path d="M12 20.4298C10.6059 20.421 9.23421 20.0781 7.99998 19.4298C7.90781 19.3874 7.82521 19.3267 7.75717 19.2514C7.68914 19.1761 7.63708 19.0878 7.60417 18.9919C7.57125 18.8959 7.55815 18.7942 7.56566 18.693C7.57317 18.5918 7.60113 18.4932 7.64786 18.4032C7.69459 18.3131 7.7591 18.2334 7.83751 18.169C7.91591 18.1046 8.00657 18.0568 8.10399 18.0284C8.20142 18.0001 8.30358 17.9918 8.40431 18.004C8.50503 18.0163 8.60222 18.0489 8.68998 18.0998C9.7361 18.6438 10.8993 18.9241 12.0784 18.9163C13.2574 18.9085 14.4168 18.6128 15.4556 18.0549C16.4944 17.4971 17.3813 16.694 18.039 15.7154C18.6968 14.7368 19.1057 13.6124 19.23 12.4398C19.2526 12.2415 19.3524 12.0601 19.5077 11.9347C19.663 11.8094 19.8614 11.7501 20.06 11.7698C20.2574 11.79 20.4388 11.8877 20.5644 12.0414C20.69 12.1951 20.7495 12.3923 20.73 12.5898C20.5024 14.745 19.484 16.7394 17.8715 18.1874C16.2591 19.6354 14.1672 20.4344 12 20.4298Z" fill="white"/>
<path d="M4.28999 20.9399C4.05371 20.938 3.82158 20.8776 3.61435 20.7641C3.40712 20.6505 3.23126 20.4874 3.10249 20.2893C2.97371 20.0912 2.89603 19.8642 2.8764 19.6288C2.85677 19.3933 2.8958 19.1566 2.98999 18.9399L4.51999 15.5199C4.60355 15.3424 4.75332 15.2047 4.9372 15.1364C5.12107 15.068 5.32442 15.0744 5.50363 15.1542C5.68284 15.234 5.82366 15.3808 5.89588 15.5632C5.96811 15.7456 5.96599 15.9491 5.88999 16.1299L4.43999 19.3799L8.10999 18.0699C8.20563 18.0319 8.308 18.0136 8.41089 18.0163C8.51379 18.019 8.61506 18.0426 8.70857 18.0856C8.80208 18.1286 8.88588 18.1902 8.95488 18.2666C9.02388 18.3429 9.07665 18.4325 9.10999 18.5299C9.14976 18.6248 9.16959 18.7268 9.16827 18.8296C9.16694 18.9324 9.14447 19.0339 9.10227 19.1277C9.06007 19.2215 8.99902 19.3056 8.92294 19.3748C8.84685 19.444 8.75735 19.4968 8.65999 19.5299L4.76999 20.8599C4.61497 20.9107 4.45312 20.9377 4.28999 20.9399Z" fill="white"/>
<path d="M16.4 10.3799C16.2019 10.3773 16.0126 10.2975 15.8725 10.1574C15.7324 10.0173 15.6526 9.82802 15.65 9.62992V3.83992C15.6501 3.69168 15.6942 3.5468 15.7766 3.42358C15.859 3.30037 15.9761 3.20434 16.113 3.14763C16.25 3.09092 16.4007 3.07607 16.5461 3.10495C16.6915 3.13384 16.8251 3.20516 16.93 3.30992L19.82 6.19992C19.9524 6.34209 20.0246 6.53014 20.0211 6.72444C20.0177 6.91874 19.939 7.10413 19.8016 7.24154C19.6642 7.37895 19.4788 7.45766 19.2845 7.46109C19.0902 7.46452 18.9021 7.3924 18.76 7.25992L17.15 5.64992V9.64992C17.1448 9.84534 17.0634 10.031 16.9233 10.1674C16.7833 10.3037 16.5955 10.38 16.4 10.3799Z" fill="white"/>
<path d="M13.51 7.47993C13.3179 7.4756 13.135 7.39671 13 7.25993C12.8595 7.11931 12.7806 6.92869 12.7806 6.72993C12.7806 6.53118 12.8595 6.34056 13 6.19993L15.89 3.30993C16.0322 3.17745 16.2202 3.10533 16.4145 3.10876C16.6088 3.11219 16.7942 3.1909 16.9316 3.32831C17.069 3.46573 17.1477 3.65111 17.1512 3.84541C17.1546 4.03971 17.0825 4.22776 16.95 4.36993L14 7.25993C13.87 7.39205 13.6951 7.47056 13.51 7.47993Z" fill="white"/>
</svg>
