<svg width="24" height="24" viewBox="0 0 24 24" fill="none" xmlns="http://www.w3.org/2000/svg">
<path d="M12 21.75C10.0716 21.75 8.18657 21.1782 6.58319 20.1068C4.97982 19.0355 3.73013 17.5127 2.99218 15.7312C2.25422 13.9496 2.06114 11.9892 2.43735 10.0979C2.81355 8.20656 3.74215 6.46928 5.10571 5.10571C6.46928 3.74215 8.20656 2.81355 10.0979 2.43735C11.9892 2.06114 13.9496 2.25422 15.7312 2.99218C17.5127 3.73013 19.0355 4.97982 20.1068 6.58319C21.1782 8.18657 21.75 10.0716 21.75 12C21.7474 14.5851 20.7193 17.0635 18.8914 18.8914C17.0635 20.7193 14.5851 21.7474 12 21.75ZM12 3.75C10.3683 3.75 8.77326 4.23386 7.41655 5.14038C6.05984 6.0469 5.00242 7.33538 4.378 8.84287C3.75358 10.3504 3.5902 12.0092 3.90853 13.6095C4.22685 15.2098 5.01259 16.6799 6.16637 17.8336C7.32016 18.9874 8.79017 19.7732 10.3905 20.0915C11.9909 20.4098 13.6497 20.2464 15.1571 19.622C16.6646 18.9976 17.9531 17.9402 18.8596 16.5835C19.7661 15.2268 20.25 13.6317 20.25 12C20.2474 9.81278 19.3773 7.7159 17.8307 6.1693C16.2841 4.62269 14.1872 3.75265 12 3.75Z" fill="white"/>
<path d="M20.7999 10.8401H3.19995C3.00104 10.8401 2.81027 10.7611 2.66962 10.6204C2.52897 10.4798 2.44995 10.289 2.44995 10.0901C2.44995 9.89118 2.52897 9.70041 2.66962 9.55976C2.81027 9.4191 3.00104 9.34009 3.19995 9.34009H20.7999C20.9989 9.34009 21.1896 9.4191 21.3303 9.55976C21.4709 9.70041 21.5499 9.89118 21.5499 10.0901C21.5499 10.289 21.4709 10.4798 21.3303 10.6204C21.1896 10.7611 20.9989 10.8401 20.7999 10.8401Z" fill="white"/>
</svg>
