<svg width="24" height="24" viewBox="0 0 24 24" fill="none" xmlns="http://www.w3.org/2000/svg">
<path d="M9.75 17.27C8.26664 17.27 6.8166 16.8302 5.58323 16.006C4.34986 15.1819 3.38856 14.0106 2.82091 12.6401C2.25325 11.2697 2.10472 9.7617 2.39411 8.30685C2.6835 6.85199 3.39781 5.51562 4.4467 4.46672C5.4956 3.41783 6.83197 2.70352 8.28683 2.41413C9.74168 2.12474 11.2497 2.27327 12.6201 2.84093C13.9906 3.40858 15.1619 4.36988 15.986 5.60325C16.8101 6.83661 17.25 8.28666 17.25 9.77002C17.25 11.7591 16.4598 13.6668 15.0533 15.0733C13.6468 16.4798 11.7391 17.27 9.75 17.27ZM9.75 3.77002C8.56332 3.77002 7.40328 4.12192 6.41658 4.78121C5.42989 5.44049 4.66085 6.37757 4.20673 7.47392C3.7526 8.57028 3.63378 9.77668 3.86529 10.9406C4.0968 12.1045 4.66825 13.1735 5.50736 14.0127C6.34648 14.8518 7.41558 15.4232 8.57946 15.6547C9.74335 15.8862 10.9497 15.7674 12.0461 15.3133C13.1425 14.8592 14.0795 14.0901 14.7388 13.1034C15.3981 12.1167 15.75 10.9567 15.75 9.77002C15.75 8.17872 15.1179 6.6526 13.9926 5.52738C12.8674 4.40216 11.3413 3.77002 9.75 3.77002Z" fill="white"/>
<path d="M21 21.7701C20.9015 21.7705 20.8039 21.7513 20.7128 21.7135C20.6218 21.6758 20.5393 21.6202 20.47 21.5501L14 15.0701C13.9258 15.0021 13.8661 14.9198 13.8244 14.8283C13.7826 14.7367 13.7598 14.6376 13.7571 14.537C13.7544 14.4364 13.7721 14.3363 13.8089 14.2427C13.8457 14.149 13.901 14.0637 13.9715 13.9919C14.042 13.9201 14.1262 13.8632 14.2192 13.8246C14.3121 13.786 14.4119 13.7665 14.5125 13.7672C14.6131 13.768 14.7126 13.789 14.8049 13.829C14.8973 13.869 14.9806 13.9272 15.05 14.0001L21.53 20.4801C21.6705 20.6207 21.7494 20.8113 21.7494 21.0101C21.7494 21.2088 21.6705 21.3994 21.53 21.5401C21.4616 21.612 21.3795 21.6694 21.2884 21.7089C21.1974 21.7484 21.0993 21.7692 21 21.7701Z" fill="white"/>
</svg>
