<svg width="24" height="24" viewBox="0 0 24 24" fill="none" xmlns="http://www.w3.org/2000/svg">
<path d="M7.59003 12.8699C7.39118 12.8697 7.20054 12.7906 7.06003 12.6499C6.92114 12.5082 6.84233 12.3183 6.84003 12.1199C6.84272 12.0014 6.87348 11.8852 6.92977 11.7808C6.98607 11.6765 7.0663 11.587 7.16389 11.5197C7.26148 11.4523 7.37364 11.4091 7.49117 11.3935C7.6087 11.3779 7.72826 11.3904 7.84003 11.4299C7.93132 11.464 8.01348 11.5187 8.08003 11.5899C8.22048 11.7306 8.29937 11.9212 8.29937 12.1199C8.29937 12.3187 8.22048 12.5093 8.08003 12.6499C8.01067 12.7177 7.92928 12.772 7.84003 12.8099C7.76097 12.8448 7.67629 12.8651 7.59003 12.8699Z" fill="white"/>
<path d="M12.11 8.34995C11.9111 8.34995 11.7204 8.27093 11.5797 8.13028C11.4391 7.98963 11.36 7.79886 11.36 7.59995C11.3624 7.40154 11.4412 7.21167 11.58 7.06995C11.6853 6.96806 11.8177 6.89875 11.9614 6.87036C12.1051 6.84198 12.254 6.85573 12.39 6.90995C12.4836 6.94534 12.5687 6.99983 12.64 7.06995C12.7789 7.21167 12.8577 7.40154 12.86 7.59995C12.8599 7.7988 12.7807 7.98943 12.64 8.12995C12.5693 8.20322 12.4842 8.26109 12.39 8.29995C12.3001 8.33186 12.2055 8.34876 12.11 8.34995Z" fill="white"/>
<path d="M11.83 17.1101C11.6316 17.1078 11.4417 17.029 11.3 16.8901C11.1596 16.7495 11.0807 16.5588 11.0807 16.3601C11.0807 16.1613 11.1596 15.9707 11.3 15.8301C11.4431 15.6943 11.6328 15.6187 11.83 15.6187C12.0273 15.6187 12.217 15.6943 12.36 15.8301C12.4309 15.899 12.4885 15.9804 12.53 16.0701C12.5609 16.1638 12.5778 16.2615 12.58 16.3601C12.58 16.559 12.501 16.7498 12.3604 16.8904C12.2197 17.0311 12.0289 17.1101 11.83 17.1101Z" fill="white"/>
<path d="M16.35 12.6C16.2503 12.6003 16.1515 12.5798 16.06 12.54C15.9708 12.502 15.8894 12.4478 15.82 12.38C15.7487 12.3096 15.694 12.2242 15.66 12.13C15.6212 12.0417 15.6008 11.9464 15.6 11.85C15.5997 11.6481 15.6787 11.4542 15.82 11.31C15.8919 11.2453 15.9727 11.1914 16.06 11.15C16.2471 11.0802 16.453 11.0802 16.64 11.15C16.7273 11.1914 16.8082 11.2453 16.88 11.31C17.0213 11.4542 17.1003 11.6481 17.1 11.85C17.0993 11.9464 17.0788 12.0417 17.04 12.13C17.0024 12.2223 16.9481 12.3071 16.88 12.38C16.7395 12.5207 16.5489 12.5998 16.35 12.6Z" fill="white"/>
<path d="M12 22.84C11.5076 22.8401 11.0201 22.743 10.5653 22.5542C10.1106 22.3655 9.69758 22.0888 9.35002 21.74L2.25002 14.64C1.54777 13.9369 1.15332 12.9838 1.15332 11.99C1.15332 10.9963 1.54777 10.0431 2.25002 9.34001L9.35002 2.24001C10.0531 1.53776 11.0063 1.14331 12 1.14331C12.9938 1.14331 13.9469 1.53776 14.65 2.24001L21.75 9.34001C22.0989 9.6875 22.3758 10.1005 22.5647 10.5552C22.7536 11.01 22.8509 11.4976 22.8509 11.99C22.8509 12.4824 22.7536 12.97 22.5647 13.4248C22.3758 13.8795 22.0989 14.2925 21.75 14.64L14.65 21.74C14.3025 22.0888 13.8895 22.3655 13.4347 22.5542C12.9799 22.743 12.4924 22.8401 12 22.84ZM12 2.64001C11.7045 2.63917 11.4117 2.69709 11.1388 2.81039C10.8658 2.9237 10.6181 3.09013 10.41 3.30001L3.31002 10.4C2.88867 10.8219 2.652 11.3938 2.652 11.99C2.652 12.5863 2.88867 13.1581 3.31002 13.58L10.41 20.68C10.8319 21.1014 11.4038 21.338 12 21.338C12.5963 21.338 13.1681 21.1014 13.59 20.68L20.69 13.58C21.1114 13.1581 21.348 12.5863 21.348 11.99C21.348 11.3938 21.1114 10.8219 20.69 10.4L13.59 3.30001C13.382 3.09013 13.1342 2.9237 12.8613 2.81039C12.5883 2.69709 12.2956 2.63917 12 2.64001Z" fill="white"/>
</svg>
