<svg width="24" height="24" viewBox="0 0 24 24" fill="none" xmlns="http://www.w3.org/2000/svg">
<path d="M12 12.7701C11.9003 12.7696 11.8017 12.7492 11.71 12.7101C11.6187 12.676 11.5366 12.6213 11.47 12.5501C11.3296 12.4095 11.2507 12.2188 11.2507 12.0201C11.2507 11.8213 11.3296 11.6307 11.47 11.4901C11.5394 11.4223 11.6208 11.368 11.71 11.3301C11.8016 11.2905 11.9003 11.27 12 11.27C12.0998 11.27 12.1985 11.2905 12.29 11.3301C12.3793 11.368 12.4607 11.4223 12.53 11.4901C12.6705 11.6307 12.7494 11.8213 12.7494 12.0201C12.7494 12.2188 12.6705 12.4095 12.53 12.5501C12.4635 12.6213 12.3813 12.676 12.29 12.7101C12.1983 12.7492 12.0997 12.7696 12 12.7701Z" fill="white"/>
<path d="M17 20.7901H7.00001C6.50249 20.7927 6.00941 20.6964 5.54949 20.5066C5.08957 20.3169 4.67202 20.0375 4.32114 19.6847C3.97027 19.332 3.69309 18.913 3.50576 18.4521C3.31843 17.9911 3.2247 17.4976 3.23001 17.0001V7.00005C3.23 6.50591 3.32766 6.01664 3.51736 5.56036C3.70707 5.10408 3.98508 4.68979 4.33542 4.34131C4.68576 3.99282 5.10152 3.71702 5.55881 3.52974C6.01609 3.34247 6.50587 3.24742 7.00001 3.25005H17C17.4941 3.24742 17.9839 3.34247 18.4412 3.52974C18.8985 3.71702 19.3143 3.99282 19.6646 4.34131C20.0149 4.68979 20.293 5.10408 20.4827 5.56036C20.6724 6.01664 20.77 6.50591 20.77 7.00005V17.0001C20.7753 17.4976 20.6816 17.9911 20.4943 18.4521C20.3069 18.913 20.0298 19.332 19.6789 19.6847C19.328 20.0375 18.9104 20.3169 18.4505 20.5066C17.9906 20.6964 17.4975 20.7927 17 20.7901ZM7.00001 4.75005C6.70286 4.74741 6.40813 4.80366 6.13283 4.91555C5.85754 5.02744 5.60713 5.19275 5.39608 5.40195C5.18502 5.61115 5.0175 5.86008 4.90318 6.13437C4.78885 6.40867 4.73 6.70289 4.73001 7.00005V17.0001C4.72466 17.3006 4.77956 17.5991 4.89149 17.8781C5.00342 18.157 5.17011 18.4107 5.3817 18.6241C5.5933 18.8376 5.84551 19.0065 6.12346 19.1209C6.40141 19.2352 6.69946 19.2928 7.00001 19.2901H17C17.3006 19.2928 17.5986 19.2352 17.8766 19.1209C18.1545 19.0065 18.4067 18.8376 18.6183 18.6241C18.8299 18.4107 18.9966 18.157 19.1085 17.8781C19.2205 17.5991 19.2754 17.3006 19.27 17.0001V7.00005C19.27 6.70289 19.2112 6.40867 19.0968 6.13437C18.9825 5.86008 18.815 5.61115 18.6039 5.40195C18.3929 5.19275 18.1425 5.02744 17.8672 4.91555C17.5919 4.80366 17.2972 4.74741 17 4.75005H7.00001Z" fill="white"/>
</svg>
