<svg width="24" height="24" viewBox="0 0 24 24" fill="none" xmlns="http://www.w3.org/2000/svg">
<path d="M18.6501 22.73H5.31006C5.11115 22.73 4.92038 22.651 4.77973 22.5103C4.63908 22.3697 4.56006 22.1789 4.56006 21.98C4.56006 21.7811 4.63908 21.5903 4.77973 21.4497C4.92038 21.309 5.11115 21.23 5.31006 21.23H17.9001V2.77002H12.0001C11.8011 2.77002 11.6104 2.691 11.4697 2.55035C11.3291 2.4097 11.2501 2.21893 11.2501 2.02002C11.2501 1.82111 11.3291 1.63034 11.4697 1.48969C11.6104 1.34904 11.8011 1.27002 12.0001 1.27002H18.6701C18.8629 1.27261 19.047 1.35035 19.1834 1.48669C19.3197 1.62304 19.3975 1.80722 19.4001 2.00002V22C19.3988 22.0972 19.3783 22.1932 19.3399 22.2825C19.3015 22.3717 19.2459 22.4526 19.1763 22.5204C19.1066 22.5882 19.0243 22.6416 18.934 22.6775C18.8437 22.7135 18.7472 22.7313 18.6501 22.73Z" fill="white"/>
<path d="M18.65 22.73C17.7382 22.7627 16.8298 22.6014 15.9851 22.2566C15.1403 21.9118 14.3785 21.3914 13.75 20.73C10.9 17.68 11.22 12.28 11.23 12.05C11.2427 11.8599 11.3273 11.6817 11.4666 11.5517C11.6059 11.4217 11.7895 11.3496 11.98 11.35H18.65C18.8489 11.35 19.0397 11.429 19.1803 11.5696C19.321 11.7103 19.4 11.9011 19.4 12.1C19.4 12.2989 19.321 12.4897 19.1803 12.6303C19.0397 12.771 18.8489 12.85 18.65 12.85H12.72C12.72 14.31 12.99 17.72 14.85 19.71C15.3404 20.217 15.9324 20.6146 16.5874 20.8766C17.2423 21.1386 17.9452 21.259 18.65 21.23C18.8489 21.23 19.0397 21.309 19.1803 21.4496C19.321 21.5903 19.4 21.7811 19.4 21.98C19.4 22.1789 19.321 22.3697 19.1803 22.5103C19.0397 22.651 18.8489 22.73 18.65 22.73Z" fill="white"/>
<path d="M13.8 12.8501C13.6011 12.8501 13.4104 12.771 13.2697 12.6304C13.1291 12.4897 13.05 12.299 13.05 12.1001V10.4401C13.05 10.2412 13.1291 10.0504 13.2697 9.90973C13.4104 9.76908 13.6011 9.69006 13.8 9.69006C13.999 9.69006 14.1897 9.76908 14.3304 9.90973C14.471 10.0504 14.55 10.2412 14.55 10.4401V12.1001C14.55 12.299 14.471 12.4897 14.3304 12.6304C14.1897 12.771 13.999 12.8501 13.8 12.8501Z" fill="white"/>
</svg>
