<svg width="24" height="24" viewBox="0 0 24 24" fill="none" xmlns="http://www.w3.org/2000/svg">
<path d="M11.1 15.75C10.9019 15.7474 10.7126 15.6676 10.5725 15.5275C10.4324 15.3874 10.3526 15.1981 10.35 15V9.5C10.3584 8.51394 10.0023 7.55953 9.34997 6.82C9.06414 6.48906 8.71132 6.22255 8.31484 6.0381C7.91835 5.85365 7.48723 5.75545 7.04997 5.75C6.11683 5.81426 5.24674 6.2442 4.62882 6.94638C4.0109 7.64857 3.69507 8.56625 3.74997 9.5V15C3.74997 15.1989 3.67096 15.3897 3.5303 15.5303C3.38965 15.671 3.19889 15.75 2.99997 15.75C2.80106 15.75 2.6103 15.671 2.46964 15.5303C2.32899 15.3897 2.24997 15.1989 2.24997 15V9.5C2.21639 8.83917 2.31431 8.17825 2.53805 7.55555C2.76179 6.93285 3.10691 6.36074 3.55339 5.87241C3.99987 5.38407 4.53884 4.98921 5.13905 4.71071C5.73927 4.43221 6.38879 4.27561 7.04997 4.25C7.6986 4.25518 8.33877 4.39778 8.92827 4.6684C9.51777 4.93902 10.0432 5.33151 10.47 5.82C11.3683 6.83434 11.8599 8.14507 11.85 9.5V15C11.8474 15.1981 11.7675 15.3874 11.6274 15.5275C11.4873 15.6676 11.2981 15.7474 11.1 15.75Z" fill="white"/>
<path d="M21 15.75H3C2.80109 15.75 2.61032 15.671 2.46967 15.5303C2.32902 15.3897 2.25 15.1989 2.25 15C2.25 14.8011 2.32902 14.6103 2.46967 14.4697C2.61032 14.329 2.80109 14.25 3 14.25H20.25V9.5C20.2584 8.51394 19.9023 7.55953 19.25 6.82C18.9698 6.49525 18.625 6.2324 18.2376 6.04818C17.8502 5.86396 17.4288 5.76241 17 5.75C16.8011 5.75 16.6103 5.67098 16.4697 5.53033C16.329 5.38968 16.25 5.19891 16.25 5C16.25 4.80109 16.329 4.61032 16.4697 4.46967C16.6103 4.32902 16.8011 4.25 17 4.25C17.6488 4.25391 18.2894 4.39594 18.8791 4.66664C19.4688 4.93735 19.9941 5.33052 20.42 5.82C21.3003 6.84168 21.7737 8.15161 21.75 9.5V15C21.7474 15.1981 21.6676 15.3874 21.5275 15.5275C21.3874 15.6676 21.1981 15.7474 21 15.75Z" fill="white"/>
<path d="M12 22.75C11.8019 22.7474 11.6126 22.6676 11.4725 22.5275C11.3324 22.3874 11.2526 22.1981 11.25 22V15.75H3C2.80109 15.75 2.61032 15.671 2.46967 15.5303C2.32902 15.3897 2.25 15.1989 2.25 15C2.25 14.8011 2.32902 14.6103 2.46967 14.4697C2.61032 14.329 2.80109 14.25 3 14.25H12C12.1981 14.2526 12.3874 14.3324 12.5275 14.4725C12.6676 14.6126 12.7474 14.8019 12.75 15V22C12.7474 22.1981 12.6676 22.3874 12.5275 22.5275C12.3874 22.6676 12.1981 22.7474 12 22.75Z" fill="white"/>
<path d="M17.4 5.75H7.5C7.30109 5.75 7.11032 5.67098 6.96967 5.53033C6.82902 5.38968 6.75 5.19891 6.75 5C6.75 4.80109 6.82902 4.61032 6.96967 4.46967C7.11032 4.32902 7.30109 4.25 7.5 4.25H17.4C17.5989 4.25 17.7897 4.32902 17.9303 4.46967C18.071 4.61032 18.15 4.80109 18.15 5C18.15 5.19891 18.071 5.38968 17.9303 5.53033C17.7897 5.67098 17.5989 5.75 17.4 5.75Z" fill="white"/>
<path d="M16 9.75C15.8019 9.74741 15.6126 9.66756 15.4725 9.52747C15.3324 9.38737 15.2526 9.19811 15.25 9V2C15.2526 1.80189 15.3324 1.61263 15.4725 1.47253C15.6126 1.33244 15.8019 1.25259 16 1.25H21C21.1989 1.25 21.3897 1.32902 21.5303 1.46967C21.671 1.61032 21.75 1.80109 21.75 2C21.75 2.19891 21.671 2.38968 21.5303 2.53033C21.3897 2.67098 21.1989 2.75 21 2.75H16.75V9C16.7474 9.19811 16.6676 9.38737 16.5275 9.52747C16.3874 9.66756 16.1981 9.74741 16 9.75Z" fill="white"/>
</svg>
