<svg width="24" height="24" viewBox="0 0 24 24" fill="none" xmlns="http://www.w3.org/2000/svg">
<path d="M20.86 17.39H18.28C18.0029 17.3911 17.7283 17.3368 17.4724 17.2304C17.2166 17.1239 16.9845 16.9674 16.79 16.77L15.25 15.22C15.1345 15.1091 14.9801 15.048 14.82 15.05H11.82C11.6211 15.05 11.4303 14.9709 11.2897 14.8303C11.149 14.6896 11.07 14.4989 11.07 14.3C11.07 14.101 11.149 13.9103 11.2897 13.7696C11.4303 13.629 11.6211 13.55 11.82 13.55H14.82C15.0971 13.5488 15.3717 13.6031 15.6276 13.7096C15.8835 13.816 16.1155 13.9726 16.31 14.17L17.85 15.71C17.9656 15.8219 18.1191 15.8861 18.28 15.89H20.86C21.0191 15.89 21.1717 15.8267 21.2843 15.7142C21.3968 15.6017 21.46 15.4491 21.46 15.29V8.70995C21.46 8.55082 21.3968 8.39821 21.2843 8.28569C21.1717 8.17317 21.0191 8.10995 20.86 8.10995H11.86C11.6611 8.10995 11.4703 8.03094 11.3297 7.89029C11.189 7.74963 11.11 7.55887 11.11 7.35995C11.11 7.16104 11.189 6.97028 11.3297 6.82962C11.4703 6.68897 11.6611 6.60995 11.86 6.60995H20.86C21.1388 6.60599 21.4156 6.6573 21.6744 6.76094C21.9332 6.86457 22.1689 7.01847 22.3679 7.21374C22.5669 7.409 22.7252 7.64177 22.8337 7.89858C22.9422 8.1554 22.9987 8.43117 23 8.70995V15.29C22.9987 15.5687 22.9422 15.8445 22.8337 16.1013C22.7252 16.3581 22.5669 16.5909 22.3679 16.7862C22.1689 16.9814 21.9332 17.1353 21.6744 17.239C21.4156 17.3426 21.1388 17.3939 20.86 17.39Z" fill="white"/>
<path d="M5.72 17.39H3.14C2.86124 17.394 2.58445 17.3426 2.32564 17.239C2.06682 17.1354 1.83111 16.9815 1.63212 16.7862C1.43314 16.5909 1.27482 16.3582 1.16632 16.1014C1.05782 15.8445 1.00129 15.5688 1 15.29V8.70999C1.00263 8.15384 1.22472 7.62122 1.61798 7.22797C2.01124 6.83471 2.54386 6.61261 3.1 6.60999H12.1C12.2989 6.60999 12.4897 6.689 12.6303 6.82966C12.771 6.97031 12.85 7.16107 12.85 7.35999C12.85 7.5589 12.771 7.74966 12.6303 7.89032C12.4897 8.03097 12.2989 8.10998 12.1 8.10998H3.1C2.94087 8.10998 2.78826 8.1732 2.67574 8.28572C2.56321 8.39824 2.5 8.55086 2.5 8.70999V15.29C2.5 15.4491 2.56321 15.6017 2.67574 15.7142C2.78826 15.8268 2.94087 15.89 3.1 15.89H5.72C5.88086 15.8862 6.03439 15.8219 6.15 15.71L7.69 14.17C7.88453 13.9726 8.11655 13.8161 8.37242 13.7096C8.62829 13.6031 8.90286 13.5489 9.18 13.55H12.18C12.3789 13.55 12.5697 13.629 12.7103 13.7697C12.851 13.9103 12.93 14.1011 12.93 14.3C12.93 14.4989 12.851 14.6897 12.7103 14.8303C12.5697 14.971 12.3789 15.05 12.18 15.05H9.18C9.01991 15.048 8.86547 15.1091 8.75 15.22L7.21 16.77C7.01547 16.9674 6.78345 17.1239 6.52758 17.2304C6.27171 17.3369 5.99714 17.3911 5.72 17.39Z" fill="white"/>
</svg>
