<svg width="24" height="24" viewBox="0 0 24 24" fill="none" xmlns="http://www.w3.org/2000/svg">
<path d="M14.78 19.9999H9.78002C7.98002 19.9999 4.58002 19.0899 4.58002 15.6399C4.58002 12.1899 7.98002 11.2799 9.78002 11.2799H14.22C14.37 11.2799 17.92 11.2299 17.92 8.41994C17.92 5.60994 14.37 5.55994 14.22 5.55994H9.22002C9.02111 5.55994 8.83034 5.48092 8.68969 5.34027C8.54903 5.19961 8.47002 5.00885 8.47002 4.80994C8.47002 4.61102 8.54903 4.42026 8.68969 4.27961C8.83034 4.13895 9.02111 4.05994 9.22002 4.05994H14.22C16.02 4.05994 19.42 4.96994 19.42 8.41994C19.42 11.8699 16.02 12.7799 14.22 12.7799H9.78002C9.63002 12.7799 6.08002 12.8299 6.08002 15.6399C6.08002 18.4499 9.63002 18.4999 9.78002 18.4999H14.78C14.9789 18.4999 15.1697 18.579 15.3103 18.7196C15.451 18.8603 15.53 19.051 15.53 19.2499C15.53 19.4488 15.451 19.6396 15.3103 19.7803C15.1697 19.9209 14.9789 19.9999 14.78 19.9999Z" fill="white"/>
<path d="M6.44 8.31C5.74314 8.30407 5.06363 8.09202 4.48708 7.70056C3.91054 7.30909 3.46276 6.75573 3.20018 6.11021C2.93759 5.46469 2.87195 4.75589 3.01153 4.07312C3.1511 3.39036 3.48965 2.76418 3.9845 2.2735C4.47935 1.78281 5.10837 1.44958 5.79229 1.31579C6.47622 1.182 7.18444 1.25363 7.82771 1.52167C8.47099 1.78971 9.02054 2.24215 9.40711 2.82199C9.79368 3.40182 9.99998 4.08311 10 4.78C10 5.2461 9.90773 5.70759 9.72846 6.13783C9.54919 6.56808 9.28648 6.95856 8.95551 7.28675C8.62453 7.61494 8.23184 7.87433 7.80009 8.04995C7.36834 8.22558 6.90609 8.31396 6.44 8.31ZM6.44 2.75C6.04444 2.75 5.65776 2.86729 5.32886 3.08706C4.99996 3.30682 4.74362 3.61918 4.59224 3.98463C4.44087 4.35008 4.40126 4.75221 4.47843 5.14018C4.5556 5.52814 4.74609 5.8845 5.02579 6.16421C5.3055 6.44391 5.66186 6.6344 6.04982 6.71157C6.43779 6.78874 6.83992 6.74913 7.20537 6.59776C7.57082 6.44638 7.88318 6.19003 8.10294 5.86114C8.32271 5.53224 8.44 5.14556 8.44 4.75C8.44 4.48735 8.38827 4.22728 8.28776 3.98463C8.18725 3.74198 8.03993 3.5215 7.85422 3.33578C7.6685 3.15007 7.44802 3.00275 7.20537 2.90224C6.96272 2.80173 6.70265 2.75 6.44 2.75Z" fill="white"/>
<path d="M17.56 22.7501C16.8614 22.752 16.178 22.5467 15.5961 22.16C15.0143 21.7733 14.5603 21.2227 14.2916 20.5779C14.0229 19.933 13.9516 19.2229 14.0866 18.5375C14.2217 17.8521 14.5571 17.2222 15.0504 16.7275C15.5437 16.2328 16.1726 15.8956 16.8577 15.7586C17.5427 15.6216 18.253 15.6909 18.8986 15.9578C19.5442 16.2247 20.0961 16.6771 20.4844 17.2579C20.8727 17.8386 21.08 18.5215 21.08 19.2201C21.08 20.1545 20.7095 21.0509 20.0496 21.7126C19.3898 22.3743 18.4945 22.7474 17.56 22.7501ZM17.56 17.1901C17.1645 17.1901 16.7778 17.3073 16.4489 17.5271C16.12 17.7469 15.8636 18.0592 15.7123 18.4247C15.5609 18.7901 15.5213 19.1923 15.5985 19.5802C15.6756 19.9682 15.8661 20.3246 16.1458 20.6043C16.4255 20.884 16.7819 21.0745 17.1698 21.1516C17.5578 21.2288 17.9599 21.1892 18.3254 21.0378C18.6908 20.8864 19.0032 20.6301 19.223 20.3012C19.4427 19.9723 19.56 19.5856 19.56 19.1901C19.56 18.6596 19.3493 18.1509 18.9742 17.7758C18.5992 17.4008 18.0905 17.1901 17.56 17.1901Z" fill="white"/>
</svg>
