<svg width="24" height="24" viewBox="0 0 24 24" fill="none" xmlns="http://www.w3.org/2000/svg">
<path d="M12 22.0799C10.0064 22.0799 8.05749 21.4887 6.39984 20.3811C4.74219 19.2735 3.45021 17.6993 2.68728 15.8574C1.92435 14.0155 1.72473 11.9887 2.11367 10.0334C2.50261 8.07809 3.46264 6.282 4.87235 4.87229C6.28206 3.46258 8.07815 2.50255 10.0335 2.11361C11.9888 1.72467 14.0156 1.92429 15.8574 2.68722C17.6993 3.45015 19.2736 4.74213 20.3812 6.39978C21.4888 8.05743 22.08 10.0063 22.08 11.9999C22.0773 14.6725 21.0145 17.2348 19.1247 19.1246C17.2349 21.0144 14.6726 22.0773 12 22.0799ZM12 3.41993C10.303 3.41993 8.64417 3.92313 7.23319 4.86592C5.82222 5.8087 4.7225 7.14871 4.0731 8.7165C3.4237 10.2843 3.25379 12.0094 3.58485 13.6738C3.91591 15.3382 4.73308 16.867 5.93301 18.0669C7.13295 19.2668 8.66176 20.084 10.3261 20.4151C11.9905 20.7461 13.7156 20.5762 15.2834 19.9268C16.8512 19.2774 18.1912 18.1777 19.134 16.7667C20.0768 15.3557 20.58 13.6969 20.58 11.9999C20.5773 9.72518 19.6725 7.54436 18.064 5.93587C16.4556 4.32738 14.2747 3.42257 12 3.41993Z" fill="white"/>
<path d="M7.37997 17.3699C7.18197 17.3656 6.99281 17.2871 6.84997 17.1499C6.75122 17.0511 6.68205 16.9266 6.65024 16.7906C6.61844 16.6545 6.62527 16.5123 6.66997 16.3799L8.66997 10.4399C8.70312 10.3432 8.75571 10.2543 8.8245 10.1786C8.89328 10.1029 8.97682 10.0421 9.06997 9.99993L16.33 6.69993C16.4699 6.63309 16.6272 6.61128 16.78 6.63751C16.9329 6.66374 17.0739 6.73671 17.1835 6.84638C17.2932 6.95605 17.3662 7.09702 17.3924 7.24988C17.4186 7.40275 17.3968 7.55998 17.33 7.69993L14 14.9999C13.9578 15.0931 13.897 15.1766 13.8213 15.2454C13.7456 15.3142 13.6567 15.3668 13.56 15.3999L7.61997 17.3999C7.53905 17.3997 7.45846 17.3896 7.37997 17.3699ZM9.99997 11.2299L8.59997 15.4299L12.8 14.0299L15.14 8.88993L9.99997 11.2299Z" fill="white"/>
<path d="M11.53 13.2199C11.3311 13.2197 11.1405 13.1405 11 12.9999C10.9319 12.9269 10.8777 12.8422 10.84 12.7499C10.8012 12.6616 10.7807 12.5663 10.78 12.4699C10.7801 12.271 10.8593 12.0804 11 11.9399C11.1063 11.8365 11.24 11.7656 11.3852 11.7355C11.5305 11.7054 11.6813 11.7173 11.82 11.7699C11.9097 11.8114 11.991 11.869 12.06 11.9399C12.2007 12.0804 12.2798 12.271 12.28 12.4699C12.2792 12.5663 12.2588 12.6616 12.22 12.7499C12.1823 12.8422 12.1281 12.9269 12.06 12.9999C11.9906 13.0676 11.9092 13.1219 11.82 13.1599C11.7285 13.1997 11.6297 13.2202 11.53 13.2199Z" fill="white"/>
</svg>
