<svg width="24" height="24" viewBox="0 0 24 24" fill="none" xmlns="http://www.w3.org/2000/svg">
<path d="M12 23C11.8376 23.0007 11.6795 22.948 11.55 22.85L4.70002 17.73C4.608 17.6591 4.5332 17.5683 4.48125 17.4644C4.4293 17.3605 4.40153 17.2462 4.40002 17.13V6.88C4.40001 6.76215 4.42705 6.64586 4.47906 6.5401C4.53108 6.43434 4.60667 6.34194 4.70002 6.27L11.55 1.15C11.6798 1.05263 11.8377 1 12 1C12.1623 1 12.3202 1.05263 12.45 1.15L19.3 6.27C19.3934 6.34194 19.469 6.43434 19.521 6.5401C19.573 6.64586 19.6 6.76215 19.6 6.88V17.13C19.5985 17.2462 19.5708 17.3605 19.5188 17.4644C19.4668 17.5683 19.3921 17.6591 19.3 17.73L12.45 22.85C12.3205 22.948 12.1624 23.0007 12 23ZM5.90002 16.75L12 21.31L18.1 16.75V7.25L12 2.69L5.90002 7.25V16.75Z" fill="white"/>
</svg>
