<svg width="24" height="24" viewBox="0 0 24 24" fill="none" xmlns="http://www.w3.org/2000/svg">
<path d="M5.16 15.91C4.38668 15.91 3.63072 15.6807 2.98772 15.251C2.34473 14.8214 1.84357 14.2107 1.54763 13.4963C1.25169 12.7818 1.17426 11.9956 1.32513 11.2372C1.476 10.4787 1.84839 9.782 2.39521 9.23518C2.94204 8.68836 3.63873 8.31597 4.3972 8.1651C5.15566 8.01423 5.94184 8.09166 6.65629 8.3876C7.37075 8.68354 7.98141 9.18469 8.41105 9.82769C8.84068 10.4707 9.07 11.2266 9.07 12C9.06736 13.0362 8.65457 14.0291 7.92187 14.7618C7.18918 15.4945 6.19619 15.9073 5.16 15.91ZM5.16 9.58997C4.68335 9.58997 4.2174 9.73131 3.82108 9.99613C3.42476 10.2609 3.11586 10.6373 2.93345 11.0777C2.75104 11.5181 2.70332 12.0026 2.79631 12.4701C2.8893 12.9376 3.11883 13.3671 3.45587 13.7041C3.79292 14.0411 4.22234 14.2707 4.68983 14.3637C5.15733 14.4567 5.6419 14.4089 6.08227 14.2265C6.52264 14.0441 6.89903 13.7352 7.16384 13.3389C7.42866 12.9426 7.57 12.4766 7.57 12C7.57 11.3608 7.31609 10.7478 6.86413 10.2958C6.41217 9.84388 5.79917 9.58997 5.16 9.58997Z" fill="white"/>
<path d="M18.84 9.59002C18.0667 9.59002 17.3107 9.3607 16.6677 8.93107C16.0247 8.50143 15.5236 7.89077 15.2276 7.17631C14.9317 6.46185 14.8543 5.67568 15.0051 4.91722C15.156 4.15875 15.5284 3.46206 16.0752 2.91523C16.622 2.36841 17.3187 1.99602 18.0772 1.84515C18.8357 1.69428 19.6218 1.77171 20.3363 2.06765C21.0507 2.36359 21.6614 2.86475 22.091 3.50774C22.5207 4.15074 22.75 4.9067 22.75 5.68002C22.7474 6.71621 22.3346 7.7092 21.6019 8.44189C20.8692 9.17459 19.8762 9.58738 18.84 9.59002ZM18.84 3.28002C18.3629 3.28003 17.8966 3.42163 17.5 3.68688C17.1035 3.95214 16.7946 4.32913 16.6125 4.77008C16.4304 5.21103 16.3833 5.69611 16.4771 6.16388C16.5709 6.63164 16.8014 7.06104 17.1394 7.39769C17.4775 7.73433 17.9078 7.96307 18.376 8.05493C18.8441 8.14678 19.329 8.09763 19.7692 7.91369C20.2094 7.72975 20.5851 7.4193 20.8487 7.02166C21.1123 6.62402 21.252 6.15709 21.25 5.68002C21.2473 5.04258 20.9923 4.43216 20.5406 3.98235C20.0889 3.53255 19.4774 3.28002 18.84 3.28002Z" fill="white"/>
<path d="M18.84 22.22C18.0662 22.22 17.3099 21.9905 16.6667 21.5604C16.0235 21.1303 15.5223 20.519 15.2267 19.804C14.931 19.089 14.8542 18.3023 15.0059 17.5435C15.1575 16.7848 15.5309 16.0881 16.0787 15.5417C16.6266 14.9953 17.3242 14.6237 18.0833 14.4739C18.8425 14.3242 19.6289 14.4031 20.3432 14.7005C21.0575 14.998 21.6675 15.5007 22.0959 16.145C22.5243 16.7893 22.752 17.5463 22.75 18.32C22.7473 19.3553 22.3342 20.3472 21.6012 21.0784C20.8683 21.8095 19.8752 22.22 18.84 22.22ZM18.84 15.91C18.3633 15.91 17.8974 16.0514 17.5011 16.3162C17.1047 16.581 16.7958 16.9574 16.6134 17.3978C16.431 17.8381 16.3833 18.3227 16.4763 18.7902C16.5693 19.2577 16.7988 19.6871 17.1359 20.0242C17.4729 20.3612 17.9023 20.5907 18.3698 20.6837C18.8373 20.7767 19.3219 20.729 19.7622 20.5466C20.2026 20.3642 20.579 20.0553 20.8438 19.659C21.1086 19.2626 21.25 18.7967 21.25 18.32C21.25 17.6809 20.9961 17.0679 20.5441 16.6159C20.0921 16.1639 19.4792 15.91 18.84 15.91Z" fill="white"/>
<path d="M16.23 17.28C16.1014 17.2787 15.9748 17.2479 15.86 17.19L7.94 12.65C7.82615 12.5843 7.73187 12.4894 7.66684 12.3752C7.60181 12.261 7.56838 12.1314 7.57 12C7.5724 11.8658 7.61078 11.7347 7.68114 11.6203C7.7515 11.506 7.85126 11.4126 7.97 11.35L16.15 7.14001C16.3277 7.04851 16.5345 7.03134 16.7248 7.09229C16.9152 7.15324 17.0735 7.28731 17.165 7.46501C17.2565 7.6427 17.2737 7.84947 17.2127 8.03981C17.1518 8.23016 17.0177 8.38851 16.84 8.48L9.89 12L16.61 15.84C16.7536 15.9227 16.8658 16.0505 16.9291 16.2037C16.9923 16.3568 17.0031 16.5266 16.9597 16.6865C16.9163 16.8464 16.8212 16.9874 16.6891 17.0876C16.5571 17.1877 16.3957 17.2413 16.23 17.24V17.28Z" fill="white"/>
</svg>
