<svg width="24" height="24" viewBox="0 0 24 24" fill="none" xmlns="http://www.w3.org/2000/svg">
<path d="M6.00005 16.7901C5.87902 16.7886 5.75969 16.7613 5.65005 16.7101C5.50005 16.6301 2.00005 14.7101 1.25005 12.2001C1.02127 11.5621 0.940197 10.8806 1.01295 10.2068C1.0857 9.53299 1.31037 8.88447 1.67005 8.31007C1.9431 7.95479 2.29688 7.66969 2.70208 7.4784C3.10727 7.2871 3.55222 7.19512 4.00005 7.21007C4.37474 7.20106 4.74702 7.27224 5.09195 7.41884C5.43688 7.56543 5.7465 7.78406 6.00005 8.06007C6.25279 7.78302 6.56225 7.56369 6.90738 7.41701C7.25251 7.27034 7.62519 7.19975 8.00005 7.21007C8.4448 7.19669 8.88632 7.28949 9.28804 7.48079C9.68976 7.67209 10.0401 7.95636 10.3101 8.31007C10.6714 8.88367 10.8978 9.53181 10.9723 10.2056C11.0468 10.8794 10.9674 11.5614 10.7401 12.2001C9.98005 14.7601 6.48005 16.6301 6.33005 16.7101C6.22738 16.761 6.11464 16.7883 6.00005 16.7901ZM4.00005 8.71007C3.78949 8.69457 3.57842 8.73224 3.38621 8.81961C3.194 8.90697 3.02683 9.04124 2.90005 9.21007C2.67943 9.59742 2.54791 10.0291 2.51504 10.4736C2.48218 10.9182 2.5488 11.3645 2.71005 11.7801C3.15005 13.2201 5.00005 14.5801 6.00005 15.1801C7.00005 14.5701 8.89005 13.1801 9.31005 11.7801C9.47131 11.3645 9.53793 10.9182 9.50507 10.4736C9.4722 10.0291 9.34067 9.59742 9.12005 9.21007C8.9899 9.04246 8.82069 8.90926 8.6272 8.8221C8.43371 8.73494 8.22183 8.69648 8.01005 8.71007C7.84461 8.7126 7.68135 8.74822 7.52988 8.81482C7.37842 8.88143 7.24182 8.97768 7.12812 9.09789C7.01443 9.21811 6.92595 9.35986 6.86789 9.5148C6.80983 9.66974 6.78336 9.83474 6.79005 10.0001C6.77718 10.1973 6.68697 10.3815 6.53904 10.5126C6.3911 10.6436 6.1974 10.711 6.00005 10.7001C5.81576 10.6929 5.6408 10.6171 5.50947 10.4876C5.37813 10.3581 5.29988 10.1842 5.29005 10.0001C5.29711 9.82877 5.26858 9.65788 5.20624 9.49818C5.14391 9.33847 5.04914 9.19343 4.92792 9.0722C4.80669 8.95098 4.66165 8.85621 4.50195 8.79388C4.34224 8.73155 4.17135 8.70301 4.00005 8.71007Z" fill="white"/>
<path d="M18.0001 16.7901C17.8821 16.7898 17.7658 16.7624 17.6601 16.7101C17.5101 16.6301 14.0101 14.7101 13.2501 12.2001C13.0228 11.5614 12.9434 10.8795 13.0178 10.2056C13.0923 9.53181 13.3188 8.88368 13.6801 8.31007C13.951 7.95497 14.303 7.66983 14.7066 7.47847C15.1102 7.28712 15.5537 7.19509 16.0001 7.21007C16.375 7.19976 16.7476 7.27034 17.0928 7.41702C17.4379 7.5637 17.7474 7.78303 18.0001 8.06007C18.2536 7.78407 18.5633 7.56544 18.9082 7.41884C19.2531 7.27225 19.6254 7.20107 20.0001 7.21007C20.4446 7.19832 20.8856 7.29185 21.287 7.48302C21.6885 7.67419 22.039 7.95759 22.3101 8.31007C22.6698 8.88447 22.8944 9.53299 22.9672 10.2068C23.0399 10.8806 22.9589 11.5621 22.7301 12.2001C21.9801 14.7601 18.4801 16.6301 18.3301 16.7101C18.2266 16.7587 18.1144 16.7859 18.0001 16.7901ZM16.0001 8.71007C15.7883 8.69649 15.5764 8.73495 15.3829 8.82211C15.1895 8.90926 15.0202 9.04246 14.8901 9.21007C14.6695 9.59742 14.5379 10.0291 14.5051 10.4736C14.4722 10.9182 14.5388 11.3645 14.7001 11.7801C15.1201 13.2201 16.9901 14.5801 18.0101 15.1801C19.0101 14.5701 20.9001 13.1801 21.3201 11.7801C21.4813 11.3645 21.548 10.9182 21.5151 10.4736C21.4822 10.0291 21.3507 9.59742 21.1301 9.21007C21.0033 9.04124 20.8361 8.90698 20.6439 8.81961C20.4517 8.73225 20.2407 8.69458 20.0301 8.71007C19.8564 8.69868 19.6822 8.72401 19.5189 8.7844C19.3556 8.84479 19.2068 8.93889 19.0823 9.06058C18.9578 9.18227 18.8603 9.32882 18.7961 9.49069C18.732 9.65256 18.7027 9.82612 18.7101 10.0001C18.7102 10.0968 18.6906 10.1925 18.6525 10.2813C18.6143 10.3702 18.5584 10.4503 18.4882 10.5168C18.418 10.5833 18.3349 10.6347 18.2441 10.668C18.1533 10.7012 18.0566 10.7155 17.9601 10.7101C17.767 10.7078 17.582 10.6321 17.4427 10.4984C17.3034 10.3646 17.2202 10.1829 17.2101 9.99007C17.2168 9.82606 17.1906 9.66236 17.133 9.50864C17.0755 9.35491 16.9877 9.21426 16.875 9.09497C16.7622 8.97568 16.6267 8.88017 16.4764 8.81407C16.3262 8.74797 16.1642 8.71261 16.0001 8.71007Z" fill="white"/>
</svg>
