<svg width="24" height="24" viewBox="0 0 24 24" fill="none" xmlns="http://www.w3.org/2000/svg">
<path d="M18.73 13.47C18.6313 13.4688 18.5334 13.452 18.44 13.42C18.3503 13.3785 18.269 13.3208 18.2 13.25C18.1294 13.1811 18.0736 13.0986 18.0358 13.0075C17.9979 12.9164 17.979 12.8186 17.98 12.72C17.9796 12.6234 18.0001 12.5279 18.04 12.44C18.0716 12.3446 18.1266 12.2586 18.2 12.19C18.2694 12.1222 18.3508 12.068 18.44 12.03C18.6176 11.9553 18.8155 11.9447 19 12C19.0893 12.038 19.1707 12.0922 19.24 12.16C19.3101 12.2313 19.3646 12.3165 19.4 12.41C19.44 12.4979 19.4604 12.5934 19.46 12.69C19.4611 12.7886 19.4421 12.8864 19.4043 12.9775C19.3665 13.0686 19.3106 13.1511 19.24 13.22C19.1094 13.367 18.9262 13.4568 18.73 13.47Z" fill="white"/>
<path d="M5.27002 13.4701C5.07118 13.4699 4.88054 13.3908 4.74002 13.2501C4.66754 13.1807 4.61268 13.095 4.58002 13.0001C4.54014 12.9086 4.51971 12.8098 4.52002 12.7101C4.5202 12.5112 4.59933 12.3206 4.74002 12.1801C4.81349 12.1029 4.90198 12.0417 5.00002 12.0001C5.18707 11.9303 5.39298 11.9303 5.58002 12.0001C5.66927 12.038 5.75067 12.0923 5.82002 12.1601C5.95891 12.3018 6.03772 12.4917 6.04002 12.6901C6.04955 12.7951 6.0359 12.9009 6.00002 13.0001C5.96207 13.0893 5.90781 13.1707 5.84002 13.2401C5.77107 13.3109 5.68973 13.3685 5.60002 13.4101C5.49419 13.4485 5.38262 13.4688 5.27002 13.4701Z" fill="white"/>
<path d="M6.00001 18.1101C5.29183 18.1131 4.59016 17.9749 3.93599 17.7036C3.28181 17.4323 2.68827 17.0334 2.19001 16.5301C1.43527 15.7777 0.921018 14.818 0.712471 13.7729C0.503924 12.7277 0.610485 11.6442 1.01864 10.6597C1.42679 9.6752 2.11814 8.83411 3.005 8.24311C3.89186 7.6521 4.93427 7.33781 6.00001 7.3401C6.19893 7.3401 6.38969 7.41912 6.53034 7.55977C6.671 7.70042 6.75001 7.89119 6.75001 8.0901C6.75001 8.28901 6.671 8.47978 6.53034 8.62043C6.38969 8.76108 6.19893 8.8401 6.00001 8.8401C5.47918 8.83454 4.96261 8.93444 4.4814 9.1338C4.0002 9.33315 3.56432 9.62784 3.20001 10.0001C2.47575 10.7321 2.06951 11.7203 2.06951 12.7501C2.06951 13.7799 2.47575 14.7681 3.20001 15.5001C3.94238 16.2005 4.92439 16.5906 5.94501 16.5906C6.96563 16.5906 7.94765 16.2005 8.69001 15.5001C8.83064 15.3596 9.02126 15.2808 9.22001 15.2808C9.41877 15.2808 9.60939 15.3596 9.75001 15.5001C9.89046 15.6407 9.96935 15.8314 9.96935 16.0301C9.96935 16.2289 9.89046 16.4195 9.75001 16.5601C8.75204 17.5491 7.40505 18.1059 6.00001 18.1101Z" fill="white"/>
<path d="M18.05 18.1101C17.342 18.1119 16.6407 17.9732 15.9866 17.702C15.3326 17.4308 14.739 17.0325 14.24 16.5301C14.0996 16.3895 14.0207 16.1988 14.0207 16.0001C14.0207 15.8013 14.0996 15.6107 14.24 15.4701C14.3807 15.3296 14.5713 15.2507 14.77 15.2507C14.9688 15.2507 15.1594 15.3296 15.3 15.4701C16.0424 16.1705 17.0244 16.5606 18.045 16.5606C19.0657 16.5606 20.0477 16.1705 20.79 15.4701C21.5143 14.7381 21.9205 13.7499 21.9205 12.7201C21.9205 11.6903 21.5143 10.7021 20.79 9.97009C20.4291 9.6093 20.0002 9.32366 19.5282 9.1297C19.0562 8.93574 18.5504 8.8373 18.04 8.84009C17.8411 8.84009 17.6504 8.76107 17.5097 8.62042C17.369 8.47977 17.29 8.289 17.29 8.09009C17.29 7.89118 17.369 7.70041 17.5097 7.55976C17.6504 7.41911 17.8411 7.34009 18.04 7.34009C19.4281 7.39992 20.7394 7.99341 21.7004 8.99675C22.6614 10.0001 23.1979 11.3358 23.1979 12.7251C23.1979 14.1144 22.6614 15.4501 21.7004 16.4534C20.7394 17.4568 19.4281 18.0503 18.04 18.1101H18.05Z" fill="white"/>
<path d="M14.78 16.75H9.22003C9.02112 16.75 8.83035 16.671 8.6897 16.5303C8.54905 16.3897 8.47003 16.1989 8.47003 16C8.47003 15.8011 8.54905 15.6103 8.6897 15.4697C8.83035 15.329 9.02112 15.25 9.22003 15.25H14.78C14.9789 15.25 15.1697 15.329 15.3104 15.4697C15.451 15.6103 15.53 15.8011 15.53 16C15.53 16.1989 15.451 16.3897 15.3104 16.5303C15.1697 16.671 14.9789 16.75 14.78 16.75Z" fill="white"/>
<path d="M18.05 8.84009H6C5.80109 8.84009 5.61032 8.76107 5.46967 8.62042C5.32902 8.47977 5.25 8.289 5.25 8.09009C5.25 7.89118 5.32902 7.70041 5.46967 7.55976C5.61032 7.41911 5.80109 7.34009 6 7.34009H18.1C18.2989 7.34009 18.4897 7.41911 18.6303 7.55976C18.771 7.70041 18.85 7.89118 18.85 8.09009C18.85 8.289 18.771 8.47977 18.6303 8.62042C18.4897 8.76107 18.2989 8.84009 18.1 8.84009H18.05Z" fill="white"/>
</svg>
