<svg width="24" height="24" viewBox="0 0 24 24" fill="none" xmlns="http://www.w3.org/2000/svg">
<path d="M11.9999 15.3202C11.3433 15.3202 10.7014 15.1255 10.1554 14.7607C9.60947 14.3959 9.18394 13.8773 8.93265 13.2707C8.68137 12.664 8.61562 11.9965 8.74373 11.3525C8.87183 10.7085 9.18803 10.1169 9.65234 9.65258C10.1166 9.18827 10.7082 8.87207 11.3522 8.74397C11.9962 8.61587 12.6638 8.68161 13.2704 8.9329C13.8771 9.18418 14.3956 9.60971 14.7604 10.1557C15.1252 10.7017 15.3199 11.3435 15.3199 12.0002C15.3199 12.8807 14.9701 13.7252 14.3475 14.3478C13.7249 14.9704 12.8805 15.3202 11.9999 15.3202ZM11.9999 10.1802C11.64 10.1802 11.2881 10.2869 10.9888 10.4869C10.6895 10.6869 10.4562 10.9711 10.3185 11.3037C10.1807 11.6363 10.1447 12.0022 10.2149 12.3552C10.2851 12.7083 10.4585 13.0326 10.713 13.2871C10.9675 13.5416 11.2918 13.715 11.6449 13.7852C11.9979 13.8554 12.3639 13.8194 12.6964 13.6816C13.029 13.5439 13.3132 13.3106 13.5132 13.0113C13.7132 12.712 13.8199 12.3601 13.8199 12.0002C13.8173 11.5183 13.6247 11.0569 13.284 10.7161C12.9432 10.3754 12.4818 10.1828 11.9999 10.1802Z" fill="white"/>
<path d="M12 18.75C10.665 18.75 9.35994 18.3541 8.2499 17.6124C7.13987 16.8707 6.27471 15.8165 5.76382 14.5831C5.25292 13.3497 5.11925 11.9925 5.3797 10.6831C5.64015 9.37377 6.28303 8.17104 7.22703 7.22703C8.17104 6.28303 9.37377 5.64015 10.6831 5.3797C11.9925 5.11925 13.3497 5.25292 14.5831 5.76382C15.8165 6.27471 16.8707 7.13987 17.6124 8.2499C18.3541 9.35994 18.75 10.665 18.75 12C18.7474 13.7894 18.0354 15.5048 16.7701 16.7701C15.5048 18.0354 13.7894 18.7474 12 18.75ZM12 6.75C10.9617 6.75 9.94662 7.05791 9.08326 7.63479C8.2199 8.21167 7.547 9.0316 7.14964 9.99092C6.75228 10.9502 6.64831 12.0058 6.85088 13.0242C7.05345 14.0426 7.55347 14.9781 8.28769 15.7123C9.02192 16.4465 9.95738 16.9466 10.9758 17.1491C11.9942 17.3517 13.0498 17.2477 14.0091 16.8504C14.9684 16.453 15.7883 15.7801 16.3652 14.9167C16.9421 14.0534 17.25 13.0384 17.25 12C17.25 10.6076 16.6969 9.27226 15.7123 8.28769C14.7277 7.30313 13.3924 6.75 12 6.75Z" fill="white"/>
<path d="M12 22.1801C9.98654 22.1801 8.01834 21.583 6.34425 20.4644C4.67015 19.3458 3.36536 17.7559 2.59486 15.8958C1.82436 14.0356 1.62276 11.9888 2.01556 10.0141C2.40835 8.03933 3.37791 6.22542 4.8016 4.80173C6.2253 3.37803 8.0392 2.40848 10.0139 2.01568C11.9887 1.62288 14.0355 1.82448 15.8957 2.59498C17.7558 3.36548 19.3457 4.67028 20.4643 6.34437C21.5829 8.01846 22.18 9.98666 22.18 12.0001C22.18 13.3369 21.9166 14.6607 21.405 15.8958C20.8935 17.1309 20.1436 18.2531 19.1983 19.1984C18.253 20.1437 17.1308 20.8936 15.8957 21.4052C14.6606 21.9168 13.3368 22.1801 12 22.1801ZM12 3.32007C10.2832 3.32007 8.60502 3.82915 7.1776 4.78292C5.75018 5.73669 4.63765 7.09232 3.98068 8.67838C3.32371 10.2644 3.15181 12.0097 3.48673 13.6935C3.82165 15.3772 4.64834 16.9238 5.86226 18.1378C7.07618 19.3517 8.62281 20.1784 10.3066 20.5133C11.9903 20.8482 13.7356 20.6763 15.3216 20.0193C16.9077 19.3624 18.2633 18.2498 19.2171 16.8224C20.1709 15.395 20.68 13.7168 20.68 12.0001C20.68 9.69799 19.7655 7.4902 18.1376 5.86239C16.5098 4.23457 14.302 3.32007 12 3.32007Z" fill="white"/>
</svg>
