<svg width="24" height="24" viewBox="0 0 24 24" fill="none" xmlns="http://www.w3.org/2000/svg">
<path d="M11.84 22.52C10.1634 22.536 8.53162 21.9782 7.21556 20.9393C5.89949 19.9003 4.97822 18.4426 4.6046 16.808C4.23098 15.1735 4.42748 13.4603 5.16149 11.9527C5.8955 10.4452 7.1229 9.23394 8.64003 8.51995C8.81748 8.4446 9.01714 8.44047 9.19755 8.50843C9.37797 8.57639 9.52529 8.71122 9.60892 8.88493C9.69256 9.05863 9.70609 9.25787 9.64671 9.44129C9.58733 9.62471 9.45959 9.77822 9.29002 9.86995C8.09539 10.4558 7.1371 11.4327 6.57429 12.6384C6.01148 13.8441 5.87803 15.206 6.19608 16.498C6.51414 17.79 7.26456 18.9343 8.32275 19.7409C9.38093 20.5475 10.6832 20.9679 12.0133 20.9323C13.3434 20.8966 14.6212 20.4071 15.6347 19.5449C16.6482 18.6828 17.3362 17.4999 17.5846 16.1927C17.833 14.8855 17.6267 13.5327 17.0002 12.3589C16.3736 11.1851 15.3643 10.261 14.14 9.73995C14.0396 9.70877 13.9468 9.65682 13.8678 9.58746C13.7887 9.51811 13.7252 9.43291 13.6812 9.33739C13.6372 9.24187 13.6138 9.13817 13.6125 9.03302C13.6112 8.92787 13.632 8.82361 13.6736 8.72703C13.7152 8.63044 13.7766 8.54369 13.8539 8.47239C13.9312 8.40109 14.0226 8.34684 14.1223 8.31317C14.2219 8.2795 14.3275 8.26715 14.4322 8.27693C14.5369 8.28672 14.6384 8.31841 14.73 8.36995C16.2881 9.03498 17.5687 10.2178 18.355 11.7184C19.1414 13.219 19.3852 14.9451 19.0453 16.6048C18.7053 18.2644 17.8025 19.7557 16.4896 20.8263C15.1766 21.8969 13.5341 22.481 11.84 22.48V22.52Z" fill="white"/>
<path d="M9.00001 10.0001C8.90114 10.0015 8.80301 9.98299 8.71141 9.94578C8.61981 9.90856 8.53659 9.85337 8.46668 9.78345C8.39677 9.71354 8.34157 9.63032 8.30436 9.53872C8.26714 9.44712 8.24866 9.34899 8.25001 9.25013V5.38013C8.25001 5.18121 8.32903 4.99045 8.46968 4.8498C8.61033 4.70914 8.8011 4.63013 9.00001 4.63013H14.46C14.6589 4.63013 14.8497 4.70914 14.9903 4.8498C15.131 4.99045 15.21 5.18121 15.21 5.38013V9.10013C15.21 9.29904 15.131 9.4898 14.9903 9.63046C14.8497 9.77111 14.6589 9.85013 14.46 9.85013C14.2611 9.85013 14.0703 9.77111 13.9297 9.63046C13.789 9.4898 13.71 9.29904 13.71 9.10013V6.10013H9.71001V9.20013C9.71677 9.29946 9.7037 9.39915 9.67154 9.49337C9.63937 9.5876 9.58877 9.67448 9.52269 9.74894C9.4566 9.82341 9.37634 9.88397 9.28661 9.92709C9.19687 9.97022 9.09944 9.99505 9.00001 10.0001Z" fill="white"/>
<path d="M10.78 17.7601C8.91635 17.7522 7.05775 17.5647 5.23005 17.2001C5.0578 17.1698 4.90156 17.0803 4.78835 16.947C4.67513 16.8137 4.61206 16.645 4.61005 16.4701C4.61079 16.358 4.63632 16.2475 4.68482 16.1464C4.73331 16.0453 4.80356 15.9563 4.89054 15.8855C4.97751 15.8148 5.07905 15.7642 5.18789 15.7373C5.29672 15.7105 5.41015 15.708 5.52005 15.7301C5.89005 15.8101 14.58 17.5801 17.88 14.1701C18.0219 14.0321 18.2121 13.9548 18.41 13.9548C18.608 13.9548 18.7982 14.0321 18.94 14.1701C19.0673 14.3055 19.1382 14.4843 19.1382 14.6701C19.1382 14.8559 19.0673 15.0348 18.94 15.1701V15.2201C17 17.2401 13.67 17.7601 10.78 17.7601Z" fill="white"/>
<path d="M13.58 6.13003H10C9.90114 6.13137 9.80301 6.11289 9.71141 6.07568C9.61981 6.03847 9.53659 5.98327 9.46668 5.91336C9.39677 5.84344 9.34157 5.76023 9.30436 5.66863C9.26714 5.57702 9.24866 5.47889 9.25001 5.38003V2.53003C9.25001 2.33112 9.32903 2.14035 9.46968 1.9997C9.61033 1.85905 9.8011 1.78003 10 1.78003H13.63C13.7285 1.78003 13.826 1.79943 13.917 1.83712C14.008 1.87481 14.0907 1.93006 14.1603 1.9997C14.23 2.06934 14.2852 2.15202 14.3229 2.24302C14.3606 2.33401 14.38 2.43154 14.38 2.53003V5.38003C14.3817 5.48331 14.3618 5.5858 14.3216 5.68093C14.2813 5.77605 14.2216 5.86169 14.1462 5.93233C14.0709 6.00298 13.9816 6.05707 13.884 6.09111C13.7865 6.12516 13.683 6.13842 13.58 6.13003ZM10.7 4.63003H12.83V3.28003H10.7V4.63003Z" fill="white"/>
</svg>
