<svg width="24" height="24" viewBox="0 0 24 24" fill="none" xmlns="http://www.w3.org/2000/svg">
<path d="M10.34 17.8C10.1893 17.8019 10.0414 17.7591 9.91508 17.6768C9.7888 17.5945 9.68983 17.4765 9.63077 17.3378C9.57171 17.1991 9.55523 17.046 9.58341 16.8979C9.6116 16.7498 9.68318 16.6135 9.78906 16.5062C9.89494 16.3989 10.0303 16.3255 10.178 16.2954C10.3257 16.2652 10.479 16.2797 10.6185 16.3369C10.7579 16.3941 10.8772 16.4915 10.9612 16.6167C11.0452 16.7419 11.09 16.8892 11.09 17.04C11.09 17.2398 11.0113 17.4316 10.871 17.5739C10.7306 17.7161 10.5398 17.7973 10.34 17.8Z" fill="white"/>
<path d="M14.01 17.8C14.4242 17.8 14.76 17.4643 14.76 17.05C14.76 16.6358 14.4242 16.3 14.01 16.3C13.5958 16.3 13.26 16.6358 13.26 17.05C13.26 17.4643 13.5958 17.8 14.01 17.8Z" fill="white"/>
<path d="M14.27 21.73H9.72998C8.48611 21.73 7.29319 21.2359 6.41365 20.3563C5.5341 19.4768 5.03998 18.2838 5.03998 17.04C5.03998 15.7961 5.5341 14.6032 6.41365 13.7236C7.29319 12.8441 8.48611 12.35 9.72998 12.35H14.27C15.5138 12.35 16.7068 12.8441 17.5863 13.7236C18.4659 14.6032 18.96 15.7961 18.96 17.04C18.96 18.2838 18.4659 19.4768 17.5863 20.3563C16.7068 21.2359 15.5138 21.73 14.27 21.73ZM9.72998 13.85C8.88394 13.85 8.07255 14.1861 7.47431 14.7843C6.87607 15.3825 6.53998 16.1939 6.53998 17.04C6.53998 17.886 6.87607 18.6974 7.47431 19.2956C8.07255 19.8939 8.88394 20.23 9.72998 20.23H14.27C14.6889 20.23 15.1037 20.1475 15.4907 19.9872C15.8778 19.8268 16.2294 19.5919 16.5256 19.2956C16.8219 18.9994 17.0568 18.6478 17.2172 18.2607C17.3775 17.8737 17.46 17.4589 17.46 17.04C17.46 16.6211 17.3775 16.2062 17.2172 15.8192C17.0568 15.4322 16.8219 15.0805 16.5256 14.7843C16.2294 14.4881 15.8778 14.2531 15.4907 14.0928C15.1037 13.9325 14.6889 13.85 14.27 13.85H9.72998Z" fill="white"/>
<path d="M20 15.31H17.32C17.1211 15.31 16.9303 15.231 16.7897 15.0903C16.649 14.9497 16.57 14.7589 16.57 14.56C16.57 14.3611 16.649 14.1703 16.7897 14.0297C16.9303 13.889 17.1211 13.81 17.32 13.81H20C20.4164 13.81 20.8157 13.6446 21.1102 13.3501C21.4046 13.0557 21.57 12.6564 21.57 12.24C21.57 9.99534 20.679 7.84247 19.0927 6.25433C17.5065 4.66618 15.3547 3.77264 13.11 3.76999H11C8.75443 3.77264 6.60159 4.66586 5.01373 6.25372C3.42587 7.84158 2.53265 9.99442 2.53 12.24C2.53 12.6564 2.69541 13.0557 2.98984 13.3501C3.28427 13.6446 3.68361 13.81 4.1 13.81H6.68C6.87891 13.81 7.06968 13.889 7.21033 14.0297C7.35098 14.1703 7.43 14.3611 7.43 14.56C7.43 14.7589 7.35098 14.9497 7.21033 15.0903C7.06968 15.231 6.87891 15.31 6.68 15.31H4.05C3.24007 15.3021 2.46585 14.9755 1.89499 14.4009C1.32413 13.8263 1.00259 13.05 1 12.24C1 9.58783 2.05357 7.04429 3.92893 5.16892C5.8043 3.29356 8.34784 2.23999 11 2.23999H13.11C14.4232 2.23999 15.7236 2.49865 16.9368 3.00119C18.1501 3.50374 19.2525 4.24034 20.1811 5.16892C21.1097 6.09751 21.8462 7.1999 22.3488 8.41316C22.8513 9.62641 23.11 10.9268 23.11 12.24C23.1087 12.6462 23.0271 13.0481 22.8698 13.4225C22.7126 13.797 22.4828 14.1367 22.1938 14.4221C21.9047 14.7074 21.5621 14.9328 21.1856 15.0851C20.8091 15.2375 20.4061 15.3139 20 15.31Z" fill="white"/>
<path d="M3.16999 12.58C2.59491 12.5793 2.02507 12.4708 1.48999 12.26C1.38708 12.2355 1.29052 12.1895 1.20665 12.1251C1.12279 12.0606 1.0535 11.9791 1.00336 11.8859C0.953218 11.7928 0.923349 11.6901 0.915713 11.5846C0.908078 11.4791 0.92285 11.3731 0.959059 11.2737C0.995269 11.1743 1.0521 11.0837 1.12581 11.0078C1.19952 10.932 1.28845 10.8725 1.38676 10.8335C1.48507 10.7944 1.59053 10.7766 1.69622 10.7812C1.80191 10.7857 1.90543 10.8126 1.99999 10.86C2.35893 11.0056 2.74266 11.0803 3.12999 11.08C3.77694 11.0902 4.40984 10.891 4.93429 10.512C5.45873 10.1331 5.84661 9.59475 6.04005 8.97732C6.23349 8.35988 6.22213 7.69646 6.00766 7.08601C5.79319 6.47556 5.38711 5.95081 4.84999 5.59004C4.69737 5.47392 4.59503 5.30374 4.56401 5.1145C4.53298 4.92525 4.57563 4.7313 4.68319 4.57253C4.79075 4.41376 4.95504 4.30222 5.14229 4.26083C5.32955 4.21945 5.52555 4.25138 5.68999 4.35004C6.48892 4.88923 7.09361 5.6707 7.41504 6.57938C7.73647 7.48806 7.75764 8.47593 7.47544 9.39755C7.19325 10.3192 6.62259 11.1258 5.8475 11.6988C5.07241 12.2717 4.13385 12.5806 3.16999 12.58Z" fill="white"/>
<path d="M22.26 12.56H22.2C20.5817 12.4272 19.0723 11.6917 17.9704 10.4991C16.8686 9.30649 16.2546 7.74368 16.25 6.11998C16.2495 5.33004 16.3953 4.54685 16.68 3.80998C16.7168 3.71806 16.7713 3.63427 16.8404 3.56342C16.9096 3.49256 16.992 3.43602 17.083 3.39702C17.174 3.35802 17.2718 3.33732 17.3708 3.33612C17.4698 3.33491 17.5681 3.35321 17.66 3.38998C17.7519 3.42675 17.8357 3.48127 17.9066 3.55042C17.9774 3.61957 18.034 3.702 18.073 3.793C18.112 3.884 18.1327 3.98179 18.1339 4.08079C18.1351 4.17979 18.1168 4.27806 18.08 4.36998C17.8576 4.92639 17.7455 5.52077 17.75 6.11998C17.7603 7.36446 18.2344 8.56035 19.0795 9.4739C19.9246 10.3875 21.0801 10.953 22.32 11.06C22.5181 11.0778 22.7014 11.1726 22.8304 11.3241C22.9594 11.4755 23.0239 11.6715 23.01 11.87C22.9949 12.0583 22.9092 12.234 22.7702 12.3619C22.6311 12.4899 22.4489 12.5606 22.26 12.56Z" fill="white"/>
</svg>
