<svg width="24" height="24" viewBox="0 0 24 24" fill="none" xmlns="http://www.w3.org/2000/svg">
<path d="M13.71 16.3198C13.5616 16.3198 13.4166 16.2758 13.2933 16.1934C13.1699 16.111 13.0738 15.9939 13.0171 15.8568C12.9603 15.7198 12.9454 15.569 12.9744 15.4235C13.0033 15.278 13.0747 15.1444 13.1796 15.0395C13.2845 14.9346 13.4182 14.8632 13.5636 14.8342C13.7091 14.8053 13.8599 14.8201 13.997 14.8769C14.134 14.9337 14.2512 15.0298 14.3336 15.1531C14.416 15.2765 14.46 15.4215 14.46 15.5698C14.4574 15.7679 14.3775 15.9572 14.2374 16.0973C14.0973 16.2374 13.9081 16.3172 13.71 16.3198Z" fill="white"/>
<path d="M13.5 13.8299C13.3011 13.8299 13.1103 13.7509 12.9697 13.6102C12.829 13.4696 12.75 13.2788 12.75 13.0799C12.75 12.881 12.829 12.6902 12.9697 12.5496C13.1103 12.4089 13.3011 12.3299 13.5 12.3299C13.9607 12.2958 14.3914 12.0887 14.7058 11.7502C15.0201 11.4117 15.1948 10.9668 15.1948 10.5049C15.1948 10.0429 15.0201 9.59809 14.7058 9.2596C14.3914 8.9211 13.9607 8.71402 13.5 8.67989C12.8148 8.59482 12.1226 8.76965 11.56 9.16989C11.3453 9.39256 11.1807 9.65854 11.0772 9.95001C10.9738 10.2415 10.9338 10.5517 10.96 10.8599C10.96 11.0588 10.881 11.2496 10.7403 11.3902C10.5997 11.5309 10.4089 11.6099 10.21 11.6099C10.0111 11.6099 9.82031 11.5309 9.67966 11.3902C9.53901 11.2496 9.45999 11.0588 9.45999 10.8599C9.42151 10.3307 9.50114 9.7996 9.69311 9.30497C9.88508 8.81034 10.1846 8.36456 10.57 7.99989C11.4219 7.33761 12.4966 7.02956 13.57 7.13989C14.0003 7.14511 14.4253 7.23519 14.8207 7.405C15.2161 7.5748 15.5741 7.82097 15.8742 8.1294C16.1742 8.43783 16.4105 8.80246 16.5693 9.20237C16.7282 9.60229 16.8066 10.0296 16.8 10.4599C16.8053 10.898 16.724 11.3329 16.5609 11.7396C16.3978 12.1463 16.156 12.5168 15.8495 12.8299C15.5429 13.1429 15.1776 13.3924 14.7744 13.564C14.3712 13.7356 13.9381 13.826 13.5 13.8299Z" fill="white"/>
<path d="M13.08 20.4899C11.6861 20.4799 10.3147 20.1371 9.08004 19.4899C8.98787 19.4475 8.90527 19.3868 8.83723 19.3115C8.7692 19.2362 8.71714 19.1479 8.68422 19.0519C8.6513 18.956 8.6382 18.8543 8.64571 18.7531C8.65322 18.6519 8.68119 18.5533 8.72792 18.4632C8.77464 18.3732 8.83916 18.2935 8.91756 18.2291C8.99597 18.1647 9.08663 18.1169 9.18405 18.0885C9.28148 18.0601 9.38364 18.0518 9.48437 18.0641C9.58509 18.0764 9.68227 18.109 9.77004 18.1599C11.2111 18.9001 12.8566 19.1427 14.45 18.8499C15.7241 18.597 16.9068 18.0065 17.8745 17.14C18.8422 16.2736 19.5594 15.1631 19.951 13.9246C20.3427 12.6862 20.3944 11.3652 20.1008 10.0999C19.8072 8.83463 19.1791 7.67144 18.2821 6.73199C17.3851 5.79253 16.2522 5.11131 15.0018 4.75955C13.7514 4.40779 12.4295 4.39842 11.1743 4.7324C9.91905 5.06638 8.77659 5.73146 7.86636 6.6581C6.95612 7.58473 6.31155 8.73889 6.00004 9.99989C5.55532 11.8707 5.86041 13.8412 6.85004 15.4899C6.94406 15.657 6.97055 15.8537 6.92405 16.0396C6.87756 16.2256 6.76162 16.3867 6.60004 16.4899C6.43298 16.5839 6.23626 16.6104 6.05029 16.5639C5.86431 16.5174 5.7032 16.4015 5.60004 16.2399C4.86971 15.0323 4.44301 13.6657 4.35651 12.2572C4.27 10.8486 4.52626 9.44002 5.10334 8.15218C5.68041 6.86433 6.56109 5.73557 7.66993 4.86262C8.77877 3.98967 10.0827 3.39855 11.47 3.13989C13.7522 2.71422 16.11 3.21258 18.0248 4.52533C19.9395 5.83809 21.2544 7.85771 21.68 10.1399C22.1057 12.4221 21.6074 14.7799 20.2946 16.6946C18.9818 18.6094 16.9622 19.9242 14.68 20.3499C14.1515 20.4411 13.6163 20.488 13.08 20.4899Z" fill="white"/>
<path d="M5.33001 21C5.09027 21.0057 4.85298 20.9507 4.64026 20.8399C4.42755 20.7292 4.24635 20.5664 4.11356 20.3667C3.98076 20.167 3.90071 19.9369 3.88085 19.6979C3.861 19.459 3.90199 19.2188 4.00001 19L5.53001 15.58C5.61357 15.4025 5.76334 15.2648 5.94722 15.1964C6.13109 15.1281 6.33444 15.1345 6.51365 15.2143C6.69286 15.2941 6.83367 15.4409 6.9059 15.6233C6.97812 15.8057 6.97601 16.0091 6.90001 16.19L5.48001 19.45L9.15001 18.14C9.24441 18.0985 9.34633 18.077 9.44942 18.0767C9.5525 18.0765 9.65454 18.0974 9.74916 18.1384C9.84377 18.1793 9.92894 18.2393 9.99933 18.3146C10.0697 18.3899 10.1238 18.4789 10.1583 18.5761C10.1927 18.6732 10.2068 18.7765 10.1996 18.8793C10.1924 18.9821 10.164 19.0824 10.1163 19.1738C10.0686 19.2651 10.0026 19.3457 9.92236 19.4104C9.84213 19.4752 9.74942 19.5227 9.65001 19.55L5.80001 20.92C5.64956 20.9752 5.49025 21.0023 5.33001 21Z" fill="white"/>
</svg>
