<svg width="24" height="24" viewBox="0 0 24 24" fill="none" xmlns="http://www.w3.org/2000/svg">
<path d="M12 21.67C11.8785 21.6733 11.758 21.6458 11.65 21.59C11.34 21.42 3.93001 17.49 2.38001 12.19C1.49001 9.18995 1.79001 6.25996 3.18001 4.39996C3.68804 3.72869 4.35061 3.18997 5.11141 2.82959C5.87222 2.46921 6.70878 2.29781 7.55001 2.32996C8.45302 2.28573 9.35012 2.49796 10.1376 2.94213C10.9251 3.3863 11.5707 4.04426 12 4.83996C12.4293 4.04426 13.075 3.3863 13.8624 2.94213C14.6499 2.49796 15.547 2.28573 16.45 2.32996C17.2912 2.29781 18.1278 2.46921 18.8886 2.82959C19.6494 3.18997 20.312 3.72869 20.82 4.39996C22.21 6.25996 22.51 9.16995 21.62 12.19C20.06 17.49 12.62 21.42 12.35 21.59C12.242 21.6458 12.1216 21.6733 12 21.67ZM7.55001 3.82996C6.94176 3.79752 6.33482 3.91454 5.78222 4.17079C5.22963 4.42704 4.7482 4.81472 4.38001 5.29996C3.27001 6.77996 3.06001 9.19996 3.82001 11.77C5.02001 15.86 10.55 19.24 12 20.07C13.45 19.24 19 15.85 20.18 11.77C20.94 9.19996 20.72 6.76996 19.62 5.29996C19.2518 4.81472 18.7704 4.42704 18.2178 4.17079C17.6652 3.91454 17.0583 3.79752 16.45 3.82996C13.03 3.82996 12.77 7.13996 12.75 7.50996C12.7399 7.70279 12.6567 7.88453 12.5174 8.01826C12.3781 8.15199 12.1931 8.22768 12 8.22996C11.8069 8.22768 11.6219 8.15199 11.4826 8.01826C11.3433 7.88453 11.2602 7.70279 11.25 7.50996C11.23 7.13996 11 3.82996 7.55001 3.82996Z" fill="white"/>
<path d="M10.72 16.7601C10.5294 16.758 10.3414 16.7149 10.1689 16.6338C9.99637 16.5527 9.84328 16.4355 9.72002 16.2901L6.56002 12.5601H3.05002C2.85111 12.5601 2.66034 12.4811 2.51969 12.3404C2.37904 12.1998 2.30002 12.009 2.30002 11.8101C2.30002 11.6112 2.37904 11.4204 2.51969 11.2797C2.66034 11.1391 2.85111 11.0601 3.05002 11.0601H6.91002C7.01905 11.0603 7.12669 11.0846 7.22522 11.1313C7.32376 11.178 7.41077 11.2459 7.48002 11.3301L10.7 15.1401L14 9.69007C14.1018 9.50541 14.2451 9.34695 14.4187 9.2272C14.5922 9.10745 14.7913 9.02969 15 9.00007C15.2082 8.9712 15.4202 8.99242 15.6185 9.062C15.8167 9.13157 15.9956 9.24747 16.14 9.40007L17.52 10.8101H21C21.1989 10.8101 21.3897 10.8891 21.5303 11.0297C21.671 11.1704 21.75 11.3612 21.75 11.5601C21.75 11.759 21.671 11.9498 21.5303 12.0904C21.3897 12.2311 21.1989 12.3101 21 12.3101H17.19C16.9881 12.3104 16.7942 12.2314 16.65 12.0901L15.16 10.5601L11.86 16.0901C11.7531 16.2659 11.6075 16.415 11.4342 16.5259C11.2608 16.6368 11.0645 16.7067 10.86 16.7301L10.72 16.7601Z" fill="white"/>
</svg>
