<svg width="24" height="24" viewBox="0 0 24 24" fill="none" xmlns="http://www.w3.org/2000/svg">
<path d="M8.79 9.72994C8.68986 9.73532 8.58966 9.72056 8.49532 9.68654C8.40098 9.65251 8.31442 9.59991 8.24077 9.53185C8.16711 9.46379 8.10785 9.38165 8.0665 9.29029C8.02514 9.19892 8.00253 9.10019 8 8.99994C7.99969 8.90016 8.02013 8.8014 8.06 8.70994C8.09406 8.61864 8.14883 8.53649 8.22 8.46994C8.32384 8.3658 8.45634 8.29497 8.60061 8.26647C8.74488 8.23797 8.89437 8.2531 9.03 8.30994C9.12542 8.34149 9.21139 8.39651 9.28 8.46994C9.34779 8.53929 9.40205 8.62069 9.44 8.70994C9.49378 8.7983 9.52789 8.89721 9.54 8.99994C9.53983 9.19878 9.4607 9.38942 9.32 9.52994C9.24869 9.60005 9.16354 9.65455 9.07 9.68994C8.98058 9.72304 8.88512 9.73668 8.79 9.72994Z" fill="white"/>
<path d="M15.17 9.72994C15.0735 9.73035 14.978 9.70988 14.89 9.66994C14.7977 9.63226 14.713 9.57803 14.64 9.50994C14.5723 9.44058 14.518 9.35919 14.48 9.26994C14.4435 9.18444 14.4231 9.09288 14.42 8.99994C14.4197 8.90016 14.4402 8.8014 14.48 8.70994C14.518 8.62069 14.5723 8.53929 14.64 8.46994C14.7104 8.39858 14.7958 8.34391 14.89 8.30994C15.0257 8.2531 15.1752 8.23797 15.3194 8.26647C15.4637 8.29497 15.5962 8.3658 15.7 8.46994C15.8407 8.61046 15.9199 8.80109 15.92 8.99994C15.9178 9.09854 15.9009 9.19627 15.87 9.28994C15.8285 9.37964 15.7709 9.46098 15.7 9.52994C15.5563 9.66332 15.3661 9.73512 15.17 9.72994Z" fill="white"/>
<path d="M8.78999 15.7299C8.64175 15.7298 8.49687 15.6857 8.37366 15.6033C8.25044 15.5209 8.15441 15.4038 8.0977 15.2668C8.04099 15.1299 8.02614 14.9792 8.05502 14.8338C8.08391 14.6884 8.15523 14.5548 8.25999 14.4499C8.36383 14.3458 8.49633 14.2749 8.6406 14.2464C8.78487 14.218 8.93436 14.2331 9.06999 14.2899C9.16541 14.3215 9.25137 14.3765 9.31999 14.4499C9.46044 14.5905 9.53933 14.7812 9.53933 14.9799C9.53933 15.1787 9.46044 15.3693 9.31999 15.5099C9.24867 15.58 9.16353 15.6345 9.06999 15.6699C8.98207 15.7099 8.88656 15.7303 8.78999 15.7299Z" fill="white"/>
<path d="M15.17 15.7299C15.0735 15.7303 14.978 15.7099 14.89 15.6699C14.7977 15.6322 14.713 15.578 14.64 15.5099C14.4994 15.3694 14.4202 15.1788 14.42 14.9799C14.4197 14.8801 14.4402 14.7814 14.48 14.6899C14.518 14.6007 14.5723 14.5193 14.64 14.4499C14.7087 14.3765 14.7946 14.3215 14.89 14.2899C15.0257 14.2331 15.1752 14.218 15.3194 14.2464C15.4637 14.2749 15.5962 14.3458 15.7 14.4499C15.7709 14.5189 15.8285 14.6002 15.87 14.6899C15.902 14.7833 15.9189 14.8812 15.92 14.9799C15.92 15.1788 15.841 15.3696 15.7004 15.5102C15.5597 15.6509 15.369 15.7299 15.17 15.7299Z" fill="white"/>
<path d="M17 20.77H7.00003C6.50421 20.7727 6.01278 20.677 5.55419 20.4885C5.09559 20.2999 4.67894 20.0223 4.32833 19.6717C3.97772 19.3211 3.70013 18.9045 3.51161 18.4459C3.32309 17.9873 3.22738 17.4959 3.23003 17V7.00003C3.22738 6.50421 3.32309 6.01278 3.51161 5.55419C3.70013 5.09559 3.97772 4.67894 4.32833 4.32833C4.67894 3.97772 5.09559 3.70013 5.55419 3.51161C6.01278 3.32309 6.50421 3.22738 7.00003 3.23003H17C17.4959 3.22738 17.9873 3.32309 18.4459 3.51161C18.9045 3.70013 19.3211 3.97772 19.6717 4.32833C20.0223 4.67894 20.2999 5.09559 20.4885 5.55419C20.677 6.01278 20.7727 6.50421 20.77 7.00003V17C20.7727 17.4959 20.677 17.9873 20.4885 18.4459C20.2999 18.9045 20.0223 19.3211 19.6717 19.6717C19.3211 20.0223 18.9045 20.2999 18.4459 20.4885C17.9873 20.677 17.4959 20.7727 17 20.77ZM7.00003 4.73003C6.70119 4.72737 6.40481 4.78426 6.1282 4.89739C5.85158 5.01053 5.60028 5.17763 5.38895 5.38895C5.17763 5.60028 5.01053 5.85158 4.89739 6.1282C4.78426 6.40481 4.72737 6.70119 4.73003 7.00003V17C4.72737 17.2989 4.78426 17.5953 4.89739 17.8719C5.01053 18.1485 5.17763 18.3998 5.38895 18.6111C5.60028 18.8224 5.85158 18.9895 6.1282 19.1027C6.40481 19.2158 6.70119 19.2727 7.00003 19.27H17C17.2989 19.2727 17.5953 19.2158 17.8719 19.1027C18.1485 18.9895 18.3998 18.8224 18.6111 18.6111C18.8224 18.3998 18.9895 18.1485 19.1027 17.8719C19.2158 17.5953 19.2727 17.2989 19.27 17V7.00003C19.2727 6.70119 19.2158 6.40481 19.1027 6.1282C18.9895 5.85158 18.8224 5.60028 18.6111 5.38895C18.3998 5.17763 18.1485 5.01053 17.8719 4.89739C17.5953 4.78426 17.2989 4.72737 17 4.73003H7.00003Z" fill="white"/>
</svg>
