<svg width="24" height="24" viewBox="0 0 24 24" fill="none" xmlns="http://www.w3.org/2000/svg">
<path d="M18.05 22.73H6.00001C5.89906 22.7368 5.79778 22.723 5.70227 22.6897C5.60676 22.6563 5.51899 22.6039 5.44425 22.5357C5.36951 22.4675 5.30934 22.3849 5.26737 22.2928C5.2254 22.2007 5.20248 22.1011 5.20001 22V1.99999C5.20248 1.89884 5.2254 1.79924 5.26737 1.70718C5.30934 1.61511 5.36951 1.5325 5.44425 1.4643C5.51899 1.3961 5.60676 1.34372 5.70227 1.31033C5.79778 1.27694 5.89906 1.26322 6.00001 1.26999H18.1C18.2989 1.26999 18.4897 1.34901 18.6303 1.48966C18.771 1.63032 18.85 1.82108 18.85 2.01999C18.85 2.21891 18.771 2.40967 18.6303 2.55032C18.4897 2.69098 18.2989 2.76999 18.1 2.76999H10.7V11.22L18.23 13.16C18.3922 13.2019 18.536 13.2961 18.6391 13.4281C18.7421 13.5601 18.7987 13.7225 18.8 13.89V22C18.7948 22.1954 18.7135 22.3811 18.5734 22.5174C18.4333 22.6538 18.2455 22.7301 18.05 22.73ZM6.70001 21.23H17.3V14.47L9.77001 12.47C9.6078 12.4317 9.46327 12.3398 9.35982 12.2091C9.25637 12.0784 9.20006 11.9167 9.20001 11.75V2.74999H6.70001V21.23Z" fill="white"/>
<path d="M15.3 13.93C15.2207 13.9444 15.1394 13.9444 15.06 13.93C14.9609 13.8989 14.8693 13.8476 14.791 13.7793C14.7127 13.711 14.6495 13.6272 14.6053 13.5332C14.5611 13.4392 14.5369 13.337 14.5343 13.2332C14.5317 13.1293 14.5506 13.0261 14.59 12.93L15.29 10.82C15.315 10.7198 15.3604 10.6259 15.4234 10.544C15.4863 10.4622 15.5655 10.3943 15.6559 10.3445C15.7464 10.2947 15.8461 10.2641 15.9489 10.2546C16.0517 10.2452 16.1554 10.257 16.2534 10.2895C16.3514 10.3219 16.4416 10.3742 16.5185 10.4432C16.5954 10.5121 16.6571 10.5961 16.7 10.6901C16.7429 10.784 16.7659 10.8857 16.7676 10.989C16.7693 11.0922 16.7497 11.1947 16.71 11.29L16 13.42C15.9504 13.5669 15.8564 13.6949 15.7311 13.7862C15.6057 13.8775 15.4551 13.9278 15.3 13.93Z" fill="white"/>
</svg>
