<svg width="24" height="24" viewBox="0 0 24 24" fill="none" xmlns="http://www.w3.org/2000/svg">
<path d="M14.44 20.73C13.2533 20.73 12.0933 20.3781 11.1066 19.7188C10.1199 19.0595 9.35085 18.1224 8.89673 17.0261C8.4426 15.9297 8.32378 14.7233 8.55529 13.5594C8.7868 12.3956 9.35825 11.3265 10.1974 10.4873C11.0365 9.64823 12.1056 9.07678 13.2695 8.84527C14.4333 8.61376 15.6397 8.73258 16.7361 9.18671C17.8325 9.64083 18.7695 10.4099 19.4288 11.3966C20.0881 12.3833 20.44 13.5433 20.44 14.73C20.44 16.3213 19.8079 17.8474 18.6826 18.9726C17.5574 20.0978 16.0313 20.73 14.44 20.73ZM14.44 10.2C13.5478 10.2079 12.6778 10.4797 11.9398 10.9811C11.2018 11.4825 10.6287 12.1912 10.2927 13.0178C9.95671 13.8444 9.87289 14.7519 10.0518 15.6261C10.2307 16.5002 10.6643 17.3018 11.298 17.93C11.9317 18.5581 12.7371 18.9846 13.6128 19.1558C14.4885 19.327 15.3953 19.2352 16.2188 18.892C17.0424 18.5487 17.746 17.9694 18.2409 17.227C18.7359 16.4845 19 15.6122 19 14.72C18.9987 14.1234 18.8796 13.533 18.6495 12.9825C18.4193 12.4321 18.0828 11.9326 17.6591 11.5126C17.2354 11.0926 16.7329 10.7605 16.1805 10.5352C15.628 10.31 15.0366 10.196 14.44 10.2Z" fill="white"/>
<path d="M4.30002 11.07C4.20123 11.0722 4.10306 11.0538 4.0118 11.0159C3.92054 10.978 3.83819 10.9215 3.77002 10.85C3.69926 10.781 3.64302 10.6986 3.60463 10.6076C3.56623 10.5166 3.54645 10.4188 3.54645 10.32C3.54645 10.2212 3.56623 10.1234 3.60463 10.0324C3.64302 9.94133 3.69926 9.85892 3.77002 9.78997L10.06 3.48997C10.2006 3.34952 10.3913 3.27063 10.59 3.27063C10.7888 3.27063 10.9794 3.34952 11.12 3.48997C11.1908 3.55892 11.247 3.64133 11.2854 3.73236C11.3238 3.82338 11.3436 3.92118 11.3436 4.01997C11.3436 4.11876 11.3238 4.21656 11.2854 4.30758C11.247 4.39861 11.1908 4.48102 11.12 4.54997L4.83002 10.85C4.76077 10.9201 4.67822 10.9757 4.58721 11.0134C4.4962 11.0512 4.39856 11.0704 4.30002 11.07Z" fill="white"/>
<path d="M11 11.4899C10.802 11.4856 10.6129 11.4071 10.47 11.2699L6.91001 7.70995C6.76956 7.56932 6.69067 7.3787 6.69067 7.17995C6.69067 6.9812 6.76956 6.79057 6.91001 6.64995C6.97933 6.57448 7.06356 6.51423 7.15738 6.47302C7.25119 6.4318 7.35254 6.41052 7.45501 6.41052C7.55748 6.41052 7.65884 6.4318 7.75265 6.47302C7.84647 6.51423 7.9307 6.57448 8.00001 6.64995L11.57 10.2099C11.7105 10.3506 11.7894 10.5412 11.7894 10.7399C11.7894 10.9387 11.7105 11.1293 11.57 11.2699C11.4944 11.3426 11.405 11.3995 11.3071 11.4373C11.2093 11.4751 11.1049 11.493 11 11.4899Z" fill="white"/>
</svg>
