<svg width="24" height="24" viewBox="0 0 24 24" fill="none" xmlns="http://www.w3.org/2000/svg">
<path d="M15.75 19.4201C15.6534 19.4205 15.5579 19.4 15.47 19.3601C15.3765 19.3247 15.2913 19.2702 15.22 19.2001C15.0793 19.0596 15.0002 18.8689 15 18.6701C14.9997 18.5703 15.0201 18.4716 15.06 18.3801C15.098 18.2909 15.1522 18.2095 15.22 18.1401C15.2913 18.07 15.3765 18.0155 15.47 17.9801C15.6056 17.9233 15.7551 17.9081 15.8994 17.9366C16.0437 17.9651 16.1762 18.036 16.28 18.1401C16.4207 18.2806 16.4998 18.4713 16.5 18.6701C16.5022 18.7689 16.4838 18.8671 16.4459 18.9583C16.4081 19.0496 16.3515 19.1319 16.28 19.2001C16.2106 19.2679 16.1293 19.3222 16.04 19.3601C15.9485 19.4 15.8498 19.4204 15.75 19.4201Z" fill="white"/>
<path d="M15.75 16.17C15.5516 16.1677 15.3617 16.0889 15.22 15.95C15.1138 15.8454 15.0418 15.7111 15.0132 15.5648C14.9847 15.4184 15.001 15.2669 15.06 15.13C15.0979 15.0408 15.1522 14.9594 15.22 14.89C15.2913 14.8199 15.3765 14.7654 15.47 14.73C15.6061 14.6758 15.7549 14.662 15.8986 14.6904C16.0423 14.7188 16.1748 14.7881 16.28 14.89C16.4189 15.0317 16.4977 15.2216 16.5 15.42C16.5022 15.5188 16.4838 15.617 16.4459 15.7082C16.408 15.7995 16.3515 15.8818 16.28 15.95C16.2106 16.0178 16.1293 16.0721 16.04 16.11C15.9485 16.1499 15.8498 16.1703 15.75 16.17Z" fill="white"/>
<path d="M15.36 22.75H4.94C4.74109 22.75 4.55032 22.671 4.40967 22.5303C4.26902 22.3897 4.19 22.1989 4.19 22V2C4.19 1.80109 4.26902 1.61032 4.40967 1.46967C4.55032 1.32902 4.74109 1.25 4.94 1.25H19.06C19.2589 1.25 19.4497 1.32902 19.5903 1.46967C19.731 1.61032 19.81 1.80109 19.81 2V18.29C19.81 19.4711 19.3415 20.604 18.5072 21.4402C17.673 22.2763 16.5411 22.7474 15.36 22.75ZM5.69 21.25H15.36C16.147 21.2369 16.8972 20.915 17.4491 20.3538C18.0009 19.7926 18.3101 19.0371 18.31 18.25V2.75H5.69V21.25Z" fill="white"/>
<path d="M9.87 19.4199C9.67189 19.4173 9.48262 19.3375 9.34253 19.1974C9.20243 19.0573 9.12259 18.868 9.12 18.6699V15.4199C9.12 15.221 9.19901 15.0302 9.33967 14.8896C9.48032 14.7489 9.67108 14.6699 9.87 14.6699C10.0689 14.6699 10.2597 14.7489 10.4003 14.8896C10.541 15.0302 10.62 15.221 10.62 15.4199V18.6699C10.62 18.8688 10.541 19.0596 10.4003 19.2003C10.2597 19.3409 10.0689 19.4199 9.87 19.4199Z" fill="white"/>
<path d="M11.5 17.79H8.25C8.05109 17.79 7.86032 17.711 7.71967 17.5704C7.57902 17.4297 7.5 17.239 7.5 17.04C7.5 16.8411 7.57902 16.6504 7.71967 16.5097C7.86032 16.3691 8.05109 16.29 8.25 16.29H11.5C11.6989 16.29 11.8897 16.3691 12.0303 16.5097C12.171 16.6504 12.25 16.8411 12.25 17.04C12.25 17.239 12.171 17.4297 12.0303 17.5704C11.8897 17.711 11.6989 17.79 11.5 17.79Z" fill="white"/>
<path d="M16.24 12.7899H7.77999C7.67594 12.7928 7.57242 12.7742 7.47585 12.7353C7.37928 12.6965 7.29171 12.6382 7.21858 12.5642C7.14545 12.4901 7.08831 12.4018 7.05071 12.3047C7.01311 12.2077 6.99585 12.1039 6.99999 11.9999V4.67993C7.00258 4.48182 7.08243 4.29256 7.22253 4.15247C7.36262 4.01237 7.55189 3.93252 7.74999 3.92993H16.21C16.4089 3.92993 16.5997 4.00895 16.7403 4.1496C16.881 4.29025 16.96 4.48102 16.96 4.67993V11.9999C16.9654 12.0993 16.9509 12.1987 16.9175 12.2924C16.8841 12.3861 16.8324 12.4722 16.7654 12.5457C16.6984 12.6192 16.6174 12.6787 16.5272 12.7206C16.437 12.7625 16.3394 12.7861 16.24 12.7899ZM8.52999 11.2899H15.53V5.42993H8.52999V11.2899Z" fill="white"/>
</svg>
