<svg width="24" height="24" viewBox="0 0 24 24" fill="none" xmlns="http://www.w3.org/2000/svg">
<path d="M12.4 21.75C9.81416 21.75 7.33421 20.7228 5.50573 18.8943C3.67725 17.0658 2.65002 14.5859 2.65002 12C2.65002 9.41414 3.67725 6.93419 5.50573 5.10571C7.33421 3.27723 9.81416 2.25 12.4 2.25C12.5989 2.25 12.7897 2.32902 12.9304 2.46967C13.071 2.61032 13.15 2.80109 13.15 3C13.15 3.19891 13.071 3.38968 12.9304 3.53033C12.7897 3.67098 12.5989 3.75 12.4 3.75C10.212 3.75 8.11357 4.61919 6.56639 6.16637C5.01922 7.71354 4.15002 9.81196 4.15002 12C4.15002 14.188 5.01922 16.2865 6.56639 17.8336C8.11357 19.3808 10.212 20.25 12.4 20.25C13.4933 20.2536 14.5761 20.0377 15.5844 19.6151C16.5927 19.1926 17.506 18.5719 18.27 17.79C18.4106 17.6481 18.6018 17.5679 18.8015 17.5669C19.0012 17.566 19.1931 17.6444 19.335 17.785C19.4769 17.9256 19.5572 18.1167 19.5581 18.3165C19.559 18.5162 19.4806 18.7081 19.34 18.85C18.4349 19.7715 17.3547 20.5028 16.1629 21.0008C14.9711 21.4989 13.6917 21.7536 12.4 21.75Z" fill="white"/>
<path d="M12.1 15.4501C12.0015 15.4505 11.9038 15.4313 11.8128 15.3935C11.7218 15.3558 11.6392 15.3002 11.57 15.2301L7.57001 11.2301C7.43753 11.0879 7.3654 10.8999 7.36883 10.7056C7.37226 10.5113 7.45097 10.3259 7.58838 10.1885C7.7258 10.051 7.91118 9.97233 8.10548 9.9689C8.29978 9.96547 8.48783 10.0376 8.63001 10.1701L12.1 13.6401L20.1 5.64008C20.1687 5.56639 20.2515 5.50729 20.3435 5.46629C20.4355 5.4253 20.5348 5.40326 20.6355 5.40148C20.7362 5.39971 20.8362 5.41823 20.9296 5.45595C21.023 5.49367 21.1078 5.54982 21.179 5.62104C21.2503 5.69226 21.3064 5.77709 21.3441 5.87048C21.3818 5.96387 21.4004 6.0639 21.3986 6.1646C21.3968 6.2653 21.3748 6.36461 21.3338 6.45661C21.2928 6.54861 21.2337 6.63141 21.16 6.70008L12.66 15.2001C12.5904 15.2799 12.5042 15.3436 12.4075 15.3867C12.3108 15.4299 12.2059 15.4515 12.1 15.4501Z" fill="white"/>
</svg>
