<svg width="24" height="24" viewBox="0 0 24 24" fill="none" xmlns="http://www.w3.org/2000/svg">
<path d="M17.15 17.8801H7.31001C5.78857 17.8174 4.35028 17.1689 3.29594 16.0703C2.2416 14.9716 1.65286 13.5078 1.65286 11.9851C1.65286 10.4624 2.2416 8.99859 3.29594 7.89992C4.35028 6.80125 5.78857 6.15276 7.31001 6.09009H17.15C18.6715 6.15276 20.1097 6.80125 21.1641 7.89992C22.2184 8.99859 22.8072 10.4624 22.8072 11.9851C22.8072 13.5078 22.2184 14.9716 21.1641 16.0703C20.1097 17.1689 18.6715 17.8174 17.15 17.8801ZM7.31001 7.59009C6.18065 7.64397 5.11537 8.13055 4.33517 8.94886C3.55496 9.76718 3.11972 10.8544 3.11972 11.9851C3.11972 13.1157 3.55496 14.203 4.33517 15.0213C5.11537 15.8396 6.18065 16.3262 7.31001 16.3801H17.15C18.2794 16.3262 19.3447 15.8396 20.1249 15.0213C20.9051 14.203 21.3403 13.1157 21.3403 11.9851C21.3403 10.8544 20.9051 9.76718 20.1249 8.94886C19.3447 8.13055 18.2794 7.64397 17.15 7.59009H7.31001Z" fill="white"/>
<path d="M6.92001 14.3501C6.7211 14.3501 6.53034 14.2711 6.38968 14.1304C6.24903 13.9898 6.17001 13.799 6.17001 13.6001V10.3501C6.17001 10.1512 6.24903 9.96042 6.38968 9.81977C6.53034 9.67911 6.7211 9.6001 6.92001 9.6001C7.11893 9.6001 7.30969 9.67911 7.45034 9.81977C7.591 9.96042 7.67001 10.1512 7.67001 10.3501V13.6001C7.66742 13.7982 7.58757 13.9875 7.44748 14.1276C7.30738 14.2677 7.11812 14.3475 6.92001 14.3501Z" fill="white"/>
<path d="M8.54001 12.72H5.29001C5.0911 12.72 4.90033 12.641 4.75968 12.5003C4.61903 12.3596 4.54001 12.1689 4.54001 11.97C4.54001 11.7711 4.61903 11.5803 4.75968 11.4396C4.90033 11.299 5.0911 11.22 5.29001 11.22H8.54001C8.73892 11.22 8.92969 11.299 9.07034 11.4396C9.21099 11.5803 9.29001 11.7711 9.29001 11.97C9.29001 12.1689 9.21099 12.3596 9.07034 12.5003C8.92969 12.641 8.73892 12.72 8.54001 12.72Z" fill="white"/>
<path d="M17.54 14.3701C17.3419 14.3675 17.1526 14.2877 17.0125 14.1476C16.8724 14.0075 16.7926 13.8182 16.79 13.6201V10.3701C16.79 10.1712 16.869 9.98044 17.0097 9.83979C17.1503 9.69914 17.3411 9.62012 17.54 9.62012C17.7389 9.62012 17.9297 9.69914 18.0703 9.83979C18.211 9.98044 18.29 10.1712 18.29 10.3701V13.6201C18.29 13.819 18.211 14.0098 18.0703 14.1504C17.9297 14.2911 17.7389 14.3701 17.54 14.3701Z" fill="white"/>
<path d="M19.17 12.74H15.92C15.7211 12.74 15.5303 12.661 15.3897 12.5203C15.249 12.3797 15.17 12.1889 15.17 11.99C15.17 11.7911 15.249 11.6003 15.3897 11.4597C15.5303 11.319 15.7211 11.24 15.92 11.24H19.17C19.3689 11.24 19.5597 11.319 19.7003 11.4597C19.841 11.6003 19.92 11.7911 19.92 11.99C19.92 12.1889 19.841 12.3797 19.7003 12.5203C19.5597 12.661 19.3689 12.74 19.17 12.74Z" fill="white"/>
</svg>
