<svg width="24" height="24" viewBox="0 0 24 24" fill="none" xmlns="http://www.w3.org/2000/svg">
<path d="M18.05 14.9999C17.8511 14.9999 17.6603 14.9209 17.5196 14.7802C17.379 14.6396 17.3 14.4488 17.3 14.2499C17.2989 14.1513 17.3179 14.0535 17.3557 13.9624C17.3935 13.8713 17.4494 13.7888 17.52 13.7199C17.6263 13.6165 17.76 13.5456 17.9052 13.5155C18.0505 13.4854 18.2013 13.4973 18.34 13.5499C18.4311 13.5889 18.5129 13.6469 18.58 13.7199C18.6505 13.7888 18.7064 13.8713 18.7442 13.9624C18.782 14.0535 18.801 14.1513 18.8 14.2499C18.8004 14.3465 18.7799 14.442 18.74 14.5299C18.7084 14.6253 18.6534 14.7113 18.58 14.7799C18.5125 14.85 18.4306 14.9046 18.34 14.9399C18.2485 14.9798 18.1497 15.0002 18.05 14.9999Z" fill="white"/>
<path d="M5.27002 15.0001C5.07118 14.9999 4.88054 14.9208 4.74002 14.7801C4.66659 14.7115 4.61158 14.6255 4.58002 14.5301C4.54121 14.4418 4.5208 14.3465 4.52002 14.2501C4.51971 14.1503 4.54014 14.0515 4.58002 13.9601C4.65512 13.779 4.79898 13.6352 4.98002 13.5601C5.07157 13.5204 5.17027 13.5 5.27002 13.5C5.36978 13.5 5.46848 13.5204 5.56002 13.5601C5.65132 13.5941 5.73347 13.6489 5.80002 13.7201C5.94072 13.8606 6.01985 14.0512 6.02002 14.2501C6.02824 14.3339 6.02147 14.4186 6.00002 14.5001C5.96463 14.5936 5.91014 14.6788 5.84002 14.7501C5.76845 14.8301 5.68052 14.8939 5.58218 14.937C5.48384 14.9801 5.37739 15.0016 5.27002 15.0001Z" fill="white"/>
<path d="M11.9999 10.33C11.8265 10.3284 11.659 10.2668 11.5258 10.1556C11.3927 10.0443 11.3023 9.89041 11.2699 9.72C11.167 9.06725 11.199 8.40031 11.3642 7.76045C11.5293 7.12058 11.824 6.52141 12.2299 6C12.7706 5.42678 13.4334 4.98262 14.1691 4.70045C14.9048 4.41828 15.6946 4.30534 16.4799 4.37C16.6789 4.37 16.8696 4.44902 17.0103 4.58967C17.1509 4.73033 17.2299 4.92109 17.2299 5.12C17.2299 5.31892 17.1509 5.50968 17.0103 5.65033C16.8696 5.79099 16.6789 5.87 16.4799 5.87C15.9134 5.81836 15.3424 5.89291 14.8082 6.0883C14.2739 6.28369 13.7895 6.59505 13.3899 7C12.8717 7.71201 12.6527 8.59859 12.7799 9.47C12.8123 9.66453 12.7679 9.86403 12.6559 10.0264C12.544 10.1887 12.3733 10.3012 12.1799 10.34L11.9999 10.33Z" fill="white"/>
<path d="M5.99999 19.6101C4.57047 19.6101 3.1995 19.0422 2.18868 18.0314C1.17786 17.0206 0.609985 15.6496 0.609985 14.2201C0.609985 12.7906 1.17786 11.4196 2.18868 10.4088C3.1995 9.39795 4.57047 8.83008 5.99999 8.83008C6.1989 8.83008 6.38966 8.9091 6.53032 9.04975C6.67097 9.1904 6.74999 9.38117 6.74999 9.58008C6.74999 9.77899 6.67097 9.96976 6.53032 10.1104C6.38966 10.2511 6.1989 10.3301 5.99999 10.3301C5.48129 10.3206 4.966 10.4158 4.48491 10.6099C4.00382 10.8041 3.56681 11.0932 3.19999 11.4601C2.47572 12.1921 2.06948 13.1803 2.06948 14.2101C2.06948 15.2398 2.47572 16.228 3.19999 16.9601C3.94235 17.6605 4.92437 18.0506 5.94499 18.0506C6.96561 18.0506 7.94762 17.6605 8.68999 16.9601C8.83061 16.8196 9.02124 16.7407 9.21999 16.7407C9.41874 16.7407 9.60936 16.8196 9.74999 16.9601C9.89044 17.1007 9.96933 17.2913 9.96933 17.4901C9.96933 17.6888 9.89044 17.8795 9.74999 18.0201C8.75791 19.0229 7.41051 19.5942 5.99999 19.6101Z" fill="white"/>
<path d="M18.05 19.6101C17.3399 19.6074 16.6375 19.4638 15.9834 19.1874C15.3294 18.911 14.7367 18.5074 14.24 18.0001C14.0995 17.8594 14.0206 17.6688 14.0206 17.4701C14.0206 17.2713 14.0995 17.0807 14.24 16.9401C14.3806 16.7996 14.5712 16.7207 14.77 16.7207C14.9687 16.7207 15.1593 16.7996 15.3 16.9401C16.0423 17.6405 17.0243 18.0306 18.045 18.0306C19.0656 18.0306 20.0476 17.6405 20.79 16.9401C21.5142 16.208 21.9205 15.2198 21.9205 14.1901C21.9205 13.1603 21.5142 12.1721 20.79 11.4401C20.429 11.0793 20.0002 10.7936 19.5281 10.5997C19.0561 10.4057 18.5503 10.3073 18.04 10.3101C17.8411 10.3101 17.6503 10.231 17.5096 10.0904C17.369 9.94974 17.29 9.75897 17.29 9.56006C17.29 9.36115 17.369 9.17038 17.5096 9.02973C17.6503 8.88908 17.8411 8.81006 18.04 8.81006C19.4695 8.81006 20.8405 9.37793 21.8513 10.3888C22.8621 11.3996 23.43 12.7705 23.43 14.2001C23.43 15.6296 22.8621 17.0005 21.8513 18.0114C20.8405 19.0222 19.4695 19.5901 18.04 19.5901L18.05 19.6101Z" fill="white"/>
<path d="M14.78 18.24H9.21997C9.02106 18.24 8.83029 18.161 8.68964 18.0203C8.54899 17.8797 8.46997 17.6889 8.46997 17.49C8.46997 17.2911 8.54899 17.1003 8.68964 16.9597C8.83029 16.819 9.02106 16.74 9.21997 16.74H14.78C14.9789 16.74 15.1696 16.819 15.3103 16.9597C15.451 17.1003 15.53 17.2911 15.53 17.49C15.53 17.6889 15.451 17.8797 15.3103 18.0203C15.1696 18.161 14.9789 18.24 14.78 18.24Z" fill="white"/>
<path d="M18.05 10.3301H6C5.80109 10.3301 5.61032 10.2511 5.46967 10.1104C5.32902 9.96976 5.25 9.77899 5.25 9.58008C5.25 9.38117 5.32902 9.1904 5.46967 9.04975C5.61032 8.9091 5.80109 8.83008 6 8.83008H18.1C18.2989 8.83008 18.4897 8.9091 18.6303 9.04975C18.771 9.1904 18.85 9.38117 18.85 9.58008C18.85 9.77899 18.771 9.96976 18.6303 10.1104C18.4897 10.2511 18.2989 10.3301 18.1 10.3301H18.05Z" fill="white"/>
</svg>
