<svg width="24" height="24" viewBox="0 0 24 24" fill="none" xmlns="http://www.w3.org/2000/svg">
<path d="M12 12.75H6.35999C6.16108 12.75 5.97031 12.6709 5.82966 12.5303C5.68901 12.3896 5.60999 12.1989 5.60999 12V6.51997C5.60865 6.4211 5.62713 6.32297 5.66434 6.23137C5.70156 6.13977 5.75675 6.05655 5.82667 5.98664C5.89658 5.91672 5.97979 5.86153 6.0714 5.82432C6.163 5.7871 6.26113 5.76862 6.35999 5.76997H12C12.1989 5.76997 12.3897 5.84898 12.5303 5.98964C12.671 6.13029 12.75 6.32105 12.75 6.51997V12C12.7474 12.1981 12.6676 12.3873 12.5275 12.5274C12.3874 12.6675 12.1981 12.7474 12 12.75ZM7.10999 11.25H11.25V7.24997H7.10999V11.25Z" fill="white"/>
<path d="M17.64 12.75H12C11.8019 12.7474 11.6126 12.6675 11.4725 12.5274C11.3324 12.3873 11.2526 12.1981 11.25 12V6.51997C11.25 6.32105 11.329 6.13029 11.4697 5.98964C11.6103 5.84898 11.8011 5.76997 12 5.76997H17.64C17.7389 5.76862 17.837 5.7871 17.9286 5.82432C18.0202 5.86153 18.1034 5.91672 18.1733 5.98664C18.2432 6.05655 18.2984 6.13977 18.3356 6.23137C18.3729 6.32297 18.3913 6.4211 18.39 6.51997V12C18.39 12.1989 18.311 12.3896 18.1703 12.5303C18.0297 12.6709 17.8389 12.75 17.64 12.75ZM12.75 11.25H16.89V7.24997H12.75V11.25Z" fill="white"/>
<path d="M17.64 18.23H12C11.8011 18.23 11.6103 18.151 11.4697 18.0103C11.329 17.8697 11.25 17.6789 11.25 17.48V12C11.2526 11.8019 11.3324 11.6126 11.4725 11.4725C11.6126 11.3324 11.8019 11.2526 12 11.25H17.64C17.8389 11.25 18.0297 11.329 18.1703 11.4697C18.311 11.6103 18.39 11.8011 18.39 12V17.48C18.3913 17.5789 18.3729 17.677 18.3356 17.7686C18.2984 17.8602 18.2432 17.9434 18.1733 18.0133C18.1034 18.0832 18.0202 18.1384 17.9286 18.1756C17.837 18.2129 17.7389 18.2313 17.64 18.23ZM12.75 16.73H16.89V12.73H12.75V16.73Z" fill="white"/>
<path d="M12 18.23H6.35999C6.26113 18.2313 6.163 18.2129 6.0714 18.1756C5.97979 18.1384 5.89658 18.0832 5.82667 18.0133C5.75675 17.9434 5.70156 17.8602 5.66434 17.7686C5.62713 17.677 5.60865 17.5789 5.60999 17.48V12C5.60999 11.8011 5.68901 11.6103 5.82966 11.4697C5.97031 11.329 6.16108 11.25 6.35999 11.25H12C12.1981 11.2526 12.3874 11.3324 12.5275 11.4725C12.6676 11.6126 12.7474 11.8019 12.75 12V17.48C12.75 17.6789 12.671 17.8697 12.5303 18.0103C12.3897 18.151 12.1989 18.23 12 18.23ZM7.10999 16.73H11.25V12.73H7.10999V16.73Z" fill="white"/>
</svg>
