<svg width="24" height="24" viewBox="0 0 24 24" fill="none" xmlns="http://www.w3.org/2000/svg">
<path d="M11.8 22.345C3.10004 22.345 3.00004 13.675 3.00004 13.595V5.53502C2.99849 5.39228 3.03826 5.25213 3.11456 5.13148C3.19085 5.01082 3.30042 4.91481 3.43004 4.85502L11.43 1.07502C11.5295 1.02568 11.639 1 11.75 1C11.8611 1 11.9706 1.02568 12.07 1.07502L20.12 4.85502C20.2497 4.91481 20.3592 5.01082 20.4355 5.13148C20.5118 5.25213 20.5516 5.39228 20.55 5.53502V13.625C20.62 13.675 20.52 22.345 11.8 22.345ZM4.52004 5.97502V13.595C4.52004 13.885 4.63004 20.845 11.82 20.845C19.01 20.845 19.12 13.845 19.12 13.585V5.97502L11.8 2.53502L4.52004 5.97502Z" fill="white"/>
<path d="M4.22004 16.5351C4.07187 16.5323 3.92775 16.4862 3.80544 16.4025C3.68313 16.3188 3.58795 16.2011 3.53163 16.0641C3.47531 15.927 3.46029 15.7764 3.48844 15.6309C3.51659 15.4854 3.58666 15.3513 3.69004 15.2451L15.69 3.2451C15.8333 3.0979 16.0291 3.01363 16.2344 3.01081C16.4398 3.008 16.6378 3.08688 16.785 3.2301C16.9322 3.37331 17.0165 3.56914 17.0193 3.77449C17.0221 3.97984 16.9433 4.1779 16.8 4.3251L4.80004 16.3251C4.72239 16.3972 4.63103 16.453 4.53139 16.489C4.43174 16.5251 4.32586 16.5408 4.22004 16.5351Z" fill="white"/>
<path d="M6.93007 20.955C6.73207 20.9507 6.54291 20.8722 6.40006 20.735C6.25961 20.5944 6.18073 20.4038 6.18073 20.205C6.18073 20.0063 6.25961 19.8156 6.40006 19.675L19.3201 6.755C19.4622 6.62252 19.6503 6.5504 19.8446 6.55383C20.0389 6.55726 20.2243 6.63597 20.3617 6.77338C20.4991 6.91079 20.5778 7.09618 20.5812 7.29048C20.5847 7.48478 20.5125 7.67283 20.3801 7.815L7.46006 20.735C7.31834 20.8739 7.12848 20.9527 6.93007 20.955Z" fill="white"/>
</svg>
