<svg width="24" height="24" viewBox="0 0 24 24" fill="none" xmlns="http://www.w3.org/2000/svg">
<path d="M13.08 20.4899C11.6861 20.4799 10.3147 20.1371 9.08004 19.4899C8.90829 19.3964 8.7792 19.2403 8.7196 19.054C8.66 18.8678 8.67448 18.6657 8.76004 18.4899C8.85169 18.3163 9.00774 18.1856 9.19471 18.1257C9.38167 18.0659 9.58464 18.0818 9.76004 18.1699C11.2009 18.9108 12.8467 19.1534 14.44 18.8599C15.7143 18.6084 16.8977 18.0192 17.8664 17.1539C18.835 16.2886 19.5534 15.1789 19.9465 13.9409C20.3395 12.7029 20.3927 11.3821 20.1006 10.1164C19.8085 8.85084 19.1817 7.68695 18.2858 6.74648C17.3899 5.80601 16.2578 5.12349 15.0079 4.77028C13.7579 4.41707 12.4361 4.40615 11.1805 4.73865C9.92484 5.07114 8.78162 5.73486 7.87031 6.66039C6.95899 7.58593 6.31306 8.73929 6.00004 9.99989C5.54986 11.8704 5.85527 13.8431 6.85004 15.4899C6.94406 15.657 6.97055 15.8537 6.92405 16.0396C6.87756 16.2256 6.76162 16.3867 6.60004 16.4899C6.43298 16.5839 6.23626 16.6104 6.05029 16.5639C5.86431 16.5174 5.7032 16.4015 5.60004 16.2399C4.86971 15.0323 4.44301 13.6657 4.35651 12.2572C4.27 10.8486 4.52626 9.44002 5.10334 8.15218C5.68041 6.86433 6.56109 5.73557 7.66993 4.86262C8.77877 3.98967 10.0827 3.39855 11.47 3.13989C13.7522 2.71422 16.11 3.21258 18.0248 4.52533C19.9395 5.83809 21.2544 7.85771 21.68 10.1399C22.1057 12.4221 21.6074 14.7799 20.2946 16.6946C18.9818 18.6094 16.9622 19.9242 14.68 20.3499C14.1515 20.4411 13.6163 20.488 13.08 20.4899Z" fill="white"/>
<path d="M5.33001 20.9999C5.09027 21.0057 4.85298 20.9506 4.64026 20.8399C4.42755 20.7291 4.24635 20.5663 4.11356 20.3666C3.98076 20.1669 3.90071 19.9369 3.88085 19.6979C3.861 19.4589 3.90199 19.2188 4.00001 18.9999L5.53001 15.5799C5.56892 15.4878 5.62609 15.4046 5.69807 15.3352C5.77005 15.2658 5.85534 15.2117 5.9488 15.1762C6.04226 15.1407 6.14194 15.1245 6.24183 15.1285C6.34173 15.1326 6.43976 15.1569 6.53001 15.1999C6.71236 15.2829 6.85459 15.4345 6.92575 15.6217C6.99691 15.809 6.99126 16.0168 6.91001 16.1999L5.48001 19.4499L9.15001 18.1399C9.24441 18.0985 9.34633 18.077 9.44942 18.0767C9.5525 18.0764 9.65454 18.0974 9.74916 18.1383C9.84377 18.1792 9.92894 18.2392 9.99933 18.3145C10.0697 18.3898 10.1238 18.4789 10.1583 18.576C10.1927 18.6732 10.2068 18.7764 10.1996 18.8792C10.1924 18.9821 10.164 19.0823 10.1163 19.1737C10.0686 19.2651 10.0026 19.3457 9.92236 19.4104C9.84213 19.4751 9.74942 19.5226 9.65001 19.5499L5.80001 20.9199C5.64956 20.9751 5.49025 21.0022 5.33001 20.9999Z" fill="white"/>
<path d="M16 10.75H10C9.80109 10.75 9.61032 10.671 9.46967 10.5303C9.32902 10.3897 9.25 10.1989 9.25 10C9.25 9.80109 9.32902 9.61032 9.46967 9.46967C9.61032 9.32902 9.80109 9.25 10 9.25H16C16.1989 9.25 16.3897 9.32902 16.5303 9.46967C16.671 9.61032 16.75 9.80109 16.75 10C16.75 10.1989 16.671 10.3897 16.5303 10.5303C16.3897 10.671 16.1989 10.75 16 10.75Z" fill="white"/>
<path d="M16 14.75H10C9.80109 14.75 9.61032 14.671 9.46967 14.5303C9.32902 14.3897 9.25 14.1989 9.25 14C9.25 13.8011 9.32902 13.6103 9.46967 13.4697C9.61032 13.329 9.80109 13.25 10 13.25H16C16.1989 13.25 16.3897 13.329 16.5303 13.4697C16.671 13.6103 16.75 13.8011 16.75 14C16.75 14.1989 16.671 14.3897 16.5303 14.5303C16.3897 14.671 16.1989 14.75 16 14.75Z" fill="white"/>
</svg>
