<svg width="24" height="24" viewBox="0 0 24 24" fill="none" xmlns="http://www.w3.org/2000/svg">
<path d="M10.9 11.77C10.7943 11.7702 10.6898 11.748 10.5933 11.7049C10.4968 11.6618 10.4104 11.5988 10.34 11.52C10.2704 11.4397 10.2184 11.3457 10.1874 11.2441C10.1564 11.1425 10.1471 11.0355 10.16 10.93C10.16 10.84 11.39 1.79004 19.38 1.79004C19.5625 1.79115 19.7384 1.8588 19.8746 1.9803C20.0108 2.1018 20.0981 2.26882 20.12 2.45004C20.3565 4.80484 19.6559 7.15801 18.17 9.00004C16.57 10.85 14.12 11.77 10.9 11.77ZM18.66 3.32004C13.85 3.74004 12.27 8.32004 11.81 10.24C12.7768 10.2359 13.7333 10.0402 14.6241 9.66428C15.5149 9.28839 16.3224 8.73975 17 8.05004C18.0966 6.72003 18.6849 5.04365 18.66 3.32004Z" fill="white"/>
<path d="M10.9 11.76H10.81C8.4 11.46 3.81 9.59005 3.81 4.70005C3.81082 4.51639 3.87812 4.33924 3.99945 4.20136C4.12078 4.06349 4.28793 3.97421 4.47 3.95005C6.29444 3.76535 8.11851 4.30395 9.55 5.45005C10.2852 6.16487 10.8543 7.03247 11.2172 7.99151C11.5801 8.95055 11.7278 9.97761 11.65 11C11.6501 11.1057 11.6279 11.2103 11.5849 11.3068C11.5418 11.4033 11.4788 11.4896 11.4 11.56C11.2624 11.684 11.0851 11.7549 10.9 11.76ZM5.38 5.42005C5.77 8.54005 8.63 9.69005 10.11 10.08C10.0678 8.75336 9.51211 7.4949 8.56 6.57005C7.66004 5.83902 6.53936 5.43375 5.38 5.42005Z" fill="white"/>
<path d="M10.9 15.9C10.7011 15.9 10.5103 15.821 10.3697 15.6803C10.229 15.5397 10.15 15.3489 10.15 15.15V11C10.15 10.8011 10.229 10.6103 10.3697 10.4697C10.5103 10.329 10.7011 10.25 10.9 10.25C11.0989 10.25 11.2897 10.329 11.4304 10.4697C11.571 10.6103 11.65 10.8011 11.65 11V15.13C11.6541 15.2305 11.6377 15.3308 11.6017 15.4248C11.5657 15.5187 11.5109 15.6043 11.4407 15.6764C11.3705 15.7485 11.2864 15.8055 11.1934 15.8439C11.1004 15.8824 11.0006 15.9014 10.9 15.9Z" fill="white"/>
<path d="M13.5 22.21H8.7C7.71495 22.1943 6.77542 21.7926 6.08348 21.0913C5.39155 20.39 5.00249 19.4452 5 18.46V15.15C5 14.9511 5.07902 14.7603 5.21967 14.6197C5.36032 14.479 5.55109 14.4 5.75 14.4H16.5C16.6989 14.4 16.8897 14.479 17.0303 14.6197C17.171 14.7603 17.25 14.9511 17.25 15.15V18.46C17.2474 19.4538 16.8514 20.4061 16.1487 21.1088C15.446 21.8114 14.4938 22.2074 13.5 22.21ZM6.5 15.9V18.46C6.49985 19.0482 6.73003 19.613 7.14123 20.0336C7.55244 20.4541 8.11197 20.697 8.7 20.71H13.5C14.0967 20.71 14.669 20.473 15.091 20.051C15.5129 19.6291 15.75 19.0568 15.75 18.46V15.9H6.5Z" fill="white"/>
</svg>
