<svg width="24" height="24" viewBox="0 0 24 24" fill="none" xmlns="http://www.w3.org/2000/svg">
<path d="M8.79 8.72997C8.68986 8.73536 8.58966 8.7206 8.49532 8.68657C8.40098 8.65255 8.31442 8.59995 8.24077 8.53189C8.16711 8.46383 8.10785 8.38169 8.0665 8.29032C8.02514 8.19896 8.00253 8.10023 8 7.99998C7.99969 7.9002 8.02013 7.80144 8.06 7.70998C8.09406 7.61868 8.14883 7.53652 8.22 7.46997C8.36307 7.33422 8.55278 7.25854 8.75 7.25854C8.94723 7.25854 9.13693 7.33422 9.28 7.46997C9.42045 7.6106 9.49934 7.80122 9.49934 7.99998C9.49934 8.19873 9.42045 8.38935 9.28 8.52997C9.14543 8.65244 8.97184 8.7233 8.79 8.72997Z" fill="white"/>
<path d="M8.79 12.7501C8.6882 12.7555 8.58635 12.7401 8.49069 12.7049C8.39503 12.6696 8.30756 12.6153 8.23362 12.5451C8.15968 12.4749 8.10084 12.3903 8.06067 12.2966C8.0205 12.2029 7.99986 12.102 8 12.0001C7.99969 11.9003 8.02013 11.8015 8.06 11.7101C8.09406 11.6188 8.14883 11.5366 8.22 11.4701C8.30702 11.3835 8.41396 11.3196 8.53144 11.284C8.64892 11.2484 8.77334 11.2421 8.89379 11.2658C9.01424 11.2895 9.12704 11.3424 9.22227 11.4199C9.3175 11.4973 9.39227 11.597 9.44 11.7101C9.47988 11.8015 9.50031 11.9003 9.5 12.0001C9.49983 12.1989 9.4207 12.3896 9.28 12.5301C9.14837 12.6598 8.97445 12.7379 8.79 12.7501Z" fill="white"/>
<path d="M15.17 12.75C14.9716 12.7477 14.7817 12.6689 14.64 12.53C14.4995 12.3893 14.4207 12.1987 14.4207 12C14.4207 11.8012 14.4995 11.6106 14.64 11.47C14.7831 11.3342 14.9728 11.2585 15.17 11.2585C15.3672 11.2585 15.5569 11.3342 15.7 11.47C15.772 11.5382 15.8294 11.6204 15.8686 11.7115C15.9078 11.8026 15.928 11.9008 15.928 12C15.928 12.0992 15.9078 12.1973 15.8686 12.2885C15.8294 12.3796 15.772 12.4618 15.7 12.53C15.5595 12.6707 15.3688 12.7498 15.17 12.75Z" fill="white"/>
<path d="M15.17 8.72992C14.9716 8.72761 14.7817 8.6488 14.64 8.50992C14.4995 8.36929 14.4207 8.17867 14.4207 7.97992C14.4207 7.78117 14.4995 7.59054 14.64 7.44992C14.7103 7.37856 14.7957 7.32389 14.89 7.28992C15.0256 7.23309 15.1751 7.21795 15.3194 7.24645C15.4637 7.27495 15.5962 7.34578 15.7 7.44992C15.772 7.51813 15.8294 7.60031 15.8686 7.69144C15.9078 7.78256 15.928 7.88072 15.928 7.97992C15.928 8.07912 15.9078 8.17728 15.8686 8.2684C15.8294 8.35952 15.772 8.4417 15.7 8.50992C15.5595 8.65061 15.3688 8.72974 15.17 8.72992Z" fill="white"/>
<path d="M8.79004 16.73C8.59119 16.7298 8.40056 16.6506 8.26004 16.51C8.18886 16.4434 8.13409 16.3613 8.10004 16.27C8.04101 16.1331 8.0247 15.9815 8.05325 15.8352C8.0818 15.6889 8.15388 15.5546 8.26004 15.45C8.40311 15.3142 8.59281 15.2385 8.79004 15.2385C8.98726 15.2385 9.17697 15.3142 9.32004 15.45C9.46073 15.5905 9.53986 15.7811 9.54004 15.98C9.53773 16.1784 9.45892 16.3682 9.32004 16.51C9.17952 16.6506 8.98888 16.7298 8.79004 16.73Z" fill="white"/>
<path d="M15.17 16.73C14.9716 16.7277 14.7817 16.6488 14.64 16.51C14.4995 16.3693 14.4207 16.1787 14.4207 15.98C14.4207 15.7812 14.4995 15.5906 14.64 15.45C14.7831 15.3142 14.9728 15.2385 15.17 15.2385C15.3672 15.2385 15.5569 15.3142 15.7 15.45C15.772 15.5182 15.8294 15.6004 15.8686 15.6915C15.9078 15.7826 15.928 15.8808 15.928 15.98C15.928 16.0792 15.9078 16.1773 15.8686 16.2684C15.8294 16.3596 15.772 16.4417 15.7 16.51C15.5595 16.6506 15.3688 16.7298 15.17 16.73Z" fill="white"/>
<path d="M17 20.77H7.00003C6.50421 20.7727 6.01278 20.677 5.55419 20.4885C5.09559 20.2999 4.67894 20.0223 4.32833 19.6717C3.97772 19.3211 3.70013 18.9045 3.51161 18.4459C3.32309 17.9873 3.22738 17.4959 3.23003 17V7.00003C3.22738 6.50421 3.32309 6.01278 3.51161 5.55419C3.70013 5.09559 3.97772 4.67894 4.32833 4.32833C4.67894 3.97772 5.09559 3.70013 5.55419 3.51161C6.01278 3.32309 6.50421 3.22738 7.00003 3.23003H17C17.4959 3.22738 17.9873 3.32309 18.4459 3.51161C18.9045 3.70013 19.3211 3.97772 19.6717 4.32833C20.0223 4.67894 20.2999 5.09559 20.4885 5.55419C20.677 6.01278 20.7727 6.50421 20.77 7.00003V17C20.7727 17.4959 20.677 17.9873 20.4885 18.4459C20.2999 18.9045 20.0223 19.3211 19.6717 19.6717C19.3211 20.0223 18.9045 20.2999 18.4459 20.4885C17.9873 20.677 17.4959 20.7727 17 20.77ZM7.00003 4.73003C6.70119 4.72737 6.40481 4.78426 6.1282 4.89739C5.85158 5.01053 5.60028 5.17763 5.38895 5.38895C5.17763 5.60028 5.01053 5.85158 4.89739 6.1282C4.78426 6.40481 4.72737 6.70119 4.73003 7.00003V17C4.72737 17.2989 4.78426 17.5953 4.89739 17.8719C5.01053 18.1485 5.17763 18.3998 5.38895 18.6111C5.60028 18.8224 5.85158 18.9895 6.1282 19.1027C6.40481 19.2158 6.70119 19.2727 7.00003 19.27H17C17.2989 19.2727 17.5953 19.2158 17.8719 19.1027C18.1485 18.9895 18.3998 18.8224 18.6111 18.6111C18.8224 18.3998 18.9895 18.1485 19.1027 17.8719C19.2158 17.5953 19.2727 17.2989 19.27 17V7.00003C19.2727 6.70119 19.2158 6.40481 19.1027 6.1282C18.9895 5.85158 18.8224 5.60028 18.6111 5.38895C18.3998 5.17763 18.1485 5.01053 17.8719 4.89739C17.5953 4.78426 17.2989 4.72737 17 4.73003H7.00003Z" fill="white"/>
</svg>
