<svg width="24" height="24" viewBox="0 0 24 24" fill="none" xmlns="http://www.w3.org/2000/svg">
<path d="M12 14.79C11.879 14.7886 11.7596 14.7613 11.65 14.71C11.5 14.63 8 12.71 7.25 10.2C7.02046 9.56171 6.93987 8.87939 7.0144 8.20519C7.08892 7.53099 7.31659 6.88275 7.68 6.31C7.95037 5.95428 8.30222 5.66869 8.70594 5.47727C9.10967 5.28584 9.55347 5.19418 10 5.21C10.3749 5.19969 10.7475 5.27027 11.0927 5.41695C11.4378 5.56363 11.7473 5.78296 12 6.06C12.2527 5.78296 12.5622 5.56363 12.9073 5.41695C13.2525 5.27027 13.6251 5.19969 14 5.21C14.4432 5.19741 14.883 5.29062 15.283 5.48192C15.683 5.67322 16.0316 5.95709 16.3 6.31C16.6634 6.88275 16.8911 7.53099 16.9656 8.20519C17.0401 8.87939 16.9595 9.56171 16.73 10.2C15.98 12.76 12.48 14.63 12.33 14.71C12.2265 14.7586 12.1143 14.7858 12 14.79ZM10 6.71C9.78944 6.69451 9.57836 6.73218 9.38615 6.81954C9.19395 6.90691 9.02678 7.04117 8.9 7.21C8.67938 7.59735 8.54785 8.029 8.51499 8.47356C8.48212 8.91812 8.54874 9.36442 8.71 9.78C9.13 11.22 11 12.58 12.02 13.18C13.02 12.57 14.91 11.18 15.33 9.78C15.4913 9.36442 15.5579 8.91812 15.525 8.47356C15.4921 8.029 15.3606 7.59735 15.14 7.21C14.9724 6.98886 14.7399 6.82565 14.475 6.74324C14.21 6.66083 13.926 6.66334 13.6625 6.75042C13.3991 6.8375 13.1695 7.00478 13.0058 7.22885C12.8422 7.45292 12.7528 7.72256 12.75 8C12.75 8.19891 12.671 8.38968 12.5303 8.53033C12.3897 8.67098 12.1989 8.75 12 8.75C11.8011 8.75 11.6103 8.67098 11.4697 8.53033C11.329 8.38968 11.25 8.19891 11.25 8C11.2568 7.83216 11.2294 7.66469 11.1695 7.50775C11.1096 7.35082 11.0184 7.20769 10.9015 7.08705C10.7846 6.96642 10.6444 6.87079 10.4895 6.80598C10.3345 6.74116 10.168 6.70851 10 6.71Z" fill="white"/>
<path d="M18.76 17.75H5.23999C4.17912 17.75 3.16171 17.3286 2.41156 16.5784C1.66142 15.8283 1.23999 14.8109 1.23999 13.75V6.23999C1.23999 5.17912 1.66142 4.16171 2.41156 3.41156C3.16171 2.66142 4.17912 2.23999 5.23999 2.23999H18.76C19.8209 2.23999 20.8383 2.66142 21.5884 3.41156C22.3386 4.16171 22.76 5.17912 22.76 6.23999V13.76C22.7573 14.8191 22.3347 15.834 21.5849 16.582C20.835 17.3299 19.8191 17.75 18.76 17.75ZM5.23999 3.74999C4.58041 3.75262 3.9486 4.01581 3.4822 4.4822C3.01581 4.9486 2.75262 5.58041 2.74999 6.23999V13.76C2.75262 14.4196 3.01581 15.0514 3.4822 15.5178C3.9486 15.9842 4.58041 16.2474 5.23999 16.25H18.76C19.4196 16.2474 20.0514 15.9842 20.5178 15.5178C20.9842 15.0514 21.2474 14.4196 21.25 13.76V6.23999C21.2474 5.58041 20.9842 4.9486 20.5178 4.4822C20.0514 4.01581 19.4196 3.75262 18.76 3.74999H5.23999Z" fill="white"/>
<path d="M12 21.75C11.8019 21.7474 11.6126 21.6676 11.4725 21.5275C11.3324 21.3874 11.2526 21.1981 11.25 21V17C11.25 16.8011 11.329 16.6103 11.4697 16.4697C11.6103 16.329 11.8011 16.25 12 16.25C12.1989 16.25 12.3897 16.329 12.5303 16.4697C12.671 16.6103 12.75 16.8011 12.75 17V21C12.7474 21.1981 12.6676 21.3874 12.5275 21.5275C12.3874 21.6676 12.1981 21.7474 12 21.75Z" fill="white"/>
<path d="M18 21.75H6C5.80109 21.75 5.61032 21.671 5.46967 21.5303C5.32902 21.3897 5.25 21.1989 5.25 21C5.25 20.8011 5.32902 20.6103 5.46967 20.4697C5.61032 20.329 5.80109 20.25 6 20.25H18C18.1989 20.25 18.3897 20.329 18.5303 20.4697C18.671 20.6103 18.75 20.8011 18.75 21C18.75 21.1989 18.671 21.3897 18.5303 21.5303C18.3897 21.671 18.1989 21.75 18 21.75Z" fill="white"/>
</svg>
