<svg width="24" height="24" viewBox="0 0 24 24" fill="none" xmlns="http://www.w3.org/2000/svg">
<path d="M12 22.72C9.87976 22.72 7.80716 22.0913 6.04426 20.9134C4.28137 19.7355 2.90736 18.0612 2.09598 16.1024C1.28461 14.1436 1.07232 11.9881 1.48595 9.90867C1.89959 7.82919 2.92057 5.91907 4.41979 4.41985C5.91901 2.92063 7.82913 1.89965 9.9086 1.48602C11.9881 1.07238 14.1435 1.28467 16.1023 2.09605C18.0612 2.90742 19.7354 4.28143 20.9133 6.04432C22.0913 7.80722 22.72 9.87982 22.72 12C22.7173 14.8423 21.5871 17.5675 19.5772 19.5773C17.5674 21.5871 14.8423 22.7174 12 22.72ZM12 2.78003C10.1764 2.78003 8.39384 3.32078 6.87762 4.33388C5.36139 5.34699 4.17964 6.78696 3.4818 8.47169C2.78396 10.1564 2.60138 12.0103 2.95713 13.7988C3.31289 15.5873 4.19101 17.2301 5.48045 18.5196C6.76989 19.809 8.41274 20.6871 10.2012 21.0429C11.9897 21.3986 13.8436 21.216 15.5283 20.5182C17.213 19.8204 18.653 18.6386 19.6661 17.1224C20.6792 15.6062 21.22 13.8236 21.22 12C21.2147 9.55636 20.2416 7.21429 18.5137 5.48635C16.7857 3.7584 14.4436 2.78532 12 2.78003Z" fill="white"/>
<path d="M13.92 16.0699H10.08C9.94912 16.0686 9.82077 16.0339 9.70704 15.9692C9.59331 15.9044 9.49795 15.8118 9.42998 15.6999L7.51998 12.3799C7.45107 12.267 7.41461 12.1372 7.41461 12.0049C7.41461 11.8726 7.45107 11.7429 7.51998 11.6299L9.42998 8.29993C9.49795 8.18811 9.59331 8.09545 9.70704 8.03071C9.82077 7.96597 9.94912 7.93129 10.08 7.92993H13.92C14.051 7.93033 14.1797 7.96461 14.2936 8.02944C14.4075 8.09427 14.5027 8.18745 14.57 8.29993L16.49 11.6299C16.5539 11.7446 16.5875 11.8737 16.5875 12.0049C16.5875 12.1362 16.5539 12.2653 16.49 12.3799L14.57 15.6999C14.5027 15.8124 14.4075 15.9056 14.2936 15.9704C14.1797 16.0353 14.051 16.0695 13.92 16.0699ZM10.52 14.5699H13.52L15 11.9999L13.49 9.42993H10.49L8.99998 11.9999L10.52 14.5699Z" fill="white"/>
<path d="M8.16 12.75H2C1.80109 12.75 1.61032 12.671 1.46967 12.5303C1.32902 12.3897 1.25 12.1989 1.25 12C1.25 11.8011 1.32902 11.6103 1.46967 11.4697C1.61032 11.329 1.80109 11.25 2 11.25H8.16C8.35891 11.25 8.54968 11.329 8.69033 11.4697C8.83098 11.6103 8.91 11.8011 8.91 12C8.91 12.1989 8.83098 12.3897 8.69033 12.5303C8.54968 12.671 8.35891 12.75 8.16 12.75Z" fill="white"/>
<path d="M22 12.75H15.84C15.6411 12.75 15.4503 12.671 15.3097 12.5303C15.169 12.3897 15.09 12.1989 15.09 12C15.09 11.8011 15.169 11.6103 15.3097 11.4697C15.4503 11.329 15.6411 11.25 15.84 11.25H22C22.1989 11.25 22.3897 11.329 22.5304 11.4697C22.671 11.6103 22.75 11.8011 22.75 12C22.75 12.1989 22.671 12.3897 22.5304 12.5303C22.3897 12.671 22.1989 12.75 22 12.75Z" fill="white"/>
</svg>
