<svg width="24" height="24" viewBox="0 0 24 24" fill="none" xmlns="http://www.w3.org/2000/svg">
<path d="M9.54997 19.91C9.10484 19.9068 8.67829 19.7312 8.35997 19.42L2.15997 13.21C2.08921 13.1411 2.03298 13.0586 1.99458 12.9676C1.95618 12.8766 1.9364 12.7788 1.9364 12.68C1.9364 12.5812 1.95618 12.4834 1.99458 12.3924C2.03298 12.3014 2.08921 12.2189 2.15997 12.15L4.56997 9.73C4.89371 9.41061 5.3302 9.23153 5.78497 9.23153C6.23975 9.23153 6.67623 9.41061 6.99997 9.73L9.77997 12.52C9.81353 12.5524 9.85834 12.5705 9.90497 12.5705C9.9516 12.5705 9.99642 12.5524 10.03 12.52L17.38 5.17C17.7002 4.86318 18.1265 4.69189 18.57 4.69189C19.0134 4.69189 19.4398 4.86318 19.76 5.17L21.21 6.62C21.5232 6.93482 21.6991 7.36088 21.6991 7.805C21.6991 8.24913 21.5232 8.67518 21.21 8.99L10.74 19.42C10.4217 19.7312 9.9951 19.9068 9.54997 19.91ZM3.74997 12.68L9.41997 18.35C9.45353 18.3824 9.49834 18.4005 9.54497 18.4005C9.5916 18.4005 9.63642 18.3824 9.66997 18.35L20.1 7.93C20.1324 7.89645 20.1505 7.85163 20.1505 7.805C20.1505 7.75837 20.1324 7.71356 20.1 7.68L18.65 6.23C18.6147 6.19696 18.5683 6.17857 18.52 6.17857C18.4717 6.17857 18.4252 6.19696 18.39 6.23L11 13.58C10.6803 13.8839 10.2561 14.0533 9.81497 14.0533C9.37389 14.0533 8.94967 13.8839 8.62997 13.58L5.88997 10.79C5.87516 10.7694 5.85564 10.7525 5.83303 10.7409C5.81043 10.7293 5.78538 10.7233 5.75997 10.7233C5.73456 10.7233 5.70952 10.7293 5.68691 10.7409C5.6643 10.7525 5.64478 10.7694 5.62997 10.79L3.74997 12.68Z" fill="white"/>
</svg>
