<svg width="24" height="24" viewBox="0 0 24 24" fill="none" xmlns="http://www.w3.org/2000/svg">
<path d="M10.72 20.92C8.79164 20.92 6.90658 20.3482 5.3032 19.2769C3.69982 18.2055 2.45013 16.6828 1.71218 14.9012C0.974226 13.1196 0.781143 11.1592 1.15735 9.26792C1.53356 7.3766 2.46215 5.63932 3.82571 4.27576C5.18928 2.9122 6.92656 1.9836 8.81787 1.60739C10.7092 1.23119 12.6696 1.42427 14.4512 2.16222C16.2327 2.90018 17.7555 4.14986 18.8268 5.75324C19.8982 7.35662 20.47 9.24168 20.47 11.17C20.4647 13.7543 19.4358 16.2312 17.6085 18.0585C15.7811 19.8858 13.3042 20.9148 10.72 20.92ZM10.72 2.92005C9.0896 2.92598 7.49751 3.41487 6.14475 4.32498C4.792 5.2351 3.73925 6.52564 3.11942 8.03364C2.4996 9.54164 2.34049 11.1995 2.6622 12.7979C2.98391 14.3962 3.772 15.8634 4.92697 17.0142C6.08194 18.165 7.55199 18.9477 9.15151 19.2637C10.751 19.5796 12.4083 19.4144 13.914 18.7891C15.4198 18.1638 16.7065 17.1064 17.6117 15.7504C18.5169 14.3943 19 12.8005 19 11.17C18.9987 10.0845 18.7834 9.00983 18.3665 8.00753C17.9495 7.00523 17.3391 6.09495 16.5701 5.32873C15.8011 4.56252 14.8886 3.9554 13.8848 3.5421C12.881 3.1288 11.8056 2.91742 10.72 2.92005Z" fill="white"/>
<path d="M13.28 22.58C10.8174 22.5888 8.44229 21.6674 6.63 20C6.49195 19.8581 6.4147 19.668 6.4147 19.47C6.4147 19.272 6.49195 19.0819 6.63 18.94C6.69629 18.8671 6.77631 18.8079 6.86547 18.7659C6.95463 18.724 7.0512 18.7 7.14964 18.6953C7.24808 18.6907 7.34648 18.7055 7.4392 18.7389C7.53191 18.7723 7.61714 18.8236 7.69 18.89C8.57167 19.7064 9.62101 20.3203 10.7647 20.6888C11.9083 21.0574 13.1187 21.1717 14.3111 21.0237C15.5035 20.8757 16.6492 20.4691 17.6681 19.8322C18.687 19.1953 19.5545 18.3435 20.2099 17.3364C20.8652 16.3293 21.2927 15.1912 21.4624 14.0017C21.6321 12.8121 21.54 11.5999 21.1923 10.4497C20.8447 9.29952 20.25 8.23915 19.4499 7.34274C18.6498 6.44633 17.6635 5.73552 16.56 5.26C16.467 5.22205 16.3828 5.16558 16.3123 5.09402C16.2419 5.02246 16.1867 4.93731 16.1502 4.84376C16.1138 4.75021 16.0967 4.65021 16.1001 4.54985C16.1035 4.44949 16.1273 4.35087 16.17 4.26C16.2091 4.16794 16.2662 4.08463 16.3379 4.01497C16.4097 3.94531 16.4947 3.8907 16.5879 3.85436C16.681 3.81802 16.7805 3.80068 16.8805 3.80337C16.9805 3.80606 17.0789 3.82871 17.17 3.87C19.2238 4.76386 20.9072 6.33761 21.9372 8.32665C22.9672 10.3157 23.2809 12.5987 22.8256 14.7918C22.3703 16.985 21.1738 18.9545 19.4372 20.3692C17.7006 21.7839 15.5299 22.5575 13.29 22.56L13.28 22.58Z" fill="white"/>
<path d="M7.72001 16.5401C7.61209 16.5374 7.50603 16.5115 7.40906 16.4641C7.31209 16.4166 7.2265 16.3488 7.15814 16.2653C7.08979 16.1817 7.04027 16.0844 7.01298 15.98C6.98569 15.8755 6.98126 15.7664 7.00001 15.6601L7.51001 12.7101L5.36001 10.6101C5.25853 10.513 5.18679 10.3891 5.15314 10.2527C5.1195 10.1164 5.12535 9.97326 5.17001 9.84011C5.2129 9.70783 5.29173 9.59009 5.39769 9.50003C5.50364 9.40997 5.63255 9.35114 5.77001 9.33011L8.77001 8.90011L10.1 6.21011C10.1705 6.09422 10.2696 5.99843 10.3878 5.93196C10.506 5.86548 10.6394 5.83057 10.775 5.83057C10.9106 5.83057 11.044 5.86548 11.1622 5.93196C11.2804 5.99843 11.3795 6.09422 11.45 6.21011L12.73 8.90011L15.73 9.33011C15.8675 9.35114 15.9964 9.40997 16.1023 9.50003C16.2083 9.59009 16.2871 9.70783 16.33 9.84011C16.3747 9.97326 16.3805 10.1164 16.3469 10.2527C16.3132 10.3891 16.2415 10.513 16.14 10.6101L14 12.7101L14.51 15.6601C14.5336 15.7991 14.518 15.942 14.465 16.0727C14.412 16.2034 14.3237 16.3167 14.21 16.4001C14.0961 16.4813 13.9617 16.529 13.8221 16.5378C13.6825 16.5467 13.5432 16.5163 13.42 16.4501L10.76 15.0601L8.07001 16.4501C7.96273 16.509 7.84237 16.5399 7.72001 16.5401ZM10.72 13.4601C10.8424 13.4603 10.9627 13.4912 11.07 13.5501L12.73 14.4201L12.42 12.5701C12.4002 12.4513 12.4089 12.3295 12.4455 12.2148C12.482 12.1 12.5452 11.9956 12.63 11.9101L14 10.6001L12.14 10.3301C12.0196 10.3111 11.9053 10.2641 11.8063 10.1929C11.7073 10.1217 11.6264 10.0282 11.57 9.92011L10.74 8.23011L9.90001 9.92011C9.84497 10.0292 9.76442 10.1235 9.66519 10.1949C9.56596 10.2663 9.45098 10.3126 9.33001 10.3301L7.47001 10.6001L8.82001 11.9101C8.90619 11.9946 8.97038 12.099 9.00699 12.214C9.04359 12.3291 9.05149 12.4513 9.03001 12.5701L8.72001 14.4201L10.38 13.5501C10.4833 13.4904 10.6007 13.4593 10.72 13.4601Z" fill="white"/>
</svg>
