<svg width="24" height="24" viewBox="0 0 24 24" fill="none" xmlns="http://www.w3.org/2000/svg">
<path d="M14.85 5.81995H9.22999C9.13112 5.8213 9.03299 5.80282 8.94139 5.7656C8.84979 5.72839 8.76657 5.67319 8.69666 5.60328C8.62675 5.53337 8.57155 5.45015 8.53434 5.35855C8.49712 5.26695 8.47864 5.16882 8.47999 5.06995V2.37995C8.47864 2.28109 8.49712 2.18296 8.53434 2.09135C8.57155 1.99975 8.62675 1.91654 8.69666 1.84662C8.76657 1.77671 8.84979 1.72152 8.94139 1.6843C9.03299 1.64709 9.13112 1.62861 9.22999 1.62995H14.85C14.9489 1.62861 15.047 1.64709 15.1386 1.6843C15.2302 1.72152 15.3134 1.77671 15.3833 1.84662C15.4532 1.91654 15.5084 1.99975 15.5456 2.09135C15.5829 2.18296 15.6013 2.28109 15.6 2.37995V5.06995C15.6013 5.16882 15.5829 5.26695 15.5456 5.35855C15.5084 5.45015 15.4532 5.53337 15.3833 5.60328C15.3134 5.67319 15.2302 5.72839 15.1386 5.7656C15.047 5.80282 14.9489 5.8213 14.85 5.81995ZM9.99999 4.31995H14.1V3.12995H9.99999V4.31995Z" fill="white"/>
<path d="M14.85 22.37H9.22999C9.13112 22.3713 9.03299 22.3529 8.94139 22.3157C8.84979 22.2784 8.76657 22.2232 8.69666 22.1533C8.62675 22.0834 8.57155 22.0002 8.53434 21.9086C8.49712 21.817 8.47864 21.7189 8.47999 21.62V18.93C8.47864 18.8311 8.49712 18.733 8.53434 18.6414C8.57155 18.5498 8.62675 18.4666 8.69666 18.3967C8.76657 18.3268 8.84979 18.2716 8.94139 18.2344C9.03299 18.1971 9.13112 18.1787 9.22999 18.18H14.85C14.9489 18.1787 15.047 18.1971 15.1386 18.2344C15.2302 18.2716 15.3134 18.3268 15.3833 18.3967C15.4532 18.4666 15.5084 18.5498 15.5456 18.6414C15.5829 18.733 15.6013 18.8311 15.6 18.93V21.62C15.6013 21.7189 15.5829 21.817 15.5456 21.9086C15.5084 22.0002 15.4532 22.0834 15.3833 22.1533C15.3134 22.2232 15.2302 22.2784 15.1386 22.3157C15.047 22.3529 14.9489 22.3713 14.85 22.37ZM9.99999 20.87H14.1V19.68H9.99999V20.87Z" fill="white"/>
<path d="M12 19.6799C10.4811 19.6799 8.9962 19.2295 7.73323 18.3856C6.47026 17.5417 5.4859 16.3423 4.90462 14.939C4.32334 13.5356 4.17125 11.9914 4.46758 10.5017C4.76391 9.01188 5.49536 7.64344 6.56943 6.56937C7.6435 5.4953 9.01194 4.76385 10.5017 4.46752C11.9915 4.17118 13.5357 4.32327 14.939 4.90456C16.3424 5.48584 17.5418 6.4702 18.3857 7.73317C19.2296 8.99614 19.68 10.481 19.68 11.9999C19.6774 14.036 18.8674 15.9879 17.4277 17.4276C15.988 18.8673 14.0361 19.6773 12 19.6799ZM12 5.81995C10.7777 5.81995 9.58288 6.1824 8.56659 6.86147C7.55029 7.54053 6.75818 8.50572 6.29044 9.63497C5.82269 10.7642 5.7003 12.0068 5.93876 13.2056C6.17721 14.4044 6.7658 15.5056 7.63009 16.3699C8.49438 17.2342 9.59555 17.8227 10.7944 18.0612C11.9932 18.2997 13.2357 18.1773 14.365 17.7095C15.4942 17.2418 16.4594 16.4497 17.1385 15.4334C17.8176 14.4171 18.18 13.2222 18.18 11.9999C18.18 11.1884 18.0202 10.3848 17.7096 9.63497C17.399 8.88517 16.9438 8.2039 16.3699 7.63003C15.7961 7.05616 15.1148 6.60095 14.365 6.29037C13.6152 5.9798 12.8116 5.81995 12 5.81995Z" fill="white"/>
</svg>
