<svg width="24" height="24" viewBox="0 0 24 24" fill="none" xmlns="http://www.w3.org/2000/svg">
<path d="M11.61 21.74C11.5115 21.7405 11.4138 21.7212 11.3228 21.6835C11.2318 21.6457 11.1492 21.5901 11.08 21.52L3.08 13.52C2.97524 13.4151 2.90392 13.2815 2.87503 13.1361C2.84615 12.9907 2.861 12.84 2.91771 12.7031C2.97442 12.5661 3.07045 12.449 3.19366 12.3666C3.31688 12.2842 3.46176 12.2401 3.61 12.24H6.92V3C6.92259 2.80189 7.00244 2.61263 7.14253 2.47253C7.28263 2.33244 7.47189 2.25259 7.67 2.25H15.67C15.8689 2.25 16.0597 2.32902 16.2003 2.46967C16.341 2.61032 16.42 2.80109 16.42 3V12.25H19.61C19.7613 12.2448 19.9103 12.2874 20.036 12.3718C20.1617 12.4562 20.2575 12.578 20.31 12.72C20.3668 12.8556 20.382 13.0051 20.3535 13.1494C20.325 13.2937 20.2541 13.4262 20.15 13.53L12.15 21.53C12.0791 21.6 11.9946 21.6548 11.9017 21.6909C11.8089 21.727 11.7096 21.7437 11.61 21.74ZM5.44 13.74L11.61 19.91L17.79 13.73H15.68C15.4809 13.7275 15.2906 13.648 15.1489 13.5081C15.0072 13.3683 14.9252 13.179 14.92 12.98V3.76H8.42V13C8.42 13.1989 8.34098 13.3897 8.20033 13.5303C8.05967 13.671 7.86891 13.75 7.67 13.75L5.44 13.74Z" fill="white"/>
</svg>
