<svg width="24" height="24" viewBox="0 0 24 24" fill="none" xmlns="http://www.w3.org/2000/svg">
<path d="M9.67 21.32C8.94301 21.3202 8.2455 21.0326 7.73 20.52L3.31 16.1C2.79644 15.5829 2.50821 14.8837 2.50821 14.155C2.50821 13.4262 2.79644 12.727 3.31 12.21L12.56 2.99998C13.0815 2.49887 13.7767 2.21899 14.5 2.21899C15.2233 2.21899 15.9185 2.49887 16.44 2.99998L20.86 7.40998C21.3736 7.92704 21.6618 8.62622 21.6618 9.35498C21.6618 10.0837 21.3736 10.7829 20.86 11.3L11.62 20.55C11.096 21.0522 10.3958 21.3287 9.67 21.32ZM14.5 3.65998C14.336 3.65933 14.1735 3.69177 14.0223 3.75534C13.8711 3.81891 13.7343 3.91232 13.62 4.02998L4.37 13.27C4.1397 13.507 4.01087 13.8245 4.01087 14.155C4.01087 14.4855 4.1397 14.803 4.37 15.04L8.79 19.46C9.02704 19.6903 9.34451 19.8191 9.675 19.8191C10.0055 19.8191 10.323 19.6903 10.56 19.46L19.8 10.21C19.9164 10.0939 20.0088 9.95593 20.0718 9.80407C20.1348 9.65221 20.1672 9.4894 20.1672 9.32498C20.1672 9.16057 20.1348 8.99776 20.0718 8.8459C20.0088 8.69404 19.9164 8.5561 19.8 8.43998L15.38 3.99998C15.2632 3.88773 15.1253 3.79986 14.9742 3.74148C14.8231 3.68311 14.6619 3.6554 14.5 3.65998Z" fill="white"/>
<path d="M14.5 12.5699C14.314 12.5748 14.129 12.5408 13.9568 12.4702C13.7847 12.3996 13.6291 12.2939 13.5 12.1599L11.9 10.5699C11.767 10.4396 11.6613 10.284 11.5891 10.1123C11.517 9.94056 11.4798 9.75618 11.4798 9.56992C11.4798 9.38367 11.517 9.19928 11.5891 9.02757C11.6613 8.85586 11.767 8.70027 11.9 8.56992L13.59 6.87992C13.7204 6.74688 13.8759 6.64119 14.0477 6.56904C14.2194 6.49688 14.4037 6.45972 14.59 6.45972C14.7763 6.45972 14.9606 6.49688 15.1324 6.56904C15.3041 6.64119 15.4597 6.74688 15.59 6.87992L17.18 8.47992C17.3156 8.60883 17.4235 8.76395 17.4972 8.93585C17.571 9.10776 17.609 9.29286 17.609 9.47992C17.609 9.66698 17.571 9.85208 17.4972 10.024C17.4235 10.1959 17.3156 10.351 17.18 10.4799L15.49 12.1699C15.3612 12.3009 15.2069 12.404 15.0366 12.4728C14.8663 12.5416 14.6836 12.5747 14.5 12.5699ZM13.06 9.56992L14.5 10.9999L16.06 9.43992L14.6 8.04992L13.06 9.56992Z" fill="white"/>
<path d="M21.5 21.8401H2.5C2.30109 21.8401 2.11032 21.7611 1.96967 21.6204C1.82902 21.4798 1.75 21.289 1.75 21.0901C1.75 20.8912 1.82902 20.7004 1.96967 20.5598C2.11032 20.4191 2.30109 20.3401 2.5 20.3401H21.5C21.6989 20.3401 21.8897 20.4191 22.0303 20.5598C22.171 20.7004 22.25 20.8912 22.25 21.0901C22.25 21.289 22.171 21.4798 22.0303 21.6204C21.8897 21.7611 21.6989 21.8401 21.5 21.8401Z" fill="white"/>
<path d="M7.50001 14.84C7.31249 14.8285 7.13521 14.7505 7.00001 14.62C6.85956 14.4794 6.78067 14.2887 6.78067 14.09C6.78067 13.8912 6.85956 13.7006 7.00001 13.56L9.00001 11.56C9.06896 11.4892 9.15137 11.433 9.2424 11.3946C9.33342 11.3562 9.43122 11.3364 9.53001 11.3364C9.6288 11.3364 9.7266 11.3562 9.81762 11.3946C9.90865 11.433 9.99106 11.4892 10.06 11.56C10.2005 11.7006 10.2793 11.8912 10.2793 12.09C10.2793 12.2887 10.2005 12.4794 10.06 12.62L8.06001 14.62C7.90967 14.7643 7.70839 14.8434 7.50001 14.84Z" fill="white"/>
<path d="M9.50001 16.84C9.31249 16.8285 9.13521 16.7505 9.00001 16.62C8.85956 16.4794 8.78067 16.2887 8.78067 16.09C8.78067 15.8912 8.85956 15.7006 9.00001 15.56L11 13.56C11.069 13.4892 11.1514 13.433 11.2424 13.3946C11.3334 13.3562 11.4312 13.3364 11.53 13.3364C11.6288 13.3364 11.7266 13.3562 11.8176 13.3946C11.9086 13.433 11.9911 13.4892 12.06 13.56C12.2005 13.7006 12.2794 13.8912 12.2794 14.09C12.2794 14.2887 12.2005 14.4794 12.06 14.62L10.06 16.62C9.90967 16.7643 9.70839 16.8434 9.50001 16.84Z" fill="white"/>
</svg>
