<svg width="24" height="24" viewBox="0 0 24 24" fill="none" xmlns="http://www.w3.org/2000/svg">
<path d="M17.56 16.08H6.43999C5.3579 16.08 4.32014 15.6501 3.55499 14.885C2.78984 14.1198 2.35999 13.0821 2.35999 12V5.33C2.35999 4.24792 2.78984 3.21015 3.55499 2.445C4.32014 1.67986 5.3579 1.25 6.43999 1.25H17.56C18.6421 1.25 19.6798 1.67986 20.445 2.445C21.2101 3.21015 21.64 4.24792 21.64 5.33V12C21.64 13.0821 21.2101 14.1198 20.445 14.885C19.6798 15.6501 18.6421 16.08 17.56 16.08ZM6.43999 2.75C5.75654 2.75263 5.10183 3.0253 4.61856 3.50857C4.13529 3.99185 3.86262 4.64655 3.85999 5.33V12C3.86262 12.6834 4.13529 13.3382 4.61856 13.8214C5.10183 14.3047 5.75654 14.5774 6.43999 14.58H17.56C18.2434 14.5774 18.8981 14.3047 19.3814 13.8214C19.8647 13.3382 20.1374 12.6834 20.14 12V5.33C20.1374 4.64655 19.8647 3.99185 19.3814 3.50857C18.8981 3.0253 18.2434 2.75263 17.56 2.75H6.43999Z" fill="white"/>
<path d="M3.10999 22.7499C2.91188 22.7473 2.72261 22.6675 2.58252 22.5274C2.44242 22.3873 2.36258 22.198 2.35999 21.9999V8.66992C2.35999 8.47101 2.439 8.28024 2.57966 8.13959C2.72031 7.99894 2.91107 7.91992 3.10999 7.91992C3.3089 7.91992 3.49966 7.99894 3.64032 8.13959C3.78097 8.28024 3.85999 8.47101 3.85999 8.66992V21.9999C3.85999 22.1988 3.78097 22.3896 3.64032 22.5303C3.49966 22.6709 3.3089 22.7499 3.10999 22.7499Z" fill="white"/>
</svg>
