<svg width="24" height="24" viewBox="0 0 24 24" fill="none" xmlns="http://www.w3.org/2000/svg">
<path d="M12.21 22.2699H11.79C10.3445 22.2699 8.95832 21.6957 7.93625 20.6736C6.91417 19.6515 6.33998 18.2653 6.33998 16.8199V7.92986C6.33866 7.46152 6.42978 6.99751 6.60809 6.56444C6.78641 6.13136 7.04843 5.73773 7.37914 5.4061C7.70984 5.07446 8.10274 4.81134 8.53531 4.63181C8.96789 4.45227 9.43163 4.35986 9.89998 4.35986H14.1C14.5683 4.35986 15.0321 4.45227 15.4646 4.63181C15.8972 4.81134 16.2901 5.07446 16.6208 5.4061C16.9515 5.73773 17.2135 6.13136 17.3919 6.56444C17.5702 6.99751 17.6613 7.46152 17.66 7.92986V16.8199C17.66 18.2653 17.0858 19.6515 16.0637 20.6736C15.0416 21.6957 13.6554 22.2699 12.21 22.2699ZM9.89998 5.85986C9.35272 5.86251 8.82877 6.08176 8.44273 6.46968C8.05669 6.85759 7.83997 7.38259 7.83998 7.92986V16.8199C7.85295 17.8634 8.27327 18.8606 9.01124 19.5986C9.74922 20.3366 10.7464 20.7569 11.79 20.7699H12.21C13.2536 20.7569 14.2507 20.3366 14.9887 19.5986C15.7267 18.8606 16.147 17.8634 16.16 16.8199V7.92986C16.16 7.38259 15.9433 6.85759 15.5572 6.46968C15.1712 6.08176 14.6472 5.86251 14.1 5.85986H9.89998Z" fill="white"/>
<path d="M16.91 14.07H7.08997C6.89105 14.07 6.70029 13.991 6.55964 13.8503C6.41898 13.7096 6.33997 13.5189 6.33997 13.32V2.46997C6.33997 2.27106 6.41898 2.08029 6.55964 1.93964C6.70029 1.79899 6.89105 1.71997 7.08997 1.71997C7.28888 1.71997 7.47964 1.79899 7.6203 1.93964C7.76095 2.08029 7.83997 2.27106 7.83997 2.46997V12.57H16.91C17.1089 12.57 17.2996 12.649 17.4403 12.7896C17.5809 12.9303 17.66 13.1211 17.66 13.32C17.66 13.5189 17.5809 13.7096 17.4403 13.8503C17.2996 13.991 17.1089 14.07 16.91 14.07Z" fill="white"/>
<path d="M13.63 18H10.37C10.1711 18 9.98032 17.921 9.83967 17.7803C9.69901 17.6397 9.62 17.4489 9.62 17.25C9.62 17.0511 9.69901 16.8603 9.83967 16.7197C9.98032 16.579 10.1711 16.5 10.37 16.5H13.63C13.8289 16.5 14.0197 16.579 14.1603 16.7197C14.301 16.8603 14.38 17.0511 14.38 17.25C14.38 17.4489 14.301 17.6397 14.1603 17.7803C14.0197 17.921 13.8289 18 13.63 18Z" fill="white"/>
</svg>
