<svg width="24" height="24" viewBox="0 0 24 24" fill="none" xmlns="http://www.w3.org/2000/svg">
<path d="M20 22.05H3.94C3.74109 22.05 3.55032 21.971 3.40967 21.8304C3.26902 21.6897 3.19 21.499 3.19 21.3C3.19 21.1011 3.26902 20.9104 3.40967 20.7697C3.55032 20.6291 3.74109 20.55 3.94 20.55H20C20.1989 20.55 20.3897 20.6291 20.5303 20.7697C20.671 20.9104 20.75 21.1011 20.75 21.3C20.75 21.499 20.671 21.6897 20.5303 21.8304C20.3897 21.971 20.1989 22.05 20 22.05Z" fill="white"/>
<path d="M18.09 22.05C17.8911 22.05 17.7003 21.971 17.5597 21.8304C17.419 21.6897 17.34 21.4989 17.34 21.3V4.36002C17.34 4.17172 17.2652 3.99113 17.1321 3.85798C16.9989 3.72483 16.8183 3.65002 16.63 3.65002H7.31003C7.11907 3.65002 6.93594 3.72588 6.80091 3.86091C6.66588 3.99593 6.59003 4.17907 6.59003 4.37002V21.3C6.59003 21.4989 6.51101 21.6897 6.37036 21.8304C6.2297 21.971 6.03894 22.05 5.84003 22.05C5.64111 22.05 5.45035 21.971 5.3097 21.8304C5.16904 21.6897 5.09003 21.4989 5.09003 21.3V4.37002C5.09003 3.78124 5.32392 3.21658 5.74025 2.80025C6.15658 2.38392 6.72125 2.15002 7.31003 2.15002H16.63C17.2162 2.15002 17.7783 2.38286 18.1927 2.79732C18.6072 3.21177 18.84 3.7739 18.84 4.36002V21.3C18.8414 21.3989 18.8229 21.497 18.7857 21.5886C18.7485 21.6802 18.6933 21.7634 18.6234 21.8334C18.5534 21.9033 18.4702 21.9585 18.3786 21.9957C18.287 22.0329 18.1889 22.0514 18.09 22.05Z" fill="white"/>
<path d="M10.13 22.05C10.0311 22.0514 9.93302 22.0329 9.84142 21.9957C9.74981 21.9585 9.6666 21.9033 9.59668 21.8334C9.52677 21.7635 9.47158 21.6802 9.43436 21.5886C9.39715 21.497 9.37867 21.3989 9.38001 21.3V17.3C9.38001 17.1011 9.45903 16.9104 9.59968 16.7697C9.74033 16.6291 9.9311 16.55 10.13 16.55C10.3289 16.55 10.5197 16.6291 10.6603 16.7697C10.801 16.9104 10.88 17.1011 10.88 17.3V21.3C10.88 21.499 10.801 21.6897 10.6603 21.8304C10.5197 21.971 10.3289 22.05 10.13 22.05Z" fill="white"/>
<path d="M18.09 14.15H5.84003C5.64111 14.15 5.45035 14.071 5.3097 13.9304C5.16904 13.7897 5.09003 13.5989 5.09003 13.4C5.09003 13.2011 5.16904 13.0103 5.3097 12.8697C5.45035 12.729 5.64111 12.65 5.84003 12.65H18.09C18.2889 12.65 18.4797 12.729 18.6204 12.8697C18.761 13.0103 18.84 13.2011 18.84 13.4C18.84 13.5989 18.761 13.7897 18.6204 13.9304C18.4797 14.071 18.2889 14.15 18.09 14.15Z" fill="white"/>
<path d="M11.63 8.72002C11.4362 8.72018 11.2498 8.64529 11.11 8.51107C10.9702 8.37684 10.8878 8.19369 10.88 8.00002V2.90002C10.88 2.70111 10.959 2.51035 11.0997 2.36969C11.2403 2.22904 11.4311 2.15002 11.63 2.15002C11.8289 2.15002 12.0197 2.22904 12.1603 2.36969C12.301 2.51035 12.38 2.70111 12.38 2.90002V8.00002C12.3699 8.19286 12.2867 8.3746 12.1474 8.50833C12.0081 8.64206 11.8231 8.71775 11.63 8.72002Z" fill="white"/>
<path d="M13.13 10.22C12.9311 10.22 12.7403 10.141 12.5997 10.0003C12.459 9.85965 12.38 9.66888 12.38 9.46997C12.38 9.27106 12.301 9.08029 12.1603 8.93964C12.0197 8.79899 11.8289 8.71997 11.63 8.71997C11.4311 8.71997 11.2403 8.79899 11.0997 8.93964C10.959 9.08029 10.88 9.27106 10.88 9.46997C10.88 9.66888 10.801 9.85965 10.6603 10.0003C10.5197 10.141 10.3289 10.22 10.13 10.22C9.93109 10.22 9.74033 10.141 9.59967 10.0003C9.45902 9.85965 9.38 9.66888 9.38 9.46997C9.38 8.87323 9.61706 8.30094 10.039 7.87898C10.461 7.45702 11.0333 7.21997 11.63 7.21997C12.2267 7.21997 12.799 7.45702 13.221 7.87898C13.643 8.30094 13.88 8.87323 13.88 9.46997C13.8814 9.56884 13.8629 9.66697 13.8257 9.75857C13.7884 9.85017 13.7332 9.93338 13.6633 10.0033C13.5934 10.0732 13.5102 10.1284 13.4186 10.1656C13.327 10.2028 13.2289 10.2213 13.13 10.22Z" fill="white"/>
</svg>
