<svg width="24" height="24" viewBox="0 0 24 24" fill="none" xmlns="http://www.w3.org/2000/svg">
<path d="M13 20.74C12.9038 20.754 12.8061 20.754 12.71 20.74C12.5724 20.6823 12.4551 20.5849 12.3732 20.4602C12.2912 20.3355 12.2483 20.1892 12.25 20.04V16.7H2.99998C2.81186 16.6956 2.63205 16.6216 2.49535 16.4923C2.35865 16.363 2.27478 16.1875 2.25998 16V7.99996C2.2546 7.8985 2.26962 7.79699 2.30414 7.70144C2.33867 7.60589 2.39201 7.51823 2.461 7.44365C2.52999 7.36906 2.61323 7.30907 2.70581 7.26721C2.79838 7.22536 2.89841 7.20249 2.99998 7.19996H12.25V4.00996C12.2498 3.861 12.2945 3.71545 12.3784 3.59235C12.4622 3.46924 12.5813 3.3743 12.72 3.31996C12.8551 3.26033 13.0053 3.24369 13.1502 3.27232C13.2951 3.30094 13.4277 3.37343 13.53 3.47996L21.53 11.48C21.6704 11.6206 21.7493 11.8112 21.7493 12.01C21.7493 12.2087 21.6704 12.3993 21.53 12.54L13.53 20.54C13.4601 20.6079 13.377 20.6607 13.2858 20.6951C13.1946 20.7295 13.0973 20.7448 13 20.74ZM3.75998 15.2H13C13.1981 15.2025 13.3873 15.2824 13.5274 15.4225C13.6675 15.5626 13.7474 15.7518 13.75 15.95V18.18L19.93 12L13.75 5.82996V7.99996C13.7477 8.19837 13.6689 8.38823 13.53 8.52996C13.3817 8.65251 13.1919 8.71337 13 8.69996H3.75998V15.2Z" fill="white"/>
</svg>
