<svg width="24" height="24" viewBox="0 0 24 24" fill="none" xmlns="http://www.w3.org/2000/svg">
<path d="M5.34999 16.5799C5.21874 16.5805 5.08964 16.5466 4.97558 16.4817C4.86152 16.4168 4.76649 16.323 4.69999 16.2099C3.96585 14.9995 3.53634 13.6291 3.4483 12.2162C3.36027 10.8034 3.61635 9.39024 4.19457 8.0981C4.77278 6.80597 5.65587 5.67342 6.76805 4.79763C7.88023 3.92184 9.18829 3.32897 10.58 3.06989C10.6772 3.05264 10.7768 3.05474 10.8732 3.07609C10.9696 3.09743 11.0608 3.13759 11.1416 3.19426C11.2225 3.25093 11.2913 3.323 11.3442 3.40634C11.3971 3.48967 11.4331 3.58264 11.45 3.67989C11.4821 3.87586 11.4363 4.07661 11.3223 4.23921C11.2083 4.4018 11.0352 4.51332 10.84 4.54989C9.68801 4.76654 8.60586 5.25964 7.68652 5.98684C6.76719 6.71404 6.03817 7.65358 5.5621 8.72472C5.08604 9.79587 4.87717 10.9666 4.95344 12.1363C5.02972 13.306 5.38885 14.4396 5.99999 15.4399C6.06598 15.5541 6.10111 15.6835 6.10192 15.8154C6.10274 15.9473 6.06921 16.0771 6.00464 16.1922C5.94007 16.3072 5.84668 16.4034 5.73366 16.4714C5.62063 16.5394 5.49185 16.5768 5.35999 16.5799H5.34999Z" fill="black"/>
<path d="M12.18 20.43C10.7861 20.42 9.41466 20.0772 8.18001 19.43C8.01326 19.3332 7.89016 19.176 7.83628 18.9909C7.7824 18.8058 7.80187 18.607 7.89066 18.4359C7.97944 18.2647 8.13071 18.1344 8.31308 18.0718C8.49544 18.0093 8.69489 18.0194 8.87001 18.1C9.91539 18.6392 11.0763 18.916 12.2525 18.9064C13.4287 18.8968 14.5849 18.6012 15.6214 18.0451C16.6578 17.489 17.5434 16.689 18.2017 15.7142C18.8601 14.7395 19.2713 13.6192 19.4 12.45C19.4044 12.348 19.4296 12.2479 19.474 12.156C19.5184 12.064 19.5811 11.9821 19.6583 11.9152C19.7355 11.8484 19.8255 11.798 19.9229 11.7672C20.0202 11.7363 20.1228 11.7257 20.2244 11.7359C20.326 11.7462 20.4245 11.777 20.5137 11.8267C20.603 11.8763 20.6812 11.9436 20.7435 12.0245C20.8058 12.1054 20.8509 12.1982 20.8761 12.2971C20.9013 12.3961 20.9061 12.4991 20.89 12.6C20.6605 14.7499 19.6439 16.7391 18.0359 18.1846C16.428 19.6301 14.3422 20.4299 12.18 20.43Z" fill="black"/>
<path d="M4.43 20.94C4.19363 20.939 3.96125 20.879 3.75395 20.7654C3.54664 20.6519 3.37096 20.4884 3.24284 20.2897C3.11471 20.0911 3.0382 19.8636 3.02025 19.6279C3.00229 19.3922 3.04345 19.1558 3.14 18.94L4.66 15.52C4.76106 15.3783 4.90824 15.2762 5.07632 15.2312C5.2444 15.1861 5.42293 15.2009 5.58131 15.273C5.73969 15.3451 5.86807 15.47 5.94446 15.6264C6.02084 15.7827 6.04048 15.9608 6 16.13L4.58 19.38L8.26 18.07C8.44831 18.0037 8.65524 18.0149 8.83527 18.1012C9.01531 18.1875 9.1537 18.3417 9.22 18.53C9.28631 18.7183 9.27509 18.9253 9.18882 19.1053C9.10256 19.2853 8.94831 19.4237 8.76 19.49L4.91 20.86C4.75498 20.9109 4.59313 20.9378 4.43 20.94Z" fill="black"/>
<path d="M18.59 9.53001C18.4914 9.53105 18.3936 9.51209 18.3025 9.47428C18.2114 9.43646 18.1289 9.38059 18.06 9.31001L14 5.22001C13.9292 5.15107 13.873 5.06865 13.8346 4.97763C13.7962 4.8866 13.7764 4.78881 13.7764 4.69001C13.7764 4.59122 13.7962 4.49343 13.8346 4.4024C13.873 4.31138 13.9292 4.22896 14 4.16001C14.1406 4.01956 14.3312 3.94067 14.53 3.94067C14.7287 3.94067 14.9194 4.01956 15.06 4.16001L19.15 8.25001C19.2904 8.39064 19.3693 8.58126 19.3693 8.78001C19.3693 8.97876 19.2904 9.16939 19.15 9.31001C19.0773 9.38386 18.9898 9.4416 18.8934 9.4795C18.7969 9.5174 18.6935 9.53461 18.59 9.53001Z" fill="black"/>
<path d="M14.5 9.53009C14.3111 9.52423 14.1319 9.44537 14 9.3101C13.9292 9.24115 13.873 9.15873 13.8346 9.06771C13.7962 8.97668 13.7764 8.87889 13.7764 8.78009C13.7764 8.6813 13.7962 8.58351 13.8346 8.49248C13.873 8.40146 13.9292 8.31904 14 8.25009L18.09 4.16009C18.1587 4.08641 18.2415 4.02731 18.3335 3.98631C18.4255 3.94532 18.5248 3.92328 18.6255 3.9215C18.7262 3.91973 18.8262 3.93825 18.9196 3.97597C19.013 4.01369 19.0978 4.06984 19.169 4.14106C19.2403 4.21228 19.2964 4.29711 19.3341 4.3905C19.3718 4.48389 19.3904 4.58391 19.3886 4.68462C19.3868 4.78532 19.3648 4.88463 19.3238 4.97663C19.2828 5.06863 19.2237 5.15143 19.15 5.22009L15 9.3101C14.8675 9.44451 14.6886 9.52321 14.5 9.53009Z" fill="black"/>
<path d="M24 0H0V24H24V0Z" fill="white"/>
<path d="M11.75 19.5C10.2172 19.5 8.71882 19.0455 7.44433 18.1939C6.16985 17.3423 5.17652 16.1319 4.58994 14.7158C4.00336 13.2997 3.84988 11.7414 4.14892 10.2381C4.44795 8.7347 5.18607 7.35378 6.26993 6.26993C7.35378 5.18607 8.7347 4.44795 10.2381 4.14892C11.7414 3.84988 13.2997 4.00336 14.7158 4.58994C16.1319 5.17652 17.3423 6.16985 18.1939 7.44433C19.0455 8.71882 19.5 10.2172 19.5 11.75C19.4974 13.8046 18.68 15.7743 17.2272 17.2272C15.7743 18.68 13.8046 19.4974 11.75 19.5ZM11.75 5.5C10.5139 5.5 9.3055 5.86656 8.27769 6.55332C7.24988 7.24008 6.4488 8.21619 5.97576 9.35823C5.50271 10.5003 5.37894 11.7569 5.6201 12.9693C5.86125 14.1817 6.45651 15.2953 7.33059 16.1694C8.20466 17.0435 9.31831 17.6388 10.5307 17.8799C11.7431 18.1211 12.9997 17.9973 14.1418 17.5243C15.2838 17.0512 16.2599 16.2501 16.9467 15.2223C17.6334 14.1945 18 12.9861 18 11.75C18 10.0924 17.3415 8.50269 16.1694 7.33059C14.9973 6.15848 13.4076 5.5 11.75 5.5Z" fill="black"/>
<path d="M11.75 22.5C11.5519 22.4974 11.3626 22.4176 11.2225 22.2775C11.0824 22.1374 11.0026 21.9481 11 21.75V1.75C11 1.55109 11.079 1.36032 11.2197 1.21967C11.3603 1.07902 11.5511 1 11.75 1C11.9489 1 12.1397 1.07902 12.2803 1.21967C12.421 1.36032 12.5 1.55109 12.5 1.75V21.75C12.4974 21.9481 12.4176 22.1374 12.2775 22.2775C12.1374 22.4176 11.9481 22.4974 11.75 22.5Z" fill="black"/>
<path d="M21.75 12.5H1.75C1.55109 12.5 1.36032 12.421 1.21967 12.2803C1.07902 12.1397 1 11.9489 1 11.75C1 11.5511 1.07902 11.3603 1.21967 11.2197C1.36032 11.079 1.55109 11 1.75 11H21.75C21.9489 11 22.1397 11.079 22.2803 11.2197C22.421 11.3603 22.5 11.5511 22.5 11.75C22.5 11.9489 22.421 12.1397 22.2803 12.2803C22.1397 12.421 21.9489 12.5 21.75 12.5Z" fill="black"/>
</svg>
