<svg width="24" height="24" viewBox="0 0 24 24" fill="none" xmlns="http://www.w3.org/2000/svg">
<path d="M10.33 16.0801C10.2314 16.0806 10.1338 16.0613 10.0428 16.0236C9.95177 15.9858 9.86922 15.9302 9.79997 15.8601L6.67997 12.7501C6.53952 12.6095 6.46063 12.4188 6.46063 12.2201C6.46063 12.0213 6.53952 11.8307 6.67997 11.6901C6.74892 11.6193 6.83133 11.5631 6.92236 11.5247C7.01339 11.4863 7.11118 11.4665 7.20997 11.4665C7.30877 11.4665 7.40656 11.4863 7.49758 11.5247C7.58861 11.5631 7.67103 11.6193 7.73997 11.6901L10.33 14.2701L16.42 8.18009C16.5635 8.04139 16.7554 7.96387 16.955 7.96387C17.1546 7.96387 17.3464 8.04139 17.49 8.18009C17.6304 8.32071 17.7093 8.51133 17.7093 8.71008C17.7093 8.90884 17.6304 9.09946 17.49 9.24008L10.86 15.8601C10.7907 15.9302 10.7082 15.9858 10.6172 16.0236C10.5262 16.0613 10.4285 16.0806 10.33 16.0801Z" fill="white"/>
<path d="M17.68 21.81H6.35998C5.26464 21.81 4.21415 21.3749 3.43963 20.6003C2.6651 19.8258 2.22998 18.7753 2.22998 17.68V6.35998C2.22998 5.26464 2.6651 4.21415 3.43963 3.43963C4.21415 2.6651 5.26464 2.22998 6.35998 2.22998H17.68C18.7753 2.22998 19.8258 2.6651 20.6003 3.43963C21.3749 4.21415 21.81 5.26464 21.81 6.35998V17.68C21.81 18.7753 21.3749 19.8258 20.6003 20.6003C19.8258 21.3749 18.7753 21.81 17.68 21.81ZM6.35998 3.72998C5.66246 3.72998 4.99351 4.00707 4.50029 4.50029C4.00707 4.99351 3.72998 5.66246 3.72998 6.35998V17.68C3.72998 18.3775 4.00707 19.0464 4.50029 19.5397C4.99351 20.0329 5.66246 20.31 6.35998 20.31H17.68C18.3775 20.31 19.0464 20.0329 19.5397 19.5397C20.0329 19.0464 20.31 18.3775 20.31 17.68V6.35998C20.31 5.66246 20.0329 4.99351 19.5397 4.50029C19.0464 4.00707 18.3775 3.72998 17.68 3.72998H6.35998Z" fill="white"/>
</svg>
