<svg width="24" height="24" viewBox="0 0 24 24" fill="none" xmlns="http://www.w3.org/2000/svg">
<path d="M9.18003 12.75H3.53003C3.33192 12.7474 3.14266 12.6676 3.00256 12.5275C2.86247 12.3874 2.78262 12.1981 2.78003 12V6.52002C2.78003 6.32111 2.85905 6.13034 2.9997 5.98969C3.14035 5.84904 3.33112 5.77002 3.53003 5.77002H9.18003C9.37894 5.77002 9.56971 5.84904 9.71036 5.98969C9.85101 6.13034 9.93003 6.32111 9.93003 6.52002V12C9.92744 12.1981 9.84759 12.3874 9.7075 12.5275C9.5674 12.6676 9.37814 12.7474 9.18003 12.75ZM4.28003 11.25H8.43003V7.25002H4.28003V11.25Z" fill="white"/>
<path d="M14.82 12.75H9.18C8.98109 12.75 8.79032 12.6709 8.64967 12.5303C8.50902 12.3896 8.43 12.1989 8.43 12V6.51997C8.42865 6.4211 8.44714 6.32297 8.48435 6.23137C8.52156 6.13977 8.57676 6.05655 8.64667 5.98664C8.71659 5.91672 8.7998 5.86153 8.8914 5.82432C8.983 5.7871 9.08114 5.76862 9.18 5.76997H14.82C14.9189 5.76862 15.017 5.7871 15.1086 5.82432C15.2002 5.86153 15.2834 5.91672 15.3533 5.98664C15.4232 6.05655 15.4784 6.13977 15.5156 6.23137C15.5529 6.32297 15.5713 6.4211 15.57 6.51997V12C15.57 12.1989 15.491 12.3896 15.3503 12.5303C15.2097 12.6709 15.0189 12.75 14.82 12.75ZM9.93 11.25H14.07V7.24997H9.93V11.25Z" fill="white"/>
<path d="M20.47 12.75H14.82C14.6219 12.7474 14.4326 12.6676 14.2925 12.5275C14.1524 12.3874 14.0726 12.1981 14.07 12V6.52002C14.07 6.32111 14.149 6.13034 14.2897 5.98969C14.4303 5.84904 14.6211 5.77002 14.82 5.77002H20.47C20.6689 5.77002 20.8597 5.84904 21.0003 5.98969C21.141 6.13034 21.22 6.32111 21.22 6.52002V12C21.2174 12.1981 21.1376 12.3874 20.9975 12.5275C20.8574 12.6676 20.6681 12.7474 20.47 12.75ZM15.57 11.25H19.72V7.25002H15.57V11.25Z" fill="white"/>
<path d="M14.82 18.23H9.18C9.08114 18.2313 8.983 18.2129 8.8914 18.1756C8.7998 18.1384 8.71659 18.0832 8.64667 18.0133C8.57676 17.9434 8.52156 17.8602 8.48435 17.7686C8.44714 17.677 8.42865 17.5789 8.43 17.48V12C8.43 11.8011 8.50902 11.6103 8.64967 11.4697C8.79032 11.329 8.98109 11.25 9.18 11.25H14.82C15.0189 11.25 15.2097 11.329 15.3503 11.4697C15.491 11.6103 15.57 11.8011 15.57 12V17.48C15.5713 17.5789 15.5529 17.677 15.5156 17.7686C15.4784 17.8602 15.4232 17.9434 15.3533 18.0133C15.2834 18.0832 15.2002 18.1384 15.1086 18.1756C15.017 18.2129 14.9189 18.2313 14.82 18.23ZM9.93 16.73H14.07V12.73H9.93V16.73Z" fill="white"/>
</svg>
