<svg width="24" height="24" viewBox="0 0 24 24" fill="none" xmlns="http://www.w3.org/2000/svg">
<path d="M17.66 21.81H6.34002C5.24468 21.81 4.1942 21.3749 3.41967 20.6003C2.64515 19.8258 2.21002 18.7753 2.21002 17.68V6.35998C2.21002 5.26464 2.64515 4.21415 3.41967 3.43963C4.1942 2.6651 5.24468 2.22998 6.34002 2.22998H17.66C18.7554 2.22998 19.8058 2.6651 20.5804 3.43963C21.3549 4.21415 21.79 5.26464 21.79 6.35998V17.68C21.79 18.7753 21.3549 19.8258 20.5804 20.6003C19.8058 21.3749 18.7554 21.81 17.66 21.81ZM6.34002 3.72998C5.6425 3.72998 4.97355 4.00707 4.48033 4.50029C3.98711 4.99351 3.71002 5.66246 3.71002 6.35998V17.68C3.71002 18.3775 3.98711 19.0464 4.48033 19.5397C4.97355 20.0329 5.6425 20.31 6.34002 20.31H17.66C18.3575 20.31 19.0265 20.0329 19.5197 19.5397C20.0129 19.0464 20.29 18.3775 20.29 17.68V6.35998C20.29 5.66246 20.0129 4.99351 19.5197 4.50029C19.0265 4.00707 18.3575 3.72998 17.66 3.72998H6.34002Z" fill="white"/>
<path d="M15.76 16.6399C15.6614 16.6409 15.5636 16.622 15.4725 16.5842C15.3814 16.5464 15.2989 16.4905 15.23 16.4199L7.58002 8.7699C7.50633 8.70124 7.44723 8.61844 7.40624 8.52644C7.36524 8.43444 7.3432 8.33513 7.34143 8.23442C7.33965 8.13372 7.35817 8.03369 7.39589 7.9403C7.43362 7.84691 7.48976 7.76208 7.56098 7.69086C7.6322 7.61964 7.71703 7.5635 7.81042 7.52578C7.90381 7.48806 8.00384 7.46953 8.10454 7.47131C8.20524 7.47308 8.30456 7.49513 8.39655 7.53612C8.48855 7.57711 8.57136 7.63621 8.64002 7.7099L16.29 15.3599C16.4305 15.5005 16.5094 15.6911 16.5094 15.8899C16.5094 16.0887 16.4305 16.2793 16.29 16.4199C16.2208 16.49 16.1382 16.5456 16.0472 16.5834C15.9562 16.6211 15.8586 16.6404 15.76 16.6399Z" fill="white"/>
<path d="M8.19003 16.56C8.09124 16.5622 7.99308 16.5438 7.90182 16.5059C7.81055 16.468 7.7282 16.4115 7.66003 16.34C7.58927 16.271 7.53304 16.1886 7.49464 16.0976C7.45624 16.0066 7.43646 15.9088 7.43646 15.81C7.43646 15.7112 7.45624 15.6134 7.49464 15.5224C7.53304 15.4313 7.58927 15.3489 7.66003 15.28L15.31 7.62998C15.4507 7.48953 15.6413 7.41064 15.84 7.41064C16.0388 7.41064 16.2294 7.48953 16.37 7.62998C16.5087 7.77355 16.5863 7.96537 16.5863 8.16498C16.5863 8.3646 16.5087 8.55642 16.37 8.69998L8.72003 16.34C8.65079 16.4101 8.56824 16.4657 8.47723 16.5035C8.38621 16.5412 8.28857 16.5604 8.19003 16.56Z" fill="white"/>
</svg>
