<svg width="24" height="24" viewBox="0 0 24 24" fill="none" xmlns="http://www.w3.org/2000/svg">
<path d="M13.49 15.94H4C3.33685 15.9347 2.70251 15.6683 2.23452 15.1984C1.76653 14.7285 1.50261 14.0931 1.5 13.43V6.10998C1.49999 5.44601 1.76307 4.80909 2.23162 4.33866C2.70018 3.86823 3.33604 3.60262 4 3.59998H16C16.664 3.60262 17.2998 3.86823 17.7684 4.33866C18.2369 4.80909 18.5 5.44601 18.5 6.10998V7.24998C18.5 7.44889 18.421 7.63965 18.2803 7.78031C18.1397 7.92096 17.9489 7.99998 17.75 7.99998C17.5511 7.99998 17.3603 7.92096 17.2197 7.78031C17.079 7.63965 17 7.44889 17 7.24998V6.10998C17 5.84476 16.8946 5.59041 16.7071 5.40287C16.5196 5.21533 16.2652 5.10998 16 5.10998H4C3.73478 5.10998 3.48043 5.21533 3.29289 5.40287C3.10536 5.59041 3 5.84476 3 6.10998V13.43C3 13.6952 3.10536 13.9495 3.29289 14.1371C3.48043 14.3246 3.73478 14.43 4 14.43H13.47C13.6689 14.43 13.8597 14.509 14.0003 14.6496C14.141 14.7903 14.22 14.9811 14.22 15.18C14.22 15.3789 14.141 15.5697 14.0003 15.7103C13.8597 15.851 13.6689 15.93 13.47 15.93L13.49 15.94Z" fill="white"/>
<path d="M10 18.9999C9.80109 18.9999 9.61032 18.9209 9.46967 18.7803C9.32902 18.6396 9.25 18.4489 9.25 18.2499V15.1899C9.25 14.991 9.32902 14.8003 9.46967 14.6596C9.61032 14.519 9.80109 14.4399 10 14.4399C10.1989 14.4399 10.3897 14.519 10.5303 14.6596C10.671 14.8003 10.75 14.991 10.75 15.1899V18.2799C10.7448 18.4745 10.6631 18.6591 10.5227 18.7938C10.3824 18.9286 10.1946 19.0026 10 18.9999Z" fill="white"/>
<path d="M13.49 19H5.34998C5.15106 19 4.9603 18.921 4.81965 18.7803C4.67899 18.6397 4.59998 18.4489 4.59998 18.25C4.59998 18.0511 4.67899 17.8603 4.81965 17.7197C4.9603 17.579 5.15106 17.5 5.34998 17.5H13.49C13.6889 17.5 13.8797 17.579 14.0203 17.7197C14.161 17.8603 14.24 18.0511 14.24 18.25C14.24 18.4489 14.161 18.6397 14.0203 18.7803C13.8797 18.921 13.6889 19 13.49 19Z" fill="white"/>
<path d="M19.53 21.75H15.71C14.9143 21.75 14.1512 21.4339 13.5886 20.8713C13.026 20.3087 12.71 19.5456 12.71 18.75V9.45996C12.71 8.66431 13.026 7.90125 13.5886 7.33864C14.1512 6.77603 14.9143 6.45996 15.71 6.45996H19.53C20.3256 6.45996 21.0887 6.77603 21.6513 7.33864C22.2139 7.90125 22.53 8.66431 22.53 9.45996V18.79C22.5194 19.5787 22.1987 20.3315 21.6373 20.8855C21.0758 21.4395 20.3187 21.75 19.53 21.75ZM15.71 7.99996C15.3201 7.99996 14.9462 8.15484 14.6705 8.43051C14.3948 8.70619 14.24 9.08009 14.24 9.46996V18.8C14.2426 19.1881 14.3986 19.5594 14.674 19.8329C14.9494 20.1065 15.3218 20.26 15.71 20.26H19.53C19.9198 20.26 20.2937 20.1051 20.5694 19.8294C20.8451 19.5537 21 19.1798 21 18.79V9.45996C20.9973 9.07183 20.8413 8.70049 20.5659 8.42697C20.2905 8.15345 19.9181 7.99995 19.53 7.99996H15.71Z" fill="white"/>
<path d="M17.62 19.68C17.5209 19.6838 17.4221 19.6667 17.33 19.63C17.2403 19.5884 17.159 19.5308 17.09 19.46C16.9493 19.3195 16.8702 19.1288 16.87 18.93C16.8727 18.8115 16.9034 18.6952 16.9597 18.5909C17.016 18.4866 17.0963 18.397 17.1939 18.3297C17.2914 18.2624 17.4036 18.2191 17.5211 18.2035C17.6387 18.1879 17.7582 18.2004 17.87 18.24C17.9573 18.2814 18.0381 18.3353 18.11 18.4C18.2489 18.5417 18.3277 18.7316 18.33 18.93C18.3298 19.1288 18.2507 19.3195 18.11 19.46C18.041 19.5308 17.9597 19.5884 17.87 19.63C17.7904 19.6616 17.7057 19.6785 17.62 19.68Z" fill="white"/>
</svg>
