<svg width="24" height="24" viewBox="0 0 24 24" fill="none" xmlns="http://www.w3.org/2000/svg">
<path d="M12 21.66C2.45003 21.66 2.34003 12.14 2.34003 12.05V3.05005C2.34262 2.85194 2.42247 2.66268 2.56256 2.52258C2.70266 2.38249 2.89192 2.30264 3.09003 2.30005H20.91C21.1081 2.30264 21.2974 2.38249 21.4375 2.52258C21.5776 2.66268 21.6574 2.85194 21.66 3.05005V12.05C21.66 12.14 21.55 21.66 12 21.66ZM3.84003 3.84005V12.05C3.84003 12.38 3.97003 20.16 12 20.16C20.03 20.16 20.16 12.38 20.16 12.05V3.84005H3.84003Z" fill="white"/>
</svg>
