<svg width="24" height="24" viewBox="0 0 24 24" fill="none" xmlns="http://www.w3.org/2000/svg">
<path d="M17.93 18.1199C16.8703 18.1179 15.835 17.8019 14.9549 17.2117C14.0748 16.6216 13.3893 15.7837 12.9852 14.8042C12.581 13.8246 12.4763 12.7472 12.6842 11.7081C12.8922 10.669 13.4035 9.71489 14.1535 8.96628C14.9035 8.21767 15.8585 7.70817 16.898 7.50217C17.9375 7.29616 19.0147 7.40289 19.9935 7.80886C20.9723 8.21484 21.8089 8.90185 22.3974 9.78308C22.9859 10.6643 23.3 11.7002 23.3 12.7599C23.2974 14.1824 22.7304 15.5457 21.7237 16.5506C20.7169 17.5555 19.3525 18.1199 17.93 18.1199ZM17.93 8.89989C17.167 8.90187 16.4217 9.12994 15.7882 9.55528C15.1548 9.98062 14.6616 10.5842 14.371 11.2897C14.0804 11.9951 14.0053 12.7709 14.1554 13.5191C14.3055 14.2672 14.6739 14.954 15.2141 15.4928C15.7543 16.0317 16.4421 16.3983 17.1906 16.5464C17.9391 16.6946 18.7147 16.6175 19.4195 16.3251C20.1242 16.0327 20.7265 15.5379 21.1502 14.9034C21.5739 14.2688 21.8 13.5229 21.8 12.7599C21.8 12.2522 21.6998 11.7494 21.5052 11.2804C21.3106 10.8115 21.0254 10.3855 20.6659 10.0269C20.3064 9.66836 19.8797 9.38424 19.4102 9.19084C18.9408 8.99745 18.4378 8.89858 17.93 8.89989Z" fill="white"/>
<path d="M17 15.83C16.879 15.8286 16.7596 15.8013 16.65 15.75C16.5297 15.6841 16.4292 15.5873 16.3588 15.4695C16.2885 15.3517 16.2509 15.2172 16.25 15.08V10.67C16.2509 10.5329 16.2885 10.3984 16.3588 10.2806C16.4292 10.1628 16.5297 10.066 16.65 10C16.7724 9.93695 16.9095 9.90828 17.0469 9.91708C17.1843 9.92589 17.3167 9.97184 17.43 10.05L20.59 12.26C20.689 12.3292 20.7699 12.4212 20.8257 12.5282C20.8816 12.6353 20.9107 12.7543 20.9107 12.875C20.9107 12.9958 20.8816 13.1148 20.8257 13.2218C20.7699 13.3289 20.689 13.4209 20.59 13.49L17.38 15.7C17.2675 15.7771 17.1361 15.8221 17 15.83ZM17.75 12.11V13.64L18.85 12.87L17.75 12.11Z" fill="white"/>
<path d="M14.94 22.73H8.94002C7.94891 22.73 6.9981 22.3377 6.29541 21.6387C5.59272 20.9398 5.1953 19.9911 5.19002 19V4.99998C5.1887 4.50621 5.28465 4.01701 5.4724 3.56033C5.66014 3.10364 5.936 2.6884 6.28422 2.33833C6.63244 1.98825 7.0462 1.71019 7.50188 1.52002C7.95757 1.32985 8.44624 1.23129 8.94002 1.22998H14.94C15.4338 1.23129 15.9225 1.32985 16.3781 1.52002C16.8338 1.71019 17.2476 1.98825 17.5958 2.33833C17.944 2.6884 18.2199 3.10364 18.4076 3.56033C18.5954 4.01701 18.6913 4.50621 18.69 4.99998V8.13998C18.69 8.33889 18.611 8.52966 18.4703 8.67031C18.3297 8.81096 18.1389 8.88998 17.94 8.88998C17.7411 8.88998 17.5503 8.81096 17.4097 8.67031C17.269 8.52966 17.19 8.33889 17.19 8.13998V4.99998C17.19 4.40324 16.953 3.83095 16.531 3.40899C16.109 2.98703 15.5368 2.74998 14.94 2.74998H8.94002C8.34328 2.74998 7.77098 2.98703 7.34903 3.40899C6.92707 3.83095 6.69002 4.40324 6.69002 4.99998V19C6.69002 19.5967 6.92707 20.169 7.34903 20.591C7.77098 21.0129 8.34328 21.25 8.94002 21.25H14.94C15.5368 21.25 16.109 21.0129 16.531 20.591C16.953 20.169 17.19 19.5967 17.19 19V17.37C17.19 17.1711 17.269 16.9803 17.4097 16.8397C17.5503 16.699 17.7411 16.62 17.94 16.62C18.1389 16.62 18.3297 16.699 18.4703 16.8397C18.611 16.9803 18.69 17.1711 18.69 17.37V19C18.6821 19.9903 18.2839 20.9374 17.5817 21.6358C16.8796 22.3342 15.9303 22.7274 14.94 22.73Z" fill="white"/>
<path d="M11.94 19.7299C11.8402 19.7302 11.7415 19.7098 11.65 19.6699C11.5608 19.632 11.4794 19.5777 11.41 19.5099C11.3392 19.441 11.2815 19.3596 11.24 19.2699C11.1737 19.0823 11.1737 18.8776 11.24 18.6899C11.2815 18.6002 11.3392 18.5189 11.41 18.4499C11.4766 18.3788 11.5587 18.324 11.65 18.2899C11.7399 18.2506 11.8369 18.2302 11.935 18.2302C12.0331 18.2302 12.1301 18.2506 12.22 18.2899C12.3154 18.3215 12.4014 18.3765 12.47 18.4499C12.5378 18.5193 12.5921 18.6007 12.63 18.6899C12.6696 18.7815 12.6901 18.8802 12.6901 18.9799C12.6901 19.0797 12.6696 19.1784 12.63 19.2699C12.5921 19.3592 12.5378 19.4406 12.47 19.5099C12.3283 19.6488 12.1384 19.7276 11.94 19.7299Z" fill="white"/>
</svg>
