<svg width="24" height="24" viewBox="0 0 24 24" fill="none" xmlns="http://www.w3.org/2000/svg">
<path d="M21.54 19.2499H21.31C21.2159 19.2193 21.1288 19.1705 21.0537 19.1061C20.9785 19.0417 20.9169 18.9631 20.8723 18.8748C20.8277 18.7865 20.8009 18.6902 20.7937 18.5916C20.7864 18.4929 20.7988 18.3938 20.83 18.2999C21.2622 16.9151 21.3626 15.4481 21.1231 14.0174C20.8837 12.5867 20.3111 11.2323 19.4516 10.0637C18.5921 8.8951 17.4698 7.94503 16.1754 7.29022C14.8809 6.63542 13.4506 6.29424 12 6.29424C10.5494 6.29424 9.11906 6.63542 7.82462 7.29022C6.53019 7.94503 5.4079 8.8951 4.54841 10.0637C3.68892 11.2323 3.11633 12.5867 2.87688 14.0174C2.63743 15.4481 2.73784 16.9151 3.17 18.2999C3.21197 18.3959 3.23338 18.4995 3.23284 18.6043C3.2323 18.709 3.20983 18.8125 3.16687 18.908C3.12391 19.0036 3.06142 19.089 2.98341 19.159C2.90541 19.2289 2.81363 19.2817 2.71398 19.3139C2.61434 19.3462 2.50903 19.3573 2.40485 19.3464C2.30068 19.3355 2.19994 19.3029 2.10912 19.2507C2.01831 19.1985 1.93943 19.1279 1.87758 19.0433C1.81573 18.9588 1.77226 18.8622 1.75 18.7599C1.28255 17.2813 1.14055 15.719 1.33375 14.1803C1.52694 12.6416 2.05074 11.163 2.86922 9.84579C3.68769 8.52862 4.78146 7.40411 6.07545 6.54946C7.36945 5.6948 8.83303 5.13023 10.3658 4.89448C11.8985 4.65873 13.4641 4.75739 14.9551 5.18368C16.4461 5.60998 17.8273 6.35382 19.0037 7.36415C20.1802 8.37449 21.1241 9.6274 21.7708 11.0369C22.4174 12.4464 22.7515 13.9791 22.75 15.5299C22.75 16.6258 22.5814 17.7153 22.25 18.7599C22.1977 18.9055 22.1011 19.0312 21.9738 19.119C21.8464 19.2069 21.6947 19.2527 21.54 19.2499Z" fill="white"/>
<path d="M21.54 19.25H2.46002C2.26111 19.25 2.07034 19.171 1.92969 19.0303C1.78904 18.8897 1.71002 18.6989 1.71002 18.5C1.71002 18.3011 1.78904 18.1103 1.92969 17.9697C2.07034 17.829 2.26111 17.75 2.46002 17.75H21.54C21.7389 17.75 21.9297 17.829 22.0704 17.9697C22.211 18.1103 22.29 18.3011 22.29 18.5C22.29 18.6989 22.211 18.8897 22.0704 19.0303C21.9297 19.171 21.7389 19.25 21.54 19.25Z" fill="white"/>
<path d="M12 16.2499C11.9015 16.2504 11.8038 16.2311 11.7128 16.1934C11.6218 16.1556 11.5393 16.1 11.47 16.0299C11.3296 15.8893 11.2507 15.6986 11.2507 15.4999C11.2507 15.3011 11.3296 15.1105 11.47 14.9699L15.47 10.9699C15.613 10.866 15.788 10.816 15.9643 10.8286C16.1406 10.8412 16.3068 10.9156 16.4335 11.0388C16.5602 11.1619 16.6394 11.3259 16.6571 11.5017C16.6747 11.6776 16.6297 11.854 16.53 11.9999L12.53 15.9999C12.4633 16.0754 12.3819 16.1366 12.2908 16.1796C12.1997 16.2226 12.1007 16.2465 12 16.2499Z" fill="white"/>
</svg>
