<svg width="24" height="24" viewBox="0 0 24 24" fill="none" xmlns="http://www.w3.org/2000/svg">
<path d="M12 16.9999C6.08 16.9999 1.44 14.0899 1.44 10.3499C1.44 6.60994 6.08 3.68994 12 3.68994C17.92 3.68994 22.55 6.60994 22.55 10.3499C22.55 14.0899 17.92 16.9999 12 16.9999ZM12 5.18994C7.09 5.18994 2.94 7.54994 2.94 10.3499C2.94 13.1499 7.09 15.5199 12 15.5199C16.91 15.5199 21.05 13.1499 21.05 10.3499C21.05 7.54994 16.91 5.18994 12 5.18994Z" fill="white"/>
<path d="M12 20.3199C6.09001 20.3199 1.45001 17.3899 1.45001 13.6499C1.45001 13.451 1.52903 13.2602 1.66968 13.1196C1.81033 12.9789 2.0011 12.8999 2.20001 12.8999C2.39892 12.8999 2.58969 12.9789 2.73034 13.1196C2.87099 13.2602 2.95001 13.451 2.95001 13.6499C2.95001 16.4499 7.10001 18.8199 12 18.8199C16.9 18.8199 20.94 16.5499 21.07 13.7699V13.6499C21.07 13.451 21.149 13.2602 21.2897 13.1196C21.4303 12.9789 21.6211 12.8999 21.82 12.8999C22.0189 12.8999 22.2097 12.9789 22.3503 13.1196C22.491 13.2602 22.57 13.451 22.57 13.6499V13.8099C22.39 17.4699 17.76 20.3199 12 20.3199Z" fill="white"/>
<path d="M12 14.29C7.91001 14.29 4.70001 12.51 4.70001 10.29C4.70001 8.07004 7.91001 6.29004 12 6.29004C16.09 6.29004 19.29 8.07004 19.29 10.29C19.29 12.51 16.09 14.29 12 14.29ZM12 7.71004C8.58001 7.71004 6.20001 9.05004 6.20001 10.25C6.20001 11.45 8.58001 12.79 12 12.79C15.42 12.79 17.79 11.45 17.79 10.25C17.79 9.05004 15.32 7.71004 12 7.71004Z" fill="white"/>
<path d="M2.19 14.3999C1.9919 14.3973 1.80263 14.3174 1.66254 14.1773C1.52244 14.0372 1.44259 13.848 1.44 13.6499V10.3499C1.44 10.1509 1.51902 9.96018 1.65967 9.81952C1.80032 9.67887 1.99109 9.59985 2.19 9.59985C2.38891 9.59985 2.57968 9.67887 2.72033 9.81952C2.86098 9.96018 2.94 10.1509 2.94 10.3499V13.6499C2.94 13.8488 2.86098 14.0395 2.72033 14.1802C2.57968 14.3208 2.38891 14.3999 2.19 14.3999Z" fill="white"/>
<path d="M21.8 14.5599C21.6019 14.5573 21.4126 14.4774 21.2725 14.3373C21.1324 14.1972 21.0526 14.008 21.05 13.8099V10.3499C21.05 10.1509 21.129 9.96018 21.2697 9.81952C21.4103 9.67887 21.6011 9.59985 21.8 9.59985C21.9989 9.59985 22.1897 9.67887 22.3303 9.81952C22.471 9.96018 22.55 10.1509 22.55 10.3499V13.8099C22.55 13.9083 22.5306 14.0059 22.4929 14.0969C22.4552 14.1879 22.4 14.2705 22.3303 14.3402C22.2607 14.4098 22.178 14.4651 22.087 14.5028C21.996 14.5405 21.8985 14.5599 21.8 14.5599Z" fill="white"/>
</svg>
