<svg width="24" height="24" viewBox="0 0 24 24" fill="none" xmlns="http://www.w3.org/2000/svg">
<path d="M12 21.67C11.8785 21.6733 11.758 21.6458 11.65 21.59C11.34 21.42 3.93001 17.49 2.38001 12.19C1.49001 9.18995 1.79001 6.25996 3.18001 4.39996C3.68804 3.72869 4.35061 3.18997 5.11141 2.82959C5.87222 2.46921 6.70878 2.29781 7.55001 2.32996C8.45302 2.28573 9.35012 2.49796 10.1376 2.94213C10.9251 3.3863 11.5707 4.04426 12 4.83996C12.4293 4.04426 13.075 3.3863 13.8624 2.94213C14.6499 2.49796 15.547 2.28573 16.45 2.32996C17.2912 2.29781 18.1278 2.46921 18.8886 2.82959C19.6494 3.18997 20.312 3.72869 20.82 4.39996C22.21 6.25996 22.51 9.16995 21.62 12.19C20.07 17.49 12.62 21.42 12.35 21.59C12.242 21.6458 12.1216 21.6733 12 21.67ZM7.55001 3.82996C6.94187 3.79839 6.33522 3.9158 5.78278 4.17199C5.23033 4.42817 4.74879 4.81537 4.38001 5.29996C3.28001 6.77996 3.06001 9.19996 3.82001 11.77C5.02001 15.86 10.55 19.24 12 20.07C13.45 19.24 19 15.85 20.18 11.77C20.94 9.19996 20.72 6.76996 19.62 5.29996C19.2512 4.81537 18.7697 4.42817 18.2172 4.17199C17.6648 3.9158 17.0581 3.79839 16.45 3.82996C13.03 3.82996 12.77 7.13996 12.75 7.50996C12.7399 7.70279 12.6567 7.88453 12.5174 8.01826C12.3781 8.15199 12.1931 8.22768 12 8.22996C11.8069 8.22768 11.6219 8.15199 11.4826 8.01826C11.3433 7.88453 11.2602 7.70279 11.25 7.50996C11.23 7.13996 11 3.82996 7.55001 3.82996Z" fill="white"/>
<path d="M20.9 12.73H3.10004C2.90112 12.73 2.71036 12.651 2.56971 12.5103C2.42905 12.3697 2.35004 12.1789 2.35004 11.98C2.35004 11.7811 2.42905 11.5903 2.56971 11.4497C2.71036 11.309 2.90112 11.23 3.10004 11.23H20.9C21.0989 11.23 21.2897 11.309 21.4304 11.4497C21.571 11.5903 21.65 11.7811 21.65 11.98C21.65 12.1789 21.571 12.3697 21.4304 12.5103C21.2897 12.651 21.0989 12.73 20.9 12.73Z" fill="white"/>
</svg>
