<svg width="24" height="24" viewBox="0 0 24 24" fill="none" xmlns="http://www.w3.org/2000/svg">
<path d="M12.0001 21.7C11.8668 21.701 11.7356 21.6665 11.6201 21.6L3.87006 17.12C3.75621 17.0543 3.66192 16.9594 3.59689 16.8452C3.53186 16.7309 3.49844 16.6014 3.50006 16.47V7.52998C3.49844 7.39853 3.53186 7.26903 3.59689 7.15479C3.66192 7.04055 3.75621 6.94569 3.87006 6.87998L11.6201 2.39998C11.7347 2.33605 11.8638 2.30249 11.9951 2.30249C12.1263 2.30249 12.2554 2.33605 12.3701 2.39998L20.1201 6.87998C20.2365 6.94357 20.3334 7.03768 20.4003 7.15221C20.4673 7.26673 20.5018 7.39733 20.5001 7.52998V16.47C20.5018 16.6026 20.4673 16.7332 20.4003 16.8477C20.3334 16.9623 20.2365 17.0564 20.1201 17.12L12.3701 21.6C12.2586 21.6676 12.1304 21.7023 12.0001 21.7ZM5.00006 16L12.0001 20L19.0001 16V7.99998L12.0001 3.99998L5.00006 7.99998V16Z" fill="white"/>
</svg>
