<svg width="24" height="24" viewBox="0 0 24 24" fill="none" xmlns="http://www.w3.org/2000/svg">
<path d="M7.00003 22.7599C6.00629 22.7546 5.05505 22.3561 4.35423 21.6516C3.65341 20.947 3.26002 19.9936 3.26003 18.9999V10.9999C3.25665 10.0136 3.64092 9.06548 4.33003 8.35988C4.67929 8.00781 5.09542 7.72914 5.55394 7.54023C6.01247 7.35132 6.50413 7.25601 7.00003 7.25988H17C17.9903 7.26513 18.9386 7.66085 19.6388 8.3611C20.3391 9.06135 20.7348 10.0096 20.74 10.9999V18.9999C20.7412 19.9955 20.3495 20.9514 19.65 21.6599C19.3007 22.0041 18.8867 22.2759 18.4319 22.4595C17.9771 22.6431 17.4905 22.735 17 22.7299H7.00003V22.7599ZM17 8.75988H7.00003C6.70576 8.75755 6.41406 8.81483 6.14252 8.92826C5.87098 9.04169 5.62521 9.20892 5.42003 9.41988C5.20728 9.62476 5.03755 9.87004 4.92079 10.1413C4.80402 10.4126 4.74257 10.7045 4.74003 10.9999V18.9999C4.73871 19.297 4.79626 19.5915 4.90937 19.8663C5.02247 20.1411 5.18889 20.3908 5.39902 20.6009C5.60914 20.811 5.85881 20.9774 6.1336 21.0905C6.4084 21.2036 6.70287 21.2612 7.00003 21.2599H17C17.2972 21.2612 17.5917 21.2036 17.8665 21.0905C18.1413 20.9774 18.3909 20.811 18.601 20.6009C18.8112 20.3908 18.9776 20.1411 19.0907 19.8663C19.2038 19.5915 19.2614 19.297 19.26 18.9999V10.9999C19.2627 10.7019 19.2061 10.4063 19.0936 10.1304C18.9811 9.85442 18.8149 9.60357 18.6046 9.39238C18.3944 9.18119 18.1442 9.01388 17.8688 8.90015C17.5933 8.78642 17.298 8.72854 17 8.72988V8.75988Z" fill="white"/>
<path d="M7.99998 8.75C7.90214 8.75178 7.80492 8.73413 7.71395 8.69809C7.62297 8.66204 7.54005 8.60831 7.46998 8.54C7.39639 8.47023 7.3373 8.38661 7.29612 8.29394C7.25493 8.20127 7.23245 8.10138 7.22998 8V6C7.22998 5.37407 7.35343 4.75428 7.59327 4.17611C7.83311 3.59795 8.18462 3.07277 8.62769 2.63063C9.07075 2.18849 9.59667 1.83808 10.1753 1.59946C10.754 1.36084 11.374 1.23869 12 1.24C13.2564 1.25053 14.4579 1.75636 15.3435 2.64761C16.2292 3.53886 16.7274 4.74355 16.73 6V8C16.7313 8.09886 16.7128 8.197 16.6756 8.2886C16.6384 8.3802 16.5832 8.46341 16.5133 8.53333C16.4434 8.60324 16.3602 8.65844 16.2686 8.69565C16.177 8.73287 16.0788 8.75135 15.98 8.75H7.97998H7.99998ZM12 2.75C11.5719 2.74869 11.1477 2.83171 10.7517 2.99432C10.3556 3.15694 9.99553 3.39597 9.69188 3.69776C9.38823 3.99955 9.147 4.35819 8.98196 4.75321C8.81691 5.14823 8.73129 5.57189 8.72998 6V7.25H15.23V6C15.23 5.14057 14.8907 4.31589 14.2858 3.70537C13.6809 3.09486 12.8594 2.74791 12 2.74V2.75Z" fill="white"/>
<path d="M12 17.24C11.2724 17.24 10.5744 16.9516 10.059 16.4381C9.54355 15.9245 9.25265 15.2276 9.25 14.5C9.25 13.7697 9.53941 13.0692 10.0548 12.5519C10.5703 12.0346 11.2697 11.7426 12 11.74C12.7293 11.74 13.4288 12.0297 13.9445 12.5454C14.4603 13.0612 14.75 13.7606 14.75 14.49C14.75 15.2193 14.4603 15.9188 13.9445 16.4345C13.4288 16.9503 12.7293 17.24 12 17.24ZM12 13.24C11.6684 13.2452 11.352 13.3799 11.1184 13.6154C10.8848 13.8508 10.7526 14.1683 10.75 14.5C10.75 14.6637 10.7824 14.8257 10.8453 14.9768C10.9083 15.1279 11.0005 15.2651 11.1167 15.3804C11.2329 15.4956 11.3708 15.5868 11.5224 15.6485C11.674 15.7102 11.8363 15.7413 12 15.74C12.1632 15.7414 12.3251 15.7103 12.4762 15.6485C12.6273 15.5867 12.7645 15.4954 12.88 15.38C13.1164 15.1441 13.2495 14.824 13.25 14.49C13.25 14.1585 13.1183 13.8405 12.8839 13.6061C12.6495 13.3717 12.3315 13.24 12 13.24Z" fill="white"/>
<path d="M12 19.24C11.8028 19.24 11.6135 19.1624 11.4732 19.0239C11.3328 18.8854 11.2526 18.6972 11.25 18.5V16.5C11.25 16.3001 11.3287 16.1083 11.4691 15.9661C11.6094 15.8239 11.8002 15.7426 12 15.74C12.0985 15.74 12.196 15.7594 12.287 15.7971C12.378 15.8348 12.4607 15.89 12.5303 15.9597C12.6 16.0293 12.6552 16.112 12.6929 16.203C12.7306 16.294 12.75 16.3915 12.75 16.49V18.49C12.75 18.6889 12.671 18.8797 12.5303 19.0203C12.3897 19.161 12.1989 19.24 12 19.24Z" fill="white"/>
</svg>
