<svg width="24" height="24" viewBox="0 0 24 24" fill="none" xmlns="http://www.w3.org/2000/svg">
<path d="M12.4 16.54C12.2378 16.5406 12.0798 16.4887 11.9497 16.392C11.8195 16.2953 11.7242 16.159 11.678 16.0036C11.6318 15.8481 11.6372 15.6819 11.6935 15.5298C11.7498 15.3777 11.8538 15.2479 11.99 15.16C13.232 14.3625 14.1823 13.1843 14.6986 11.8015C15.2148 10.4188 15.2693 8.90604 14.8538 7.48977C14.4383 6.0735 13.5751 4.82994 12.3937 3.9453C11.2122 3.06066 9.77596 2.58254 8.3 2.58254C6.82404 2.58254 5.38779 3.06066 4.20632 3.9453C3.02485 4.82994 2.16174 6.0735 1.74623 7.48977C1.33072 8.90604 1.38518 10.4188 1.90144 11.8015C2.4177 13.1843 3.36799 14.3625 4.61 15.16C4.76656 15.2677 4.87636 15.4309 4.9172 15.6166C4.95804 15.8022 4.92687 15.9964 4.83 16.16C4.72551 16.3205 4.56211 16.4335 4.37504 16.4747C4.18797 16.5158 3.99222 16.4818 3.83 16.38C2.31513 15.4075 1.15604 13.9704 0.526313 12.284C-0.103414 10.5976 -0.169893 8.75259 0.336832 7.02522C0.843557 5.29786 1.89622 3.78113 3.33718 2.70216C4.77814 1.62319 6.52985 1.04004 8.33 1.04004C10.1302 1.04004 11.8819 1.62319 13.3228 2.70216C14.7638 3.78113 15.8164 5.29786 16.3232 7.02522C16.8299 8.75259 16.7634 10.5976 16.1337 12.284C15.504 13.9704 14.3449 15.4075 12.83 16.38C12.7109 16.4838 12.558 16.5407 12.4 16.54Z" fill="white"/>
<path d="M12.4 20.49H4.20001C4.00191 20.4874 3.81264 20.4076 3.67255 20.2675C3.53245 20.1274 3.4526 19.9381 3.45001 19.74V15.79C3.45001 15.5911 3.52903 15.4004 3.66968 15.2597C3.81033 15.1191 4.0011 15.04 4.20001 15.04C4.39892 15.04 4.58969 15.1191 4.73034 15.2597C4.87099 15.4004 4.95001 15.5911 4.95001 15.79V19H11.65V15.8C11.65 15.6011 11.729 15.4104 11.8697 15.2697C12.0103 15.1291 12.2011 15.05 12.4 15.05C12.5989 15.05 12.7897 15.1291 12.9303 15.2697C13.071 15.4104 13.15 15.6011 13.15 15.8V19.75C13.1449 19.9464 13.0639 20.1331 12.9241 20.2711C12.7842 20.4091 12.5964 20.4875 12.4 20.49Z" fill="white"/>
<path d="M5.67999 22.9299C5.48189 22.9273 5.29262 22.8475 5.15253 22.7074C5.01243 22.5673 4.93258 22.378 4.92999 22.1799V20.4199C4.92999 20.221 5.00901 20.0302 5.14966 19.8896C5.29031 19.7489 5.48108 19.6699 5.67999 19.6699C5.87891 19.6699 6.06967 19.7489 6.21032 19.8896C6.35097 20.0302 6.42999 20.221 6.42999 20.4199V22.1799C6.42999 22.3788 6.35097 22.5696 6.21032 22.7103C6.06967 22.8509 5.87891 22.9299 5.67999 22.9299Z" fill="white"/>
<path d="M10.92 22.9299C10.7211 22.9299 10.5303 22.8509 10.3897 22.7103C10.249 22.5696 10.17 22.3788 10.17 22.1799V20.4199C10.17 20.221 10.249 20.0302 10.3897 19.8896C10.5303 19.7489 10.7211 19.6699 10.92 19.6699C11.1189 19.6699 11.3097 19.7489 11.4503 19.8896C11.591 20.0302 11.67 20.221 11.67 20.4199V22.1799C11.6674 22.378 11.5875 22.5673 11.4474 22.7074C11.3074 22.8475 11.1181 22.9273 10.92 22.9299Z" fill="white"/>
<path d="M8.29999 20.49C8.10188 20.4874 7.91262 20.4076 7.77252 20.2675C7.63243 20.1274 7.55258 19.9381 7.54999 19.74V11.74C7.54999 11.5411 7.62901 11.3503 7.76966 11.2097C7.91031 11.069 8.10108 10.99 8.29999 10.99C8.4989 10.99 8.68967 11.069 8.83032 11.2097C8.97097 11.3503 9.04999 11.5411 9.04999 11.74V19.74C9.0474 19.9381 8.96755 20.1274 8.82745 20.2675C8.68736 20.4076 8.49809 20.4874 8.29999 20.49Z" fill="white"/>
</svg>
