<svg width="24" height="24" viewBox="0 0 24 24" fill="none" xmlns="http://www.w3.org/2000/svg">
<path d="M15 22.75H9C8.00544 22.75 7.05161 22.3549 6.34835 21.6517C5.64509 20.9484 5.25 19.9946 5.25 19V5C5.25 4.00544 5.64509 3.05161 6.34835 2.34835C7.05161 1.64509 8.00544 1.25 9 1.25H15C15.9946 1.25 16.9484 1.64509 17.6517 2.34835C18.3549 3.05161 18.75 4.00544 18.75 5V19C18.75 19.9946 18.3549 20.9484 17.6517 21.6517C16.9484 22.3549 15.9946 22.75 15 22.75ZM9 2.75C8.40326 2.75 7.83097 2.98705 7.40901 3.40901C6.98705 3.83097 6.75 4.40326 6.75 5V19C6.75 19.5967 6.98705 20.169 7.40901 20.591C7.83097 21.0129 8.40326 21.25 9 21.25H15C15.5967 21.25 16.169 21.0129 16.591 20.591C17.0129 20.169 17.25 19.5967 17.25 19V5C17.25 4.40326 17.0129 3.83097 16.591 3.40901C16.169 2.98705 15.5967 2.75 15 2.75H9Z" fill="white"/>
<path d="M12 19.7501C11.9003 19.7495 11.8017 19.7292 11.71 19.6901C11.6208 19.6521 11.5394 19.5979 11.47 19.5301C11.3296 19.3894 11.2507 19.1988 11.2507 19.0001C11.2507 18.8013 11.3296 18.6107 11.47 18.4701C11.5394 18.4023 11.6208 18.348 11.71 18.3101C11.8016 18.2704 11.9003 18.25 12 18.25C12.0998 18.25 12.1985 18.2704 12.29 18.3101C12.3793 18.348 12.4607 18.4023 12.53 18.4701C12.6705 18.6107 12.7494 18.8013 12.7494 19.0001C12.7494 19.1988 12.6705 19.3894 12.53 19.5301C12.4607 19.5979 12.3793 19.6521 12.29 19.6901C12.1983 19.7292 12.0997 19.7495 12 19.7501Z" fill="white"/>
</svg>
