<svg width="24" height="24" viewBox="0 0 24 24" fill="none" xmlns="http://www.w3.org/2000/svg">
<path d="M12 21.59C4.46999 21.59 2.77999 8.34997 2.71999 7.78997C2.70579 7.68446 2.71452 7.57714 2.74559 7.47532C2.77665 7.37349 2.82932 7.27957 2.89999 7.19997C2.97477 7.13021 3.06302 7.07649 3.15932 7.04209C3.25563 7.0077 3.35795 6.99336 3.45999 6.99997C5.58999 6.99997 6.57999 3.66997 6.58999 3.62997C6.63685 3.47501 6.73196 3.33906 6.86146 3.24193C6.99097 3.1448 7.14811 3.09156 7.30999 3.08997H16.69C16.8519 3.09156 17.009 3.1448 17.1385 3.24193C17.268 3.33906 17.3631 3.47501 17.41 3.62997C17.41 3.62997 18.41 6.99997 20.54 6.99997C20.6457 6.99983 20.7502 7.02203 20.8467 7.06511C20.9432 7.1082 21.0295 7.17119 21.1 7.24997C21.1707 7.32957 21.2233 7.42349 21.2544 7.52532C21.2855 7.62714 21.2942 7.73446 21.28 7.83997C21.22 8.34997 19.53 21.59 12 21.59ZM4.31999 8.34997C4.76999 11 6.68999 20.09 12 20.09C17.31 20.09 19.23 11 19.68 8.34997C17.68 7.83997 16.56 5.63997 16.15 4.58997H7.84999C7.43999 5.63997 6.34999 7.83997 4.31999 8.34997Z" fill="white"/>
</svg>
