<svg width="24" height="24" viewBox="0 0 24 24" fill="none" xmlns="http://www.w3.org/2000/svg">
<path d="M12 8.49995C11.826 8.5003 11.6575 8.43935 11.524 8.32779C11.3905 8.21624 11.3006 8.06121 11.27 7.88995C11.1643 7.24306 11.1913 6.58143 11.3495 5.94533C11.5076 5.30923 11.7936 4.71198 12.19 4.18995C12.7307 3.61672 13.3935 3.17256 14.1292 2.89039C14.8649 2.60822 15.6547 2.49528 16.44 2.55995C16.5385 2.55995 16.636 2.57934 16.727 2.61704C16.818 2.65473 16.9007 2.70997 16.9703 2.77962C17.04 2.84926 17.0952 2.93194 17.1329 3.02293C17.1706 3.11393 17.19 3.21145 17.19 3.30995C17.19 3.40844 17.1706 3.50596 17.1329 3.59696C17.0952 3.68795 17.04 3.77063 16.9703 3.84028C16.9007 3.90992 16.818 3.96516 16.727 4.00285C16.636 4.04055 16.5385 4.05995 16.44 4.05995C15.8765 4.00316 15.3074 4.07141 14.7733 4.25982C14.2392 4.44823 13.7532 4.75216 13.35 5.14995C12.8318 5.86195 12.6128 6.74854 12.74 7.61995C12.7724 7.81447 12.7279 8.01397 12.616 8.17631C12.504 8.33864 12.3334 8.45111 12.14 8.48994L12 8.49995Z" fill="white"/>
<path d="M5.63 20.34C4.56914 20.34 3.55172 19.9186 2.80158 19.1684C2.05143 18.4183 1.63 17.4009 1.63 16.34V11C1.63 9.93913 2.05143 8.92172 2.80158 8.17157C3.55172 7.42143 4.56914 7 5.63 7C5.82892 7 6.01968 7.07902 6.16034 7.21967C6.30099 7.36032 6.38 7.55109 6.38 7.75C6.38 7.94891 6.30099 8.13968 6.16034 8.28033C6.01968 8.42098 5.82892 8.5 5.63 8.5C5.30356 8.49996 4.98037 8.56489 4.67927 8.69101C4.37817 8.81713 4.10519 9.00192 3.87623 9.2346C3.64726 9.46729 3.4669 9.74322 3.34565 10.0463C3.22441 10.3494 3.1647 10.6736 3.17 11V16.42C3.14858 16.7556 3.19617 17.092 3.30985 17.4084C3.42353 17.7249 3.60089 18.0147 3.83095 18.2599C4.06102 18.5051 4.33892 18.7006 4.64749 18.8342C4.95606 18.9678 5.28875 19.0368 5.625 19.0368C5.96126 19.0368 6.29395 18.9678 6.60252 18.8342C6.91109 18.7006 7.18899 18.5051 7.41906 18.2599C7.64912 18.0147 7.82648 17.7249 7.94016 17.4084C8.05384 17.092 8.10143 16.7556 8.08 16.42V13.67C8.08 13.4711 8.15902 13.2803 8.29967 13.1397C8.44033 12.999 8.63109 12.92 8.83 12.92C9.02892 12.92 9.21968 12.999 9.36033 13.1397C9.50099 13.2803 9.58 13.4711 9.58 13.67V16.38C9.56963 17.4253 9.15045 18.425 8.4122 19.1652C7.67395 19.9053 6.67529 20.327 5.63 20.34Z" fill="white"/>
<path d="M18.38 20.34C17.3191 20.34 16.3017 19.9186 15.5516 19.1684C14.8014 18.4183 14.38 17.4009 14.38 16.34V13.67C14.38 13.4711 14.459 13.2803 14.5997 13.1397C14.7403 12.999 14.9311 12.92 15.13 12.92C15.3289 12.92 15.5197 12.999 15.6603 13.1397C15.801 13.2803 15.88 13.4711 15.88 13.67V16.38C15.8586 16.7156 15.9062 17.052 16.0199 17.3684C16.1335 17.6849 16.3109 17.9747 16.541 18.2199C16.771 18.4652 17.0489 18.6606 17.3575 18.7942C17.6661 18.9278 17.9987 18.9968 18.335 18.9968C18.6713 18.9968 19.0039 18.9278 19.3125 18.7942C19.6211 18.6606 19.899 18.4652 20.1291 18.2199C20.3591 17.9747 20.5365 17.6849 20.6502 17.3684C20.7638 17.052 20.8114 16.7156 20.79 16.38V11C20.798 10.6771 20.7417 10.3558 20.6246 10.0548C20.5074 9.75373 20.3316 9.47897 20.1074 9.24641C19.8832 9.01385 19.6151 8.82811 19.3186 8.69999C19.022 8.57186 18.703 8.50389 18.38 8.50001C18.1811 8.50001 17.9903 8.421 17.8497 8.28034C17.709 8.13969 17.63 7.94893 17.63 7.75001C17.63 7.5511 17.709 7.36034 17.8497 7.21968C17.9903 7.07903 18.1811 7.00001 18.38 7.00001C18.9033 6.99862 19.4217 7.10151 19.9048 7.30266C20.388 7.50381 20.8262 7.7992 21.1939 8.17158C21.5617 8.54395 21.8515 8.98586 22.0466 9.47148C22.2416 9.95711 22.338 10.4767 22.33 11V16.42C22.3093 17.4584 21.8856 18.4479 21.1484 19.1795C20.4113 19.9111 19.4185 20.3272 18.38 20.34Z" fill="white"/>
<path d="M15.17 14.4199H8.83002C8.6311 14.4199 8.44034 14.3409 8.29969 14.2003C8.15904 14.0596 8.08002 13.8688 8.08002 13.6699C8.08002 13.471 8.15904 13.2802 8.29969 13.1396C8.44034 12.9989 8.6311 12.9199 8.83002 12.9199H15.17C15.3689 12.9199 15.5597 12.9989 15.7003 13.1396C15.841 13.2802 15.92 13.471 15.92 13.6699C15.92 13.8688 15.841 14.0596 15.7003 14.2003C15.5597 14.3409 15.3689 14.4199 15.17 14.4199Z" fill="white"/>
<path d="M18.37 8.5H5.62C5.42108 8.5 5.23032 8.42098 5.08966 8.28033C4.94901 8.13968 4.87 7.94891 4.87 7.75C4.87 7.55109 4.94901 7.36032 5.08966 7.21967C5.23032 7.07902 5.42108 7 5.62 7H18.37C18.5689 7 18.7597 7.07902 18.9003 7.21967C19.041 7.36032 19.12 7.55109 19.12 7.75C19.12 7.94891 19.041 8.13968 18.9003 8.28033C18.7597 8.42098 18.5689 8.5 18.37 8.5Z" fill="white"/>
</svg>
