<svg width="24" height="24" viewBox="0 0 24 24" fill="none" xmlns="http://www.w3.org/2000/svg">
<path d="M16.5 22.25H7.50002C7.31267 22.2508 7.13179 22.1815 6.99298 22.0556C6.85418 21.9298 6.76751 21.7565 6.75002 21.57L5.25002 5.57C5.2394 5.46613 5.25181 5.36119 5.28638 5.26267C5.32095 5.16415 5.37683 5.07446 5.45002 5C5.51854 4.92149 5.60308 4.85855 5.69795 4.81543C5.79282 4.77231 5.89582 4.75 6.00002 4.75H18C18.1055 4.75109 18.2097 4.77384 18.306 4.81684C18.4023 4.85985 18.4888 4.92219 18.56 5C18.6298 5.07644 18.6828 5.16667 18.7155 5.26485C18.7482 5.36303 18.76 5.46699 18.75 5.57L17.25 21.57C17.2325 21.7565 17.1459 21.9298 17.0071 22.0556C16.8683 22.1815 16.6874 22.2508 16.5 22.25ZM8.18002 20.75H15.82L17.18 6.25H6.82002L8.18002 20.75Z" fill="white"/>
<path d="M19 6.25H5C4.80109 6.25 4.61032 6.17098 4.46967 6.03033C4.32902 5.88968 4.25 5.69891 4.25 5.5C4.25 5.30109 4.32902 5.11032 4.46967 4.96967C4.61032 4.82902 4.80109 4.75 5 4.75H19C19.1989 4.75 19.3897 4.82902 19.5303 4.96967C19.671 5.11032 19.75 5.30109 19.75 5.5C19.75 5.69891 19.671 5.88968 19.5303 6.03033C19.3897 6.17098 19.1989 6.25 19 6.25Z" fill="white"/>
<path d="M14.5 3.25H9.5C9.30109 3.25 9.11032 3.17098 8.96967 3.03033C8.82902 2.88968 8.75 2.69891 8.75 2.5C8.75 2.30109 8.82902 2.11032 8.96967 1.96967C9.11032 1.82902 9.30109 1.75 9.5 1.75H14.5C14.6989 1.75 14.8897 1.82902 15.0303 1.96967C15.171 2.11032 15.25 2.30109 15.25 2.5C15.25 2.69891 15.171 2.88968 15.0303 3.03033C14.8897 3.17098 14.6989 3.25 14.5 3.25Z" fill="white"/>
<path d="M10.25 17.47C10.0519 17.4674 9.86263 17.3876 9.72253 17.2475C9.58244 17.1074 9.50259 16.9181 9.5 16.72V10.28C9.5 10.0811 9.57902 9.89035 9.71967 9.7497C9.86032 9.60905 10.0511 9.53003 10.25 9.53003C10.4489 9.53003 10.6397 9.60905 10.7803 9.7497C10.921 9.89035 11 10.0811 11 10.28V16.72C10.9974 16.9181 10.9176 17.1074 10.7775 17.2475C10.6374 17.3876 10.4481 17.4674 10.25 17.47Z" fill="white"/>
<path d="M13.75 17.47C13.5519 17.4674 13.3626 17.3876 13.2225 17.2475C13.0824 17.1074 13.0026 16.9181 13 16.72V10.28C13 10.0811 13.079 9.89035 13.2197 9.7497C13.3603 9.60905 13.5511 9.53003 13.75 9.53003C13.9489 9.53003 14.1397 9.60905 14.2803 9.7497C14.421 9.89035 14.5 10.0811 14.5 10.28V16.72C14.4974 16.9181 14.4176 17.1074 14.2775 17.2475C14.1374 17.3876 13.9481 17.4674 13.75 17.47Z" fill="white"/>
</svg>
