<svg width="24" height="24" viewBox="0 0 24 24" fill="none" xmlns="http://www.w3.org/2000/svg">
<path d="M20 18.25H4C3.80189 18.2474 3.61263 18.1676 3.47253 18.0275C3.33244 17.8874 3.25259 17.6981 3.25 17.5V12.5C3.25 11.5054 3.64509 10.5516 4.34835 9.84835C5.05161 9.14509 6.00544 8.75 7 8.75H17C17.9946 8.75 18.9484 9.14509 19.6517 9.84835C20.3549 10.5516 20.75 11.5054 20.75 12.5V17.5C20.7474 17.6981 20.6676 17.8874 20.5275 18.0275C20.3874 18.1676 20.1981 18.2474 20 18.25ZM4.75 16.75H19.25V12.5C19.25 11.9033 19.0129 11.331 18.591 10.909C18.169 10.4871 17.5967 10.25 17 10.25H7C6.40326 10.25 5.83097 10.4871 5.40901 10.909C4.98705 11.331 4.75 11.9033 4.75 12.5V16.75Z" fill="white"/>
<path d="M8.00005 14.25C7.88152 14.2473 7.76531 14.2166 7.66097 14.1603C7.55663 14.104 7.46711 14.0237 7.39978 13.9261C7.33245 13.8286 7.28921 13.7164 7.27361 13.5989C7.25801 13.4813 7.2705 13.3618 7.31005 13.25C7.36769 13.1147 7.46382 12.9994 7.5865 12.9183C7.70918 12.8372 7.85299 12.7939 8.00005 12.7939C8.14711 12.7939 8.29092 12.8372 8.4136 12.9183C8.53628 12.9994 8.63242 13.1147 8.69005 13.25C8.7296 13.3618 8.74209 13.4813 8.72649 13.5989C8.7109 13.7164 8.66766 13.8286 8.60032 13.9261C8.53299 14.0237 8.44348 14.104 8.33913 14.1603C8.23479 14.2166 8.11858 14.2473 8.00005 14.25Z" fill="white"/>
<path d="M16 14.25C15.8577 14.2446 15.7199 14.1988 15.6027 14.1179C15.4854 14.037 15.3937 13.9244 15.3381 13.7933C15.2825 13.6622 15.2654 13.518 15.2887 13.3775C15.3121 13.237 15.375 13.1061 15.47 13C15.6131 12.8643 15.8028 12.7886 16 12.7886C16.1973 12.7886 16.387 12.8643 16.53 13C16.6251 13.1061 16.688 13.237 16.7113 13.3775C16.7347 13.518 16.7176 13.6622 16.662 13.7933C16.6064 13.9244 16.5146 14.037 16.3974 14.1179C16.2802 14.1988 16.1423 14.2446 16 14.25Z" fill="white"/>
<path d="M17.9999 10.25H5.99994C5.80184 10.2474 5.61257 10.1676 5.47248 10.0275C5.33238 9.88737 5.25253 9.69811 5.24994 9.5V4.76C5.24862 4.66067 5.26704 4.56207 5.30414 4.46992C5.34124 4.37776 5.39627 4.2939 5.46605 4.22319C5.53582 4.15249 5.61895 4.09635 5.7106 4.05803C5.80226 4.01972 5.90061 3.99999 5.99994 4H17.9999C18.1989 4 18.3896 4.07902 18.5303 4.21967C18.6709 4.36032 18.7499 4.55109 18.7499 4.75V9.5C18.7474 9.69811 18.6675 9.88737 18.5274 10.0275C18.3873 10.1676 18.1981 10.2474 17.9999 10.25ZM6.74994 8.75H17.2499V5.51H6.74994V8.75Z" fill="white"/>
</svg>
