<svg width="24" height="24" viewBox="0 0 24 24" fill="none" xmlns="http://www.w3.org/2000/svg">
<path d="M9.43 8.38C9.33022 8.38031 9.23146 8.35988 9.14 8.32C9.06097 8.27549 8.98998 8.21802 8.93 8.15C8.85987 8.08256 8.80527 8.00066 8.77 7.91C8.73119 7.82171 8.71077 7.72644 8.70999 7.63C8.70968 7.53022 8.73012 7.43146 8.77 7.34C8.80768 7.24762 8.8619 7.1629 8.93 7.09C8.99935 7.02221 9.08074 6.96795 9.16999 6.93C9.35704 6.86025 9.56295 6.86025 9.74999 6.93C9.83925 6.96795 9.92064 7.02221 9.99 7.09C10.0581 7.1629 10.1123 7.24762 10.15 7.34C10.1899 7.43146 10.2103 7.53022 10.21 7.63C10.2021 7.7314 10.1731 7.83003 10.1249 7.91958C10.0767 8.00912 10.0103 8.08761 9.93 8.15C9.86104 8.22083 9.7797 8.27845 9.69 8.32C9.60761 8.35538 9.51955 8.3757 9.43 8.38Z" fill="white"/>
<path d="M12.84 8.38003C12.7414 8.38106 12.6436 8.3621 12.5525 8.32429C12.4614 8.28648 12.3789 8.2306 12.31 8.16003C12.2388 8.08752 12.1813 8.00285 12.14 7.91003C12.1089 7.81985 12.092 7.72539 12.09 7.63003C12.0912 7.53132 12.108 7.43343 12.14 7.34003C12.1813 7.2472 12.2388 7.16253 12.31 7.09003C12.4159 6.9892 12.5483 6.92062 12.6917 6.89228C12.8352 6.86395 12.9837 6.87704 13.12 6.93003C13.2117 6.96899 13.2962 7.02308 13.37 7.09003C13.5095 7.23539 13.5882 7.42856 13.59 7.63003C13.5892 7.72647 13.5688 7.82174 13.53 7.91003C13.4923 8.0024 13.4381 8.08712 13.37 8.16003C13.2283 8.29891 13.0384 8.37772 12.84 8.38003Z" fill="white"/>
<path d="M11.27 10.5899C11.0716 10.5876 10.8817 10.5088 10.74 10.3699C10.6722 10.3005 10.6179 10.2192 10.58 10.1299C10.5401 10.0384 10.5197 9.93968 10.52 9.8399C10.5208 9.74346 10.5412 9.64819 10.58 9.5599C10.6145 9.4659 10.669 9.38054 10.7398 9.30974C10.8106 9.23894 10.896 9.1844 10.99 9.1499C11.1735 9.07992 11.3764 9.07992 11.56 9.1499C11.6492 9.18785 11.7306 9.24211 11.8 9.3099C11.8711 9.38241 11.9287 9.46708 11.97 9.5599C12.0011 9.65008 12.0179 9.74454 12.02 9.8399C12.0188 9.93861 12.0019 10.0365 11.97 10.1299C11.8842 10.3094 11.7395 10.4541 11.56 10.5399C11.4666 10.5719 11.3687 10.5887 11.27 10.5899Z" fill="white"/>
<path d="M11.74 21.5C9.81206 21.498 7.92798 20.9245 6.32592 19.852C4.72386 18.7794 3.47573 17.256 2.73931 15.4742C2.00289 13.6925 1.81123 11.7324 2.18857 9.84175C2.5659 7.95109 3.49529 6.21474 4.85925 4.85218C6.22321 3.48962 7.96051 2.56201 9.85155 2.18662C11.7426 1.81122 13.7025 2.00489 15.4835 2.74313C17.2645 3.48138 18.7866 4.73107 19.8575 6.33423C20.9284 7.93739 21.5 9.82206 21.5 11.75C21.4974 14.3368 20.4679 16.8167 18.6378 18.6449C16.8078 20.4731 14.3268 21.5 11.74 21.5ZM11.74 3.5C10.1087 3.50198 8.51467 3.98751 7.15928 4.89523C5.80389 5.80296 4.74802 7.09212 4.12513 8.59978C3.50224 10.1074 3.34029 11.7659 3.65975 13.3656C3.9792 14.9653 4.76573 16.4344 5.91991 17.5872C7.07409 18.7399 8.54411 19.5247 10.1442 19.8422C11.7443 20.1597 13.4025 19.9958 14.9094 19.371C16.4164 18.7463 17.7042 17.6889 18.6103 16.3324C19.5164 14.9759 20 13.3813 20 11.75C19.9974 9.56104 19.1259 7.46265 17.5772 5.91576C16.0284 4.36887 13.929 3.5 11.74 3.5Z" fill="white"/>
</svg>
