<svg width="24" height="24" viewBox="0 0 24 24" fill="none" xmlns="http://www.w3.org/2000/svg">
<path d="M12 17.3299C11.879 17.3285 11.7597 17.3012 11.65 17.2499C11.51 17.1699 8.11002 15.3599 7.38002 12.8699C7.1592 12.2492 7.08227 11.5864 7.15502 10.9316C7.22778 10.2768 7.44833 9.64703 7.80002 9.08991C8.06226 8.74337 8.40289 8.46391 8.79399 8.27444C9.18509 8.08497 9.61553 7.99089 10.05 7.99991C10.4156 7.99036 10.7789 8.05953 11.1153 8.20274C11.4518 8.34595 11.7535 8.55984 12 8.82991C12.2521 8.55328 12.5619 8.33552 12.9075 8.19208C13.2532 8.04863 13.6262 7.98303 14 7.99991C14.4261 7.99875 14.8466 8.0966 15.2284 8.28576C15.6102 8.47492 15.9428 8.75021 16.2 9.08991C16.5517 9.64703 16.7723 10.2768 16.845 10.9316C16.9178 11.5864 16.8408 12.2492 16.62 12.8699C15.89 15.3599 12.49 17.1699 12.35 17.2499C12.2404 17.3012 12.1211 17.3285 12 17.3299ZM10.05 9.50991C9.8481 9.49815 9.64642 9.53677 9.46314 9.6223C9.27985 9.70784 9.1207 9.8376 9.00002 9.99991C8.79234 10.372 8.66862 10.785 8.63752 11.21C8.60643 11.6349 8.66872 12.0616 8.82002 12.4599C9.22002 13.8399 11.01 15.1399 12 15.7299C13 15.1399 14.78 13.8399 15.18 12.4599C15.3313 12.0616 15.3936 11.6349 15.3625 11.21C15.3314 10.785 15.2077 10.372 15 9.99991C14.8842 9.84474 14.7331 9.71936 14.5592 9.63416C14.3853 9.54895 14.1936 9.50636 14 9.50991C13.8412 9.50855 13.6837 9.539 13.5369 9.59945C13.39 9.65991 13.2567 9.74915 13.1449 9.86191C13.0331 9.97467 12.9449 10.1087 12.8857 10.256C12.8265 10.4034 12.7973 10.5611 12.8 10.7199C12.8 10.9188 12.721 11.1096 12.5804 11.2502C12.4397 11.3909 12.2489 11.4699 12.05 11.4699C11.8511 11.4699 11.6603 11.3909 11.5197 11.2502C11.379 11.1096 11.3 10.9188 11.3 10.7199C11.3045 10.5564 11.2749 10.3937 11.2131 10.2422C11.1513 10.0907 11.0587 9.95375 10.9412 9.83997C10.8236 9.72618 10.6837 9.63808 10.5303 9.58126C10.3769 9.52444 10.2133 9.50015 10.05 9.50991Z" fill="white"/>
<path d="M12 21.75C10.0721 21.748 8.18799 21.1745 6.58593 20.102C4.98387 19.0294 3.73574 17.506 2.99932 15.7242C2.2629 13.9425 2.07124 11.9824 2.44858 10.0917C2.82591 8.20109 3.7553 6.46474 5.11926 5.10218C6.48322 3.73962 8.22052 2.81201 10.1116 2.43662C12.0026 2.06122 13.9625 2.25489 15.7435 2.99313C17.5245 3.73138 19.0466 4.98107 20.1175 6.58423C21.1884 8.18739 21.76 10.0721 21.76 12C21.7574 14.5868 20.7279 17.0667 18.8978 18.8949C17.0678 20.7231 14.5868 21.75 12 21.75ZM12 3.75C10.3687 3.75198 8.77468 4.23751 7.41929 5.14523C6.0639 6.05296 5.00803 7.34212 4.38514 8.84978C3.76225 10.3574 3.6003 12.0159 3.91976 13.6156C4.23921 15.2153 5.02574 16.6844 6.17992 17.8372C7.3341 18.9899 8.80412 19.7747 10.4042 20.0922C12.0043 20.4097 13.6626 20.2458 15.1695 19.621C16.6764 18.9963 17.9642 17.9389 18.8703 16.5824C19.7764 15.2259 20.26 13.6313 20.26 12C20.2574 9.81104 19.3859 7.71265 17.8372 6.16576C16.2884 4.61887 14.189 3.75 12 3.75Z" fill="white"/>
</svg>
