<svg width="24" height="24" viewBox="0 0 24 24" fill="none" xmlns="http://www.w3.org/2000/svg">
<path d="M12 16.49C11.8011 16.49 11.6103 16.411 11.4697 16.2703C11.329 16.1297 11.25 15.9389 11.25 15.74V7.73999C11.25 7.54108 11.329 7.35031 11.4697 7.20966C11.6103 7.06901 11.8011 6.98999 12 6.98999C12.1989 6.98999 12.3897 7.06901 12.5303 7.20966C12.671 7.35031 12.75 7.54108 12.75 7.73999V15.74C12.75 15.9389 12.671 16.1297 12.5303 16.2703C12.3897 16.411 12.1989 16.49 12 16.49Z" fill="white"/>
<path d="M16 12.49H7.99997C7.81725 12.4688 7.6487 12.3812 7.52636 12.2438C7.40402 12.1065 7.33643 11.9289 7.33643 11.745C7.33643 11.5611 7.40402 11.3835 7.52636 11.2462C7.6487 11.1088 7.81725 11.0212 7.99997 11H16C16.1989 11 16.3896 11.079 16.5303 11.2197C16.671 11.3603 16.75 11.5511 16.75 11.75C16.75 11.9489 16.671 12.1397 16.5303 12.2803C16.3896 12.421 16.1989 12.5 16 12.5V12.49Z" fill="white"/>
<path d="M12 21.44C11.8667 21.441 11.7355 21.4065 11.62 21.34L3.86999 16.87C3.75817 16.802 3.66551 16.7066 3.60077 16.5929C3.53604 16.4792 3.50135 16.3508 3.5 16.22V7.26997C3.49838 7.13852 3.5318 7.00902 3.59683 6.89478C3.66186 6.78054 3.75615 6.68568 3.86999 6.61997L11.62 2.13997C11.7346 2.07604 11.8637 2.04248 11.995 2.04248C12.1263 2.04248 12.2553 2.07604 12.37 2.13997L20.12 6.61997C20.2364 6.68356 20.3333 6.77767 20.4003 6.8922C20.4672 7.00672 20.5017 7.13732 20.5 7.26997V16.27C20.4986 16.402 20.4628 16.5314 20.3961 16.6453C20.3295 16.7593 20.2343 16.854 20.12 16.92L12.37 21.39C12.2536 21.4403 12.1256 21.4576 12 21.44ZM4.99999 15.78L12 19.78L19 15.78V7.69997L12 3.69997L4.99999 7.69997V15.78Z" fill="white"/>
</svg>
