<svg width="24" height="24" viewBox="0 0 24 24" fill="none" xmlns="http://www.w3.org/2000/svg">
<path d="M12.44 23C12.2776 23.0007 12.1195 22.948 11.99 22.85L5.12999 17.73C5.03953 17.6577 4.96586 17.5666 4.91406 17.463C4.86226 17.3594 4.83358 17.2458 4.82999 17.13V6.88C4.83213 6.76253 4.86012 6.64698 4.91197 6.54155C4.96382 6.43612 5.03826 6.34341 5.12999 6.27L12 1.15C12.1298 1.05263 12.2877 1 12.45 1C12.6123 1 12.7702 1.05263 12.9 1.15L19.75 6.27C19.8433 6.34194 19.9189 6.43434 19.9709 6.5401C20.023 6.64586 20.05 6.76215 20.05 6.88V17.13C20.0485 17.2462 20.0207 17.3605 19.9688 17.4644C19.9168 17.5683 19.842 17.6591 19.75 17.73L12.9 22.85C12.7671 22.9488 12.6056 23.0014 12.44 23ZM6.32999 16.75L12.44 21.31L18.54 16.75V7.25L12.44 2.69L6.32999 7.25V16.75Z" fill="white"/>
<path d="M9.93997 15.9999C9.74106 15.9999 9.55029 15.9209 9.40964 15.7803C9.26899 15.6396 9.18997 15.4488 9.18997 15.2499V8.66992C9.18997 8.47101 9.26899 8.28024 9.40964 8.13959C9.55029 7.99894 9.74106 7.91992 9.93997 7.91992C10.1389 7.91992 10.3297 7.99894 10.4703 8.13959C10.611 8.28024 10.69 8.47101 10.69 8.66992V15.2599C10.6848 15.4563 10.6038 15.643 10.464 15.781C10.3242 15.9189 10.1364 15.9974 9.93997 15.9999Z" fill="white"/>
<path d="M14.94 16.08C14.8411 16.0813 14.743 16.0629 14.6514 16.0256C14.5598 15.9884 14.4766 15.9332 14.4067 15.8633C14.3367 15.7934 14.2815 15.7102 14.2443 15.6186C14.2071 15.527 14.1886 15.4289 14.19 15.33V8.73999C14.19 8.54108 14.269 8.35031 14.4096 8.20966C14.5503 8.06901 14.7411 7.98999 14.94 7.98999C15.1389 7.98999 15.3297 8.06901 15.4703 8.20966C15.611 8.35031 15.69 8.54108 15.69 8.73999V15.33C15.69 15.5289 15.611 15.7197 15.4703 15.8603C15.3297 16.001 15.1389 16.08 14.94 16.08Z" fill="white"/>
</svg>
