<svg width="24" height="24" viewBox="0 0 24 24" fill="none" xmlns="http://www.w3.org/2000/svg">
<path d="M12 19.25C10.2694 19.25 8.57769 18.7368 7.13876 17.7754C5.69983 16.8139 4.57832 15.4473 3.91606 13.8485C3.25379 12.2496 3.08051 10.4903 3.41813 8.79296C3.75575 7.09563 4.58911 5.53653 5.81282 4.31282C7.03653 3.08911 8.59563 2.25575 10.293 1.91813C11.9903 1.58051 13.7496 1.75379 15.3485 2.41606C16.9473 3.07832 18.3139 4.19983 19.2754 5.63876C20.2368 7.07769 20.75 8.76942 20.75 10.5C20.7474 12.8198 19.8246 15.0439 18.1843 16.6843C16.5439 18.3246 14.3198 19.2474 12 19.25ZM12 3.25C10.5661 3.25 9.16438 3.67521 7.97212 4.47185C6.77986 5.26849 5.85061 6.40078 5.30188 7.72555C4.75314 9.05031 4.60957 10.508 4.88931 11.9144C5.16905 13.3208 5.85955 14.6126 6.87348 15.6265C7.88741 16.6405 9.17924 17.331 10.5856 17.6107C11.992 17.8904 13.4497 17.7469 14.7745 17.1981C16.0992 16.6494 17.2315 15.7201 18.0282 14.5279C18.8248 13.3356 19.25 11.9339 19.25 10.5C19.2474 8.578 18.4827 6.73547 17.1236 5.3764C15.7645 4.01734 13.922 3.25265 12 3.25Z" fill="white"/>
<path d="M12 14.25C11.2583 14.25 10.5333 14.0301 9.91661 13.618C9.29993 13.206 8.81928 12.6203 8.53545 11.9351C8.25163 11.2498 8.17736 10.4958 8.32206 9.76841C8.46675 9.04098 8.8239 8.3728 9.34835 7.84835C9.8728 7.3239 10.541 6.96675 11.2684 6.82206C11.9958 6.67736 12.7498 6.75162 13.4351 7.03545C14.1203 7.31928 14.706 7.79993 15.118 8.41661C15.5301 9.0333 15.75 9.75832 15.75 10.5C15.75 11.4946 15.3549 12.4484 14.6517 13.1517C13.9484 13.8549 12.9946 14.25 12 14.25ZM12 8.25C11.555 8.25 11.12 8.38196 10.75 8.62919C10.38 8.87643 10.0916 9.22783 9.92127 9.63896C9.75098 10.0501 9.70642 10.5025 9.79323 10.939C9.88005 11.3754 10.0943 11.7763 10.409 12.091C10.7237 12.4057 11.1246 12.62 11.561 12.7068C11.9975 12.7936 12.4499 12.749 12.861 12.5787C13.2722 12.4084 13.6236 12.12 13.8708 11.75C14.118 11.38 14.25 10.945 14.25 10.5C14.25 9.90326 14.0129 9.33097 13.591 8.90901C13.169 8.48705 12.5967 8.25 12 8.25Z" fill="white"/>
<path d="M22 22.25H2C1.85599 22.2482 1.71552 22.2051 1.59537 22.1257C1.47523 22.0462 1.38049 21.9339 1.32249 21.8021C1.26448 21.6702 1.24566 21.5245 1.26827 21.3823C1.29089 21.24 1.35398 21.1073 1.45 21L6.07 15.93C6.20731 15.8025 6.38733 15.7311 6.57466 15.7297C6.76198 15.7283 6.94305 15.797 7.08223 15.9224C7.22141 16.0478 7.30863 16.2208 7.32672 16.4072C7.34482 16.5937 7.29248 16.7801 7.18 16.93L3.7 20.75H20.38L17.12 16.91C17.0543 16.8351 17.0041 16.748 16.9721 16.6538C16.94 16.5595 16.9269 16.4598 16.9334 16.3605C16.9399 16.2611 16.9659 16.164 17.0099 16.0747C17.054 15.9854 17.1152 15.9056 17.19 15.84C17.2649 15.7743 17.3519 15.724 17.4462 15.692C17.5405 15.66 17.6401 15.6469 17.7395 15.6534C17.8389 15.6599 17.936 15.6859 18.0253 15.7299C18.1146 15.7739 18.1943 15.8351 18.26 15.91L22.57 21C22.6617 21.1095 22.7206 21.2426 22.74 21.3841C22.7595 21.5256 22.7387 21.6697 22.68 21.8C22.6221 21.9326 22.5272 22.0456 22.4065 22.1254C22.2858 22.2053 22.1447 22.2485 22 22.25Z" fill="white"/>
</svg>
