<svg width="24" height="24" viewBox="0 0 24 24" fill="none" xmlns="http://www.w3.org/2000/svg">
<path d="M6.04998 16.6401C5.92139 16.64 5.79499 16.6068 5.68291 16.5438C5.57083 16.4807 5.47685 16.3899 5.40998 16.2801C4.67584 15.0697 4.24633 13.6993 4.15829 12.2864C4.07026 10.8736 4.32634 9.46042 4.90456 8.16829C5.48277 6.87615 6.36586 5.7436 7.47804 4.86781C8.59022 3.99202 9.89828 3.39915 11.29 3.14007C11.3908 3.11185 11.4964 3.10505 11.6 3.12009C11.7035 3.13513 11.8028 3.17169 11.8914 3.22742C11.9801 3.28314 12.056 3.35679 12.1144 3.44364C12.1729 3.53049 12.2125 3.62861 12.2307 3.73168C12.2489 3.83475 12.2454 3.9405 12.2203 4.04212C12.1952 4.14374 12.1491 4.23899 12.085 4.32172C12.0209 4.40446 11.9401 4.47286 11.848 4.52252C11.7559 4.57218 11.6543 4.60201 11.55 4.61007C10.181 4.86234 8.91422 5.50554 7.90276 6.46199C6.89129 7.41845 6.17833 8.64727 5.84998 10.0001C5.39682 11.8693 5.69863 13.8418 6.68998 15.4901C6.784 15.6571 6.81049 15.8539 6.76399 16.0398C6.7175 16.2258 6.60156 16.3869 6.43998 16.4901C6.32895 16.5798 6.1925 16.6322 6.04998 16.6401Z" fill="white"/>
<path d="M12.89 20.4901C11.4958 20.4817 10.1241 20.1388 8.88998 19.4901C8.72322 19.3934 8.60012 19.2361 8.54624 19.051C8.49236 18.8659 8.51184 18.6671 8.60062 18.496C8.6894 18.3249 8.84068 18.1945 9.02304 18.132C9.2054 18.0694 9.40485 18.0795 9.57998 18.1601C11.0173 18.901 12.6599 19.1437 14.25 18.8501C15.7835 18.5651 17.1838 17.7917 18.2417 16.6455C19.2997 15.4992 19.9585 14.0416 20.12 12.4901C20.1426 12.2918 20.2424 12.1104 20.3977 11.985C20.553 11.8597 20.7514 11.8004 20.95 11.8201C21.1474 11.8403 21.3288 11.938 21.4544 12.0917C21.58 12.2454 21.6395 12.4426 21.62 12.6401C21.4203 14.5148 20.6218 16.2752 19.3429 17.6604C18.064 19.0455 16.3728 19.9817 14.52 20.3301C13.982 20.4287 13.4368 20.4823 12.89 20.4901Z" fill="white"/>
<path d="M5.13998 21C4.95086 20.9948 4.76475 20.9514 4.59287 20.8724C4.421 20.7933 4.26693 20.6802 4.13998 20.54C3.94305 20.3419 3.80941 20.0897 3.756 19.8156C3.70259 19.5414 3.73181 19.2575 3.83998 19L5.36998 15.58C5.45353 15.4025 5.6033 15.2648 5.78718 15.1964C5.97106 15.1281 6.1744 15.1345 6.35361 15.2143C6.53282 15.2941 6.67364 15.4409 6.74586 15.6233C6.81809 15.8057 6.81598 16.0091 6.73998 16.19L5.28998 19.45L8.99998 18.14C9.09327 18.1032 9.19299 18.0855 9.29324 18.088C9.39349 18.0904 9.49222 18.113 9.58361 18.1542C9.675 18.1955 9.75719 18.2547 9.82531 18.3283C9.89343 18.4019 9.9461 18.4884 9.98021 18.5827C10.0143 18.6769 10.0292 18.7771 10.0239 18.8773C10.0186 18.9774 9.99329 19.0755 9.94945 19.1657C9.90561 19.2558 9.84413 19.3363 9.76864 19.4023C9.69316 19.4683 9.6052 19.5185 9.50998 19.55L5.61998 20.92C5.46609 20.9753 5.30348 21.0024 5.13998 21Z" fill="white"/>
<path d="M20.14 7.55005H14.36C14.1611 7.55005 13.9703 7.47103 13.8297 7.33038C13.689 7.18973 13.61 6.99896 13.61 6.80005C13.61 6.60114 13.689 6.41037 13.8297 6.26972C13.9703 6.12907 14.1611 6.05005 14.36 6.05005H20.14C20.3389 6.05005 20.5297 6.12907 20.6703 6.26972C20.811 6.41037 20.89 6.60114 20.89 6.80005C20.89 6.99896 20.811 7.18973 20.6703 7.33038C20.5297 7.47103 20.3389 7.55005 20.14 7.55005Z" fill="white"/>
<path d="M17.25 10.4402C17.0511 10.4402 16.8603 10.3611 16.7197 10.2205C16.579 10.0798 16.5 9.88907 16.5 9.69016V3.91016C16.5 3.71124 16.579 3.52048 16.7197 3.37983C16.8603 3.23917 17.0511 3.16016 17.25 3.16016C17.4489 3.16016 17.6397 3.23917 17.7803 3.37983C17.921 3.52048 18 3.71124 18 3.91016V9.69016C18 9.88907 17.921 10.0798 17.7803 10.2205C17.6397 10.3611 17.4489 10.4402 17.25 10.4402Z" fill="white"/>
</svg>
