<svg width="24" height="24" viewBox="0 0 24 24" fill="none" xmlns="http://www.w3.org/2000/svg">
<path d="M11.56 22.12C9.47143 22.12 7.42977 21.5007 5.69318 20.3403C3.9566 19.18 2.6031 17.5307 1.80384 15.6011C1.00458 13.6716 0.795452 11.5483 1.20291 9.49985C1.61037 7.45141 2.61611 5.5698 4.09296 4.09296C5.5698 2.61611 7.45141 1.61037 9.49985 1.20291C11.5483 0.795452 13.6716 1.00458 15.6011 1.80384C17.5307 2.6031 19.18 3.9566 20.3403 5.69318C21.5007 7.42977 22.12 9.47143 22.12 11.56C22.1147 14.3591 21.0005 17.042 19.0212 19.0212C17.042 21.0005 14.3591 22.1147 11.56 22.12ZM11.56 2.5C9.76811 2.5 8.01645 3.03136 6.52654 4.02689C5.03663 5.02242 3.87539 6.43739 3.18966 8.09289C2.50393 9.74839 2.32451 11.5701 2.67409 13.3275C3.02367 15.085 3.88655 16.6993 5.15362 17.9664C6.42068 19.2335 8.03502 20.0963 9.79249 20.4459C11.55 20.7955 13.3716 20.6161 15.0271 19.9304C16.6826 19.2446 18.0976 18.0834 19.0931 16.5935C20.0886 15.1036 20.62 13.3519 20.62 11.56C20.62 9.15714 19.6655 6.8527 17.9664 5.15362C16.2673 3.45454 13.9629 2.5 11.56 2.5Z" fill="white"/>
<path d="M7.66998 15.76C7.07664 15.76 6.49662 15.5841 6.00327 15.2544C5.50993 14.9248 5.12541 14.4562 4.89835 13.9081C4.67128 13.3599 4.61187 12.7567 4.72763 12.1747C4.84338 11.5928 5.12911 11.0582 5.54866 10.6387C5.96822 10.2191 6.50277 9.93341 7.08471 9.81766C7.66666 9.7019 8.26986 9.76131 8.81803 9.98837C9.36621 10.2154 9.83475 10.6 10.1644 11.0933C10.494 11.5866 10.67 12.1667 10.67 12.76C10.67 13.5557 10.3539 14.3187 9.7913 14.8813C9.2287 15.4439 8.46563 15.76 7.66998 15.76ZM7.66998 11.26C7.37331 11.26 7.0833 11.348 6.83663 11.5128C6.58996 11.6776 6.3977 11.9119 6.28417 12.186C6.17063 12.4601 6.14093 12.7617 6.19881 13.0526C6.25668 13.3436 6.39955 13.6109 6.60932 13.8207C6.8191 14.0305 7.08638 14.1733 7.37735 14.2312C7.66832 14.2891 7.96992 14.2594 8.24401 14.1458C8.5181 14.0323 8.75237 13.84 8.91719 13.5934C9.08201 13.3467 9.16998 13.0567 9.16998 12.76C9.16736 12.363 9.00849 11.983 8.72775 11.7022C8.44701 11.4215 8.067 11.2626 7.66998 11.26Z" fill="white"/>
<path d="M15.45 15.76C14.8567 15.76 14.2767 15.5841 13.7833 15.2544C13.29 14.9248 12.9054 14.4562 12.6784 13.9081C12.4513 13.3599 12.3919 12.7567 12.5077 12.1747C12.6234 11.5928 12.9091 11.0582 13.3287 10.6387C13.7483 10.2191 14.2828 9.93341 14.8647 9.81766C15.4467 9.7019 16.0499 9.76131 16.5981 9.98837C17.1462 10.2154 17.6148 10.6 17.9444 11.0933C18.2741 11.5866 18.45 12.1667 18.45 12.76C18.45 13.5557 18.1339 14.3187 17.5713 14.8813C17.0087 15.4439 16.2457 15.76 15.45 15.76ZM15.45 11.26C15.1533 11.26 14.8633 11.348 14.6167 11.5128C14.37 11.6776 14.1777 11.9119 14.0642 12.186C13.9507 12.4601 13.921 12.7617 13.9788 13.0526C14.0367 13.3436 14.1796 13.6109 14.3894 13.8207C14.5991 14.0305 14.8664 14.1733 15.1574 14.2312C15.4483 14.2891 15.7499 14.2594 16.024 14.1458C16.2981 14.0323 16.5324 13.84 16.6972 13.5934C16.862 13.3467 16.95 13.0567 16.95 12.76C16.95 12.3622 16.792 11.9807 16.5107 11.6994C16.2294 11.418 15.8478 11.26 15.45 11.26Z" fill="white"/>
<path d="M1.98002 10.1699C1.78873 10.1781 1.60154 10.1129 1.45681 9.98755C1.31208 9.8622 1.22077 9.68625 1.20159 9.49574C1.18241 9.30524 1.23682 9.11461 1.35366 8.96293C1.4705 8.81125 1.64093 8.71 1.83002 8.67993C1.94002 8.65993 12.66 6.33993 15.56 2.42993C15.6766 2.28312 15.8439 2.18528 16.0289 2.15566C16.214 2.12605 16.4035 2.16681 16.56 2.26993C16.7049 2.38782 16.8013 2.55494 16.8308 2.7394C16.8604 2.92385 16.8209 3.11271 16.72 3.26993C13.56 7.68993 2.56002 10.0499 2.14002 10.1499L1.98002 10.1699Z" fill="white"/>
<path d="M18.56 8.56003C16.0351 8.47929 13.5468 7.93349 11.22 6.95003C11.0394 6.86525 10.8994 6.71288 10.8302 6.5258C10.761 6.33872 10.7681 6.13192 10.85 5.95003C10.8909 5.85972 10.9494 5.77843 11.022 5.71086C11.0945 5.64329 11.1798 5.59078 11.2728 5.55637C11.3658 5.52196 11.4647 5.50633 11.5637 5.51039C11.6628 5.51446 11.7601 5.53812 11.85 5.58003C11.85 5.58003 16.56 7.56003 20.4 6.85003C20.4966 6.83129 20.596 6.83201 20.6923 6.85215C20.7886 6.87229 20.88 6.91144 20.961 6.96731C21.042 7.02319 21.1111 7.09466 21.1641 7.17754C21.2172 7.26043 21.2532 7.35306 21.27 7.45003C21.2888 7.54724 21.2882 7.64722 21.2681 7.74419C21.2481 7.84117 21.2091 7.93321 21.1533 8.01503C21.0975 8.09684 21.0261 8.16679 20.9431 8.22086C20.8602 8.27492 20.7673 8.31203 20.67 8.33003C19.9756 8.47392 19.269 8.55094 18.56 8.56003Z" fill="white"/>
<path d="M13.2 13.5601H9.91998C9.72107 13.5601 9.53031 13.481 9.38965 13.3404C9.249 13.1997 9.16998 13.009 9.16998 12.8101C9.16998 12.6111 9.249 12.4204 9.38965 12.2797C9.53031 12.1391 9.72107 12.0601 9.91998 12.0601H13.2C13.3989 12.0601 13.5897 12.1391 13.7303 12.2797C13.871 12.4204 13.95 12.6111 13.95 12.8101C13.95 13.009 13.871 13.1997 13.7303 13.3404C13.5897 13.481 13.3989 13.5601 13.2 13.5601Z" fill="white"/>
<path d="M5.42002 13.5601H1.83002C1.6311 13.5601 1.44034 13.481 1.29969 13.3404C1.15903 13.1997 1.08002 13.009 1.08002 12.8101C1.08002 12.6111 1.15903 12.4204 1.29969 12.2797C1.44034 12.1391 1.6311 12.0601 1.83002 12.0601H5.42002C5.61893 12.0601 5.8097 12.1391 5.95035 12.2797C6.091 12.4204 6.17002 12.6111 6.17002 12.8101C6.17002 13.009 6.091 13.1997 5.95035 13.3404C5.8097 13.481 5.61893 13.5601 5.42002 13.5601Z" fill="white"/>
<path d="M21.3 13.5601H17.7C17.5011 13.5601 17.3103 13.481 17.1697 13.3404C17.029 13.1997 16.95 13.009 16.95 12.8101C16.95 12.6111 17.029 12.4204 17.1697 12.2797C17.3103 12.1391 17.5011 12.0601 17.7 12.0601H21.3C21.4989 12.0601 21.6897 12.1391 21.8303 12.2797C21.971 12.4204 22.05 12.6111 22.05 12.8101C22.05 13.009 21.971 13.1997 21.8303 13.3404C21.6897 13.481 21.4989 13.5601 21.3 13.5601Z" fill="white"/>
</svg>
