<svg width="24" height="24" viewBox="0 0 24 24" fill="none" xmlns="http://www.w3.org/2000/svg">
<path d="M11.8 22.3777C3.1 22.3777 3 13.7077 3 13.6177V5.52771C3.00056 5.38414 3.04232 5.24375 3.12032 5.12321C3.19831 5.00267 3.30927 4.90705 3.44 4.84771L11.44 1.06771C11.5408 1.02306 11.6498 1 11.76 1C11.8702 1 11.9792 1.02306 12.08 1.06771L20.13 4.84771C20.2589 4.9085 20.3677 5.00475 20.4439 5.12517C20.5201 5.2456 20.5603 5.38523 20.56 5.52771V13.6177C20.6 13.6877 20.5 22.3777 11.8 22.3777ZM4.5 6.00771V13.6177C4.5 13.9177 4.62 20.8777 11.8 20.8777C18.98 20.8777 19.1 13.8777 19.1 13.6177V6.00771L11.8 2.57771L4.5 6.00771Z" fill="white"/>
</svg>
