<svg width="24" height="24" viewBox="0 0 24 24" fill="none" xmlns="http://www.w3.org/2000/svg">
<path d="M8.93999 13.0799C8.82146 13.0773 8.70526 13.0465 8.60091 12.9902C8.49657 12.9339 8.40706 12.8537 8.33972 12.7561C8.27239 12.6585 8.22915 12.5463 8.21355 12.4288C8.19795 12.3113 8.21044 12.1917 8.24999 12.0799C8.29773 11.9669 8.37249 11.8672 8.46773 11.7897C8.56296 11.7123 8.67575 11.6594 8.7962 11.6357C8.91665 11.612 9.04108 11.6182 9.15856 11.6538C9.27604 11.6895 9.38298 11.7534 9.46999 11.8399C9.54117 11.9065 9.59594 11.9887 9.62999 12.0799C9.66954 12.1917 9.68203 12.3113 9.66644 12.4288C9.65084 12.5463 9.6076 12.6585 9.54026 12.7561C9.47293 12.8537 9.38342 12.9339 9.27907 12.9902C9.17473 13.0465 9.05852 13.0773 8.93999 13.0799Z" fill="white"/>
<path d="M14.51 13.1101C14.3112 13.1099 14.1205 13.0308 13.98 12.8901C13.9088 12.8235 13.8541 12.7414 13.82 12.6501C13.7801 12.5586 13.7597 12.4599 13.76 12.3601C13.7605 12.2604 13.7809 12.1618 13.82 12.0701C13.8541 11.9788 13.9088 11.8966 13.98 11.8301C14.1231 11.6943 14.3128 11.6187 14.51 11.6187C14.7072 11.6187 14.8969 11.6943 15.04 11.8301C15.1112 11.8966 15.166 11.9788 15.2 12.0701C15.2391 12.1618 15.2595 12.2604 15.26 12.3601C15.2603 12.4599 15.2399 12.5586 15.2 12.6501C15.166 12.7414 15.1112 12.8235 15.04 12.8901C14.8995 13.0308 14.7089 13.1099 14.51 13.1101Z" fill="white"/>
<path d="M11.77 22.86C11.2776 22.8601 10.7901 22.763 10.3353 22.5743C9.88059 22.3855 9.46758 22.1088 9.12002 21.76L2.00002 14.66C1.6511 14.3125 1.37424 13.8996 1.18533 13.4448C0.996417 12.9901 0.89917 12.5025 0.89917 12.01C0.89917 11.5176 0.996417 11.03 1.18533 10.5753C1.37424 10.1205 1.6511 9.70752 2.00002 9.36003L9.10002 2.26003C9.80315 1.55778 10.7563 1.16333 11.75 1.16333C12.7438 1.16333 13.6969 1.55778 14.4 2.26003L21.5 9.36003C22.2023 10.0632 22.5967 11.0163 22.5967 12.01C22.5967 13.0038 22.2023 13.9569 21.5 14.66L14.4 21.76C13.703 22.4595 12.7575 22.855 11.77 22.86ZM11.77 2.66003C11.4743 2.65807 11.1812 2.71548 10.9081 2.82884C10.635 2.94221 10.3874 3.10924 10.18 3.32003L3.08002 10.42C2.65867 10.8419 2.422 11.4138 2.422 12.01C2.422 12.6063 2.65867 13.1782 3.08002 13.6L10.18 20.7C10.6081 21.1096 11.1776 21.3381 11.77 21.3381C12.3624 21.3381 12.932 21.1096 13.36 20.7L20.46 13.6C20.8814 13.1782 21.118 12.6063 21.118 12.01C21.118 11.4138 20.8814 10.8419 20.46 10.42L13.36 3.32003C13.1526 3.10924 12.905 2.94221 12.6319 2.82884C12.3588 2.71548 12.0657 2.65807 11.77 2.66003Z" fill="white"/>
</svg>
