<svg width="24" height="24" viewBox="0 0 24 24" fill="none" xmlns="http://www.w3.org/2000/svg">
<path d="M12 21.75C10.0716 21.75 8.18657 21.1782 6.58319 20.1068C4.97982 19.0355 3.73013 17.5127 2.99218 15.7312C2.25422 13.9496 2.06114 11.9892 2.43735 10.0979C2.81355 8.20656 3.74215 6.46928 5.10571 5.10571C6.46928 3.74215 8.20656 2.81355 10.0979 2.43735C11.9892 2.06114 13.9496 2.25422 15.7312 2.99218C17.5127 3.73013 19.0355 4.97982 20.1068 6.58319C21.1782 8.18657 21.75 10.0716 21.75 12C21.7474 14.5851 20.7193 17.0635 18.8914 18.8914C17.0635 20.7193 14.5851 21.7474 12 21.75ZM12 3.75C10.3683 3.75 8.77326 4.23386 7.41655 5.14038C6.05984 6.0469 5.00242 7.33538 4.378 8.84287C3.75358 10.3504 3.5902 12.0092 3.90853 13.6095C4.22685 15.2098 5.01259 16.6799 6.16637 17.8336C7.32016 18.9874 8.79017 19.7732 10.3905 20.0915C11.9909 20.4098 13.6497 20.2464 15.1571 19.622C16.6646 18.9976 17.9531 17.9402 18.8596 16.5835C19.7661 15.2268 20.25 13.6317 20.25 12C20.2474 9.81278 19.3773 7.7159 17.8307 6.1693C16.2841 4.62269 14.1872 3.75265 12 3.75Z" fill="white"/>
<path d="M12 17.46C10.9201 17.46 9.86446 17.1398 8.96657 16.5399C8.06867 15.9399 7.36885 15.0872 6.9556 14.0895C6.54234 13.0918 6.43422 11.994 6.64489 10.9348C6.85557 9.87571 7.37558 8.90283 8.13918 8.13924C8.90277 7.37564 9.87565 6.85563 10.9348 6.64495C11.9939 6.43428 13.0917 6.54241 14.0894 6.95566C15.0871 7.36891 15.9399 8.06874 16.5398 8.96663C17.1398 9.86452 17.46 10.9202 17.46 12C17.4573 13.4473 16.8812 14.8345 15.8579 15.8579C14.8345 16.8813 13.4473 17.4574 12 17.46ZM12 8.00004C11.2089 8.00004 10.4355 8.23464 9.7777 8.67416C9.1199 9.11369 8.60721 9.7384 8.30446 10.4693C8.00171 11.2002 7.9225 12.0045 8.07684 12.7804C8.23118 13.5563 8.61214 14.2691 9.17155 14.8285C9.73096 15.3879 10.4437 15.7688 11.2196 15.9232C11.9955 16.0775 12.7998 15.9983 13.5307 15.6956C14.2616 15.3928 14.8863 14.8801 15.3259 14.2223C15.7654 13.5645 16 12.7912 16 12C16 10.9392 15.5786 9.92176 14.8284 9.17161C14.0783 8.42147 13.0608 8.00004 12 8.00004Z" fill="white"/>
<path d="M21 12.75H3C2.80109 12.75 2.61032 12.671 2.46967 12.5303C2.32902 12.3897 2.25 12.1989 2.25 12C2.25 11.8011 2.32902 11.6103 2.46967 11.4697C2.61032 11.329 2.80109 11.25 3 11.25H21C21.1989 11.25 21.3897 11.329 21.5303 11.4697C21.671 11.6103 21.75 11.8011 21.75 12C21.75 12.1989 21.671 12.3897 21.5303 12.5303C21.3897 12.671 21.1989 12.75 21 12.75Z" fill="white"/>
<path d="M12 21.75C11.8019 21.7474 11.6126 21.6676 11.4725 21.5275C11.3324 21.3874 11.2526 21.1981 11.25 21V3C11.25 2.80109 11.329 2.61032 11.4697 2.46967C11.6103 2.32902 11.8011 2.25 12 2.25C12.1989 2.25 12.3897 2.32902 12.5303 2.46967C12.671 2.61032 12.75 2.80109 12.75 3V21C12.7474 21.1981 12.6676 21.3874 12.5275 21.5275C12.3874 21.6676 12.1981 21.7474 12 21.75Z" fill="white"/>
</svg>
