<svg width="24" height="24" viewBox="0 0 24 24" fill="none" xmlns="http://www.w3.org/2000/svg">
<path d="M6.44998 11.85C6.35029 11.8495 6.2517 11.8291 6.15998 11.79C5.97894 11.7149 5.83508 11.5711 5.75998 11.39C5.70095 11.2531 5.68464 11.1016 5.71319 10.9553C5.74174 10.809 5.81382 10.6747 5.91998 10.57C5.98653 10.4988 6.06868 10.4441 6.15998 10.41C6.29993 10.3432 6.45717 10.3214 6.61003 10.3476C6.76289 10.3738 6.90386 10.4468 7.01353 10.5565C7.1232 10.6661 7.19618 10.8071 7.2224 10.96C7.24863 11.1128 7.22682 11.2701 7.15998 11.41C7.12593 11.5013 7.07116 11.5835 6.99998 11.65C6.92639 11.7185 6.83978 11.7715 6.74529 11.8059C6.65081 11.8402 6.55038 11.8552 6.44998 11.85Z" fill="white"/>
<path d="M10.42 19.92C8.6894 19.92 6.99768 19.4069 5.55875 18.4454C4.11982 17.4839 2.99831 16.1174 2.33604 14.5185C1.67377 12.9197 1.50049 11.1603 1.83812 9.46301C2.17574 7.76567 3.00909 6.20657 4.2328 4.98286C5.45651 3.75915 7.01561 2.9258 8.71295 2.58818C10.4103 2.25056 12.1696 2.42384 13.7685 3.0861C15.3673 3.74837 16.7339 4.86988 17.6953 6.30881C18.6568 7.74774 19.17 9.43946 19.17 11.17C19.17 13.4907 18.2481 15.7163 16.6072 17.3572C14.9662 18.9982 12.7406 19.92 10.42 19.92ZM10.42 3.92005C8.98607 3.92005 7.58436 4.34525 6.3921 5.14189C5.19985 5.93853 4.2706 7.07083 3.72186 8.39559C3.17312 9.72036 3.02955 11.1781 3.30929 12.5845C3.58904 13.9908 4.27953 15.2826 5.29346 16.2966C6.30739 17.3105 7.59922 18.001 9.00558 18.2807C10.4119 18.5605 11.8697 18.4169 13.1944 17.8682C14.5192 17.3194 15.6515 16.3902 16.4481 15.1979C17.2448 14.0057 17.67 12.604 17.67 11.17C17.6673 9.24804 16.9027 7.40551 15.5436 6.04645C14.1845 4.68738 12.342 3.92269 10.42 3.92005Z" fill="white"/>
<path d="M10.27 8.00004C10.0681 8.00034 9.87418 7.92133 9.72998 7.78004C9.59047 7.63468 9.51177 7.44151 9.50998 7.24004C9.51578 7.15715 9.53609 7.07592 9.56998 7.00004C9.61144 6.90968 9.66529 6.82554 9.72998 6.75004C9.87785 6.61997 10.068 6.54822 10.265 6.54822C10.4619 6.54822 10.6521 6.61997 10.8 6.75004C10.8788 6.82288 10.9462 6.90715 11 7.00004C11.0342 7.08977 11.0544 7.18419 11.06 7.28004C11.0603 7.48192 10.9813 7.67584 10.84 7.82004C10.6809 7.95238 10.4762 8.01702 10.27 8.00004Z" fill="white"/>
<path d="M14.28 11.6501C14.1802 11.6504 14.0815 11.63 13.99 11.5901C13.8987 11.556 13.8165 11.5013 13.75 11.4301C13.6792 11.3611 13.6215 11.2798 13.58 11.1901C13.548 11.0967 13.5312 10.9988 13.53 10.9001C13.5302 10.7013 13.6093 10.5106 13.75 10.3701C13.8906 10.2296 14.0812 10.1508 14.28 10.1508C14.4787 10.1508 14.6694 10.2296 14.81 10.3701C14.877 10.4439 14.931 10.5284 14.97 10.6201C15.0099 10.708 15.0304 10.8035 15.03 10.9001C15.0303 10.9999 15.0099 11.0986 14.97 11.1901C14.9321 11.2793 14.8778 11.3607 14.81 11.4301C14.6683 11.569 14.4784 11.6478 14.28 11.6501Z" fill="white"/>
<path d="M10.27 15.66C10.0681 15.6603 9.87418 15.5813 9.72998 15.44C9.58929 15.2995 9.51015 15.1089 9.50998 14.91C9.51429 14.712 9.59281 14.5229 9.72998 14.38C9.87686 14.2479 10.0674 14.1748 10.265 14.1748C10.4625 14.1748 10.6531 14.2479 10.8 14.38C10.9389 14.5217 11.0177 14.7116 11.02 14.91C11.0198 15.1089 10.9407 15.2995 10.8 15.44C10.6583 15.5789 10.4684 15.6577 10.27 15.66Z" fill="white"/>
<path d="M21.58 19.92H10C9.80109 19.92 9.61032 19.841 9.46967 19.7004C9.32902 19.5597 9.25 19.369 9.25 19.17C9.25 18.9711 9.32902 18.7804 9.46967 18.6397C9.61032 18.4991 9.80109 18.42 10 18.42H21.58C21.7789 18.42 21.9697 18.4991 22.1103 18.6397C22.251 18.7804 22.33 18.9711 22.33 19.17C22.33 19.369 22.251 19.5597 22.1103 19.7004C21.9697 19.841 21.7789 19.92 21.58 19.92Z" fill="white"/>
</svg>
