<svg width="24" height="24" viewBox="0 0 24 24" fill="none" xmlns="http://www.w3.org/2000/svg">
<path d="M18 15.38C17.9015 15.3805 17.8038 15.3612 17.7128 15.3235C17.6218 15.2857 17.5393 15.2301 17.47 15.16C17.3296 15.0194 17.2507 14.8287 17.2507 14.63C17.2507 14.4312 17.3296 14.2406 17.47 14.1C17.6584 13.9154 17.7663 13.6638 17.77 13.4V7.23999C17.7689 6.97765 17.6648 6.72625 17.48 6.53999C17.2938 6.35525 17.0424 6.2511 16.78 6.24999H10.6C10.3377 6.2511 10.0863 6.35525 9.90002 6.53999C9.82976 6.60959 9.74649 6.66467 9.65494 6.70209C9.5634 6.7395 9.46538 6.75852 9.36649 6.75806C9.16676 6.75712 8.97559 6.67688 8.83502 6.53499C8.69446 6.3931 8.61601 6.20118 8.61695 6.00145C8.61789 5.80173 8.69813 5.61055 8.84002 5.46999C9.30973 5.00749 9.94085 4.74572 10.6 4.73999H16.76C17.4204 4.73999 18.0538 5.00233 18.5207 5.46929C18.9877 5.93626 19.25 6.5696 19.25 7.22999V13.4C19.2508 13.7279 19.1856 14.0527 19.0585 14.355C18.9314 14.6574 18.7449 14.9311 18.51 15.16C18.4442 15.2291 18.3651 15.2841 18.2774 15.3219C18.1898 15.3597 18.0955 15.3795 18 15.38Z" fill="white"/>
<path d="M13.4 19.2601H7.24002C6.91266 19.2614 6.58827 19.1979 6.28558 19.0733C5.98288 18.9486 5.70786 18.7652 5.47638 18.5338C5.24489 18.3023 5.06153 18.0273 4.93687 17.7246C4.8122 17.4219 4.7487 17.0975 4.75002 16.7701V10.6001C4.75528 9.93961 5.02067 9.30781 5.48866 8.8417C5.95665 8.37558 6.58951 8.11272 7.25002 8.11011H13.4C14.059 8.11688 14.6897 8.3785 15.16 8.84011C15.6195 9.30368 15.8812 9.92746 15.89 10.5801V16.7601C15.8909 17.0872 15.8269 17.4112 15.7016 17.7133C15.5762 18.0155 15.3922 18.2897 15.16 18.5201C14.9311 18.755 14.6574 18.9415 14.3551 19.0686C14.0527 19.1957 13.728 19.2608 13.4 19.2601ZM7.23002 9.61011C6.97115 9.61381 6.72381 9.71777 6.54002 9.90011C6.35161 10.0847 6.24378 10.3363 6.24002 10.6001V16.7601C6.24002 17.0253 6.34538 17.2797 6.53291 17.4672C6.72045 17.6547 6.9748 17.7601 7.24002 17.7601H13.4C13.6638 17.7564 13.9154 17.6485 14.1 17.4601C14.2848 17.2738 14.3889 17.0224 14.39 16.7601V10.6001C14.39 10.3349 14.2847 10.0805 14.0971 9.893C13.9096 9.70546 13.6552 9.60011 13.39 9.60011H7.23002V9.61011Z" fill="white"/>
<path d="M14.62 10.1301C14.4212 10.1299 14.2305 10.0508 14.09 9.91007C14.0193 9.84113 13.963 9.75871 13.9246 9.66768C13.8862 9.57666 13.8665 9.47887 13.8665 9.38007C13.8665 9.28128 13.8862 9.18349 13.9246 9.09246C13.963 9.00143 14.0193 8.91902 14.09 8.85007L17.46 5.47007C17.6006 5.32962 17.7913 5.25073 17.99 5.25073C18.1888 5.25073 18.3794 5.32962 18.52 5.47007C18.6587 5.61364 18.7362 5.80545 18.7362 6.00507C18.7362 6.20469 18.6587 6.39651 18.52 6.54007L15.15 9.91007C15.0072 10.0472 14.818 10.1258 14.62 10.1301Z" fill="white"/>
<path d="M6.00003 10.1201C5.80118 10.1199 5.61055 10.0408 5.47003 9.90007C5.39927 9.83113 5.34304 9.74871 5.30464 9.65769C5.26624 9.56666 5.24646 9.46887 5.24646 9.37007C5.24646 9.27128 5.26624 9.17349 5.30464 9.08246C5.34304 8.99143 5.39927 8.90902 5.47003 8.84007L8.84003 5.47007C8.98066 5.32962 9.17128 5.25073 9.37003 5.25073C9.56878 5.25073 9.7594 5.32962 9.90003 5.47007C9.97079 5.53902 10.027 5.62143 10.0654 5.71246C10.1038 5.80349 10.1236 5.90128 10.1236 6.00007C10.1236 6.09887 10.1038 6.19666 10.0654 6.28768C10.027 6.37871 9.97079 6.46113 9.90003 6.53007L6.54003 9.90007C6.39467 10.0396 6.2015 10.1183 6.00003 10.1201Z" fill="white"/>
<path d="M14.63 18.75C14.432 18.7457 14.2429 18.6672 14.1 18.53C13.9596 18.3894 13.8807 18.1988 13.8807 18C13.8807 17.8013 13.9596 17.6107 14.1 17.47L17.47 14.1C17.5387 14.0264 17.6215 13.9672 17.7135 13.9263C17.8055 13.8853 17.9048 13.8632 18.0055 13.8614C18.1062 13.8597 18.2062 13.8782 18.2996 13.9159C18.393 13.9536 18.4778 14.0098 18.5491 14.081C18.6203 14.1522 18.6764 14.2371 18.7141 14.3304C18.7519 14.4238 18.7704 14.5239 18.7686 14.6246C18.7668 14.7253 18.7448 14.8246 18.7038 14.9166C18.6628 15.0086 18.6037 15.0914 18.53 15.16L15.16 18.53C15.0172 18.6672 14.828 18.7457 14.63 18.75Z" fill="white"/>
</svg>
