<svg width="24" height="24" viewBox="0 0 24 24" fill="none" xmlns="http://www.w3.org/2000/svg">
<path d="M19.89 9.65005H4.10997C3.36379 9.6064 2.66249 9.27922 2.14962 8.73547C1.63674 8.19172 1.35107 7.47251 1.35107 6.72505C1.35107 5.97758 1.63674 5.25838 2.14962 4.71463C2.66249 4.17088 3.36379 3.8437 4.10997 3.80005H19.89C20.6362 3.8437 21.3375 4.17088 21.8503 4.71463C22.3632 5.25838 22.6489 5.97758 22.6489 6.72505C22.6489 7.47251 22.3632 8.19172 21.8503 8.73547C21.3375 9.27922 20.6362 9.6064 19.89 9.65005ZM4.10997 5.30005C3.75265 5.33001 3.41962 5.49312 3.1769 5.75705C2.93417 6.02098 2.79945 6.36647 2.79945 6.72505C2.79945 7.08363 2.93417 7.42912 3.1769 7.69305C3.41962 7.95698 3.75265 8.12009 4.10997 8.15005H19.89C20.2473 8.12009 20.5803 7.95698 20.8231 7.69305C21.0658 7.42912 21.2005 7.08363 21.2005 6.72505C21.2005 6.36647 21.0658 6.02098 20.8231 5.75705C20.5803 5.49312 20.2473 5.33001 19.89 5.30005H4.10997Z" fill="white"/>
<path d="M19.29 20.2H4.71C4.5181 20.1898 4.33746 20.1063 4.20534 19.9667C4.07323 19.8271 3.99973 19.6422 4 19.45V8.90002C4 8.70111 4.07902 8.51035 4.21967 8.36969C4.36032 8.22904 4.55109 8.15002 4.75 8.15002H19.29C19.4819 8.16027 19.6625 8.24379 19.7947 8.38335C19.9268 8.52291 20.0003 8.70785 20 8.90002V19.45C20.0003 19.6422 19.9268 19.8271 19.7947 19.9667C19.6625 20.1063 19.4819 20.1898 19.29 20.2ZM5.46 18.7H18.54V9.70002H5.46V18.7Z" fill="white"/>
</svg>
