<svg width="24" height="24" viewBox="0 0 24 24" fill="none" xmlns="http://www.w3.org/2000/svg">
<path d="M17.66 21.9999H6.33999C5.24465 21.9999 4.19417 21.5648 3.41964 20.7903C2.64512 20.0157 2.20999 18.9652 2.20999 17.8699V6.5299C2.20999 5.43456 2.64512 4.38408 3.41964 3.60955C4.19417 2.83503 5.24465 2.3999 6.33999 2.3999H17.66C18.7553 2.3999 19.8058 2.83503 20.5803 3.60955C21.3549 4.38408 21.79 5.43456 21.79 6.5299V17.8499C21.7926 18.3939 21.6877 18.9331 21.4814 19.4365C21.275 19.9399 20.9712 20.3976 20.5874 20.7832C20.2037 21.1688 19.7475 21.4748 19.2451 21.6836C18.7427 21.8924 18.204 21.9999 17.66 21.9999ZM6.33999 3.8999C5.64247 3.8999 4.97352 4.17699 4.4803 4.67021C3.98708 5.16343 3.70999 5.83238 3.70999 6.5299V17.8499C3.70999 18.5474 3.98708 19.2164 4.4803 19.7096C4.97352 20.2028 5.64247 20.4799 6.33999 20.4799H17.66C18.3575 20.4799 19.0265 20.2028 19.5197 19.7096C20.0129 19.2164 20.29 18.5474 20.29 17.8499V6.5299C20.29 6.18453 20.222 5.84253 20.0898 5.52344C19.9576 5.20436 19.7639 4.91443 19.5197 4.67021C19.2755 4.42599 18.9855 4.23227 18.6665 4.1001C18.3474 3.96793 18.0054 3.8999 17.66 3.8999H6.33999Z" fill="white"/>
<path d="M18.13 12.1399C17.9319 12.1373 17.7426 12.0574 17.6025 11.9173C17.4624 11.7772 17.3826 11.588 17.38 11.3899C17.3502 11.0377 17.1893 10.7096 16.9291 10.4704C16.6689 10.2312 16.3284 10.0985 15.975 10.0985C15.6216 10.0985 15.281 10.2312 15.0208 10.4704C14.7606 10.7096 14.5997 11.0377 14.57 11.3899C14.57 11.5888 14.491 11.7796 14.3503 11.9202C14.2097 12.0609 14.0189 12.1399 13.82 12.1399C13.6211 12.1399 13.4303 12.0609 13.2896 11.9202C13.149 11.7796 13.07 11.5888 13.07 11.3899C13.1135 10.6489 13.4385 9.95253 13.9785 9.44328C14.5185 8.93403 15.2327 8.65039 15.975 8.65039C16.7172 8.65039 17.4314 8.93403 17.9715 9.44328C18.5115 9.95253 18.8365 10.6489 18.88 11.3899C18.8774 11.588 18.7975 11.7772 18.6574 11.9173C18.5173 12.0574 18.3281 12.1373 18.13 12.1399Z" fill="white"/>
<path d="M10.34 12.14C10.1419 12.1374 9.95261 12.0576 9.81251 11.9175C9.67242 11.7774 9.59257 11.5881 9.58998 11.39C9.58998 11.0187 9.44248 10.6626 9.17993 10.4C8.91738 10.1375 8.56128 9.98999 8.18998 9.98999C7.81867 9.98999 7.46258 10.1375 7.20003 10.4C6.93748 10.6626 6.78998 11.0187 6.78998 11.39C6.78998 11.5889 6.71096 11.7797 6.57031 11.9203C6.42966 12.061 6.23889 12.14 6.03998 12.14C5.84107 12.14 5.6503 12.061 5.50965 11.9203C5.369 11.7797 5.28998 11.5889 5.28998 11.39C5.28998 10.6209 5.59551 9.88324 6.13937 9.33938C6.68322 8.79553 7.42085 8.48999 8.18998 8.48999C8.95911 8.48999 9.69673 8.79553 10.2406 9.33938C10.7844 9.88324 11.09 10.6209 11.09 11.39C11.09 11.5889 11.011 11.7797 10.8703 11.9203C10.7297 12.061 10.5389 12.14 10.34 12.14Z" fill="white"/>
<path d="M16 17.6199H8.19C7.99109 17.6199 7.80032 17.5409 7.65967 17.4002C7.51902 17.2595 7.44 17.0688 7.44 16.8699C7.44 16.671 7.51902 16.4802 7.65967 16.3395C7.80032 16.1989 7.99109 16.1199 8.19 16.1199H16C16.1989 16.1199 16.3897 16.1989 16.5303 16.3395C16.671 16.4802 16.75 16.671 16.75 16.8699C16.75 17.0688 16.671 17.2595 16.5303 17.4002C16.3897 17.5409 16.1989 17.6199 16 17.6199Z" fill="white"/>
</svg>
