<svg width="24" height="24" viewBox="0 0 24 24" fill="none" xmlns="http://www.w3.org/2000/svg">
<path d="M19.6948 19.4999H19.6048C19.4083 19.4748 19.2294 19.374 19.1061 19.219C18.9828 19.064 18.9249 18.867 18.9448 18.6699C18.9854 18.3381 19.0054 18.0041 19.0048 17.6699V13.4199C19.0209 11.3726 18.2514 9.39698 16.8548 7.89988C16.2059 7.1919 15.4182 6.62502 14.5409 6.23449C13.6635 5.84397 12.7151 5.63817 11.7548 5.62988C9.76263 5.70805 7.88226 6.57099 6.524 8.03042C5.16575 9.48984 4.43987 11.4273 4.50478 13.4199V17.6799C4.50413 18.0141 4.52417 18.3481 4.56478 18.6799C4.57529 18.7784 4.56629 18.878 4.53831 18.973C4.51032 19.068 4.4639 19.1566 4.40168 19.2336C4.33947 19.3107 4.26268 19.3748 4.1757 19.4222C4.08873 19.4696 3.99327 19.4994 3.89478 19.5099C3.79629 19.5204 3.69669 19.5114 3.60168 19.4834C3.50667 19.4554 3.41809 19.409 3.34102 19.3468C3.26395 19.2846 3.19988 19.2078 3.15249 19.1208C3.10509 19.0338 3.07529 18.9384 3.06478 18.8399C3.02459 18.4579 3.00456 18.074 3.00478 17.6899V13.4199C2.96613 12.2346 3.16212 11.0533 3.58149 9.94397C4.00087 8.83465 4.63535 7.81915 5.44848 6.95584C6.2616 6.09253 7.23734 5.39844 8.31959 4.91347C9.40184 4.42849 10.5693 4.1622 11.7548 4.12988C12.9221 4.13514 14.0757 4.38221 15.1428 4.85552C16.2099 5.32883 17.1673 6.01811 17.9548 6.87988C19.6059 8.65603 20.5179 10.9948 20.5048 13.4199V17.6799C20.5067 18.0643 20.4833 18.4485 20.4348 18.8299C20.4173 19.0138 20.3317 19.1845 20.1948 19.3085C20.0578 19.4324 19.8795 19.5007 19.6948 19.4999Z" fill="white"/>
<path d="M19.6948 19.5H3.81476C3.61585 19.5 3.42508 19.421 3.28443 19.2803C3.14378 19.1397 3.06476 18.9489 3.06476 18.75C3.06476 18.5511 3.14378 18.3603 3.28443 18.2197C3.42508 18.079 3.61585 18 3.81476 18H19.6948C19.8937 18 20.0844 18.079 20.2251 18.2197C20.3657 18.3603 20.4448 18.5511 20.4448 18.75C20.4448 18.9489 20.3657 19.1397 20.2251 19.2803C20.0844 19.421 19.8937 19.5 19.6948 19.5Z" fill="white"/>
<path d="M11.7548 5.63C11.5558 5.63 11.3651 5.55098 11.2244 5.41033C11.0838 5.26968 11.0048 5.07891 11.0048 4.88V2.75C11.0048 2.55109 11.0838 2.36032 11.2244 2.21967C11.3651 2.07902 11.5558 2 11.7548 2C11.9537 2 12.1444 2.07902 12.2851 2.21967C12.4257 2.36032 12.5048 2.55109 12.5048 2.75V4.88C12.5048 5.07891 12.4257 5.26968 12.2851 5.41033C12.1444 5.55098 11.9537 5.63 11.7548 5.63Z" fill="white"/>
<path d="M11.7548 22.5C10.7602 22.5 9.80637 22.1049 9.10311 21.4017C8.39985 20.6984 8.00476 19.7446 8.00476 18.75C8.00476 18.5511 8.08378 18.3603 8.22443 18.2197C8.36508 18.079 8.55585 18 8.75476 18C8.95367 18 9.14444 18.079 9.28509 18.2197C9.42574 18.3603 9.50476 18.5511 9.50476 18.75C9.50476 19.3467 9.74181 19.919 10.1638 20.341C10.5857 20.7629 11.158 21 11.7548 21C12.3515 21 12.9238 20.7629 13.3458 20.341C13.7677 19.919 14.0048 19.3467 14.0048 18.75C14.0048 18.5511 14.0838 18.3603 14.2244 18.2197C14.3651 18.079 14.5558 18 14.7548 18C14.9537 18 15.1444 18.079 15.2851 18.2197C15.4257 18.3603 15.5048 18.5511 15.5048 18.75C15.5048 19.7446 15.1097 20.6984 14.4064 21.4017C13.7031 22.1049 12.7493 22.5 11.7548 22.5Z" fill="white"/>
</svg>
