<svg width="24" height="24" viewBox="0 0 24 24" fill="none" xmlns="http://www.w3.org/2000/svg">
<path d="M15 20.47H6.07998C5.17468 20.4673 4.30735 20.1059 3.66814 19.4648C3.02893 18.8237 2.66998 17.9553 2.66998 17.05V8.15999C2.66998 7.25468 3.02893 6.3863 3.66814 5.74521C4.30735 5.10413 5.17468 4.74264 6.07998 4.73999H8.74998C8.94889 4.73999 9.13966 4.81901 9.28031 4.95966C9.42096 5.10031 9.49998 5.29108 9.49998 5.48999C9.49998 5.6889 9.42096 5.87967 9.28031 6.02032C9.13966 6.16097 8.94889 6.23999 8.74998 6.23999H6.07998C5.5725 6.24263 5.08671 6.44608 4.7288 6.80587C4.37089 7.16565 4.16998 7.6525 4.16998 8.15999V17.05C4.16601 17.3038 4.21241 17.5559 4.3065 17.7916C4.40058 18.0274 4.54048 18.2422 4.71811 18.4235C4.89573 18.6049 5.10755 18.7492 5.34132 18.8481C5.57508 18.9471 5.82614 18.9987 6.07998 19H15C15.2521 19 15.5018 18.9503 15.7347 18.8538C15.9677 18.7574 16.1793 18.6159 16.3576 18.4376C16.5359 18.2593 16.6773 18.0477 16.7738 17.8147C16.8703 17.5818 16.92 17.3321 16.92 17.08V15.27C16.92 15.0711 16.999 14.8803 17.1397 14.7397C17.2803 14.599 17.4711 14.52 17.67 14.52C17.8689 14.52 18.0597 14.599 18.2003 14.7397C18.341 14.8803 18.42 15.0711 18.42 15.27V17.05C18.42 17.4991 18.3315 17.9438 18.1597 18.3588C17.9878 18.7737 17.7359 19.1507 17.4183 19.4683C17.1007 19.7859 16.7237 20.0378 16.3088 20.2097C15.8938 20.3815 15.4491 20.47 15 20.47Z" fill="white"/>
<path d="M17.63 8.77017C17.4369 8.7679 17.2519 8.69221 17.1126 8.55848C16.9733 8.42475 16.8901 8.24301 16.88 8.05017C16.8649 7.74776 16.777 7.45346 16.6238 7.1923C16.4706 6.93114 16.2566 6.71085 16 6.55017C15.7208 6.37205 15.4006 6.26874 15.07 6.25017C14.9715 6.24689 14.8746 6.22424 14.7848 6.18351C14.6951 6.14279 14.6143 6.08479 14.547 6.01282C14.4796 5.94086 14.4271 5.85634 14.3925 5.76409C14.3578 5.67184 14.3417 5.57366 14.345 5.47517C14.3482 5.37668 14.3709 5.2798 14.4116 5.19006C14.4523 5.10032 14.5103 5.01949 14.5823 4.95216C14.6543 4.88484 14.7388 4.83235 14.831 4.7977C14.9233 4.76304 15.0215 4.74689 15.12 4.75017C15.9726 4.78219 16.7819 5.13458 17.3862 5.73701C17.9904 6.33944 18.3453 7.1476 18.38 8.00017C18.384 8.09868 18.3685 8.19702 18.3345 8.28956C18.3005 8.38209 18.2486 8.46701 18.1817 8.53946C18.1148 8.6119 18.0343 8.67045 17.9448 8.71176C17.8553 8.75306 17.7585 8.77631 17.66 8.78017L17.63 8.77017Z" fill="white"/>
<path d="M13 13.36H10.53C10.3311 13.36 10.1403 13.281 9.99964 13.1403C9.85899 12.9997 9.77997 12.8089 9.77997 12.61V10.09C9.78014 9.89115 9.85928 9.70051 9.99997 9.56L15 4.56C15.0689 4.48924 15.1513 4.433 15.2424 4.39461C15.3334 4.35621 15.4312 4.33643 15.53 4.33643C15.6288 4.33643 15.7266 4.35621 15.8176 4.39461C15.9086 4.433 15.991 4.48924 16.06 4.56L16.92 5.42C16.9946 5.49425 17.0527 5.58337 17.0906 5.68158C17.1285 5.77978 17.1454 5.88487 17.14 5.99C17.245 5.98523 17.3499 6.00233 17.4481 6.04019C17.5462 6.07806 17.6354 6.13588 17.71 6.21L18.58 7.07C18.7204 7.21062 18.7993 7.40124 18.7993 7.6C18.7993 7.79875 18.7204 7.98937 18.58 8.13L13.58 13.13C13.504 13.2057 13.4134 13.2651 13.3136 13.3047C13.2139 13.3442 13.1072 13.363 13 13.36ZM11.24 11.86H12.69L17 7.57L16.66 7.24C16.5868 7.16468 16.5296 7.07538 16.4918 6.97743C16.454 6.87949 16.4364 6.77492 16.44 6.67C16.3348 6.67538 16.2298 6.65857 16.1316 6.62067C16.0333 6.58277 15.9442 6.52461 15.87 6.45L15.54 6.12L11.28 10.4L11.24 11.86Z" fill="white"/>
<path d="M18.08 8.3201C17.8811 8.31993 17.6905 8.2408 17.55 8.1001L16.68 7.2401C16.6068 7.16479 16.5497 7.07548 16.5118 6.97754C16.474 6.87959 16.4564 6.77503 16.46 6.6701C16.3549 6.67549 16.2498 6.65868 16.1516 6.62078C16.0534 6.58287 15.9642 6.52472 15.89 6.4501L15 5.5901C14.8595 5.44948 14.7806 5.25885 14.7806 5.0601C14.7806 4.86135 14.8595 4.67073 15 4.5301L17.55 2.0001C17.6906 1.85965 17.8812 1.78076 18.08 1.78076C18.2787 1.78076 18.4694 1.85965 18.61 2.0001L21.11 4.5101C21.1807 4.57905 21.237 4.66146 21.2754 4.75249C21.3138 4.84352 21.3336 4.94131 21.3336 5.0401C21.3336 5.1389 21.3138 5.23669 21.2754 5.32771C21.237 5.41874 21.1807 5.50116 21.11 5.5701L18.61 8.1001C18.4695 8.2408 18.2788 8.31993 18.08 8.3201ZM17.21 6.0001C17.3088 5.99787 17.4069 6.01629 17.4982 6.05417C17.5895 6.09205 17.6718 6.14857 17.74 6.2201L18.08 6.5501L19.52 5.1001L18.08 3.6101L16.62 5.0601L16.95 5.3901C17.0246 5.46435 17.0828 5.55348 17.1207 5.65168C17.1586 5.74989 17.1754 5.85497 17.17 5.9601L17.21 6.0001Z" fill="white"/>
</svg>
