<svg width="24" height="24" viewBox="0 0 24 24" fill="none" xmlns="http://www.w3.org/2000/svg">
<path d="M18 19.75H6C5.00544 19.75 4.05161 19.3549 3.34835 18.6517C2.64509 17.9484 2.25 16.9946 2.25 16V8C2.25 7.00544 2.64509 6.05161 3.34835 5.34835C4.05161 4.64509 5.00544 4.25 6 4.25H18C18.9946 4.25 19.9484 4.64509 20.6517 5.34835C21.3549 6.05161 21.75 7.00544 21.75 8V16C21.75 16.9946 21.3549 17.9484 20.6517 18.6517C19.9484 19.3549 18.9946 19.75 18 19.75ZM6 5.75C5.40326 5.75 4.83097 5.98705 4.40901 6.40901C3.98705 6.83097 3.75 7.40326 3.75 8V16C3.75 16.5967 3.98705 17.169 4.40901 17.591C4.83097 18.0129 5.40326 18.25 6 18.25H18C18.5967 18.25 19.169 18.0129 19.591 17.591C20.0129 17.169 20.25 16.5967 20.25 16V8C20.25 7.40326 20.0129 6.83097 19.591 6.40901C19.169 5.98705 18.5967 5.75 18 5.75H6Z" fill="white"/>
<path d="M12 14.83C11.9207 14.8445 11.8393 14.8445 11.76 14.83L2.76 11.75C2.57868 11.681 2.43115 11.5444 2.34841 11.3689C2.26567 11.1934 2.25416 10.9927 2.31629 10.8089C2.37842 10.6251 2.50936 10.4725 2.6816 10.3832C2.85384 10.2939 3.05399 10.2749 3.24 10.33L12.01 13.33L20.77 10.49C20.9596 10.4305 21.1651 10.4486 21.3414 10.5405C21.5177 10.6324 21.6502 10.7905 21.71 10.98C21.7411 11.0732 21.7533 11.1717 21.7459 11.2696C21.7385 11.3676 21.7117 11.4631 21.667 11.5506C21.6224 11.6381 21.5607 11.7159 21.4857 11.7793C21.4106 11.8427 21.3237 11.8905 21.23 11.92L12.23 14.84C12.1532 14.8471 12.0759 14.8438 12 14.83Z" fill="white"/>
</svg>
