<svg width="24" height="24" viewBox="0 0 24 24" fill="none" xmlns="http://www.w3.org/2000/svg">
<path d="M12 21.75C10.0716 21.75 8.18657 21.1782 6.58319 20.1068C4.97982 19.0355 3.73013 17.5127 2.99218 15.7312C2.25422 13.9496 2.06114 11.9892 2.43735 10.0979C2.81355 8.20656 3.74215 6.46928 5.10571 5.10571C6.46928 3.74215 8.20656 2.81355 10.0979 2.43735C11.9892 2.06114 13.9496 2.25422 15.7312 2.99218C17.5127 3.73013 19.0355 4.97982 20.1068 6.58319C21.1782 8.18657 21.75 10.0716 21.75 12C21.7474 14.5851 20.7193 17.0635 18.8914 18.8914C17.0635 20.7193 14.5851 21.7474 12 21.75ZM12 3.75C10.3683 3.75 8.77326 4.23386 7.41655 5.14038C6.05984 6.0469 5.00242 7.33538 4.378 8.84287C3.75358 10.3504 3.5902 12.0092 3.90853 13.6095C4.22685 15.2098 5.01259 16.6799 6.16637 17.8336C7.32016 18.9874 8.79017 19.7732 10.3905 20.0915C11.9909 20.4098 13.6497 20.2464 15.1571 19.622C16.6646 18.9976 17.9531 17.9402 18.8596 16.5835C19.7661 15.2268 20.25 13.6317 20.25 12C20.2474 9.81278 19.3773 7.7159 17.8307 6.1693C16.2841 4.62269 14.1872 3.75265 12 3.75Z" fill="white"/>
<path d="M8.27002 16.7C8.08016 16.6981 7.89789 16.6252 7.75909 16.4956C7.62028 16.3661 7.535 16.1893 7.52002 16V12.63C7.52002 12.4311 7.59904 12.2403 7.73969 12.0997C7.88034 11.959 8.07111 11.88 8.27002 11.88C8.46893 11.88 8.6597 11.959 8.80035 12.0997C8.941 12.2403 9.02002 12.4311 9.02002 12.63V16C9.00732 16.1901 8.92273 16.3683 8.78343 16.4983C8.64413 16.6283 8.46057 16.7004 8.27002 16.7Z" fill="white"/>
<path d="M12 16.7C11.8019 16.6975 11.6126 16.6176 11.4725 16.4775C11.3324 16.3374 11.2526 16.1482 11.25 15.95V8.05005C11.25 7.85114 11.329 7.66037 11.4697 7.51972C11.6103 7.37907 11.8011 7.30005 12 7.30005C12.1989 7.30005 12.3897 7.37907 12.5303 7.51972C12.671 7.66037 12.75 7.85114 12.75 8.05005V16C12.735 16.1893 12.6497 16.3661 12.5109 16.4957C12.3721 16.6252 12.1899 16.6981 12 16.7Z" fill="white"/>
<path d="M15.73 16.7001C15.5429 16.6955 15.3643 16.6211 15.2293 16.4916C15.0942 16.3621 15.0124 16.1868 15 16.0001V10.8101C15 10.6111 15.079 10.4204 15.2197 10.2797C15.3603 10.1391 15.5511 10.0601 15.75 10.0601C15.9489 10.0601 16.1397 10.1391 16.2803 10.2797C16.421 10.4204 16.5 10.6111 16.5 10.8101V16.0001C16.4848 16.1928 16.3966 16.3725 16.2536 16.5025C16.1105 16.6326 15.9233 16.7032 15.73 16.7001Z" fill="white"/>
</svg>
