<svg width="24" height="24" viewBox="0 0 24 24" fill="none" xmlns="http://www.w3.org/2000/svg">
<path d="M11 22.6001C9.00289 22.6035 7.06645 21.9141 5.52074 20.6496C3.97503 19.385 2.91574 17.6235 2.52344 15.6653C2.13114 13.7072 2.43012 11.6735 3.36941 9.91112C4.30871 8.14872 5.83017 6.76663 7.67443 6.00046C9.5187 5.23428 11.5716 5.13145 13.4832 5.7095C15.3948 6.28754 17.0468 7.51068 18.1575 9.1704C19.2682 10.8301 19.7689 12.8237 19.5742 14.8113C19.3795 16.7988 18.5016 18.6574 17.09 20.0701C16.2926 20.8735 15.3437 21.5108 14.2984 21.9451C13.253 22.3794 12.1319 22.602 11 22.6001ZM11 6.85008C9.35116 6.8433 7.7511 7.40899 6.47292 8.45058C5.19475 9.49216 4.31769 10.9451 3.99147 12.5613C3.66524 14.1775 3.91008 15.8569 4.68417 17.3127C5.45827 18.7685 6.71364 19.9106 8.23599 20.5439C9.75835 21.1772 11.4533 21.2625 13.0316 20.7852C14.6098 20.308 15.9735 19.2978 16.8899 17.927C17.8062 16.5563 18.2184 14.91 18.0561 13.2692C17.8938 11.6284 17.1671 10.0947 16 8.93008C14.6742 7.60248 12.8762 6.85452 11 6.85008Z" fill="white"/>
<path d="M18.37 11.9999C18.172 11.9956 17.9828 11.9171 17.84 11.7799C17.7013 11.6363 17.6238 11.4445 17.6238 11.2449C17.6238 11.0453 17.7013 10.8534 17.84 10.7099L19.84 8.70988L16.31 5.20988L14.37 7.14988C14.2294 7.29033 14.0387 7.36922 13.84 7.36922C13.6412 7.36922 13.4506 7.29033 13.31 7.14988C13.2392 7.08093 13.183 6.99852 13.1446 6.90749C13.1062 6.81646 13.0864 6.71867 13.0864 6.61988C13.0864 6.52108 13.1062 6.42329 13.1446 6.33227C13.183 6.24124 13.2392 6.15882 13.31 6.08988L15.78 3.61988C15.9231 3.48413 16.1128 3.40845 16.31 3.40845C16.5072 3.40845 16.6969 3.48413 16.84 3.61988L21.41 8.18988C21.5504 8.3305 21.6293 8.52113 21.6293 8.71988C21.6293 8.91863 21.5504 9.10925 21.41 9.24988L18.9 11.7599C18.8321 11.8332 18.7502 11.8922 18.6592 11.9334C18.5682 11.9746 18.4699 11.9972 18.37 11.9999Z" fill="white"/>
<path d="M18.52 7.10997C18.343 7.11506 18.1699 7.05735 18.0313 6.94706C17.8928 6.83677 17.7977 6.68102 17.763 6.50737C17.7282 6.33373 17.7561 6.15339 17.8416 5.9983C17.927 5.84321 18.0646 5.72336 18.23 5.65997C18.23 5.65997 18.97 5.33997 19.09 4.75997C19.21 4.17998 18.8 3.49997 18 2.67997C17.9292 2.61103 17.873 2.52861 17.8346 2.43759C17.7962 2.34656 17.7764 2.24877 17.7764 2.14997C17.7764 2.05118 17.7962 1.95339 17.8346 1.86236C17.873 1.77134 17.9292 1.68892 18 1.61997C18.1406 1.47952 18.3312 1.40063 18.53 1.40063C18.7287 1.40063 18.9193 1.47952 19.06 1.61997C20.28 2.83997 20.78 3.99997 20.56 5.06997C20.4405 5.51638 20.2194 5.92914 19.9141 6.27606C19.6089 6.62298 19.2275 6.89468 18.8 7.06997C18.7106 7.10339 18.6151 7.11703 18.52 7.10997Z" fill="white"/>
</svg>
