<svg width="24" height="24" viewBox="0 0 24 24" fill="none" xmlns="http://www.w3.org/2000/svg">
<path d="M11 21.5899C9.29578 21.5898 7.62986 21.0845 6.21271 20.1379C4.79556 19.1914 3.69078 17.846 3.03798 16.2718C2.38518 14.6976 2.21365 12.9652 2.54507 11.2935C2.87648 9.62186 3.69597 8.08594 4.89998 6.87985C5.90172 5.87638 7.13554 5.13551 8.49208 4.7229C9.84862 4.31029 11.286 4.23868 12.6768 4.51442C14.0677 4.79016 15.369 5.40474 16.4655 6.30368C17.562 7.20262 18.4199 8.35817 18.963 9.66793C19.5061 10.9777 19.7178 12.4012 19.5792 13.8123C19.4407 15.2234 18.9561 16.5786 18.1686 17.7576C17.381 18.9367 16.3148 19.9033 15.0644 20.5718C13.8139 21.2403 12.4179 21.5899 11 21.5899ZM5.99998 7.93985C4.99448 8.93168 4.30667 10.2001 4.02402 11.5839C3.74137 12.9677 3.87665 14.4043 4.41267 15.711C4.94868 17.0177 5.8612 18.1354 7.03419 18.9221C8.20718 19.7088 9.58762 20.1288 11 20.1288C12.4123 20.1288 13.7928 19.7088 14.9658 18.9221C16.1388 18.1354 17.0513 17.0177 17.5873 15.711C18.1233 14.4043 18.2586 12.9677 17.9759 11.5839C17.6933 10.2001 17.0055 8.93168 16 7.93985C14.6689 6.62323 12.8722 5.88476 11 5.88476C9.12774 5.88476 7.33106 6.62323 5.99998 7.93985Z" fill="white"/>
<path d="M18.37 11C18.172 10.9957 17.9828 10.9171 17.84 10.78C17.6995 10.6393 17.6207 10.4487 17.6207 10.25C17.6207 10.0512 17.6995 9.8606 17.84 9.71997L19.84 7.71997L16.31 4.20997L14.37 6.14997C14.2294 6.29043 14.0387 6.36931 13.84 6.36931C13.6412 6.36931 13.4506 6.29043 13.31 6.14997C13.2392 6.08103 13.183 5.99861 13.1446 5.90759C13.1062 5.81656 13.0864 5.71877 13.0864 5.61997C13.0864 5.52118 13.1062 5.42339 13.1446 5.33236C13.183 5.24134 13.2392 5.15892 13.31 5.08997L15.78 2.61997C15.9206 2.47952 16.1112 2.40063 16.31 2.40063C16.5087 2.40063 16.6994 2.47952 16.84 2.61997L21.41 7.18997C21.5504 7.3306 21.6293 7.52122 21.6293 7.71997C21.6293 7.91873 21.5504 8.10935 21.41 8.24997L18.9 10.76C18.8321 10.8333 18.7502 10.8922 18.6592 10.9335C18.5682 10.9747 18.4699 10.9973 18.37 11Z" fill="white"/>
</svg>
