<svg width="24" height="24" viewBox="0 0 24 24" fill="none" xmlns="http://www.w3.org/2000/svg">
<path d="M11.55 18.46C11.3516 18.4577 11.1617 18.3789 11.02 18.24L5.32002 12.53C5.19494 12.3936 5.12555 12.2152 5.12555 12.03C5.12555 11.8449 5.19494 11.6665 5.32002 11.53L13.71 3.00003C13.8505 2.85934 14.0412 2.7802 14.24 2.78003H19.99C20.1863 2.78003 20.3745 2.85799 20.5133 2.99677C20.6521 3.13555 20.73 3.32377 20.73 3.52003L20.8 9.20003C20.8003 9.40191 20.7213 9.59583 20.58 9.74003L12.07 18.25C11.9282 18.3813 11.7432 18.456 11.55 18.46ZM6.90002 12L11.55 16.64L19.3 8.89003L19.25 4.27003H14.56L6.90002 12Z" fill="white"/>
<path d="M14.35 21.2501C14.2512 21.2523 14.1531 21.2339 14.0618 21.196C13.9705 21.1581 13.8882 21.1016 13.82 21.0301L2.52002 9.74005C2.38754 9.59788 2.31541 9.40983 2.31884 9.21553C2.32227 9.02123 2.40098 8.83584 2.5384 8.69843C2.67581 8.56102 2.86119 8.4823 3.05549 8.47888C3.2498 8.47545 3.43784 8.54757 3.58002 8.68005L14.88 20.0001C15.0205 20.1407 15.0994 20.3313 15.0994 20.5301C15.0994 20.7288 15.0205 20.9194 14.88 21.0601C14.7353 21.1907 14.5448 21.259 14.35 21.2501Z" fill="white"/>
<path d="M6.50004 21.1901C6.31635 21.1868 6.13954 21.1196 6.00004 21.0001L2.55004 17.5501C2.47887 17.4774 2.42279 17.3915 2.38503 17.2971C2.34727 17.2027 2.32858 17.1017 2.33004 17.0001C2.33004 16.5901 2.33004 16.5801 6.45004 12.5801C6.59066 12.4396 6.78128 12.3607 6.98004 12.3607C7.17879 12.3607 7.36941 12.4396 7.51004 12.5801C7.65049 12.7207 7.72938 12.9113 7.72938 13.1101C7.72938 13.3088 7.65049 13.4994 7.51004 13.6401C6.22004 14.9101 4.82003 16.2901 4.12004 17.0001L6.50004 19.3801L9.86003 16.0001C9.92898 15.9293 10.0114 15.8731 10.1024 15.8347C10.1934 15.7963 10.2912 15.7765 10.39 15.7765C10.4888 15.7765 10.5866 15.7963 10.6776 15.8347C10.7687 15.8731 10.8511 15.9293 10.92 16.0001C11.0605 16.1407 11.1394 16.3313 11.1394 16.5301C11.1394 16.7288 11.0605 16.9194 10.92 17.0601L7.00004 21.0001C6.86143 21.1211 6.68405 21.1885 6.50004 21.1901Z" fill="white"/>
</svg>
