<svg width="24" height="24" viewBox="0 0 24 24" fill="none" xmlns="http://www.w3.org/2000/svg">
<path d="M19.23 16.2H4.77C4.66984 16.2027 4.57016 16.1853 4.47684 16.1488C4.38353 16.1123 4.29847 16.0574 4.22669 15.9875C4.15492 15.9176 4.09788 15.834 4.05894 15.7417C4.02001 15.6494 3.99996 15.5502 4 15.45V5.89001C4.0013 5.65803 4.04845 5.4286 4.13874 5.21491C4.22902 5.00122 4.36066 4.80749 4.52609 4.64485C4.69151 4.48222 4.88745 4.35389 5.10264 4.26725C5.31784 4.18061 5.54804 4.13737 5.78 4.14001H18.22C18.452 4.13737 18.6822 4.18061 18.8974 4.26725C19.1125 4.35389 19.3085 4.48222 19.4739 4.64485C19.6393 4.80749 19.771 5.00122 19.8613 5.21491C19.9515 5.4286 19.9987 5.65803 20 5.89001V15.45C20 15.5502 19.98 15.6494 19.9411 15.7417C19.9021 15.834 19.8451 15.9176 19.7733 15.9875C19.7015 16.0574 19.6165 16.1123 19.5232 16.1488C19.4298 16.1853 19.3302 16.2027 19.23 16.2ZM5.52 14.7H18.52V5.89001C18.5174 5.8228 18.4889 5.75921 18.4404 5.71259C18.3919 5.66597 18.3273 5.63996 18.26 5.64001H5.78C5.71274 5.63996 5.64808 5.66597 5.5996 5.71259C5.55112 5.75921 5.52259 5.8228 5.52 5.89001V14.7Z" fill="white"/>
<path d="M20.75 19.86H3.25C3.05189 19.8574 2.86263 19.7775 2.72253 19.6374C2.58244 19.4973 2.50259 19.3081 2.5 19.11V15.45C2.50259 15.2518 2.58244 15.0626 2.72253 14.9225C2.86263 14.7824 3.05189 14.7025 3.25 14.7H20.75C20.9481 14.7025 21.1374 14.7824 21.2775 14.9225C21.4176 15.0626 21.4974 15.2518 21.5 15.45V19.11C21.4974 19.3081 21.4176 19.4973 21.2775 19.6374C21.1374 19.7775 20.9481 19.8574 20.75 19.86ZM4 18.36H20V16.2H4V18.36Z" fill="white"/>
<path d="M12 13.2301C11.3948 13.2301 10.8032 13.0506 10.3 12.7144C9.79674 12.3782 9.40454 11.9003 9.17293 11.3411C8.94133 10.782 8.88073 10.1667 8.9988 9.57313C9.11687 8.97955 9.40831 8.43431 9.83626 8.00636C10.2642 7.57841 10.8094 7.28698 11.403 7.16891C11.9966 7.05084 12.6119 7.11143 13.171 7.34304C13.7302 7.57464 14.2081 7.96685 14.5443 8.47006C14.8805 8.97328 15.06 9.5649 15.06 10.1701C15.06 10.572 14.9809 10.9699 14.8271 11.3411C14.6733 11.7124 14.4479 12.0497 14.1638 12.3339C13.8796 12.618 13.5423 12.8434 13.171 12.9972C12.7998 13.151 12.4018 13.2301 12 13.2301ZM12 8.61011C11.6915 8.61011 11.3899 8.7016 11.1333 8.87302C10.8768 9.04443 10.6768 9.28807 10.5588 9.57312C10.4407 9.85818 10.4098 10.1718 10.47 10.4744C10.5302 10.7771 10.6787 11.055 10.8969 11.2732C11.1151 11.4914 11.3931 11.6399 11.6957 11.7001C11.9983 11.7603 12.3119 11.7294 12.597 11.6114C12.882 11.4933 13.1257 11.2933 13.2971 11.0368C13.4685 10.7803 13.56 10.4786 13.56 10.1701C13.56 9.75637 13.3956 9.35958 13.1031 9.06702C12.8105 8.77447 12.4137 8.61011 12 8.61011Z" fill="white"/>
</svg>
