<svg width="24" height="24" viewBox="0 0 24 24" fill="none" xmlns="http://www.w3.org/2000/svg">
<path d="M12 10.51C11.8376 10.5107 11.6795 10.458 11.55 10.36L9.48999 8.81998C9.39557 8.75062 9.31846 8.66038 9.26469 8.5563C9.21091 8.45222 9.18192 8.33711 9.17999 8.21998V5.12998C9.18115 5.01269 9.2098 4.89731 9.26364 4.79311C9.31748 4.6889 9.395 4.59878 9.48999 4.52998L11.55 2.99998C11.6798 2.90261 11.8377 2.84998 12 2.84998C12.1623 2.84998 12.3202 2.90261 12.45 2.99998L14.51 4.54998C14.605 4.61878 14.6825 4.7089 14.7363 4.81311C14.7902 4.91731 14.8188 5.03269 14.82 5.14998V8.21998C14.8181 8.33711 14.7891 8.45222 14.7353 8.5563C14.6815 8.66038 14.6044 8.75062 14.51 8.81998L12.45 10.36C12.3205 10.458 12.1624 10.5107 12 10.51ZM10.68 7.83998L12 8.83998L13.32 7.83998V5.49998L12 4.51998L10.68 5.51998V7.83998Z" fill="white"/>
<path d="M12 21.1799C10.5938 21.1687 9.22221 20.7424 8.05733 19.9546C6.89246 19.1668 5.98616 18.0525 5.45212 16.7516C4.91809 15.4507 4.7801 14.0211 5.05547 12.642C5.33084 11.263 6.0073 9.99599 7 8.99994C7.13647 8.87485 7.31487 8.80546 7.5 8.80546C7.68512 8.80546 7.86352 8.87485 8 8.99994C8.14045 9.14056 8.21934 9.33119 8.21934 9.52994C8.21934 9.72869 8.14045 9.91931 8 10.0599C7.21461 10.85 6.6808 11.855 6.46591 12.9482C6.25103 14.0413 6.36469 15.1736 6.79255 16.2022C7.22042 17.2308 7.94333 18.1097 8.87009 18.7279C9.79685 19.3461 10.8859 19.6761 12 19.6761C13.114 19.6761 14.2031 19.3461 15.1299 18.7279C16.0567 18.1097 16.7796 17.2308 17.2074 16.2022C17.6353 15.1736 17.749 14.0413 17.5341 12.9482C17.3192 11.855 16.7854 10.85 16 10.0599C15.8595 9.91931 15.7807 9.72869 15.7807 9.52994C15.7807 9.33119 15.8595 9.14056 16 8.99994C16.0689 8.92918 16.1514 8.87294 16.2424 8.83455C16.3334 8.79615 16.4312 8.77637 16.53 8.77637C16.6288 8.77637 16.7266 8.79615 16.8176 8.83455C16.9086 8.87294 16.9911 8.92918 17.06 8.99994C18.0562 9.99962 18.7338 11.2721 19.0073 12.6567C19.2807 14.0413 19.1376 15.4758 18.5962 16.7792C18.0547 18.0825 17.1392 19.1961 15.9652 19.9794C14.7911 20.7627 13.4113 21.1804 12 21.1799Z" fill="white"/>
</svg>
