<svg width="24" height="24" viewBox="0 0 24 24" fill="none" xmlns="http://www.w3.org/2000/svg">
<path d="M12 12.76C11.8012 12.7598 11.6105 12.6807 11.47 12.54C11.3311 12.3983 11.2523 12.2084 11.25 12.01C11.2502 11.8111 11.3293 11.6205 11.47 11.48C11.6131 11.3442 11.8028 11.2686 12 11.2686C12.1972 11.2686 12.3869 11.3442 12.53 11.48C12.6707 11.6205 12.7498 11.8111 12.75 12.01C12.75 12.2089 12.671 12.3997 12.5303 12.5403C12.3897 12.681 12.1989 12.76 12 12.76Z" fill="white"/>
<path d="M12 22.8601C11.5075 22.8613 11.0196 22.7647 10.5647 22.5759C10.1098 22.387 9.69692 22.1098 9.35002 21.7601L2.25002 14.6601C1.9011 14.3126 1.62424 13.8996 1.43533 13.4449C1.24642 12.9901 1.14917 12.5025 1.14917 12.0101C1.14917 11.5177 1.24642 11.0301 1.43533 10.5753C1.62424 10.1206 1.9011 9.70759 2.25002 9.3601L9.35002 2.2601C10.063 1.57679 11.0124 1.19531 12 1.19531C12.9876 1.19531 13.937 1.57679 14.65 2.2601L21.75 9.3601C22.0989 9.70759 22.3758 10.1206 22.5647 10.5753C22.7536 11.0301 22.8509 11.5177 22.8509 12.0101C22.8509 12.5025 22.7536 12.9901 22.5647 13.4449C22.3758 13.8996 22.0989 14.3126 21.75 14.6601L14.65 21.7601C14.3031 22.1098 13.8902 22.387 13.4353 22.5759C12.9804 22.7647 12.4926 22.8613 12 22.8601ZM12 2.6601C11.7043 2.65814 11.4112 2.71555 11.1381 2.82891C10.865 2.94228 10.6174 3.10931 10.41 3.3201L3.31002 10.4201C2.88867 10.842 2.652 11.4138 2.652 12.0101C2.652 12.6064 2.88867 13.1782 3.31002 13.6001L10.41 20.7001C10.8381 21.1096 11.4076 21.3382 12 21.3382C12.5924 21.3382 13.162 21.1096 13.59 20.7001L20.69 13.6001C21.1114 13.1782 21.348 12.6064 21.348 12.0101C21.348 11.4138 21.1114 10.842 20.69 10.4201L13.59 3.3201C13.3826 3.10931 13.135 2.94228 12.8619 2.82891C12.5888 2.71555 12.2957 2.65814 12 2.6601Z" fill="white"/>
</svg>
