<svg width="24" height="24" viewBox="0 0 24 24" fill="none" xmlns="http://www.w3.org/2000/svg">
<path d="M16.79 21.9H6.79003C6.29458 21.9039 5.80324 21.8099 5.34424 21.6234C4.88524 21.4368 4.46764 21.1614 4.11544 20.8129C3.76324 20.4644 3.48338 20.0498 3.29196 19.5928C3.10054 19.1358 3.00133 18.6454 3.00003 18.15V8.14998C2.99474 7.65417 3.08783 7.16223 3.27392 6.70264C3.46 6.24304 3.73539 5.82491 4.08414 5.47244C4.43288 5.11997 4.84807 4.84017 5.30567 4.64921C5.76327 4.45826 6.25419 4.35996 6.75003 4.35999H16.75C17.7446 4.35999 18.6984 4.75507 19.4017 5.45833C20.1049 6.1616 20.5 7.11542 20.5 8.10998V18.11C20.508 19.1038 20.1223 20.0603 19.4271 20.7705C18.7319 21.4807 17.7838 21.8868 16.79 21.9ZM6.79003 5.89999C6.49454 5.89469 6.20091 5.94765 5.92589 6.05585C5.65088 6.16406 5.39988 6.32538 5.18722 6.5306C4.97457 6.73583 4.80442 6.98094 4.68651 7.25194C4.5686 7.52293 4.50524 7.8145 4.50003 8.10998V18.11C4.49472 18.4088 4.54899 18.7057 4.65968 18.9833C4.77037 19.2609 4.93527 19.5137 5.14473 19.7269C5.35419 19.9401 5.60403 20.1094 5.87965 20.225C6.15528 20.3405 6.45116 20.4 6.75003 20.4H16.75C17.0455 20.4 17.3381 20.3418 17.6111 20.2287C17.8841 20.1156 18.1321 19.9499 18.341 19.741C18.55 19.532 18.7157 19.284 18.8288 19.011C18.9418 18.738 19 18.4455 19 18.15V8.14998C19 7.85451 18.9418 7.56193 18.8288 7.28895C18.7157 7.01596 18.55 6.76793 18.341 6.55899C18.1321 6.35006 17.8841 6.18433 17.6111 6.07126C17.3381 5.95818 17.0455 5.89999 16.75 5.89999H6.79003Z" fill="white"/>
<path d="M19.79 14.11H3.79004C3.59113 14.11 3.40036 14.031 3.25971 13.8903C3.11906 13.7497 3.04004 13.5589 3.04004 13.36C3.04004 13.1611 3.11906 12.9703 3.25971 12.8297C3.40036 12.689 3.59113 12.61 3.79004 12.61H19.79C19.989 12.61 20.1797 12.689 20.3204 12.8297C20.461 12.9703 20.54 13.1611 20.54 13.36C20.54 13.5589 20.461 13.7497 20.3204 13.8903C20.1797 14.031 19.989 14.11 19.79 14.11Z" fill="white"/>
<path d="M11.7701 5.86003C11.5712 5.85986 11.3806 5.78073 11.2401 5.64003L8.61005 3.00003C8.48706 2.86253 8.41907 2.68452 8.41907 2.50003C8.41907 2.31555 8.48706 2.13754 8.61005 2.00003C8.679 1.92928 8.76141 1.87304 8.85244 1.83464C8.94346 1.79625 9.04126 1.77646 9.14005 1.77646C9.23884 1.77646 9.33664 1.79625 9.42766 1.83464C9.51869 1.87304 9.6011 1.92928 9.67005 2.00003L11.7701 4.00003L13.9301 1.85003C13.999 1.77928 14.0814 1.72304 14.1724 1.68464C14.2635 1.64625 14.3613 1.62646 14.4601 1.62646C14.5588 1.62646 14.6566 1.64625 14.7477 1.68464C14.8387 1.72304 14.9211 1.77928 14.9901 1.85003C15.0747 1.9197 15.1431 2.00707 15.1903 2.10602C15.2376 2.20496 15.2626 2.31306 15.2635 2.4227C15.2645 2.53234 15.2414 2.64086 15.1959 2.74061C15.1503 2.84036 15.0835 2.92891 15.0001 3.00003L12.3001 5.64003C12.1595 5.78073 11.9689 5.85986 11.7701 5.86003Z" fill="white"/>
<path d="M11.77 21.9C11.5719 21.8974 11.3826 21.8176 11.2426 21.6775C11.1025 21.5374 11.0226 21.3481 11.02 21.15V5.15002C11.02 4.95111 11.099 4.76035 11.2397 4.61969C11.3803 4.47904 11.5711 4.40002 11.77 4.40002C11.9689 4.40002 12.1597 4.47904 12.3003 4.61969C12.441 4.76035 12.52 4.95111 12.52 5.15002V21.15C12.5174 21.3481 12.4376 21.5374 12.2975 21.6775C12.1574 21.8176 11.9681 21.8974 11.77 21.9Z" fill="white"/>
</svg>
