<svg width="24" height="24" viewBox="0 0 24 24" fill="none" xmlns="http://www.w3.org/2000/svg">
<path d="M18 21.8101H6C5.80109 21.8101 5.61032 21.731 5.46967 21.5904C5.32902 21.4497 5.25 21.259 5.25 21.0601C5.25 20.8611 5.32902 20.6704 5.46967 20.5297C5.61032 20.3891 5.80109 20.3101 6 20.3101H18C18.1989 20.3101 18.3897 20.3891 18.5303 20.5297C18.671 20.6704 18.75 20.8611 18.75 21.0601C18.75 21.259 18.671 21.4497 18.5303 21.5904C18.3897 21.731 18.1989 21.8101 18 21.8101Z" fill="white"/>
<path d="M18.74 17.81H5.22C4.15913 17.81 3.14172 17.3886 2.39157 16.6385C1.64143 15.8883 1.22 14.8709 1.22 13.81V6.30005C1.22 5.23918 1.64143 4.22177 2.39157 3.47162C3.14172 2.72148 4.15913 2.30005 5.22 2.30005H18.74C19.8009 2.30005 20.8183 2.72148 21.5684 3.47162C22.3186 4.22177 22.74 5.23918 22.74 6.30005V13.82C22.7374 14.8792 22.3148 15.894 21.5649 16.642C20.815 17.39 19.7991 17.8101 18.74 17.81ZM5.22 3.81005C4.56042 3.81268 3.92861 4.07587 3.46221 4.54226C2.99582 5.00866 2.73263 5.64047 2.73 6.30005V13.82C2.73 14.4804 2.99234 15.1138 3.45931 15.5807C3.92627 16.0477 4.55961 16.31 5.22 16.31H18.74C19.4004 16.31 20.0337 16.0477 20.5007 15.5807C20.9677 15.1138 21.23 14.4804 21.23 13.82V6.30005C21.2274 5.64047 20.9642 5.00866 20.4978 4.54226C20.0314 4.07587 19.3996 3.81268 18.74 3.81005H5.22Z" fill="white"/>
<path d="M12 21.8101C11.8011 21.8101 11.6103 21.731 11.4697 21.5904C11.329 21.4497 11.25 21.259 11.25 21.0601V17.0601C11.25 16.8611 11.329 16.6704 11.4697 16.5297C11.6103 16.3891 11.8011 16.3101 12 16.3101C12.1989 16.3101 12.3897 16.3891 12.5303 16.5297C12.671 16.6704 12.75 16.8611 12.75 17.0601V21.0601C12.7513 21.1589 12.7329 21.2571 12.6957 21.3487C12.6584 21.4403 12.6032 21.5235 12.5333 21.5934C12.4634 21.6633 12.3802 21.7185 12.2886 21.7557C12.197 21.7929 12.0989 21.8114 12 21.8101Z" fill="white"/>
</svg>
