<svg width="24" height="24" viewBox="0 0 24 24" fill="none" xmlns="http://www.w3.org/2000/svg">
<path d="M18.6948 19.4999H18.6048C18.4083 19.4748 18.2294 19.374 18.1061 19.219C17.9828 19.064 17.9249 18.867 17.9448 18.6699C17.9854 18.3381 18.0054 18.0041 18.0048 17.6699V13.4199C18.0209 11.3726 17.2514 9.39698 15.8548 7.89988C15.2059 7.1919 14.4182 6.62502 13.5409 6.23449C12.6635 5.84397 11.7151 5.63817 10.7548 5.62988C8.76263 5.70805 6.88226 6.57099 5.524 8.03042C4.16575 9.48984 3.43987 11.4273 3.50478 13.4199V17.6799C3.50413 18.0141 3.52417 18.3481 3.56478 18.6799C3.57529 18.7784 3.56629 18.878 3.53831 18.973C3.51032 19.068 3.4639 19.1566 3.40168 19.2336C3.33947 19.3107 3.26268 19.3748 3.17571 19.4222C3.08873 19.4696 2.99327 19.4994 2.89478 19.5099C2.79629 19.5204 2.69669 19.5114 2.60168 19.4834C2.50667 19.4554 2.41809 19.409 2.34102 19.3468C2.26395 19.2846 2.19988 19.2078 2.15249 19.1208C2.10509 19.0338 2.07529 18.9384 2.06478 18.8399C2.02459 18.4579 2.00456 18.074 2.00478 17.6899V13.4199C1.96613 12.2346 2.16212 11.0533 2.58149 9.94397C3.00087 8.83465 3.63535 7.81915 4.44848 6.95584C5.2616 6.09253 6.23734 5.39844 7.31959 4.91347C8.40184 4.42849 9.56927 4.1622 10.7548 4.12988C11.9221 4.13514 13.0757 4.38221 14.1428 4.85552C15.2099 5.32883 16.1673 6.01811 16.9548 6.87988C18.6059 8.65603 19.5179 10.9948 19.5048 13.4199V17.6799C19.5067 18.0643 19.4833 18.4485 19.4348 18.8299C19.4173 19.0138 19.3317 19.1845 19.1948 19.3085C19.0578 19.4324 18.8795 19.5007 18.6948 19.4999Z" fill="white"/>
<path d="M18.6948 19.5H2.81476C2.61585 19.5 2.42508 19.421 2.28443 19.2803C2.14378 19.1397 2.06476 18.9489 2.06476 18.75C2.06476 18.5511 2.14378 18.3603 2.28443 18.2197C2.42508 18.079 2.61585 18 2.81476 18H18.6948C18.8937 18 19.0844 18.079 19.2251 18.2197C19.3657 18.3603 19.4448 18.5511 19.4448 18.75C19.4448 18.9489 19.3657 19.1397 19.2251 19.2803C19.0844 19.421 18.8937 19.5 18.6948 19.5Z" fill="white"/>
<path d="M10.7548 5.63C10.5558 5.63 10.3651 5.55098 10.2244 5.41033C10.0838 5.26968 10.0048 5.07891 10.0048 4.88V2.75C10.0048 2.55109 10.0838 2.36032 10.2244 2.21967C10.3651 2.07902 10.5558 2 10.7548 2C10.9537 2 11.1444 2.07902 11.2851 2.21967C11.4257 2.36032 11.5048 2.55109 11.5048 2.75V4.88C11.5048 5.07891 11.4257 5.26968 11.2851 5.41033C11.1444 5.55098 10.9537 5.63 10.7548 5.63Z" fill="white"/>
<path d="M10.7548 22.5C9.7602 22.5 8.80637 22.1049 8.10311 21.4017C7.39985 20.6984 7.00476 19.7446 7.00476 18.75C7.00476 18.5511 7.08378 18.3603 7.22443 18.2197C7.36508 18.079 7.55585 18 7.75476 18C7.95367 18 8.14444 18.079 8.28509 18.2197C8.42574 18.3603 8.50476 18.5511 8.50476 18.75C8.50476 19.3467 8.74181 19.919 9.16377 20.341C9.58573 20.7629 10.158 21 10.7548 21C11.3515 21 11.9238 20.7629 12.3458 20.341C12.7677 19.919 13.0048 19.3467 13.0048 18.75C13.0048 18.5511 13.0838 18.3603 13.2244 18.2197C13.3651 18.079 13.5558 18 13.7548 18C13.9537 18 14.1444 18.079 14.2851 18.2197C14.4257 18.3603 14.5048 18.5511 14.5048 18.75C14.5048 19.7446 14.1097 20.6984 13.4064 21.4017C12.7031 22.1049 11.7493 22.5 10.7548 22.5Z" fill="white"/>
<path d="M20.2548 21.5001C20.1562 21.5006 20.0586 21.4813 19.9676 21.4436C19.8766 21.4058 19.794 21.3502 19.7248 21.2801L2.22479 3.78009C2.09231 3.63792 2.02019 3.44987 2.02362 3.25557C2.02704 3.06127 2.10576 2.87588 2.24317 2.73847C2.38058 2.60106 2.56597 2.52234 2.76027 2.51892C2.95457 2.51549 3.14262 2.58761 3.28479 2.72009L20.7848 20.2501C20.9252 20.3907 21.0041 20.5813 21.0041 20.7801C21.0041 20.9788 20.9252 21.1695 20.7848 21.3101C20.6401 21.4408 20.4496 21.5091 20.2548 21.5001Z" fill="white"/>
</svg>
