<svg width="24" height="24" viewBox="0 0 24 24" fill="none" xmlns="http://www.w3.org/2000/svg">
<path d="M11.75 21.5C9.82164 21.5 7.93657 20.9282 6.33319 19.8568C4.72982 18.7855 3.48013 17.2627 2.74218 15.4812C2.00422 13.6996 1.81114 11.7392 2.18735 9.84787C2.56355 7.95656 3.49215 6.21928 4.85571 4.85571C6.21928 3.49215 7.95656 2.56355 9.84787 2.18735C11.7392 1.81114 13.6996 2.00422 15.4812 2.74218C17.2627 3.48013 18.7855 4.72982 19.8568 6.33319C20.9282 7.93657 21.5 9.82164 21.5 11.75C21.4974 14.3351 20.4693 16.8135 18.6414 18.6414C16.8135 20.4693 14.3351 21.4974 11.75 21.5ZM11.75 3.5C10.1183 3.5 8.52326 3.98386 7.16655 4.89038C5.80984 5.7969 4.75242 7.08538 4.128 8.59287C3.50358 10.1004 3.3402 11.7592 3.65853 13.3595C3.97685 14.9598 4.76259 16.4299 5.91637 17.5836C7.07016 18.7374 8.54017 19.5232 10.1405 19.8415C11.7409 20.1598 13.3997 19.9964 14.9071 19.372C16.4146 18.7476 17.7031 17.6902 18.6096 16.3335C19.5161 14.9768 20 13.3817 20 11.75C19.9974 9.56278 19.1273 7.4659 17.5807 5.9193C16.0341 4.37269 13.9372 3.50265 11.75 3.5Z" fill="white"/>
<path d="M5.33999 15.29C4.5266 15.2917 3.71646 15.1875 2.92999 14.98C2.834 14.9565 2.74358 14.9144 2.66393 14.8559C2.58428 14.7975 2.51696 14.7238 2.46586 14.6393C2.41475 14.5547 2.38085 14.4609 2.36612 14.3632C2.35138 14.2655 2.35609 14.1658 2.37999 14.07C2.43176 13.8793 2.55571 13.7164 2.72557 13.6156C2.89544 13.5148 3.09787 13.4841 3.28999 13.53C3.96181 13.6865 4.65024 13.7604 5.33999 13.75C7.52721 13.7473 9.62409 12.8773 11.1707 11.3307C12.7173 9.78407 13.5873 7.68719 13.59 5.49996C13.5934 4.72126 13.4822 3.9463 13.26 3.19996C13.2344 3.10213 13.2283 3.00021 13.2421 2.90002C13.2559 2.79983 13.2892 2.70334 13.3403 2.61605C13.3914 2.52877 13.4591 2.45239 13.5397 2.3913C13.6203 2.3302 13.7122 2.28557 13.81 2.25996C14.0076 2.20825 14.2176 2.23714 14.3939 2.34028C14.5702 2.44343 14.6983 2.61238 14.75 2.80996C15.0117 3.69624 15.143 4.61587 15.14 5.53996C15.1387 6.82419 14.8839 8.09554 14.3904 9.28114C13.8968 10.4667 13.1741 11.5433 12.2637 12.449C11.3533 13.3548 10.2731 14.072 9.08495 14.5595C7.89684 15.047 6.62421 15.2952 5.33999 15.29Z" fill="white"/>
<path d="M12.1 21.4899C11.9219 21.4898 11.7497 21.4264 11.6142 21.311C11.4786 21.1955 11.3885 21.0357 11.36 20.8599C11.2911 20.4637 11.2577 20.0621 11.26 19.6599C11.2626 17.5814 12.0895 15.5888 13.5592 14.1191C15.0289 12.6494 17.0215 11.8225 19.1 11.8199C19.6926 11.8144 20.2837 11.8815 20.86 12.0199C20.9565 12.0411 21.0478 12.0813 21.1285 12.1383C21.2092 12.1953 21.2776 12.2679 21.3298 12.3518C21.382 12.4357 21.4169 12.5291 21.4324 12.6267C21.4479 12.7243 21.4437 12.824 21.42 12.9199C21.3748 13.1134 21.2546 13.2811 21.0859 13.3861C20.9171 13.4911 20.7136 13.5249 20.52 13.4799C20.0547 13.3702 19.578 13.3165 19.1 13.3199C18.2666 13.3186 17.4411 13.4816 16.6707 13.7996C15.9004 14.1177 15.2003 14.5844 14.6105 15.1733C14.0207 15.7622 13.5528 16.4615 13.2336 17.2314C12.9143 18.0012 12.75 18.8265 12.75 19.6599C12.7514 19.9782 12.7782 20.2959 12.83 20.6099C12.8621 20.8059 12.8163 21.0066 12.7023 21.1692C12.5883 21.3318 12.4152 21.4433 12.22 21.4799L12.1 21.4899Z" fill="white"/>
<path d="M18.11 18.86C17.912 18.8557 17.7229 18.7772 17.58 18.64L4.86003 5.92004C4.71958 5.77942 4.64069 5.58879 4.64069 5.39004C4.64069 5.19129 4.71958 5.00067 4.86003 4.86004C4.92897 4.78929 5.01139 4.73305 5.10241 4.69465C5.19344 4.65626 5.29123 4.63647 5.39003 4.63647C5.48882 4.63647 5.58661 4.65626 5.67764 4.69465C5.76866 4.73305 5.85108 4.78929 5.92003 4.86004L18.64 17.58C18.7805 17.7207 18.8594 17.9113 18.8594 18.11C18.8594 18.3088 18.7805 18.4994 18.64 18.64C18.4972 18.7772 18.308 18.8557 18.11 18.86Z" fill="white"/>
</svg>
