<svg width="24" height="24" viewBox="0 0 24 24" fill="none" xmlns="http://www.w3.org/2000/svg">
<path d="M15.7499 19.4201C15.5511 19.4199 15.3604 19.3407 15.2199 19.2001C15.1518 19.1271 15.0976 19.0424 15.0599 18.9501C15.02 18.8621 14.9995 18.7666 14.9999 18.6701C14.9989 18.5714 15.0178 18.4736 15.0557 18.3825C15.0935 18.2914 15.1493 18.209 15.2199 18.1401C15.2889 18.0692 15.3702 18.0116 15.4599 17.9701C15.5986 17.9175 15.7494 17.9056 15.8947 17.9357C16.0399 17.9658 16.1735 18.0367 16.2799 18.1401C16.3505 18.209 16.4064 18.2914 16.4442 18.3825C16.482 18.4736 16.501 18.5714 16.4999 18.6701C16.5003 18.7666 16.4799 18.8621 16.4399 18.9501C16.4022 19.0424 16.348 19.1271 16.2799 19.2001C16.1394 19.3407 15.9488 19.4199 15.7499 19.4201Z" fill="white"/>
<path d="M15.7499 16.1699C15.551 16.1699 15.3602 16.0909 15.2196 15.9502C15.0789 15.8096 14.9999 15.6188 14.9999 15.4199C14.9996 15.3201 15.02 15.2214 15.0599 15.1299C15.0952 15.0392 15.1498 14.9573 15.2199 14.8899C15.363 14.7541 15.5527 14.6785 15.7499 14.6785C15.9471 14.6785 16.1368 14.7541 16.2799 14.8899C16.35 14.9573 16.4046 15.0392 16.4399 15.1299C16.4798 15.2214 16.5002 15.3201 16.4999 15.4199C16.4991 15.5163 16.4787 15.6116 16.4399 15.6999C16.4045 15.7934 16.35 15.8786 16.2799 15.9499C16.1394 16.0906 15.9487 16.1697 15.7499 16.1699Z" fill="white"/>
<path d="M17.3599 22.75H6.63994C5.99016 22.75 5.36699 22.4919 4.90753 22.0324C4.44807 21.5729 4.18994 20.9498 4.18994 20.3V3.7C4.18994 3.05022 4.44807 2.42705 4.90753 1.96759C5.36699 1.50812 5.99016 1.25 6.63994 1.25H17.3599C18.0097 1.25 18.6329 1.50812 19.0924 1.96759C19.5518 2.42705 19.8099 3.05022 19.8099 3.7V20.3C19.8099 20.9498 19.5518 21.5729 19.0924 22.0324C18.6329 22.4919 18.0097 22.75 17.3599 22.75ZM6.63994 2.75C6.38349 2.76284 6.1418 2.87384 5.96494 3.06C5.78809 3.24616 5.68962 3.49322 5.68994 3.75V20.3C5.70206 20.548 5.80604 20.7827 5.98164 20.9583C6.15724 21.1339 6.3919 21.2379 6.63994 21.25H17.3599C17.608 21.2379 17.8426 21.1339 18.0182 20.9583C18.1938 20.7827 18.2978 20.548 18.3099 20.3V3.7C18.3103 3.44322 18.2118 3.19616 18.0349 3.01C17.8581 2.82384 17.6164 2.71284 17.3599 2.7L6.63994 2.75Z" fill="white"/>
<path d="M9.87988 19.4199C9.68097 19.4199 9.4902 19.3409 9.34955 19.2003C9.2089 19.0596 9.12988 18.8688 9.12988 18.6699V15.4199C9.12988 15.221 9.2089 15.0302 9.34955 14.8896C9.4902 14.7489 9.68097 14.6699 9.87988 14.6699C10.0788 14.6699 10.2696 14.7489 10.4102 14.8896C10.5509 15.0302 10.6299 15.221 10.6299 15.4199V18.6699C10.6273 18.868 10.5474 19.0573 10.4073 19.1974C10.2673 19.3375 10.078 19.4173 9.87988 19.4199Z" fill="white"/>
<path d="M11.5 17.79H8.25C8.05109 17.79 7.86032 17.711 7.71967 17.5704C7.57902 17.4297 7.5 17.239 7.5 17.04C7.5 16.8411 7.57902 16.6504 7.71967 16.5097C7.86032 16.3691 8.05109 16.29 8.25 16.29H11.5C11.6989 16.29 11.8897 16.3691 12.0303 16.5097C12.171 16.6504 12.25 16.8411 12.25 17.04C12.25 17.239 12.171 17.4297 12.0303 17.5704C11.8897 17.711 11.6989 17.79 11.5 17.79Z" fill="white"/>
<path d="M19.0599 12.75H4.93994C4.74103 12.75 4.55026 12.671 4.40961 12.5303C4.26896 12.3897 4.18994 12.1989 4.18994 12C4.18994 11.8011 4.26896 11.6103 4.40961 11.4697C4.55026 11.329 4.74103 11.25 4.93994 11.25H19.0599C19.2589 11.25 19.4496 11.329 19.5903 11.4697C19.7309 11.6103 19.8099 11.8011 19.8099 12C19.8099 12.1989 19.7309 12.3897 19.5903 12.5303C19.4496 12.671 19.2589 12.75 19.0599 12.75Z" fill="white"/>
</svg>
