<svg width="24" height="24" viewBox="0 0 24 24" fill="none" xmlns="http://www.w3.org/2000/svg">
<path d="M6.75999 21.1099C6.68363 21.1196 6.60635 21.1196 6.52999 21.1099C6.34184 21.0412 6.18533 20.906 6.08999 20.7299L1.48999 11.7299C1.40444 11.554 1.38995 11.352 1.44955 11.1657C1.50915 10.9795 1.63824 10.8234 1.80999 10.7299L16.9 2.99989C17.0759 2.90855 17.2808 2.89058 17.47 2.94989C17.6581 3.01857 17.8147 3.15374 17.91 3.32989L22.51 12.3299C22.5955 12.5057 22.61 12.7078 22.5504 12.894C22.4908 13.0803 22.3617 13.2364 22.19 13.3299L7.09999 20.9999C6.99685 21.0627 6.88038 21.1004 6.75999 21.1099ZM3.15999 11.6799L7.08999 19.3499L20.84 12.3499L16.91 4.64989L3.15999 11.6799Z" fill="white"/>
<path d="M8.22999 17.09C8.09278 17.0896 7.9584 17.051 7.84185 16.9786C7.7253 16.9062 7.63117 16.8028 7.56999 16.68L5.56999 12.85C5.52537 12.7628 5.49851 12.6676 5.49097 12.5699C5.48342 12.4723 5.49535 12.3741 5.52604 12.2811C5.55674 12.188 5.6056 12.102 5.66979 12.028C5.73398 11.954 5.81223 11.8935 5.89999 11.85L9.71999 9.85001C9.8966 9.76262 10.1005 9.74824 10.2876 9.81C10.4748 9.87175 10.6301 10.0047 10.72 10.18L12.72 14C12.8074 14.1766 12.8218 14.3805 12.76 14.5677C12.6982 14.7548 12.5653 14.9101 12.39 15L8.57999 17C8.47112 17.0548 8.35175 17.0854 8.22999 17.09ZM7.28999 12.84L8.55999 15.33L11.05 14.06L9.77999 11.57L7.28999 12.84Z" fill="white"/>
</svg>
