<svg width="24" height="24" viewBox="0 0 24 24" fill="none" xmlns="http://www.w3.org/2000/svg">
<path d="M17.66 21.9999H6.34002C5.24468 21.9999 4.1942 21.5648 3.41967 20.7903C2.64515 20.0157 2.21002 18.9652 2.21002 17.8699V6.5299C2.21002 5.43456 2.64515 4.38408 3.41967 3.60955C4.1942 2.83503 5.24468 2.3999 6.34002 2.3999H17.66C18.7554 2.3999 19.8058 2.83503 20.5804 3.60955C21.3549 4.38408 21.79 5.43456 21.79 6.5299V17.8499C21.7927 18.3939 21.6878 18.9331 21.4814 19.4365C21.275 19.9399 20.9712 20.3976 20.5875 20.7832C20.2037 21.1688 19.7475 21.4748 19.2451 21.6836C18.7428 21.8924 18.2041 21.9999 17.66 21.9999ZM6.34002 3.8999C5.6425 3.8999 4.97355 4.17699 4.48033 4.67021C3.98711 5.16343 3.71002 5.83238 3.71002 6.5299V17.8499C3.71002 18.5474 3.98711 19.2164 4.48033 19.7096C4.97355 20.2028 5.6425 20.4799 6.34002 20.4799H17.66C18.3575 20.4799 19.0265 20.2028 19.5197 19.7096C20.0129 19.2164 20.29 18.5474 20.29 17.8499V6.5299C20.29 6.18453 20.222 5.84253 20.0898 5.52344C19.9577 5.20436 19.7639 4.91443 19.5197 4.67021C19.2755 4.42599 18.9856 4.23227 18.6665 4.1001C18.3474 3.96793 18.0054 3.8999 17.66 3.8999H6.34002Z" fill="white"/>
<path d="M8.19004 12.14C7.42091 12.14 6.68328 11.8345 6.13943 11.2906C5.59557 10.7467 5.29004 10.0091 5.29004 9.23999C5.29004 9.04108 5.36906 8.85031 5.50971 8.70966C5.65036 8.56901 5.84113 8.48999 6.04004 8.48999C6.23895 8.48999 6.42972 8.56901 6.57037 8.70966C6.71102 8.85031 6.79004 9.04108 6.79004 9.23999C6.79004 9.61129 6.93754 9.96739 7.20009 10.2299C7.46264 10.4925 7.81874 10.64 8.19004 10.64C8.56134 10.64 8.91744 10.4925 9.17999 10.2299C9.44254 9.96739 9.59004 9.61129 9.59004 9.23999C9.59004 9.04108 9.66906 8.85031 9.80971 8.70966C9.95036 8.56901 10.1411 8.48999 10.34 8.48999C10.539 8.48999 10.7297 8.56901 10.8704 8.70966C11.011 8.85031 11.09 9.04108 11.09 9.23999C11.09 9.62082 11.015 9.99793 10.8693 10.3498C10.7236 10.7016 10.5099 11.0213 10.2406 11.2906C9.97136 11.5599 9.65167 11.7735 9.29982 11.9192C8.94798 12.065 8.57087 12.14 8.19004 12.14Z" fill="white"/>
<path d="M16 12.14C15.23 12.14 14.4913 11.8348 13.9459 11.2912C13.4004 10.7476 13.0927 10.01 13.09 9.23999C13.09 9.04108 13.169 8.85031 13.3097 8.70966C13.4503 8.56901 13.6411 8.48999 13.84 8.48999C14.0389 8.48999 14.2297 8.56901 14.3704 8.70966C14.511 8.85031 14.59 9.04108 14.59 9.23999C14.6198 9.59215 14.7807 9.92031 15.0409 10.1595C15.3011 10.3986 15.6416 10.5314 15.995 10.5314C16.3484 10.5314 16.689 10.3986 16.9492 10.1595C17.2094 9.92031 17.3703 9.59215 17.4 9.23999C17.4 9.04108 17.479 8.85031 17.6197 8.70966C17.7603 8.56901 17.9511 8.48999 18.15 8.48999C18.3489 8.48999 18.5397 8.56901 18.6804 8.70966C18.821 8.85031 18.9 9.04108 18.9 9.23999C18.9 9.62082 18.825 9.99793 18.6793 10.3498C18.5335 10.7016 18.3199 11.0213 18.0506 11.2906C17.7813 11.5599 17.4617 11.7735 17.1098 11.9192C16.758 12.065 16.3809 12.14 16 12.14Z" fill="white"/>
<path d="M16 17.6199H8.19C7.99109 17.6199 7.80032 17.5409 7.65967 17.4002C7.51902 17.2595 7.44 17.0688 7.44 16.8699C7.44 16.671 7.51902 16.4802 7.65967 16.3395C7.80032 16.1989 7.99109 16.1199 8.19 16.1199H16C16.1989 16.1199 16.3897 16.1989 16.5303 16.3395C16.671 16.4802 16.75 16.671 16.75 16.8699C16.75 17.0688 16.671 17.2595 16.5303 17.4002C16.3897 17.5409 16.1989 17.6199 16 17.6199Z" fill="white"/>
</svg>
