<svg width="24" height="24" viewBox="0 0 24 24" fill="none" xmlns="http://www.w3.org/2000/svg">
<g clip-path="url(#clip0_324_6985)">
<path d="M16.7454 19.8298H3.63536C3.35481 19.8312 3.07675 19.777 2.81717 19.6706C2.5576 19.5641 2.3216 19.4074 2.12276 19.2095C1.92391 19.0116 1.76612 18.7763 1.65845 18.5173C1.55078 18.2582 1.49536 17.9804 1.49536 17.6998V9.07983C1.49795 8.88173 1.5778 8.69246 1.7179 8.55237C1.85799 8.41227 2.04725 8.33242 2.24536 8.32983H18.0754C18.2743 8.32983 18.465 8.40885 18.6057 8.5495C18.7463 8.69016 18.8254 8.88092 18.8254 9.07983V17.6998C18.8255 18.2562 18.608 18.7905 18.2193 19.1886C17.8306 19.5866 17.3016 19.8168 16.7454 19.8298ZM3.04536 9.82983V17.6998C3.04799 17.8678 3.11657 18.0281 3.23631 18.1459C3.35605 18.2638 3.51734 18.3299 3.68536 18.3298H16.7454C16.9124 18.3298 17.0727 18.2635 17.1908 18.1453C17.309 18.0272 17.3754 17.8669 17.3754 17.6998V9.82983H3.04536Z" fill="white"/>
<path d="M13.0054 14.8299C12.8065 14.8299 12.6157 14.7509 12.475 14.6103C12.3344 14.4696 12.2554 14.2788 12.2554 14.0799V9.21992L10.8954 5.66992H1.06537L2.88537 8.66992C2.94703 8.75399 2.99049 8.84999 3.01297 8.95179C3.03545 9.05359 3.03646 9.15896 3.01593 9.26118C2.9954 9.36339 2.95379 9.46021 2.89375 9.54544C2.83371 9.63067 2.75656 9.70245 2.66722 9.75619C2.57788 9.80993 2.47832 9.84446 2.3749 9.85756C2.27147 9.87067 2.16644 9.86207 2.06652 9.83231C1.96661 9.80255 1.87399 9.75228 1.79459 9.68472C1.71518 9.61716 1.65074 9.53379 1.60537 9.43992L-0.894634 5.29992C-0.963544 5.18698 -1 5.05723 -1 4.92492C-1 4.79262 -0.963544 4.66287 -0.894634 4.54992C-0.831848 4.435 -0.739304 4.33908 -0.626702 4.27223C-0.514101 4.20537 -0.385588 4.17003 -0.254634 4.16992H11.4154C11.5669 4.16986 11.7148 4.21569 11.8398 4.30137C11.9648 4.38706 12.0608 4.50857 12.1154 4.64992L13.7454 8.80992C13.7811 8.89533 13.7981 8.98739 13.7954 9.07992V14.0799C13.797 14.1823 13.7773 14.2839 13.7377 14.3783C13.698 14.4727 13.6392 14.5578 13.565 14.6283C13.4907 14.6988 13.4026 14.7531 13.3063 14.7878C13.21 14.8225 13.1075 14.8369 13.0054 14.8299Z" fill="white"/>
<path d="M18.0754 9.82993H13.0754C12.9528 9.83059 12.8319 9.80078 12.7237 9.74318C12.6155 9.68558 12.5233 9.60199 12.4554 9.49993C12.3848 9.39898 12.3413 9.28162 12.329 9.15906C12.3168 9.03651 12.3362 8.91286 12.3854 8.79993L14.0454 4.63993C14.1015 4.50046 14.1982 4.38107 14.3231 4.29726C14.4479 4.21345 14.595 4.16909 14.7454 4.16993H19.7454C19.8679 4.16928 19.9888 4.19909 20.097 4.25669C20.2052 4.31429 20.2974 4.39788 20.3654 4.49993C20.435 4.60114 20.4787 4.7179 20.4927 4.83995C20.5066 4.96201 20.4904 5.08563 20.4454 5.19993L18.7454 9.35993C18.6923 9.49549 18.6004 9.61239 18.4812 9.69599C18.3621 9.77959 18.2209 9.82618 18.0754 9.82993ZM14.1854 8.32993H17.5754L18.6354 5.66993H15.2554L14.1854 8.32993Z" fill="white"/>
</g>
<defs>
<clipPath id="clip0_324_6985">
<rect width="24" height="24" fill="white"/>
</clipPath>
</defs>
</svg>
