<svg width="24" height="24" viewBox="0 0 24 24" fill="none" xmlns="http://www.w3.org/2000/svg">
<path d="M17.51 22.72H5.32001C5.12692 22.7177 4.94194 22.642 4.80264 22.5083C4.66334 22.3746 4.58016 22.1928 4.57001 22V13.76C4.56869 13.6607 4.58711 13.5621 4.62421 13.4699C4.6613 13.3778 4.71634 13.2939 4.78612 13.2232C4.85589 13.1525 4.93902 13.0963 5.03067 13.058C5.12232 13.0197 5.22067 13 5.32001 13H17.51C17.7089 13 17.8997 13.079 18.0403 13.2197C18.181 13.3603 18.26 13.5511 18.26 13.75V22C18.2499 22.1928 18.1667 22.3746 18.0274 22.5083C17.8881 22.642 17.7031 22.7177 17.51 22.72ZM6.07001 21.22H16.76V14.51H6.07001V21.22Z" fill="white"/>
<path d="M17.5101 14.51C17.312 14.5074 17.1227 14.4276 16.9826 14.2875C16.8425 14.1474 16.7627 13.9581 16.7601 13.76V2.76H6.07007V13.76C6.07007 13.9589 5.99105 14.1497 5.8504 14.2903C5.70975 14.431 5.51898 14.51 5.32007 14.51C5.12116 14.51 4.93039 14.431 4.78974 14.2903C4.64909 14.1497 4.57007 13.9589 4.57007 13.76V2C4.57266 1.80189 4.65251 1.61263 4.7926 1.47253C4.9327 1.33244 5.12196 1.25259 5.32007 1.25H17.5101C17.7082 1.25259 17.8974 1.33244 18.0375 1.47253C18.1776 1.61263 18.2575 1.80189 18.2601 2V13.76C18.2575 13.9581 18.1776 14.1474 18.0375 14.2875C17.8974 14.4276 17.7082 14.5074 17.5101 14.51Z" fill="white"/>
<path d="M19.8 2.78003H3.14001C2.9411 2.78003 2.75034 2.70101 2.60968 2.56036C2.46903 2.41971 2.39001 2.22894 2.39001 2.03003C2.39001 1.83112 2.46903 1.64035 2.60968 1.4997C2.75034 1.35905 2.9411 1.28003 3.14001 1.28003H19.8C19.8985 1.28003 19.996 1.29943 20.087 1.33712C20.178 1.37481 20.2607 1.43006 20.3303 1.4997C20.4 1.56934 20.4552 1.65202 20.4929 1.74302C20.5306 1.83401 20.55 1.93154 20.55 2.03003C20.55 2.12852 20.5306 2.22605 20.4929 2.31704C20.4552 2.40804 20.4 2.49072 20.3303 2.56036C20.2607 2.63 20.178 2.68525 20.087 2.72294C19.996 2.76063 19.8985 2.78003 19.8 2.78003Z" fill="white"/>
<path d="M13.3201 14.49C13.1212 14.49 12.9304 14.411 12.7897 14.2703C12.6491 14.1297 12.5701 13.9389 12.5701 13.74V11.49C12.5701 11.2911 12.6491 11.1003 12.7897 10.9597C12.9304 10.819 13.1212 10.74 13.3201 10.74C13.519 10.74 13.7097 10.819 13.8504 10.9597C13.9911 11.1003 14.0701 11.2911 14.0701 11.49V13.74C14.0701 13.9389 13.9911 14.1297 13.8504 14.2703C13.7097 14.411 13.519 14.49 13.3201 14.49Z" fill="white"/>
</svg>
