<svg width="24" height="24" viewBox="0 0 24 24" fill="none" xmlns="http://www.w3.org/2000/svg">
<path d="M12 22.6H11.78C9.84444 22.492 8.02511 21.6417 6.70073 20.226C5.37635 18.8104 4.64897 16.9385 4.67 15V13.25C4.67282 12.9396 4.76701 12.6369 4.94081 12.3797C5.1146 12.1225 5.36031 11.9222 5.64726 11.8038C5.9342 11.6854 6.24967 11.6542 6.55427 11.7139C6.85887 11.7737 7.13911 11.9219 7.36 12.14L8.5 13.29C8.53649 13.3283 8.5838 13.3546 8.63562 13.3653C8.68744 13.3761 8.7413 13.3707 8.79 13.35C8.84675 13.3355 8.89754 13.3036 8.93521 13.2588C8.97288 13.2139 8.99554 13.1584 9 13.1V5.30002C8.99788 4.83122 9.12815 4.37135 9.37582 3.97331C9.62349 3.57527 9.9785 3.25523 10.4 3.05002C10.8119 2.84081 11.2746 2.75233 11.7346 2.7948C12.1947 2.83726 12.6333 3.00894 13 3.29002C14.9365 4.64331 16.5244 6.43656 17.6335 8.52256C18.7426 10.6086 19.3411 12.9278 19.38 15.29C19.3761 16.2548 19.182 17.2093 18.8089 18.099C18.4357 18.9886 17.8909 19.796 17.2054 20.475C16.52 21.1539 15.7075 21.691 14.8143 22.0557C13.9211 22.4203 12.9647 22.6053 12 22.6ZM6.29 13.2L6.17 13.25V15C6.14154 16.5497 6.71387 18.0502 7.76709 19.1873C8.82031 20.3244 10.2727 21.0099 11.82 21.1C12.6003 21.1223 13.3772 20.9887 14.1052 20.7071C14.8332 20.4255 15.4978 20.0016 16.06 19.46C16.6218 18.9188 17.0683 18.2694 17.3725 17.551C17.6767 16.8327 17.8323 16.0601 17.83 15.28C17.7856 13.1518 17.2388 11.0641 16.2344 9.18729C15.2299 7.31046 13.7962 5.69754 12.05 4.48002C11.906 4.37818 11.7377 4.31622 11.5621 4.30041C11.3865 4.28461 11.2098 4.31552 11.05 4.39002C10.8802 4.47322 10.7374 4.60288 10.6383 4.76395C10.5391 4.92502 10.4877 5.1109 10.49 5.30002V13.1C10.4856 13.4456 10.3801 13.7823 10.1866 14.0686C9.99303 14.3549 9.71992 14.5783 9.40091 14.7112C9.08191 14.8441 8.73098 14.8808 8.39141 14.8166C8.05183 14.7524 7.73848 14.5902 7.49 14.35L6.29 13.2Z" fill="white"/>
</svg>
