<svg width="24" height="24" viewBox="0 0 24 24" fill="none" xmlns="http://www.w3.org/2000/svg">
<path d="M12.07 20.7899C11.961 20.7897 11.8533 20.7653 11.7548 20.7187C11.6563 20.672 11.5693 20.6041 11.5 20.5199L1.50001 8.51989C1.37493 8.38342 1.30554 8.20502 1.30554 8.01989C1.30554 7.83477 1.37493 7.65636 1.50001 7.51989L5.40001 3.43989C5.47716 3.36006 5.57085 3.2981 5.67451 3.25836C5.77817 3.21862 5.88928 3.20208 6.00001 3.20989H18C18.1989 3.21007 18.3895 3.2892 18.53 3.42989L22.47 7.36989C22.6001 7.50114 22.6771 7.67578 22.6863 7.86033C22.6955 8.04487 22.6363 8.22632 22.52 8.36989L12.66 20.5099C12.5902 20.5967 12.5019 20.6669 12.4016 20.7153C12.3013 20.7638 12.1914 20.7892 12.08 20.7899H12.07ZM3.07001 8.06989L12.07 18.8599L20.92 7.99989L17.68 4.70989H6.27001L3.07001 8.06989Z" fill="white"/>
</svg>
