<svg width="24" height="24" viewBox="0 0 24 24" fill="none" xmlns="http://www.w3.org/2000/svg">
<path d="M12 22.0799C10.0016 22.0799 8.04804 21.487 6.38668 20.3763C4.72531 19.2656 3.43078 17.6871 2.66693 15.8404C1.90307 13.9937 1.70423 11.9619 2.09557 10.0021C2.4869 8.04236 3.45082 6.24274 4.86533 4.83103C6.27984 3.41932 8.08136 2.45897 10.0419 2.07152C12.0024 1.68407 14.0338 1.88694 15.879 2.65446C17.7242 3.42197 19.3002 4.71962 20.4076 6.38319C21.515 8.04675 22.104 10.0014 22.1 11.9999C22.0921 14.6743 21.0248 17.2366 19.1318 19.1258C17.2388 21.015 14.6744 22.0773 12 22.0799ZM12 3.37989C10.2999 3.37989 8.63802 3.88377 7.22419 4.82787C5.81036 5.77197 4.70807 7.11393 4.05658 8.68421C3.40508 10.2545 3.23361 11.9826 3.56382 13.6503C3.89404 15.318 4.71112 16.8504 5.91186 18.0539C7.11259 19.2575 8.64309 20.0781 10.31 20.4122C11.9769 20.7463 13.7055 20.5788 15.2773 19.931C16.849 19.2831 18.1936 18.184 19.1409 16.7723C20.0883 15.3607 20.5961 13.6999 20.6 11.9999C20.6013 10.8692 20.3799 9.74934 19.9484 8.70422C19.517 7.6591 18.8839 6.70921 18.0853 5.90877C17.2867 5.10833 16.3383 4.47302 15.2942 4.03911C14.25 3.6052 13.1307 3.3812 12 3.37989Z" fill="white"/>
<path d="M14.81 15.5299C14.7112 15.5321 14.613 15.5137 14.5218 15.4758C14.4305 15.4379 14.3482 15.3814 14.28 15.3099L11.47 12.5099C11.3293 12.3694 11.2502 12.1787 11.25 11.9799V6.36987C11.25 6.17096 11.329 5.9802 11.4697 5.83954C11.6103 5.69889 11.8011 5.61987 12 5.61987C12.1989 5.61987 12.3897 5.69889 12.5303 5.83954C12.671 5.9802 12.75 6.17096 12.75 6.36987V11.6699L15.34 14.2499C15.4805 14.3905 15.5593 14.5811 15.5593 14.7799C15.5593 14.9786 15.4805 15.1692 15.34 15.3099C15.2708 15.38 15.1882 15.4356 15.0972 15.4733C15.0062 15.5111 14.9085 15.5303 14.81 15.5299Z" fill="white"/>
</svg>
