<svg width="24" height="24" viewBox="0 0 24 24" fill="none" xmlns="http://www.w3.org/2000/svg">
<path d="M12.08 15.5401C11.0199 15.5401 9.98356 15.2257 9.10212 14.6367C8.22067 14.0478 7.53366 13.2107 7.12798 12.2313C6.72229 11.2518 6.61615 10.1741 6.82296 9.13439C7.02978 8.09465 7.54027 7.13959 8.28988 6.38998C9.03949 5.64037 9.99455 5.12988 11.0343 4.92306C12.074 4.71624 13.1517 4.82239 14.1312 5.22808C15.1106 5.63376 15.9477 6.32077 16.5366 7.20221C17.1256 8.08366 17.44 9.11996 17.44 10.1801C17.44 10.884 17.3013 11.5809 17.032 12.2313C16.7626 12.8816 16.3678 13.4724 15.8701 13.9702C15.3723 14.4679 14.7815 14.8627 14.1312 15.1321C13.4809 15.4014 12.7839 15.5401 12.08 15.5401ZM12.08 6.32007C11.3165 6.32007 10.5702 6.54646 9.93547 6.9706C9.3007 7.39474 8.80595 7.99759 8.5138 8.70291C8.22164 9.40824 8.1452 10.1844 8.29414 10.9331C8.44308 11.6819 8.81071 12.3697 9.35054 12.9095C9.89037 13.4493 10.5782 13.817 11.3269 13.9659C12.0757 14.1148 12.8518 14.0384 13.5571 13.7462C14.2625 13.4541 14.8653 12.9593 15.2894 12.3246C15.7136 11.6898 15.94 10.9435 15.94 10.1801C15.94 9.15634 15.5333 8.17453 14.8094 7.45064C14.0855 6.72675 13.1037 6.32007 12.08 6.32007Z" fill="white"/>
<path d="M12 19.3101C11.2958 19.3117 10.5984 19.1738 9.94786 18.9043C9.29735 18.6348 8.70667 18.2391 8.20996 17.7401C8.07748 17.5979 8.00536 17.4098 8.00878 17.2155C8.01221 17.0212 8.09092 16.8358 8.22834 16.6984C8.36575 16.561 8.55114 16.4823 8.74544 16.4789C8.93974 16.4754 9.12778 16.5476 9.26996 16.6801C10.0107 17.3718 10.9864 17.7565 12 17.7565C13.0135 17.7565 13.9892 17.3718 14.73 16.6801C14.8721 16.5476 15.0602 16.4754 15.2545 16.4789C15.4488 16.4823 15.6342 16.561 15.7716 16.6984C15.909 16.8358 15.9877 17.0212 15.9911 17.2155C15.9946 17.4098 15.9224 17.5979 15.79 17.7401C15.2932 18.2391 14.7026 18.6348 14.0521 18.9043C13.4015 19.1738 12.7041 19.3117 12 19.3101Z" fill="white"/>
<path d="M12.08 12.0001C13.0852 12.0001 13.9 11.1853 13.9 10.1801C13.9 9.17495 13.0852 8.36011 12.08 8.36011C11.0749 8.36011 10.26 9.17495 10.26 10.1801C10.26 11.1853 11.0749 12.0001 12.08 12.0001Z" fill="white"/>
<path d="M20 22.6601C19.8011 22.6601 19.6103 22.581 19.4697 22.4404C19.329 22.2997 19.25 22.109 19.25 21.9101V10.0001C19.1147 8.18838 18.2995 6.49482 16.9679 5.25897C15.6363 4.02312 13.8867 3.33634 12.07 3.33634C10.2533 3.33634 8.50372 4.02312 7.17212 5.25897C5.84052 6.49482 5.02533 8.18838 4.89001 10.0001V21.9101C4.89001 22.109 4.811 22.2997 4.67034 22.4404C4.52969 22.581 4.33893 22.6601 4.14001 22.6601C3.9411 22.6601 3.75034 22.581 3.60968 22.4404C3.46903 22.2997 3.39001 22.109 3.39001 21.9101V10.0001C3.4665 7.74503 4.41608 5.60793 6.03835 4.03974C7.66063 2.47156 9.8287 1.59497 12.085 1.59497C14.3413 1.59497 16.5094 2.47156 18.1317 4.03974C19.754 5.60793 20.7035 7.74503 20.78 10.0001V21.9101C20.7787 22.0107 20.7574 22.1101 20.7174 22.2025C20.6774 22.2949 20.6194 22.3784 20.5468 22.4482C20.4743 22.5179 20.3886 22.5726 20.2947 22.609C20.2008 22.6453 20.1007 22.6627 20 22.6601Z" fill="white"/>
<path d="M20 22.66H4.14001C3.9411 22.66 3.75034 22.581 3.60968 22.4404C3.46903 22.2997 3.39001 22.1089 3.39001 21.91C3.39001 21.7111 3.46903 21.5204 3.60968 21.3797C3.75034 21.2391 3.9411 21.16 4.14001 21.16H20C20.1989 21.16 20.3897 21.2391 20.5303 21.3797C20.671 21.5204 20.75 21.7111 20.75 21.91C20.75 22.1089 20.671 22.2997 20.5303 22.4404C20.3897 22.581 20.1989 22.66 20 22.66Z" fill="white"/>
</svg>
