<svg width="24" height="24" viewBox="0 0 24 24" fill="none" xmlns="http://www.w3.org/2000/svg">
<path d="M12.0001 23.41C11.9039 23.4111 11.8084 23.393 11.7191 23.357C11.6299 23.3209 11.5487 23.2676 11.4801 23.2L7.59011 19.37C7.44666 19.2305 7.36402 19.0401 7.36011 18.84V7.23005C7.36011 7.03114 7.43912 6.84037 7.57978 6.69972C7.72043 6.55907 7.91119 6.48005 8.11011 6.48005H15.8901C15.9881 6.47872 16.0854 6.49689 16.1764 6.53348C16.2673 6.57008 16.3501 6.62437 16.4198 6.69322C16.4896 6.76207 16.545 6.84409 16.5828 6.93453C16.6206 7.02497 16.6401 7.12202 16.6401 7.22005L16.7201 18.76C16.7199 18.9589 16.6408 19.1495 16.5001 19.29L12.5601 23.2C12.4855 23.2706 12.3975 23.3256 12.3013 23.3616C12.2052 23.3977 12.1027 23.4142 12.0001 23.41ZM8.86011 18.52L12.0001 21.61L15.1901 18.45L15.1501 8.00005H8.86011V18.52Z" fill="white"/>
<path d="M19.7001 8H4.30005C4.10114 8 3.91037 7.92098 3.76972 7.78033C3.62907 7.63968 3.55005 7.44891 3.55005 7.25C3.55005 7.05109 3.62907 6.86032 3.76972 6.71967C3.91037 6.57902 4.10114 6.5 4.30005 6.5H19.7001C19.899 6.5 20.0897 6.57902 20.2304 6.71967C20.371 6.86032 20.4501 7.05109 20.4501 7.25C20.4501 7.44891 20.371 7.63968 20.2304 7.78033C20.0897 7.92098 19.899 8 19.7001 8Z" fill="white"/>
<path d="M14.36 8.00004C14.2615 7.99874 14.1643 7.97805 14.0738 7.93914C13.9833 7.90024 13.9013 7.8439 13.8326 7.77332C13.7639 7.70275 13.7098 7.61933 13.6733 7.52783C13.6368 7.43633 13.6187 7.33854 13.62 7.24004C13.62 5.53004 13.62 3.66004 13.62 2.69004H10.42V7.23004C10.42 7.42896 10.341 7.61972 10.2004 7.76037C10.0597 7.90103 9.86896 7.98004 9.67004 7.98004C9.47113 7.98004 9.28037 7.90103 9.13971 7.76037C8.99906 7.61972 8.92004 7.42896 8.92004 7.23004V1.92004C8.92004 1.72113 8.99906 1.53037 9.13971 1.38971C9.28037 1.24906 9.47113 1.17004 9.67004 1.17004H14.34C14.5389 1.17022 14.7295 1.24935 14.87 1.39004C15.16 1.68004 15.16 1.69004 15.09 7.24004C15.0927 7.43726 15.0176 7.62761 14.881 7.76986C14.7444 7.9121 14.5572 7.9948 14.36 8.00004Z" fill="white"/>
</svg>
