<svg width="24" height="24" viewBox="0 0 24 24" fill="none" xmlns="http://www.w3.org/2000/svg">
<path d="M12 22.75C9.87386 22.75 7.79545 22.1195 6.02762 20.9383C4.2598 19.7571 2.88194 18.0782 2.0683 16.1139C1.25466 14.1495 1.04177 11.9881 1.45656 9.90278C1.87135 7.81749 2.89519 5.90202 4.39861 4.39861C5.90202 2.89519 7.81749 1.87135 9.90278 1.45656C11.9881 1.04177 14.1495 1.25466 16.1139 2.0683C18.0782 2.88194 19.7571 4.2598 20.9383 6.02762C22.1195 7.79545 22.75 9.87386 22.75 12C22.7474 14.8503 21.6139 17.583 19.5985 19.5985C17.583 21.6139 14.8503 22.7474 12 22.75ZM12 2.75C10.1705 2.75 8.38213 3.29251 6.86098 4.30891C5.33983 5.32531 4.15423 6.76997 3.45412 8.46018C2.75401 10.1504 2.57083 12.0103 2.92774 13.8046C3.28465 15.5989 4.16563 17.2471 5.45927 18.5407C6.7529 19.8344 8.40109 20.7154 10.1954 21.0723C11.9897 21.4292 13.8496 21.246 15.5398 20.5459C17.23 19.8458 18.6747 18.6602 19.6911 17.139C20.7075 15.6179 21.25 13.8295 21.25 12C21.2474 9.54756 20.272 7.19633 18.5378 5.46219C16.8037 3.72805 14.4524 2.75265 12 2.75Z" fill="white"/>
<path d="M9.16999 15.58C9.07145 15.5805 8.97381 15.5613 8.8828 15.5235C8.79179 15.4857 8.70924 15.4301 8.63999 15.36C8.49954 15.2194 8.42065 15.0288 8.42065 14.83C8.42065 14.6313 8.49954 14.4406 8.63999 14.3L14.3 8.64001C14.4422 8.50753 14.6302 8.43541 14.8245 8.43884C15.0188 8.44227 15.2042 8.52098 15.3416 8.65839C15.479 8.7958 15.5577 8.98119 15.5612 9.17549C15.5646 9.36979 15.4925 9.55784 15.36 9.70001L9.69999 15.36C9.6311 15.4306 9.54861 15.4865 9.45752 15.5243C9.36643 15.5621 9.26862 15.581 9.16999 15.58Z" fill="white"/>
<path d="M14.83 15.58C14.7314 15.581 14.6336 15.5621 14.5425 15.5243C14.4514 15.4865 14.3689 15.4306 14.3 15.36L8.64001 9.70001C8.50753 9.55784 8.43541 9.36979 8.43884 9.17549C8.44227 8.98119 8.52098 8.7958 8.65839 8.65839C8.7958 8.52098 8.98119 8.44227 9.17549 8.43884C9.36979 8.43541 9.55784 8.50753 9.70001 8.64001L15.36 14.3C15.5005 14.4406 15.5794 14.6313 15.5794 14.83C15.5794 15.0288 15.5005 15.2194 15.36 15.36C15.2908 15.4301 15.2082 15.4857 15.1172 15.5235C15.0262 15.5613 14.9286 15.5805 14.83 15.58Z" fill="white"/>
</svg>
