<svg width="24" height="24" viewBox="0 0 24 24" fill="none" xmlns="http://www.w3.org/2000/svg">
<path d="M19.38 15.38C19.2803 15.3795 19.1817 15.3591 19.09 15.32C19.0003 15.2785 18.919 15.2208 18.85 15.15C18.7799 15.0826 18.7253 15.0007 18.69 14.91C18.6512 14.8217 18.6308 14.7264 18.63 14.63C18.6281 14.4809 18.6707 14.3346 18.7524 14.2099C18.8341 14.0851 18.951 13.9875 19.0884 13.9296C19.2258 13.8716 19.3773 13.8559 19.5237 13.8845C19.67 13.9131 19.8045 13.9846 19.91 14.09C20.0513 14.2342 20.1303 14.4281 20.13 14.63C20.1292 14.7264 20.1088 14.8217 20.07 14.91C20.0347 15.0007 19.9801 15.0826 19.91 15.15C19.7705 15.2935 19.5801 15.3761 19.38 15.38Z" fill="white"/>
<path d="M4.61997 15.38C4.42106 15.38 4.2303 15.301 4.08964 15.1603C3.94899 15.0197 3.86997 14.8289 3.86997 14.63C3.86894 14.5314 3.8879 14.4336 3.92571 14.3425C3.96352 14.2514 4.0194 14.1689 4.08997 14.1C4.15893 14.0292 4.24027 13.9715 4.32997 13.93C4.51702 13.8602 4.72293 13.8602 4.90997 13.93C4.99968 13.9715 5.08102 14.0292 5.14997 14.1C5.29067 14.2405 5.3698 14.4312 5.36997 14.63C5.36997 14.8289 5.29096 15.0197 5.1503 15.1603C5.00965 15.301 4.81889 15.38 4.61997 15.38Z" fill="white"/>
<path d="M20.29 18.78H16.47C16.2711 18.78 16.0803 18.701 15.9396 18.5603C15.799 18.4197 15.72 18.2289 15.72 18.03V6C15.72 5.80109 15.799 5.61032 15.9396 5.46967C16.0803 5.32902 16.2711 5.25 16.47 5.25H20.29C21.0124 5.26051 21.7016 5.55487 22.2087 6.06946C22.7158 6.58405 23 7.27753 23 8V16C23.008 16.7276 22.7273 17.4288 22.2193 17.9499C21.7114 18.471 21.0176 18.7695 20.29 18.78ZM17.22 17.28H20.29C20.4567 17.28 20.6217 17.2467 20.7754 17.1821C20.929 17.1174 21.0682 17.0226 21.1846 16.9033C21.3011 16.7841 21.3925 16.6427 21.4536 16.4876C21.5146 16.3324 21.544 16.1667 21.54 16V8C21.54 7.66848 21.4083 7.35054 21.1739 7.11612C20.9394 6.8817 20.6215 6.75 20.29 6.75H17.22V17.28Z" fill="white"/>
<path d="M7.52998 18.78H3.70998C2.98237 18.7694 2.28859 18.4709 1.78064 17.9499C1.27269 17.4288 0.991969 16.7276 0.999984 16V7.99997C0.991969 7.27232 1.27269 6.57116 1.78064 6.05009C2.28859 5.52901 2.98237 5.23051 3.70998 5.21997H7.52998C7.63105 5.21989 7.73109 5.24024 7.8241 5.27979C7.91711 5.31934 8.00116 5.37729 8.07121 5.45014C8.14126 5.52299 8.19586 5.60925 8.23174 5.70374C8.26762 5.79822 8.28403 5.89898 8.27998 5.99997V18C8.28403 18.101 8.26762 18.2017 8.23174 18.2962C8.19586 18.3907 8.14126 18.4769 8.07121 18.5498C8.00116 18.6227 7.91711 18.6806 7.8241 18.7202C7.73109 18.7597 7.63105 18.7801 7.52998 18.78ZM3.70998 6.71997C3.54328 6.71992 3.37824 6.75322 3.2246 6.81791C3.07095 6.88259 2.9318 6.97736 2.81532 7.09663C2.69885 7.2159 2.60741 7.35726 2.54638 7.5124C2.48536 7.66754 2.45598 7.83331 2.45998 7.99997V16C2.45998 16.3315 2.59168 16.6494 2.8261 16.8839C3.06052 17.1183 3.37846 17.25 3.70998 17.25H6.77998V6.71997H3.70998Z" fill="white"/>
<path d="M16.47 8.78003H7.52997C7.33106 8.78003 7.14029 8.70101 6.99964 8.56036C6.85899 8.41971 6.77997 8.22894 6.77997 8.03003C6.77997 7.83112 6.85899 7.64035 6.99964 7.4997C7.14029 7.35905 7.33106 7.28003 7.52997 7.28003H16.47C16.6689 7.28003 16.8596 7.35905 17.0003 7.4997C17.141 7.64035 17.22 7.83112 17.22 8.03003C17.22 8.22894 17.141 8.41971 17.0003 8.56036C16.8596 8.70101 16.6689 8.78003 16.47 8.78003Z" fill="white"/>
<path d="M16.47 16.72H7.52997C7.33106 16.72 7.14029 16.641 6.99964 16.5003C6.85899 16.3596 6.77997 16.1689 6.77997 15.97C6.77997 15.7711 6.85899 15.5803 6.99964 15.4396C7.14029 15.299 7.33106 15.22 7.52997 15.22H16.47C16.6689 15.22 16.8596 15.299 17.0003 15.4396C17.141 15.5803 17.22 15.7711 17.22 15.97C17.22 16.1689 17.141 16.3596 17.0003 16.5003C16.8596 16.641 16.6689 16.72 16.47 16.72Z" fill="white"/>
</svg>
