<svg width="24" height="24" viewBox="0 0 24 24" fill="none" xmlns="http://www.w3.org/2000/svg">
<path d="M12.5 22.0001C10.754 21.9974 9.08035 21.302 7.84664 20.0664C6.61294 18.8308 5.92001 17.1561 5.92001 15.4101V8.91008C5.92001 8.04598 6.09021 7.19034 6.42089 6.39202C6.75156 5.5937 7.23624 4.86833 7.84725 4.25732C8.45826 3.64631 9.18363 3.16163 9.98196 2.83095C10.7803 2.50027 11.6359 2.33008 12.5 2.33008C13.3641 2.33008 14.2197 2.50027 15.0181 2.83095C15.8164 3.16163 16.5418 3.64631 17.1528 4.25732C17.7638 4.86833 18.2485 5.5937 18.5791 6.39202C18.9098 7.19034 19.08 8.04598 19.08 8.91008V15.4101C19.08 17.1561 18.3871 18.8308 17.1534 20.0664C15.9197 21.302 14.2461 21.9974 12.5 22.0001ZM12.5 3.83008C11.1535 3.83272 9.86294 4.36878 8.91083 5.32089C7.95872 6.27301 7.42266 7.56359 7.42001 8.91008V15.4101C7.42001 16.0772 7.55141 16.7378 7.80671 17.3541C8.062 17.9704 8.43619 18.5305 8.90791 19.0022C9.37963 19.4739 9.93965 19.8481 10.556 20.1034C11.1723 20.3587 11.8329 20.4901 12.5 20.4901C13.1671 20.4901 13.8277 20.3587 14.444 20.1034C15.0604 19.8481 15.6204 19.4739 16.0921 19.0022C16.5638 18.5305 16.938 17.9704 17.1933 17.3541C17.4486 16.7378 17.58 16.0772 17.58 15.4101V8.91008C17.5774 7.56359 17.0413 6.27301 16.0892 5.32089C15.1371 4.36878 13.8465 3.83272 12.5 3.83008Z" fill="white"/>
<path d="M12.5 11.72C12.3011 11.72 12.1103 11.641 11.9697 11.5003C11.829 11.3596 11.75 11.1689 11.75 10.97V8.21997C11.75 8.12148 11.7694 8.02395 11.8071 7.93296C11.8448 7.84196 11.9 7.75928 11.9697 7.68964C12.0393 7.62 12.122 7.56475 12.213 7.52706C12.304 7.48937 12.4015 7.46997 12.5 7.46997C12.5985 7.46997 12.696 7.48937 12.787 7.52706C12.878 7.56475 12.9607 7.62 13.0303 7.68964C13.1 7.75928 13.1552 7.84196 13.1929 7.93296C13.2306 8.02395 13.25 8.12148 13.25 8.21997V11C13.2422 11.1936 13.1598 11.3768 13.02 11.511C12.8802 11.6452 12.6938 11.7201 12.5 11.72Z" fill="white"/>
</svg>
