<svg width="24" height="24" viewBox="0 0 24 24" fill="none" xmlns="http://www.w3.org/2000/svg">
<path d="M19.23 16.2H4.77C4.66984 16.2027 4.57016 16.1853 4.47684 16.1488C4.38353 16.1123 4.29847 16.0574 4.22669 15.9875C4.15492 15.9176 4.09788 15.834 4.05894 15.7417C4.02001 15.6494 3.99996 15.5502 4 15.45V5.89001C4.00131 5.65888 4.04813 5.43027 4.13779 5.21724C4.22745 5.00421 4.35819 4.81092 4.52255 4.64842C4.68692 4.48592 4.88167 4.35738 5.09571 4.27014C5.30975 4.18291 5.53887 4.13869 5.77 4.14001H18.22C18.452 4.13737 18.6822 4.18061 18.8974 4.26725C19.1125 4.35389 19.3085 4.48222 19.4739 4.64485C19.6393 4.80749 19.771 5.00122 19.8613 5.21491C19.9515 5.4286 19.9987 5.65803 20 5.89001V15.45C20 15.5502 19.98 15.6494 19.9411 15.7417C19.9021 15.834 19.8451 15.9176 19.7733 15.9875C19.7015 16.0574 19.6165 16.1123 19.5232 16.1488C19.4298 16.1853 19.3302 16.2027 19.23 16.2ZM5.52 14.7H18.52V5.89001C18.5174 5.8228 18.4889 5.75921 18.4404 5.71259C18.3919 5.66597 18.3273 5.63996 18.26 5.64001H5.77C5.7037 5.64001 5.64011 5.66635 5.59322 5.71323C5.54634 5.76011 5.52 5.8237 5.52 5.89001V14.7Z" fill="white"/>
<path d="M20.75 19.86H3.25C3.05189 19.8574 2.86263 19.7775 2.72253 19.6374C2.58244 19.4973 2.50259 19.3081 2.5 19.11V15.45C2.50259 15.2518 2.58244 15.0626 2.72253 14.9225C2.86263 14.7824 3.05189 14.7025 3.25 14.7H20.75C20.9481 14.7025 21.1374 14.7824 21.2775 14.9225C21.4176 15.0626 21.4974 15.2518 21.5 15.45V19.11C21.4974 19.3081 21.4176 19.4973 21.2775 19.6374C21.1374 19.7775 20.9481 19.8574 20.75 19.86ZM4 18.36H20V16.2H4V18.36Z" fill="white"/>
</svg>
