<svg width="24" height="24" viewBox="0 0 24 24" fill="none" xmlns="http://www.w3.org/2000/svg">
<path d="M8.29999 21.1301C7.82259 21.1243 7.35453 20.9969 6.93999 20.7601C6.48385 20.4989 6.11456 20.1094 5.87808 19.64C5.6416 19.1706 5.54837 18.642 5.60999 18.1201L5.78999 16.4101C5.8186 16.1548 5.76521 15.897 5.63757 15.6741C5.50992 15.4511 5.31464 15.2746 5.07999 15.1701L3.49999 14.4801C3.01076 14.2703 2.59381 13.9217 2.3008 13.4773C2.0078 13.0329 1.85162 12.5123 1.85162 11.9801C1.85162 11.4478 2.0078 10.9272 2.3008 10.4828C2.59381 10.0384 3.01076 9.68976 3.49999 9.48005L5.07999 8.79005C5.31464 8.6855 5.50992 8.50898 5.63757 8.28605C5.76521 8.06312 5.8186 7.80534 5.78999 7.55005L5.60999 5.88005C5.54932 5.35691 5.64297 4.82744 5.87942 4.35684C6.11586 3.88625 6.48477 3.49508 6.94072 3.2315C7.39667 2.96792 7.91975 2.84344 8.44555 2.87339C8.97135 2.90334 9.47692 3.08641 9.89999 3.40005L11.29 4.40005C11.4959 4.55116 11.7446 4.63263 12 4.63263C12.2554 4.63263 12.5041 4.55116 12.71 4.40005L14.1 3.40005C14.5231 3.08641 15.0286 2.90334 15.5544 2.87339C16.0802 2.84344 16.6033 2.96792 17.0593 3.2315C17.5152 3.49508 17.8841 3.88625 18.1206 4.35684C18.357 4.82744 18.4507 5.35691 18.39 5.88005L18.21 7.59005C18.1814 7.84534 18.2348 8.10312 18.3624 8.32605C18.4901 8.54898 18.6853 8.7255 18.92 8.83005L20.5 9.52005C20.9892 9.72976 21.4062 10.0784 21.6992 10.5228C21.9922 10.9672 22.1484 11.4878 22.1484 12.0201C22.1484 12.5523 21.9922 13.0729 21.6992 13.5173C21.4062 13.9617 20.9892 14.3103 20.5 14.5201L18.92 15.2101C18.6853 15.3146 18.4901 15.4911 18.3624 15.7141C18.2348 15.937 18.1814 16.1948 18.21 16.4501L18.39 18.1601C18.4418 18.6799 18.3416 19.2036 18.1016 19.6677C17.8617 20.1318 17.4923 20.5163 17.0381 20.7746C16.584 21.0329 16.0647 21.1538 15.5432 21.1229C15.0217 21.0919 14.5203 20.9103 14.1 20.6001L12.71 19.6001C12.5041 19.4489 12.2554 19.3675 12 19.3675C11.7446 19.3675 11.4959 19.4489 11.29 19.6001L9.89999 20.6001C9.43623 20.9417 8.87599 21.1273 8.29999 21.1301ZM8.29999 4.37005C8.08563 4.37473 7.87587 4.43319 7.68999 4.54005C7.4853 4.65561 7.31979 4.82966 7.21468 5.0399C7.10956 5.25013 7.06962 5.48697 7.09999 5.72005L7.27999 7.43005C7.34566 8.00106 7.22672 8.57808 6.94059 9.07657C6.65445 9.57505 6.21618 9.96878 5.68999 10.2001L4.10999 10.9001C3.89588 10.9934 3.71367 11.1472 3.58571 11.3426C3.45774 11.538 3.38957 11.7665 3.38957 12.0001C3.38957 12.2336 3.45774 12.4621 3.58571 12.6575C3.71367 12.8529 3.89588 13.0067 4.10999 13.1001L5.68999 13.8001C6.21618 14.0313 6.65445 14.4251 6.94059 14.9235C7.22672 15.422 7.34566 15.999 7.27999 16.5701L7.09999 18.2801C7.06962 18.5131 7.10956 18.75 7.21468 18.9602C7.31979 19.1704 7.4853 19.3445 7.68999 19.4601C7.89158 19.5768 8.12278 19.6323 8.3554 19.6199C8.58802 19.6075 8.81199 19.5276 8.99999 19.3901L10.39 18.3901C10.8537 18.0489 11.4143 17.8649 11.99 17.8649C12.5657 17.8649 13.1263 18.0489 13.59 18.3901L14.98 19.3901C15.169 19.5297 15.3948 19.6107 15.6295 19.6232C15.8641 19.6356 16.0973 19.5789 16.3 19.4601C16.5047 19.3445 16.6702 19.1704 16.7753 18.9602C16.8804 18.75 16.9204 18.5131 16.89 18.2801L16.71 16.5701C16.6451 15.9979 16.7655 15.42 17.0535 14.9214C17.3415 14.4228 17.7819 14.0297 18.31 13.8001L19.88 13.1001C20.0941 13.0067 20.2763 12.8529 20.4043 12.6575C20.5322 12.4621 20.6004 12.2336 20.6004 12.0001C20.6004 11.7665 20.5322 11.538 20.4043 11.3426C20.2763 11.1472 20.0941 10.9934 19.88 10.9001L18.3 10.2001C17.7738 9.96878 17.3355 9.57505 17.0494 9.07657C16.7633 8.57808 16.6443 8.00106 16.71 7.43005L16.89 5.72005C16.9158 5.48964 16.8743 5.25669 16.7705 5.04937C16.6667 4.84205 16.5051 4.66923 16.3051 4.55182C16.1052 4.4344 15.8756 4.37742 15.6439 4.38775C15.4123 4.39809 15.1887 4.4753 15 4.61005L13.61 5.61005C13.1463 5.9512 12.5857 6.1352 12.01 6.1352C11.4343 6.1352 10.8737 5.9512 10.41 5.61005L8.99999 4.61005C8.79809 4.45769 8.5529 4.37363 8.29999 4.37005Z" fill="white"/>
<path d="M12 15.1901C11.3691 15.1901 10.7523 15.003 10.2277 14.6524C9.70314 14.3019 9.29427 13.8037 9.05282 13.2208C8.81138 12.6379 8.74821 11.9965 8.87129 11.3777C8.99438 10.7589 9.2982 10.1905 9.74433 9.74439C10.1905 9.29826 10.7589 8.99444 11.3777 8.87136C11.9965 8.74827 12.6379 8.81144 13.2208 9.05288C13.8037 9.29433 14.3019 9.7032 14.6524 10.2278C15.0029 10.7524 15.19 11.3691 15.19 12.0001C15.19 12.8461 14.8539 13.6575 14.2557 14.2557C13.6574 14.854 12.846 15.1901 12 15.1901ZM12 10.3101C11.6657 10.3101 11.339 10.4092 11.0611 10.5949C10.7832 10.7806 10.5666 11.0445 10.4386 11.3533C10.3107 11.6621 10.2773 12.0019 10.3425 12.3298C10.4077 12.6576 10.5686 12.9587 10.805 13.1951C11.0413 13.4314 11.3425 13.5924 11.6703 13.6576C11.9981 13.7228 12.3379 13.6893 12.6467 13.5614C12.9555 13.4335 13.2195 13.2169 13.4052 12.939C13.5909 12.6611 13.69 12.3343 13.69 12.0001C13.69 11.5518 13.5119 11.122 13.195 10.805C12.8781 10.4881 12.4482 10.3101 12 10.3101Z" fill="white"/>
</svg>
