<svg width="24" height="24" viewBox="0 0 24 24" fill="none" xmlns="http://www.w3.org/2000/svg">
<path d="M12.84 12.84C11.7028 12.84 10.5911 12.5027 9.6455 11.8709C8.69992 11.2391 7.96293 10.3411 7.52772 9.2904C7.09252 8.23972 6.97865 7.08359 7.20051 5.9682C7.42238 4.85281 7.97001 3.82826 8.77416 3.0241C9.57832 2.21995 10.6029 1.67232 11.7183 1.45045C12.8337 1.22859 13.9898 1.34246 15.0405 1.77766C16.0911 2.21286 16.9892 2.94986 17.621 3.89544C18.2528 4.84102 18.59 5.95273 18.59 7.08997C18.5874 8.61415 17.9807 10.0752 16.903 11.1529C15.8252 12.2307 14.3642 12.8373 12.84 12.84ZM12.84 2.83997C11.9995 2.83997 11.1778 3.08923 10.4789 3.55622C9.77995 4.02322 9.23521 4.68698 8.91354 5.46356C8.59187 6.24015 8.5077 7.09468 8.67169 7.9191C8.83568 8.74352 9.24045 9.5008 9.83483 10.0952C10.4292 10.6895 11.1865 11.0943 12.0109 11.2583C12.8353 11.4223 13.6898 11.3381 14.4664 11.0165C15.243 10.6948 15.9068 10.1501 16.3738 9.45114C16.8408 8.75223 17.09 7.93054 17.09 7.08997C17.09 6.53185 16.9801 5.9792 16.7665 5.46356C16.5529 4.94793 16.2399 4.47941 15.8452 4.08476C15.4506 3.69012 14.9821 3.37706 14.4664 3.16348C13.9508 2.9499 13.3981 2.83997 12.84 2.83997Z" fill="white"/>
<path d="M3.84003 20.84C3.64111 20.84 3.45035 20.7609 3.3097 20.6203C3.16904 20.4796 3.09003 20.2889 3.09003 20.09C3.09003 17.7693 4.0119 15.5437 5.65284 13.9028C7.29379 12.2618 9.51938 11.34 11.84 11.34H13.84C14.0389 11.34 14.2297 11.419 14.3704 11.5596C14.511 11.7003 14.59 11.8911 14.59 12.09C14.59 12.2889 14.511 12.4796 14.3704 12.6203C14.2297 12.7609 14.0389 12.84 13.84 12.84H11.84C9.91802 12.8426 8.07549 13.6073 6.71642 14.9664C5.35736 16.3254 4.59267 18.168 4.59003 20.09C4.58744 20.2881 4.50759 20.4773 4.36749 20.6174C4.2274 20.7575 4.03813 20.8374 3.84003 20.84Z" fill="white"/>
<path d="M14.51 22.6599C14.4113 22.6621 14.3131 22.6437 14.2218 22.6058C14.1306 22.568 14.0482 22.5115 13.98 22.4399C13.9093 22.371 13.853 22.2886 13.8146 22.1975C13.7763 22.1065 13.7565 22.0087 13.7565 21.9099C13.7565 21.8111 13.7763 21.7133 13.8146 21.6223C13.853 21.5313 13.9093 21.4489 13.98 21.3799L19.63 15.7299C19.6987 15.6562 19.7815 15.5971 19.8735 15.5561C19.9655 15.5151 20.0648 15.4931 20.1655 15.4913C20.2662 15.4896 20.3663 15.5081 20.4596 15.5458C20.553 15.5835 20.6379 15.6397 20.7091 15.7109C20.7803 15.7821 20.8364 15.8669 20.8742 15.9603C20.9119 16.0537 20.9304 16.1537 20.9286 16.2544C20.9269 16.3551 20.9048 16.4545 20.8638 16.5465C20.8228 16.6385 20.7637 16.7213 20.69 16.7899L15 22.4399C14.87 22.572 14.6952 22.6505 14.51 22.6599Z" fill="white"/>
<path d="M20.16 22.6599C20.0615 22.6604 19.9639 22.6412 19.8728 22.6034C19.7818 22.5656 19.6993 22.51 19.63 22.4399L14 16.7899C13.9013 16.7338 13.8165 16.6559 13.7523 16.5622C13.688 16.4685 13.6459 16.3615 13.629 16.2491C13.6122 16.1367 13.6211 16.022 13.6551 15.9136C13.689 15.8052 13.7472 15.7059 13.8252 15.6233C13.9031 15.5406 13.9989 15.4768 14.1051 15.4365C14.2114 15.3963 14.3254 15.3807 14.4385 15.391C14.5517 15.4013 14.661 15.4371 14.7583 15.4958C14.8556 15.5545 14.9382 15.6346 15 15.7299L20.65 21.3799C20.7208 21.4489 20.777 21.5313 20.8154 21.6223C20.8538 21.7133 20.8736 21.8111 20.8736 21.9099C20.8736 22.0087 20.8538 22.1065 20.8154 22.1975C20.777 22.2886 20.7208 22.371 20.65 22.4399C20.5218 22.5746 20.3459 22.6536 20.16 22.6599Z" fill="white"/>
</svg>
