<svg width="24" height="24" viewBox="0 0 24 24" fill="none" xmlns="http://www.w3.org/2000/svg">
<path d="M12 15.81C11.8776 15.8099 11.7573 15.7789 11.65 15.72C11.36 15.57 8.80999 14.18 8.22999 12.2C8.04912 11.6902 7.98753 11.1456 8.04994 10.6082C8.11234 10.0708 8.29709 9.5549 8.58999 9.10005C8.80974 8.80876 9.09591 8.57421 9.42467 8.41592C9.75342 8.25763 10.1152 8.18019 10.48 8.19005C11.041 8.17831 11.585 8.38234 12 8.76005C12.4149 8.38234 12.959 8.17831 13.52 8.19005C13.8847 8.18019 14.2466 8.25763 14.5753 8.41592C14.9041 8.57421 15.1902 8.80876 15.41 9.10005C15.7029 9.5549 15.8876 10.0708 15.95 10.6082C16.0124 11.1456 15.9509 11.6902 15.77 12.2C15.19 14.2 12.64 15.57 12.35 15.72C12.2427 15.7789 12.1224 15.8099 12 15.81ZM10.48 9.69005C10.3482 9.67988 10.216 9.70293 10.0955 9.75709C9.97493 9.81125 9.86989 9.89478 9.78999 10C9.64054 10.2697 9.55231 10.569 9.53157 10.8767C9.51083 11.1843 9.55809 11.4927 9.66999 11.78C10.1764 12.8066 10.9911 13.6493 12 14.19C13.0089 13.6493 13.8236 12.8066 14.33 11.78C14.4419 11.4927 14.4891 11.1843 14.4684 10.8767C14.4477 10.569 14.3594 10.2697 14.21 10C14.1301 9.89478 14.025 9.81125 13.9045 9.75709C13.784 9.70293 13.6518 9.67988 13.52 9.69005C13.4168 9.68861 13.3143 9.70821 13.2189 9.74766C13.1236 9.78711 13.0372 9.84558 12.9651 9.9195C12.8931 9.99343 12.8369 10.0813 12.7999 10.1776C12.7629 10.274 12.7459 10.3769 12.75 10.48C12.75 10.679 12.671 10.8697 12.5303 11.0104C12.3897 11.151 12.1989 11.23 12 11.23C11.8011 11.23 11.6103 11.151 11.4697 11.0104C11.329 10.8697 11.25 10.679 11.25 10.48C11.2556 10.3765 11.2396 10.273 11.2031 10.176C11.1667 10.0789 11.1105 9.99049 11.0382 9.91626C10.9658 9.84203 10.8788 9.7836 10.7828 9.74467C10.6867 9.70573 10.5836 9.68713 10.48 9.69005Z" fill="white"/>
<path d="M17 22.7101H6.99998C6.00885 22.7154 5.05591 22.3282 4.34947 21.633C3.64303 20.9378 3.24054 19.9912 3.22998 19.0001V5.00009C3.24054 4.00901 3.64303 3.0624 4.34947 2.3672C5.05591 1.672 6.00885 1.28475 6.99998 1.29009H17C17.9911 1.28475 18.944 1.672 19.6505 2.3672C20.3569 3.0624 20.7594 4.00901 20.77 5.00009V19.0001C20.7594 19.9912 20.3569 20.9378 19.6505 21.633C18.944 22.3282 17.9911 22.7154 17 22.7101ZM6.99998 2.79009C6.40666 2.78473 5.83523 3.01394 5.41008 3.42785C4.98494 3.84175 4.7405 4.40684 4.72998 5.00009V19.0001C4.7405 19.5933 4.98494 20.1584 5.41008 20.5723C5.83523 20.9862 6.40666 21.2155 6.99998 21.2101H17C17.5933 21.2155 18.1647 20.9862 18.5899 20.5723C19.015 20.1584 19.2595 19.5933 19.27 19.0001V5.00009C19.2595 4.40684 19.015 3.84175 18.5899 3.42785C18.1647 3.01394 17.5933 2.78473 17 2.79009H6.99998Z" fill="white"/>
</svg>
