<svg width="24" height="24" viewBox="0 0 24 24" fill="none" xmlns="http://www.w3.org/2000/svg">
<path d="M7.75998 21C6.81809 21.0025 5.89673 20.7249 5.11299 20.2025C4.32924 19.6801 3.71849 18.9365 3.35836 18.0662C2.99823 17.1959 2.90497 16.2381 3.09044 15.3147C3.27591 14.3912 3.73173 13.5438 4.39998 12.88L5.80998 11.47C5.9506 11.3295 6.14123 11.2507 6.33998 11.2507C6.53873 11.2507 6.72935 11.3295 6.86998 11.47C6.94074 11.5389 6.99697 11.6214 7.03537 11.7124C7.07377 11.8034 7.09355 11.9012 7.09355 12C7.09355 12.0988 7.07377 12.1966 7.03537 12.2876C6.99697 12.3786 6.94074 12.4611 6.86998 12.53L5.45998 13.94C4.85177 14.5509 4.5103 15.3779 4.5103 16.24C4.5103 17.1021 4.85177 17.9291 5.45998 18.54C6.07951 19.1317 6.90327 19.4619 7.75998 19.4619C8.61669 19.4619 9.44045 19.1317 10.06 18.54L12.88 15.71C13.182 15.409 13.4217 15.0513 13.5852 14.6575C13.7488 14.2637 13.8329 13.8414 13.8329 13.415C13.8329 12.9886 13.7488 12.5663 13.5852 12.1725C13.4217 11.7787 13.182 11.421 12.88 11.12C12.7395 10.9794 12.6606 10.7887 12.6606 10.59C12.6606 10.3912 12.7395 10.2006 12.88 10.06C12.9489 9.98924 13.0313 9.933 13.1224 9.89461C13.2134 9.85621 13.3112 9.83643 13.41 9.83643C13.5088 9.83643 13.6066 9.85621 13.6976 9.89461C13.7886 9.933 13.871 9.98924 13.94 10.06C14.3823 10.4996 14.7334 11.0223 14.9729 11.5981C15.2125 12.1739 15.3358 12.7914 15.3358 13.415C15.3358 14.0386 15.2125 14.6561 14.9729 15.2319C14.7334 15.8077 14.3823 16.3304 13.94 16.77L11.12 19.6C10.6808 20.0446 10.1575 20.3973 9.58069 20.6377C9.00383 20.8781 8.38491 21.0012 7.75998 21Z" fill="white"/>
<path d="M10.59 14.1601C10.4913 14.1623 10.3931 14.1439 10.3018 14.106C10.2106 14.0681 10.1282 14.0116 10.06 13.9401C9.61649 13.5011 9.26438 12.9786 9.02407 12.4028C8.78377 11.8269 8.66003 11.2091 8.66003 10.5851C8.66003 9.96105 8.78377 9.34324 9.02407 8.76736C9.26438 8.19149 9.61649 7.66898 10.06 7.23006L12.88 4.40006C13.7712 3.50893 14.9798 3.0083 16.24 3.0083C17.5003 3.0083 18.7089 3.50893 19.6 4.40006C20.4912 5.29119 20.9918 6.49981 20.9918 7.76006C20.9918 9.0203 20.4912 10.2289 19.6 11.1201L18.19 12.5301C18.0494 12.6705 17.8588 12.7494 17.66 12.7494C17.4613 12.7494 17.2707 12.6705 17.13 12.5301C17.0593 12.4611 17.003 12.3787 16.9646 12.2877C16.9262 12.1966 16.9065 12.0989 16.9065 12.0001C16.9065 11.9013 16.9262 11.8035 16.9646 11.7124C17.003 11.6214 17.0593 11.539 17.13 11.4701L18.54 10.0601C19.1483 9.44911 19.4897 8.62213 19.4897 7.76006C19.4897 6.89798 19.1483 6.071 18.54 5.46006C17.9205 4.86833 17.0968 4.53815 16.24 4.53815C15.3833 4.53815 14.5596 4.86833 13.94 5.46006L11.12 8.29006C10.8156 8.5897 10.5738 8.94693 10.4087 9.34095C10.2437 9.73496 10.1587 10.1579 10.1587 10.5851C10.1587 11.0122 10.2437 11.4352 10.4087 11.8292C10.5738 12.2232 10.8156 12.5804 11.12 12.8801C11.2605 13.0207 11.3394 13.2113 11.3394 13.4101C11.3394 13.6088 11.2605 13.7994 11.12 13.9401C11.0508 14.0102 10.9682 14.0657 10.8772 14.1035C10.7862 14.1413 10.6886 14.1605 10.59 14.1601Z" fill="white"/>
</svg>
