<svg width="24" height="24" viewBox="0 0 24 24" fill="none" xmlns="http://www.w3.org/2000/svg">
<path d="M6.18 12.8901C6.03176 12.89 5.88689 12.8459 5.76367 12.7635C5.64046 12.6811 5.54443 12.564 5.48772 12.427C5.43101 12.2901 5.41616 12.1394 5.44504 11.994C5.47392 11.8486 5.54525 11.715 5.65 11.6101C5.79307 11.4744 5.98278 11.3987 6.18 11.3987C6.37723 11.3987 6.56694 11.4744 6.71 11.6101C6.81617 11.7148 6.88824 11.8491 6.91679 11.9954C6.94534 12.1417 6.92904 12.2932 6.87 12.4301C6.83206 12.5194 6.7778 12.6008 6.71 12.6701C6.63869 12.7402 6.55355 12.7947 6.46 12.8301C6.37209 12.8701 6.27657 12.8905 6.18 12.8901Z" fill="white"/>
<path d="M12 12.7601C11.9002 12.7604 11.8015 12.74 11.71 12.7001C11.6207 12.6621 11.5394 12.6079 11.47 12.5401C11.3311 12.3984 11.2523 12.2085 11.25 12.0101C11.2512 11.9114 11.268 11.8135 11.3 11.7201C11.339 11.6289 11.397 11.5471 11.47 11.4801C11.5711 11.3719 11.7032 11.2975 11.8481 11.2671C11.9931 11.2366 12.1439 11.2517 12.28 11.3101C12.3741 11.3489 12.4593 11.4068 12.53 11.4801C12.5978 11.5494 12.6521 11.6308 12.69 11.7201C12.7299 11.8115 12.7503 11.9103 12.75 12.0101C12.75 12.209 12.671 12.3998 12.5303 12.5404C12.3897 12.6811 12.1989 12.7601 12 12.7601Z" fill="white"/>
<path d="M17.76 12.6201C17.6636 12.6193 17.5683 12.5989 17.48 12.5601C17.3865 12.5247 17.3013 12.4702 17.23 12.4001C17.0911 12.2583 17.0123 12.0685 17.01 11.8701C17.0097 11.7703 17.0301 11.6715 17.07 11.5801C17.108 11.4908 17.1622 11.4094 17.23 11.3401C17.2986 11.2666 17.3846 11.2116 17.48 11.1801C17.6156 11.1232 17.7651 11.1081 17.9094 11.1366C18.0537 11.1651 18.1862 11.2359 18.29 11.3401C18.363 11.4071 18.421 11.4889 18.46 11.5801C18.492 11.6735 18.5088 11.7713 18.51 11.8701C18.5077 12.0685 18.4289 12.2583 18.29 12.4001C18.1495 12.5407 17.9589 12.6199 17.76 12.6201Z" fill="white"/>
<path d="M12 22.86C11.5076 22.8601 11.0201 22.763 10.5653 22.5743C10.1106 22.3855 9.69758 22.1088 9.35002 21.76L2.25002 14.66C1.54777 13.9569 1.15332 13.0038 1.15332 12.01C1.15332 11.0163 1.54777 10.0632 2.25002 9.36003L9.35002 2.26003C10.0531 1.55778 11.0063 1.16333 12 1.16333C12.9938 1.16333 13.9469 1.55778 14.65 2.26003L21.75 9.36003C22.0989 9.70752 22.3758 10.1205 22.5647 10.5753C22.7536 11.03 22.8509 11.5176 22.8509 12.01C22.8509 12.5025 22.7536 12.9901 22.5647 13.4448C22.3758 13.8996 22.0989 14.3125 21.75 14.66L14.65 21.76C14.3025 22.1088 13.8895 22.3855 13.4347 22.5743C12.9799 22.763 12.4924 22.8601 12 22.86ZM12 2.66003C11.7043 2.65807 11.4112 2.71548 11.1381 2.82884C10.865 2.94221 10.6174 3.10924 10.41 3.32003L3.31002 10.42C2.88867 10.8419 2.652 11.4138 2.652 12.01C2.652 12.6063 2.88867 13.1782 3.31002 13.6L10.41 20.7C10.8381 21.1096 11.4076 21.3381 12 21.3381C12.5924 21.3381 13.162 21.1096 13.59 20.7L20.69 13.6C21.1114 13.1782 21.348 12.6063 21.348 12.01C21.348 11.4138 21.1114 10.8419 20.69 10.42L13.59 3.32003C13.3826 3.10924 13.135 2.94221 12.8619 2.82884C12.5888 2.71548 12.2957 2.65807 12 2.66003Z" fill="white"/>
</svg>
