<svg width="24" height="24" viewBox="0 0 24 24" fill="none" xmlns="http://www.w3.org/2000/svg">
<path d="M7.22001 21.37C6.78387 21.3831 6.35542 21.2532 6.00001 21C5.6569 20.752 5.40136 20.4015 5.27018 19.9989C5.13899 19.5964 5.13893 19.1626 5.27001 18.76L6.53001 14.87C6.56227 14.7681 6.5623 14.6586 6.53009 14.5566C6.49788 14.4546 6.43499 14.365 6.35001 14.3L3.04001 11.9C2.68036 11.6547 2.41059 11.2987 2.27167 10.8861C2.13274 10.4735 2.13225 10.0268 2.27027 9.61387C2.40828 9.20095 2.67727 8.84435 3.03638 8.59821C3.39549 8.35206 3.82511 8.22982 4.26001 8.25004H8.35001C8.45692 8.25069 8.56123 8.21705 8.64762 8.15405C8.73401 8.09106 8.79793 8.00203 8.83001 7.90004L10.09 4.00004C10.223 3.5993 10.4794 3.25094 10.8225 3.00484C11.1656 2.75875 11.5778 2.62755 12 2.63004C12.4222 2.62755 12.8344 2.75875 13.1775 3.00484C13.5206 3.25094 13.777 3.5993 13.91 4.00004L15.17 7.90004C15.2021 8.00203 15.266 8.09106 15.3524 8.15405C15.4388 8.21705 15.5431 8.25069 15.65 8.25004H19.74C20.1659 8.24552 20.5822 8.37709 20.9281 8.6256C21.274 8.8741 21.5316 9.22656 21.6633 9.63164C21.795 10.0367 21.7939 10.4733 21.6602 10.8777C21.5265 11.2821 21.2672 11.6333 20.92 11.88L17.61 14.29C17.5247 14.3524 17.4613 14.4402 17.4289 14.5408C17.3966 14.6414 17.397 14.7497 17.43 14.85L18.69 18.74C18.83 19.1412 18.8385 19.5765 18.7145 19.9828C18.5904 20.3892 18.3402 20.7455 18 21C17.6575 21.2503 17.2442 21.3852 16.82 21.3852C16.3958 21.3852 15.9825 21.2503 15.64 21L12.34 18.6C12.2528 18.5366 12.1478 18.5025 12.04 18.5025C11.9322 18.5025 11.8272 18.5366 11.74 18.6L8.40001 21C8.05564 21.2449 7.64255 21.3745 7.22001 21.37ZM12 17C12.4248 17.0014 12.8381 17.138 13.18 17.39L16.49 19.79C16.5772 19.8514 16.6814 19.8839 16.788 19.8829C16.8947 19.8819 16.9983 19.8476 17.0844 19.7847C17.1705 19.7218 17.2347 19.6335 17.268 19.5322C17.3012 19.4309 17.302 19.3218 17.27 19.22L16 15.32C15.8666 14.9161 15.8654 14.4802 15.9967 14.0755C16.128 13.6709 16.3849 13.3187 16.73 13.07L20 10.67C20.09 10.6094 20.1569 10.52 20.1896 10.4165C20.2223 10.313 20.2189 10.2014 20.18 10.1C20.1494 9.99719 20.0858 9.90724 19.9991 9.84401C19.9124 9.78078 19.8073 9.74776 19.7 9.75004H15.65C15.2283 9.74973 14.8174 9.6161 14.4761 9.36825C14.1349 9.1204 13.8807 8.77102 13.75 8.37004L12.48 4.48004C12.4509 4.37629 12.3877 4.28535 12.3007 4.22186C12.2136 4.15838 12.1077 4.12603 12 4.13004C11.8923 4.12603 11.7864 4.15838 11.6994 4.22186C11.6123 4.28535 11.5491 4.37629 11.52 4.48004L10.25 8.36004C10.121 8.76288 9.86758 9.11445 9.52618 9.3642C9.18479 9.61396 8.773 9.74904 8.35001 9.75004H4.26001C4.15271 9.74776 4.04763 9.78078 3.96092 9.84401C3.8742 9.90724 3.81064 9.99719 3.78001 10.1C3.74113 10.2014 3.73776 10.313 3.77045 10.4165C3.80314 10.52 3.86996 10.6094 3.96001 10.67L7.27001 13.07C7.61515 13.3187 7.87202 13.6709 8.0033 14.0755C8.13458 14.4802 8.13342 14.9161 8.00001 15.32L6.73001 19.2C6.69805 19.3018 6.69876 19.4109 6.73206 19.5122C6.76536 19.6135 6.82956 19.7018 6.91564 19.7647C7.00172 19.8276 7.10535 19.8619 7.21197 19.8629C7.31858 19.8639 7.42281 19.8314 7.51001 19.77L10.82 17.37C11.1644 17.1251 11.5775 16.9956 12 17Z" fill="white"/>
</svg>
