<svg width="24" height="24" viewBox="0 0 24 24" fill="none" xmlns="http://www.w3.org/2000/svg">
<path d="M19.56 13.72C19.3893 13.7193 19.224 13.6605 19.0913 13.5533C18.9585 13.446 18.8664 13.2967 18.83 13.13C18.4817 11.5785 17.6155 10.1918 16.3741 9.19824C15.1327 8.20464 13.59 7.66328 12 7.66328C10.4099 7.66328 8.8672 8.20464 7.6258 9.19824C6.3844 10.1918 5.51827 11.5785 5.16997 13.13C5.1245 13.3224 5.0067 13.49 4.84101 13.598C4.67531 13.706 4.47442 13.7461 4.27997 13.71C4.18273 13.691 4.09029 13.6527 4.00813 13.5973C3.92597 13.542 3.85576 13.4707 3.80167 13.3877C3.74758 13.3047 3.71071 13.2116 3.69324 13.1141C3.67577 13.0166 3.67806 12.9166 3.69997 12.82C4.09905 10.914 5.14191 9.20352 6.65335 7.97578C8.16479 6.74804 10.0527 6.07788 12 6.07788C13.9472 6.07788 15.8352 6.74804 17.3466 7.97578C18.858 9.20352 19.9009 10.914 20.3 12.82C20.3387 13.0147 20.2997 13.2168 20.1913 13.3831C20.0829 13.5494 19.9137 13.6667 19.72 13.71L19.56 13.72Z" fill="white"/>
<path d="M12 18.6299C6.69 18.6299 1 17.4999 1 14.9999C1 12.4999 6.72 11.3899 12 11.3899C17.28 11.3899 23 12.5399 23 14.9999C23 17.4599 17.31 18.6299 12 18.6299ZM12 12.9099C5.71 12.9099 2.47 14.3899 2.47 15.0199C2.47 15.6499 5.71 17.1299 12 17.1299C18.29 17.1299 21.53 15.6499 21.53 15.0199C21.53 14.3899 18.29 12.9099 12 12.9099Z" fill="white"/>
<path d="M18.07 22.6099H5.94003C4.58003 22.6099 3.53003 21.0699 3.53003 19.0999V16.8799C3.53003 16.681 3.60905 16.4902 3.7497 16.3496C3.89035 16.2089 4.08112 16.1299 4.28003 16.1299C4.47894 16.1299 4.66971 16.2089 4.81036 16.3496C4.95101 16.4902 5.03003 16.681 5.03003 16.8799V19.0999C5.03003 20.3099 5.57003 21.0999 5.94003 21.0999H18.07C18.43 21.0999 18.98 20.2999 18.98 19.0999V16.8799C18.98 16.681 19.059 16.4902 19.1997 16.3496C19.3404 16.2089 19.5311 16.1299 19.73 16.1299C19.9289 16.1299 20.1197 16.2089 20.2604 16.3496C20.401 16.4902 20.48 16.681 20.48 16.8799V19.0999C20.48 21.0699 19.42 22.6099 18.07 22.6099Z" fill="white"/>
<path d="M12 7.57998C11.8019 7.57739 11.6126 7.49754 11.4725 7.35745C11.3324 7.21735 11.2526 7.02809 11.25 6.82998V2.22998C11.25 2.03107 11.329 1.8403 11.4697 1.69965C11.6103 1.559 11.8011 1.47998 12 1.47998C12.1989 1.47998 12.3897 1.559 12.5303 1.69965C12.671 1.8403 12.75 2.03107 12.75 2.22998V6.82998C12.7474 7.02809 12.6676 7.21735 12.5275 7.35745C12.3874 7.49754 12.1981 7.57739 12 7.57998Z" fill="white"/>
</svg>
