<svg width="24" height="24" viewBox="0 0 24 24" fill="none" xmlns="http://www.w3.org/2000/svg">
<path d="M12 17.0599C10.7216 17.0599 9.49566 16.5521 8.59174 15.6482C7.68781 14.7443 7.17999 13.5183 7.17999 12.2399V6.23992C7.17999 4.96158 7.68781 3.73559 8.59174 2.83167C9.49566 1.92774 10.7216 1.41992 12 1.41992C13.2783 1.41992 14.5043 1.92774 15.4082 2.83167C16.3122 3.73559 16.82 4.96158 16.82 6.23992V12.2399C16.82 13.5183 16.3122 14.7443 15.4082 15.6482C14.5043 16.5521 13.2783 17.0599 12 17.0599ZM12 2.89992C11.1195 2.89992 10.275 3.24971 9.6524 3.87233C9.02978 4.49495 8.67999 5.3394 8.67999 6.21992V12.2199C8.67999 12.6559 8.76587 13.0876 8.93271 13.4904C9.09956 13.8932 9.34411 14.2592 9.6524 14.5675C9.96069 14.8758 10.3267 15.1204 10.7295 15.2872C11.1323 15.454 11.564 15.5399 12 15.5399C12.436 15.5399 12.8677 15.454 13.2705 15.2872C13.6733 15.1204 14.0393 14.8758 14.3476 14.5675C14.6559 14.2592 14.9004 13.8932 15.0673 13.4904C15.2341 13.0876 15.32 12.6559 15.32 12.2199V6.21992C15.32 5.3394 14.9702 4.49495 14.3476 3.87233C13.725 3.24971 12.8805 2.89992 12 2.89992Z" fill="white"/>
<path d="M16.07 22.5998H7.92999C7.73108 22.5998 7.54032 22.5208 7.39966 22.3801C7.25901 22.2395 7.17999 22.0487 7.17999 21.8498C7.17999 21.6509 7.25901 21.4601 7.39966 21.3195C7.54032 21.1788 7.73108 21.0998 7.92999 21.0998H11.25V16.3098C11.25 16.1109 11.329 15.9201 11.4697 15.7795C11.6103 15.6388 11.8011 15.5598 12 15.5598C12.1989 15.5598 12.3897 15.6388 12.5303 15.7795C12.671 15.9201 12.75 16.1109 12.75 16.3098V21.0998H16.07C16.2689 21.0998 16.4597 21.1788 16.6003 21.3195C16.741 21.4601 16.82 21.6509 16.82 21.8498C16.82 22.0487 16.741 22.2395 16.6003 22.3801C16.4597 22.5208 16.2689 22.5998 16.07 22.5998Z" fill="white"/>
</svg>
