<svg width="24" height="24" viewBox="0 0 24 24" fill="none" xmlns="http://www.w3.org/2000/svg">
<path d="M14 21.07C13.8011 21.07 13.6103 20.991 13.4697 20.8504C13.329 20.7097 13.25 20.519 13.25 20.32V14.54C13.2526 14.3419 13.3324 14.1527 13.4725 14.0126C13.6126 13.8725 13.8019 13.7926 14 13.79H19.69C19.8889 13.79 20.0797 13.8691 20.2203 14.0097C20.361 14.1504 20.44 14.3411 20.44 14.54C20.44 14.739 20.361 14.9297 20.2203 15.0704C20.0797 15.211 19.8889 15.29 19.69 15.29H14.7V20.29C14.7054 20.3873 14.6916 20.4846 14.6593 20.5764C14.627 20.6683 14.5769 20.7529 14.5119 20.8253C14.4468 20.8978 14.3682 20.9567 14.2803 20.9987C14.1925 21.0407 14.0972 21.0649 14 21.07Z" fill="white"/>
<path d="M10.05 21.0701C9.95112 21.0714 9.85299 21.0529 9.76139 21.0157C9.66979 20.9785 9.58657 20.9233 9.51666 20.8534C9.44674 20.7835 9.39155 20.7003 9.35434 20.6087C9.31712 20.5171 9.29864 20.4189 9.29999 20.3201V15.3201H4.35999C4.16107 15.3201 3.97031 15.2411 3.82966 15.1004C3.689 14.9597 3.60999 14.769 3.60999 14.5701C3.60999 14.3712 3.689 14.1804 3.82966 14.0397C3.97031 13.8991 4.16107 13.8201 4.35999 13.8201H10.05C10.2481 13.8227 10.4374 13.9025 10.5775 14.0426C10.7175 14.1827 10.7974 14.372 10.8 14.5701V20.3501C10.7922 20.5437 10.7098 20.7269 10.57 20.8611C10.4302 20.9953 10.2438 21.0702 10.05 21.0701Z" fill="white"/>
<path d="M10.05 11.3H4.35999C4.16107 11.3 3.97031 11.221 3.82966 11.0804C3.689 10.9397 3.60999 10.749 3.60999 10.55C3.60999 10.3511 3.689 10.1604 3.82966 10.0197C3.97031 9.87907 4.16107 9.80005 4.35999 9.80005H9.29999V4.80005C9.29999 4.60114 9.379 4.41037 9.51966 4.26972C9.66031 4.12907 9.85107 4.05005 10.05 4.05005C10.2489 4.05005 10.4397 4.12907 10.5803 4.26972C10.721 4.41037 10.8 4.60114 10.8 4.80005V10.58C10.7898 10.7729 10.7067 10.9546 10.5674 11.0884C10.4281 11.2221 10.2431 11.2978 10.05 11.3Z" fill="white"/>
<path d="M19.64 11.3H14C13.8019 11.2974 13.6126 11.2176 13.4725 11.0775C13.3324 10.9374 13.2526 10.7481 13.25 10.55V4.77002C13.25 4.57111 13.329 4.38034 13.4697 4.23969C13.6103 4.09904 13.8011 4.02002 14 4.02002C14.1989 4.02002 14.3897 4.09904 14.5303 4.23969C14.671 4.38034 14.75 4.57111 14.75 4.77002V9.77002H19.69C19.8889 9.77002 20.0797 9.84904 20.2203 9.98969C20.361 10.1303 20.44 10.3211 20.44 10.52C20.44 10.7189 20.361 10.9097 20.2203 11.0503C20.0797 11.191 19.8889 11.27 19.69 11.27L19.64 11.3Z" fill="white"/>
</svg>
