<svg width="24" height="24" viewBox="0 0 24 24" fill="none" xmlns="http://www.w3.org/2000/svg">
<path d="M6.7 17.9C6.51474 17.8787 6.34379 17.7899 6.2197 17.6507C6.09561 17.5115 6.02704 17.3315 6.02704 17.145C6.02704 16.9585 6.09561 16.7785 6.2197 16.6393C6.34379 16.5001 6.51474 16.4114 6.7 16.39C6.80645 16.3777 6.91428 16.3881 7.01644 16.4205C7.11859 16.4528 7.21275 16.5064 7.29273 16.5777C7.37272 16.649 7.43673 16.7364 7.48055 16.8341C7.52438 16.9319 7.54704 17.0379 7.54704 17.145C7.54704 17.2522 7.52438 17.3581 7.48055 17.4559C7.43673 17.5537 7.37272 17.6411 7.29273 17.7123C7.21275 17.7836 7.11859 17.8372 7.01644 17.8696C6.91428 17.9019 6.80645 17.9123 6.7 17.9Z" fill="white"/>
<path d="M6.70998 22.2501C5.35075 22.2885 4.03191 21.7855 3.04359 20.8515C2.05527 19.9176 1.47844 18.6293 1.43998 17.2701C1.40152 15.9108 1.9046 14.592 2.83853 13.6037C3.77246 12.6154 5.06075 12.0385 6.41998 12.0001C6.61764 11.9943 6.80993 12.0649 6.957 12.1971C7.10407 12.3292 7.19465 12.5129 7.20998 12.7101C7.21675 12.8089 7.2036 12.9081 7.17133 13.0017C7.13905 13.0954 7.0883 13.1816 7.02209 13.2553C6.95588 13.3289 6.87555 13.3886 6.78586 13.4306C6.69618 13.4727 6.59896 13.4963 6.49998 13.5001C5.91526 13.5326 5.34723 13.7068 4.84488 14.0078C4.34252 14.3088 3.92093 14.7275 3.61647 15.2277C3.31202 15.728 3.13383 16.2948 3.09728 16.8792C3.06074 17.4637 3.16694 18.0483 3.40671 18.5826C3.64649 19.1169 4.01264 19.5848 4.47359 19.946C4.93454 20.3072 5.47645 20.5509 6.05256 20.6559C6.62868 20.761 7.2217 20.7243 7.78049 20.5491C8.33927 20.3739 8.84704 20.0653 9.25998 19.6501C9.87411 19.0185 10.2307 18.1806 10.26 17.3001C10.2753 17.1029 10.3659 16.9192 10.513 16.7871C10.66 16.6549 10.8523 16.5843 11.05 16.5901C11.1485 16.5952 11.2451 16.6197 11.3341 16.6622C11.4232 16.7047 11.503 16.7643 11.5689 16.8377C11.6349 16.9111 11.6857 16.9968 11.7185 17.0899C11.7513 17.1829 11.7654 17.2816 11.76 17.3801C11.7031 18.6367 11.1746 19.8258 10.28 20.7101C9.34127 21.6765 8.05711 22.2305 6.70998 22.2501Z" fill="white"/>
<path d="M11.05 18.13C10.8511 18.13 10.6603 18.051 10.5197 17.9104C10.379 17.7697 10.3 17.5789 10.3 17.38C10.3 17.1811 10.379 16.9903 10.5197 16.8497C10.6603 16.709 10.8511 16.63 11.05 16.63C11.93 16.5988 12.7673 16.2425 13.4 15.63C13.8127 15.2161 14.1188 14.7082 14.2919 14.1499C14.465 13.5916 14.4999 12.9995 14.3937 12.4247C14.2875 11.8499 14.0432 11.3095 13.682 10.85C13.3208 10.3904 12.8533 10.0255 12.3199 9.78645C11.7865 9.54744 11.203 9.44154 10.6196 9.47786C10.0362 9.51417 9.47029 9.69161 8.97061 9.99492C8.47092 10.2982 8.05237 10.7184 7.75092 11.2192C7.44946 11.72 7.27413 12.2865 7.23999 12.87C7.2271 13.0681 7.13724 13.2533 6.98961 13.3859C6.84198 13.5186 6.64831 13.5883 6.44999 13.58C6.35187 13.5749 6.25574 13.5504 6.16721 13.5078C6.07869 13.4651 5.99953 13.4053 5.93437 13.3318C5.86921 13.2582 5.81935 13.1725 5.78769 13.0794C5.75604 12.9864 5.74322 12.888 5.74999 12.79C5.80352 11.804 6.1416 10.8546 6.72333 10.0567C7.30506 9.25875 8.10553 8.64646 9.02791 8.29387C9.95029 7.94129 10.9551 7.86351 11.9207 8.06994C12.8864 8.27638 13.7716 8.75818 14.4692 9.45708C15.1668 10.156 15.6469 11.042 15.8515 12.0081C16.0562 12.9741 15.9765 13.9787 15.6222 14.9005C15.2679 15.8222 14.6542 16.6215 13.8551 17.2018C13.0561 17.782 12.1061 18.1183 11.12 18.17L11.05 18.13Z" fill="white"/>
<path d="M13.89 10.7001C13.7914 10.7006 13.6938 10.6813 13.6028 10.6436C13.5118 10.6058 13.4292 10.5502 13.36 10.4801C13.2195 10.3395 13.1406 10.1488 13.1406 9.95009C13.1406 9.75134 13.2195 9.56072 13.36 9.42009L21.13 1.66009C21.1989 1.58934 21.2813 1.5331 21.3724 1.4947C21.4634 1.45631 21.5612 1.43652 21.66 1.43652C21.7588 1.43652 21.8566 1.45631 21.9476 1.4947C22.0386 1.5331 22.121 1.58934 22.19 1.66009C22.3304 1.80072 22.4093 1.99134 22.4093 2.19009C22.4093 2.38884 22.3304 2.57947 22.19 2.72009L14.42 10.4801C14.3507 10.5502 14.2682 10.6058 14.1772 10.6436C14.0861 10.6813 13.9885 10.7006 13.89 10.7001Z" fill="white"/>
</svg>
