<svg width="24" height="24" viewBox="0 0 24 24" fill="none" xmlns="http://www.w3.org/2000/svg">
<path d="M14.74 15.57H9.26002C9.16115 15.5713 9.06302 15.5529 8.97142 15.5156C8.87982 15.4784 8.7966 15.4232 8.72669 15.3533C8.65678 15.2834 8.60158 15.2002 8.56437 15.1086C8.52715 15.017 8.50867 14.9189 8.51002 14.82V9.18C8.50867 9.08114 8.52715 8.983 8.56437 8.8914C8.60158 8.7998 8.65678 8.71659 8.72669 8.64667C8.7966 8.57676 8.87982 8.52156 8.97142 8.48435C9.06302 8.44714 9.16115 8.42865 9.26002 8.43H14.74C14.8389 8.42865 14.937 8.44714 15.0286 8.48435C15.1202 8.52156 15.2034 8.57676 15.2733 8.64667C15.3433 8.71659 15.3985 8.7998 15.4357 8.8914C15.4729 8.983 15.4914 9.08114 15.49 9.18V14.82C15.4914 14.9189 15.4729 15.017 15.4357 15.1086C15.3985 15.2002 15.3433 15.2834 15.2733 15.3533C15.2034 15.4232 15.1202 15.4784 15.0286 15.5156C14.937 15.5529 14.8389 15.5713 14.74 15.57ZM10 14.07H14V9.93H10V14.07Z" fill="white"/>
<path d="M9.26 15.5701H3.77C3.66984 15.5727 3.57016 15.5553 3.47684 15.5188C3.38353 15.4823 3.29847 15.4275 3.22669 15.3576C3.15492 15.2877 3.09788 15.2041 3.05894 15.1118C3.02001 15.0194 2.99996 14.9203 3 14.8201V9.18005C3 8.98114 3.07902 8.79038 3.21967 8.64972C3.36032 8.50907 3.55109 8.43005 3.75 8.43005H9.26C9.45891 8.43005 9.64968 8.50907 9.79033 8.64972C9.93098 8.79038 10.01 8.98114 10.01 9.18005V14.8201C10.01 15.019 9.93098 15.2097 9.79033 15.3504C9.64968 15.491 9.45891 15.5701 9.26 15.5701ZM4.52 14.0701H8.52V9.93005H4.52V14.0701Z" fill="white"/>
<path d="M20.22 15.57H14.74C14.5411 15.57 14.3503 15.491 14.2097 15.3503C14.069 15.2097 13.99 15.0189 13.99 14.82V9.18C13.99 8.98109 14.069 8.79032 14.2097 8.64967C14.3503 8.50902 14.5411 8.43 14.74 8.43H20.22C20.3189 8.42865 20.417 8.44714 20.5086 8.48435C20.6002 8.52156 20.6834 8.57676 20.7533 8.64667C20.8232 8.71659 20.8784 8.7998 20.9156 8.8914C20.9529 8.983 20.9713 9.08114 20.97 9.18V14.82C20.9713 14.9189 20.9529 15.017 20.9156 15.1086C20.8784 15.2002 20.8232 15.2834 20.7533 15.3533C20.6834 15.4232 20.6002 15.4784 20.5086 15.5156C20.417 15.5529 20.3189 15.5713 20.22 15.57ZM15.49 14.07H19.49V9.93H15.49V14.07Z" fill="white"/>
</svg>
