<svg width="24" height="24" viewBox="0 0 24 24" fill="none" xmlns="http://www.w3.org/2000/svg">
<path d="M18.62 18.3499H5.38C4.28639 18.3499 3.23742 17.9162 2.46318 17.1438C1.68894 16.3714 1.25265 15.3235 1.25 14.2299V5.7699C1.25265 4.67629 1.68894 3.62838 2.46318 2.85601C3.23742 2.08365 4.28639 1.6499 5.38 1.6499H18.62C19.7136 1.6499 20.7626 2.08365 21.5368 2.85601C22.3111 3.62838 22.7474 4.67629 22.75 5.7699V14.2299C22.7474 15.3235 22.3111 16.3714 21.5368 17.1438C20.7626 17.9162 19.7136 18.3499 18.62 18.3499ZM5.38 3.1499C4.68421 3.1499 4.01677 3.42561 3.52384 3.91667C3.0309 4.40773 2.75265 5.07412 2.75 5.7699V14.2299C2.75265 14.9257 3.0309 15.5921 3.52384 16.0831C4.01677 16.5742 4.68421 16.8499 5.38 16.8499H18.62C19.3158 16.8499 19.9832 16.5742 20.4762 16.0831C20.9691 15.5921 21.2474 14.9257 21.25 14.2299V5.7699C21.2474 5.07412 20.9691 4.40773 20.4762 3.91667C19.9832 3.42561 19.3158 3.1499 18.62 3.1499H5.38Z" fill="white"/>
<path d="M12 22.3499C11.8011 22.3499 11.6103 22.2708 11.4697 22.1302C11.329 21.9895 11.25 21.7988 11.25 21.5999V17.5999C11.25 17.4009 11.329 17.2102 11.4697 17.0695C11.6103 16.9289 11.8011 16.8499 12 16.8499C12.1989 16.8499 12.3897 16.9289 12.5303 17.0695C12.671 17.2102 12.75 17.4009 12.75 17.5999V21.5999C12.75 21.7988 12.671 21.9895 12.5303 22.1302C12.3897 22.2708 12.1989 22.3499 12 22.3499Z" fill="white"/>
<path d="M18 22.3499H6C5.80109 22.3499 5.61032 22.2708 5.46967 22.1302C5.32902 21.9895 5.25 21.7988 5.25 21.5999C5.25 21.4009 5.32902 21.2102 5.46967 21.0695C5.61032 20.9289 5.80109 20.8499 6 20.8499H18C18.1989 20.8499 18.3897 20.9289 18.5303 21.0695C18.671 21.2102 18.75 21.4009 18.75 21.5999C18.75 21.7988 18.671 21.9895 18.5303 22.1302C18.3897 22.2708 18.1989 22.3499 18 22.3499Z" fill="white"/>
</svg>
