<svg width="24" height="24" viewBox="0 0 24 24" fill="none" xmlns="http://www.w3.org/2000/svg">
<path d="M6.89001 12.1601C6.74081 12.1617 6.5945 12.1189 6.46981 12.0369C6.34511 11.955 6.24769 11.8377 6.19001 11.7001C6.15013 11.6086 6.1297 11.5099 6.13001 11.4101C6.13018 11.2112 6.20932 11.0206 6.35001 10.8801C6.42132 10.81 6.50647 10.7555 6.60001 10.7201C6.73564 10.6633 6.88513 10.6481 7.0294 10.6766C7.17367 10.7051 7.30617 10.776 7.41001 10.8801C7.55046 11.0207 7.62935 11.2113 7.62935 11.4101C7.62935 11.6088 7.55046 11.7995 7.41001 11.9401C7.34228 12.0095 7.26142 12.0646 7.17214 12.1024C7.08286 12.1402 6.98695 12.1598 6.89001 12.1601Z" fill="white"/>
<path d="M9.73004 15.0001C9.6344 15.0201 9.53568 15.0201 9.44004 15.0001C9.35079 14.9622 9.2694 14.9079 9.20004 14.8401C9.10722 14.7603 9.03804 14.6565 9.00004 14.5401C8.98037 14.4445 8.98037 14.3458 9.00004 14.2501C9.00235 14.0517 9.08116 13.8619 9.22004 13.7201C9.29189 13.6555 9.37273 13.6016 9.46004 13.5601C9.56327 13.5163 9.67502 13.4962 9.78706 13.5013C9.89909 13.5063 10.0086 13.5365 10.1074 13.5894C10.2063 13.6424 10.292 13.7169 10.3582 13.8074C10.4245 13.8978 10.4696 14.002 10.4903 14.1123C10.511 14.2225 10.5067 14.336 10.4777 14.4443C10.4487 14.5526 10.3958 14.6531 10.3228 14.7383C10.2499 14.8235 10.1588 14.8912 10.0562 14.9365C9.95359 14.9819 9.84214 15.0036 9.73004 15.0001Z" fill="white"/>
<path d="M14.24 10.4899C14.1434 10.4903 14.0479 10.4699 13.96 10.4299C13.8665 10.3945 13.7813 10.34 13.71 10.2699C13.5693 10.1294 13.4902 9.93877 13.49 9.73993C13.4897 9.64015 13.5101 9.54139 13.55 9.44993C13.5879 9.36068 13.6422 9.27929 13.71 9.20993C13.7897 9.13044 13.8902 9.075 14 9.04993C14.1356 8.9931 14.2851 8.97796 14.4294 9.00646C14.5737 9.03496 14.7062 9.10579 14.81 9.20993C14.9148 9.31481 14.9861 9.44839 15.015 9.59379C15.0438 9.73919 15.029 9.88989 14.9723 10.0269C14.9156 10.1638 14.8195 10.2809 14.6963 10.3633C14.5731 10.4457 14.4282 10.4898 14.28 10.4899H14.24Z" fill="white"/>
<path d="M11.4 7.65012C11.2012 7.64995 11.0105 7.57081 10.87 7.43012C10.7987 7.3598 10.744 7.27437 10.71 7.18012C10.6712 7.09183 10.6508 6.99656 10.65 6.90012C10.649 6.8015 10.6679 6.70369 10.7057 6.6126C10.7436 6.52151 10.7994 6.43902 10.87 6.37012C11.0131 6.23437 11.2028 6.15869 11.4 6.15869C11.5972 6.15869 11.7869 6.23437 11.93 6.37012C12.0707 6.51064 12.1498 6.70128 12.15 6.90012C12.1477 7.09854 12.0689 7.2884 11.93 7.43012C11.7895 7.57081 11.5988 7.64995 11.4 7.65012Z" fill="white"/>
<path d="M12.54 17.82C12.3382 17.8203 12.1442 17.7413 12 17.6C11.8596 17.4594 11.7807 17.2688 11.7807 17.07C11.7807 16.8713 11.8596 16.6806 12 16.54C12.0687 16.4666 12.1546 16.4116 12.25 16.38C12.3857 16.3232 12.5352 16.308 12.6794 16.3365C12.8237 16.365 12.9562 16.4359 13.06 16.54C13.1648 16.6449 13.2361 16.7785 13.265 16.9239C13.2939 17.0693 13.279 17.22 13.2223 17.3569C13.1656 17.4939 13.0696 17.611 12.9464 17.6934C12.8232 17.7758 12.6783 17.8199 12.53 17.82H12.54Z" fill="white"/>
<path d="M17.06 13.3C16.8612 13.2999 16.6705 13.2207 16.53 13.08C16.4592 13.0111 16.4016 12.9298 16.36 12.84C16.3233 12.7479 16.3063 12.6491 16.31 12.55C16.31 12.3511 16.389 12.1604 16.5297 12.0197C16.6703 11.8791 16.8611 11.8 17.06 11.8C17.2589 11.8 17.4497 11.8791 17.5904 12.0197C17.731 12.1604 17.81 12.3511 17.81 12.55C17.8103 12.6498 17.7899 12.7486 17.75 12.84C17.7121 12.9293 17.6578 13.0107 17.59 13.08C17.4483 13.2189 17.2584 13.2977 17.06 13.3Z" fill="white"/>
<path d="M12 22.84C11.5076 22.8401 11.0201 22.743 10.5653 22.5542C10.1106 22.3655 9.69758 22.0888 9.35002 21.74L2.25002 14.64C1.54777 13.9369 1.15332 12.9838 1.15332 11.99C1.15332 10.9963 1.54777 10.0431 2.25002 9.34001L9.35002 2.24001C10.0531 1.53776 11.0063 1.14331 12 1.14331C12.9938 1.14331 13.9469 1.53776 14.65 2.24001L21.75 9.34001C22.0989 9.6875 22.3758 10.1005 22.5647 10.5552C22.7536 11.01 22.8509 11.4976 22.8509 11.99C22.8509 12.4824 22.7536 12.97 22.5647 13.4248C22.3758 13.8795 22.0989 14.2925 21.75 14.64L14.65 21.74C14.3025 22.0888 13.8895 22.3655 13.4347 22.5542C12.9799 22.743 12.4924 22.8401 12 22.84ZM12 2.64001C11.7045 2.63917 11.4117 2.69709 11.1388 2.81039C10.8658 2.9237 10.6181 3.09013 10.41 3.30001L3.31002 10.4C2.88867 10.8219 2.652 11.3938 2.652 11.99C2.652 12.5863 2.88867 13.1581 3.31002 13.58L10.41 20.68C10.8319 21.1014 11.4038 21.338 12 21.338C12.5963 21.338 13.1681 21.1014 13.59 20.68L20.69 13.58C21.1114 13.1581 21.348 12.5863 21.348 11.99C21.348 11.3938 21.1114 10.8219 20.69 10.4L13.59 3.30001C13.382 3.09013 13.1342 2.9237 12.8613 2.81039C12.5883 2.69709 12.2956 2.63917 12 2.64001Z" fill="white"/>
</svg>
