<svg width="24" height="24" viewBox="0 0 24 24" fill="none" xmlns="http://www.w3.org/2000/svg">
<path d="M18.43 18.9999C15.56 18.9999 14.06 16.3299 13.55 15.1799H10.45C9.93999 16.3699 8.43999 18.9999 5.56999 18.9999C1.67999 18.9999 1.67999 15.7299 1.67999 14.3399C1.67999 12.6499 4.37999 7.33988 4.91999 6.33988C4.99263 6.23001 5.09258 6.1409 5.21004 6.08129C5.3275 6.02169 5.45843 5.99363 5.58999 5.99988H18.41C18.5484 6.00072 18.684 6.03935 18.8021 6.11161C18.9201 6.18387 19.0162 6.287 19.08 6.40988C19.62 7.40988 22.32 12.7299 22.32 14.4099C22.32 15.7699 22.32 18.9999 18.43 18.9999ZM9.93999 13.7199H14.06C14.2172 13.7185 14.3707 13.7671 14.4984 13.8588C14.626 13.9505 14.7211 14.0805 14.77 14.2299C14.77 14.2299 15.93 17.5399 18.43 17.5399C20.65 17.5399 20.82 16.2299 20.82 14.3799C20.82 13.4599 19.21 9.91988 17.95 7.45988H6.04999C4.78999 9.91988 3.17999 13.4599 3.17999 14.3799C3.17999 16.2299 3.34999 17.5399 5.56999 17.5399C8.06999 17.5399 9.21999 14.2599 9.22999 14.2299C9.27884 14.0805 9.37398 13.9505 9.50164 13.8588C9.62929 13.7671 9.78282 13.7185 9.93999 13.7199Z" fill="white"/>
<path d="M12 7.45996C11.8248 7.4607 11.6549 7.4001 11.5198 7.28868C11.3846 7.17726 11.2927 7.02205 11.26 6.84996C11.1603 6.20462 11.1903 5.54587 11.3482 4.91227C11.5062 4.27867 11.789 3.68294 12.18 3.15996C12.7217 2.58535 13.3862 2.14037 14.1237 1.85816C14.8613 1.57594 15.653 1.46375 16.44 1.52996C16.5385 1.52996 16.636 1.54935 16.727 1.58705C16.818 1.62474 16.9007 1.67998 16.9703 1.74963C17.04 1.81927 17.0952 1.90195 17.1329 1.99294C17.1706 2.08394 17.19 2.18146 17.19 2.27996C17.19 2.37845 17.1706 2.47597 17.1329 2.56697C17.0952 2.65796 17.04 2.74064 16.9703 2.81029C16.9007 2.87993 16.818 2.93517 16.727 2.97286C16.636 3.01056 16.5385 3.02996 16.44 3.02996C15.8757 2.97246 15.3057 3.03936 14.7701 3.22596C14.2345 3.41255 13.7464 3.7143 13.34 4.10996C12.8291 4.82519 12.6142 5.71006 12.74 6.57996C12.7572 6.67715 12.7551 6.7768 12.7338 6.87318C12.7125 6.96956 12.6723 7.06078 12.6156 7.14161C12.559 7.22244 12.4869 7.29128 12.4035 7.34419C12.3202 7.39711 12.2272 7.43305 12.13 7.44995L12 7.45996Z" fill="white"/>
</svg>
