<svg width="24" height="24" viewBox="0 0 24 24" fill="none" xmlns="http://www.w3.org/2000/svg">
<path d="M11.8 22.3799C3.1 22.3799 3 13.7099 3 13.6199V5.52991C2.99968 5.38743 3.03995 5.2478 3.1161 5.12737C3.19226 5.00695 3.30114 4.9107 3.43 4.84991L11.48 1.06991C11.5808 1.02526 11.6898 1.0022 11.8 1.0022C11.9102 1.0022 12.0192 1.02526 12.12 1.06991L20.12 4.84991C20.2507 4.90925 20.3617 5.00487 20.4397 5.12541C20.5177 5.24595 20.5594 5.38634 20.56 5.52991V13.6199C20.6 13.6899 20.5 22.3799 11.8 22.3799ZM4.5 6.00991V13.6199C4.5 13.9199 4.61 20.8799 11.8 20.8799C18.99 20.8799 19.1 13.8799 19.1 13.6199V6.00991L11.8 2.57991L4.5 6.00991Z" fill="white"/>
<path d="M11.8 22.38C11.6011 22.38 11.4104 22.301 11.2697 22.1603C11.1291 22.0197 11.05 21.8289 11.05 21.63V1.75C11.05 1.55109 11.1291 1.36032 11.2697 1.21967C11.4104 1.07902 11.6011 1 11.8 1C11.999 1 12.1897 1.07902 12.3304 1.21967C12.471 1.36032 12.55 1.55109 12.55 1.75V21.63C12.5475 21.8281 12.4676 22.0174 12.3275 22.1575C12.1874 22.2976 11.9982 22.3774 11.8 22.38Z" fill="white"/>
<path d="M19.85 12.4399H3.80005C3.60114 12.4399 3.41037 12.3609 3.26972 12.2203C3.12907 12.0796 3.05005 11.8889 3.05005 11.6899C3.05005 11.491 3.12907 11.3003 3.26972 11.1596C3.41037 11.019 3.60114 10.9399 3.80005 10.9399H19.9C20.099 10.9399 20.2897 11.019 20.4304 11.1596C20.571 11.3003 20.65 11.491 20.65 11.6899C20.65 11.8889 20.571 12.0796 20.4304 12.2203C20.2897 12.3609 20.099 12.4399 19.9 12.4399H19.85Z" fill="white"/>
</svg>
