<svg width="24" height="24" viewBox="0 0 24 24" fill="none" xmlns="http://www.w3.org/2000/svg">
<path d="M6.88999 10.4399C6.79113 10.4413 6.693 10.4228 6.60139 10.3856C6.50979 10.3484 6.42658 10.2932 6.35666 10.2233C6.28675 10.1534 6.23156 10.0701 6.19434 9.97854C6.15713 9.88694 6.13865 9.7888 6.13999 9.68994V3.68994C6.13999 3.49103 6.21901 3.30026 6.35966 3.15961C6.50031 3.01896 6.69108 2.93994 6.88999 2.93994C7.0889 2.93994 7.27967 3.01896 7.42032 3.15961C7.56097 3.30026 7.63999 3.49103 7.63999 3.68994V9.68994C7.63999 9.88885 7.56097 10.0796 7.42032 10.2203C7.27967 10.3609 7.0889 10.4399 6.88999 10.4399Z" fill="white"/>
<path d="M9.87 7.45996H3.86999C3.67108 7.45996 3.48032 7.38094 3.33966 7.24029C3.19901 7.09964 3.12 6.90887 3.12 6.70996C3.12 6.51105 3.19901 6.32028 3.33966 6.17963C3.48032 6.03898 3.67108 5.95996 3.86999 5.95996H9.87C10.0689 5.95996 10.2597 6.03898 10.4003 6.17963C10.541 6.32028 10.62 6.51105 10.62 6.70996C10.62 6.90887 10.541 7.09964 10.4003 7.24029C10.2597 7.38094 10.0689 7.45996 9.87 7.45996Z" fill="white"/>
<path d="M15.18 21C14.9811 21 14.7903 20.921 14.6497 20.7803C14.509 20.6397 14.43 20.4489 14.43 20.25V11C14.43 10.8011 14.509 10.6103 14.6497 10.4697C14.7903 10.329 14.9811 10.25 15.18 10.25C15.3789 10.25 15.5697 10.329 15.7103 10.4697C15.851 10.6103 15.93 10.8011 15.93 11V20.26C15.9248 20.4564 15.8439 20.6431 15.704 20.7811C15.5642 20.919 15.3764 20.9975 15.18 21Z" fill="white"/>
<path d="M19.8 16.3999H10.55C10.3511 16.3999 10.1603 16.3209 10.0197 16.1802C9.879 16.0396 9.79999 15.8488 9.79999 15.6499C9.79999 15.451 9.879 15.2602 10.0197 15.1196C10.1603 14.9789 10.3511 14.8999 10.55 14.8999H19.8C19.9989 14.8999 20.1897 14.9789 20.3303 15.1196C20.471 15.2602 20.55 15.451 20.55 15.6499C20.55 15.8488 20.471 16.0396 20.3303 16.1802C20.1897 16.3209 19.9989 16.3999 19.8 16.3999Z" fill="white"/>
</svg>
