<svg width="24" height="24" viewBox="0 0 24 24" fill="none" xmlns="http://www.w3.org/2000/svg">
<path d="M18.62 21.9999C15.75 21.9999 14.25 19.3299 13.74 18.1799H10.64C10.13 19.3299 8.64 21.9999 5.75 21.9999C1.87 21.9999 1.87 18.7299 1.87 17.3399C1.87 15.6499 4.57 10.3399 5.12 9.33995C5.18256 9.21901 5.27727 9.11767 5.39372 9.0471C5.51017 8.97652 5.64383 8.93944 5.78 8.93995H7.38C7.57891 8.93995 7.76967 9.01896 7.91033 9.15962C8.05098 9.30027 8.13 9.49103 8.13 9.68995C8.13 9.88886 8.05098 10.0796 7.91033 10.2203C7.76967 10.3609 7.57891 10.4399 7.38 10.4399H6.24C4.98 12.8999 3.36999 16.4399 3.36999 17.3499C3.36999 19.1999 3.54 20.5099 5.75 20.5099C8.26 20.5099 9.41 17.2299 9.42 17.1999C9.47017 17.0514 9.56565 16.9223 9.69301 16.8308C9.82036 16.7393 9.97319 16.6901 10.13 16.6899H14.25C14.4068 16.6901 14.5596 16.7393 14.687 16.8308C14.8143 16.9223 14.9098 17.0514 14.96 17.1999C14.96 17.1999 16.12 20.5099 18.62 20.5099C20.84 20.5099 21.01 19.1999 21.01 17.3499C21.01 16.4299 19.4 12.8999 18.14 10.4399H17C16.8011 10.4399 16.6103 10.3609 16.4697 10.2203C16.329 10.0796 16.25 9.88886 16.25 9.68995C16.25 9.49103 16.329 9.30027 16.4697 9.15962C16.6103 9.01896 16.8011 8.93995 17 8.93995H18.6C18.7362 8.93944 18.8698 8.97652 18.9863 9.0471C19.1027 9.11767 19.1974 9.21901 19.26 9.33995C19.81 10.3399 22.51 15.6599 22.51 17.3399C22.51 18.7399 22.51 21.9999 18.62 21.9999Z" fill="white"/>
<path d="M17 13.31H7.37995C7.28109 13.3113 7.18296 13.2929 7.09135 13.2557C6.99975 13.2184 6.91654 13.1632 6.84662 13.0933C6.77671 13.0234 6.72152 12.9402 6.6843 12.8486C6.64709 12.757 6.62861 12.6589 6.62995 12.56V2.75C6.62995 2.55109 6.70897 2.36032 6.84962 2.21967C6.99027 2.07902 7.18104 2 7.37995 2H17C17.1981 2.00259 17.3873 2.08244 17.5274 2.22253C17.6675 2.36263 17.7474 2.55189 17.75 2.75V12.56C17.75 12.7589 17.6709 12.9497 17.5303 13.0903C17.3896 13.231 17.1989 13.31 17 13.31ZM8.12995 11.81H16.25V3.5H8.12995V11.81Z" fill="white"/>
</svg>
