<svg width="24" height="24" viewBox="0 0 24 24" fill="none" xmlns="http://www.w3.org/2000/svg">
<path d="M12 21.7C11.8776 21.6998 11.7573 21.6688 11.65 21.61C11.34 21.44 3.93001 17.51 2.38001 12.21C1.49001 9.20998 1.79001 6.27998 3.18001 4.41998C3.68804 3.74871 4.35061 3.20999 5.11141 2.84961C5.87222 2.48923 6.70878 2.31783 7.55001 2.34998C8.45302 2.30574 9.35012 2.51798 10.1376 2.96215C10.9251 3.40632 11.5707 4.06428 12 4.85998C12.4293 4.06428 13.075 3.40632 13.8624 2.96215C14.6499 2.51798 15.547 2.30574 16.45 2.34998C17.2912 2.31783 18.1278 2.48923 18.8886 2.84961C19.6494 3.20999 20.312 3.74871 20.82 4.41998C22.21 6.27998 22.51 9.18998 21.62 12.21C20.07 17.51 12.62 21.44 12.35 21.61C12.2427 21.6688 12.1224 21.6998 12 21.7ZM7.55001 3.84998C6.94187 3.81841 6.33522 3.93582 5.78278 4.19201C5.23033 4.44819 4.74879 4.83539 4.38001 5.31998C3.28001 6.79998 3.06001 9.21998 3.82001 11.79C5.02001 15.88 10.55 19.26 12 20.09C13.45 19.26 19 15.87 20.18 11.79C20.94 9.21998 20.72 6.78998 19.62 5.31998C19.2512 4.83539 18.7697 4.44819 18.2172 4.19201C17.6648 3.93582 17.0581 3.81841 16.45 3.84998C13.03 3.84998 12.77 7.15998 12.75 7.52998C12.7399 7.72281 12.6567 7.90455 12.5174 8.03828C12.3781 8.17201 12.1931 8.2477 12 8.24998C11.8069 8.2477 11.6219 8.17201 11.4826 8.03828C11.3433 7.90455 11.2602 7.72281 11.25 7.52998C11.23 7.15998 11 3.84998 7.55001 3.84998Z" fill="white"/>
<path d="M12 15.63C11.8019 15.6274 11.6126 15.5475 11.4725 15.4074C11.3324 15.2673 11.2526 15.0781 11.25 14.88V12.49L7.66999 10.74C7.54963 10.6814 7.44712 10.5917 7.37313 10.4801C7.29914 10.3686 7.25635 10.2392 7.24921 10.1056C7.24206 9.97189 7.27083 9.83875 7.33251 9.71994C7.3942 9.60114 7.48655 9.50101 7.59999 9.42995L11.6 6.86995C11.7641 6.77159 11.9599 6.7406 12.1463 6.78348C12.3328 6.82636 12.4954 6.93978 12.6 7.09995C12.6959 7.26466 12.7255 7.4597 12.6828 7.64544C12.64 7.83118 12.5282 7.99369 12.37 8.09995L9.52999 9.99995L12.33 11.37C12.457 11.4295 12.5641 11.5243 12.6386 11.6432C12.7131 11.762 12.7517 11.8997 12.75 12.04V14.9C12.7423 15.0946 12.6602 15.2788 12.5207 15.4146C12.3811 15.5505 12.1947 15.6275 12 15.63Z" fill="white"/>
</svg>
