<svg width="24" height="24" viewBox="0 0 24 24" fill="none" xmlns="http://www.w3.org/2000/svg">
<path d="M12 21.26C11.3786 21.2642 10.7674 21.1019 10.23 20.79L5.22998 17.93C4.7 17.6124 4.26181 17.1624 3.95848 16.6241C3.65515 16.0858 3.49714 15.4779 3.49998 14.86V9.14003C3.50124 8.51831 3.66531 7.90776 3.97585 7.36915C4.28638 6.83054 4.73256 6.38264 5.26998 6.07003L10.27 3.21003C10.8085 2.90031 11.4188 2.7373 12.04 2.7373C12.6612 2.7373 13.2715 2.90031 13.81 3.21003L18.81 6.07003C19.3325 6.39255 19.7628 6.84474 20.0589 7.38268C20.355 7.92062 20.507 8.52601 20.5 9.14003V14.86C20.4987 15.4818 20.3346 16.0923 20.0241 16.6309C19.7136 17.1695 19.2674 17.6174 18.73 17.93L13.73 20.79C13.2043 21.0951 12.6078 21.2571 12 21.26ZM12 4.26003C11.6494 4.26555 11.3057 4.35834 11 4.53003L5.99998 7.37003C5.6903 7.54874 5.43419 7.8072 5.25831 8.1185C5.08244 8.4298 4.99323 8.78255 4.99998 9.14003V14.86C4.99323 15.2175 5.08244 15.5703 5.25831 15.8816C5.43419 16.1929 5.6903 16.4513 5.99998 16.63L11 19.49C11.304 19.6656 11.6489 19.758 12 19.758C12.351 19.758 12.6959 19.6656 13 19.49L18 16.63C18.3097 16.4513 18.5658 16.1929 18.7416 15.8816C18.9175 15.5703 19.0067 15.2175 19 14.86V9.14003C19.0067 8.78255 18.9175 8.4298 18.7416 8.1185C18.5658 7.8072 18.3097 7.54874 18 7.37003L13 4.51003C12.6961 4.33378 12.3512 4.24066 12 4.24003V4.26003Z" fill="white"/>
<path d="M12 20.77C11.8011 20.77 11.6103 20.691 11.4697 20.5503C11.329 20.4097 11.25 20.2189 11.25 20.02V4C11.25 3.80109 11.329 3.61032 11.4697 3.46967C11.6103 3.32902 11.8011 3.25 12 3.25C12.1989 3.25 12.3897 3.32902 12.5303 3.46967C12.671 3.61032 12.75 3.80109 12.75 4V20C12.7527 20.1002 12.7352 20.1998 12.6988 20.2932C12.6623 20.3865 12.6074 20.4715 12.5375 20.5433C12.4676 20.6151 12.384 20.6721 12.2917 20.7111C12.1994 20.75 12.1002 20.77 12 20.77Z" fill="white"/>
</svg>
