<svg width="24" height="24" viewBox="0 0 24 24" fill="none" xmlns="http://www.w3.org/2000/svg">
<path d="M12.07 20.7899C11.961 20.7897 11.8533 20.7653 11.7548 20.7187C11.6563 20.672 11.5693 20.6041 11.5 20.5199L1.50001 8.51989C1.37493 8.38342 1.30554 8.20502 1.30554 8.01989C1.30554 7.83477 1.37493 7.65636 1.50001 7.51989L5.40001 3.43989C5.47716 3.36006 5.57085 3.2981 5.67451 3.25836C5.77817 3.21862 5.88928 3.20208 6.00001 3.20989H18C18.1989 3.21007 18.3895 3.2892 18.53 3.42989L22.47 7.36989C22.6001 7.50114 22.6771 7.67578 22.6863 7.86033C22.6955 8.04487 22.6363 8.22632 22.52 8.36989L12.66 20.5099C12.5902 20.5967 12.5019 20.6669 12.4016 20.7153C12.3013 20.7638 12.1914 20.7892 12.08 20.7899H12.07ZM3.07001 8.06989L12.07 18.8599L20.92 7.99989L17.68 4.70989H6.27001L3.07001 8.06989Z" fill="white"/>
<path d="M21.93 8.78979H2.07001C1.87109 8.78979 1.68033 8.71078 1.53968 8.57012C1.39902 8.42947 1.32001 8.23871 1.32001 8.03979C1.32001 7.84088 1.39902 7.65012 1.53968 7.50946C1.68033 7.36881 1.87109 7.28979 2.07001 7.28979H21.93C22.1289 7.28979 22.3197 7.36881 22.4603 7.50946C22.601 7.65012 22.68 7.84088 22.68 8.03979C22.68 8.23871 22.601 8.42947 22.4603 8.57012C22.3197 8.71078 22.1289 8.78979 21.93 8.78979Z" fill="white"/>
<path d="M12.07 20.79C11.8711 20.79 11.6803 20.711 11.5397 20.5703C11.399 20.4297 11.32 20.2389 11.32 20.04V4C11.32 3.80109 11.399 3.61032 11.5397 3.46967C11.6803 3.32902 11.8711 3.25 12.07 3.25C12.2689 3.25 12.4597 3.32902 12.6003 3.46967C12.741 3.61032 12.82 3.80109 12.82 4V20C12.8269 20.1021 12.8126 20.2046 12.7779 20.3009C12.7432 20.3973 12.6889 20.4853 12.6184 20.5596C12.5479 20.6338 12.4628 20.6927 12.3684 20.7323C12.274 20.772 12.1724 20.7916 12.07 20.79Z" fill="white"/>
</svg>
