<svg width="24" height="24" viewBox="0 0 24 24" fill="none" xmlns="http://www.w3.org/2000/svg">
<path d="M13.7 20.7499C13.6047 20.7479 13.5102 20.731 13.42 20.6999L8.76003 18.8499L3.93003 20.6999C3.8175 20.7422 3.69637 20.7564 3.57712 20.7413C3.45788 20.7262 3.3441 20.6823 3.24563 20.6134C3.14716 20.5444 3.06696 20.4526 3.01198 20.3457C2.95699 20.2388 2.92886 20.1201 2.93003 19.9999V5.99993C2.92997 5.84842 2.9758 5.70045 3.06148 5.5755C3.14716 5.45055 3.26868 5.35447 3.41003 5.29993L8.52003 3.29993C8.67532 3.24503 8.84474 3.24503 9.00003 3.29993L13.77 5.15993L19.47 3.28993C19.5815 3.25122 19.7006 3.24009 19.8173 3.25751C19.934 3.27493 20.0447 3.32036 20.14 3.38993C20.237 3.45915 20.3158 3.55075 20.3698 3.65695C20.4237 3.76315 20.4513 3.88081 20.45 3.99993V17.9999C20.4499 18.1567 20.4006 18.3096 20.3092 18.4369C20.2177 18.5643 20.0886 18.6598 19.94 18.7099L13.94 20.7099C13.8631 20.7378 13.7818 20.7514 13.7 20.7499ZM8.76003 17.2899C8.85659 17.2895 8.95211 17.31 9.04003 17.3499L13.72 19.1999L19 17.4199V4.99993L14 6.66993C13.8345 6.72485 13.6556 6.72485 13.49 6.66993L8.76003 4.79993L4.41003 6.46993V18.9099L8.50003 17.3399C8.58304 17.308 8.67108 17.291 8.76003 17.2899Z" fill="white"/>
</svg>
