<svg width="24" height="24" viewBox="0 0 24 24" fill="none" xmlns="http://www.w3.org/2000/svg">
<path d="M20.37 9.29002H3.62998C3.00855 9.25026 2.42558 8.97537 1.99956 8.52121C1.57353 8.06706 1.33643 7.46772 1.33643 6.84502C1.33643 6.22233 1.57353 5.62299 1.99956 5.16884C2.42558 4.71468 3.00855 4.43979 3.62998 4.40002H20.37C20.9914 4.43979 21.5744 4.71468 22.0004 5.16884C22.4264 5.62299 22.6635 6.22233 22.6635 6.84502C22.6635 7.46772 22.4264 8.06706 22.0004 8.52121C21.5744 8.97537 20.9914 9.25026 20.37 9.29002ZM3.62998 5.90002C3.39612 5.92411 3.17949 6.03407 3.02199 6.20862C2.8645 6.38317 2.77732 6.60992 2.77732 6.84502C2.77732 7.08013 2.8645 7.30688 3.02199 7.48143C3.17949 7.65598 3.39612 7.76593 3.62998 7.79002H20.37C20.6038 7.76593 20.8205 7.65598 20.978 7.48143C21.1355 7.30688 21.2226 7.08013 21.2226 6.84502C21.2226 6.60992 21.1355 6.38317 20.978 6.20862C20.8205 6.03407 20.6038 5.92411 20.37 5.90002H3.62998Z" fill="white"/>
<path d="M19.29 19.85H4.71C4.5181 19.8398 4.33746 19.7563 4.20534 19.6167C4.07323 19.4772 3.99973 19.2922 4 19.1V8.54004C4 8.34113 4.07902 8.15036 4.21967 8.00971C4.36032 7.86906 4.55109 7.79004 4.75 7.79004H19.29C19.4889 7.79004 19.6797 7.86906 19.8203 8.00971C19.961 8.15036 20.04 8.34113 20.04 8.54004V19.1C20.04 19.299 19.961 19.4897 19.8203 19.6304C19.6797 19.771 19.4889 19.85 19.29 19.85ZM5.46 18.35H18.54V9.29004H5.46V18.35Z" fill="white"/>
<path d="M12 17.34C11.8011 17.34 11.6103 17.261 11.4697 17.1204C11.329 16.9797 11.25 16.789 11.25 16.59V11.05C11.25 10.8511 11.329 10.6604 11.4697 10.5197C11.6103 10.3791 11.8011 10.3 12 10.3C12.1989 10.3 12.3897 10.3791 12.5303 10.5197C12.671 10.6604 12.75 10.8511 12.75 11.05V16.59C12.75 16.789 12.671 16.9797 12.5303 17.1204C12.3897 17.261 12.1989 17.34 12 17.34Z" fill="white"/>
<path d="M14.77 14.5701H9.22998C9.03107 14.5701 8.8403 14.4911 8.69965 14.3504C8.559 14.2097 8.47998 14.019 8.47998 13.8201C8.47998 13.6212 8.559 13.4304 8.69965 13.2897C8.8403 13.1491 9.03107 13.0701 9.22998 13.0701H14.77C14.9689 13.0701 15.1597 13.1491 15.3003 13.2897C15.441 13.4304 15.52 13.6212 15.52 13.8201C15.52 14.019 15.441 14.2097 15.3003 14.3504C15.1597 14.4911 14.9689 14.5701 14.77 14.5701Z" fill="white"/>
</svg>
