<svg width="24" height="24" viewBox="0 0 24 24" fill="none" xmlns="http://www.w3.org/2000/svg">
<path d="M8.34 21.1901C8.22216 21.1888 8.10606 21.1614 8 21.1101C7.87595 21.0468 7.77138 20.9511 7.69742 20.8331C7.62346 20.7151 7.58288 20.5793 7.58 20.4401V18.0001H4.81C4.61109 18.0001 4.42032 17.921 4.27967 17.7804C4.13902 17.6397 4.06 17.449 4.06 17.2501C4.06 17.0511 4.13902 16.8604 4.27967 16.7197C4.42032 16.5791 4.61109 16.5001 4.81 16.5001H8.34C8.43886 16.4987 8.53699 16.5172 8.62859 16.5544C8.7202 16.5916 8.80341 16.6468 8.87332 16.7167C8.94324 16.7866 8.99843 16.8699 9.03565 16.9615C9.07286 17.0531 9.09134 17.1512 9.09 17.2501V18.9501L12 16.7101C12.1317 16.6163 12.2884 16.564 12.45 16.5601H15.84L18.13 14.2401V4.06006H5.56V14.0001C5.56 14.199 5.48098 14.3897 5.34033 14.5304C5.19968 14.671 5.00891 14.7501 4.81 14.7501C4.61109 14.7501 4.42032 14.671 4.27967 14.5304C4.13902 14.3897 4.06 14.199 4.06 14.0001V3.31006C4.06259 3.11195 4.14244 2.92269 4.28253 2.78259C4.42263 2.6425 4.61189 2.56265 4.81 2.56006H18.9C19.0981 2.56265 19.2874 2.6425 19.4275 2.78259C19.5676 2.92269 19.6474 3.11195 19.65 3.31006V14.5501C19.6483 14.7457 19.5692 14.9326 19.43 15.0701L16.71 17.8401C16.6389 17.9105 16.5546 17.9662 16.4619 18.0039C16.3693 18.0417 16.2701 18.0607 16.17 18.0601H12.72L8.8 21.0001C8.67114 21.1113 8.5098 21.1779 8.34 21.1901Z" fill="white"/>
<path d="M9.19 12.1001C8.99109 12.1001 8.80033 12.0211 8.65967 11.8804C8.51902 11.7398 8.44 11.549 8.44 11.3501V7.2301C8.44 7.03119 8.51902 6.84042 8.65967 6.69977C8.80033 6.55912 8.99109 6.4801 9.19 6.4801C9.38891 6.4801 9.57968 6.55912 9.72033 6.69977C9.86099 6.84042 9.94 7.03119 9.94 7.2301V11.3501C9.94135 11.449 9.92287 11.5471 9.88565 11.6387C9.84844 11.7303 9.79324 11.8135 9.72333 11.8834C9.65342 11.9533 9.5702 12.0085 9.4786 12.0458C9.387 12.083 9.28887 12.1014 9.19 12.1001Z" fill="white"/>
<path d="M14.81 12.1001C14.7111 12.1014 14.613 12.083 14.5214 12.0458C14.4298 12.0085 14.3466 11.9533 14.2767 11.8834C14.2068 11.8135 14.1516 11.7303 14.1144 11.6387C14.0771 11.5471 14.0587 11.449 14.06 11.3501V7.2301C14.06 7.03119 14.139 6.84042 14.2797 6.69977C14.4203 6.55912 14.6111 6.4801 14.81 6.4801C15.0089 6.4801 15.1997 6.55912 15.3403 6.69977C15.481 6.84042 15.56 7.03119 15.56 7.2301V11.3501C15.56 11.549 15.481 11.7398 15.3403 11.8804C15.1997 12.0211 15.0089 12.1001 14.81 12.1001Z" fill="white"/>
</svg>
