<svg width="24" height="24" viewBox="0 0 24 24" fill="none" xmlns="http://www.w3.org/2000/svg">
<path d="M17.66 21.78H6.33999C5.24465 21.78 4.19417 21.3448 3.41964 20.5703C2.64512 19.7958 2.20999 18.7453 2.20999 17.65V6.32995C2.20999 5.23461 2.64512 4.18413 3.41964 3.4096C4.19417 2.63507 5.24465 2.19995 6.33999 2.19995H17.66C18.7553 2.19995 19.8058 2.63507 20.5803 3.4096C21.3549 4.18413 21.79 5.23461 21.79 6.32995V17.65C21.79 18.1923 21.6832 18.7294 21.4756 19.2304C21.2681 19.7315 20.9638 20.1868 20.5803 20.5703C20.1968 20.9538 19.7415 21.258 19.2405 21.4656C18.7394 21.6731 18.2024 21.78 17.66 21.78ZM6.33999 3.69995C5.64247 3.69995 4.97352 3.97704 4.4803 4.47026C3.98708 4.96348 3.70999 5.63243 3.70999 6.32995V17.65C3.70999 18.3475 3.98708 19.0164 4.4803 19.5096C4.97352 20.0029 5.64247 20.28 6.33999 20.28H17.66C18.3575 20.28 19.0265 20.0029 19.5197 19.5096C20.0129 19.0164 20.29 18.3475 20.29 17.65V6.32995C20.29 5.63243 20.0129 4.96348 19.5197 4.47026C19.0265 3.97704 18.3575 3.69995 17.66 3.69995H6.33999Z" fill="white"/>
<path d="M8.19 12.9399C7.61361 12.9418 7.04962 12.7726 6.56954 12.4536C6.08947 12.1346 5.71493 11.6802 5.49345 11.1481C5.27196 10.616 5.21349 10.03 5.32545 9.46461C5.43741 8.89919 5.71477 8.37977 6.12234 7.97219C6.52991 7.56462 7.04934 7.28727 7.61476 7.1753C8.18017 7.06334 8.7661 7.12181 9.29824 7.3433C9.83038 7.56479 10.2848 7.93932 10.6037 8.4194C10.9227 8.89947 11.092 9.46347 11.09 10.0399C11.09 10.4207 11.015 10.7978 10.8693 11.1496C10.7235 11.5015 10.5099 11.8212 10.2406 12.0905C9.97132 12.3598 9.65163 12.5734 9.29979 12.7191C8.94794 12.8648 8.57084 12.9399 8.19 12.9399ZM8.19 8.62986C7.90903 8.62798 7.63391 8.71009 7.39993 8.86565C7.16594 9.02121 6.98377 9.24313 6.87679 9.50294C6.7698 9.76275 6.74287 10.0486 6.79947 10.3238C6.85606 10.599 6.99359 10.8511 7.19441 11.0476C7.39523 11.2441 7.65018 11.3761 7.92656 11.4268C8.20294 11.4774 8.48814 11.4443 8.74557 11.3317C9.003 11.2191 9.22092 11.0322 9.37138 10.7949C9.52184 10.5576 9.59797 10.2807 9.59 9.99986C9.57965 9.6346 9.4279 9.28763 9.16673 9.03207C8.90557 8.7765 8.5554 8.6323 8.19 8.62986Z" fill="white"/>
<path d="M16 12.9399C15.4236 12.9418 14.8596 12.7726 14.3795 12.4536C13.8995 12.1346 13.5249 11.6802 13.3034 11.1481C13.082 10.616 13.0235 10.03 13.1354 9.46461C13.2474 8.89919 13.5248 8.37977 13.9323 7.97219C14.3399 7.56462 14.8593 7.28727 15.4248 7.1753C15.9902 7.06334 16.5761 7.12181 17.1082 7.3433C17.6404 7.56479 18.0948 7.93932 18.4137 8.4194C18.7327 8.89947 18.902 9.46347 18.9 10.0399C18.8974 10.8082 18.591 11.5443 18.0477 12.0876C17.5044 12.6308 16.7683 12.9372 16 12.9399ZM16 8.62986C15.7182 8.62397 15.4412 8.70265 15.2046 8.85575C14.968 9.00884 14.7827 9.22933 14.6726 9.48875C14.5625 9.74818 14.5327 10.0346 14.587 10.3112C14.6413 10.5877 14.7772 10.8416 14.9772 11.0402C15.1772 11.2387 15.4321 11.3728 15.709 11.4251C15.9859 11.4774 16.2722 11.4455 16.5308 11.3335C16.7894 11.2215 17.0085 11.0346 17.1599 10.7969C17.3113 10.5592 17.3879 10.2816 17.38 9.99986C17.3698 9.63801 17.2208 9.29394 16.9639 9.03891C16.7071 8.78388 16.3619 8.63742 16 8.62986Z" fill="white"/>
<path d="M16 17.4199H8.19C7.99109 17.4199 7.80032 17.3409 7.65967 17.2003C7.51902 17.0596 7.44 16.8688 7.44 16.6699C7.44 16.471 7.51902 16.2802 7.65967 16.1396C7.80032 15.9989 7.99109 15.9199 8.19 15.9199H16C16.1989 15.9199 16.3897 15.9989 16.5303 16.1396C16.671 16.2802 16.75 16.471 16.75 16.6699C16.75 16.8688 16.671 17.0596 16.5303 17.2003C16.3897 17.3409 16.1989 17.4199 16 17.4199Z" fill="white"/>
</svg>
