<svg width="24" height="24" viewBox="0 0 24 24" fill="none" xmlns="http://www.w3.org/2000/svg">
<path d="M20 22.75C19.8011 22.7498 19.6105 22.6706 19.47 22.53L16 19.0599L12.53 22.53C12.3894 22.6704 12.1987 22.7493 12 22.7493C11.8012 22.7493 11.6106 22.6704 11.47 22.53L7.99999 19.0599L4.52999 22.53C4.42459 22.6349 4.29034 22.7062 4.14433 22.7347C3.99831 22.7632 3.84712 22.7476 3.70999 22.69C3.57317 22.634 3.45624 22.5384 3.37425 22.4154C3.29227 22.2925 3.24899 22.1477 3.24999 22V1.99995C3.25012 1.85171 3.29417 1.70683 3.37659 1.58362C3.45901 1.4604 3.5761 1.36438 3.71306 1.30766C3.85003 1.25095 4.00072 1.2361 4.14612 1.26499C4.29152 1.29387 4.4251 1.36519 4.52999 1.46995L7.99999 4.93995L11.47 1.46995C11.6106 1.3295 11.8012 1.25061 12 1.25061C12.1987 1.25061 12.3894 1.3295 12.53 1.46995L16 4.93995L19.47 1.46995C19.5749 1.36519 19.7085 1.29387 19.8539 1.26499C19.9993 1.2361 20.1499 1.25095 20.2869 1.30766C20.4239 1.36438 20.541 1.4604 20.6234 1.58362C20.7058 1.70683 20.7499 1.85171 20.75 1.99995V22C20.751 22.1477 20.7077 22.2925 20.6257 22.4154C20.5437 22.5384 20.4268 22.634 20.29 22.69C20.1983 22.729 20.0997 22.7494 20 22.75ZM7.99999 17.25C8.09853 17.2495 8.19617 17.2687 8.28718 17.3065C8.37819 17.3443 8.46074 17.3998 8.52999 17.4699L12 20.94L15.47 17.4699C15.6106 17.3295 15.8012 17.2506 16 17.2506C16.1987 17.2506 16.3894 17.3295 16.53 17.4699L19.25 20.19V3.80995L16.53 6.52995C16.3894 6.6704 16.1987 6.74929 16 6.74929C15.8012 6.74929 15.6106 6.6704 15.47 6.52995L12 3.05995L8.52999 6.52995C8.38936 6.6704 8.19874 6.74929 7.99999 6.74929C7.80124 6.74929 7.61061 6.6704 7.46999 6.52995L4.74999 3.80995V20.19L7.46999 17.4699C7.53923 17.3998 7.62178 17.3443 7.71279 17.3065C7.80381 17.2687 7.90145 17.2495 7.99999 17.25Z" fill="white"/>
</svg>
