<svg width="24" height="24" viewBox="0 0 24 24" fill="none" xmlns="http://www.w3.org/2000/svg">
<path d="M18.43 18.54C15.56 18.54 14.06 15.87 13.55 14.72H10.45C9.93999 15.87 8.44999 18.54 5.56999 18.54C1.67999 18.54 1.67999 15.27 1.67999 13.88C1.67999 12.19 4.37999 6.87997 4.91999 5.87997C4.98374 5.75709 5.07984 5.65396 5.19792 5.5817C5.31599 5.50945 5.45156 5.47081 5.58999 5.46997H18.41C18.5484 5.47081 18.684 5.50945 18.8021 5.5817C18.9201 5.65396 19.0162 5.75709 19.08 5.87997C19.62 6.87997 22.32 12.2 22.32 13.88C22.32 15.27 22.32 18.54 18.43 18.54ZM9.93999 13.22H14.06C14.2172 13.2186 14.3707 13.2672 14.4984 13.3589C14.626 13.4506 14.7211 13.5806 14.77 13.73C14.77 13.73 15.93 17 18.43 17C20.65 17 20.82 15.69 20.82 13.84C20.82 13 19.21 9.41997 18 6.99997H6.04999C4.78999 9.45997 3.17999 13 3.17999 13.92C3.17999 15.77 3.34999 17.08 5.56999 17.08C8.06999 17.08 9.21999 13.8 9.22999 13.77C9.27166 13.6131 9.36372 13.4743 9.49202 13.3749C9.62031 13.2756 9.77771 13.2211 9.93999 13.22Z" fill="white"/>
</svg>
