<svg width="24" height="24" viewBox="0 0 24 24" fill="none" xmlns="http://www.w3.org/2000/svg">
<path d="M12 19.3899C9.15864 19.3899 6.43348 18.2619 4.42338 16.2537C2.41328 14.2454 1.28268 11.5213 1.28003 8.67993C1.27987 8.48611 1.35476 8.29975 1.48899 8.15993C1.62322 8.02011 1.80636 7.93768 2.00003 7.92993H22C22.1989 7.92993 22.3897 8.00895 22.5304 8.1496C22.671 8.29025 22.75 8.48102 22.75 8.67993C22.7487 10.0894 22.4695 11.4848 21.9283 12.7862C21.3871 14.0876 20.5946 15.2695 19.5961 16.2643C18.5976 17.2591 17.4127 18.0472 16.1093 18.5835C14.8059 19.1198 13.4095 19.3939 12 19.3899ZM2.81003 9.38993C2.99676 11.699 4.04592 13.8532 5.74877 15.4239C7.45163 16.9947 9.68338 17.8668 12 17.8668C14.3167 17.8668 16.5484 16.9947 18.2513 15.4239C19.9541 13.8532 21.0033 11.699 21.19 9.38993H2.81003Z" fill="white"/>
<path d="M12 19.39C11.8011 19.39 11.6103 19.3109 11.4697 19.1703C11.329 19.0296 11.25 18.8389 11.25 18.64V8.63997C11.2501 8.49173 11.2942 8.34685 11.3766 8.22363C11.459 8.10042 11.5761 8.00439 11.7131 7.94768C11.85 7.89097 12.0007 7.87612 12.1461 7.905C12.2915 7.93388 12.4251 8.00521 12.53 8.10997L19.53 15.11C19.6625 15.2521 19.7346 15.4402 19.7312 15.6345C19.7277 15.8288 19.649 16.0142 19.5116 16.1516C19.3742 16.289 19.1888 16.3677 18.9945 16.3711C18.8002 16.3746 18.6122 16.3024 18.47 16.17L12.71 10.41V18.56C12.721 18.6617 12.7111 18.7646 12.6809 18.8623C12.6507 18.9601 12.6008 19.0506 12.5343 19.1283C12.4678 19.2061 12.3861 19.2694 12.2942 19.3144C12.2023 19.3594 12.1022 19.3851 12 19.39Z" fill="white"/>
<path d="M5.00003 16.47C4.90124 16.4722 4.80308 16.4538 4.71181 16.4159C4.62055 16.3781 4.5382 16.3215 4.47003 16.25C4.39927 16.1811 4.34304 16.0986 4.30464 16.0076C4.26624 15.9166 4.24646 15.8188 4.24646 15.72C4.24646 15.6212 4.26624 15.5234 4.30464 15.4324C4.34304 15.3414 4.39927 15.2589 4.47003 15.19L11.47 8.19C11.5387 8.11632 11.6215 8.05721 11.7135 8.01622C11.8055 7.97523 11.9048 7.95319 12.0055 7.95141C12.1062 7.94963 12.2062 7.96816 12.2996 8.00588C12.393 8.0436 12.4778 8.09974 12.5491 8.17096C12.6203 8.24218 12.6764 8.32702 12.7142 8.4204C12.7519 8.51379 12.7704 8.61382 12.7686 8.71452C12.7668 8.81523 12.7448 8.91454 12.7038 9.00654C12.6628 9.09854 12.6037 9.18134 12.53 9.25L5.53003 16.25C5.46079 16.3201 5.37824 16.3757 5.28722 16.4135C5.19621 16.4512 5.09857 16.4705 5.00003 16.47Z" fill="white"/>
</svg>
