<svg width="24" height="24" viewBox="0 0 24 24" fill="none" xmlns="http://www.w3.org/2000/svg">
<path d="M12.18 10.79C12.0694 10.7905 11.96 10.7666 11.8598 10.7199C11.7595 10.6732 11.6708 10.605 11.6 10.52L7 4.99997C6.87702 4.86247 6.80902 4.68446 6.80902 4.49997C6.80902 4.31549 6.87702 4.13748 7 3.99997L8.82 2.13997C8.89109 2.06607 8.97657 2.00754 9.07117 1.96798C9.16577 1.92842 9.26747 1.90868 9.37 1.90997H14.89C15.0888 1.91015 15.2795 1.98928 15.42 2.12997L17.23 3.92997C17.3581 4.0623 17.4338 4.23664 17.443 4.42057C17.4521 4.60451 17.3942 4.78552 17.28 4.92997L12.76 10.5C12.6917 10.5885 12.6037 10.6598 12.5031 10.7084C12.4024 10.757 12.2918 10.7815 12.18 10.78V10.79ZM8.59 4.55997L12.17 8.85997L15.69 4.51997L14.58 3.40997H9.69L8.59 4.55997Z" fill="white"/>
<path d="M12.14 21.1799C10.7295 21.1785 9.35111 20.7593 8.17862 19.9752C7.00613 19.1912 6.09212 18.0775 5.55191 16.7746C5.01171 15.4716 4.8695 14.0379 5.14323 12.6543C5.41697 11.2706 6.09439 9.99902 7.09001 8.99994C7.15868 8.92625 7.24148 8.86715 7.33348 8.82616C7.42548 8.78517 7.52479 8.76312 7.62549 8.76135C7.72619 8.75957 7.82622 8.77809 7.91961 8.81582C8.013 8.85354 8.09783 8.90968 8.16905 8.9809C8.24027 9.05212 8.29642 9.13695 8.33414 9.23034C8.37186 9.32373 8.39038 9.42376 8.38861 9.52446C8.38683 9.62516 8.36479 9.72448 8.3238 9.81648C8.2828 9.90848 8.2237 9.99128 8.15001 10.0599C7.36462 10.85 6.83082 11.855 6.61593 12.9482C6.40104 14.0413 6.5147 15.1736 6.94257 16.2022C7.37044 17.2308 8.09335 18.1097 9.02011 18.7279C9.94687 19.3461 11.036 19.6761 12.15 19.6761C13.2641 19.6761 14.3532 19.3461 15.2799 18.7279C16.2067 18.1097 16.9296 17.2308 17.3575 16.2022C17.7853 15.1736 17.899 14.0413 17.6841 12.9482C17.4692 11.855 16.9354 10.85 16.15 10.0599C16.0096 9.91931 15.9307 9.72869 15.9307 9.52994C15.9307 9.33119 16.0096 9.14056 16.15 8.99994C16.219 8.92918 16.3014 8.87295 16.3924 8.83455C16.4834 8.79615 16.5812 8.77637 16.68 8.77637C16.7788 8.77637 16.8766 8.79615 16.9676 8.83455C17.0587 8.87295 17.1411 8.92918 17.21 8.99994C18.2091 9.9985 18.8895 11.2709 19.1652 12.6563C19.4409 14.0417 19.2995 15.4777 18.7589 16.7826C18.2183 18.0876 17.3027 19.2029 16.1281 19.9874C14.9535 20.772 13.5725 21.1904 12.16 21.1899L12.14 21.1799Z" fill="white"/>
</svg>
