<svg width="24" height="24" viewBox="0 0 24 24" fill="none" xmlns="http://www.w3.org/2000/svg">
<path d="M6.41005 10.27C6.28902 10.2686 6.16969 10.2413 6.06005 10.19C5.75005 10 3.00005 8.52005 2.36005 6.38005C2.1662 5.83429 2.09966 5.25144 2.16552 4.67604C2.23138 4.10063 2.42789 3.54789 2.74005 3.06005C2.96957 2.74602 3.27085 2.49141 3.61875 2.31746C3.96666 2.14351 4.35111 2.05525 4.74005 2.06005C5.04622 2.05134 5.351 2.1044 5.63621 2.21608C5.92142 2.32776 6.1812 2.49576 6.40005 2.71005C6.62075 2.49546 6.88228 2.32736 7.16914 2.21571C7.456 2.10406 7.76235 2.05113 8.07005 2.06005C8.45871 2.05688 8.84259 2.14586 9.19023 2.31968C9.53788 2.4935 9.83938 2.74722 10.07 3.06005C10.3786 3.55135 10.5722 4.10605 10.6363 4.68269C10.7004 5.25933 10.6333 5.84298 10.44 6.39005C9.81005 8.52005 7.05005 10.02 6.74005 10.19C6.63655 10.2386 6.52431 10.2658 6.41005 10.27ZM4.75005 3.59005C4.59125 3.58348 4.43342 3.61772 4.29162 3.6895C4.14982 3.76127 4.02878 3.86819 3.94005 4.00005C3.77197 4.30293 3.67234 4.63897 3.64815 4.98452C3.62396 5.33006 3.67581 5.67671 3.80005 6.00005C4.36392 7.15251 5.27736 8.09745 6.41005 8.70005C7.5353 8.09411 8.44141 7.14952 9.00005 6.00005C9.1258 5.67742 9.17933 5.33117 9.15687 4.98563C9.13441 4.6401 9.0365 4.30368 8.87005 4.00005C8.77614 3.87622 8.653 3.77762 8.51164 3.71305C8.37029 3.64847 8.21513 3.61996 8.06005 3.63005C7.93674 3.62718 7.81417 3.64969 7.69992 3.69618C7.58568 3.74267 7.48222 3.81214 7.39595 3.90029C7.30968 3.98843 7.24244 4.09337 7.19842 4.20859C7.1544 4.3238 7.13453 4.44683 7.14005 4.57005C7.1298 4.76195 7.04628 4.94259 6.90672 5.0747C6.76717 5.20682 6.58222 5.28032 6.39005 5.28005C6.1987 5.27527 6.0162 5.19847 5.87902 5.065C5.74183 4.93152 5.66006 4.75119 5.65005 4.56005C5.66128 4.43578 5.64625 4.31054 5.60595 4.19245C5.56564 4.07436 5.50095 3.96607 5.41609 3.8746C5.33122 3.78313 5.22806 3.71053 5.11332 3.66151C4.99858 3.61249 4.87481 3.58814 4.75005 3.59005Z" fill="white"/>
<path d="M15.1301 21.91C15.0108 21.9109 14.8934 21.8798 14.7901 21.82C14.5801 21.71 9.79011 19.16 8.79011 15.68C8.48489 14.8272 8.37672 13.9164 8.4737 13.0158C8.57069 12.1152 8.87031 11.2483 9.35011 10.48C9.69838 10.0188 10.1532 9.64865 10.6756 9.40137C11.198 9.15408 11.7726 9.03697 12.3501 9.06004C12.8969 9.03181 13.4421 9.14049 13.9363 9.37622C14.4304 9.61196 14.858 9.9673 15.1801 10.41C15.5031 9.97074 15.9294 9.61777 16.4212 9.38231C16.9131 9.14686 17.4553 9.03618 18.0001 9.06004C18.5774 9.03866 19.1514 9.15652 19.6735 9.40368C20.1957 9.65083 20.6507 10.02 21.0001 10.48C21.4783 11.2491 21.7761 12.1164 21.8714 13.017C21.9666 13.9175 21.8568 14.828 21.5501 15.68C20.5501 19.16 15.7301 21.68 15.5501 21.82C15.4223 21.8915 15.276 21.9228 15.1301 21.91ZM12.3001 10.56C11.9574 10.54 11.6151 10.6043 11.3031 10.7473C10.991 10.8902 10.7187 11.1075 10.5101 11.38C10.1757 11.9638 9.97366 12.6139 9.91836 13.2844C9.86306 13.9549 9.95583 14.6294 10.1901 15.26C10.9001 17.65 14.0701 19.67 15.1301 20.26C16.2001 19.63 19.3701 17.6 20.0701 15.26C20.3059 14.6301 20.4003 13.956 20.3468 13.2856C20.2932 12.6151 20.0929 11.9646 19.7601 11.38C19.5499 11.1067 19.2759 10.889 18.9621 10.7461C18.6483 10.6031 18.3043 10.5392 17.9601 10.56C17.4085 10.56 16.8794 10.7792 16.4893 11.1693C16.0992 11.5593 15.8801 12.0884 15.8801 12.64C15.8699 12.8319 15.7863 13.0126 15.6468 13.1447C15.5072 13.2768 15.3223 13.3503 15.1301 13.35C14.9379 13.3503 14.753 13.2768 14.6134 13.1447C14.4739 13.0126 14.3904 12.8319 14.3801 12.64C14.3814 12.3665 14.3285 12.0955 14.2245 11.8425C14.1204 11.5895 13.9673 11.3597 13.7738 11.1663C13.5804 10.9729 13.3506 10.8197 13.0977 10.7157C12.8447 10.6116 12.5736 10.5587 12.3001 10.56Z" fill="white"/>
</svg>
