<svg width="24" height="24" viewBox="0 0 24 24" fill="none" xmlns="http://www.w3.org/2000/svg">
<path d="M16.39 15.5601H12.2C12.001 15.5601 11.8103 15.481 11.6696 15.3404C11.529 15.1997 11.45 15.009 11.45 14.8101C11.45 14.6111 11.529 14.4204 11.6696 14.2797C11.8103 14.1391 12.001 14.0601 12.2 14.0601H16.39C16.5889 14.0601 16.7796 14.1391 16.9203 14.2797C17.0609 14.4204 17.14 14.6111 17.14 14.8101C17.14 15.009 17.0609 15.1997 16.9203 15.3404C16.7796 15.481 16.5889 15.5601 16.39 15.5601Z" fill="white"/>
<path d="M19.21 15.2301C19.1179 15.228 19.0267 15.2111 18.94 15.1801C18.8444 15.1449 18.757 15.0906 18.6831 15.0205C18.6091 14.9504 18.5503 14.8661 18.51 14.7725C18.4698 14.6789 18.449 14.5781 18.449 14.4763C18.449 14.3744 18.4698 14.2736 18.51 14.1801L20.89 7.85005C20.917 7.74923 20.9648 7.65516 21.0303 7.57387C21.0958 7.49258 21.1776 7.42586 21.2704 7.37798C21.3631 7.3301 21.4649 7.30211 21.5691 7.2958C21.6733 7.2895 21.7776 7.30502 21.8755 7.34136C21.9734 7.37771 22.0626 7.43409 22.1374 7.50689C22.2122 7.57969 22.271 7.66731 22.31 7.76414C22.349 7.86096 22.3674 7.96487 22.3639 8.06921C22.3605 8.17354 22.3353 8.27601 22.29 8.37005L19.91 14.7101C19.8621 14.8589 19.7688 14.989 19.6433 15.0822C19.5178 15.1755 19.3663 15.2272 19.21 15.2301Z" fill="white"/>
<path d="M8.99997 15.4401C8.84317 15.4399 8.69034 15.3907 8.56299 15.2992C8.43563 15.2077 8.34015 15.0786 8.28997 14.9301L5.20997 5.56006H2.40997C2.21106 5.56006 2.0203 5.48104 1.87964 5.34039C1.73899 5.19974 1.65997 5.00897 1.65997 4.81006C1.65997 4.61115 1.73899 4.42038 1.87964 4.27973C2.0203 4.13908 2.21106 4.06006 2.40997 4.06006H5.74997C5.90801 4.06087 6.06176 4.11159 6.18926 4.20497C6.31676 4.29836 6.41151 4.42963 6.45997 4.58006L9.74997 14.4501C9.78934 14.5462 9.80831 14.6495 9.80568 14.7533C9.80305 14.8571 9.77888 14.9593 9.73469 15.0533C9.69051 15.1473 9.62727 15.2312 9.549 15.2994C9.47072 15.3677 9.37911 15.419 9.27997 15.4501C9.18698 15.4665 9.09156 15.4631 8.99997 15.4401Z" fill="white"/>
<path d="M10.54 19.9399C9.89719 19.9399 9.26884 19.7493 8.73438 19.3922C8.19992 19.0351 7.78336 18.5275 7.53737 17.9337C7.29139 17.3398 7.22703 16.6863 7.35243 16.0559C7.47783 15.4255 7.78736 14.8464 8.24188 14.3918C8.6964 13.9373 9.2755 13.6278 9.90594 13.5024C10.5364 13.377 11.1898 13.4413 11.7837 13.6873C12.3776 13.9333 12.8851 14.3499 13.2423 14.8843C13.5994 15.4188 13.79 16.0472 13.79 16.6899C13.7873 17.5511 13.4441 18.3762 12.8352 18.9851C12.2262 19.594 11.4011 19.9373 10.54 19.9399ZM10.54 14.9399C10.1939 14.9399 9.85552 15.0426 9.56773 15.2349C9.27995 15.4272 9.05564 15.7005 8.92319 16.0202C8.79074 16.34 8.75608 16.6919 8.8236 17.0314C8.89113 17.3708 9.0578 17.6826 9.30254 17.9274C9.54728 18.1721 9.8591 18.3388 10.1986 18.4063C10.538 18.4738 10.8899 18.4392 11.2097 18.3067C11.5294 18.1743 11.8028 17.95 11.9951 17.6622C12.1873 17.3744 12.29 17.0361 12.29 16.6899C12.29 16.2258 12.1056 15.7807 11.7774 15.4525C11.4492 15.1243 11.0041 14.9399 10.54 14.9399Z" fill="white"/>
<path d="M18.05 19.9399C17.4072 19.9399 16.7788 19.7493 16.2444 19.3922C15.7099 19.0351 15.2934 18.5275 15.0474 17.9337C14.8014 17.3398 14.737 16.6863 14.8624 16.0559C14.9878 15.4255 15.2974 14.8464 15.7519 14.3918C16.2064 13.9373 16.7855 13.6278 17.4159 13.5024C18.0464 13.377 18.6998 13.4413 19.2937 13.6873C19.8876 13.9333 20.3951 14.3499 20.7523 14.8843C21.1094 15.4188 21.3 16.0472 21.3 16.6899C21.2974 17.5511 20.9541 18.3762 20.3452 18.9851C19.7363 19.594 18.9111 19.9373 18.05 19.9399ZM18.05 14.9399C17.7039 14.9399 17.3655 15.0426 17.0777 15.2349C16.79 15.4272 16.5657 15.7005 16.4332 16.0202C16.3007 16.34 16.2661 16.6919 16.3336 17.0314C16.4011 17.3708 16.5678 17.6826 16.8126 17.9274C17.0573 18.1721 17.3691 18.3388 17.7086 18.4063C18.048 18.4738 18.3999 18.4392 18.7197 18.3067C19.0395 18.1743 19.3128 17.95 19.5051 17.6622C19.6974 17.3744 19.8 17.0361 19.8 16.6899C19.8 16.2258 19.6156 15.7807 19.2874 15.4525C18.9592 15.1243 18.5141 14.9399 18.05 14.9399Z" fill="white"/>
</svg>
