<svg width="24" height="24" viewBox="0 0 24 24" fill="none" xmlns="http://www.w3.org/2000/svg">
<path d="M18.79 11.8201C18.6913 11.8223 18.5931 11.8039 18.5018 11.766C18.4106 11.7281 18.3282 11.6716 18.26 11.6001L13.05 6.40009C12.9176 6.25791 12.8454 6.06986 12.8489 5.87556C12.8523 5.68126 12.931 5.49588 13.0684 5.35846C13.2058 5.22105 13.3912 5.14234 13.5855 5.13891C13.7798 5.13548 13.9679 5.20761 14.11 5.34009L19.32 10.5401C19.4605 10.6807 19.5394 10.8713 19.5394 11.0701C19.5394 11.2688 19.4605 11.4595 19.32 11.6001C19.2508 11.6702 19.1683 11.7258 19.0772 11.7636C18.9862 11.8013 18.8886 11.8206 18.79 11.8201Z" fill="white"/>
<path d="M13.6301 11.7701C13.5315 11.7706 13.4339 11.7513 13.3429 11.7136C13.2519 11.6758 13.1693 11.6202 13.1001 11.5501C12.9596 11.4095 12.8807 11.2188 12.8807 11.0201C12.8807 10.8213 12.9596 10.6307 13.1001 10.4901L18.3101 5.2901C18.379 5.21934 18.4614 5.16311 18.5525 5.12471C18.6435 5.08631 18.7413 5.06653 18.8401 5.06653C18.9389 5.06653 19.0367 5.08631 19.1277 5.12471C19.2187 5.16311 19.3011 5.21934 19.3701 5.2901C19.5105 5.43072 19.5894 5.62135 19.5894 5.8201C19.5894 6.01885 19.5105 6.20947 19.3701 6.3501L14.1601 11.5501C14.0912 11.6207 14.0087 11.6765 13.9176 11.7144C13.8265 11.7522 13.7287 11.7711 13.6301 11.7701Z" fill="white"/>
<path d="M7.79004 11.8C7.12153 11.8 6.46805 11.6018 5.91221 11.2304C5.35637 10.859 4.92315 10.3311 4.66732 9.71351C4.4115 9.0959 4.34456 8.41629 4.47498 7.76064C4.6054 7.10498 4.92731 6.50272 5.40001 6.03002C5.87272 5.55732 6.47497 5.2354 7.13063 5.10499C7.78629 4.97457 8.46589 5.0415 9.08351 5.29733C9.70112 5.55315 10.229 5.98637 10.6004 6.54221C10.9718 7.09805 11.17 7.75154 11.17 8.42004C11.1674 9.31566 10.8104 10.1738 10.1771 10.8071C9.54384 11.4404 8.68566 11.7974 7.79004 11.8ZM7.79004 6.54004C7.41821 6.54004 7.05473 6.6503 6.74556 6.85688C6.4364 7.06345 6.19543 7.35707 6.05314 7.7006C5.91085 8.04412 5.87362 8.42213 5.94616 8.78681C6.0187 9.15149 6.19775 9.48648 6.46068 9.7494C6.7236 10.0123 7.05858 10.1914 7.42327 10.2639C7.78795 10.3365 8.16596 10.2992 8.50948 10.1569C8.85301 10.0146 9.14662 9.77368 9.3532 9.46451C9.55978 9.15535 9.67004 8.79187 9.67004 8.42004C9.67004 7.92143 9.47196 7.44325 9.1194 7.09068C8.76683 6.73811 8.28864 6.54004 7.79004 6.54004Z" fill="white"/>
<path d="M7.79004 20C7.12153 20 6.46805 19.8018 5.91221 19.4304C5.35637 19.059 4.92315 18.5311 4.66732 17.9135C4.4115 17.2958 4.34456 16.6162 4.47498 15.9606C4.6054 15.3049 4.92731 14.7027 5.40001 14.23C5.87272 13.7573 6.47497 13.4354 7.13063 13.3049C7.78629 13.1745 8.46589 13.2415 9.08351 13.4973C9.70112 13.7531 10.229 14.1863 10.6004 14.7422C10.9718 15.298 11.17 15.9515 11.17 16.62C11.1674 17.5156 10.8104 18.3738 10.1771 19.0071C9.54384 19.6404 8.68566 19.9974 7.79004 20ZM7.79004 14.74C7.41821 14.74 7.05473 14.8503 6.74556 15.0568C6.4364 15.2634 6.19543 15.557 6.05314 15.9005C5.91085 16.2441 5.87362 16.6221 5.94616 16.9868C6.0187 17.3514 6.19775 17.6864 6.46068 17.9494C6.7236 18.2123 7.05858 18.3913 7.42327 18.4639C7.78795 18.5364 8.16596 18.4992 8.50948 18.3569C8.85301 18.2146 9.14662 17.9736 9.3532 17.6645C9.55978 17.3553 9.67004 16.9918 9.67004 16.62C9.67004 16.1214 9.47196 15.6432 9.1194 15.2906C8.76683 14.9381 8.28864 14.74 7.79004 14.74Z" fill="white"/>
<path d="M16.2101 20C15.5416 20 14.8881 19.8018 14.3323 19.4304C13.7764 19.059 13.3432 18.5311 13.0874 17.9135C12.8315 17.2958 12.7646 16.6162 12.895 15.9606C13.0254 15.3049 13.3474 14.7027 13.8201 14.23C14.2928 13.7573 14.895 13.4354 15.5507 13.3049C16.2063 13.1745 16.8859 13.2415 17.5035 13.4973C18.1212 13.7531 18.649 14.1863 19.0204 14.7422C19.3918 15.298 19.5901 15.9515 19.5901 16.62C19.5874 17.5156 19.2305 18.3738 18.5972 19.0071C17.9639 19.6404 17.1057 19.9974 16.2101 20ZM16.2101 14.74C15.8382 14.74 15.4748 14.8503 15.1656 15.0568C14.8564 15.2634 14.6155 15.557 14.4732 15.9005C14.3309 16.2441 14.2937 16.6221 14.3662 16.9868C14.4387 17.3514 14.6178 17.6864 14.8807 17.9494C15.1436 18.2123 15.4786 18.3913 15.8433 18.4639C16.208 18.5364 16.586 18.4992 16.9295 18.3569C17.273 18.2146 17.5667 17.9736 17.7732 17.6645C17.9798 17.3553 18.0901 16.9918 18.0901 16.62C18.0901 16.1214 17.892 15.6432 17.5394 15.2906C17.1869 14.9381 16.7087 14.74 16.2101 14.74Z" fill="white"/>
</svg>
