<svg width="24" height="24" viewBox="0 0 24 24" fill="none" xmlns="http://www.w3.org/2000/svg">
<path d="M12 22.1799C11.8667 22.181 11.7355 22.1465 11.62 22.0799L3.86999 17.6099C3.76311 17.5463 3.67348 17.4574 3.60897 17.3511C3.54446 17.2447 3.50704 17.1241 3.5 16.9999V7.99995C3.49838 7.8685 3.5318 7.739 3.59683 7.62476C3.66186 7.51052 3.75615 7.41566 3.86999 7.34995L11.62 2.86995C11.7346 2.80602 11.8637 2.77246 11.995 2.77246C12.1263 2.77246 12.2553 2.80602 12.37 2.86995L20.12 7.34995C20.2364 7.41354 20.3333 7.50765 20.4003 7.62218C20.4672 7.7367 20.5017 7.8673 20.5 7.99995V16.9999C20.5006 17.1324 20.4657 17.2626 20.3988 17.3769C20.332 17.4912 20.2357 17.5855 20.12 17.6499L12.37 22.1199C12.2546 22.1737 12.1265 22.1945 12 22.1799ZM4.99999 16.5199L12 20.5699L19 16.5199V8.43995L12 4.43995L4.99999 8.43995V16.5199Z" fill="white"/>
<path d="M12 16.66C11.9012 16.6622 11.8031 16.6438 11.7118 16.6059C11.6205 16.568 11.5382 16.5115 11.47 16.44L8.73001 13.71C8.59132 13.5664 8.51379 13.3746 8.51379 13.175C8.51379 12.9753 8.59132 12.7835 8.73001 12.64C8.87064 12.4995 9.06126 12.4206 9.26001 12.4206C9.45876 12.4206 9.64939 12.4995 9.79001 12.64L11.25 14.1V9.20996C11.25 9.01105 11.329 8.82028 11.4697 8.67963C11.6103 8.53898 11.8011 8.45996 12 8.45996C12.1989 8.45996 12.3897 8.53898 12.5303 8.67963C12.671 8.82028 12.75 9.01105 12.75 9.20996V15.91C12.7517 16.0592 12.7088 16.2055 12.6268 16.3302C12.5449 16.4549 12.4276 16.5523 12.29 16.61C12.1977 16.6459 12.0991 16.6629 12 16.66Z" fill="white"/>
<path d="M12 16.66C11.9015 16.6605 11.8038 16.6412 11.7128 16.6035C11.6218 16.5657 11.5393 16.5101 11.47 16.44C11.3296 16.2994 11.2507 16.1087 11.2507 15.91C11.2507 15.7112 11.3296 15.5206 11.47 15.38L14.21 12.64C14.3506 12.4995 14.5413 12.4207 14.74 12.4207C14.9388 12.4207 15.1294 12.4995 15.27 12.64C15.4087 12.7836 15.4862 12.9754 15.4862 13.175C15.4862 13.3746 15.4087 13.5664 15.27 13.71L12.53 16.44C12.4608 16.5101 12.3782 16.5657 12.2872 16.6035C12.1962 16.6412 12.0986 16.6605 12 16.66Z" fill="white"/>
</svg>
