<svg width="24" height="24" viewBox="0 0 24 24" fill="none" xmlns="http://www.w3.org/2000/svg">
<path d="M17.61 21.71H6.39003C5.29999 21.71 4.2546 21.277 3.48382 20.5062C2.71305 19.7355 2.28003 18.6901 2.28003 17.6V6.38002C2.28003 5.28998 2.71305 4.24459 3.48382 3.47381C4.2546 2.70304 5.29999 2.27002 6.39003 2.27002H17.61C18.7001 2.27002 19.7455 2.70304 20.5162 3.47381C21.287 4.24459 21.72 5.28998 21.72 6.38002V17.6C21.72 18.6901 21.287 19.7355 20.5162 20.5062C19.7455 21.277 18.7001 21.71 17.61 21.71ZM6.39003 3.77002C5.69781 3.77002 5.03395 4.045 4.54448 4.53447C4.05501 5.02394 3.78003 5.6878 3.78003 6.38002V17.6C3.78003 18.2922 4.05501 18.9561 4.54448 19.4456C5.03395 19.935 5.69781 20.21 6.39003 20.21H17.61C18.3022 20.21 18.9661 19.935 19.4556 19.4456C19.945 18.9561 20.22 18.2922 20.22 17.6V6.38002C20.22 5.6878 19.945 5.02394 19.4556 4.53447C18.9661 4.045 18.3022 3.77002 17.61 3.77002H6.39003Z" fill="white"/>
<path d="M7.86002 14.9001C7.09089 14.9001 6.35327 14.5946 5.80941 14.0507C5.26556 13.5069 4.96002 12.7692 4.96002 12.0001C4.96002 11.231 5.26556 10.4933 5.80941 9.94949C6.35327 9.40563 7.09089 9.1001 7.86002 9.1001C8.05893 9.1001 8.2497 9.17911 8.39035 9.31977C8.531 9.46042 8.61002 9.65119 8.61002 9.8501C8.61002 10.049 8.531 10.2398 8.39035 10.3804C8.2497 10.5211 8.05893 10.6001 7.86002 10.6001C7.61709 10.6015 7.37869 10.666 7.16826 10.7874C6.95783 10.9088 6.78261 11.0829 6.65983 11.2925C6.53705 11.5022 6.47093 11.7401 6.46798 11.9831C6.46503 12.226 6.52534 12.4655 6.64298 12.678C6.76063 12.8906 6.93156 13.0689 7.13898 13.1954C7.34639 13.3218 7.58315 13.3922 7.82598 13.3994C8.06882 13.4067 8.30936 13.3507 8.52397 13.2368C8.73858 13.123 8.91987 12.9552 9.05002 12.7501H8.59002C8.39111 12.7501 8.20034 12.6711 8.05969 12.5304C7.91904 12.3898 7.84002 12.199 7.84002 12.0001C7.84002 11.8012 7.91904 11.6104 8.05969 11.4698C8.20034 11.3291 8.39111 11.2501 8.59002 11.2501H10C10.1981 11.2527 10.3874 11.3325 10.5275 11.4726C10.6676 11.6127 10.7474 11.802 10.75 12.0001C10.7474 12.7667 10.4424 13.5013 9.90127 14.0443C9.36014 14.5873 8.6266 14.8948 7.86002 14.9001Z" fill="white"/>
<path d="M12.65 14.8901C12.5512 14.8914 12.453 14.873 12.3614 14.8357C12.2698 14.7985 12.1866 14.7433 12.1167 14.6734C12.0468 14.6035 11.9916 14.5203 11.9544 14.4287C11.9172 14.3371 11.8987 14.239 11.9 14.1401V9.84009C11.9 9.64118 11.979 9.45041 12.1197 9.30976C12.2604 9.1691 12.4511 9.09009 12.65 9.09009C12.8489 9.09009 13.0397 9.1691 13.1804 9.30976C13.321 9.45041 13.4 9.64118 13.4 9.84009V14.1401C13.4 14.339 13.321 14.5298 13.1804 14.6704C13.0397 14.8111 12.8489 14.8901 12.65 14.8901Z" fill="white"/>
<path d="M15.33 14.9001C15.1319 14.8975 14.9426 14.8177 14.8026 14.6776C14.6625 14.5375 14.5826 14.3482 14.58 14.1501V9.8501C14.58 9.65119 14.659 9.46042 14.7997 9.31977C14.9403 9.17911 15.1311 9.1001 15.33 9.1001C15.5289 9.1001 15.7197 9.17911 15.8603 9.31977C16.001 9.46042 16.08 9.65119 16.08 9.8501V14.1501C16.08 14.2486 16.0606 14.3461 16.0229 14.4371C15.9852 14.5281 15.93 14.6108 15.8603 14.6804C15.7907 14.7501 15.708 14.8053 15.617 14.843C15.526 14.8807 15.4285 14.9001 15.33 14.9001Z" fill="white"/>
<path d="M17.93 12.8101H15.33C15.1311 12.8101 14.9403 12.731 14.7997 12.5904C14.659 12.4497 14.58 12.259 14.58 12.0601C14.58 11.8611 14.659 11.6704 14.7997 11.5297C14.9403 11.3891 15.1311 11.3101 15.33 11.3101H17.93C18.1289 11.3101 18.3197 11.3891 18.4603 11.5297C18.601 11.6704 18.68 11.8611 18.68 12.0601C18.68 12.259 18.601 12.4497 18.4603 12.5904C18.3197 12.731 18.1289 12.8101 17.93 12.8101Z" fill="white"/>
<path d="M17.93 10.6001H15.33C15.1311 10.6001 14.9403 10.5211 14.7997 10.3804C14.659 10.2398 14.58 10.049 14.58 9.8501C14.58 9.65119 14.659 9.46042 14.7997 9.31977C14.9403 9.17911 15.1311 9.1001 15.33 9.1001H17.93C18.1289 9.1001 18.3197 9.17911 18.4603 9.31977C18.601 9.46042 18.68 9.65119 18.68 9.8501C18.68 10.049 18.601 10.2398 18.4603 10.3804C18.3197 10.5211 18.1289 10.6001 17.93 10.6001Z" fill="white"/>
</svg>
