<svg width="24" height="24" viewBox="0 0 24 24" fill="none" xmlns="http://www.w3.org/2000/svg">
<path d="M16.75 15.25H7.25C7.05189 15.2474 6.86263 15.1676 6.72253 15.0275C6.58244 14.8874 6.50259 14.6981 6.5 14.5V9.5C6.50259 9.30189 6.58244 9.11263 6.72253 8.97253C6.86263 8.83244 7.05189 8.75259 7.25 8.75H16.75C16.9481 8.75259 17.1374 8.83244 17.2775 8.97253C17.4176 9.11263 17.4974 9.30189 17.5 9.5V14.5C17.4974 14.6981 17.4176 14.8874 17.2775 15.0275C17.1374 15.1676 16.9481 15.2474 16.75 15.25ZM8 13.75H16V10.25H8V13.75Z" fill="white"/>
<path d="M12 14.75C11.4561 14.75 10.9244 14.5887 10.4722 14.2865C10.0199 13.9844 9.66747 13.5549 9.45933 13.0524C9.25119 12.5499 9.19673 11.997 9.30284 11.4635C9.40895 10.9301 9.67086 10.4401 10.0555 10.0555C10.4401 9.67086 10.9301 9.40895 11.4635 9.30284C11.997 9.19673 12.5499 9.25119 13.0524 9.45933C13.5549 9.66747 13.9844 10.0199 14.2865 10.4722C14.5887 10.9244 14.75 11.4561 14.75 12C14.75 12.7293 14.4603 13.4288 13.9445 13.9445C13.4288 14.4603 12.7293 14.75 12 14.75ZM12 10.75C11.7528 10.75 11.5111 10.8233 11.3055 10.9607C11.1 11.098 10.9398 11.2932 10.8452 11.5216C10.7505 11.7501 10.7258 12.0014 10.774 12.2439C10.8223 12.4863 10.9413 12.7091 11.1161 12.8839C11.2909 13.0587 11.5137 13.1778 11.7561 13.226C11.9986 13.2742 12.2499 13.2495 12.4784 13.1549C12.7068 13.0602 12.902 12.9 13.0393 12.6945C13.1767 12.4889 13.25 12.2472 13.25 12C13.25 11.6685 13.1183 11.3505 12.8839 11.1161C12.6495 10.8817 12.3315 10.75 12 10.75Z" fill="white"/>
<path d="M5.99999 22.3601C4.92971 22.3604 3.90173 21.9422 3.13564 21.1948C2.36955 20.4474 1.92609 19.43 1.89999 18.3601L1.59999 6.06005C1.57848 4.97503 1.98698 3.92555 2.73635 3.14058C3.48572 2.35561 4.51514 1.89889 5.59999 1.87005L15 1.64005C15.095 1.63528 15.1899 1.64964 15.2793 1.68228C15.3686 1.71492 15.4505 1.76517 15.52 1.83005L21.92 7.60005C21.9954 7.66836 22.0557 7.75169 22.0971 7.84468C22.1384 7.93768 22.1598 8.03829 22.16 8.14005L22.4 17.8701C22.4215 18.9551 22.013 20.0046 21.2636 20.7895C20.5143 21.5745 19.4848 22.0312 18.4 22.0601L6.10999 22.3601H5.99999ZM14.78 3.15005H14.58L5.63999 3.37005C4.95566 3.3858 4.30514 3.67079 3.82961 4.16317C3.35408 4.65554 3.09191 5.31559 3.09999 6.00005L3.39999 18.2901C3.40789 18.9744 3.6853 19.628 4.17204 20.1092C4.65878 20.5903 5.31559 20.8601 5.99999 20.8601H6.05999L18.36 20.5601C18.7015 20.5523 19.038 20.4773 19.3505 20.3394C19.663 20.2015 19.9452 20.0033 20.1811 19.7563C20.417 19.5093 20.6019 19.2182 20.7252 18.8997C20.8486 18.5812 20.908 18.2415 20.9 17.9001L20.67 8.50005L14.78 3.15005Z" fill="white"/>
</svg>
