<svg width="24" height="24" viewBox="0 0 24 24" fill="none" xmlns="http://www.w3.org/2000/svg">
<path d="M11.75 22.5H11.56C11.3997 22.4563 11.2581 22.3612 11.157 22.2294C11.0558 22.0975 11.0007 21.9362 11 21.77V12.5H8.17C7.32926 12.5 6.52296 12.166 5.92847 11.5715C5.33398 10.977 5 10.1707 5 9.33V1.75C5.00259 1.55189 5.08244 1.36263 5.22253 1.22253C5.36263 1.08244 5.55189 1.00259 5.75 1H11.75C11.9481 1.00259 12.1374 1.08244 12.2775 1.22253C12.4176 1.36263 12.4974 1.55189 12.5 1.75V7H16.56C17.0157 6.99621 17.4643 7.11367 17.8597 7.34036C18.255 7.56704 18.583 7.89479 18.81 8.29C19.0382 8.68525 19.1583 9.13361 19.1583 9.59C19.1583 10.0464 19.0382 10.4948 18.81 10.89L12.4 22.12C12.3356 22.2357 12.2413 22.332 12.1269 22.3988C12.0126 22.4657 11.8824 22.5006 11.75 22.5ZM6.5 2.5V9.33C6.5 9.77291 6.67595 10.1977 6.98913 10.5109C7.30232 10.8241 7.72709 11 8.17 11H11.75C11.9481 11.0026 12.1374 11.0824 12.2775 11.2225C12.4176 11.3626 12.4974 11.5519 12.5 11.75V18.93L17.5 10.15C17.5956 9.98245 17.6458 9.79289 17.6458 9.6C17.6458 9.40711 17.5956 9.21755 17.5 9.05C17.4022 8.8733 17.2564 8.72787 17.0795 8.63055C16.9025 8.53322 16.7016 8.48796 16.5 8.5H11.75C11.5519 8.49741 11.3626 8.41756 11.2225 8.27747C11.0824 8.13737 11.0026 7.94811 11 7.75V2.5H6.5Z" fill="white"/>
</svg>
