<svg width="24" height="24" viewBox="0 0 24 24" fill="none" xmlns="http://www.w3.org/2000/svg">
<path d="M11.4201 23C11.2577 23.0007 11.0995 22.948 10.9701 22.85L4.12006 17.73C4.02673 17.6596 3.95041 17.5691 3.89675 17.4653C3.8431 17.3614 3.81347 17.2468 3.81006 17.13V6.88C3.81197 6.76145 3.84088 6.64489 3.8946 6.53919C3.94832 6.43349 4.02542 6.34143 4.12006 6.27L11.0001 1.15C11.1299 1.05263 11.2878 1 11.4501 1C11.6123 1 11.7702 1.05263 11.9001 1.15L18.7501 6.27C18.8434 6.34194 18.919 6.43434 18.971 6.5401C19.023 6.64586 19.0501 6.76215 19.0501 6.88V17.13C19.0486 17.2462 19.0208 17.3605 18.9688 17.4644C18.9169 17.5683 18.8421 17.6591 18.7501 17.73L11.9001 22.85C11.7617 22.953 11.5924 23.0059 11.4201 23ZM5.31006 16.75L11.4201 21.31L17.5201 16.75V7.25L11.4201 2.69L5.31006 7.25V16.75Z" fill="white"/>
<path d="M11.4201 17.3299C11.2577 17.3307 11.0996 17.2779 10.9701 17.1799L7.90011 14.8899C7.80638 14.8206 7.73035 14.7301 7.67822 14.6259C7.62609 14.5216 7.59933 14.4065 7.60011 14.2899V9.70992C7.59933 9.59335 7.62609 9.47824 7.67822 9.37397C7.73035 9.26971 7.80638 9.17923 7.90011 9.10992L11.0001 6.81992C11.1299 6.72256 11.2878 6.66992 11.4501 6.66992C11.6124 6.66992 11.7703 6.72256 11.9001 6.81992L14.9601 9.10992C15.0538 9.17923 15.1299 9.26971 15.182 9.37397C15.2341 9.47824 15.2609 9.59335 15.2601 9.70992V14.2899C15.2609 14.4065 15.2341 14.5216 15.182 14.6259C15.1299 14.7301 15.0538 14.8206 14.9601 14.8899L11.9001 17.1799C11.7618 17.2829 11.5925 17.3358 11.4201 17.3299ZM9.10012 13.9199L11.4201 15.6499L13.7301 13.9199V10.0799L11.4201 8.34992L9.10012 10.0799V13.9199Z" fill="white"/>
</svg>
