<svg width="24" height="24" viewBox="0 0 24 24" fill="none" xmlns="http://www.w3.org/2000/svg">
<path d="M12.67 15.1599H6.51C6.18133 15.1626 5.85539 15.1001 5.55098 14.9762C5.24656 14.8522 4.9697 14.6692 4.73636 14.4377C4.50302 14.2063 4.31782 13.9309 4.19144 13.6275C4.06505 13.3241 3.99999 12.9986 4 12.6699V6.50994C3.99597 6.17921 4.05815 5.85101 4.18286 5.54466C4.30758 5.23832 4.49231 4.96001 4.72619 4.72613C4.96007 4.49225 5.23838 4.30752 5.54472 4.1828C5.85107 4.05809 6.17927 3.99591 6.51 3.99994H12.67C13.3304 3.99994 13.9637 4.26228 14.4307 4.72924C14.8977 5.19621 15.16 5.82955 15.16 6.48994V12.6499C15.1613 12.9782 15.098 13.3036 14.9735 13.6074C14.8491 13.9112 14.6661 14.1876 14.4348 14.4206C14.2036 14.6537 13.9288 14.839 13.626 14.9658C13.3231 15.0927 12.9983 15.1586 12.67 15.1599ZM6.51 5.51994C6.24478 5.51994 5.99043 5.6253 5.80289 5.81283C5.61536 6.00037 5.51 6.25472 5.51 6.51994V12.6799C5.51 12.9452 5.61536 13.1995 5.80289 13.387C5.99043 13.5746 6.24478 13.6799 6.51 13.6799H12.67C12.9352 13.6799 13.1896 13.5746 13.3771 13.387C13.5646 13.1995 13.67 12.9452 13.67 12.6799V6.50994C13.67 6.24472 13.5646 5.99037 13.3771 5.80283C13.1896 5.6153 12.9352 5.50994 12.67 5.50994L6.51 5.51994Z" fill="white"/>
<path d="M17.49 19.9999H11.33C10.6696 19.9999 10.0363 19.7376 9.5693 19.2706C9.10234 18.8037 8.84 18.1703 8.84 17.5099V11.3299C8.84263 10.6703 9.10581 10.0385 9.57221 9.57214C10.0386 9.10574 10.6704 8.84256 11.33 8.83992H17.49C17.8187 8.83728 18.1446 8.89974 18.449 9.02369C18.7534 9.14764 19.0303 9.33064 19.2636 9.56212C19.497 9.7936 19.6822 10.069 19.8086 10.3724C19.9349 10.6758 20 11.0012 20 11.3299V17.4899C20.004 17.8207 19.9418 18.1489 19.8171 18.4552C19.6924 18.7615 19.5077 19.0399 19.2738 19.2737C19.0399 19.5076 18.7616 19.6923 18.4553 19.8171C18.1489 19.9418 17.8207 20.0039 17.49 19.9999ZM11.33 10.3599C11.0648 10.3599 10.8104 10.4653 10.6229 10.6528C10.4354 10.8404 10.33 11.0947 10.33 11.3599V17.5199C10.33 17.7851 10.4354 18.0395 10.6229 18.227C10.8104 18.4146 11.0648 18.5199 11.33 18.5199H17.49C17.7552 18.5199 18.0096 18.4146 18.1971 18.227C18.3846 18.0395 18.49 17.7851 18.49 17.5199V11.3299C18.49 11.0647 18.3846 10.8104 18.1971 10.6228C18.0096 10.4353 17.7552 10.3299 17.49 10.3299L11.33 10.3599Z" fill="white"/>
</svg>
