<svg width="24" height="24" viewBox="0 0 24 24" fill="none" xmlns="http://www.w3.org/2000/svg">
<path d="M16.79 22.1301H6.79003C6.29458 22.134 5.80324 22.04 5.34424 21.8535C4.88524 21.6669 4.46764 21.3915 4.11544 21.043C3.76324 20.6945 3.48338 20.2798 3.29196 19.8229C3.10054 19.3659 3.00133 18.8755 3.00003 18.3801V8.38008C2.99475 7.88379 3.08777 7.39137 3.27374 6.93122C3.4597 6.47106 3.73493 6.05227 4.08355 5.69901C4.43216 5.34575 4.84727 5.065 5.30492 4.87295C5.76257 4.68091 6.25372 4.58137 6.75003 4.58008H16.75C17.7438 4.58272 18.6961 4.97865 19.3988 5.68134C20.1015 6.38403 20.4974 7.33633 20.5 8.33008V18.3301C20.5107 19.3256 20.1261 20.2847 19.4306 20.9971C18.7351 21.7094 17.7855 22.1169 16.79 22.1301ZM6.79003 6.13008C6.19496 6.11935 5.61989 6.34483 5.1907 6.75716C4.7615 7.16948 4.51316 7.73506 4.50003 8.33008V18.3301C4.50003 18.9268 4.73708 19.4991 5.15904 19.9211C5.581 20.343 6.15329 20.5801 6.75003 20.5801H16.75C17.3382 20.5802 17.9031 20.35 18.3236 19.9388C18.7441 19.5276 18.987 18.9681 19 18.3801V8.38008C19 8.0846 18.9418 7.79202 18.8288 7.51904C18.7157 7.24606 18.55 6.99802 18.341 6.78909C18.1321 6.58016 17.8841 6.41442 17.6111 6.30135C17.3381 6.18828 17.0455 6.13008 16.75 6.13008H6.79003Z" fill="white"/>
<path d="M21.65 11.4301H1.90002C1.70111 11.4301 1.51035 11.351 1.36969 11.2104C1.22904 11.0697 1.15002 10.879 1.15002 10.6801C1.15002 10.4811 1.22904 10.2904 1.36969 10.1497C1.51035 10.0091 1.70111 9.93005 1.90002 9.93005H21.65C21.8489 9.93005 22.0397 10.0091 22.1804 10.1497C22.321 10.2904 22.4 10.4811 22.4 10.6801C22.4 10.879 22.321 11.0697 22.1804 11.2104C22.0397 11.351 21.8489 11.4301 21.65 11.4301Z" fill="white"/>
<path d="M11.77 6.08005C11.573 6.08044 11.3833 6.00528 11.24 5.87005L8.61003 3.24005C8.46957 3.09943 8.39069 2.90881 8.39069 2.71005C8.39069 2.5113 8.46957 2.32068 8.61003 2.18005C8.67897 2.1093 8.76139 2.05306 8.85241 2.01466C8.94344 1.97627 9.04123 1.95648 9.14003 1.95648C9.23882 1.95648 9.33661 1.97627 9.42764 2.01466C9.51866 2.05306 9.60108 2.1093 9.67003 2.18005L11.77 4.27005L13.93 2.12005C13.999 2.0493 14.0814 1.99306 14.1724 1.95466C14.2634 1.91627 14.3612 1.89648 14.46 1.89648C14.5588 1.89648 14.6566 1.91627 14.7476 1.95466C14.8387 1.99306 14.9211 2.0493 14.99 2.12005C15.1305 2.26068 15.2094 2.4513 15.2094 2.65005C15.2094 2.84881 15.1305 3.03943 14.99 3.18005L12.3 5.87005C12.1567 6.00528 11.9671 6.08044 11.77 6.08005Z" fill="white"/>
<path d="M11.77 22.1301C11.5719 22.1275 11.3826 22.0476 11.2426 21.9075C11.1025 21.7674 11.0226 21.5782 11.02 21.3801V10.6801C11.02 10.4811 11.099 10.2904 11.2397 10.1497C11.3803 10.0091 11.5711 9.93005 11.77 9.93005C11.9689 9.93005 12.1597 10.0091 12.3003 10.1497C12.441 10.2904 12.52 10.4811 12.52 10.6801V21.3801C12.5174 21.5782 12.4376 21.7674 12.2975 21.9075C12.1574 22.0476 11.9681 22.1275 11.77 22.1301Z" fill="white"/>
</svg>
