<svg width="24" height="24" viewBox="0 0 24 24" fill="none" xmlns="http://www.w3.org/2000/svg">
<path d="M16 21.74H7.99998C7.89902 21.7454 7.798 21.7303 7.703 21.6957C7.60801 21.661 7.521 21.6076 7.44721 21.5384C7.37341 21.4693 7.31436 21.386 7.27359 21.2934C7.23282 21.2009 7.21119 21.1011 7.20999 21V11.74L3.99998 11.77C3.853 11.7623 3.71071 11.7156 3.5877 11.6348C3.4647 11.5539 3.3654 11.4419 3.29998 11.31C3.24356 11.1719 3.2296 11.0201 3.25988 10.8741C3.29016 10.728 3.36331 10.5943 3.46998 10.49L11.47 2.48999C11.6131 2.35424 11.8028 2.27856 12 2.27856C12.1972 2.27856 12.3869 2.35424 12.53 2.48999L20.53 10.49C20.635 10.5954 20.7062 10.7296 20.7347 10.8757C20.7632 11.0217 20.7477 11.1729 20.69 11.31C20.6341 11.4468 20.5385 11.5637 20.4155 11.6457C20.2925 11.7277 20.1478 11.771 20 11.77H16.71V21C16.7054 21.1897 16.63 21.3709 16.4986 21.5078C16.3672 21.6447 16.1894 21.7276 16 21.74ZM8.74998 20.24H15.25V11C15.25 10.8011 15.329 10.6103 15.4697 10.4697C15.6103 10.329 15.8011 10.25 16 10.25H18.23L12 4.06999L5.83999 10.25H7.99998C8.19924 10.2621 8.38899 10.3394 8.53998 10.47C8.68068 10.6105 8.75981 10.8011 8.75998 11L8.74998 20.24Z" fill="white"/>
</svg>
