<svg width="24" height="24" viewBox="0 0 24 24" fill="none" xmlns="http://www.w3.org/2000/svg">
<path d="M12 22.75C9.87386 22.75 7.79545 22.1195 6.02762 20.9383C4.2598 19.7571 2.88194 18.0782 2.0683 16.1139C1.25466 14.1495 1.04177 11.9881 1.45656 9.90278C1.87135 7.81749 2.89519 5.90202 4.39861 4.39861C5.90202 2.89519 7.81749 1.87135 9.90278 1.45656C11.9881 1.04177 14.1495 1.25466 16.1139 2.0683C18.0782 2.88194 19.7571 4.2598 20.9383 6.02762C22.1195 7.79545 22.75 9.87386 22.75 12C22.7474 14.8503 21.6139 17.583 19.5985 19.5985C17.583 21.6139 14.8503 22.7474 12 22.75ZM12 2.75C10.1705 2.75 8.38213 3.29251 6.86098 4.30891C5.33983 5.32531 4.15423 6.76997 3.45412 8.46018C2.75401 10.1504 2.57083 12.0103 2.92774 13.8046C3.28465 15.5989 4.16563 17.2471 5.45927 18.5407C6.7529 19.8344 8.40109 20.7154 10.1954 21.0723C11.9897 21.4292 13.8496 21.246 15.5398 20.5459C17.23 19.8458 18.6747 18.6602 19.6911 17.139C20.7075 15.6179 21.25 13.8295 21.25 12C21.2474 9.54756 20.272 7.19633 18.5378 5.46219C16.8037 3.72805 14.4524 2.75265 12 2.75Z" fill="white"/>
<path d="M9 16.2501C8.80189 16.2475 8.61263 16.1676 8.47253 16.0275C8.33244 15.8874 8.25259 15.6982 8.25 15.5001V8.56006C8.25 8.36115 8.32902 8.17038 8.46967 8.02973C8.61032 7.88908 8.80109 7.81006 9 7.81006C9.19891 7.81006 9.38968 7.88908 9.53033 8.02973C9.67098 8.17038 9.75 8.36115 9.75 8.56006V15.5001C9.74741 15.6982 9.66756 15.8874 9.52747 16.0275C9.38737 16.1676 9.19811 16.2475 9 16.2501Z" fill="white"/>
<path d="M15 16.2501C14.8011 16.2501 14.6103 16.171 14.4697 16.0304C14.329 15.8897 14.25 15.699 14.25 15.5001V8.56006C14.25 8.36115 14.329 8.17038 14.4697 8.02973C14.6103 7.88908 14.8011 7.81006 15 7.81006C15.1989 7.81006 15.3897 7.88908 15.5303 8.02973C15.671 8.17038 15.75 8.36115 15.75 8.56006V15.5001C15.7474 15.6982 15.6676 15.8874 15.5275 16.0275C15.3874 16.1676 15.1981 16.2475 15 16.2501Z" fill="white"/>
</svg>
