<svg width="24" height="24" viewBox="0 0 24 24" fill="none" xmlns="http://www.w3.org/2000/svg">
<path d="M5.14002 19.15C4.96813 19.1499 4.80137 19.0914 4.66697 18.9843C4.53257 18.8771 4.43847 18.7276 4.40002 18.56L2.66002 10.47C2.55562 9.98741 2.5473 9.48897 2.63553 9.00314C2.72376 8.51732 2.90682 8.05363 3.17425 7.63855C3.44168 7.22347 3.78825 6.86513 4.19417 6.58399C4.60009 6.30285 5.05741 6.10442 5.54002 6.00002L13.54 4.28002C14.0205 4.17491 14.517 4.16586 15.001 4.25339C15.4849 4.34092 15.9468 4.52329 16.36 4.79002C17.1982 5.33243 17.7878 6.18444 18 7.16002L19.74 15.26C19.7786 15.4539 19.739 15.6551 19.63 15.82C19.5795 15.9051 19.5114 15.9786 19.4304 16.0354C19.3494 16.0923 19.2572 16.1314 19.16 16.15L5.28002 19.15H5.14002ZM14.34 5.70002C14.1815 5.70132 14.0238 5.72147 13.87 5.76002L5.87002 7.48002C5.58007 7.54394 5.30588 7.66538 5.06369 7.83714C4.8215 8.00891 4.61623 8.22751 4.46002 8.48002C4.29709 8.72627 4.18563 9.00292 4.13236 9.29335C4.07909 9.58377 4.08509 9.88197 4.15002 10.17L5.73002 17.53L18.14 14.86L16.54 7.48002C16.4763 7.18868 16.355 6.913 16.1832 6.66916C16.0115 6.42531 15.7928 6.21822 15.54 6.06002C15.1808 5.83177 14.7655 5.70719 14.34 5.70002Z" fill="white"/>
<path d="M4.36005 15.5699C4.17788 15.5648 4.00379 15.4936 3.8703 15.3696C3.73682 15.2455 3.65306 15.0771 3.63468 14.8958C3.61631 14.7145 3.66457 14.5327 3.77046 14.3844C3.87634 14.2361 4.0326 14.1314 4.21005 14.0899L18.09 11.0899C18.285 11.0488 18.4883 11.0868 18.6552 11.1956C18.8221 11.3043 18.9389 11.475 18.98 11.6699C19.0212 11.8648 18.9831 12.0681 18.8744 12.235C18.7656 12.4019 18.595 12.5188 18.4 12.5599L4.52004 15.5599L4.36005 15.5699Z" fill="white"/>
<path d="M2.14002 19.8C1.96747 19.8008 1.80008 19.7413 1.66678 19.6317C1.53348 19.5222 1.44266 19.3695 1.41002 19.2001C1.38962 19.1028 1.38875 19.0025 1.40744 18.9049C1.42614 18.8074 1.46404 18.7145 1.51893 18.6317C1.57382 18.5489 1.64461 18.4778 1.7272 18.4226C1.80979 18.3674 1.90252 18.3291 2.00002 18.31L21.7 14.07C21.8936 14.0283 22.0957 14.0649 22.2625 14.1717C22.4292 14.2784 22.5469 14.4468 22.59 14.6401C22.6319 14.8348 22.5957 15.0383 22.4891 15.2066C22.3825 15.375 22.214 15.4947 22.02 15.54L2.30002 19.7801L2.14002 19.8Z" fill="white"/>
</svg>
