<svg width="24" height="24" viewBox="0 0 24 24" fill="none" xmlns="http://www.w3.org/2000/svg">
<path d="M18 20.7899H6.00003C5.50419 20.7899 5.01327 20.6916 4.55567 20.5007C4.09807 20.3097 3.68288 20.0299 3.33414 19.6775C2.98539 19.325 2.71 18.9069 2.52392 18.4473C2.33783 17.9877 2.24474 17.4957 2.25003 16.9999V9.99992C2.26315 9.01312 2.66371 8.07104 3.36527 7.37697C4.06683 6.68289 5.01315 6.29245 6.00003 6.28992H18C18.9869 6.29245 19.9332 6.68289 20.6348 7.37697C21.3364 8.07104 21.7369 9.01312 21.75 9.99992V16.9999C21.7553 17.4957 21.6622 17.9877 21.4761 18.4473C21.2901 18.9069 21.0147 19.325 20.6659 19.6775C20.3172 20.0299 19.902 20.3097 19.4444 20.5007C18.9868 20.6916 18.4959 20.7899 18 20.7899ZM6.00003 7.78992C5.41016 7.78982 4.84384 8.02138 4.42302 8.43472C4.00219 8.84807 3.76052 9.41014 3.75003 9.99992V16.9999C3.74472 17.2987 3.79899 17.5956 3.90968 17.8732C4.02037 18.1509 4.18527 18.4036 4.39473 18.6168C4.60419 18.83 4.85403 18.9993 5.12965 19.1149C5.40528 19.2305 5.70116 19.29 6.00003 19.2899H18C18.2989 19.29 18.5948 19.2305 18.8704 19.1149C19.146 18.9993 19.3959 18.83 19.6053 18.6168C19.8148 18.4036 19.9797 18.1509 20.0904 17.8732C20.2011 17.5956 20.2553 17.2987 20.25 16.9999V9.99992C20.2395 9.41014 19.9979 8.84807 19.577 8.43472C19.1562 8.02138 18.5899 7.78982 18 7.78992H6.00003Z" fill="white"/>
<path d="M21 17.2899H15.45C14.6013 17.2899 13.7874 16.9528 13.1873 16.3527C12.5871 15.7526 12.25 14.9386 12.25 14.0899V12.9999C12.2526 12.152 12.5906 11.3396 13.1902 10.7401C13.7897 10.1406 14.6021 9.80256 15.45 9.79993H21C21.1989 9.79993 21.3897 9.87894 21.5303 10.0196C21.671 10.1602 21.75 10.351 21.75 10.5499C21.75 10.7488 21.671 10.9396 21.5303 11.0803C21.3897 11.2209 21.1989 11.2999 21 11.2999H15.45C14.9991 11.2999 14.5667 11.479 14.2479 11.7978C13.9291 12.1167 13.75 12.5491 13.75 12.9999V14.0999C13.75 14.5508 13.9291 14.9832 14.2479 15.302C14.5667 15.6208 14.9991 15.7999 15.45 15.7999H21C21.1989 15.7999 21.3897 15.8789 21.5303 16.0196C21.671 16.1602 21.75 16.351 21.75 16.5499C21.75 16.7488 21.671 16.9396 21.5303 17.0803C21.3897 17.2209 21.1989 17.2999 21 17.2999V17.2899Z" fill="white"/>
<path d="M17 14.29C16.8012 14.2898 16.6106 14.2107 16.47 14.07C16.3995 14.0011 16.3436 13.9186 16.3058 13.8275C16.268 13.7364 16.249 13.6386 16.25 13.54C16.2496 13.4434 16.2701 13.3479 16.31 13.26C16.3477 13.1676 16.4019 13.0829 16.47 13.01C16.6107 12.8695 16.8013 12.7906 17 12.7906C17.1988 12.7906 17.3894 12.8695 17.53 13.01C17.5981 13.0829 17.6524 13.1676 17.69 13.26C17.73 13.3479 17.7505 13.4434 17.75 13.54C17.7511 13.6386 17.7321 13.7364 17.6943 13.8275C17.6565 13.9186 17.6006 14.0011 17.53 14.07C17.3895 14.2107 17.1989 14.2898 17 14.29Z" fill="white"/>
<path d="M6.33003 7.78996C6.15332 7.78727 5.98325 7.72227 5.84979 7.60643C5.71633 7.49058 5.62807 7.33133 5.60057 7.15676C5.57307 6.98219 5.6081 6.80351 5.69947 6.65225C5.79085 6.50098 5.93271 6.38684 6.10003 6.32996L15.34 3.32996C15.6099 3.24173 15.8966 3.21717 16.1776 3.25821C16.4586 3.29925 16.7263 3.40477 16.9597 3.56651C17.1931 3.72825 17.3859 3.94183 17.5231 4.19051C17.6602 4.4392 17.7378 4.71624 17.75 4.99996V6.99996C17.75 7.19887 17.671 7.38964 17.5304 7.53029C17.3897 7.67094 17.1989 7.74996 17 7.74996C16.8011 7.74996 16.6103 7.67094 16.4697 7.53029C16.329 7.38964 16.25 7.19887 16.25 6.99996V4.99996C16.2501 4.94703 16.2374 4.89486 16.213 4.84787C16.1886 4.80088 16.1533 4.76044 16.11 4.72996C16.0634 4.70701 16.012 4.69508 15.96 4.69508C15.908 4.69508 15.8567 4.70701 15.81 4.72996L6.57003 7.72996C6.49282 7.75982 6.4122 7.77997 6.33003 7.78996Z" fill="white"/>
</svg>
