<svg width="24" height="24" viewBox="0 0 24 24" fill="none" xmlns="http://www.w3.org/2000/svg">
<path d="M14.9701 10.4202H9.43005C9.23114 10.4202 9.04038 10.3411 8.89972 10.2005C8.75907 10.0598 8.68005 9.86908 8.68005 9.67017C8.68005 9.47125 8.75907 9.28049 8.89972 9.13984C9.04038 8.99918 9.23114 8.92017 9.43005 8.92017H14.9701C15.169 8.92017 15.3597 8.99918 15.5004 9.13984C15.641 9.28049 15.7201 9.47125 15.7201 9.67017C15.7201 9.86908 15.641 10.0598 15.5004 10.2005C15.3597 10.3411 15.169 10.4202 14.9701 10.4202Z" fill="white"/>
<path d="M19.6301 22.0001C19.4694 21.9996 19.3126 21.9508 19.1801 21.8601L12.1801 16.7001L5.20006 21.8901C5.0877 21.9698 4.95576 22.0176 4.81837 22.0281C4.68098 22.0387 4.54329 22.0117 4.42006 21.9501C4.29309 21.8905 4.18596 21.7957 4.11148 21.6769C4.037 21.558 3.99831 21.4203 4.00006 21.2801V5.59006C4.01061 4.6308 4.40046 3.71472 5.0844 3.04202C5.76834 2.36932 6.69075 1.99471 7.65006 2.00006H16.7501C17.7111 2.00005 18.6329 2.38113 19.3133 3.05972C19.9938 3.73832 20.3774 4.65905 20.3801 5.62006V21.2801C20.3818 21.4203 20.3431 21.558 20.2686 21.6769C20.1942 21.7957 20.087 21.8905 19.9601 21.9501C19.8564 21.9956 19.7425 22.0129 19.6301 22.0001ZM12.2001 15.0001C12.3622 15.0008 12.5199 15.0533 12.6501 15.1501L18.8801 19.7601V5.59006C18.8774 5.02688 18.6518 4.48767 18.2527 4.09038C17.8535 3.69309 17.3132 3.47005 16.7501 3.47006H7.65006C7.08687 3.47005 6.54661 3.69309 6.14744 4.09038C5.74828 4.48767 5.5227 5.02688 5.52006 5.59006V19.8001L11.7501 15.1901C11.8751 15.0789 12.0332 15.0121 12.2001 15.0001Z" fill="white"/>
</svg>
