<svg width="24" height="24" viewBox="0 0 24 24" fill="none" xmlns="http://www.w3.org/2000/svg">
<path d="M12 14.3999C11.0617 14.4019 10.1439 14.1253 9.36283 13.6052C8.58181 13.0852 7.97273 12.345 7.61273 11.4785C7.25273 10.6119 7.15802 9.65805 7.34059 8.73765C7.52317 7.81725 7.97481 6.97174 8.63832 6.30824C9.30182 5.64474 10.1473 5.19309 11.0677 5.01052C11.9881 4.82794 12.942 4.92265 13.8085 5.28265C14.6751 5.64265 15.4152 6.25173 15.9353 7.03275C16.4554 7.81377 16.732 8.73158 16.73 9.66991C16.73 10.9244 16.2317 12.1275 15.3446 13.0145C14.4576 13.9016 13.2545 14.3999 12 14.3999ZM12 6.39991C11.3588 6.39793 10.7314 6.58627 10.1972 6.94108C9.6631 7.29589 9.24626 7.80122 8.9995 8.39307C8.75274 8.98493 8.68715 9.6367 8.81103 10.2659C8.93492 10.895 9.24271 11.4733 9.69543 11.9274C10.1481 12.3815 10.7254 12.6911 11.3542 12.8169C11.983 12.9427 12.6349 12.8792 13.2276 12.6342C13.8202 12.3893 14.3268 11.974 14.6833 11.441C15.0397 10.908 15.23 10.2812 15.23 9.63991C15.2221 8.78755 14.8786 7.97263 14.274 7.37177C13.6694 6.77091 12.8524 6.43251 12 6.42991V6.39991Z" fill="white"/>
<path d="M18.9999 19.2799C18.8319 19.2794 18.669 19.2216 18.5382 19.1162C18.4073 19.0108 18.3162 18.864 18.2799 18.6999C17.9814 17.4722 17.2787 16.3806 16.2847 15.6007C15.2908 14.8208 14.0633 14.3978 12.7999 14.3999H11.1999C9.93819 14.4001 8.71308 14.824 7.72115 15.6038C6.72922 16.3836 6.02797 17.4739 5.72991 18.6999C5.70627 18.7958 5.66398 18.8861 5.60546 18.9656C5.54694 19.0451 5.47332 19.1123 5.38882 19.1634C5.30432 19.2145 5.21059 19.2484 5.11297 19.2632C5.01536 19.2781 4.91578 19.2736 4.81991 19.2499C4.72405 19.2263 4.63378 19.184 4.55425 19.1255C4.47473 19.0669 4.40752 18.9933 4.35644 18.9088C4.30537 18.8243 4.27144 18.7306 4.2566 18.633C4.24175 18.5354 4.24627 18.4358 4.26991 18.3399C4.64858 16.7879 5.53752 15.408 6.79416 14.4215C8.05081 13.435 9.60234 12.8992 11.1999 12.8999H12.7899C14.3897 12.8962 15.9441 13.4322 17.2016 14.4211C18.4591 15.4101 19.3464 16.7943 19.7199 18.3499C19.7654 18.5434 19.7334 18.747 19.6305 18.9171C19.5277 19.0872 19.3624 19.2103 19.1699 19.2599L18.9999 19.2799Z" fill="white"/>
<path d="M11.9999 22.3099C9.96082 22.3099 7.96749 21.7053 6.27202 20.5724C4.57655 19.4395 3.25509 17.8293 2.47475 15.9454C1.69441 14.0615 1.49024 11.9885 1.88805 9.98856C2.28586 7.98862 3.2678 6.15155 4.70968 4.70968C6.15155 3.2678 7.98862 2.28586 9.98856 1.88805C11.9885 1.49024 14.0615 1.69441 15.9454 2.47475C17.8293 3.25509 19.4395 4.57655 20.5724 6.27202C21.7053 7.96749 22.3099 9.96082 22.3099 11.9999C22.3073 14.7335 21.2202 17.3544 19.2873 19.2873C17.3544 21.2202 14.7335 22.3073 11.9999 22.3099ZM11.9999 3.18995C10.2575 3.18995 8.55417 3.70664 7.10537 4.6747C5.65658 5.64275 4.52738 7.01869 3.86057 8.62851C3.19376 10.2383 3.01929 12.0097 3.35923 13.7187C3.69916 15.4277 4.53823 16.9975 5.77034 18.2296C7.00244 19.4617 8.57223 20.3007 10.2812 20.6407C11.9902 20.9806 13.7616 20.8061 15.3714 20.1393C16.9812 19.4725 18.3571 18.3433 19.3252 16.8945C20.2932 15.4457 20.8099 13.7424 20.8099 11.9999C20.8073 9.6642 19.8783 7.42488 18.2266 5.77326C16.575 4.12164 14.3357 3.19259 11.9999 3.18995Z" fill="white"/>
</svg>
