<svg width="24" height="24" viewBox="0 0 24 24" fill="none" xmlns="http://www.w3.org/2000/svg">
<path d="M4.77998 16.5801C4.65023 16.5799 4.5228 16.5457 4.41046 16.4807C4.29813 16.4158 4.20485 16.3224 4.13998 16.2101C3.40349 15.0016 2.97149 13.6323 2.8811 12.22C2.79071 10.8077 3.04464 9.39449 3.62105 8.10197C4.19747 6.80945 5.07914 5.67625 6.19028 4.79975C7.30141 3.92325 8.60877 3.32969 9.99998 3.07008C10.1962 3.03427 10.3987 3.0779 10.5628 3.19136C10.7269 3.30482 10.8392 3.47882 10.875 3.67508C10.9108 3.87134 10.8672 4.07378 10.7537 4.23788C10.6402 4.40197 10.4662 4.51427 10.27 4.55008C8.90244 4.80587 7.63756 5.45026 6.62668 6.40616C5.61581 7.36205 4.90176 8.58896 4.56998 9.94008C4.12578 11.8141 4.43077 13.7876 5.41998 15.4401C5.514 15.6071 5.54048 15.8039 5.49399 15.9898C5.4475 16.1758 5.33155 16.3369 5.16998 16.4401C5.05475 16.5206 4.92012 16.5689 4.77998 16.5801Z" fill="white"/>
<path d="M11.62 20.43C10.2261 20.4196 8.85477 20.0768 7.61999 19.43C7.53266 19.384 7.45524 19.3213 7.39215 19.2454C7.32905 19.1695 7.28152 19.082 7.25227 18.9877C7.22302 18.8935 7.21262 18.7944 7.22167 18.6961C7.23071 18.5978 7.25902 18.5023 7.30499 18.415C7.35095 18.3276 7.41366 18.2502 7.48955 18.1871C7.56543 18.124 7.653 18.0765 7.74725 18.0472C7.8415 18.018 7.94059 18.0076 8.03886 18.0166C8.13713 18.0257 8.23266 18.054 8.31999 18.1C9.36611 18.644 10.5293 18.9243 11.7084 18.9164C12.8875 18.9086 14.0468 18.6129 15.0856 18.0551C16.1244 17.4972 17.0113 16.6941 17.6691 15.7155C18.3268 14.7369 18.7357 13.6125 18.86 12.44C18.8644 12.3379 18.8895 12.2379 18.934 12.1459C18.9784 12.054 19.0411 11.9721 19.1183 11.9052C19.1955 11.8384 19.2855 11.788 19.3829 11.7572C19.4802 11.7263 19.5828 11.7157 19.6844 11.7259C19.786 11.7362 19.8845 11.767 19.9737 11.8167C20.063 11.8663 20.1411 11.9336 20.2035 12.0145C20.2658 12.0954 20.3109 12.1881 20.3361 12.2871C20.3613 12.3861 20.366 12.4891 20.35 12.59C20.1206 14.7382 19.1055 16.7259 17.4996 18.1712C15.8938 19.6165 13.8105 20.4174 11.65 20.42L11.62 20.43Z" fill="white"/>
<path d="M3.86999 20.9402C3.63277 20.9408 3.39917 20.882 3.19053 20.7691C2.98188 20.6563 2.80483 20.4929 2.67555 20.294C2.54627 20.0951 2.46887 19.867 2.45043 19.6305C2.43199 19.394 2.4731 19.1567 2.56999 18.9402L4.09999 15.5202C4.18355 15.3427 4.33332 15.205 4.5172 15.1366C4.70107 15.0683 4.90442 15.0747 5.08363 15.1544C5.26284 15.2342 5.40365 15.3811 5.47588 15.5635C5.5481 15.7459 5.54599 15.9493 5.46999 16.1302L3.99999 19.3802L7.66999 18.0702C7.76563 18.0321 7.868 18.0139 7.97089 18.0166C8.07378 18.0193 8.17506 18.0428 8.26857 18.0859C8.36208 18.1289 8.44588 18.1904 8.51488 18.2668C8.58388 18.3432 8.63665 18.4328 8.66999 18.5302C8.70955 18.6256 8.72895 18.7283 8.72697 18.8316C8.72499 18.9349 8.70167 19.0368 8.65847 19.1307C8.61528 19.2246 8.55315 19.3085 8.47597 19.3773C8.39879 19.446 8.30824 19.4981 8.20999 19.5302L4.33999 20.8602C4.18859 20.9117 4.02992 20.9387 3.86999 20.9402Z" fill="white"/>
<path d="M16 10.3801C15.8011 10.3799 15.6105 10.3008 15.47 10.1601L12.57 7.26007C12.4602 7.11668 12.4059 6.9385 12.4169 6.75826C12.428 6.57803 12.5037 6.40783 12.6302 6.27893C12.7566 6.15003 12.9254 6.07109 13.1054 6.0566C13.2854 6.04212 13.4645 6.09306 13.61 6.20007L15.23 7.82007V3.82007C15.23 3.62116 15.309 3.43039 15.4497 3.28974C15.5903 3.14909 15.7811 3.07007 15.98 3.07007C16.1789 3.07007 16.3697 3.14909 16.5103 3.28974C16.651 3.43039 16.73 3.62116 16.73 3.82007V9.63007C16.7275 9.7784 16.6817 9.92277 16.5982 10.0454C16.5147 10.168 16.3971 10.2635 16.26 10.3201C16.1779 10.3563 16.0897 10.3767 16 10.3801Z" fill="white"/>
<path d="M16 10.3801C15.8012 10.3799 15.6105 10.3008 15.47 10.1601C15.3992 10.0911 15.343 10.0087 15.3046 9.9177C15.2662 9.82667 15.2464 9.72888 15.2464 9.63008C15.2464 9.53129 15.2662 9.4335 15.3046 9.34247C15.343 9.25144 15.3992 9.16903 15.47 9.10008L18.36 6.20008C18.5055 6.09307 18.6846 6.04213 18.8646 6.05662C19.0446 6.07111 19.2133 6.15005 19.3398 6.27894C19.4663 6.40784 19.542 6.57804 19.5531 6.75828C19.5641 6.93852 19.5098 7.11669 19.4 7.26008L16.51 10.1601C16.3722 10.2927 16.191 10.3709 16 10.3801Z" fill="white"/>
</svg>
