<svg width="24" height="24" viewBox="0 0 24 24" fill="none" xmlns="http://www.w3.org/2000/svg">
<path d="M12 12.7501H6.35999C6.16108 12.7501 5.97031 12.6711 5.82966 12.5304C5.68901 12.3898 5.60999 12.199 5.60999 12.0001V6.52009C5.60865 6.42122 5.62713 6.32309 5.66434 6.23149C5.70156 6.13989 5.75675 6.05667 5.82667 5.98676C5.89658 5.91685 5.97979 5.86165 6.0714 5.82444C6.163 5.78722 6.26113 5.76874 6.35999 5.77009H12C12.1989 5.77009 12.3897 5.84911 12.5303 5.98976C12.671 6.13041 12.75 6.32118 12.75 6.52009V12.0001C12.7474 12.1982 12.6676 12.3875 12.5275 12.5276C12.3874 12.6676 12.1981 12.7475 12 12.7501ZM7.10999 11.2501H11.25V7.25009H7.10999V11.2501Z" fill="white"/>
<path d="M17.64 12.7501H12C11.8019 12.7475 11.6126 12.6676 11.4725 12.5276C11.3324 12.3875 11.2526 12.1982 11.25 12.0001V6.52009C11.25 6.32118 11.329 6.13041 11.4697 5.98976C11.6103 5.84911 11.8011 5.77009 12 5.77009H17.64C17.7389 5.76874 17.837 5.78722 17.9286 5.82444C18.0202 5.86165 18.1034 5.91685 18.1733 5.98676C18.2432 6.05667 18.2984 6.13989 18.3356 6.23149C18.3729 6.32309 18.3913 6.42122 18.39 6.52009V12.0001C18.39 12.199 18.311 12.3898 18.1703 12.5304C18.0297 12.6711 17.8389 12.7501 17.64 12.7501ZM12.75 11.2501H16.89V7.25009H12.75V11.2501Z" fill="white"/>
<path d="M17.64 18.23H12C11.8011 18.23 11.6103 18.151 11.4697 18.0103C11.329 17.8697 11.25 17.6789 11.25 17.48V12C11.2526 11.8019 11.3324 11.6126 11.4725 11.4725C11.6126 11.3324 11.8019 11.2526 12 11.25H17.64C17.8389 11.25 18.0297 11.329 18.1703 11.4697C18.311 11.6103 18.39 11.8011 18.39 12V17.48C18.3913 17.5789 18.3729 17.677 18.3356 17.7686C18.2984 17.8602 18.2432 17.9434 18.1733 18.0133C18.1034 18.0832 18.0202 18.1384 17.9286 18.1756C17.837 18.2129 17.7389 18.2313 17.64 18.23ZM12.75 16.73H16.89V12.73H12.75V16.73Z" fill="white"/>
</svg>
