<svg width="24" height="24" viewBox="0 0 24 24" fill="none" xmlns="http://www.w3.org/2000/svg">
<path d="M19.76 16.25H4.23999C3.44434 16.25 2.68128 15.9339 2.11867 15.3713C1.55606 14.8087 1.23999 14.0456 1.23999 13.25V7.73999C1.23999 6.94434 1.55606 6.18128 2.11867 5.61867C2.68128 5.05606 3.44434 4.73999 4.23999 4.73999H19.76C20.5556 4.73999 21.3187 5.05606 21.8813 5.61867C22.4439 6.18128 22.76 6.94434 22.76 7.73999V13.26C22.7573 14.0539 22.4401 14.8144 21.8778 15.3748C21.3155 15.9353 20.5539 16.25 19.76 16.25ZM4.23999 6.24999C3.84482 6.24999 3.46583 6.40697 3.1864 6.6864C2.90697 6.96583 2.74999 7.34482 2.74999 7.73999V13.26C2.74999 13.6552 2.90697 14.0342 3.1864 14.3136C3.46583 14.593 3.84482 14.75 4.23999 14.75H19.76C20.1552 14.75 20.5342 14.593 20.8136 14.3136C21.093 14.0342 21.25 13.6552 21.25 13.26V7.73999C21.25 7.34482 21.093 6.96583 20.8136 6.6864C20.5342 6.40697 20.1552 6.24999 19.76 6.24999H4.23999Z" fill="white"/>
<path d="M17 13.25C16.4561 13.25 15.9244 13.0887 15.4722 12.7865C15.0199 12.4844 14.6675 12.0549 14.4593 11.5524C14.2512 11.0499 14.1967 10.497 14.3028 9.9635C14.409 9.43006 14.6709 8.94005 15.0555 8.55546C15.4401 8.17086 15.9301 7.90895 16.4635 7.80284C16.997 7.69673 17.5499 7.75119 18.0524 7.95933C18.5549 8.16747 18.9844 8.51995 19.2865 8.97218C19.5887 9.42442 19.75 9.9561 19.75 10.5C19.75 11.2293 19.4603 11.9288 18.9445 12.4445C18.4288 12.9603 17.7293 13.25 17 13.25ZM17 9.25C16.7528 9.25 16.5111 9.32331 16.3055 9.46066C16.1 9.59802 15.9398 9.79324 15.8452 10.0216C15.7505 10.2501 15.7258 10.5014 15.774 10.7439C15.8223 10.9863 15.9413 11.2091 16.1161 11.3839C16.2909 11.5587 16.5137 11.6778 16.7561 11.726C16.9986 11.7742 17.2499 11.7495 17.4784 11.6549C17.7068 11.5602 17.902 11.4 18.0393 11.1945C18.1767 10.9889 18.25 10.7472 18.25 10.5C18.25 10.1685 18.1183 9.85054 17.8839 9.61612C17.6495 9.3817 17.3315 9.25 17 9.25Z" fill="white"/>
<path d="M12 11.25H5C4.80109 11.25 4.61032 11.171 4.46967 11.0303C4.32902 10.8897 4.25 10.6989 4.25 10.5C4.25 10.3011 4.32902 10.1103 4.46967 9.96967C4.61032 9.82902 4.80109 9.75 5 9.75H12C12.1989 9.75 12.3897 9.82902 12.5303 9.96967C12.671 10.1103 12.75 10.3011 12.75 10.5C12.75 10.6989 12.671 10.8897 12.5303 11.0303C12.3897 11.171 12.1989 11.25 12 11.25Z" fill="white"/>
<path d="M6.27997 19.25C6.08186 19.2474 5.8926 19.1676 5.7525 19.0275C5.61241 18.8874 5.53256 18.6981 5.52997 18.5V15.5C5.52997 15.3011 5.60899 15.1103 5.74964 14.9697C5.89029 14.829 6.08106 14.75 6.27997 14.75C6.47888 14.75 6.66965 14.829 6.8103 14.9697C6.95095 15.1103 7.02997 15.3011 7.02997 15.5V18.5C7.02997 18.6989 6.95095 18.8897 6.8103 19.0303C6.66965 19.171 6.47888 19.25 6.27997 19.25Z" fill="white"/>
<path d="M17.72 19.25C17.5272 19.2399 17.3454 19.1567 17.2117 19.0174C17.078 18.8781 17.0023 18.6931 17 18.5V15.5C17 15.3011 17.079 15.1103 17.2197 14.9697C17.3603 14.829 17.5511 14.75 17.75 14.75C17.9489 14.75 18.1397 14.829 18.2803 14.9697C18.421 15.1103 18.5 15.3011 18.5 15.5V18.5C18.4987 18.6007 18.4774 18.7001 18.4374 18.7924C18.3974 18.8848 18.3394 18.9683 18.2668 19.0381C18.1943 19.1079 18.1085 19.1625 18.0147 19.1989C17.9208 19.2353 17.8206 19.2527 17.72 19.25Z" fill="white"/>
</svg>
