<svg width="24" height="24" viewBox="0 0 24 24" fill="none" xmlns="http://www.w3.org/2000/svg">
<path d="M8.79004 9.72994C8.69026 9.73025 8.5915 9.70981 8.50004 9.66994C8.41079 9.63199 8.3294 9.57773 8.26004 9.50994C8.18886 9.44339 8.13409 9.36123 8.10004 9.26994C8.04101 9.13304 8.0247 8.98151 8.05325 8.8352C8.0818 8.68888 8.15388 8.55459 8.26004 8.44994C8.32659 8.37876 8.40874 8.32399 8.50004 8.28994C8.58989 8.25056 8.68693 8.23022 8.78504 8.23022C8.88314 8.23022 8.98018 8.25056 9.07004 8.28994C9.16546 8.32149 9.25142 8.37651 9.32004 8.44994C9.38783 8.51929 9.44209 8.60068 9.48004 8.68994C9.52273 8.78756 9.54322 8.89344 9.54004 8.99994C9.53951 9.09963 9.51911 9.19822 9.48004 9.28994C9.44209 9.37919 9.38783 9.46058 9.32004 9.52994C9.24872 9.60005 9.16358 9.65454 9.07004 9.68994C8.98061 9.72304 8.88515 9.73668 8.79004 9.72994Z" fill="white"/>
<path d="M12.0001 12.75C11.9003 12.7503 11.8015 12.7298 11.7101 12.69C11.6208 12.652 11.5394 12.5977 11.4701 12.53C11.3296 12.3893 11.2507 12.1987 11.2507 12C11.2507 11.8012 11.3296 11.6106 11.4701 11.47C11.5394 11.4022 11.6208 11.3479 11.7101 11.31C11.7999 11.2706 11.897 11.2502 11.9951 11.2502C12.0932 11.2502 12.1902 11.2706 12.2801 11.31C12.3736 11.3453 12.4588 11.3998 12.5301 11.47C12.6705 11.6106 12.7494 11.8012 12.7494 12C12.7494 12.1987 12.6705 12.3893 12.5301 12.53C12.4588 12.6001 12.3736 12.6546 12.2801 12.69C12.1922 12.7299 12.0966 12.7504 12.0001 12.75Z" fill="white"/>
<path d="M15.17 9.72994C15.0734 9.73035 14.9779 9.70988 14.89 9.66994C14.7976 9.63225 14.7129 9.57803 14.64 9.50994C14.5722 9.44058 14.5179 9.35919 14.48 9.26994C14.4404 9.17839 14.4199 9.07969 14.4199 8.97994C14.4199 8.88018 14.4404 8.78148 14.48 8.68994C14.5179 8.60068 14.5722 8.51929 14.64 8.44994C14.7103 8.37858 14.7957 8.32391 14.89 8.28994C14.9799 8.25056 15.0769 8.23022 15.175 8.23022C15.2731 8.23022 15.3701 8.25056 15.46 8.28994C15.5513 8.32399 15.6334 8.37876 15.7 8.44994C15.7708 8.51889 15.8284 8.60023 15.87 8.68994C15.9019 8.78334 15.9188 8.88123 15.92 8.97994C15.9198 9.17878 15.8407 9.36942 15.7 9.50994C15.6306 9.57773 15.5492 9.63199 15.46 9.66994C15.3685 9.70981 15.2698 9.73025 15.17 9.72994Z" fill="white"/>
<path d="M8.79 15.73C8.69022 15.7303 8.59147 15.7098 8.5 15.67C8.41075 15.632 8.32936 15.5777 8.26 15.51C8.18883 15.4434 8.13406 15.3613 8.1 15.27C8.04955 15.1873 8.01559 15.0956 8 15C7.99969 14.9002 8.02013 14.8014 8.06 14.71C8.1351 14.5289 8.27896 14.3851 8.46 14.31C8.54986 14.2706 8.6469 14.2502 8.745 14.2502C8.84311 14.2502 8.94015 14.2706 9.03 14.31C9.12542 14.3415 9.21139 14.3965 9.28 14.47C9.34779 14.5393 9.40205 14.6207 9.44 14.71C9.47988 14.8014 9.50031 14.9002 9.5 15C9.49983 15.1988 9.4207 15.3894 9.28 15.53C9.20869 15.6001 9.12354 15.6546 9.03 15.69C8.95311 15.7178 8.87177 15.7314 8.79 15.73Z" fill="white"/>
<path d="M15.17 15.7299C15.0735 15.7303 14.978 15.7099 14.89 15.6699C14.7977 15.6323 14.713 15.578 14.64 15.5099C14.5723 15.4406 14.518 15.3592 14.48 15.2699C14.441 15.1782 14.4206 15.0796 14.42 14.9799C14.4197 14.8802 14.4402 14.7814 14.48 14.6899C14.518 14.6007 14.5723 14.5193 14.64 14.4499C14.7104 14.3786 14.7958 14.3239 14.89 14.2899C14.9799 14.2506 15.0769 14.2302 15.175 14.2302C15.2732 14.2302 15.3702 14.2506 15.46 14.2899C15.5513 14.324 15.6335 14.3788 15.7 14.4499C15.8407 14.5905 15.9199 14.7811 15.92 14.9799C15.9178 15.0785 15.9009 15.1763 15.87 15.2699C15.8285 15.3596 15.7709 15.441 15.7 15.5099C15.6307 15.5777 15.5493 15.632 15.46 15.6699C15.3686 15.7098 15.2698 15.7302 15.17 15.7299Z" fill="white"/>
<path d="M17 20.77H7.00003C6.50421 20.7727 6.01278 20.677 5.55419 20.4885C5.09559 20.2999 4.67894 20.0223 4.32833 19.6717C3.97772 19.3211 3.70013 18.9045 3.51161 18.4459C3.32309 17.9873 3.22738 17.4959 3.23003 17V7.00003C3.22738 6.50421 3.32309 6.01278 3.51161 5.55419C3.70013 5.09559 3.97772 4.67894 4.32833 4.32833C4.67894 3.97772 5.09559 3.70013 5.55419 3.51161C6.01278 3.32309 6.50421 3.22738 7.00003 3.23003H17C17.4959 3.22738 17.9873 3.32309 18.4459 3.51161C18.9045 3.70013 19.3211 3.97772 19.6717 4.32833C20.0223 4.67894 20.2999 5.09559 20.4885 5.55419C20.677 6.01278 20.7727 6.50421 20.77 7.00003V17C20.7727 17.4959 20.677 17.9873 20.4885 18.4459C20.2999 18.9045 20.0223 19.3211 19.6717 19.6717C19.3211 20.0223 18.9045 20.2999 18.4459 20.4885C17.9873 20.677 17.4959 20.7727 17 20.77ZM7.00003 4.73003C6.70119 4.72737 6.40481 4.78426 6.1282 4.89739C5.85158 5.01053 5.60028 5.17763 5.38895 5.38895C5.17763 5.60028 5.01053 5.85158 4.89739 6.1282C4.78426 6.40481 4.72737 6.70119 4.73003 7.00003V17C4.72737 17.2989 4.78426 17.5953 4.89739 17.8719C5.01053 18.1485 5.17763 18.3998 5.38895 18.6111C5.60028 18.8224 5.85158 18.9895 6.1282 19.1027C6.40481 19.2158 6.70119 19.2727 7.00003 19.27H17C17.2989 19.2727 17.5953 19.2158 17.8719 19.1027C18.1485 18.9895 18.3998 18.8224 18.6111 18.6111C18.8224 18.3998 18.9895 18.1485 19.1027 17.8719C19.2158 17.5953 19.2727 17.2989 19.27 17V7.00003C19.2727 6.70119 19.2158 6.40481 19.1027 6.1282C18.9895 5.85158 18.8224 5.60028 18.6111 5.38895C18.3998 5.17763 18.1485 5.01053 17.8719 4.89739C17.5953 4.78426 17.2989 4.72737 17 4.73003H7.00003Z" fill="white"/>
</svg>
