<svg width="24" height="24" viewBox="0 0 24 24" fill="none" xmlns="http://www.w3.org/2000/svg">
<path d="M18.43 17.5801H5.57001C4.50914 17.5801 3.49173 17.1587 2.74158 16.4085C1.99143 15.6584 1.57001 14.6409 1.57001 13.5801V6.58008C1.57001 5.51921 1.99143 4.5018 2.74158 3.75165C3.49173 3.00151 4.50914 2.58008 5.57001 2.58008H18.43C19.4909 2.58008 20.5083 3.00151 21.2584 3.75165C22.0086 4.5018 22.43 5.51921 22.43 6.58008V13.6301C22.4169 14.6823 21.9896 15.6869 21.2409 16.4262C20.4922 17.1656 19.4823 17.5802 18.43 17.5801ZM5.57001 4.05008C4.91043 4.05271 4.27862 4.3159 3.81222 4.78229C3.34582 5.24869 3.08264 5.8805 3.08001 6.54008V13.5901C3.08001 14.2505 3.34235 14.8838 3.80931 15.3508C4.27628 15.8177 4.90962 16.0801 5.57001 16.0801H18.43C18.757 16.0801 19.0808 16.0157 19.3829 15.8905C19.685 15.7654 19.9595 15.582 20.1907 15.3508C20.4219 15.1196 20.6053 14.8451 20.7305 14.543C20.8556 14.2409 20.92 13.9171 20.92 13.5901V6.59008C20.9174 5.9305 20.6542 5.29869 20.1878 4.83229C19.7214 4.3659 19.0896 4.10271 18.43 4.10008L5.57001 4.05008Z" fill="white"/>
<path d="M21.67 13.78H2.33002C2.1311 13.78 1.94034 13.701 1.79969 13.5604C1.65903 13.4197 1.58002 13.2289 1.58002 13.03C1.58002 12.8311 1.65903 12.6404 1.79969 12.4997C1.94034 12.359 2.1311 12.28 2.33002 12.28H21.67C21.8689 12.28 22.0597 12.359 22.2003 12.4997C22.341 12.6404 22.42 12.8311 22.42 13.03C22.42 13.2289 22.341 13.4197 22.2003 13.5604C22.0597 13.701 21.8689 13.78 21.67 13.78Z" fill="white"/>
<path d="M12 21.4501C11.8011 21.4501 11.6103 21.3711 11.4697 21.2304C11.329 21.0898 11.25 20.899 11.25 20.7001V16.8301C11.25 16.6312 11.329 16.4404 11.4697 16.2997C11.6103 16.1591 11.8011 16.0801 12 16.0801C12.1989 16.0801 12.3897 16.1591 12.5303 16.2997C12.671 16.4404 12.75 16.6312 12.75 16.8301V20.7001C12.75 20.899 12.671 21.0898 12.5303 21.2304C12.3897 21.3711 12.1989 21.4501 12 21.4501Z" fill="white"/>
<path d="M17.8 21.4502H6.20001C6.0011 21.4502 5.81033 21.3712 5.66968 21.2305C5.52903 21.0899 5.45001 20.8991 5.45001 20.7002C5.45001 20.5013 5.52903 20.3105 5.66968 20.1699C5.81033 20.0292 6.0011 19.9502 6.20001 19.9502H17.8C17.9989 19.9502 18.1897 20.0292 18.3303 20.1699C18.471 20.3105 18.55 20.5013 18.55 20.7002C18.55 20.8991 18.471 21.0899 18.3303 21.2305C18.1897 21.3712 17.9989 21.4502 17.8 21.4502Z" fill="white"/>
</svg>
