<svg width="24" height="24" viewBox="0 0 24 24" fill="none" xmlns="http://www.w3.org/2000/svg">
<path d="M8.07001 20.7399C7.49362 20.7419 6.92962 20.5726 6.44955 20.2537C5.96947 19.9347 5.59494 19.4803 5.37345 18.9481C5.15196 18.416 5.09349 17.8301 5.20545 17.2647C5.31742 16.6992 5.59477 16.1798 6.00235 15.7722C6.40992 15.3647 6.92935 15.0873 7.49476 14.9754C8.06018 14.8634 8.64611 14.9219 9.17824 15.1433C9.71038 15.3648 10.1648 15.7394 10.4838 16.2194C10.8027 16.6995 10.972 17.2635 10.97 17.8399C10.97 18.609 10.6645 19.3467 10.1206 19.8905C9.57676 20.4344 8.83914 20.7399 8.07001 20.7399ZM8.07001 16.4299C7.79072 16.4279 7.51713 16.5089 7.28395 16.6627C7.05076 16.8164 6.86849 17.0359 6.76023 17.2934C6.65198 17.5508 6.62262 17.8346 6.67589 18.1088C6.72916 18.383 6.86266 18.6351 7.05945 18.8333C7.25623 19.0315 7.50745 19.1668 7.78123 19.222C8.05502 19.2773 8.33903 19.2499 8.59726 19.1435C8.85548 19.0371 9.07629 18.8564 9.23167 18.6243C9.38705 18.3922 9.47 18.1192 9.47001 17.8399C9.47002 17.4677 9.32284 17.1105 9.06057 16.8464C8.7983 16.5823 8.44223 16.4325 8.07001 16.4299Z" fill="white"/>
<path d="M15.28 20.7399C14.7036 20.7419 14.1396 20.5726 13.6596 20.2537C13.1795 19.9347 12.805 19.4803 12.5835 18.9481C12.362 18.416 12.3035 17.8301 12.4155 17.2647C12.5274 16.6992 12.8048 16.1798 13.2124 15.7722C13.6199 15.3647 14.1394 15.0873 14.7048 14.9754C15.2702 14.8634 15.8561 14.9219 16.3883 15.1433C16.9204 15.3648 17.3748 15.7394 17.6938 16.2194C18.0128 16.6995 18.182 17.2635 18.18 17.8399C18.18 18.2207 18.105 18.5978 17.9593 18.9497C17.8135 19.3015 17.5999 19.6212 17.3306 19.8905C17.0614 20.1598 16.7417 20.3734 16.3898 20.5192C16.038 20.6649 15.6609 20.7399 15.28 20.7399ZM15.28 16.4299C15.0007 16.4279 14.7272 16.5089 14.494 16.6627C14.2608 16.8164 14.0785 17.0359 13.9703 17.2934C13.862 17.5508 13.8326 17.8346 13.8859 18.1088C13.9392 18.383 14.0727 18.6351 14.2695 18.8333C14.4663 19.0315 14.7175 19.1668 14.9913 19.222C15.265 19.2773 15.5491 19.2499 15.8073 19.1435C16.0655 19.0371 16.2863 18.8564 16.4417 18.6243C16.5971 18.3922 16.68 18.1192 16.68 17.8399C16.68 17.4677 16.5329 17.1105 16.2706 16.8464C16.0083 16.5823 15.6523 16.4325 15.28 16.4299Z" fill="white"/>
<path d="M13.13 18.5901H10.22C10.0211 18.5901 9.83035 18.5111 9.6897 18.3704C9.54905 18.2298 9.47003 18.039 9.47003 17.8401C9.47003 17.6412 9.54905 17.4504 9.6897 17.3098C9.83035 17.1691 10.0211 17.0901 10.22 17.0901H13.13C13.3289 17.0901 13.5197 17.1691 13.6604 17.3098C13.801 17.4504 13.88 17.6412 13.88 17.8401C13.88 18.039 13.801 18.2298 13.6604 18.3704C13.5197 18.5111 13.3289 18.5901 13.13 18.5901Z" fill="white"/>
<path d="M3.84001 14.7601C3.69908 14.759 3.56115 14.7193 3.44125 14.6453C3.32134 14.5712 3.22406 14.4656 3.16001 14.3401C3.07404 14.1611 3.06261 13.9552 3.12823 13.7677C3.19384 13.5803 3.33114 13.4265 3.51001 13.3401C6.09187 12.2456 8.87635 11.7105 11.68 11.7701H11.89C12.0889 11.7701 12.2797 11.8491 12.4203 11.9898C12.561 12.1304 12.64 12.3212 12.64 12.5201C12.64 12.719 12.561 12.9098 12.4203 13.0504C12.2797 13.1911 12.0889 13.2701 11.89 13.2701H11.69C9.11395 13.2287 6.55608 13.7083 4.17001 14.6801C4.0698 14.7375 3.95536 14.7652 3.84001 14.7601Z" fill="white"/>
<path d="M19.92 14.7601C19.808 14.7633 19.6973 14.7356 19.6 14.6801C17.1583 13.6713 14.5307 13.1908 11.89 13.2701C11.6911 13.2701 11.5003 13.1911 11.3597 13.0504C11.219 12.9098 11.14 12.719 11.14 12.5201C11.14 12.3212 11.219 12.1304 11.3597 11.9898C11.5003 11.8491 11.6911 11.7701 11.89 11.7701C14.7649 11.6702 17.6263 12.2063 20.27 13.3401C20.4489 13.4264 20.5862 13.5802 20.6518 13.7677C20.7174 13.9552 20.706 14.161 20.62 14.3401C20.5544 14.4687 20.454 14.5762 20.3303 14.6505C20.2065 14.7247 20.0643 14.7627 19.92 14.7601Z" fill="white"/>
<path d="M6.60004 11.27H6.51004C6.41215 11.2577 6.31766 11.2261 6.23198 11.1772C6.1463 11.1283 6.07111 11.0629 6.01073 10.9849C5.95035 10.9069 5.90596 10.8177 5.8801 10.7225C5.85424 10.6272 5.84742 10.5279 5.86004 10.43C6.00004 9.23001 6.94004 3.26001 9.71004 3.26001H12C12.1989 3.26001 12.3897 3.33903 12.5304 3.47968C12.671 3.62033 12.75 3.8111 12.75 4.01001C12.75 4.20892 12.671 4.39969 12.5304 4.54034C12.3897 4.68099 12.1989 4.76001 12 4.76001H9.71004C8.77004 4.76001 7.71004 7.85001 7.35004 10.62C7.32568 10.8011 7.23603 10.9671 7.09793 11.0868C6.95983 11.2065 6.78278 11.2716 6.60004 11.27Z" fill="white"/>
<path d="M17.16 11.27C16.9772 11.2716 16.8002 11.2065 16.6621 11.0868C16.524 10.9671 16.4343 10.8011 16.41 10.62C16.05 7.85001 15 4.76001 14.05 4.76001H11.8C11.6011 4.76001 11.4103 4.68099 11.2697 4.54034C11.129 4.39969 11.05 4.20892 11.05 4.01001C11.05 3.8111 11.129 3.62033 11.2697 3.47968C11.4103 3.33903 11.6011 3.26001 11.8 3.26001H14.05C16.75 3.26001 17.68 8.74001 17.9 10.42C17.9126 10.5179 17.9058 10.6172 17.8799 10.7125C17.8541 10.8077 17.8097 10.8969 17.7493 10.9749C17.6889 11.0529 17.6137 11.1183 17.5281 11.1672C17.4424 11.2161 17.3479 11.2477 17.25 11.26L17.16 11.27Z" fill="white"/>
</svg>
