<svg width="24" height="24" viewBox="0 0 24 24" fill="none" xmlns="http://www.w3.org/2000/svg">
<path d="M6.5 16.1299C5.63805 16.1299 4.8114 15.7875 4.2019 15.178C3.59241 14.5685 3.25 13.7418 3.25 12.8799V5.87988C3.25 5.01793 3.59241 4.19128 4.2019 3.58179C4.8114 2.97229 5.63805 2.62988 6.5 2.62988C7.36195 2.62988 8.1886 2.97229 8.7981 3.58179C9.40759 4.19128 9.75 5.01793 9.75 5.87988V12.8799C9.75 13.3067 9.66594 13.7293 9.50261 14.1236C9.33928 14.5179 9.09989 14.8762 8.7981 15.178C8.49631 15.4798 8.13803 15.7192 7.74372 15.8825C7.34941 16.0458 6.9268 16.1299 6.5 16.1299ZM6.5 4.12988C6.03668 4.13251 5.59309 4.31773 5.26546 4.64535C4.93784 4.97297 4.75263 5.41656 4.75 5.87988V12.8799C4.75 13.344 4.93437 13.7891 5.26256 14.1173C5.59075 14.4455 6.03587 14.6299 6.5 14.6299C6.96413 14.6299 7.40925 14.4455 7.73744 14.1173C8.06563 13.7891 8.25 13.344 8.25 12.8799V5.87988C8.24738 5.41656 8.06216 4.97297 7.73454 4.64535C7.40691 4.31773 6.96332 4.13251 6.5 4.12988Z" fill="white"/>
<path d="M11.78 21.3699C11.4924 21.3696 11.2088 21.3036 10.9506 21.1771C10.6924 21.0506 10.4664 20.8669 10.29 20.6399C9.27011 19.0895 8.58862 17.3415 8.28997 15.5099C8.28502 15.4667 8.28502 15.4231 8.28997 15.3799V5.31988C8.29261 4.60726 8.57686 3.92458 9.08077 3.42068C9.58467 2.91677 10.2674 2.63252 10.98 2.62988H18.1C18.8126 2.63252 19.4953 2.91677 19.9992 3.42068C20.5031 3.92458 20.7873 4.60726 20.79 5.31988V13.4499C20.7873 14.1616 20.5028 14.8432 19.9986 15.3455C19.4944 15.8479 18.8117 16.1299 18.1 16.1299H13.75V19.4099C13.7517 19.8191 13.6241 20.2184 13.3852 20.5507C13.1463 20.883 12.8085 21.1312 12.42 21.2599C12.2138 21.3303 11.9978 21.3675 11.78 21.3699ZM9.77997 15.3199C10.0508 16.8844 10.6359 18.3778 11.5 19.7099C11.5502 19.7809 11.6232 19.8326 11.707 19.8563C11.7907 19.8799 11.88 19.8741 11.96 19.8399C12.0524 19.812 12.1334 19.7551 12.191 19.6777C12.2486 19.6003 12.2798 19.5064 12.28 19.4099V15.4099C12.2826 15.2118 12.3624 15.0225 12.5025 14.8824C12.6426 14.7423 12.8319 14.6625 13.03 14.6599H18.09C18.2458 14.6612 18.4003 14.6317 18.5446 14.5729C18.6889 14.5142 18.8202 14.4275 18.9308 14.3178C19.0415 14.2081 19.1293 14.0776 19.1892 13.9338C19.2491 13.79 19.28 13.6357 19.28 13.4799V5.31988C19.28 5.16361 19.2492 5.00887 19.1894 4.86449C19.1296 4.72011 19.0419 4.58893 18.9314 4.47843C18.8209 4.36792 18.6897 4.28027 18.5454 4.22047C18.401 4.16066 18.2462 4.12988 18.09 4.12988H10.94C10.6244 4.12988 10.3217 4.25526 10.0985 4.47843C9.87535 4.70159 9.74997 5.00428 9.74997 5.31988L9.77997 15.3199Z" fill="white"/>
</svg>
