<svg width="24" height="24" viewBox="0 0 24 24" fill="none" xmlns="http://www.w3.org/2000/svg">
<path d="M19 19.25H5C4.00544 19.25 3.05161 18.8549 2.34835 18.1517C1.64509 17.4484 1.25 16.4946 1.25 15.5V8.5C1.25 7.50544 1.64509 6.55161 2.34835 5.84835C3.05161 5.14509 4.00544 4.75 5 4.75H19C19.9946 4.75 20.9484 5.14509 21.6517 5.84835C22.3549 6.55161 22.75 7.50544 22.75 8.5V15.5C22.75 16.4946 22.3549 17.4484 21.6517 18.1517C20.9484 18.8549 19.9946 19.25 19 19.25ZM5 6.25C4.40326 6.25 3.83097 6.48705 3.40901 6.90901C2.98705 7.33097 2.75 7.90326 2.75 8.5V15.5C2.75 16.0967 2.98705 16.669 3.40901 17.091C3.83097 17.5129 4.40326 17.75 5 17.75H19C19.5967 17.75 20.169 17.5129 20.591 17.091C21.0129 16.669 21.25 16.0967 21.25 15.5V8.5C21.25 7.90326 21.0129 7.33097 20.591 6.90901C20.169 6.48705 19.5967 6.25 19 6.25H5Z" fill="white"/>
<path d="M10 15.25H6C5.80109 15.25 5.61032 15.171 5.46967 15.0303C5.32902 14.8897 5.25 14.6989 5.25 14.5C5.25 14.3011 5.32902 14.1103 5.46967 13.9697C5.61032 13.829 5.80109 13.75 6 13.75H10C10.1989 13.75 10.3897 13.829 10.5303 13.9697C10.671 14.1103 10.75 14.3011 10.75 14.5C10.75 14.6989 10.671 14.8897 10.5303 15.0303C10.3897 15.171 10.1989 15.25 10 15.25Z" fill="white"/>
<path d="M16 15.25H13C12.8011 15.25 12.6103 15.171 12.4697 15.0303C12.329 14.8897 12.25 14.6989 12.25 14.5C12.25 14.3011 12.329 14.1103 12.4697 13.9697C12.6103 13.829 12.8011 13.75 13 13.75H16C16.1989 13.75 16.3897 13.829 16.5303 13.9697C16.671 14.1103 16.75 14.3011 16.75 14.5C16.75 14.6989 16.671 14.8897 16.5303 15.0303C16.3897 15.171 16.1989 15.25 16 15.25Z" fill="white"/>
</svg>
