<svg width="24" height="24" viewBox="0 0 24 24" fill="none" xmlns="http://www.w3.org/2000/svg">
<path d="M15.74 19.3H8.26001C7.26626 19.2973 6.31396 18.9014 5.61127 18.1987C4.90858 17.496 4.51265 16.5437 4.51001 15.55V8.44995C4.51265 7.4562 4.90858 6.50391 5.61127 5.80122C6.31396 5.09853 7.26626 4.70259 8.26001 4.69995H15.74C16.7338 4.70259 17.6861 5.09853 18.3887 5.80122C19.0914 6.50391 19.4874 7.4562 19.49 8.44995V15.55C19.4874 16.5437 19.0914 17.496 18.3887 18.1987C17.6861 18.9014 16.7338 19.2973 15.74 19.3ZM8.26001 6.19995C7.9637 6.19863 7.67004 6.25586 7.3959 6.36834C7.12176 6.48083 6.87254 6.64635 6.66255 6.85542C6.45256 7.06448 6.28593 7.31296 6.17223 7.5866C6.05853 7.86023 6.00001 8.15363 6.00001 8.44995V15.55C6.00001 15.8463 6.05853 16.1397 6.17223 16.4133C6.28593 16.6869 6.45256 16.9354 6.66255 17.1445C6.87254 17.3536 7.12176 17.5191 7.3959 17.6316C7.67004 17.744 7.9637 17.8013 8.26001 17.8H15.74C16.0363 17.8013 16.33 17.744 16.6041 17.6316C16.8783 17.5191 17.1275 17.3536 17.3375 17.1445C17.5475 16.9354 17.7141 16.6869 17.8278 16.4133C17.9415 16.1397 18 15.8463 18 15.55V8.44995C18 8.15363 17.9415 7.86023 17.8278 7.5866C17.7141 7.31296 17.5475 7.06448 17.3375 6.85542C17.1275 6.64635 16.8783 6.48083 16.6041 6.36834C16.33 6.25586 16.0363 6.19863 15.74 6.19995H8.26001Z" fill="white"/>
<path d="M16.13 6.2H7.87C7.67108 6.2 7.48032 6.12099 7.33966 5.98033C7.19901 5.83968 7.12 5.64892 7.12 5.45V2.38001C7.12 2.18109 7.19901 1.99033 7.33966 1.84967C7.48032 1.70902 7.67108 1.63 7.87 1.63H16.13C16.3289 1.63 16.5197 1.70902 16.6603 1.84967C16.801 1.99033 16.88 2.18109 16.88 2.38001V5.45C16.88 5.64892 16.801 5.83968 16.6603 5.98033C16.5197 6.12099 16.3289 6.2 16.13 6.2ZM8.62 4.7H15.38V3.13001H8.62V4.7Z" fill="white"/>
<path d="M16.13 22.3701H7.87C7.67108 22.3701 7.48032 22.291 7.33966 22.1504C7.19901 22.0097 7.12 21.819 7.12 21.6201V18.55C7.12 18.3511 7.19901 18.1604 7.33966 18.0197C7.48032 17.8791 7.67108 17.8 7.87 17.8H16.13C16.3289 17.8 16.5197 17.8791 16.6603 18.0197C16.801 18.1604 16.88 18.3511 16.88 18.55V21.6201C16.88 21.819 16.801 22.0097 16.6603 22.1504C16.5197 22.291 16.3289 22.3701 16.13 22.3701ZM8.62 20.8701H15.38V19.3H8.62V20.8701Z" fill="white"/>
</svg>
