<svg width="24" height="24" viewBox="0 0 24 24" fill="none" xmlns="http://www.w3.org/2000/svg">
<path d="M20.62 20.13H3.39999C2.94555 20.13 2.50957 19.9502 2.18729 19.6298C1.86501 19.3094 1.68263 18.8744 1.67999 18.42V7.62C1.68263 6.62624 2.07857 5.67395 2.78126 4.97126C3.48395 4.26857 4.43624 3.87263 5.42999 3.87H18.59C19.5846 3.87 20.5384 4.26508 21.2416 4.96834C21.9449 5.67161 22.34 6.62543 22.34 7.62V18.42C22.3374 18.8744 22.155 19.3094 21.8327 19.6298C21.5104 19.9502 21.0744 20.13 20.62 20.13ZM5.42999 5.37C4.83326 5.37 4.26096 5.60705 3.839 6.02901C3.41705 6.45096 3.17999 7.02326 3.17999 7.62V18.42C3.17996 18.4484 3.18571 18.4766 3.19688 18.5027C3.20805 18.5289 3.22442 18.5525 3.24499 18.5721C3.26556 18.5918 3.28991 18.607 3.31655 18.617C3.3432 18.6269 3.37159 18.6313 3.39999 18.63H20.62C20.6484 18.6313 20.6768 18.6269 20.7034 18.617C20.7301 18.607 20.7544 18.5918 20.775 18.5721C20.7956 18.5525 20.8119 18.5289 20.8231 18.5027C20.8343 18.4766 20.84 18.4484 20.84 18.42V7.62C20.84 7.02326 20.6029 6.45096 20.181 6.02901C19.759 5.60705 19.1867 5.37 18.59 5.37H5.42999Z" fill="white"/>
<path d="M12 15.5399C11.3003 15.538 10.6168 15.3287 10.036 14.9385C9.45515 14.5483 9.00298 13.9948 8.73658 13.3477C8.47018 12.7007 8.4015 11.9893 8.53922 11.3032C8.67693 10.6172 9.01487 9.98735 9.51035 9.49328C10.0058 8.9992 10.6366 8.66304 11.323 8.52725C12.0094 8.39147 12.7207 8.46216 13.367 8.73038C14.0132 8.99861 14.5655 9.45234 14.9541 10.0343C15.3426 10.6162 15.55 11.3002 15.55 11.9999C15.5473 12.9397 15.1721 13.8401 14.5067 14.5037C13.8412 15.1673 12.9398 15.54 12 15.5399ZM12 9.99995C11.6044 9.99995 11.2177 10.1172 10.8888 10.337C10.5599 10.5568 10.3036 10.8691 10.1522 11.2346C10.0008 11.6 9.96123 12.0022 10.0384 12.3901C10.1156 12.7781 10.3061 13.1345 10.5858 13.4142C10.8655 13.6939 11.2218 13.8843 11.6098 13.9615C11.9978 14.0387 12.3999 13.9991 12.7653 13.8477C13.1308 13.6963 13.4431 13.44 13.6629 13.1111C13.8827 12.7822 14 12.3955 14 11.9999C14 11.4695 13.7893 10.9608 13.4142 10.5857C13.0391 10.2107 12.5304 9.99995 12 9.99995Z" fill="white"/>
<path d="M21.58 12.75H14.79C14.5911 12.75 14.4003 12.671 14.2596 12.5303C14.119 12.3897 14.04 12.1989 14.04 12C14.04 11.8011 14.119 11.6103 14.2596 11.4697C14.4003 11.329 14.5911 11.25 14.79 11.25H21.58C21.7789 11.25 21.9697 11.329 22.1103 11.4697C22.251 11.6103 22.33 11.8011 22.33 12C22.33 12.1989 22.251 12.3897 22.1103 12.5303C21.9697 12.671 21.7789 12.75 21.58 12.75Z" fill="white"/>
<path d="M9.21999 12.75H2.42999C2.23108 12.75 2.04031 12.671 1.89966 12.5303C1.75901 12.3897 1.67999 12.1989 1.67999 12C1.67999 11.8011 1.75901 11.6103 1.89966 11.4697C2.04031 11.329 2.23108 11.25 2.42999 11.25H9.21999C9.41891 11.25 9.60967 11.329 9.75032 11.4697C9.89097 11.6103 9.96999 11.8011 9.96999 12C9.96999 12.1989 9.89097 12.3897 9.75032 12.5303C9.60967 12.671 9.41891 12.75 9.21999 12.75Z" fill="white"/>
</svg>
