<svg width="24" height="24" viewBox="0 0 24 24" fill="none" xmlns="http://www.w3.org/2000/svg">
<path d="M16.4 19.62H6.40002C5.40546 19.62 4.45164 19.2249 3.74837 18.5216C3.04511 17.8184 2.65002 16.8646 2.65002 15.87V13.37C2.65002 13.1711 2.72904 12.9803 2.86969 12.8397C3.01035 12.699 3.20111 12.62 3.40002 12.62C3.59894 12.62 3.7897 12.699 3.93035 12.8397C4.07101 12.9803 4.15002 13.1711 4.15002 13.37V15.87C4.15002 16.4667 4.38708 17.039 4.80903 17.461C5.23099 17.8829 5.80329 18.12 6.40002 18.12H16.4C16.9968 18.12 17.5691 17.8829 17.991 17.461C18.413 17.039 18.65 16.4667 18.65 15.87V13.37C18.65 13.1711 18.729 12.9803 18.8697 12.8397C19.0103 12.699 19.2011 12.62 19.4 12.62C19.5989 12.62 19.7897 12.699 19.9304 12.8397C20.071 12.9803 20.15 13.1711 20.15 13.37V15.87C20.15 16.8646 19.7549 17.8184 19.0517 18.5216C18.3484 19.2249 17.3946 19.62 16.4 19.62Z" fill="white"/>
<path d="M11.4 14.88C11.2011 14.88 11.0103 14.801 10.8697 14.6603C10.729 14.5197 10.65 14.3289 10.65 14.13V5.13C10.65 4.93109 10.729 4.74033 10.8697 4.59967C11.0103 4.45902 11.2011 4.38 11.4 4.38C11.5989 4.38 11.7897 4.45902 11.9304 4.59967C12.071 4.74033 12.15 4.93109 12.15 5.13V14.13C12.1474 14.3281 12.0676 14.5174 11.9275 14.6575C11.7874 14.7976 11.5981 14.8774 11.4 14.88Z" fill="white"/>
<path d="M11.4001 16.12C11.3014 16.1211 11.2036 16.1021 11.1125 16.0643C11.0214 16.0265 10.939 15.9706 10.8701 15.9L6.63006 11.66C6.55931 11.5911 6.50307 11.5087 6.46467 11.4176C6.42628 11.3266 6.40649 11.2288 6.40649 11.13C6.40649 11.0312 6.42628 10.9334 6.46467 10.8424C6.50307 10.7514 6.55931 10.669 6.63006 10.6C6.77069 10.4596 6.96131 10.3807 7.16006 10.3807C7.35881 10.3807 7.54944 10.4596 7.69006 10.6L11.4001 14.31L15.1101 10.6C15.1787 10.5264 15.2615 10.4672 15.3535 10.4263C15.4455 10.3853 15.5448 10.3632 15.6455 10.3614C15.7462 10.3597 15.8463 10.3782 15.9397 10.4159C16.0331 10.4536 16.1179 10.5098 16.1891 10.581C16.2603 10.6522 16.3165 10.7371 16.3542 10.8304C16.3919 10.9238 16.4104 11.0239 16.4087 11.1246C16.4069 11.2253 16.3848 11.3246 16.3438 11.4166C16.3029 11.5086 16.2438 11.5914 16.1701 11.66L11.9301 15.9C11.8608 15.9701 11.7783 16.0257 11.6873 16.0635C11.5962 16.1013 11.4986 16.1205 11.4001 16.12Z" fill="white"/>
</svg>
