<svg width="24" height="24" viewBox="0 0 24 24" fill="none" xmlns="http://www.w3.org/2000/svg">
<path d="M10.4 10.9998C10.3003 10.9993 10.2017 10.9789 10.11 10.9398C10.0208 10.9019 9.93938 10.8476 9.87002 10.7798C9.79885 10.7133 9.74408 10.6311 9.71002 10.5398C9.65099 10.4029 9.63468 10.2514 9.66323 10.1051C9.69178 9.95877 9.76386 9.82449 9.87002 9.71983C9.93938 9.65204 10.0208 9.59778 10.11 9.55983C10.2016 9.5202 10.3003 9.49976 10.4 9.49976C10.4998 9.49976 10.5985 9.5202 10.69 9.55983C10.7793 9.59778 10.8607 9.65204 10.93 9.71983C11.0707 9.86035 11.1498 10.051 11.15 10.2498C11.1503 10.3496 11.1299 10.4484 11.09 10.5398C11.0521 10.6291 10.9978 10.7105 10.93 10.7798C10.7895 10.9205 10.5989 10.9997 10.4 10.9998Z" fill="white"/>
<path d="M16.79 10.9999C16.6913 11.001 16.5935 10.982 16.5024 10.9442C16.4114 10.9064 16.3289 10.8505 16.26 10.7799C16.1891 10.711 16.1315 10.6296 16.09 10.5399C16.0548 10.447 16.0345 10.3492 16.03 10.2499C16.0339 10.0499 16.1165 9.85944 16.26 9.71994C16.3638 9.6158 16.4963 9.54497 16.6406 9.51647C16.7848 9.48797 16.9343 9.5031 17.07 9.55994C17.1592 9.59789 17.2406 9.65215 17.31 9.71994C17.4507 9.86046 17.5298 10.0511 17.53 10.2499C17.5337 10.349 17.5167 10.4478 17.48 10.5399C17.4384 10.6296 17.3808 10.711 17.31 10.7799C17.2406 10.8477 17.1592 10.902 17.07 10.9399C16.9817 10.9787 16.8864 10.9992 16.79 10.9999Z" fill="white"/>
<path d="M10.4 17C10.2886 17.0006 10.1785 16.9763 10.0776 16.9291C9.9768 16.8818 9.88776 16.8126 9.81698 16.7266C9.7462 16.6406 9.69546 16.5399 9.66845 16.4319C9.64144 16.3238 9.63883 16.2111 9.66082 16.1019C9.68281 15.9927 9.72884 15.8898 9.79557 15.8007C9.8623 15.7115 9.94805 15.6383 10.0466 15.5864C10.1452 15.5345 10.254 15.5052 10.3653 15.5006C10.4766 15.4961 10.5875 15.5163 10.69 15.56C10.7792 15.5979 10.8606 15.6522 10.93 15.72C11.0704 15.8606 11.1493 16.0512 11.1493 16.25C11.1493 16.4487 11.0704 16.6394 10.93 16.78C10.8606 16.8478 10.7792 16.902 10.69 16.94C10.5985 16.9799 10.4998 17.0003 10.4 17Z" fill="white"/>
<path d="M16.79 17C16.5911 16.9998 16.4005 16.9207 16.26 16.78C16.186 16.7138 16.1279 16.6318 16.09 16.54C16.0501 16.4485 16.0297 16.3498 16.03 16.25C16.0346 16.1038 16.0813 15.9621 16.1644 15.8418C16.2476 15.7214 16.3637 15.6277 16.4988 15.5717C16.634 15.5158 16.7824 15.5 16.9263 15.5263C17.0701 15.5526 17.2034 15.6199 17.31 15.72C17.4507 15.8605 17.5298 16.0512 17.53 16.25C17.5337 16.3491 17.5167 16.4479 17.48 16.54C17.4421 16.6318 17.384 16.7138 17.31 16.78C17.2434 16.8512 17.1613 16.906 17.07 16.94C16.9821 16.98 16.8865 17.0004 16.79 17Z" fill="white"/>
<path d="M18.63 22.09H8.62998C7.63623 22.0874 6.68393 21.6915 5.98124 20.9888C5.27855 20.2861 4.88262 19.3338 4.87998 18.34V8.34004C4.86928 7.34623 5.25249 6.3886 5.94583 5.67653C6.63917 4.96445 7.58624 4.55584 8.57998 4.54004H18.58C19.5737 4.54268 20.526 4.93861 21.2287 5.6413C21.9314 6.34399 22.3273 7.29629 22.33 8.29004V18.34C22.3275 19.3252 21.9384 20.2701 21.2465 20.9713C20.5546 21.6726 19.615 22.0743 18.63 22.09ZM8.57998 6.00004C8.28111 5.99999 7.98522 6.05949 7.7096 6.17505C7.43398 6.29062 7.18414 6.45994 6.97468 6.67313C6.76521 6.88631 6.60032 7.1391 6.48963 7.41671C6.37894 7.69433 6.32467 7.99122 6.32998 8.29004V18.34C6.32998 18.9368 6.56703 19.5091 6.98899 19.931C7.41095 20.353 7.98324 20.59 8.57998 20.59H18.58C19.1767 20.59 19.749 20.353 20.171 19.931C20.5929 19.5091 20.83 18.9368 20.83 18.34V8.34004C20.842 8.04124 20.7944 7.74305 20.6898 7.46288C20.5853 7.18271 20.4259 6.9262 20.2211 6.70833C20.0162 6.49046 19.77 6.31561 19.4968 6.19399C19.2236 6.07238 18.9289 6.00644 18.63 6.00004H8.57998Z" fill="white"/>
<path d="M5.60999 19.4499H5.36999C4.37624 19.4473 3.42395 19.0514 2.72126 18.3487C2.01857 17.646 1.62263 16.6937 1.61999 15.6999V5.69994C1.61604 5.20449 1.71004 4.71315 1.8966 4.25415C2.08316 3.79515 2.3586 3.37755 2.70708 3.02535C3.05557 2.67315 3.47022 2.3933 3.92722 2.20188C4.38421 2.01046 4.87453 1.91124 5.36999 1.90994H15.37C16.2873 1.90629 17.1739 2.24082 17.8601 2.84959C18.5464 3.45837 18.9842 4.29869 19.09 5.20994C19.1081 5.40528 19.049 5.59994 18.9253 5.75219C18.8016 5.90444 18.6231 6.00216 18.4282 6.0244C18.2333 6.04664 18.0374 5.99162 17.8826 5.87115C17.7278 5.75068 17.6263 5.57434 17.6 5.37994C17.5407 4.8301 17.2802 4.3216 16.8685 3.95236C16.4568 3.58312 15.923 3.37923 15.37 3.37994H5.36999C5.07198 3.37992 4.77693 3.43909 4.50197 3.55404C4.22701 3.66898 3.97763 3.8374 3.7683 4.04952C3.55897 4.26164 3.39387 4.51323 3.28258 4.78969C3.17128 5.06614 3.11602 5.36195 3.11999 5.65994V15.6599C3.10786 15.9629 3.15709 16.2652 3.26472 16.5486C3.37235 16.8321 3.53617 17.0909 3.74632 17.3094C3.95647 17.528 4.20863 17.7018 4.48765 17.8205C4.76667 17.9391 5.06679 18.0002 5.36999 17.9999H5.60999C5.80891 17.9999 5.99967 18.079 6.14032 18.2196C6.28098 18.3603 6.35999 18.551 6.35999 18.7499C6.35999 18.9489 6.28098 19.1396 6.14032 19.2803C5.99967 19.4209 5.80891 19.4999 5.60999 19.4999V19.4499Z" fill="white"/>
</svg>
