<svg width="24" height="24" viewBox="0 0 24 24" fill="none" xmlns="http://www.w3.org/2000/svg">
<path d="M6.94 11.61C6.16074 11.61 5.39898 11.3789 4.75106 10.946C4.10313 10.513 3.59813 9.8977 3.29992 9.17775C3.00171 8.45781 2.92368 7.66561 3.07571 6.90133C3.22773 6.13704 3.60298 5.435 4.154 4.88398C4.70502 4.33296 5.40706 3.95771 6.17135 3.80569C6.93563 3.65366 7.72783 3.73169 8.44777 4.0299C9.16772 4.32811 9.78306 4.83311 10.216 5.48104C10.6489 6.12897 10.88 6.89072 10.88 7.66998C10.88 8.71494 10.4649 9.71709 9.726 10.456C8.98711 11.1949 7.98495 11.61 6.94 11.61ZM6.94 5.23998C6.45699 5.23999 5.98485 5.38335 5.58338 5.6519C5.18191 5.92046 4.86918 6.30212 4.68479 6.74856C4.50041 7.19499 4.45268 7.68611 4.54764 8.15969C4.6426 8.63328 4.87599 9.06802 5.21823 9.40886C5.56047 9.7497 5.99617 9.9813 6.47014 10.0743C6.94411 10.1673 7.43503 10.1176 7.8807 9.93137C8.32637 9.74515 8.70675 9.43086 8.97366 9.02829C9.24056 8.62572 9.38198 8.15299 9.38 7.66998C9.38 7.35003 9.31682 7.03322 9.19408 6.73775C9.07133 6.44227 8.89145 6.17395 8.66474 5.94817C8.43803 5.72239 8.16897 5.54361 7.87299 5.42208C7.57702 5.30055 7.25995 5.23867 6.94 5.23998Z" fill="white"/>
<path d="M17.06 11.51C16.2803 11.51 15.5182 11.2787 14.87 10.8453C14.2219 10.4119 13.7169 9.79598 13.419 9.07546C13.1211 8.35494 13.0436 7.56222 13.1965 6.79767C13.3493 6.03311 13.7255 5.33109 14.2776 4.78047C14.8296 4.22985 15.5326 3.85539 16.2975 3.7045C17.0625 3.5536 17.855 3.63306 18.5747 3.9328C19.2945 4.23254 19.9091 4.7391 20.3409 5.38834C20.7726 6.03759 21.002 6.80033 21 7.58001C20.9974 8.62323 20.5811 9.62281 19.8425 10.3595C19.1039 11.0963 18.1032 11.51 17.06 11.51ZM17.06 5.14001C16.577 5.13803 16.1043 5.27945 15.7017 5.54635C15.2991 5.81325 14.9848 6.19364 14.7986 6.63931C14.6124 7.08498 14.5627 7.5759 14.6557 8.04987C14.7487 8.52384 14.9803 8.95954 15.3211 9.30178C15.662 9.64402 16.0967 9.8774 16.5703 9.97237C17.0439 10.0673 17.535 10.0196 17.9814 9.83521C18.4279 9.65083 18.8095 9.3381 19.0781 8.93663C19.3467 8.53516 19.49 8.06302 19.49 7.58001C19.49 6.93461 19.2343 6.31549 18.7789 5.85819C18.3235 5.40089 17.7054 5.14265 17.06 5.14001Z" fill="white"/>
<path d="M6.94 21.62C6.16074 21.62 5.39898 21.3889 4.75106 20.956C4.10313 20.523 3.59813 19.9077 3.29992 19.1878C3.00171 18.4678 2.92368 17.6756 3.07571 16.9113C3.22773 16.1471 3.60298 15.445 4.154 14.894C4.70502 14.343 5.40706 13.9677 6.17135 13.8157C6.93563 13.6637 7.72783 13.7417 8.44777 14.0399C9.16772 14.3381 9.78306 14.8431 10.216 15.491C10.6489 16.139 10.88 16.9007 10.88 17.68C10.88 18.7249 10.4649 19.7271 9.726 20.466C8.98711 21.2049 7.98495 21.62 6.94 21.62ZM6.94 15.25C6.45699 15.25 5.98485 15.3934 5.58338 15.6619C5.18191 15.9305 4.86918 16.3121 4.68479 16.7586C4.50041 17.205 4.45268 17.6961 4.54764 18.1697C4.6426 18.6433 4.87599 19.078 5.21823 19.4189C5.56047 19.7597 5.99617 19.9913 6.47014 20.0843C6.94411 20.1773 7.43503 20.1276 7.8807 19.9414C8.32637 19.7552 8.70675 19.4409 8.97366 19.0383C9.24056 18.6357 9.38198 18.163 9.38 17.68C9.38 17.36 9.31682 17.0432 9.19408 16.7478C9.07133 16.4523 8.89145 16.184 8.66474 15.9582C8.43803 15.7324 8.16897 15.5536 7.87299 15.4321C7.57702 15.3106 7.25995 15.2487 6.94 15.25Z" fill="white"/>
<path d="M17.06 21.52C16.2803 21.52 15.5182 21.2887 14.87 20.8553C14.2219 20.4219 13.7169 19.806 13.419 19.0855C13.1211 18.3649 13.0436 17.5722 13.1965 16.8077C13.3493 16.0431 13.7255 15.3411 14.2776 14.7905C14.8296 14.2399 15.5326 13.8654 16.2975 13.7145C17.0625 13.5636 17.855 13.6431 18.5747 13.9428C19.2945 14.2426 19.9091 14.7491 20.3409 15.3984C20.7726 16.0476 21.002 16.8103 21 17.59C20.9974 18.6332 20.5811 19.6328 19.8425 20.3696C19.1039 21.1063 18.1032 21.52 17.06 21.52ZM17.06 15.15C16.577 15.148 16.1043 15.2895 15.7017 15.5564C15.2991 15.8233 14.9848 16.2036 14.7986 16.6493C14.6124 17.095 14.5627 17.5859 14.6557 18.0599C14.7487 18.5338 14.9803 18.9695 15.3211 19.3118C15.662 19.654 16.0967 19.8874 16.5703 19.9824C17.0439 20.0773 17.535 20.0296 17.9814 19.8452C18.4279 19.6608 18.8095 19.3481 19.0781 18.9466C19.3467 18.5452 19.49 18.073 19.49 17.59C19.49 16.9446 19.2343 16.3255 18.7789 15.8682C18.3235 15.4109 17.7054 15.1527 17.06 15.15Z" fill="white"/>
</svg>
