<svg width="24" height="24" viewBox="0 0 24 24" fill="none" xmlns="http://www.w3.org/2000/svg">
<path d="M15.33 19.4201H1.99999C1.88015 19.4194 1.76221 19.3899 1.65608 19.3343C1.54995 19.2786 1.4587 19.1983 1.38999 19.1001C1.32042 19.0048 1.27499 18.8941 1.25757 18.7774C1.24015 18.6607 1.25128 18.5415 1.28999 18.4301L5.72999 5.10008C5.77846 4.94965 5.8732 4.81838 6.00071 4.72499C6.12821 4.63161 6.28195 4.58089 6.43999 4.58008H19.78C19.8998 4.5808 20.0178 4.61023 20.1239 4.6659C20.23 4.72158 20.3213 4.80188 20.39 4.90008C20.4596 4.99536 20.505 5.10609 20.5224 5.22278C20.5398 5.33946 20.5287 5.45863 20.49 5.57008L16 18.9001C15.9551 19.045 15.8667 19.1726 15.7469 19.2656C15.627 19.3586 15.4815 19.4125 15.33 19.4201ZM2.99999 17.9201H14.79L18.74 6.08008H6.99999L2.99999 17.9201Z" fill="white"/>
<path d="M22 19.4202H11.81C11.6111 19.4202 11.4203 19.3411 11.2797 19.2005C11.139 19.0598 11.06 18.8691 11.06 18.6702C11.06 18.4713 11.139 18.2805 11.2797 18.1398C11.4203 17.9992 11.6111 17.9202 11.81 17.9202H22C22.1989 17.9202 22.3897 17.9992 22.5303 18.1398C22.671 18.2805 22.75 18.4713 22.75 18.6702C22.75 18.8691 22.671 19.0598 22.5303 19.2005C22.3897 19.3411 22.1989 19.4202 22 19.4202Z" fill="white"/>
<path d="M10.89 14.22C12.1161 14.22 13.11 13.2261 13.11 12C13.11 10.774 12.1161 9.78003 10.89 9.78003C9.66391 9.78003 8.66998 10.774 8.66998 12C8.66998 13.2261 9.66391 14.22 10.89 14.22Z" fill="white"/>
</svg>
