<svg width="24" height="24" viewBox="0 0 24 24" fill="none" xmlns="http://www.w3.org/2000/svg">
<path d="M3.16999 20.3799C3.02135 20.3788 2.8764 20.3335 2.75355 20.2498C2.6307 20.1661 2.53548 20.0478 2.47999 19.9099C2.42036 19.7748 2.40373 19.6246 2.43235 19.4797C2.46097 19.3348 2.53346 19.2022 2.63999 19.0999L17.89 3.83995C18.0306 3.69949 18.2212 3.62061 18.42 3.62061C18.6187 3.62061 18.8094 3.69949 18.95 3.83995L21.36 6.24995C21.5004 6.39057 21.5793 6.58119 21.5793 6.77995C21.5793 6.9787 21.5004 7.16932 21.36 7.30995L17.45 11.2199L19.62 13.3899C19.75 13.5212 19.8271 13.6958 19.8363 13.8804C19.8455 14.0649 19.7863 14.2464 19.67 14.3899C19.47 14.6299 14.65 20.3799 3.16999 20.3799ZM18.42 5.43995L4.99999 18.8199C12.59 18.3599 16.68 15.1599 18 13.9199L15.83 11.7499C15.6895 11.6093 15.6106 11.4187 15.6106 11.2199C15.6106 11.0212 15.6895 10.8306 15.83 10.6899L19.74 6.77995L18.42 5.43995Z" fill="white"/>
</svg>
