<svg width="24" height="24" viewBox="0 0 24 24" fill="none" xmlns="http://www.w3.org/2000/svg">
<path d="M12.25 12.25C11.1128 12.25 10.0011 11.9128 9.05547 11.281C8.10989 10.6491 7.3729 9.75111 6.9377 8.70043C6.50249 7.64976 6.38862 6.49362 6.61049 5.37823C6.83235 4.26284 7.37999 3.23829 8.18414 2.43414C8.98829 1.62999 10.0128 1.08235 11.1282 0.860487C12.2436 0.638622 13.3998 0.752491 14.4504 1.1877C15.5011 1.6229 16.3991 2.35989 17.031 3.30547C17.6628 4.25106 18 5.36276 18 6.5C17.9974 8.02419 17.3907 9.48518 16.3129 10.5629C15.2352 11.6407 13.7742 12.2474 12.25 12.25ZM12.25 2.25C11.4094 2.25 10.5877 2.49926 9.88883 2.96626C9.18992 3.43325 8.64519 4.09701 8.32351 4.8736C8.00184 5.65018 7.91768 6.50472 8.08166 7.32914C8.24565 8.15356 8.65043 8.91083 9.2448 9.50521C9.83917 10.0996 10.5964 10.5044 11.4209 10.6683C12.2453 10.8323 13.0998 10.7482 13.8764 10.4265C14.653 10.1048 15.3168 9.56009 15.7837 8.86118C16.2507 8.16227 16.5 7.34057 16.5 6.5C16.4974 5.37364 16.0487 4.29417 15.2523 3.49772C14.4558 2.70126 13.3764 2.25264 12.25 2.25Z" fill="white"/>
<path d="M3.25 20.25C3.05189 20.2474 2.86263 20.1676 2.72253 20.0275C2.58244 19.8874 2.50259 19.6981 2.5 19.5C2.50528 17.181 3.42885 14.9585 5.06865 13.3187C6.70845 11.6789 8.93098 10.7553 11.25 10.75H13.25C13.4489 10.75 13.6397 10.829 13.7803 10.9697C13.921 11.1103 14 11.3011 14 11.5C14 11.6989 13.921 11.8897 13.7803 12.0303C13.6397 12.171 13.4489 12.25 13.25 12.25H11.25C9.32799 12.2526 7.48546 13.0173 6.1264 14.3764C4.76733 15.7355 4.00265 17.578 4 19.5C3.99741 19.6981 3.91756 19.8874 3.77747 20.0275C3.63737 20.1676 3.44811 20.2474 3.25 20.25Z" fill="white"/>
<path d="M16.75 23.25C16.5519 23.2474 16.3626 23.1676 16.2225 23.0275C16.0824 22.8874 16.0026 22.6981 16 22.5V14.5C16 14.3011 16.079 14.1103 16.2197 13.9697C16.3603 13.829 16.5511 13.75 16.75 13.75C16.9489 13.75 17.1397 13.829 17.2803 13.9697C17.421 14.1103 17.5 14.3011 17.5 14.5V22.5C17.4974 22.6981 17.4176 22.8874 17.2775 23.0275C17.1374 23.1676 16.9481 23.2474 16.75 23.25Z" fill="white"/>
<path d="M20.75 19.25H12.75C12.5511 19.25 12.3603 19.171 12.2197 19.0303C12.079 18.8897 12 18.6989 12 18.5C12 18.3011 12.079 18.1103 12.2197 17.9697C12.3603 17.829 12.5511 17.75 12.75 17.75H20.75C20.9489 17.75 21.1397 17.829 21.2803 17.9697C21.421 18.1103 21.5 18.3011 21.5 18.5C21.5 18.6989 21.421 18.8897 21.2803 19.0303C21.1397 19.171 20.9489 19.25 20.75 19.25Z" fill="white"/>
</svg>
