<svg width="24" height="24" viewBox="0 0 24 24" fill="none" xmlns="http://www.w3.org/2000/svg">
<path d="M12.14 21.7C12.0097 21.7023 11.8814 21.6676 11.77 21.6L4 17.12C3.88498 17.0547 3.78925 16.9603 3.72252 16.8461C3.65578 16.732 3.62042 16.6022 3.62 16.47V7.52998C3.62042 7.39775 3.65578 7.26799 3.72252 7.15384C3.78925 7.03969 3.88498 6.94521 4 6.87998L11.77 2.39998C11.8846 2.33605 12.0137 2.30249 12.145 2.30249C12.2763 2.30249 12.4053 2.33605 12.52 2.39998L20.27 6.87998C20.3838 6.94569 20.4781 7.04055 20.5432 7.15479C20.6082 7.26903 20.6416 7.39853 20.64 7.52998V16.47C20.6416 16.6014 20.6082 16.7309 20.5432 16.8452C20.4781 16.9594 20.3838 17.0543 20.27 17.12L12.52 21.6C12.4045 21.6665 12.2733 21.701 12.14 21.7ZM5.14 16L12.14 20L19.14 16V7.99998L12.14 3.99998L5.14 7.99998V16Z" fill="white"/>
<path d="M12.14 16.1801C11.9411 16.1801 11.7503 16.1011 11.6097 15.9604C11.469 15.8197 11.39 15.629 11.39 15.4301V8.73007C11.3905 8.58002 11.4354 8.43349 11.519 8.30892C11.6027 8.18435 11.7213 8.08732 11.86 8.03007C11.9961 7.97584 12.1449 7.9621 12.2886 7.99048C12.4323 8.01887 12.5648 8.08818 12.67 8.19007L15.41 10.9401C15.4808 11.009 15.537 11.0914 15.5754 11.1825C15.6138 11.2735 15.6336 11.3713 15.6336 11.4701C15.6336 11.5689 15.6138 11.6667 15.5754 11.7577C15.537 11.8487 15.4808 11.9311 15.41 12.0001C15.2694 12.1405 15.0788 12.2194 14.88 12.2194C14.6813 12.2194 14.4906 12.1405 14.35 12.0001L12.89 10.5401V15.4301C12.8914 15.5289 12.8729 15.6271 12.8357 15.7187C12.7985 15.8103 12.7433 15.8935 12.6733 15.9634C12.6034 16.0333 12.5202 16.0885 12.4286 16.1257C12.337 16.1629 12.2389 16.1814 12.14 16.1801Z" fill="white"/>
<path d="M9.39997 12.22C9.20198 12.2157 9.01282 12.1372 8.86998 12C8.72952 11.8594 8.65063 11.6688 8.65063 11.47C8.65063 11.2713 8.72952 11.0806 8.86998 10.94L11.61 8.19C11.6802 8.1204 11.7635 8.06532 11.8551 8.0279C11.9466 7.99049 12.0446 7.97147 12.1435 7.97193C12.2424 7.9724 12.3402 7.99233 12.4314 8.03061C12.5226 8.06888 12.6054 8.12474 12.675 8.195C12.7446 8.26526 12.7997 8.34854 12.8371 8.44008C12.8745 8.53162 12.8935 8.62964 12.893 8.72854C12.8926 8.82743 12.8726 8.92527 12.8344 9.01645C12.7961 9.10764 12.7402 9.1904 12.67 9.26L9.92998 12C9.78946 12.1407 9.59882 12.2198 9.39997 12.22Z" fill="white"/>
</svg>
