<svg width="24" height="24" viewBox="0 0 24 24" fill="none" xmlns="http://www.w3.org/2000/svg">
<path d="M7.59001 12.8699C7.39116 12.8697 7.20052 12.7906 7.06001 12.6499C6.99222 12.5805 6.93796 12.4991 6.90001 12.4099C6.83317 12.2699 6.81136 12.1127 6.83758 11.9598C6.86381 11.807 6.93678 11.666 7.04645 11.5563C7.15612 11.4467 7.29709 11.3737 7.44996 11.3475C7.60282 11.3212 7.76005 11.3431 7.90001 11.4099C8.08105 11.485 8.22491 11.6288 8.30001 11.8099C8.33988 11.9014 8.36032 12.0001 8.36001 12.0999C8.35948 12.1996 8.33908 12.2982 8.30001 12.3899C8.26595 12.4812 8.21118 12.5633 8.14001 12.6299C8.06979 12.7056 7.9847 12.766 7.89006 12.8073C7.79541 12.8486 7.69327 12.8699 7.59001 12.8699Z" fill="white"/>
<path d="M12 12.74C11.9002 12.7404 11.8015 12.7199 11.71 12.68C11.6207 12.6421 11.5394 12.5878 11.47 12.52C11.3311 12.3783 11.2523 12.1885 11.25 11.99C11.2512 11.8913 11.268 11.7934 11.3 11.7C11.3858 11.5205 11.5305 11.3758 11.71 11.29C11.8025 11.2507 11.9019 11.2302 12.0024 11.2295C12.1029 11.2289 12.2026 11.2482 12.2956 11.2863C12.3886 11.3244 12.4731 11.3806 12.5442 11.4517C12.6154 11.5227 12.6717 11.6071 12.71 11.7C12.7499 11.7915 12.7703 11.8903 12.77 11.99C12.77 12.189 12.691 12.3797 12.5503 12.5204C12.4097 12.661 12.2189 12.74 12.02 12.74H12Z" fill="white"/>
<path d="M12.11 8.35C12.014 8.36516 11.9161 8.36516 11.82 8.35C11.7289 8.31097 11.6471 8.25302 11.58 8.18C11.5092 8.11104 11.4516 8.0297 11.41 7.94C11.3781 7.8466 11.3612 7.74871 11.36 7.65C11.3621 7.55464 11.379 7.46018 11.41 7.37C11.4489 7.27586 11.5068 7.19075 11.58 7.12C11.6853 7.01811 11.8177 6.9488 11.9614 6.92041C12.1051 6.89203 12.254 6.90577 12.39 6.96C12.484 6.9945 12.5694 7.04904 12.6402 7.11984C12.711 7.19064 12.7655 7.276 12.8 7.37C12.8201 7.46226 12.8201 7.55774 12.8 7.65C12.803 7.74798 12.7858 7.84553 12.7497 7.93667C12.7136 8.0278 12.6593 8.11061 12.59 8.18C12.5175 8.25115 12.4329 8.30873 12.34 8.35C12.2637 8.35962 12.1864 8.35962 12.11 8.35Z" fill="white"/>
<path d="M11.84 17.11C11.6908 17.1116 11.5445 17.0687 11.4198 16.9868C11.2951 16.9048 11.1977 16.7876 11.14 16.65C11.1001 16.5585 11.0797 16.4597 11.08 16.36C11.0805 16.2603 11.1009 16.1617 11.14 16.07C11.178 15.9807 11.2322 15.8993 11.3 15.83C11.4054 15.725 11.5397 15.6537 11.6857 15.6252C11.8317 15.5967 11.9829 15.6123 12.12 15.67C12.2093 15.7079 12.2907 15.7622 12.36 15.83C12.4309 15.8989 12.4885 15.9803 12.53 16.07C12.5643 16.1631 12.5845 16.2609 12.59 16.36C12.5855 16.4592 12.5652 16.5571 12.53 16.65C12.4885 16.7397 12.4309 16.821 12.36 16.89C12.2226 17.0291 12.0356 17.1082 11.84 17.11Z" fill="white"/>
<path d="M16.35 12.6C16.2503 12.6003 16.1515 12.5799 16.06 12.54C15.9708 12.5021 15.8894 12.4478 15.82 12.38C15.6829 12.2372 15.6043 12.048 15.6 11.85C15.5997 11.7503 15.6202 11.6515 15.66 11.56C15.6964 11.467 15.7508 11.382 15.82 11.31C15.8919 11.2454 15.9727 11.1915 16.06 11.15C16.198 11.0974 16.348 11.0845 16.4929 11.1128C16.6379 11.141 16.772 11.2094 16.88 11.31C16.9481 11.3829 17.0024 11.4677 17.04 11.56C17.0799 11.6515 17.1004 11.7503 17.1 11.85C17.0993 11.9465 17.0788 12.0417 17.04 12.13C17.0024 12.2224 16.9481 12.3071 16.88 12.38C16.7395 12.5207 16.5489 12.5999 16.35 12.6Z" fill="white"/>
<path d="M12 22.84C11.5076 22.8401 11.0201 22.743 10.5653 22.5542C10.1106 22.3655 9.69758 22.0888 9.35002 21.74L2.25002 14.64C1.54777 13.9369 1.15332 12.9838 1.15332 11.99C1.15332 10.9963 1.54777 10.0431 2.25002 9.34001L9.35002 2.24001C10.0531 1.53776 11.0063 1.14331 12 1.14331C12.9938 1.14331 13.9469 1.53776 14.65 2.24001L21.75 9.34001C22.0989 9.6875 22.3758 10.1005 22.5647 10.5552C22.7536 11.01 22.8509 11.4976 22.8509 11.99C22.8509 12.4824 22.7536 12.97 22.5647 13.4248C22.3758 13.8795 22.0989 14.2925 21.75 14.64L14.65 21.74C14.3025 22.0888 13.8895 22.3655 13.4347 22.5542C12.9799 22.743 12.4924 22.8401 12 22.84ZM12 2.64001C11.7045 2.63917 11.4117 2.69709 11.1388 2.81039C10.8658 2.9237 10.6181 3.09013 10.41 3.30001L3.31002 10.4C2.88867 10.8219 2.652 11.3938 2.652 11.99C2.652 12.5863 2.88867 13.1581 3.31002 13.58L10.41 20.68C10.8319 21.1014 11.4038 21.338 12 21.338C12.5963 21.338 13.1681 21.1014 13.59 20.68L20.69 13.58C21.1114 13.1581 21.348 12.5863 21.348 11.99C21.348 11.3938 21.1114 10.8219 20.69 10.4L13.59 3.30001C13.382 3.09013 13.1342 2.9237 12.8613 2.81039C12.5883 2.69709 12.2956 2.63917 12 2.64001Z" fill="white"/>
</svg>
