<svg width="24" height="24" viewBox="0 0 24 24" fill="none" xmlns="http://www.w3.org/2000/svg">
<path d="M17.66 22H6.34002C5.24468 22 4.1942 21.5648 3.41967 20.7903C2.64515 20.0158 2.21002 18.9653 2.21002 17.87V6.58996C2.21002 5.49462 2.64515 4.44413 3.41967 3.66961C4.1942 2.89508 5.24468 2.45996 6.34002 2.45996H17.66C18.7554 2.45996 19.8058 2.89508 20.5804 3.66961C21.3549 4.44413 21.79 5.49462 21.79 6.58996V17.91C21.7795 18.9984 21.3397 20.0386 20.5663 20.8045C19.7929 21.5704 18.7485 22 17.66 22ZM6.34002 3.99996C5.64938 3.99988 4.98642 4.27147 4.49433 4.75607C4.00224 5.24068 3.72053 5.8994 3.71002 6.58996V17.91C3.71002 18.6075 3.98711 19.2764 4.48033 19.7697C4.97355 20.2629 5.6425 20.54 6.34002 20.54H17.66C18.3575 20.54 19.0265 20.2629 19.5197 19.7697C20.0129 19.2764 20.29 18.6075 20.29 17.91V6.58996C20.2795 5.8994 19.9978 5.24068 19.5057 4.75607C19.0136 4.27147 18.3507 3.99988 17.66 3.99996H6.34002Z" fill="white"/>
<path d="M9 16.4699C8.80189 16.4673 8.61263 16.3875 8.47253 16.2474C8.33244 16.1073 8.25259 15.918 8.25 15.7199V8.77991C8.25 8.58099 8.32902 8.39023 8.46967 8.24958C8.61032 8.10893 8.80109 8.02991 9 8.02991C9.19891 8.02991 9.38968 8.10893 9.53033 8.24958C9.67098 8.39023 9.75 8.58099 9.75 8.77991V15.7199C9.74741 15.918 9.66756 16.1073 9.52747 16.2474C9.38737 16.3875 9.19811 16.4673 9 16.4699Z" fill="white"/>
<path d="M15 16.4699C14.8011 16.4699 14.6103 16.3909 14.4697 16.2502C14.329 16.1096 14.25 15.9188 14.25 15.7199V8.77991C14.25 8.58099 14.329 8.39023 14.4697 8.24958C14.6103 8.10893 14.8011 8.02991 15 8.02991C15.1989 8.02991 15.3897 8.10893 15.5303 8.24958C15.671 8.39023 15.75 8.58099 15.75 8.77991V15.7199C15.7474 15.918 15.6676 16.1073 15.5275 16.2474C15.3874 16.3875 15.1981 16.4673 15 16.4699Z" fill="white"/>
</svg>
