<svg width="24" height="24" viewBox="0 0 24 24" fill="none" xmlns="http://www.w3.org/2000/svg">
<path d="M11.82 11.8301C11.1258 11.8301 10.4472 11.6242 9.86995 11.2385C9.29273 10.8528 8.84285 10.3046 8.57718 9.66328C8.31152 9.02191 8.24201 8.31617 8.37744 7.63529C8.51288 6.95442 8.84717 6.329 9.33806 5.83812C9.82894 5.34723 10.4544 5.01294 11.1352 4.8775C11.8161 4.74207 12.5218 4.81158 13.1632 5.07724C13.8046 5.34291 14.3528 5.79279 14.7385 6.37001C15.1241 6.94723 15.33 7.62585 15.33 8.32006C15.3274 9.25016 14.9567 10.1414 14.299 10.7991C13.6413 11.4568 12.7501 11.8274 11.82 11.8301ZM11.82 6.31006C11.4244 6.31006 11.0378 6.42736 10.7089 6.64712C10.38 6.86688 10.1236 7.17924 9.97224 7.54469C9.82087 7.91015 9.78126 8.31228 9.85843 8.70024C9.9356 9.0882 10.1261 9.44457 10.4058 9.72427C10.6855 10.004 11.0419 10.1945 11.4298 10.2716C11.8178 10.3488 12.2199 10.3092 12.5854 10.1578C12.9508 10.0064 13.2632 9.7501 13.4829 9.4212C13.7027 9.0923 13.82 8.70562 13.82 8.31006C13.82 7.77963 13.6093 7.27092 13.2342 6.89585C12.8591 6.52077 12.3504 6.31006 11.82 6.31006Z" fill="white"/>
<path d="M17.46 10.1901H17.35C17.2524 10.1767 17.1584 10.1439 17.0736 10.0937C16.9888 10.0435 16.9149 9.97681 16.8562 9.89763C16.7975 9.81845 16.7552 9.72835 16.7319 9.63261C16.7085 9.53687 16.7044 9.43743 16.72 9.34011V9.19011V8.95011C16.7288 8.86032 16.7288 8.7699 16.72 8.68011C16.72 8.41011 16.72 8.27011 16.72 8.27011C16.6574 7.02848 16.1184 5.85882 15.2153 5.0045C14.3121 4.15019 13.1143 3.67702 11.8711 3.68346C10.6279 3.6899 9.43509 4.17546 8.54083 5.03908C7.64657 5.90271 7.11975 7.0779 7.07 8.32011C7.07 8.32011 7.07 8.45011 7.07 8.64011C7.0622 8.72994 7.0622 8.82028 7.07 8.91011C7.07 9.02011 7.07 9.10011 7.07 9.19011V9.34011C7.08907 9.53099 7.03428 9.72192 6.91689 9.87363C6.7995 10.0253 6.62844 10.1263 6.43889 10.1558C6.24933 10.1852 6.0557 10.1409 5.89781 10.032C5.73991 9.92307 5.62976 9.75777 5.59 9.57011V9.21011C5.57181 9.03391 5.57181 8.85631 5.59 8.68011V8.39011C5.58606 7.56016 5.74563 6.73755 6.0596 5.96927C6.37357 5.20098 6.83579 4.50206 7.41987 3.91241C8.00395 3.32276 8.69845 2.85392 9.46372 2.53267C10.229 2.21142 11.05 2.04405 11.88 2.04011C12.71 2.03617 13.5326 2.19574 14.3008 2.50971C15.0691 2.82368 15.7681 3.2859 16.3577 3.86998C16.9474 4.45406 17.4162 5.14856 17.7374 5.91383C18.0587 6.6791 18.2261 7.50016 18.23 8.33011C18.23 8.41011 18.23 8.52011 18.23 8.71011C18.2293 8.89173 18.2092 9.07276 18.17 9.25011V9.57011C18.1404 9.73906 18.0538 9.89276 17.9246 10.0056C17.7954 10.1184 17.6314 10.1835 17.46 10.1901Z" fill="white"/>
<path d="M12 22.0002C11.9014 22.0007 11.8038 21.9814 11.7128 21.9437C11.6218 21.9059 11.5392 21.8503 11.47 21.7802C6.09998 16.4102 5.69998 8.6802 5.67998 8.3502C5.67449 8.15195 5.74671 7.95941 5.88124 7.81367C6.01576 7.66794 6.20192 7.58057 6.39998 7.5702C6.49849 7.56618 6.59683 7.58163 6.68936 7.61565C6.7819 7.64967 6.86682 7.7016 6.93927 7.76848C7.01171 7.83535 7.07026 7.91585 7.11157 8.00538C7.15287 8.0949 7.17612 8.19169 7.17998 8.2902C7.17998 8.3602 7.57998 15.7702 12.53 20.7202C12.6704 20.8608 12.7493 21.0515 12.7493 21.2502C12.7493 21.449 12.6704 21.6396 12.53 21.7802C12.4607 21.8503 12.3782 21.9059 12.2872 21.9437C12.1962 21.9814 12.0985 22.0007 12 22.0002Z" fill="white"/>
<path d="M12 22.0002C11.9015 22.0007 11.8038 21.9814 11.7128 21.9437C11.6218 21.9059 11.5393 21.8503 11.47 21.7802C11.3296 21.6396 11.2507 21.449 11.2507 21.2502C11.2507 21.0515 11.3296 20.8608 11.47 20.7202C16.47 15.7202 16.81 8.3602 16.82 8.2902C16.8239 8.19169 16.8471 8.0949 16.8884 8.00538C16.9297 7.91585 16.9883 7.83535 17.0607 7.76848C17.1332 7.7016 17.2181 7.64967 17.3106 7.61565C17.4032 7.58163 17.5015 7.56618 17.6 7.5702C17.7981 7.58057 17.9842 7.66794 18.1188 7.81367C18.2533 7.95941 18.3255 8.15195 18.32 8.3502C18.32 8.6802 17.9 16.4102 12.53 21.7802C12.4608 21.8503 12.3782 21.9059 12.2872 21.9437C12.1962 21.9814 12.0986 22.0007 12 22.0002Z" fill="white"/>
</svg>
