<svg width="24" height="24" viewBox="0 0 24 24" fill="none" xmlns="http://www.w3.org/2000/svg">
<path d="M11.42 13.71C10.6863 13.71 9.96896 13.4925 9.35886 13.0848C8.74875 12.6771 8.27323 12.0977 7.99243 11.4198C7.71163 10.7419 7.63816 9.99592 7.78131 9.27626C7.92446 8.55659 8.2778 7.89553 8.79666 7.37667C9.31551 6.85782 9.97657 6.50448 10.6962 6.36133C11.4159 6.21818 12.1619 6.29165 12.8398 6.57245C13.5177 6.85325 14.0971 7.32877 14.5048 7.93888C14.9124 8.54898 15.13 9.26627 15.13 10C15.13 10.4872 15.0341 10.9697 14.8476 11.4198C14.6612 11.8699 14.3879 12.2789 14.0434 12.6234C13.6989 12.9679 13.2899 13.2412 12.8398 13.4276C12.3897 13.6141 11.9072 13.71 11.42 13.71ZM11.42 7.79004C10.9829 7.79004 10.5556 7.91965 10.1922 8.16249C9.82878 8.40533 9.54552 8.75049 9.37825 9.15431C9.21098 9.55813 9.16721 10.0025 9.25249 10.4312C9.33776 10.8599 9.54824 11.2537 9.85732 11.5627C10.1664 11.8718 10.5602 12.0823 10.9889 12.1676C11.4176 12.2528 11.8619 12.2091 12.2658 12.0418C12.6696 11.8745 13.0147 11.5913 13.2576 11.2279C13.5004 10.8644 13.63 10.4371 13.63 10C13.63 9.41391 13.3972 8.85179 12.9827 8.43733C12.5683 8.02288 12.0062 7.79004 11.42 7.79004Z" fill="white"/>
<path d="M17.33 20.58H5.5C5.30109 20.58 5.11032 20.501 4.96967 20.3603C4.82902 20.2197 4.75 20.0289 4.75 19.83V4C4.75259 3.80189 4.83244 3.61263 4.97253 3.47253C5.11263 3.33244 5.30189 3.25259 5.5 3.25H17.33C17.5289 3.25 17.7197 3.32902 17.8603 3.46967C18.001 3.61032 18.08 3.80109 18.08 4V19.83C18.0813 19.9289 18.0629 20.027 18.0257 20.1186C17.9884 20.2102 17.9332 20.2934 17.8633 20.3633C17.7934 20.4332 17.7102 20.4884 17.6186 20.5257C17.527 20.5629 17.4289 20.5813 17.33 20.58ZM6.25 19.08H16.58V4.75H6.25V19.08Z" fill="white"/>
<path d="M14.38 16.75H8.46002C8.26111 16.75 8.07034 16.671 7.92969 16.5303C7.78904 16.3897 7.71002 16.1989 7.71002 16C7.71002 15.8011 7.78904 15.6103 7.92969 15.4697C8.07034 15.329 8.26111 15.25 8.46002 15.25H14.38C14.5789 15.25 14.7697 15.329 14.9104 15.4697C15.051 15.6103 15.13 15.8011 15.13 16C15.13 16.1989 15.051 16.3897 14.9104 16.5303C14.7697 16.671 14.5789 16.75 14.38 16.75Z" fill="white"/>
</svg>
