<svg width="24" height="24" viewBox="0 0 24 24" fill="none" xmlns="http://www.w3.org/2000/svg">
<path d="M12 15.25C11.8772 15.2516 11.7561 15.2221 11.6477 15.1645C11.5393 15.1068 11.4472 15.0227 11.38 14.92L3.37997 2.92C3.30379 2.80729 3.2597 2.67599 3.25242 2.54014C3.24514 2.4043 3.27494 2.26903 3.33864 2.14882C3.40234 2.02862 3.49753 1.928 3.61403 1.85775C3.73052 1.78749 3.86393 1.75025 3.99997 1.75H20C20.136 1.75025 20.2694 1.78749 20.3859 1.85775C20.5024 1.928 20.5976 2.02862 20.6613 2.14882C20.725 2.26903 20.7548 2.4043 20.7475 2.54014C20.7403 2.67599 20.6962 2.80729 20.62 2.92L12.62 14.92C12.5527 15.0227 12.4606 15.1068 12.3523 15.1645C12.2439 15.2221 12.1227 15.2516 12 15.25ZM5.39997 3.25L12 13.15L18.6 3.25H5.39997Z" fill="white"/>
<path d="M12 22.25C11.8019 22.2474 11.6126 22.1676 11.4725 22.0275C11.3324 21.8874 11.2526 21.6981 11.25 21.5V14.5C11.25 14.3011 11.329 14.1103 11.4697 13.9697C11.6103 13.829 11.8011 13.75 12 13.75C12.1989 13.75 12.3897 13.829 12.5303 13.9697C12.671 14.1103 12.75 14.3011 12.75 14.5V21.5C12.7474 21.6981 12.6676 21.8874 12.5275 22.0275C12.3874 22.1676 12.1981 22.2474 12 22.25Z" fill="white"/>
<path d="M16.31 22.25H7.69C7.49109 22.25 7.30032 22.171 7.15967 22.0303C7.01902 21.8897 6.94 21.6989 6.94 21.5C6.94 21.3011 7.01902 21.1103 7.15967 20.9697C7.30032 20.829 7.49109 20.75 7.69 20.75H16.31C16.5089 20.75 16.6997 20.829 16.8403 20.9697C16.981 21.1103 17.06 21.3011 17.06 21.5C17.06 21.6989 16.981 21.8897 16.8403 22.0303C16.6997 22.171 16.5089 22.25 16.31 22.25Z" fill="white"/>
</svg>
