<svg width="24" height="24" viewBox="0 0 24 24" fill="none" xmlns="http://www.w3.org/2000/svg">
<path d="M18.33 20.74H5.64002C5.35838 20.7376 5.08373 20.652 4.85051 20.4941C4.6173 20.3362 4.43591 20.1129 4.3291 19.8523C4.2223 19.5917 4.19483 19.3054 4.25014 19.0292C4.30545 18.753 4.44108 18.4994 4.64002 18.3L7.26002 15.68V7.99999C7.25995 7.80184 7.33727 7.61151 7.4755 7.46954C7.61373 7.32757 7.80194 7.2452 8.00002 7.23999H16.06C16.2589 7.23999 16.4497 7.31901 16.5903 7.45966C16.731 7.60031 16.81 7.79108 16.81 7.98999V15.74L19.35 18.28C19.5509 18.4802 19.6883 18.7353 19.7448 19.0132C19.8013 19.2912 19.7745 19.5796 19.6676 19.8424C19.5608 20.1051 19.3788 20.3305 19.1444 20.4902C18.91 20.6499 18.6336 20.7368 18.35 20.74H18.33ZM5.81002 19.24H18.19L15.53 16.58C15.3893 16.4395 15.3102 16.2488 15.31 16.05V8.73999H8.75002V16C8.74984 16.1988 8.67071 16.3895 8.53002 16.53L5.81002 19.24Z" fill="white"/>
<path d="M16.06 8.73997C15.9637 8.74098 15.8682 8.72294 15.779 8.6869C15.6898 8.65086 15.6085 8.59753 15.54 8.52997L13.22 6.26997C12.8941 5.94693 12.4538 5.76568 11.995 5.76568C11.5361 5.76568 11.0958 5.94693 10.77 6.26997L8.52997 8.51998C8.38779 8.65246 8.19975 8.72458 8.00545 8.72115C7.81115 8.71772 7.62576 8.63901 7.48835 8.5016C7.35093 8.36418 7.27222 8.1788 7.26879 7.9845C7.26537 7.7902 7.33749 7.60215 7.46997 7.45997L9.70997 5.21997C10.3192 4.62386 11.1376 4.29004 11.99 4.29004C12.8423 4.29004 13.6608 4.62386 14.27 5.21997L16.59 7.47997C16.6982 7.58429 16.7726 7.71873 16.8035 7.86586C16.8344 8.01298 16.8204 8.166 16.7633 8.30506C16.7062 8.44411 16.6085 8.56279 16.4831 8.64569C16.3577 8.7286 16.2103 8.7719 16.06 8.76998V8.73997Z" fill="white"/>
<path d="M4.46003 15.33C4.36117 15.3313 4.26303 15.3129 4.17143 15.2757C4.07983 15.2384 3.99662 15.1832 3.9267 15.1133C3.85679 15.0434 3.80159 14.9602 3.76438 14.8686C3.72716 14.777 3.70868 14.6789 3.71003 14.58V8C3.71003 7.80109 3.78905 7.61032 3.9297 7.46967C4.07035 7.32902 4.26112 7.25 4.46003 7.25C4.65894 7.25 4.84971 7.32902 4.99036 7.46967C5.13101 7.61032 5.21003 7.80109 5.21003 8V14.54C5.21547 14.6418 5.20009 14.7436 5.16484 14.8393C5.12959 14.935 5.07521 15.0224 5.00502 15.0964C4.93483 15.1703 4.85029 15.2292 4.75659 15.2693C4.66289 15.3095 4.56198 15.3301 4.46003 15.33Z" fill="white"/>
<path d="M19.54 15.33C19.3411 15.33 19.1504 15.251 19.0097 15.1103C18.8691 14.9697 18.79 14.7789 18.79 14.58V8C18.79 7.80109 18.8691 7.61032 19.0097 7.46967C19.1504 7.32902 19.3411 7.25 19.54 7.25C19.739 7.25 19.9297 7.32902 20.0704 7.46967C20.211 7.61032 20.29 7.80109 20.29 8V14.54C20.297 14.6421 20.2826 14.7446 20.2479 14.8409C20.2132 14.9373 20.1589 15.0253 20.0884 15.0996C20.0179 15.1738 19.9328 15.2327 19.8384 15.2723C19.744 15.312 19.6424 15.3316 19.54 15.33Z" fill="white"/>
</svg>
