<svg width="24" height="24" viewBox="0 0 24 24" fill="none" xmlns="http://www.w3.org/2000/svg">
<path d="M2.19 15.56C1.9919 15.5574 1.80263 15.4776 1.66254 15.3375C1.52244 15.1974 1.44259 15.0081 1.44 14.81V11.52C1.44 11.3211 1.51902 11.1303 1.65967 10.9897C1.80032 10.849 1.99109 10.77 2.19 10.77C2.38891 10.77 2.57968 10.849 2.72033 10.9897C2.86098 11.1303 2.94 11.3211 2.94 11.52V14.81C2.94 15.0089 2.86098 15.1997 2.72033 15.3403C2.57968 15.481 2.38891 15.56 2.19 15.56Z" fill="white"/>
<path d="M12 16.9999C6.08 16.9999 1.44 14.0899 1.44 10.3499C1.44 6.60994 6.08 3.68994 12 3.68994C17.92 3.68994 22.55 6.60994 22.55 10.3499C22.55 14.0899 17.92 16.9999 12 16.9999ZM12 5.18994C7.09 5.18994 2.94 7.54994 2.94 10.3499C2.94 13.1499 7.09 15.5199 12 15.5199C16.91 15.5199 21.05 13.1499 21.05 10.3499C21.05 7.54994 16.91 5.18994 12 5.18994Z" fill="white"/>
<path d="M12 20.3199C6.09001 20.3199 1.45001 17.3899 1.45001 13.6499C1.45001 13.451 1.52903 13.2602 1.66968 13.1196C1.81033 12.9789 2.0011 12.8999 2.20001 12.8999C2.39892 12.8999 2.58969 12.9789 2.73034 13.1196C2.87099 13.2602 2.95001 13.451 2.95001 13.6499C2.95001 16.4499 7.10001 18.8199 12 18.8199C16.9 18.8199 20.94 16.5499 21.07 13.7699V13.6499C21.07 13.451 21.149 13.2602 21.2897 13.1196C21.4303 12.9789 21.6211 12.8999 21.82 12.8999C22.0189 12.8999 22.2097 12.9789 22.3503 13.1196C22.491 13.2602 22.57 13.451 22.57 13.6499V13.8099C22.39 17.4699 17.76 20.3199 12 20.3199Z" fill="white"/>
<path d="M21.8 14.5599C21.6019 14.5573 21.4126 14.4774 21.2725 14.3373C21.1324 14.1972 21.0526 14.008 21.05 13.8099V10.3499C21.05 10.1509 21.129 9.96018 21.2697 9.81952C21.4103 9.67887 21.6011 9.59985 21.8 9.59985C21.9989 9.59985 22.1897 9.67887 22.3303 9.81952C22.471 9.96018 22.55 10.1509 22.55 10.3499V13.8099C22.55 13.9083 22.5306 14.0059 22.4929 14.0969C22.4552 14.1879 22.4 14.2705 22.3303 14.3402C22.2607 14.4098 22.178 14.4651 22.087 14.5028C21.996 14.5405 21.8985 14.5599 21.8 14.5599Z" fill="white"/>
</svg>
