<svg width="24" height="24" viewBox="0 0 24 24" fill="none" xmlns="http://www.w3.org/2000/svg">
<path d="M10.25 12.33C10.129 12.3286 10.0097 12.3013 9.90001 12.25L7.44002 11L5.00002 12.25C4.87533 12.3165 4.7344 12.3464 4.59347 12.3363C4.45253 12.3261 4.31732 12.2764 4.20341 12.1928C4.0895 12.1092 4.00153 11.9951 3.94962 11.8637C3.89771 11.7323 3.88398 11.5889 3.91002 11.45L4.38002 8.72001L2.38002 6.78001C2.27697 6.68178 2.20358 6.55658 2.16822 6.41868C2.13286 6.28077 2.13695 6.13571 2.18002 6.00001C2.22367 5.86637 2.30401 5.7477 2.41187 5.65752C2.51973 5.56735 2.65076 5.5093 2.79002 5.49001L5.54002 5.09001L6.76002 2.61001C6.83048 2.49413 6.9296 2.39834 7.04782 2.33186C7.16604 2.26539 7.29939 2.23047 7.43502 2.23047C7.57064 2.23047 7.70399 2.26539 7.82221 2.33186C7.94043 2.39834 8.03955 2.49413 8.11001 2.61001L9.34002 5.10001L12.09 5.50001C12.2282 5.5209 12.3578 5.57998 12.4642 5.67058C12.5706 5.76119 12.6495 5.87972 12.6922 6.0128C12.7348 6.14589 12.7394 6.28823 12.7054 6.42379C12.6715 6.55935 12.6003 6.68273 12.5 6.78001L10.5 8.72001L11 11.45C11.0259 11.5881 11.0124 11.7307 10.9611 11.8616C10.9098 11.9924 10.8228 12.1062 10.71 12.19C10.575 12.2833 10.4142 12.3323 10.25 12.33ZM4.51002 6.76001L5.69002 7.92001C5.77798 8.00356 5.84405 8.10745 5.88241 8.22255C5.92078 8.33764 5.93025 8.46039 5.91002 8.58001L5.63002 10.21L7.09002 9.44001C7.19863 9.38548 7.31848 9.35708 7.44002 9.35708C7.56155 9.35708 7.6814 9.38548 7.79002 9.44001L9.25002 10.21L9.00002 8.58001C8.97978 8.46039 8.98925 8.33764 9.02762 8.22255C9.06598 8.10745 9.13205 8.00356 9.22002 7.92001L10.4 6.76001L8.73001 6.53001C8.61082 6.51105 8.49786 6.46397 8.40048 6.39267C8.3031 6.32137 8.2241 6.22791 8.17002 6.12001L7.44002 4.63001L6.71002 6.12001C6.65498 6.22915 6.57443 6.32341 6.4752 6.39478C6.37597 6.46616 6.26099 6.51255 6.14002 6.53001L4.51002 6.76001Z" fill="white"/>
<path d="M12.33 21.8101C12.1727 21.8083 12.0195 21.7595 11.89 21.6701C11.7763 21.5867 11.688 21.4733 11.635 21.3426C11.582 21.2119 11.5664 21.0691 11.59 20.9301L12.17 17.5901L9.74002 15.2201C9.63751 15.1237 9.56504 14.9997 9.53133 14.8631C9.49762 14.7265 9.50411 14.5831 9.55002 14.4501C9.59292 14.3178 9.67174 14.2 9.7777 14.11C9.88365 14.0199 10.0126 13.9611 10.15 13.9401L13.51 13.4601L15 10.4101C15.0705 10.2942 15.1696 10.1984 15.2878 10.1319C15.406 10.0654 15.5394 10.0305 15.675 10.0305C15.8106 10.0305 15.944 10.0654 16.0622 10.1319C16.1804 10.1984 16.2795 10.2942 16.35 10.4101L17.85 13.4601L21.2 13.9401C21.339 13.9594 21.4698 14.0174 21.5775 14.1074C21.6852 14.1973 21.7655 14.3157 21.8092 14.4491C21.853 14.5824 21.8584 14.7254 21.825 14.8617C21.7915 14.9979 21.7205 15.1221 21.62 15.2201L19.2 17.5901L19.77 20.9301C19.7947 21.0682 19.7806 21.2104 19.7295 21.341C19.6783 21.4716 19.5919 21.5855 19.48 21.6701C19.3622 21.7459 19.2251 21.7862 19.085 21.7862C18.9449 21.7862 18.8078 21.7459 18.69 21.6701L15.69 20.1001L12.69 21.6701C12.5848 21.7482 12.4604 21.7966 12.33 21.8101ZM11.87 15.2101L13.5 16.7901C13.5856 16.8771 13.6493 16.9832 13.6858 17.0997C13.7223 17.2162 13.7306 17.3397 13.71 17.4601L13.33 19.6901L15.33 18.6301C15.4386 18.5755 15.5585 18.5471 15.68 18.5471C15.8016 18.5471 15.9214 18.5755 16.03 18.6301L18.03 19.6901L17.65 17.4601C17.6249 17.3397 17.6311 17.215 17.6678 17.0977C17.7046 16.9804 17.7707 16.8745 17.86 16.7901L19.48 15.2101L17.24 14.8801C17.1197 14.8644 17.0053 14.8187 16.9074 14.747C16.8094 14.6753 16.7312 14.5801 16.68 14.4701L15.68 12.4701L14.68 14.4701C14.6288 14.5801 14.5506 14.6753 14.4527 14.747C14.3548 14.8187 14.2403 14.8644 14.12 14.8801L11.87 15.2101Z" fill="white"/>
</svg>
