<svg width="24" height="24" viewBox="0 0 24 24" fill="none" xmlns="http://www.w3.org/2000/svg">
<path d="M16.21 18.25H7.78998C6.13237 18.25 4.54266 17.5915 3.37056 16.4194C2.19846 15.2473 1.53998 13.6576 1.53998 12C1.53998 10.3424 2.19846 8.75269 3.37056 7.58058C4.54266 6.40848 6.13237 5.75 7.78998 5.75H16.21C17.8676 5.75 19.4573 6.40848 20.6294 7.58058C21.8015 8.75269 22.46 10.3424 22.46 12C22.46 13.6576 21.8015 15.2473 20.6294 16.4194C19.4573 17.5915 17.8676 18.25 16.21 18.25ZM7.78998 7.25C6.5302 7.25 5.32202 7.75045 4.43122 8.64124C3.54042 9.53204 3.03998 10.7402 3.03998 12C3.03998 13.2598 3.54042 14.468 4.43122 15.3588C5.32202 16.2496 6.5302 16.75 7.78998 16.75H16.21C17.4698 16.75 18.6779 16.2496 19.5687 15.3588C20.4595 14.468 20.96 13.2598 20.96 12C20.96 10.7402 20.4595 9.53204 19.5687 8.64124C18.6779 7.75045 17.4698 7.25 16.21 7.25H7.78998Z" fill="white"/>
<path d="M6.69 14.3299C6.49109 14.3299 6.30032 14.2509 6.15967 14.1103C6.01902 13.9696 5.94 13.7788 5.94 13.5799V10.4199C5.94 10.221 6.01902 10.0302 6.15967 9.88959C6.30032 9.74894 6.49109 9.66992 6.69 9.66992C6.88891 9.66992 7.07968 9.74894 7.22033 9.88959C7.36098 10.0302 7.44 10.221 7.44 10.4199V13.5799C7.43741 13.778 7.35756 13.9673 7.21747 14.1074C7.07737 14.2475 6.88811 14.3273 6.69 14.3299Z" fill="white"/>
</svg>
