<svg width="24" height="24" viewBox="0 0 24 24" fill="none" xmlns="http://www.w3.org/2000/svg">
<path d="M20.34 9.35002H3.66C3.03078 9.31001 2.44043 9.03184 2.00898 8.57209C1.57754 8.11233 1.3374 7.50551 1.3374 6.87502C1.3374 6.24453 1.57754 5.63771 2.00898 5.17796C2.44043 4.71821 3.03078 4.44004 3.66 4.40002H20.34C20.9692 4.44004 21.5596 4.71821 21.991 5.17796C22.4225 5.63771 22.6626 6.24453 22.6626 6.87502C22.6626 7.50551 22.4225 8.11233 21.991 8.57209C21.5596 9.03184 20.9692 9.31001 20.34 9.35002ZM3.66 5.90002C3.43907 5.95038 3.24179 6.07427 3.10048 6.25141C2.95917 6.42855 2.88221 6.64843 2.88221 6.87502C2.88221 7.10162 2.95917 7.3215 3.10048 7.49864C3.24179 7.67578 3.43907 7.79967 3.66 7.85002H20.34C20.5609 7.79967 20.7582 7.67578 20.8995 7.49864C21.0408 7.3215 21.1178 7.10162 21.1178 6.87502C21.1178 6.64843 21.0408 6.42855 20.8995 6.25141C20.7582 6.07427 20.5609 5.95038 20.34 5.90002H3.66Z" fill="white"/>
<path d="M19.2899 19.9H4.70995C4.51805 19.8898 4.3374 19.8063 4.20529 19.6667C4.07318 19.5272 3.99967 19.3422 3.99995 19.15V8.60004C3.9986 8.50118 4.01708 8.40305 4.0543 8.31145C4.09151 8.21985 4.14671 8.13663 4.21662 8.06672C4.28653 7.9968 4.36975 7.94161 4.46135 7.90439C4.55295 7.86718 4.65108 7.8487 4.74995 7.85004H19.2899C19.4827 7.85785 19.6648 7.94061 19.7974 8.08071C19.93 8.2208 20.0027 8.40715 19.9999 8.60004V19.15C20.0002 19.3422 19.9267 19.5272 19.7946 19.6667C19.6625 19.8063 19.4818 19.8898 19.2899 19.9ZM5.45995 18.4H18.5399V9.40004H5.45995V18.4Z" fill="white"/>
<path d="M14.77 14.62H9.22998C9.03107 14.62 8.8403 14.541 8.69965 14.4003C8.559 14.2597 8.47998 14.0689 8.47998 13.87C8.47998 13.6711 8.559 13.4803 8.69965 13.3397C8.8403 13.199 9.03107 13.12 9.22998 13.12H14.77C14.9689 13.12 15.1597 13.199 15.3003 13.3397C15.441 13.4803 15.52 13.6711 15.52 13.87C15.52 14.0689 15.441 14.2597 15.3003 14.4003C15.1597 14.541 14.9689 14.62 14.77 14.62Z" fill="white"/>
</svg>
