<svg width="24" height="24" viewBox="0 0 24 24" fill="none" xmlns="http://www.w3.org/2000/svg">
<path d="M10.43 19.53H10.37C9.4274 19.5141 8.5221 19.1591 7.82 18.53C7.49643 18.1965 7.24576 17.7994 7.08393 17.3638C6.92211 16.9283 6.85266 16.4638 6.88 16C6.88 15.8011 6.95902 15.6103 7.09967 15.4696C7.24032 15.329 7.43109 15.25 7.63 15.25C7.82891 15.25 8.01968 15.329 8.16033 15.4696C8.30098 15.6103 8.38 15.8011 8.38 16C8.36081 16.2599 8.3953 16.5209 8.48132 16.767C8.56733 17.013 8.70304 17.2386 8.88 17.43C9.30179 17.7923 9.8343 18.0004 10.39 18.02C10.9426 18.0215 11.4778 17.8266 11.9 17.47C12.0789 17.2714 12.2162 17.0391 12.3038 16.7866C12.3914 16.5341 12.4275 16.2666 12.41 16C12.4297 15.7323 12.3937 15.4635 12.3042 15.2104C12.2147 14.9574 12.0736 14.7257 11.89 14.53C11.4723 14.1712 10.9406 13.9727 10.39 13.97H3.81C3.61109 13.97 3.42032 13.891 3.27967 13.7503C3.13902 13.6096 3.06 13.4189 3.06 13.22C3.06 13.0211 3.13902 12.8303 3.27967 12.6896C3.42032 12.549 3.61109 12.47 3.81 12.47H10.37C11.3213 12.4717 12.2377 12.8283 12.94 13.47C13.2731 13.8013 13.534 14.198 13.7061 14.6352C13.8782 15.0724 13.9579 15.5405 13.94 16.01C13.9579 16.4795 13.8782 16.9476 13.7061 17.3847C13.534 17.8219 13.2731 18.2187 12.94 18.55C12.2531 19.1755 11.359 19.5246 10.43 19.53Z" fill="white"/>
<path d="M18.21 17C17.389 16.9945 16.6 16.6803 16 16.12C15.7303 15.8431 15.5202 15.5139 15.3826 15.1528C15.245 14.7916 15.1829 14.4061 15.2 14.02C15.2 13.8211 15.279 13.6303 15.4196 13.4896C15.5603 13.349 15.7511 13.27 15.95 13.27C16.1489 13.27 16.3397 13.349 16.4803 13.4896C16.621 13.6303 16.7 13.8211 16.7 14.02C16.6839 14.3877 16.8132 14.7469 17.06 15.02C17.368 15.2814 17.7561 15.4296 18.16 15.44C18.6904 15.44 19.1991 15.2293 19.5742 14.8542C19.9493 14.4791 20.16 13.9704 20.16 13.44C20.16 12.9095 19.9493 12.4008 19.5742 12.0258C19.1991 11.6507 18.6904 11.44 18.16 11.44H5.84997C4.8994 11.4345 3.98428 11.0784 3.27997 10.44C2.96596 10.1174 2.71934 9.73547 2.55452 9.31654C2.38969 8.89761 2.30996 8.45004 2.31997 7.99997C2.29965 7.53019 2.37815 7.06137 2.55041 6.62384C2.72266 6.18631 2.98484 5.7898 3.31997 5.45997C4.01654 4.81553 4.93103 4.45831 5.87997 4.45997C6.82117 4.48282 7.72415 4.83693 8.42998 5.45997C8.75125 5.79628 8.99897 6.19581 9.15736 6.63312C9.31575 7.07042 9.38135 7.53592 9.34998 7.99997C9.34998 8.19888 9.27096 8.38964 9.1303 8.5303C8.98965 8.67095 8.79889 8.74997 8.59998 8.74997C8.40106 8.74997 8.2103 8.67095 8.06964 8.5303C7.92899 8.38964 7.84997 8.19888 7.84997 7.99997C7.86681 7.74026 7.83122 7.47982 7.74532 7.23415C7.65943 6.98848 7.52497 6.7626 7.34997 6.56997C6.92121 6.2155 6.38609 6.01483 5.82997 5.99997C5.27839 6.00433 4.74515 6.19856 4.31997 6.54997C4.14532 6.74687 4.01125 6.97631 3.92545 7.22513C3.83965 7.47395 3.80381 7.73726 3.81997 7.99997C3.7984 8.26463 3.83166 8.5309 3.9177 8.78212C4.00373 9.03333 4.14068 9.2641 4.31997 9.45997C4.74663 9.81443 5.28532 10.0058 5.83997 9.99997H18.2C19.1282 9.99997 20.0185 10.3687 20.6748 11.0251C21.3312 11.6815 21.7 12.5717 21.7 13.5C21.7 14.4282 21.3312 15.3185 20.6748 15.9748C20.0185 16.6312 19.1282 17 18.2 17H18.21Z" fill="white"/>
</svg>
