<svg width="24" height="24" viewBox="0 0 24 24" fill="none" xmlns="http://www.w3.org/2000/svg">
<path d="M9.32001 15.58C9.17091 15.5819 9.02465 15.5392 8.89989 15.4576C8.77513 15.3759 8.67754 15.259 8.61959 15.1216C8.56163 14.9842 8.54593 14.8327 8.57451 14.6863C8.60308 14.54 8.67463 14.4055 8.78001 14.3L14.44 8.63999C14.5806 8.49954 14.7713 8.42065 14.97 8.42065C15.1688 8.42065 15.3594 8.49954 15.5 8.63999C15.5708 8.70894 15.627 8.79136 15.6654 8.88238C15.7038 8.97341 15.7236 9.0712 15.7236 9.16999C15.7236 9.26879 15.7038 9.36658 15.6654 9.45761C15.627 9.54863 15.5708 9.63105 15.5 9.69999L9.85001 15.36C9.78076 15.4301 9.69821 15.4857 9.6072 15.5235C9.51619 15.5612 9.41855 15.5805 9.32001 15.58Z" fill="white"/>
<path d="M15 15.58C14.9015 15.5805 14.8038 15.5613 14.7128 15.5235C14.6218 15.4857 14.5393 15.4302 14.47 15.36L8.78001 9.70005C8.63956 9.55942 8.56067 9.3688 8.56067 9.17005C8.56067 8.9713 8.63956 8.78067 8.78001 8.64005C8.92357 8.50135 9.11539 8.42383 9.31501 8.42383C9.51463 8.42383 9.70644 8.50135 9.85001 8.64005L15.5 14.3C15.5708 14.369 15.627 14.4514 15.6654 14.5424C15.7038 14.6335 15.7236 14.7313 15.7236 14.83C15.7236 14.9288 15.7038 15.0266 15.6654 15.1177C15.627 15.2087 15.5708 15.2911 15.5 15.36C15.3681 15.4953 15.1889 15.5742 15 15.58Z" fill="white"/>
<path d="M12.14 21.7C12.0097 21.7023 11.8814 21.6676 11.77 21.6L4 17.12C3.88498 17.0547 3.78925 16.9603 3.72252 16.8461C3.65578 16.732 3.62042 16.6022 3.62 16.47V7.52998C3.62042 7.39775 3.65578 7.26799 3.72252 7.15384C3.78925 7.03969 3.88498 6.94521 4 6.87998L11.77 2.39998C11.8846 2.33605 12.0137 2.30249 12.145 2.30249C12.2763 2.30249 12.4053 2.33605 12.52 2.39998L20.27 6.87998C20.3838 6.94569 20.4781 7.04055 20.5432 7.15479C20.6082 7.26903 20.6416 7.39853 20.64 7.52998V16.47C20.6416 16.6014 20.6082 16.7309 20.5432 16.8452C20.4781 16.9594 20.3838 17.0543 20.27 17.12L12.52 21.6C12.4045 21.6665 12.2733 21.701 12.14 21.7ZM5.14 16L12.14 20L19.14 16V7.99998L12.14 3.99998L5.14 7.99998V16Z" fill="white"/>
</svg>
