<svg width="24" height="24" viewBox="0 0 24 24" fill="none" xmlns="http://www.w3.org/2000/svg">
<path d="M18 19.25H6C5.00544 19.25 4.05161 18.8549 3.34835 18.1517C2.64509 17.4484 2.25 16.4946 2.25 15.5V8.5C2.25 7.50544 2.64509 6.55161 3.34835 5.84835C4.05161 5.14509 5.00544 4.75 6 4.75H18C18.9946 4.75 19.9484 5.14509 20.6517 5.84835C21.3549 6.55161 21.75 7.50544 21.75 8.5V15.5C21.75 16.4946 21.3549 17.4484 20.6517 18.1517C19.9484 18.8549 18.9946 19.25 18 19.25ZM6 6.25C5.40326 6.25 4.83097 6.48705 4.40901 6.90901C3.98705 7.33097 3.75 7.90326 3.75 8.5V15.5C3.75 16.0967 3.98705 16.669 4.40901 17.091C4.83097 17.5129 5.40326 17.75 6 17.75H18C18.5967 17.75 19.169 17.5129 19.591 17.091C20.0129 16.669 20.25 16.0967 20.25 15.5V8.5C20.25 7.90326 20.0129 7.33097 19.591 6.90901C19.169 6.48705 18.5967 6.25 18 6.25H6Z" fill="white"/>
<path d="M21 15.75H15.45C14.6021 15.7474 13.7897 15.4094 13.1902 14.8098C12.5906 14.2103 12.2526 13.3979 12.25 12.55V11.45C12.2526 10.6021 12.5906 9.78972 13.1902 9.19017C13.7897 8.59063 14.6021 8.25264 15.45 8.25H21C21.1989 8.25 21.3897 8.32902 21.5303 8.46967C21.671 8.61032 21.75 8.80109 21.75 9C21.75 9.19891 21.671 9.38968 21.5303 9.53033C21.3897 9.67098 21.1989 9.75 21 9.75H15.45C14.9991 9.75 14.5667 9.92911 14.2479 10.2479C13.9291 10.5667 13.75 10.9991 13.75 11.45V12.55C13.75 13.0009 13.9291 13.4333 14.2479 13.7521C14.5667 14.0709 14.9991 14.25 15.45 14.25H21C21.1989 14.25 21.3897 14.329 21.5303 14.4697C21.671 14.6103 21.75 14.8011 21.75 15C21.75 15.1989 21.671 15.3897 21.5303 15.5303C21.3897 15.671 21.1989 15.75 21 15.75Z" fill="white"/>
<path d="M17 12.75C16.9002 12.7503 16.8015 12.7299 16.71 12.69C16.6207 12.6521 16.5394 12.5978 16.47 12.53C16.3638 12.4254 16.2918 12.2911 16.2632 12.1448C16.2347 11.9984 16.251 11.8469 16.31 11.71C16.3441 11.6187 16.3988 11.5366 16.47 11.47C16.5394 11.4022 16.6207 11.348 16.71 11.31C16.8474 11.2537 16.9982 11.2388 17.144 11.2672C17.2897 11.2957 17.4239 11.3662 17.53 11.47C17.5978 11.5394 17.6521 11.6208 17.69 11.71C17.7296 11.8218 17.742 11.9414 17.7264 12.0589C17.7108 12.1764 17.6676 12.2886 17.6003 12.3862C17.5329 12.4837 17.4434 12.564 17.3391 12.6203C17.2347 12.6766 17.1185 12.7073 17 12.71V12.75Z" fill="white"/>
</svg>
