<svg width="24" height="24" viewBox="0 0 24 24" fill="none" xmlns="http://www.w3.org/2000/svg">
<path d="M8.5602 9.74998C8.44167 9.74728 8.32546 9.71653 8.22112 9.66023C8.11678 9.60393 8.02726 9.5237 7.95993 9.42611C7.89259 9.32853 7.84936 9.21637 7.83376 9.09884C7.81816 8.9813 7.83065 8.86175 7.8702 8.74998C7.90426 8.65868 7.95903 8.57653 8.0302 8.50998C8.13404 8.40584 8.26654 8.33501 8.41081 8.30651C8.55508 8.27801 8.70457 8.29314 8.8402 8.34998C8.93374 8.38537 9.01888 8.43986 9.0902 8.50998C9.15799 8.57933 9.21225 8.66073 9.2502 8.74998C9.30923 8.88687 9.32554 9.0384 9.29699 9.18472C9.26844 9.33103 9.19636 9.46532 9.0902 9.56998C9.01888 9.64009 8.93374 9.69458 8.8402 9.72998C8.74933 9.75634 8.6539 9.76316 8.5602 9.74998Z" fill="white"/>
<path d="M11.7702 12.77C11.5713 12.77 11.3805 12.691 11.2399 12.5503C11.0992 12.4097 11.0202 12.2189 11.0202 12.02C11.0225 11.9214 11.0393 11.8236 11.0702 11.73C11.1117 11.6403 11.1694 11.5589 11.2402 11.49C11.3096 11.4222 11.391 11.3679 11.4802 11.33C11.5701 11.2906 11.6671 11.2703 11.7652 11.2703C11.8633 11.2703 11.9603 11.2906 12.0502 11.33C12.1437 11.3654 12.2289 11.4199 12.3002 11.49C12.368 11.5593 12.4223 11.6407 12.4602 11.73C12.5192 11.8669 12.5355 12.0184 12.507 12.1647C12.4784 12.311 12.4064 12.4453 12.3002 12.55C12.1585 12.6889 11.9686 12.7677 11.7702 12.77Z" fill="white"/>
<path d="M14.9402 15.7499C14.8438 15.7492 14.7485 15.7287 14.6602 15.6899C14.5667 15.6545 14.4815 15.6001 14.4102 15.5299C14.2698 15.3893 14.1909 15.1987 14.1909 14.9999C14.1909 14.8012 14.2698 14.6106 14.4102 14.4699C14.4815 14.3998 14.5667 14.3453 14.6602 14.3099C14.7959 14.2531 14.9453 14.238 15.0896 14.2665C15.2339 14.295 15.3664 14.3658 15.4702 14.4699C15.575 14.5748 15.6463 14.7084 15.6752 14.8538C15.7041 14.9992 15.6892 15.1499 15.6325 15.2869C15.5758 15.4238 15.4798 15.5409 15.3566 15.6233C15.2333 15.7057 15.0885 15.7498 14.9402 15.7499Z" fill="white"/>
<path d="M16.7702 20.7901H6.77021C6.27269 20.7927 5.77961 20.6964 5.31969 20.5066C4.85978 20.3169 4.44222 20.0375 4.09134 19.6847C3.74047 19.332 3.4633 18.913 3.27597 18.4521C3.08864 17.9911 2.9949 17.4976 3.00021 17.0001V7.00005C3.00021 6.50591 3.09786 6.01664 3.28757 5.56036C3.47727 5.10408 3.75528 4.68979 4.10563 4.34131C4.45597 3.99282 4.87173 3.71702 5.32901 3.52974C5.78629 3.34247 6.27608 3.24742 6.77021 3.25005H16.7702C17.2644 3.24742 17.7541 3.34247 18.2114 3.52974C18.6687 3.71702 19.0845 3.99282 19.4348 4.34131C19.7851 4.68979 20.0632 5.10408 20.2529 5.56036C20.4426 6.01664 20.5402 6.50591 20.5402 7.00005V17.0001C20.5455 17.4976 20.4518 17.9911 20.2645 18.4521C20.0771 18.913 19.8 19.332 19.4491 19.6847C19.0982 20.0375 18.6807 20.3169 18.2207 20.5066C17.7608 20.6964 17.2677 20.7927 16.7702 20.7901ZM6.77021 4.75005C6.47306 4.74741 6.17833 4.80366 5.90303 4.91555C5.62774 5.02744 5.37733 5.19275 5.16628 5.40195C4.95522 5.61115 4.7877 5.86008 4.67338 6.13437C4.55906 6.40867 4.5002 6.70289 4.50021 7.00005V17.0001C4.49486 17.3006 4.54977 17.5991 4.6617 17.8781C4.77363 18.157 4.94031 18.4107 5.1519 18.6241C5.3635 18.8376 5.61572 19.0065 5.89367 19.1209C6.17162 19.2352 6.46966 19.2928 6.77021 19.2901H16.7702C17.0708 19.2928 17.3688 19.2352 17.6468 19.1209C17.9247 19.0065 18.1769 18.8376 18.3885 18.6241C18.6001 18.4107 18.7668 18.157 18.8787 17.8781C18.9907 17.5991 19.0456 17.3006 19.0402 17.0001V7.00005C19.0402 6.70289 18.9814 6.40867 18.8671 6.13437C18.7527 5.86008 18.5852 5.61115 18.3741 5.40195C18.1631 5.19275 17.9127 5.02744 17.6374 4.91555C17.3621 4.80366 17.0674 4.74741 16.7702 4.75005H6.77021Z" fill="white"/>
</svg>
