<svg width="24" height="24" viewBox="0 0 24 24" fill="none" xmlns="http://www.w3.org/2000/svg">
<path d="M11.93 21.29C10.1955 21.29 8.49991 20.7757 7.05769 19.812C5.61547 18.8483 4.49139 17.4786 3.82761 15.8761C3.16383 14.2736 2.99016 12.5103 3.32855 10.8091C3.66694 9.10785 4.50221 7.54518 5.72871 6.31868C6.95522 5.09217 8.51788 4.25691 10.2191 3.91852C11.9203 3.58012 13.6837 3.7538 15.2862 4.41758C16.8887 5.08136 18.2584 6.20543 19.222 7.64765C20.1857 9.08987 20.7 10.7855 20.7 12.52C20.6974 14.8451 19.7726 17.0743 18.1284 18.7184C16.4843 20.3625 14.2552 21.2874 11.93 21.29ZM11.93 5.29C10.4922 5.29 9.08659 5.71638 7.89104 6.51522C6.6955 7.31406 5.76368 8.44948 5.21343 9.77789C4.66318 11.1063 4.51921 12.5681 4.79973 13.9783C5.08024 15.3886 5.77264 16.6839 6.78937 17.7007C7.8061 18.7174 9.10149 19.4098 10.5117 19.6903C11.922 19.9708 13.3837 19.8269 14.7121 19.2766C16.0406 18.7264 17.176 17.7945 17.9748 16.599C18.7737 15.4035 19.2 13.9979 19.2 12.56C19.204 11.6023 19.0189 10.6532 18.6555 9.76717C18.292 8.8811 17.7573 8.07546 17.0819 7.3964C16.4066 6.71734 15.6039 6.17821 14.7198 5.80989C13.8358 5.44157 12.8877 5.25131 11.93 5.25V5.29Z" fill="white"/>
<path d="M11.87 12.89C11.2767 12.89 10.6966 12.7141 10.2033 12.3844C9.70994 12.0548 9.32542 11.5862 9.09836 11.0381C8.87129 10.4899 8.81188 9.88669 8.92764 9.30475C9.0434 8.7228 9.32912 8.18825 9.74868 7.7687C10.1682 7.34914 10.7028 7.06342 11.2847 6.94766C11.8667 6.8319 12.4699 6.89131 13.018 7.11838C13.5662 7.34544 14.0348 7.72996 14.3644 8.22331C14.694 8.71665 14.87 9.29667 14.87 9.89002C14.87 10.6857 14.5539 11.4487 13.9913 12.0113C13.4287 12.5739 12.6656 12.89 11.87 12.89ZM11.87 8.39002C11.5733 8.39002 11.2833 8.47799 11.0366 8.64281C10.79 8.80763 10.5977 9.0419 10.4842 9.31599C10.3706 9.59008 10.3409 9.89168 10.3988 10.1827C10.4567 10.4736 10.5996 10.7409 10.8093 10.9507C11.0191 11.1605 11.2864 11.3033 11.5774 11.3612C11.8683 11.4191 12.1699 11.3894 12.444 11.2758C12.7181 11.1623 12.9524 10.97 13.1172 10.7234C13.282 10.4767 13.37 10.1867 13.37 9.89002C13.37 9.49219 13.212 9.11066 12.9307 8.82936C12.6494 8.54805 12.2678 8.39002 11.87 8.39002Z" fill="white"/>
<path d="M11.9301 18.15C11.2615 18.15 10.6081 17.9518 10.0522 17.5804C9.49639 17.209 9.06316 16.6811 8.80734 16.0635C8.55151 15.4459 8.48458 14.7663 8.615 14.1106C8.74541 13.455 9.06733 12.8527 9.54003 12.38C10.0127 11.9073 10.615 11.5854 11.2706 11.455C11.9263 11.3245 12.6059 11.3915 13.2235 11.6473C13.8411 11.9031 14.369 12.3364 14.7404 12.8922C15.1118 13.448 15.3101 14.1015 15.3101 14.77C15.3074 15.6656 14.9505 16.5238 14.3172 17.1571C13.6839 17.7904 12.8257 18.1474 11.9301 18.15ZM11.9301 12.89C11.5582 12.89 11.1947 13.0003 10.8856 13.2069C10.5764 13.4134 10.3354 13.707 10.1932 14.0506C10.0509 14.3941 10.0136 14.7721 10.0862 15.1368C10.1587 15.5015 10.3378 15.8365 10.6007 16.0994C10.8636 16.3623 11.1986 16.5414 11.5633 16.6139C11.928 16.6864 12.306 16.6492 12.6495 16.5069C12.993 16.3646 13.2866 16.1237 13.4932 15.8145C13.6998 15.5053 13.8101 15.1418 13.8101 14.77C13.8101 14.2714 13.612 13.7932 13.2594 13.4407C12.9068 13.0881 12.4287 12.89 11.9301 12.89Z" fill="white"/>
</svg>
