<svg width="24" height="24" viewBox="0 0 24 24" fill="none" xmlns="http://www.w3.org/2000/svg">
<path d="M17.5 21.25H6.5C5.50544 21.25 4.55161 20.8549 3.84835 20.1517C3.14509 19.4484 2.75 18.4946 2.75 17.5V6.5C2.75 5.50544 3.14509 4.55161 3.84835 3.84835C4.55161 3.14509 5.50544 2.75 6.5 2.75H17.5C18.4946 2.75 19.4484 3.14509 20.1517 3.84835C20.8549 4.55161 21.25 5.50544 21.25 6.5V17.5C21.25 18.4946 20.8549 19.4484 20.1517 20.1517C19.4484 20.8549 18.4946 21.25 17.5 21.25ZM6.5 4.25C5.90326 4.25 5.33097 4.48705 4.90901 4.90901C4.48705 5.33097 4.25 5.90326 4.25 6.5V17.5C4.25 18.0967 4.48705 18.669 4.90901 19.091C5.33097 19.5129 5.90326 19.75 6.5 19.75H17.5C18.0967 19.75 18.669 19.5129 19.091 19.091C19.5129 18.669 19.75 18.0967 19.75 17.5V6.5C19.75 5.90326 19.5129 5.33097 19.091 4.90901C18.669 4.48705 18.0967 4.25 17.5 4.25H6.5Z" fill="white"/>
<path d="M3.49998 17.0601C3.38948 17.06 3.28035 17.0357 3.18018 16.9891C3.08001 16.9425 2.99121 16.8746 2.91998 16.7901C2.80993 16.6406 2.75924 16.4556 2.77771 16.2709C2.79618 16.0862 2.8825 15.9149 3.01998 15.7901L7.71997 11.8901C8.09742 11.5754 8.5332 11.3381 9.0024 11.1919C9.4716 11.0456 9.96502 10.9933 10.4545 11.0379C10.9439 11.0825 11.4197 11.2231 11.8548 11.4517C12.2899 11.6802 12.6756 11.9923 12.99 12.3701L14.11 13.7101C14.3023 13.9404 14.5386 14.1299 14.8052 14.2674C15.0718 14.405 15.3632 14.4879 15.6623 14.5112C15.9614 14.5345 16.2621 14.4977 16.5468 14.4031C16.8315 14.3084 17.0944 14.1578 17.32 13.9601L20 11.5601C20.0742 11.4944 20.1606 11.444 20.2543 11.4118C20.3479 11.3795 20.447 11.366 20.5459 11.372C20.6448 11.3781 20.7416 11.4035 20.8306 11.447C20.9197 11.4904 20.9993 11.5509 21.065 11.6251C21.1306 11.6993 21.181 11.7857 21.2133 11.8794C21.2456 11.9731 21.2591 12.0722 21.253 12.1711C21.247 12.27 21.2216 12.3667 21.1781 12.4558C21.1347 12.5448 21.0742 12.6244 21 12.6901L18.31 15.0001C17.9378 15.3268 17.5044 15.5764 17.035 15.7343C16.5656 15.8923 16.0695 15.9554 15.5755 15.92C15.0816 15.8847 14.5995 15.7515 14.1574 15.5284C13.7152 15.3053 13.3218 14.9965 13 14.6201L11.88 13.2801C11.689 13.0488 11.454 12.8579 11.1885 12.7184C10.923 12.5789 10.6324 12.4936 10.3336 12.4676C10.0349 12.4415 9.7339 12.4752 9.44828 12.5666C9.16265 12.658 8.89808 12.8054 8.66998 13.0001L3.99998 16.8901C3.86086 17.0081 3.68216 17.0688 3.49998 17.0601Z" fill="white"/>
</svg>
