<svg width="24" height="24" viewBox="0 0 24 24" fill="none" xmlns="http://www.w3.org/2000/svg">
<path d="M13 23C12.8376 23.0007 12.6795 22.948 12.55 22.85L5.70002 17.73C5.608 17.6591 5.5332 17.5683 5.48125 17.4644C5.4293 17.3605 5.40153 17.2462 5.40002 17.13V6.88C5.40001 6.76215 5.42705 6.64586 5.47906 6.5401C5.53108 6.43434 5.60667 6.34194 5.70002 6.27L12.55 1.15C12.6798 1.05263 12.8377 1 13 1C13.1623 1 13.3202 1.05263 13.45 1.15L20.3 6.27C20.3934 6.34194 20.469 6.43434 20.521 6.5401C20.573 6.64586 20.6 6.76215 20.6 6.88V17.13C20.5985 17.2462 20.5708 17.3605 20.5188 17.4644C20.4668 17.5683 20.3921 17.6591 20.3 17.73L13.45 22.85C13.3205 22.948 13.1624 23.0007 13 23ZM6.90002 16.75L13 21.31L19.1 16.75V7.25L13 2.69L6.90002 7.25V16.75Z" fill="white"/>
<path d="M13 23C12.8019 22.9974 12.6126 22.9176 12.4725 22.7775C12.3324 22.6374 12.2526 22.4481 12.25 22.25V1.75C12.25 1.55109 12.329 1.36032 12.4697 1.21967C12.6103 1.07902 12.8011 1 13 1C13.1989 1 13.3897 1.07902 13.5303 1.21967C13.671 1.36032 13.75 1.55109 13.75 1.75V22.25C13.7474 22.4481 13.6676 22.6374 13.5275 22.7775C13.3874 22.9176 13.1981 22.9974 13 23Z" fill="white"/>
</svg>
