<svg width="24" height="24" viewBox="0 0 24 24" fill="none" xmlns="http://www.w3.org/2000/svg">
<path d="M11.8 22.3477C3.1 22.3477 3 13.6777 3 13.5877V5.49771C3.00523 5.36037 3.04811 5.2271 3.12394 5.11247C3.19977 4.99784 3.30565 4.90625 3.43 4.84771L11.48 1.06771C11.5808 1.02306 11.6898 1 11.8 1C11.9102 1 12.0192 1.02306 12.12 1.06771L20.17 4.84771C20.2989 4.9085 20.4077 5.00475 20.4839 5.12517C20.56 5.2456 20.6003 5.38523 20.6 5.52771V13.6177C20.6 13.6777 20.5 22.3477 11.8 22.3477ZM4.5 5.97771V13.5877C4.5 13.8477 4.61 20.8477 11.8 20.8477C18.99 20.8477 19.1 13.8477 19.1 13.5877V5.97771L11.8 2.54771L4.5 5.97771Z" fill="white"/>
<path d="M3.79996 12.5977C3.63091 12.5984 3.4666 12.5419 3.33366 12.4375C3.20073 12.3331 3.10698 12.1868 3.06761 12.0224C3.02825 11.858 3.04558 11.6851 3.1168 11.5318C3.18802 11.3785 3.30894 11.2537 3.45996 11.1777L11.51 7.11773C11.6168 7.06329 11.735 7.03491 11.855 7.03491C11.9749 7.03491 12.0931 7.06329 12.2 7.11773L19.95 11.1877C20.0459 11.2282 20.1323 11.2881 20.2038 11.3638C20.2753 11.4395 20.3302 11.5292 20.3651 11.6272C20.4 11.7253 20.4141 11.8295 20.4066 11.9333C20.399 12.0371 20.3699 12.1382 20.3212 12.2302C20.2724 12.3221 20.205 12.4029 20.1233 12.4674C20.0417 12.5319 19.9474 12.5787 19.8467 12.6048C19.7459 12.6309 19.6408 12.6358 19.5381 12.6191C19.4354 12.6024 19.3372 12.5644 19.25 12.5077L11.8 8.62773L4.09996 12.5177C4.00606 12.5635 3.90419 12.5907 3.79996 12.5977Z" fill="white"/>
</svg>
