<svg width="24" height="24" viewBox="0 0 24 24" fill="none" xmlns="http://www.w3.org/2000/svg">
<path d="M12 21.75C10.0716 21.75 8.18657 21.1782 6.58319 20.1068C4.97982 19.0355 3.73013 17.5127 2.99218 15.7312C2.25422 13.9496 2.06114 11.9892 2.43735 10.0979C2.81355 8.20656 3.74215 6.46928 5.10571 5.10571C6.46928 3.74215 8.20656 2.81355 10.0979 2.43735C11.9892 2.06114 13.9496 2.25422 15.7312 2.99218C17.5127 3.73013 19.0355 4.97982 20.1068 6.58319C21.1782 8.18657 21.75 10.0716 21.75 12C21.7474 14.5851 20.7193 17.0635 18.8914 18.8914C17.0635 20.7193 14.5851 21.7474 12 21.75ZM12 3.75C10.3683 3.75 8.77326 4.23386 7.41655 5.14038C6.05984 6.0469 5.00242 7.33538 4.378 8.84287C3.75358 10.3504 3.5902 12.0092 3.90853 13.6095C4.22685 15.2098 5.01259 16.6799 6.16637 17.8336C7.32016 18.9874 8.79017 19.7732 10.3905 20.0915C11.9909 20.4098 13.6497 20.2464 15.1571 19.622C16.6646 18.9976 17.9531 17.9402 18.8596 16.5835C19.7661 15.2268 20.25 13.6317 20.25 12C20.2474 9.81278 19.3773 7.7159 17.8307 6.1693C16.2841 4.62269 14.1872 3.75265 12 3.75Z" fill="white"/>
<path d="M12 16.0699C11.195 16.0699 10.4081 15.8312 9.73882 15.384C9.06952 14.9368 8.54785 14.3012 8.2398 13.5575C7.93176 12.8138 7.85116 11.9954 8.0082 11.2059C8.16524 10.4164 8.55287 9.69121 9.12207 9.12201C9.69127 8.55281 10.4165 8.16518 11.206 8.00814C11.9955 7.8511 12.8138 7.9317 13.5575 8.23974C14.3012 8.54779 14.9369 9.06946 15.3841 9.73876C15.8313 10.4081 16.07 11.195 16.07 11.9999C16.07 13.0794 15.6412 14.1146 14.8779 14.8779C14.1146 15.6411 13.0794 16.0699 12 16.0699ZM12 9.42993C11.4917 9.42993 10.9948 9.58066 10.5722 9.86306C10.1495 10.1455 9.82014 10.5468 9.62562 11.0164C9.43111 11.486 9.38021 12.0028 9.47938 12.5013C9.57854 12.9998 9.82331 13.4578 10.1827 13.8172C10.5422 14.1766 11.0001 14.4214 11.4986 14.5206C11.9971 14.6197 12.5139 14.5688 12.9835 14.3743C13.4531 14.1798 13.8545 13.8504 14.1369 13.4277C14.4193 13.0051 14.57 12.5082 14.57 11.9999C14.57 11.3183 14.2992 10.6646 13.8173 10.1827C13.3353 9.7007 12.6816 9.42993 12 9.42993Z" fill="white"/>
</svg>
