<svg width="24" height="24" viewBox="0 0 24 24" fill="none" xmlns="http://www.w3.org/2000/svg">
<path d="M7 21.75C6.27065 21.75 5.57118 21.4603 5.05546 20.9445C4.53973 20.4288 4.25 19.7293 4.25 19V15C4.25 14.2707 4.53973 13.5712 5.05546 13.0555C5.57118 12.5397 6.27065 12.25 7 12.25C7.72935 12.25 8.42882 12.5397 8.94454 13.0555C9.46027 13.5712 9.75 14.2707 9.75 15V19C9.75 19.7293 9.46027 20.4288 8.94454 20.9445C8.42882 21.4603 7.72935 21.75 7 21.75ZM7 13.75C6.66848 13.75 6.35054 13.8817 6.11612 14.1161C5.8817 14.3505 5.75 14.6685 5.75 15V19C5.75 19.3315 5.8817 19.6495 6.11612 19.8839C6.35054 20.1183 6.66848 20.25 7 20.25C7.33152 20.25 7.64946 20.1183 7.88388 19.8839C8.1183 19.6495 8.25 19.3315 8.25 19V15C8.25 14.6685 8.1183 14.3505 7.88388 14.1161C7.64946 13.8817 7.33152 13.75 7 13.75Z" fill="white"/>
<path d="M17 21.75C16.2707 21.75 15.5712 21.4603 15.0555 20.9445C14.5397 20.4288 14.25 19.7293 14.25 19V15C14.25 14.2707 14.5397 13.5712 15.0555 13.0555C15.5712 12.5397 16.2707 12.25 17 12.25C17.7293 12.25 18.4288 12.5397 18.9445 13.0555C19.4603 13.5712 19.75 14.2707 19.75 15V19C19.75 19.7293 19.4603 20.4288 18.9445 20.9445C18.4288 21.4603 17.7293 21.75 17 21.75ZM17 13.75C16.6685 13.75 16.3505 13.8817 16.1161 14.1161C15.8817 14.3505 15.75 14.6685 15.75 15V19C15.75 19.3315 15.8817 19.6495 16.1161 19.8839C16.3505 20.1183 16.6685 20.25 17 20.25C17.3315 20.25 17.6495 20.1183 17.8839 19.8839C18.1183 19.6495 18.25 19.3315 18.25 19V15C18.25 14.6685 18.1183 14.3505 17.8839 14.1161C17.6495 13.8817 17.3315 13.75 17 13.75Z" fill="white"/>
<path d="M22 17.75C21.8019 17.7474 21.6126 17.6676 21.4725 17.5275C21.3324 17.3874 21.2526 17.1981 21.25 17V13C21.25 10.5467 20.2754 8.19397 18.5407 6.45926C16.806 4.72455 14.4533 3.75 12 3.75C9.54675 3.75 7.19397 4.72455 5.45926 6.45926C3.72455 8.19397 2.75 10.5467 2.75 13V17C2.75 17.1989 2.67098 17.3897 2.53033 17.5303C2.38968 17.671 2.19891 17.75 2 17.75C1.80109 17.75 1.61032 17.671 1.46967 17.5303C1.32902 17.3897 1.25 17.1989 1.25 17V13C1.25 10.1489 2.38259 7.41462 4.3986 5.3986C6.41462 3.38259 9.14892 2.25 12 2.25C14.8511 2.25 17.5854 3.38259 19.6014 5.3986C21.6174 7.41462 22.75 10.1489 22.75 13V17C22.7474 17.1981 22.6676 17.3874 22.5275 17.5275C22.3874 17.6676 22.1981 17.7474 22 17.75Z" fill="white"/>
</svg>
