<svg width="24" height="24" viewBox="0 0 24 24" fill="none" xmlns="http://www.w3.org/2000/svg">
<path d="M11.93 11.6201C10.9905 11.6201 10.0722 11.3415 9.29104 10.8196C8.5099 10.2977 7.90108 9.55581 7.54157 8.68787C7.18205 7.81992 7.08798 6.86485 7.27126 5.94344C7.45454 5.02203 7.90694 4.17566 8.57124 3.51136C9.23554 2.84706 10.0819 2.39467 11.0033 2.21139C11.9247 2.02811 12.8798 2.12218 13.7477 2.48169C14.6157 2.84121 15.3575 3.45003 15.8795 4.23116C16.4014 5.01229 16.68 5.93066 16.68 6.87012C16.68 8.1299 16.1796 9.33808 15.2888 10.2289C14.398 11.1197 13.1898 11.6201 11.93 11.6201ZM11.93 3.62012C11.2868 3.62012 10.658 3.81099 10.1234 4.16855C9.58868 4.5261 9.17213 5.03428 8.92644 5.62872C8.68075 6.22316 8.61698 6.87714 8.74319 7.50785C8.86941 8.13856 9.17994 8.71763 9.63546 9.17175C10.091 9.62587 10.671 9.93462 11.3021 10.0589C11.9332 10.1832 12.587 10.1174 13.1807 9.86985C13.7743 9.62233 14.2812 9.20421 14.6371 8.66844C14.993 8.13267 15.182 7.50333 15.18 6.86012C15.1787 6.43464 15.0936 6.01358 14.9295 5.62098C14.7655 5.22839 14.5257 4.87195 14.224 4.57202C13.9222 4.27208 13.5643 4.03453 13.1707 3.87292C12.7771 3.71131 12.3555 3.6288 11.93 3.63012V3.62012Z" fill="white"/>
<path d="M18.39 21.8801H5.60999C5.41107 21.8801 5.22031 21.8011 5.07966 21.6604C4.939 21.5198 4.85999 21.329 4.85999 21.1301C4.85999 20.9312 4.939 20.7404 5.07966 20.5998C5.22031 20.4591 5.41107 20.3801 5.60999 20.3801H11.18V10.8701C11.18 10.6712 11.259 10.4804 11.3997 10.3398C11.5403 10.1991 11.7311 10.1201 11.93 10.1201C12.1289 10.1201 12.3197 10.1991 12.4603 10.3398C12.601 10.4804 12.68 10.6712 12.68 10.8701V20.3801H18.39C18.5889 20.3801 18.7797 20.4591 18.9203 20.5998C19.061 20.7404 19.14 20.9312 19.14 21.1301C19.14 21.329 19.061 21.5198 18.9203 21.6604C18.7797 21.8011 18.5889 21.8801 18.39 21.8801Z" fill="white"/>
</svg>
