<svg width="24" height="24" viewBox="0 0 24 24" fill="none" xmlns="http://www.w3.org/2000/svg">
<path d="M16.41 18.14C16.2829 18.1383 16.1581 18.1055 16.0466 18.0445C15.935 17.9835 15.8401 17.8961 15.77 17.79C15.6764 17.6248 15.6482 17.4304 15.6907 17.2454C15.7333 17.0603 15.8436 16.8978 16 16.79C17.3422 15.926 18.3685 14.6507 18.9255 13.1548C19.4825 11.6589 19.5401 10.0229 19.0899 8.4915C18.6396 6.96011 17.7056 5.61567 16.4275 4.65934C15.1495 3.703 13.5962 3.18617 12 3.18617C10.4038 3.18617 8.85045 3.703 7.57243 4.65934C6.29442 5.61567 5.3604 6.96011 4.91011 8.4915C4.45983 10.0229 4.5175 11.6589 5.07448 13.1548C5.63146 14.6507 6.65781 15.926 7.99999 16.79C8.11277 16.914 8.1808 17.0721 8.19323 17.2392C8.20565 17.4063 8.16175 17.5728 8.06854 17.712C7.97532 17.8513 7.83815 17.9553 7.67892 18.0075C7.51968 18.0597 7.34755 18.0571 7.18999 18C5.57495 16.961 4.3398 15.4269 3.66935 13.6273C2.9989 11.8277 2.92922 9.85944 3.47071 8.01695C4.01221 6.17447 5.13578 4.55686 6.67329 3.4062C8.2108 2.25553 10.0796 1.63367 12 1.63367C13.9204 1.63367 15.7892 2.25553 17.3267 3.4062C18.8642 4.55686 19.9878 6.17447 20.5293 8.01695C21.0708 9.85944 21.0011 11.8277 20.3306 13.6273C19.6602 15.4269 18.425 16.961 16.81 18C16.6929 18.0842 16.554 18.1328 16.41 18.14Z" fill="white"/>
<path d="M16.41 22.37H7.58997C7.39105 22.37 7.20029 22.291 7.05964 22.1503C6.91898 22.0097 6.83997 21.8189 6.83997 21.62V17.39C6.83997 17.1911 6.91898 17.0003 7.05964 16.8597C7.20029 16.719 7.39105 16.64 7.58997 16.64C7.78888 16.64 7.97964 16.719 8.1203 16.8597C8.26095 17.0003 8.33997 17.1911 8.33997 17.39V20.87H15.66V17.39C15.66 17.1911 15.739 17.0003 15.8796 16.8597C16.0203 16.719 16.2111 16.64 16.41 16.64C16.6089 16.64 16.7996 16.719 16.9403 16.8597C17.0809 17.0003 17.16 17.1911 17.16 17.39V21.62C17.16 21.8189 17.0809 22.0097 16.9403 22.1503C16.7996 22.291 16.6089 22.37 16.41 22.37Z" fill="white"/>
<path d="M9.15997 14.5501C8.96106 14.5501 8.7703 14.4711 8.62964 14.3304C8.48899 14.1898 8.40997 13.999 8.40997 13.8001V10.2001C8.40997 10.0012 8.48899 9.8104 8.62964 9.66974C8.7703 9.52909 8.96106 9.45007 9.15997 9.45007C9.35889 9.45007 9.54965 9.52909 9.6903 9.66974C9.83096 9.8104 9.90997 10.0012 9.90997 10.2001V13.8001C9.90738 13.9982 9.82753 14.1874 9.68744 14.3275C9.54734 14.4676 9.35808 14.5475 9.15997 14.5501Z" fill="white"/>
<path d="M14.56 14.5501C14.3619 14.5475 14.1726 14.4676 14.0325 14.3275C13.8924 14.1874 13.8126 13.9982 13.81 13.8001V10.2001C13.81 10.0012 13.889 9.8104 14.0297 9.66974C14.1703 9.52909 14.3611 9.45007 14.56 9.45007C14.7589 9.45007 14.9497 9.52909 15.0903 9.66974C15.231 9.8104 15.31 10.0012 15.31 10.2001V13.8001C15.31 13.999 15.231 14.1898 15.0903 14.3304C14.9497 14.4711 14.7589 14.5501 14.56 14.5501Z" fill="white"/>
<path d="M10.58 22.39C10.3818 22.3874 10.1926 22.3076 10.0525 22.1675C9.9124 22.0274 9.83255 21.8381 9.82996 21.64V19.51C9.82996 19.3111 9.90897 19.1203 10.0496 18.9797C10.1903 18.839 10.381 18.76 10.58 18.76C10.7789 18.76 10.9696 18.839 11.1103 18.9797C11.2509 19.1203 11.33 19.3111 11.33 19.51V21.64C11.33 21.8389 11.2509 22.0297 11.1103 22.1703C10.9696 22.311 10.7789 22.39 10.58 22.39Z" fill="white"/>
<path d="M13.42 22.39C13.2211 22.39 13.0303 22.311 12.8897 22.1703C12.749 22.0297 12.67 21.8389 12.67 21.64V19.51C12.67 19.3111 12.749 19.1203 12.8897 18.9797C13.0303 18.839 13.2211 18.76 13.42 18.76C13.6189 18.76 13.8097 18.839 13.9503 18.9797C14.091 19.1203 14.17 19.3111 14.17 19.51V21.64C14.1674 21.8381 14.0875 22.0274 13.9474 22.1675C13.8074 22.3076 13.6181 22.3874 13.42 22.39Z" fill="white"/>
</svg>
