<svg width="24" height="24" viewBox="0 0 24 24" fill="none" xmlns="http://www.w3.org/2000/svg">
<path d="M9.54 11.0001C9.43986 11.0013 9.34049 10.9825 9.24775 10.9447C9.155 10.9069 9.07076 10.8509 9 10.7801C8.93221 10.7107 8.87795 10.6293 8.84 10.5401C8.80012 10.4486 8.77969 10.3498 8.78 10.2501C8.7827 10.1315 8.81345 10.0153 8.86975 9.91097C8.92605 9.80663 9.00628 9.71711 9.10387 9.64978C9.20145 9.58244 9.31361 9.53921 9.43114 9.52361C9.54868 9.50801 9.66823 9.5205 9.78 9.56005C9.86925 9.598 9.95065 9.65226 10.02 9.72005C10.1607 9.86057 10.2398 10.0512 10.24 10.2501C10.2403 10.3498 10.2199 10.4486 10.18 10.5401C10.1049 10.7211 9.96105 10.865 9.78 10.9401C9.70406 10.9737 9.62287 10.994 9.54 11.0001Z" fill="white"/>
<path d="M13.46 15C13.2611 15 13.0703 14.9209 12.9297 14.7803C12.789 14.6396 12.71 14.4489 12.71 14.25C12.6948 14.1539 12.6948 14.056 12.71 13.96C12.7516 13.8703 12.8092 13.7889 12.88 13.72C12.9466 13.6488 13.0287 13.594 13.12 13.56C13.2099 13.5206 13.3069 13.5002 13.405 13.5002C13.5031 13.5002 13.6002 13.5206 13.69 13.56C13.7854 13.5915 13.8714 13.6465 13.94 13.72C14.0078 13.7893 14.0621 13.8707 14.1 13.96C14.1399 14.0514 14.1603 14.1502 14.16 14.25C14.1598 14.4488 14.0807 14.6394 13.94 14.78C13.8687 14.8501 13.7836 14.9046 13.69 14.94C13.6175 14.9735 13.5396 14.9938 13.46 15Z" fill="white"/>
<path d="M16.79 20.79H6.79C6.29081 20.7953 5.79556 20.7009 5.33332 20.5124C4.87108 20.3238 4.45114 20.0448 4.09814 19.6918C3.74513 19.3388 3.46616 18.9189 3.27759 18.4566C3.08902 17.9944 2.99465 17.4992 3 17V6.99997C3 6.00541 3.39509 5.05158 4.09835 4.34832C4.80161 3.64506 5.75544 3.24997 6.75 3.24997H16.75C17.2458 3.24468 17.7378 3.33777 18.1974 3.52386C18.6569 3.70994 19.0751 3.98533 19.4275 4.33408C19.78 4.68282 20.0598 5.09801 20.2508 5.55561C20.4417 6.0132 20.54 6.50413 20.54 6.99997V17C20.5453 17.4958 20.4522 17.9877 20.2661 18.4473C20.08 18.9069 19.8046 19.325 19.4559 19.6775C19.1071 20.03 18.692 20.3098 18.2344 20.5007C17.7768 20.6917 17.2858 20.79 16.79 20.79ZM6.79 4.78997C6.49452 4.78467 6.20088 4.83763 5.92587 4.94584C5.65085 5.05404 5.39985 5.21536 5.18719 5.42059C4.97454 5.62582 4.8044 5.87093 4.68649 6.14192C4.56858 6.41291 4.50521 6.70448 4.5 6.99997V17C4.5 17.5967 4.73706 18.169 5.15901 18.591C5.58097 19.0129 6.15326 19.25 6.75 19.25H16.75C17.0455 19.25 17.3381 19.1918 17.611 19.0787C17.884 18.9656 18.1321 18.7999 18.341 18.591C18.5499 18.382 18.7157 18.134 18.8287 17.861C18.9418 17.588 19 17.2954 19 17V6.99997C19 6.70449 18.9418 6.41191 18.8287 6.13893C18.7157 5.86595 18.5499 5.61791 18.341 5.40898C18.1321 5.20005 17.884 5.03431 17.611 4.92124C17.3381 4.80817 17.0455 4.74997 16.75 4.74997L6.79 4.78997Z" fill="white"/>
</svg>
