<svg width="24" height="24" viewBox="0 0 24 24" fill="none" xmlns="http://www.w3.org/2000/svg">
<path d="M12 21.67C11.8785 21.6733 11.758 21.6458 11.65 21.59C11.34 21.42 3.93001 17.49 2.38001 12.19C1.49001 9.18995 1.79001 6.25996 3.18001 4.39996C3.68804 3.72869 4.35061 3.18997 5.11141 2.82959C5.87222 2.46921 6.70878 2.29781 7.55001 2.32996C8.45302 2.28573 9.35012 2.49796 10.1376 2.94213C10.9251 3.3863 11.5707 4.04426 12 4.83996C12.4293 4.04426 13.075 3.3863 13.8624 2.94213C14.6499 2.49796 15.547 2.28573 16.45 2.32996C17.2912 2.29781 18.1278 2.46921 18.8886 2.82959C19.6494 3.18997 20.312 3.72869 20.82 4.39996C22.21 6.25996 22.51 9.16995 21.62 12.19C20.07 17.49 12.62 21.42 12.35 21.59C12.242 21.6458 12.1216 21.6733 12 21.67ZM7.55001 3.82996C6.94176 3.79752 6.33482 3.91454 5.78222 4.17079C5.22963 4.42704 4.7482 4.81472 4.38001 5.29996C3.27001 6.77996 3.06001 9.19996 3.82001 11.77C5.02001 15.86 10.55 19.24 12 20.07C13.45 19.24 19 15.85 20.18 11.77C20.94 9.19996 20.73 6.76996 19.62 5.29996C19.2518 4.81472 18.7704 4.42704 18.2178 4.17079C17.6652 3.91454 17.0583 3.79752 16.45 3.82996C12.94 3.82996 12.76 7.35996 12.75 7.50996C12.75 7.70887 12.671 7.89963 12.5303 8.04029C12.3897 8.18094 12.1989 8.25996 12 8.25996C11.8011 8.25996 11.6103 8.18094 11.4697 8.04029C11.329 7.89963 11.25 7.70887 11.25 7.50996C11.23 7.13996 11 3.82996 7.55001 3.82996Z" fill="white"/>
<path d="M12 21.67C11.8011 21.67 11.6103 21.591 11.4697 21.4503C11.329 21.3097 11.25 21.1189 11.25 20.92V7.47998C11.25 7.28107 11.329 7.0903 11.4697 6.94965C11.6103 6.809 11.8011 6.72998 12 6.72998C12.1989 6.72998 12.3897 6.809 12.5303 6.94965C12.671 7.0903 12.75 7.28107 12.75 7.47998V20.92C12.75 21.1189 12.671 21.3097 12.5303 21.4503C12.3897 21.591 12.1989 21.67 12 21.67Z" fill="white"/>
</svg>
