<svg width="24" height="24" viewBox="0 0 24 24" fill="none" xmlns="http://www.w3.org/2000/svg">
<path d="M11.2501 15.23C11.0513 15.2299 10.8606 15.1507 10.7201 15.01L8.7201 13.01C8.63208 12.8639 8.5965 12.6921 8.61924 12.5231C8.64198 12.354 8.72168 12.1978 8.84518 12.0801C8.96868 11.9624 9.12861 11.8903 9.29857 11.8758C9.46854 11.8612 9.63839 11.9051 9.7801 12L11.2101 13.44L14.2101 10.04C14.2758 9.9665 14.3553 9.90661 14.4441 9.8638C14.5329 9.82098 14.6292 9.79608 14.7277 9.79051C14.8261 9.78493 14.9247 9.7988 15.0177 9.83132C15.1108 9.86384 15.1966 9.91438 15.2701 9.98004C15.3436 10.0457 15.4035 10.1252 15.4463 10.214C15.4892 10.3028 15.5141 10.3992 15.5196 10.4976C15.5252 10.596 15.5113 10.6946 15.4788 10.7877C15.4463 10.8807 15.3958 10.9665 15.3301 11.04L11.8301 15.04C11.7642 15.1165 11.683 15.1783 11.5917 15.2214C11.5004 15.2645 11.401 15.2879 11.3001 15.29L11.2501 15.23Z" fill="white"/>
<path d="M12.0001 21.7C11.8668 21.701 11.7356 21.6665 11.6201 21.6L3.87006 17.12C3.75621 17.0543 3.66192 16.9594 3.59689 16.8452C3.53186 16.7309 3.49844 16.6014 3.50006 16.47V7.52998C3.49844 7.39853 3.53186 7.26903 3.59689 7.15479C3.66192 7.04055 3.75621 6.94569 3.87006 6.87998L11.6201 2.39998C11.7347 2.33605 11.8638 2.30249 11.9951 2.30249C12.1263 2.30249 12.2554 2.33605 12.3701 2.39998L20.1201 6.87998C20.2365 6.94357 20.3334 7.03768 20.4003 7.15221C20.4673 7.26673 20.5018 7.39733 20.5001 7.52998V16.47C20.5018 16.6026 20.4673 16.7332 20.4003 16.8477C20.3334 16.9623 20.2365 17.0564 20.1201 17.12L12.3701 21.6C12.2586 21.6676 12.1304 21.7023 12.0001 21.7ZM5.00006 16L12.0001 20L19.0001 16V7.99998L12.0001 3.99998L5.00006 7.99998V16Z" fill="white"/>
</svg>
