<svg width="24" height="24" viewBox="0 0 24 24" fill="none" xmlns="http://www.w3.org/2000/svg">
<path d="M15.42 23H8.57996C8.38104 23 8.19028 22.921 8.04963 22.7803C7.90897 22.6397 7.82996 22.4489 7.82996 22.25V15.37C7.82996 15.1711 7.90897 14.9803 8.04963 14.8397C8.19028 14.699 8.38104 14.62 8.57996 14.62H15.42C15.5184 14.62 15.616 14.6394 15.707 14.6771C15.798 14.7148 15.8806 14.77 15.9503 14.8397C16.0199 14.9093 16.0752 14.992 16.1129 15.083C16.1506 15.174 16.17 15.2715 16.17 15.37V22.22C16.174 22.321 16.1576 22.4217 16.1217 22.5162C16.0858 22.6107 16.0312 22.697 15.9612 22.7698C15.8911 22.8427 15.8071 22.9006 15.7141 22.9402C15.6211 22.9797 15.521 23.0001 15.42 23ZM9.32996 21.5H14.67V16.12H9.32996V21.5Z" fill="white"/>
<path d="M17.25 16.12H6.75C6.55109 16.12 6.36032 16.041 6.21967 15.9003C6.07902 15.7597 6 15.5689 6 15.37C6 15.1711 6.07902 14.9803 6.21967 14.8397C6.36032 14.699 6.55109 14.62 6.75 14.62H17.25C17.4489 14.62 17.6397 14.699 17.7803 14.8397C17.921 14.9803 18 15.1711 18 15.37C18 15.5689 17.921 15.7597 17.7803 15.9003C17.6397 16.041 17.4489 16.12 17.25 16.12Z" fill="white"/>
<path d="M15.4199 9.38H8.57995C8.38103 9.38 8.19027 9.30098 8.04962 9.16033C7.90896 9.01968 7.82995 8.82891 7.82995 8.63V1.78C7.8259 1.67901 7.84231 1.57825 7.87819 1.48377C7.91407 1.38928 7.96867 1.30302 8.03872 1.23017C8.10877 1.15732 8.19282 1.09937 8.28583 1.05982C8.37884 1.02027 8.47888 0.999919 8.57995 1H15.4199C15.5184 1 15.616 1.0194 15.707 1.05709C15.798 1.09478 15.8806 1.15003 15.9503 1.21967C16.0199 1.28931 16.0752 1.37199 16.1129 1.46299C16.1505 1.55398 16.1699 1.65151 16.1699 1.75V8.63C16.1699 8.72849 16.1505 8.82602 16.1129 8.91701C16.0752 9.00801 16.0199 9.09069 15.9503 9.16033C15.8806 9.22997 15.798 9.28522 15.707 9.32291C15.616 9.3606 15.5184 9.38 15.4199 9.38ZM9.32995 7.88H14.6699V2.53H9.32995V7.88Z" fill="white"/>
<path d="M17.25 9.38H6.75C6.55109 9.38 6.36032 9.30099 6.21967 9.16033C6.07902 9.01968 6 8.82892 6 8.63C6 8.43109 6.07902 8.24033 6.21967 8.09967C6.36032 7.95902 6.55109 7.88 6.75 7.88H17.25C17.4489 7.88 17.6397 7.95902 17.7803 8.09967C17.921 8.24033 18 8.43109 18 8.63C18 8.82892 17.921 9.01968 17.7803 9.16033C17.6397 9.30099 17.4489 9.38 17.25 9.38Z" fill="white"/>
</svg>
