<svg width="24" height="24" viewBox="0 0 24 24" fill="none" xmlns="http://www.w3.org/2000/svg">
<path d="M12 15.49H6.35999C6.26113 15.4913 6.163 15.4728 6.0714 15.4356C5.97979 15.3984 5.89658 15.3432 5.82667 15.2733C5.75675 15.2034 5.70156 15.1202 5.66434 15.0286C5.62713 14.937 5.60865 14.8388 5.60999 14.74V9.25996C5.60865 9.16109 5.62713 9.06296 5.66434 8.97136C5.70156 8.87976 5.75675 8.79654 5.82667 8.72663C5.89658 8.65671 5.97979 8.60152 6.0714 8.56431C6.163 8.52709 6.26113 8.50861 6.35999 8.50996H12C12.1989 8.50996 12.3897 8.58897 12.5303 8.72963C12.671 8.87028 12.75 9.06104 12.75 9.25996V14.74C12.75 14.9389 12.671 15.1296 12.5303 15.2703C12.3897 15.4109 12.1989 15.49 12 15.49ZM7.10999 14H11.25V9.99996H7.10999V14Z" fill="white"/>
<path d="M17.64 15.49H12C11.8011 15.49 11.6103 15.4109 11.4697 15.2703C11.329 15.1296 11.25 14.9389 11.25 14.74V9.25996C11.25 9.06104 11.329 8.87028 11.4697 8.72963C11.6103 8.58897 11.8011 8.50996 12 8.50996H17.64C17.7389 8.50861 17.837 8.52709 17.9286 8.56431C18.0202 8.60152 18.1034 8.65671 18.1733 8.72663C18.2432 8.79654 18.2984 8.87976 18.3356 8.97136C18.3729 9.06296 18.3913 9.16109 18.39 9.25996V14.74C18.3913 14.8388 18.3729 14.937 18.3356 15.0286C18.2984 15.1202 18.2432 15.2034 18.1733 15.2733C18.1034 15.3432 18.0202 15.3984 17.9286 15.4356C17.837 15.4728 17.7389 15.4913 17.64 15.49ZM12.75 14H16.89V9.99996H12.75V14Z" fill="white"/>
<path d="M17.64 9.99995H12C11.8019 9.99736 11.6126 9.91751 11.4725 9.77741C11.3324 9.63732 11.2526 9.44805 11.25 9.24995V3.77995C11.2459 3.67896 11.2624 3.5782 11.2982 3.48371C11.3341 3.38923 11.3887 3.30297 11.4588 3.23011C11.5288 3.15726 11.6129 3.09932 11.7059 3.05977C11.7989 3.02021 11.8989 2.99987 12 2.99995H17.64C17.7389 2.9986 17.837 3.01708 17.9286 3.0543C18.0202 3.09151 18.1034 3.14671 18.1733 3.21662C18.2432 3.28653 18.2984 3.36975 18.3356 3.46135C18.3729 3.55295 18.3913 3.65108 18.39 3.74995V9.25995C18.3874 9.45712 18.3072 9.64533 18.1668 9.78382C18.0264 9.92232 17.8372 9.99996 17.64 9.99995ZM12.75 8.49995H16.89V4.49995H12.75V8.49995Z" fill="white"/>
<path d="M12 21H6.35999C6.16107 21 5.97031 20.921 5.82966 20.7803C5.689 20.6397 5.60999 20.4489 5.60999 20.25V14.74C5.61261 14.5428 5.69279 14.3546 5.83316 14.2161C5.97353 14.0776 6.16279 14 6.35999 14H12C12.1981 14.0026 12.3874 14.0824 12.5275 14.2225C12.6675 14.3626 12.7474 14.5519 12.75 14.75V20.24C12.75 20.4398 12.6713 20.6317 12.5309 20.7739C12.3906 20.9161 12.1998 20.9974 12 21ZM7.10999 19.5H11.25V15.5H7.10999V19.5Z" fill="white"/>
</svg>
