<svg width="24" height="24" viewBox="0 0 24 24" fill="none" xmlns="http://www.w3.org/2000/svg">
<path d="M12 22.75C11.0708 22.8048 10.1409 22.6539 9.27669 22.3082C8.41245 21.9625 7.63508 21.4305 6.99997 20.75C4.71997 18.17 5.19998 14.09 5.22998 13.92V6C5.24998 4.36 5.99997 1.25 8.99997 1.25C12 1.25 12.75 4.36 12.75 6V14C12.75 14.1989 12.671 14.3897 12.5303 14.5303C12.3897 14.671 12.1989 14.75 12 14.75C11.8011 14.75 11.6103 14.671 11.4696 14.5303C11.329 14.3897 11.25 14.1989 11.25 14V6C11.25 5.87 11.25 2.75 8.99997 2.75C6.74997 2.75 6.74997 5.87 6.74997 6V14C6.74997 14.13 6.32997 17.69 8.15997 19.75C8.65098 20.2662 9.24946 20.6681 9.91305 20.9273C10.5766 21.1866 11.2891 21.2967 12 21.25C12.7109 21.2967 13.4233 21.1866 14.0869 20.9273C14.7505 20.6681 15.349 20.2662 15.84 19.75C17.67 17.69 17.26 14.13 17.26 14.09V2C17.26 1.80109 17.339 1.61032 17.4796 1.46967C17.6203 1.32902 17.8111 1.25 18.01 1.25C18.2089 1.25 18.3997 1.32902 18.5403 1.46967C18.681 1.61032 18.76 1.80109 18.76 2V14C18.76 14.08 19.26 18.16 16.98 20.74C16.348 21.4196 15.5743 21.9519 14.7137 22.2993C13.8531 22.6466 12.9267 22.8005 12 22.75Z" fill="white"/>
</svg>
