<svg width="24" height="24" viewBox="0 0 24 24" fill="none" xmlns="http://www.w3.org/2000/svg">
<path d="M16.78 22.1199H6.78003C6.28542 22.1226 5.79515 22.0276 5.33731 21.8404C4.87947 21.6533 4.46305 21.3776 4.11191 21.0293C3.76077 20.6809 3.48181 20.2667 3.29102 19.8104C3.10022 19.3541 3.00134 18.8646 3.00003 18.3699V8.36995C2.99475 7.8745 3.08745 7.38289 3.27279 6.92339C3.45813 6.46389 3.73247 6.04554 4.08002 5.69241C4.42758 5.33928 4.8415 5.05833 5.298 4.86569C5.75449 4.67306 6.24456 4.57255 6.74003 4.56995H16.74C17.7338 4.57259 18.6861 4.96852 19.3888 5.67121C20.0915 6.3739 20.4874 7.3262 20.49 8.31995V18.3699C20.4875 19.3568 20.0971 20.3031 19.403 21.0047C18.7089 21.7063 17.7668 22.1068 16.78 22.1199ZM6.78003 6.11995C6.18496 6.10922 5.60989 6.3347 5.1807 6.74703C4.7515 7.15935 4.50316 7.72493 4.49003 8.31995V18.3699C4.49003 18.9667 4.72708 19.539 5.14904 19.9609C5.571 20.3829 6.14329 20.6199 6.74003 20.6199H16.74C17.0363 20.6213 17.33 20.564 17.6041 20.4516C17.8783 20.3391 18.1275 20.1735 18.3375 19.9645C18.5475 19.7554 18.7141 19.5069 18.8278 19.2333C18.9415 18.9597 19 18.6663 19 18.3699V8.36995C19 8.07447 18.9418 7.78189 18.8288 7.50891C18.7157 7.23593 18.55 6.98789 18.341 6.77896C18.1321 6.57002 17.8841 6.40429 17.6111 6.29122C17.3381 6.17814 17.0455 6.11995 16.75 6.11995H6.78003Z" fill="white"/>
<path d="M21.64 11.42H1.89001C1.6911 11.42 1.50034 11.341 1.35968 11.2004C1.21903 11.0597 1.14001 10.869 1.14001 10.67C1.14001 10.4711 1.21903 10.2804 1.35968 10.1397C1.50034 9.99906 1.6911 9.92004 1.89001 9.92004H21.64C21.8389 9.92004 22.0297 9.99906 22.1703 10.1397C22.311 10.2804 22.39 10.4711 22.39 10.67C22.39 10.869 22.311 11.0597 22.1703 11.2004C22.0297 11.341 21.8389 11.42 21.64 11.42Z" fill="white"/>
<path d="M11.76 6.07C11.6615 6.07047 11.5639 6.05125 11.4728 6.01347C11.3818 5.97569 11.2993 5.92011 11.23 5.85L8.60004 3.23C8.45947 3.08811 8.38103 2.89619 8.38197 2.69647C8.3829 2.49674 8.46314 2.30557 8.60503 2.165C8.74693 2.02444 8.93884 1.946 9.13857 1.94693C9.3383 1.94787 9.52947 2.02811 9.67004 2.17L11.76 4.26L13.92 2.1C13.99 2.02742 14.0739 1.96968 14.1667 1.93024C14.2594 1.89081 14.3592 1.87048 14.46 1.87048C14.5608 1.87048 14.6606 1.89081 14.7534 1.93024C14.8462 1.96968 14.9301 2.02742 15 2.1C15.0708 2.16895 15.127 2.25136 15.1654 2.34239C15.2038 2.43342 15.2236 2.53121 15.2236 2.63C15.2236 2.7288 15.2038 2.82659 15.1654 2.91762C15.127 3.00864 15.0708 3.09106 15 3.16L12.29 5.85C12.2219 5.92154 12.1395 5.97805 12.0483 6.01593C11.957 6.05382 11.8588 6.07223 11.76 6.07Z" fill="white"/>
<path d="M11.76 22.12C11.5619 22.1175 11.3726 22.0376 11.2325 21.8975C11.0924 21.7574 11.0126 21.5682 11.01 21.37V10.67C11.01 10.4711 11.089 10.2804 11.2297 10.1397C11.3703 9.99906 11.5611 9.92004 11.76 9.92004C11.9589 9.92004 12.1497 9.99906 12.2903 10.1397C12.431 10.2804 12.51 10.4711 12.51 10.67V21.37C12.51 21.4685 12.4906 21.5661 12.4529 21.6571C12.4152 21.7481 12.36 21.8307 12.2903 21.9004C12.2207 21.97 12.138 22.0253 12.047 22.063C11.956 22.1006 11.8585 22.12 11.76 22.12Z" fill="white"/>
<path d="M19.78 16.17H3.78003C3.58112 16.17 3.39035 16.091 3.2497 15.9504C3.10905 15.8097 3.03003 15.619 3.03003 15.42C3.03003 15.2211 3.10905 15.0304 3.2497 14.8897C3.39035 14.7491 3.58112 14.67 3.78003 14.67H19.78C19.9789 14.67 20.1697 14.7491 20.3104 14.8897C20.451 15.0304 20.53 15.2211 20.53 15.42C20.53 15.619 20.451 15.8097 20.3104 15.9504C20.1697 16.091 19.9789 16.17 19.78 16.17Z" fill="white"/>
</svg>
