<svg width="24" height="24" viewBox="0 0 24 24" fill="none" xmlns="http://www.w3.org/2000/svg">
<path d="M12 17.2799C11.3084 17.2786 10.6238 17.1409 9.98551 16.8747C9.34718 16.6086 8.76761 16.2191 8.27998 15.7287C7.79234 15.2383 7.4062 14.6565 7.14366 14.0167C6.88113 13.3768 6.74735 12.6915 6.74998 11.9999V6.1499C6.74998 4.75752 7.3031 3.42216 8.28767 2.43759C9.27223 1.45303 10.6076 0.899902 12 0.899902C13.3924 0.899902 14.7277 1.45303 15.7123 2.43759C16.6969 3.42216 17.25 4.75752 17.25 6.1499V11.9999C17.2526 12.6915 17.1188 13.3768 16.8563 14.0167C16.5938 14.6565 16.2076 15.2383 15.72 15.7287C15.2323 16.2191 14.6528 16.6086 14.0144 16.8747C13.3761 17.1409 12.6916 17.2786 12 17.2799ZM12 2.4099C11.0071 2.4099 10.0548 2.80361 9.35186 3.50471C8.64888 4.20581 8.25262 5.15707 8.24998 6.1499V11.9999C8.24998 12.9945 8.64507 13.9483 9.34833 14.6516C10.0516 15.3548 11.0054 15.7499 12 15.7499C12.9945 15.7499 13.9484 15.3548 14.6516 14.6516C15.3549 13.9483 15.75 12.9945 15.75 11.9999V6.1499C15.7473 5.15707 15.3511 4.20581 14.6481 3.50471C13.9451 2.80361 12.9928 2.4099 12 2.4099Z" fill="white"/>
<path d="M16.5 23.0898H7.5C7.30109 23.0898 7.11032 23.0108 6.96967 22.8701C6.82902 22.7295 6.75 22.5387 6.75 22.3398C6.75 22.1409 6.82902 21.9501 6.96967 21.8095C7.11032 21.6688 7.30109 21.5898 7.5 21.5898H11.25V16.5298C11.25 16.3309 11.329 16.1401 11.4697 15.9995C11.6103 15.8588 11.8011 15.7798 12 15.7798C12.1989 15.7798 12.3897 15.8588 12.5303 15.9995C12.671 16.1401 12.75 16.3309 12.75 16.5298V21.5898H16.5C16.6989 21.5898 16.8897 21.6688 17.0303 21.8095C17.171 21.9501 17.25 22.1409 17.25 22.3398C17.25 22.5387 17.171 22.7295 17.0303 22.8701C16.8897 23.0108 16.6989 23.0898 16.5 23.0898Z" fill="white"/>
<path d="M16.5 8.09985H13.37C13.1711 8.09985 12.9803 8.02084 12.8397 7.88018C12.699 7.73953 12.62 7.54877 12.62 7.34985C12.62 7.15094 12.699 6.96018 12.8397 6.81952C12.9803 6.67887 13.1711 6.59985 13.37 6.59985H16.5C16.6989 6.59985 16.8897 6.67887 17.0303 6.81952C17.171 6.96018 17.25 7.15094 17.25 7.34985C17.25 7.54877 17.171 7.73953 17.0303 7.88018C16.8897 8.02084 16.6989 8.09985 16.5 8.09985Z" fill="white"/>
<path d="M16.5 12.0698H13.37C13.1711 12.0698 12.9803 11.9908 12.8397 11.8502C12.699 11.7095 12.62 11.5187 12.62 11.3198C12.62 11.1209 12.699 10.9301 12.8397 10.7895C12.9803 10.6488 13.1711 10.5698 13.37 10.5698H16.5C16.6989 10.5698 16.8897 10.6488 17.0303 10.7895C17.171 10.9301 17.25 11.1209 17.25 11.3198C17.25 11.5187 17.171 11.7095 17.0303 11.8502C16.8897 11.9908 16.6989 12.0698 16.5 12.0698Z" fill="white"/>
</svg>
