<svg width="24" height="24" viewBox="0 0 24 24" fill="none" xmlns="http://www.w3.org/2000/svg">
<path d="M16.21 18.25H7.78998C6.13237 18.25 4.54266 17.5915 3.37056 16.4194C2.19846 15.2473 1.53998 13.6576 1.53998 12C1.53998 10.3424 2.19846 8.75269 3.37056 7.58058C4.54266 6.40848 6.13237 5.75 7.78998 5.75H16.21C17.8676 5.75 19.4573 6.40848 20.6294 7.58058C21.8015 8.75269 22.46 10.3424 22.46 12C22.46 13.6576 21.8015 15.2473 20.6294 16.4194C19.4573 17.5915 17.8676 18.25 16.21 18.25ZM7.78998 7.25C6.5302 7.25 5.32202 7.75045 4.43122 8.64124C3.54042 9.53204 3.03998 10.7402 3.03998 12C3.03998 13.2598 3.54042 14.468 4.43122 15.3588C5.32202 16.2496 6.5302 16.75 7.78998 16.75H16.21C17.4698 16.75 18.6779 16.2496 19.5687 15.3588C20.4595 14.468 20.96 13.2598 20.96 12C20.96 10.7402 20.4595 9.53204 19.5687 8.64124C18.6779 7.75045 17.4698 7.25 16.21 7.25H7.78998Z" fill="white"/>
<path d="M6.46997 14.3299C6.27106 14.3299 6.08029 14.2509 5.93964 14.1103C5.79899 13.9696 5.71997 13.7788 5.71997 13.5799V10.4199C5.71997 10.221 5.79899 10.0302 5.93964 9.88959C6.08029 9.74894 6.27106 9.66992 6.46997 9.66992C6.66888 9.66992 6.85965 9.74894 7.0003 9.88959C7.14095 10.0302 7.21997 10.221 7.21997 10.4199V13.5799C7.21738 13.778 7.13753 13.9673 6.99744 14.1074C6.85734 14.2475 6.66808 14.3273 6.46997 14.3299Z" fill="white"/>
<path d="M13.77 14.3299C13.571 14.3299 13.3803 14.2509 13.2396 14.1103C13.099 13.9696 13.02 13.7788 13.02 13.5799V10.4199C13.02 10.221 13.099 10.0302 13.2396 9.88959C13.3803 9.74894 13.571 9.66992 13.77 9.66992C13.9689 9.66992 14.1596 9.74894 14.3003 9.88959C14.4409 10.0302 14.52 10.221 14.52 10.4199V13.5799C14.5174 13.778 14.4375 13.9673 14.2974 14.1074C14.1573 14.2475 13.9681 14.3273 13.77 14.3299Z" fill="white"/>
<path d="M10.12 14.3299C9.92108 14.3299 9.73032 14.2509 9.58967 14.1103C9.44901 13.9696 9.37 13.7788 9.37 13.5799V10.4199C9.37 10.221 9.44901 10.0302 9.58967 9.88959C9.73032 9.74894 9.92108 9.66992 10.12 9.66992C10.3189 9.66992 10.5097 9.74894 10.6503 9.88959C10.791 10.0302 10.87 10.221 10.87 10.4199V13.5799C10.8674 13.778 10.7876 13.9673 10.6475 14.1074C10.5074 14.2475 10.3181 14.3273 10.12 14.3299Z" fill="white"/>
</svg>
