<svg width="24" height="24" viewBox="0 0 24 24" fill="none" xmlns="http://www.w3.org/2000/svg">
<path d="M12 21.68C10.084 21.6821 8.21041 21.1155 6.61662 20.052C5.02284 18.9885 3.78052 17.4759 3.047 15.7058C2.31349 13.9358 2.12178 11.9878 2.49614 10.1087C2.87051 8.22959 3.79412 6.50385 5.15 5.15004C6.27575 4.02039 7.66293 3.18605 9.18845 2.72106C10.714 2.25607 12.3307 2.1748 13.8952 2.48446C15.4596 2.79412 16.9235 3.48513 18.1568 4.4962C19.3902 5.50726 20.355 6.80711 20.9655 8.28044C21.576 9.75376 21.8135 11.355 21.6568 12.9421C21.5001 14.5292 20.9541 16.0531 20.0673 17.3786C19.1804 18.7041 17.9801 19.7902 16.5728 20.5405C15.1655 21.2909 13.5948 21.6823 12 21.68ZM12 3.82004C10.9249 3.81631 9.85968 4.02559 8.8659 4.43581C7.87212 4.84602 6.96944 5.44904 6.21 6.21004C4.72575 7.7561 3.90668 9.82237 3.92853 11.9655C3.95039 14.1085 4.81143 16.1577 6.3269 17.6731C7.84237 19.1886 9.8915 20.0496 12.0346 20.0715C14.1777 20.0934 16.2439 19.2743 17.79 17.79C18.9364 16.646 19.7173 15.1874 20.0339 13.5991C20.3505 12.0108 20.1885 10.3642 19.5684 8.86809C18.9483 7.37195 17.8981 6.09354 16.5507 5.19487C15.2034 4.2962 13.6196 3.81771 12 3.82004Z" fill="white"/>
<path d="M12 14.6901C11.468 14.6901 10.9479 14.5323 10.5055 14.2367C10.0631 13.9411 9.71836 13.521 9.51476 13.0295C9.31116 12.5379 9.25789 11.9971 9.36169 11.4753C9.46548 10.9535 9.72168 10.4741 10.0979 10.0979C10.4741 9.72174 10.9534 9.46554 11.4752 9.36175C11.997 9.25795 12.5379 9.31122 13.0294 9.51482C13.5209 9.71842 13.9411 10.0632 14.2367 10.5056C14.5322 10.9479 14.69 11.468 14.69 12.0001C14.6874 12.7127 14.4031 13.3954 13.8992 13.8993C13.3953 14.4032 12.7126 14.6874 12 14.6901ZM12 10.8101C11.7646 10.8101 11.5346 10.8799 11.3389 11.0106C11.1432 11.1414 10.9907 11.3272 10.9006 11.5447C10.8105 11.7621 10.7869 12.0014 10.8329 12.2322C10.8788 12.4631 10.9921 12.6751 11.1585 12.8415C11.325 13.0079 11.537 13.1213 11.7678 13.1672C11.9987 13.2131 12.2379 13.1895 12.4554 13.0995C12.6728 13.0094 12.8587 12.8569 12.9894 12.6612C13.1202 12.4655 13.19 12.2354 13.19 12.0001C13.19 11.6845 13.0646 11.3818 12.8415 11.1586C12.6183 10.9354 12.3156 10.8101 12 10.8101Z" fill="white"/>
<path d="M20.94 12.75H13.94C13.7411 12.75 13.5503 12.671 13.4097 12.5303C13.269 12.3897 13.19 12.1989 13.19 12C13.19 11.8011 13.269 11.6103 13.4097 11.4697C13.5503 11.329 13.7411 11.25 13.94 11.25H20.94C21.1389 11.25 21.3297 11.329 21.4703 11.4697C21.611 11.6103 21.69 11.8011 21.69 12C21.69 12.1989 21.611 12.3897 21.4703 12.5303C21.3297 12.671 21.1389 12.75 20.94 12.75Z" fill="white"/>
<path d="M10.06 12.75H3.06C2.86109 12.75 2.67032 12.671 2.52967 12.5303C2.38902 12.3897 2.31 12.1989 2.31 12C2.31 11.8011 2.38902 11.6103 2.52967 11.4697C2.67032 11.329 2.86109 11.25 3.06 11.25H10.06C10.2589 11.25 10.4497 11.329 10.5903 11.4697C10.731 11.6103 10.81 11.8011 10.81 12C10.81 12.1989 10.731 12.3897 10.5903 12.5303C10.4497 12.671 10.2589 12.75 10.06 12.75Z" fill="white"/>
<path d="M12 21.6901C11.8019 21.6875 11.6126 21.6076 11.4725 21.4675C11.3324 21.3274 11.2526 21.1382 11.25 20.9401V13.9401C11.25 13.7412 11.329 13.5504 11.4697 13.4097C11.6103 13.2691 11.8011 13.1901 12 13.1901C12.1989 13.1901 12.3897 13.2691 12.5303 13.4097C12.671 13.5504 12.75 13.7412 12.75 13.9401V20.9401C12.7474 21.1382 12.6676 21.3274 12.5275 21.4675C12.3874 21.6076 12.1981 21.6875 12 21.6901Z" fill="white"/>
</svg>
