<svg width="24" height="24" viewBox="0 0 24 24" fill="none" xmlns="http://www.w3.org/2000/svg">
<path d="M16 12.75H8C7.80109 12.75 7.61032 12.671 7.46967 12.5303C7.32902 12.3897 7.25 12.1989 7.25 12C7.25 11.8011 7.32902 11.6103 7.46967 11.4697C7.61032 11.329 7.80109 11.25 8 11.25H16C16.1989 11.25 16.3897 11.329 16.5303 11.4697C16.671 11.6103 16.75 11.8011 16.75 12C16.75 12.1989 16.671 12.3897 16.5303 12.5303C16.3897 12.671 16.1989 12.75 16 12.75Z" fill="white"/>
<path d="M12 21.7C11.8667 21.701 11.7355 21.6665 11.62 21.6L3.86999 17.12C3.75615 17.0543 3.66186 16.9594 3.59683 16.8452C3.5318 16.7309 3.49838 16.6014 3.5 16.47V7.52998C3.49838 7.39853 3.5318 7.26903 3.59683 7.15479C3.66186 7.04055 3.75615 6.94569 3.86999 6.87998L11.62 2.39998C11.7346 2.33605 11.8637 2.30249 11.995 2.30249C12.1263 2.30249 12.2553 2.33605 12.37 2.39998L20.12 6.87998C20.2364 6.94357 20.3333 7.03768 20.4003 7.15221C20.4672 7.26673 20.5017 7.39733 20.5 7.52998V16.47C20.5017 16.6026 20.4672 16.7332 20.4003 16.8477C20.3333 16.9623 20.2364 17.0564 20.12 17.12L12.37 21.6C12.2586 21.6676 12.1303 21.7023 12 21.7ZM4.99999 16L12 20L19 16V7.99998L12 3.99998L4.99999 7.99998V16Z" fill="white"/>
</svg>
