<svg width="24" height="24" viewBox="0 0 24 24" fill="none" xmlns="http://www.w3.org/2000/svg">
<path d="M17 20.75H7C6.00544 20.75 5.05161 20.3549 4.34835 19.6517C3.64509 18.9484 3.25 17.9946 3.25 17V7C3.25 6.00544 3.64509 5.05161 4.34835 4.34835C5.05161 3.64509 6.00544 3.25 7 3.25H17C17.9946 3.25 18.9484 3.64509 19.6517 4.34835C20.3549 5.05161 20.75 6.00544 20.75 7V17C20.75 17.9946 20.3549 18.9484 19.6517 19.6517C18.9484 20.3549 17.9946 20.75 17 20.75ZM7 4.75C6.40326 4.75 5.83097 4.98705 5.40901 5.40901C4.98705 5.83097 4.75 6.40326 4.75 7V17C4.75 17.5967 4.98705 18.169 5.40901 18.591C5.83097 19.0129 6.40326 19.25 7 19.25H17C17.5967 19.25 18.169 19.0129 18.591 18.591C19.0129 18.169 19.25 17.5967 19.25 17V7C19.25 6.40326 19.0129 5.83097 18.591 5.40901C18.169 4.98705 17.5967 4.75 17 4.75H7Z" fill="white"/>
<path d="M12 17.75C11.8011 17.75 11.6103 17.6709 11.4697 17.5303C11.329 17.3896 11.25 17.1989 11.25 17C11.2512 16.9012 11.268 16.8034 11.3 16.71C11.3415 16.6203 11.3992 16.5389 11.47 16.47C11.5394 16.4022 11.6207 16.3479 11.71 16.31C11.7999 16.2706 11.8969 16.2502 11.995 16.2502C12.0931 16.2502 12.1901 16.2706 12.28 16.31C12.3735 16.3453 12.4587 16.3998 12.53 16.47C12.5978 16.5393 12.6521 16.6207 12.69 16.71C12.7299 16.8014 12.7503 16.9002 12.75 17C12.7498 17.1988 12.6707 17.3894 12.53 17.53C12.3883 17.6688 12.1984 17.7477 12 17.75Z" fill="white"/>
<path d="M14.5 13.75H9.5C8.63805 13.75 7.8114 13.4076 7.2019 12.7981C6.59241 12.1886 6.25 11.362 6.25 10.5C6.25 9.63805 6.59241 8.8114 7.2019 8.2019C7.8114 7.59241 8.63805 7.25 9.5 7.25H14.5C15.362 7.25 16.1886 7.59241 16.7981 8.2019C17.4076 8.8114 17.75 9.63805 17.75 10.5C17.75 11.362 17.4076 12.1886 16.7981 12.7981C16.1886 13.4076 15.362 13.75 14.5 13.75ZM9.5 8.75C9.03587 8.75 8.59075 8.93437 8.26256 9.26256C7.93437 9.59075 7.75 10.0359 7.75 10.5C7.75 10.9641 7.93437 11.4092 8.26256 11.7374C8.59075 12.0656 9.03587 12.25 9.5 12.25H14.5C14.9641 12.25 15.4092 12.0656 15.7374 11.7374C16.0656 11.4092 16.25 10.9641 16.25 10.5C16.25 10.0359 16.0656 9.59075 15.7374 9.26256C15.4092 8.93437 14.9641 8.75 14.5 8.75H9.5Z" fill="white"/>
</svg>
