<svg width="24" height="24" viewBox="0 0 24 24" fill="none" xmlns="http://www.w3.org/2000/svg">
<path d="M18.63 14.41C18.4319 14.4074 18.2426 14.3276 18.1025 14.1875C17.9624 14.0474 17.8826 13.8581 17.88 13.66V8.13C17.88 7.35783 17.7279 6.59322 17.4324 5.87982C17.1369 5.16643 16.7038 4.51822 16.1578 3.97221C15.6118 3.4262 14.9636 2.99309 14.2502 2.69759C13.5368 2.40209 12.7722 2.25 12 2.25C11.2278 2.25 10.4632 2.40209 9.74982 2.69759C9.03642 2.99309 8.38822 3.4262 7.84221 3.97221C7.2962 4.51822 6.86308 5.16643 6.56758 5.87982C6.27209 6.59322 6.12 7.35783 6.12 8.13V13.66C6.12 13.8589 6.04098 14.0497 5.90033 14.1903C5.75967 14.331 5.56891 14.41 5.37 14.41C5.17108 14.41 4.98032 14.331 4.83966 14.1903C4.69901 14.0497 4.62 13.8589 4.62 13.66V8.13C4.62 6.1727 5.39753 4.29557 6.78155 2.91155C8.16557 1.52753 10.0427 0.75 12 0.75C13.9573 0.75 15.8344 1.52753 17.2184 2.91155C18.6025 4.29557 19.38 6.1727 19.38 8.13V13.66C19.38 13.8589 19.301 14.0497 19.1603 14.1903C19.0197 14.331 18.8289 14.41 18.63 14.41Z" fill="white"/>
<path d="M22 14.4101H2.04999C1.85188 14.4075 1.66262 14.3276 1.52252 14.1876C1.38243 14.0475 1.30258 13.8582 1.29999 13.6601V10.3401C1.29999 10.1412 1.37901 9.95041 1.51966 9.80976C1.66031 9.6691 1.85108 9.59009 2.04999 9.59009C2.2489 9.59009 2.43967 9.6691 2.58032 9.80976C2.72097 9.95041 2.79999 10.1412 2.79999 10.3401V12.9101H21.2V10.3401C21.2 10.1412 21.279 9.95041 21.4197 9.80976C21.5603 9.6691 21.7511 9.59009 21.95 9.59009C22.1489 9.59009 22.3397 9.6691 22.4803 9.80976C22.621 9.95041 22.7 10.1412 22.7 10.3401V13.6601C22.6981 13.8499 22.6252 14.0322 22.4956 14.171C22.3661 14.3098 22.1893 14.3951 22 14.4101Z" fill="white"/>
<path d="M12 23.2499C11.8019 23.2473 11.6126 23.1675 11.4725 23.0274C11.3324 22.8873 11.2526 22.698 11.25 22.4999V13.6599C11.25 13.461 11.329 13.2702 11.4697 13.1296C11.6103 12.9889 11.8011 12.9099 12 12.9099C12.1989 12.9099 12.3897 12.9889 12.5303 13.1296C12.671 13.2702 12.75 13.461 12.75 13.6599V22.4999C12.7474 22.698 12.6676 22.8873 12.5275 23.0274C12.3874 23.1675 12.1981 23.2473 12 23.2499Z" fill="white"/>
<path d="M7.57996 23.2499C7.38185 23.2473 7.19259 23.1675 7.05249 23.0274C6.9124 22.8873 6.83255 22.698 6.82996 22.4999C6.80623 21.8146 6.92373 21.1317 7.17515 20.4937C7.42657 19.8557 7.80654 19.2763 8.29143 18.7914C8.77632 18.3065 9.35577 17.9265 9.99376 17.6751C10.6317 17.4237 11.3146 17.3062 12 17.3299C12.1989 17.3299 12.3896 17.4089 12.5303 17.5496C12.6709 17.6902 12.75 17.881 12.75 18.0799C12.75 18.2788 12.6709 18.4696 12.5303 18.6102C12.3896 18.7509 12.1989 18.8299 12 18.8299C11.5139 18.8146 11.0298 18.8991 10.5776 19.0782C10.1255 19.2572 9.71479 19.527 9.3709 19.8708C9.02702 20.2147 8.75724 20.6254 8.57821 21.0776C8.39918 21.5298 8.31469 22.0138 8.32996 22.4999C8.32737 22.698 8.24752 22.8873 8.10742 23.0274C7.96733 23.1675 7.77807 23.2473 7.57996 23.2499Z" fill="white"/>
<path d="M16.42 23.2499C16.2211 23.2499 16.0303 23.1709 15.8897 23.0302C15.749 22.8896 15.67 22.6988 15.67 22.4999C15.6897 22.0127 15.6083 21.5266 15.4309 21.0724C15.2534 20.6182 14.9838 20.2057 14.639 19.8609C14.2942 19.5161 13.8817 19.2465 13.4275 19.069C12.9733 18.8916 12.4872 18.8102 12 18.8299C11.8011 18.8299 11.6103 18.7509 11.4697 18.6102C11.329 18.4696 11.25 18.2788 11.25 18.0799C11.25 17.881 11.329 17.6902 11.4697 17.5496C11.6103 17.4089 11.8011 17.3299 12 17.3299C12.6853 17.3062 13.3682 17.4237 14.0062 17.6751C14.6442 17.9265 15.2236 18.3065 15.7085 18.7914C16.1934 19.2763 16.5734 19.8557 16.8248 20.4937C17.0762 21.1317 17.1937 21.8146 17.17 22.4999C17.17 22.6988 17.091 22.8896 16.9503 23.0302C16.8097 23.1709 16.6189 23.2499 16.42 23.2499Z" fill="white"/>
</svg>
