<svg width="24" height="24" viewBox="0 0 24 24" fill="none" xmlns="http://www.w3.org/2000/svg">
<path d="M11.8 22.3777C3.1 22.3777 3 13.7077 3 13.6177V5.52771C2.99968 5.38523 3.03995 5.2456 3.1161 5.12517C3.19226 5.00475 3.30114 4.9085 3.43 4.84771L11.48 1.06771C11.5808 1.02306 11.6898 1 11.8 1C11.9102 1 12.0192 1.02306 12.12 1.06771L20.17 4.84771C20.2989 4.9085 20.4077 5.00475 20.4839 5.12517C20.5601 5.2456 20.6003 5.38523 20.6 5.52771V13.6177C20.6 13.6877 20.5 22.3777 11.8 22.3777ZM4.5 6.00771V13.6177C4.5 13.9177 4.61 20.8777 11.8 20.8777C18.99 20.8777 19.1 13.8777 19.1 13.6177V6.00771L11.8 2.57771L4.5 6.00771Z" fill="white"/>
<path d="M17.61 20.1377C17.5115 20.1381 17.4138 20.1189 17.3228 20.0811C17.2318 20.0434 17.1493 19.9878 17.08 19.9177L3.22003 6.05768C3.08755 5.9155 3.01543 5.72746 3.01885 5.53316C3.02228 5.33885 3.10099 5.15347 3.23841 5.01606C3.37582 4.87864 3.56121 4.79993 3.75551 4.7965C3.94981 4.79308 4.13785 4.8652 4.28003 4.99768L18.14 18.8577C18.2108 18.9266 18.267 19.009 18.3054 19.1001C18.3438 19.1911 18.3636 19.2889 18.3636 19.3877C18.3636 19.4865 18.3438 19.5843 18.3054 19.6753C18.267 19.7663 18.2108 19.8487 18.14 19.9177C18.0719 19.9892 17.9895 20.0457 17.8982 20.0836C17.807 20.1215 17.7088 20.1399 17.61 20.1377Z" fill="white"/>
<path d="M5.97998 20.1477C5.78198 20.1434 5.59283 20.0649 5.44998 19.9277C5.31129 19.7841 5.23376 19.5923 5.23376 19.3927C5.23376 19.1931 5.31129 19.0012 5.44998 18.8577L19.32 4.99768C19.4622 4.8652 19.6502 4.79308 19.8445 4.7965C20.0388 4.79993 20.2242 4.87864 20.3616 5.01606C20.499 5.15347 20.5777 5.33885 20.5812 5.53316C20.5846 5.72746 20.5125 5.9155 20.38 6.05768L6.50998 19.9277C6.36946 20.0684 6.17883 20.1475 5.97998 20.1477Z" fill="white"/>
</svg>
