<svg width="24" height="24" viewBox="0 0 24 24" fill="none" xmlns="http://www.w3.org/2000/svg">
<path d="M6.25995 16.5801C6.1302 16.5799 6.00276 16.5457 5.89043 16.4807C5.7781 16.4158 5.68482 16.3224 5.61995 16.2101C4.88342 15.0009 4.45167 13.6309 4.36185 12.2179C4.27202 10.8049 4.52682 9.39129 5.1043 8.09858C5.68179 6.80587 6.56468 5.67281 7.67703 4.79688C8.78937 3.92094 10.0979 3.32834 11.4899 3.07008C11.6862 3.03427 11.8887 3.0779 12.0527 3.19136C12.2168 3.30482 12.3291 3.47882 12.3649 3.67508C12.4008 3.87134 12.3571 4.07378 12.2437 4.23788C12.1302 4.40197 11.9562 4.51427 11.7599 4.55008C10.3906 4.80412 9.12356 5.44774 8.11078 6.40376C7.098 7.35978 6.38246 8.58762 6.04995 9.94008C5.60575 11.8141 5.91074 13.7876 6.89995 15.4401C6.99397 15.6071 7.02045 15.8039 6.97396 15.9898C6.92747 16.1758 6.81152 16.3369 6.64995 16.4401C6.53472 16.5206 6.40009 16.5689 6.25995 16.5801Z" fill="white"/>
<path d="M13.1 20.43C11.7058 20.4223 10.3338 20.0794 9.10003 19.43C9.00326 19.3912 8.91565 19.3326 8.84278 19.2581C8.76991 19.1835 8.71338 19.0946 8.67681 18.9969C8.64024 18.8993 8.62442 18.7951 8.63037 18.691C8.63632 18.5869 8.66391 18.4852 8.71137 18.3924C8.75883 18.2996 8.82512 18.2177 8.90601 18.1519C8.98691 18.0861 9.08062 18.038 9.18118 18.0104C9.28174 17.9829 9.38693 17.9767 9.49004 17.9921C9.59315 18.0075 9.69192 18.0442 9.78003 18.1C10.8269 18.6436 11.9905 18.9236 13.1701 18.9157C14.3497 18.9078 15.5095 18.6122 16.5489 18.0545C17.5884 17.4969 18.4761 16.694 19.135 15.7156C19.7939 14.7372 20.2041 13.6128 20.33 12.44C20.3344 12.3379 20.3596 12.2379 20.404 12.1459C20.4484 12.054 20.5111 11.9721 20.5883 11.9052C20.6655 11.8384 20.7555 11.788 20.8529 11.7572C20.9502 11.7263 21.0529 11.7157 21.1545 11.7259C21.2561 11.7362 21.3545 11.767 21.4438 11.8167C21.533 11.8663 21.6112 11.9336 21.6735 12.0145C21.7358 12.0954 21.7809 12.1881 21.8061 12.2871C21.8313 12.3861 21.8361 12.4891 21.82 12.59C21.622 14.4626 20.8251 16.2213 19.5478 17.6049C18.2705 18.9885 16.5809 19.9232 14.73 20.27C14.1928 20.3736 13.6471 20.4271 13.1 20.43Z" fill="white"/>
<path d="M5.35 20.94C5.11278 20.9406 4.87919 20.8818 4.67054 20.769C4.46189 20.6561 4.28484 20.4928 4.15556 20.2939C4.02628 20.095 3.94888 19.8669 3.93044 19.6304C3.91201 19.3939 3.95311 19.1565 4.05 18.94L5.58 15.52C5.62005 15.4267 5.67808 15.3423 5.75077 15.2715C5.82345 15.2007 5.90937 15.1449 6.00362 15.1073C6.09787 15.0697 6.19861 15.051 6.30008 15.0523C6.40155 15.0536 6.50176 15.0749 6.595 15.115C6.68824 15.155 6.77268 15.2131 6.84349 15.2857C6.9143 15.3584 6.97011 15.4444 7.00772 15.5386C7.04532 15.6329 7.064 15.7336 7.06267 15.8351C7.06135 15.9365 7.04006 16.0367 7 16.13L5.5 19.38L9.17 18.07C9.26564 18.0319 9.36801 18.0137 9.4709 18.0164C9.57379 18.0191 9.67507 18.0427 9.76858 18.0857C9.86209 18.1287 9.94589 18.1903 10.0149 18.2666C10.0839 18.343 10.1367 18.4326 10.17 18.53C10.2096 18.6255 10.229 18.7281 10.227 18.8314C10.225 18.9348 10.2017 19.0366 10.1585 19.1305C10.1153 19.2244 10.0532 19.3083 9.97598 19.3771C9.8988 19.4458 9.80825 19.4979 9.71 19.53L5.82 20.86C5.6686 20.9115 5.50993 20.9385 5.35 20.94Z" fill="white"/>
<path d="M15.41 9.53019C15.3136 9.52941 15.2183 9.509 15.13 9.47019C14.9914 9.41584 14.8723 9.3209 14.7884 9.19779C14.7046 9.07469 14.6598 8.92914 14.66 8.78019V4.69019C14.66 4.49127 14.7391 4.30051 14.8797 4.15986C15.0204 4.0192 15.2111 3.94019 15.41 3.94019C15.6089 3.94019 15.7997 4.0192 15.9404 4.15986C16.081 4.30051 16.16 4.49127 16.16 4.69019V7.00019L19 4.16019C19.1407 4.01973 19.3313 3.94085 19.53 3.94085C19.7288 3.94085 19.9194 4.01973 20.06 4.16019C20.1308 4.22913 20.187 4.31155 20.2254 4.40257C20.2638 4.4936 20.2836 4.59139 20.2836 4.69019C20.2836 4.78898 20.2638 4.88677 20.2254 4.9778C20.187 5.06882 20.1308 5.15124 20.06 5.22019L15.94 9.31019C15.7995 9.45088 15.6089 9.53001 15.41 9.53019Z" fill="white"/>
<path d="M19.5 9.53003H15.41C15.2111 9.53003 15.0204 9.45101 14.8797 9.31036C14.7391 9.16971 14.66 8.97894 14.66 8.78003C14.66 8.58112 14.7391 8.39035 14.8797 8.2497C15.0204 8.10905 15.2111 8.03003 15.41 8.03003H19.5C19.6989 8.03003 19.8897 8.10905 20.0304 8.2497C20.171 8.39035 20.25 8.58112 20.25 8.78003C20.25 8.97894 20.171 9.16971 20.0304 9.31036C19.8897 9.45101 19.6989 9.53003 19.5 9.53003Z" fill="white"/>
</svg>
