<svg width="24" height="24" viewBox="0 0 24 24" fill="none" xmlns="http://www.w3.org/2000/svg">
<path d="M19.5 20.48H3.5C3.03587 20.48 2.59075 20.2956 2.26256 19.9674C1.93437 19.6392 1.75 19.1941 1.75 18.73V14.73C1.75783 14.2702 1.94535 13.8317 2.27241 13.5083C2.59947 13.185 3.0401 13.0025 3.5 13H19.5C19.9633 13.0026 20.4069 13.1878 20.7345 13.5155C21.0622 13.8431 21.2474 14.2867 21.25 14.75V18.75C21.2447 19.2107 21.058 19.6507 20.7304 19.9745C20.4028 20.2984 19.9607 20.48 19.5 20.48ZM3.5 14.48C3.4337 14.48 3.37011 14.5063 3.32322 14.5532C3.27634 14.6001 3.25 14.6637 3.25 14.73V18.73C3.24723 18.7645 3.25165 18.7991 3.26297 18.8318C3.27429 18.8645 3.29226 18.8945 3.31576 18.9199C3.33925 18.9452 3.36776 18.9655 3.39947 18.9792C3.43119 18.993 3.46542 19.0001 3.5 19H19.5C19.5663 19 19.6299 18.9737 19.6768 18.9268C19.7237 18.8799 19.75 18.8163 19.75 18.75V14.75C19.75 14.6837 19.7237 14.6201 19.6768 14.5732C19.6299 14.5263 19.5663 14.5 19.5 14.5L3.5 14.48Z" fill="white"/>
<path d="M8.5 17.48H6.5C6.30109 17.48 6.11032 17.401 5.96967 17.2603C5.82902 17.1197 5.75 16.9289 5.75 16.73C5.75 16.5311 5.82902 16.3403 5.96967 16.1997C6.11032 16.059 6.30109 15.98 6.5 15.98H8.5C8.69891 15.98 8.88968 16.059 9.03033 16.1997C9.17098 16.3403 9.25 16.5311 9.25 16.73C9.25 16.9289 9.17098 17.1197 9.03033 17.2603C8.88968 17.401 8.69891 17.48 8.5 17.48Z" fill="white"/>
<path d="M15.72 14.48C15.6211 14.48 15.5232 14.4602 15.4321 14.4218C15.341 14.3834 15.2585 14.3271 15.1895 14.2562C15.1206 14.1854 15.0665 14.1014 15.0305 14.0093C14.9945 13.9172 14.9773 13.8188 14.98 13.72V10.72C14.9877 10.5227 15.0708 10.336 15.2123 10.1982C15.3537 10.0605 15.5426 9.98239 15.74 9.97998C15.9381 9.98519 16.1263 10.0676 16.2645 10.2095C16.4028 10.3515 16.4801 10.5418 16.48 10.74V13.74C16.4787 13.8385 16.458 13.9357 16.4191 14.0262C16.3802 14.1167 16.3239 14.1987 16.2533 14.2674C16.1827 14.3361 16.0993 14.3903 16.0078 14.4267C15.9163 14.4632 15.8185 14.4813 15.72 14.48Z" fill="white"/>
<path d="M18.2399 9.48003C18.0916 9.47925 17.9463 9.43774 17.8199 9.36003C15.3599 7.72003 13.8199 9.25003 13.7699 9.26003C13.701 9.33079 13.6186 9.38702 13.5276 9.42542C13.4365 9.46382 13.3387 9.4836 13.2399 9.4836C13.1411 9.4836 13.0434 9.46382 12.9523 9.42542C12.8613 9.38702 12.7789 9.33079 12.7099 9.26003C12.5695 9.11941 12.4906 8.92878 12.4906 8.73003C12.4906 8.53128 12.5695 8.34066 12.7099 8.20003C13.5499 7.36003 15.8799 6.26003 18.6599 8.11003C18.8132 8.2208 18.919 8.38538 18.9561 8.57081C18.9931 8.75624 18.9588 8.94884 18.8599 9.11003C18.7975 9.22017 18.7076 9.31218 18.5989 9.37705C18.4902 9.44192 18.3665 9.47741 18.2399 9.48003Z" fill="white"/>
<path d="M21.5001 7.06001C21.3517 7.05923 21.2064 7.01772 21.0801 6.94001C14.7601 2.72001 10.5501 6.80001 10.5101 6.84001C10.4411 6.91077 10.3587 6.96701 10.2677 7.0054C10.1766 7.0438 10.0788 7.06358 9.98005 7.06358C9.88126 7.06358 9.78347 7.0438 9.69244 7.0054C9.60141 6.96701 9.519 6.91077 9.45005 6.84001C9.3096 6.69939 9.23071 6.50877 9.23071 6.31001C9.23071 6.11126 9.3096 5.92064 9.45005 5.78001C9.50005 5.78001 14.5801 0.780015 21.9201 5.69001C22.0733 5.80078 22.1791 5.96536 22.2162 6.15079C22.2533 6.33622 22.2189 6.52882 22.1201 6.69001C22.0577 6.80015 21.9677 6.89216 21.859 6.95703C21.7503 7.0219 21.6266 7.05739 21.5001 7.06001Z" fill="white"/>
</svg>
