<svg width="24" height="24" viewBox="0 0 24 24" fill="none" xmlns="http://www.w3.org/2000/svg">
<path d="M9.86005 16.9999C9.32961 16.9999 8.82091 16.7892 8.44583 16.4141C8.07076 16.0391 7.86005 15.5303 7.86005 14.9999V8.99991C7.86293 8.63606 7.96503 8.27988 8.15534 7.96975C8.34565 7.65962 8.61696 7.40728 8.94005 7.23991C9.26367 7.07367 9.62652 6.99886 9.98951 7.02352C10.3525 7.04819 10.7019 7.17141 11 7.37991L15.29 10.3799C15.5462 10.5653 15.7547 10.8088 15.8984 11.0904C16.0422 11.372 16.1172 11.6837 16.1172 11.9999C16.1172 12.3161 16.0422 12.6278 15.8984 12.9094C15.7547 13.191 15.5462 13.4345 15.29 13.6199L11 16.6199C10.668 16.8604 10.27 16.9931 9.86005 16.9999ZM9.86005 8.53991C9.78086 8.54149 9.70274 8.55847 9.63005 8.58991C9.55545 8.63054 9.49243 8.6895 9.44694 8.76124C9.40145 8.83297 9.37499 8.91511 9.37005 8.99991V14.9999C9.37158 15.0882 9.39644 15.1744 9.4421 15.2499C9.48777 15.3255 9.55261 15.3876 9.63005 15.4299C9.70451 15.4781 9.79133 15.5038 9.88005 15.5038C9.96876 15.5038 10.0556 15.4781 10.13 15.4299L14.42 12.4299C14.484 12.3869 14.5364 12.3289 14.5726 12.2608C14.6088 12.1928 14.6277 12.117 14.6277 12.0399C14.6277 11.9629 14.6088 11.887 14.5726 11.819C14.5364 11.751 14.484 11.6929 14.42 11.6499L10.13 8.64991C10.0571 8.57766 9.96203 8.5319 9.86005 8.51991V8.53991Z" fill="white"/>
<path d="M17.66 21.79H6.34002C5.24468 21.79 4.1942 21.3548 3.41967 20.5803C2.64515 19.8058 2.21002 18.7553 2.21002 17.66V6.33996C2.21002 5.24462 2.64515 4.19413 3.41967 3.41961C4.1942 2.64508 5.24468 2.20996 6.34002 2.20996H17.66C18.7554 2.20996 19.8058 2.64508 20.5804 3.41961C21.3549 4.19413 21.79 5.24462 21.79 6.33996V17.66C21.79 18.7553 21.3549 19.8058 20.5804 20.5803C19.8058 21.3548 18.7554 21.79 17.66 21.79ZM6.34002 3.70996C5.6425 3.70996 4.97355 3.98705 4.48033 4.48027C3.98711 4.97349 3.71002 5.64244 3.71002 6.33996V17.66C3.71002 18.3575 3.98711 19.0264 4.48033 19.5197C4.97355 20.0129 5.6425 20.29 6.34002 20.29H17.66C18.3575 20.29 19.0265 20.0129 19.5197 19.5197C20.0129 19.0264 20.29 18.3575 20.29 17.66V6.33996C20.29 5.64244 20.0129 4.97349 19.5197 4.48027C19.0265 3.98705 18.3575 3.70996 17.66 3.70996H6.34002Z" fill="white"/>
</svg>
