<svg width="24" height="24" viewBox="0 0 24 24" fill="none" xmlns="http://www.w3.org/2000/svg">
<path d="M15.48 22.7501H8.47999C7.87795 22.7501 7.30057 22.5109 6.87486 22.0852C6.44915 21.6595 6.20999 21.0821 6.20999 20.4801V8.00011C6.21125 7.89857 6.23284 7.79832 6.27349 7.70527C6.31414 7.61221 6.37303 7.52825 6.44667 7.45834C6.52031 7.38842 6.60722 7.33398 6.70225 7.29821C6.79729 7.26245 6.89853 7.24609 6.99999 7.25011H17C17.1981 7.2527 17.3874 7.33255 17.5275 7.47264C17.6676 7.61273 17.7474 7.802 17.75 8.00011V20.4801C17.75 21.0821 17.5108 21.6595 17.0851 22.0852C16.6594 22.5109 16.082 22.7501 15.48 22.7501ZM7.74999 8.75011V20.4801C7.75258 20.6835 7.83454 20.8779 7.97838 21.0217C8.12223 21.1656 8.31658 21.2475 8.51999 21.2501H15.52C15.7234 21.2475 15.9178 21.1656 16.0616 21.0217C16.2054 20.8779 16.2874 20.6835 16.29 20.4801V8.75011H7.74999Z" fill="white"/>
<path d="M15.25 7.75C15.0519 7.74741 14.8626 7.66756 14.7225 7.52747C14.5824 7.38737 14.5026 7.19811 14.5 7V2.75H9.5V7C9.5 7.19891 9.42098 7.38968 9.28033 7.53033C9.13968 7.67098 8.94891 7.75 8.75 7.75C8.55109 7.75 8.36032 7.67098 8.21967 7.53033C8.07902 7.38968 8 7.19891 8 7V2C8.00259 1.80189 8.08244 1.61263 8.22253 1.47253C8.36263 1.33244 8.55189 1.25259 8.75 1.25H15.25C15.4481 1.25259 15.6374 1.33244 15.7775 1.47253C15.9176 1.61263 15.9974 1.80189 16 2V7C15.9974 7.19811 15.9176 7.38737 15.7775 7.52747C15.6374 7.66756 15.4481 7.74741 15.25 7.75Z" fill="white"/>
</svg>
