<svg width="24" height="24" viewBox="0 0 24 24" fill="none" xmlns="http://www.w3.org/2000/svg">
<path d="M15.35 11.6201C14.4101 11.6221 13.4908 11.3452 12.7084 10.8245C11.9259 10.3037 11.3155 9.56257 10.9545 8.69479C10.5934 7.82702 10.4979 6.87164 10.6801 5.94957C10.8622 5.02751 11.3138 4.1802 11.9777 3.5149C12.6416 2.8496 13.488 2.39622 14.4097 2.21212C15.3313 2.02803 16.2869 2.12151 17.1555 2.48073C18.024 2.83995 18.7664 3.44876 19.2888 4.23011C19.8112 5.01146 20.09 5.93022 20.09 6.87011C20.09 8.12816 19.591 9.33482 18.7023 10.2253C17.8137 11.1158 16.6081 11.6175 15.35 11.6201ZM15.35 3.62011C14.7064 3.61813 14.0767 3.80731 13.5407 4.16366C13.0047 4.52002 12.5866 5.02749 12.3394 5.62176C12.0921 6.21603 12.0269 6.87032 12.152 7.50169C12.2771 8.13306 12.5868 8.71307 13.0419 9.16819C13.4971 9.62331 14.0771 9.93305 14.7084 10.0581C15.3398 10.1832 15.9941 10.118 16.5884 9.87079C17.1826 9.62356 17.6901 9.20545 18.0465 8.66947C18.4028 8.13348 18.592 7.50375 18.59 6.86011C18.5848 6.00335 18.2414 5.18334 17.6346 4.57845C17.0279 3.97356 16.2068 3.63273 15.35 3.63011V3.62011Z" fill="white"/>
<path d="M17.81 21.4402H5C4.80109 21.4402 4.61032 21.3612 4.46967 21.2205C4.32902 21.0799 4.25 20.8891 4.25 20.6902C4.25 20.4913 4.32902 20.3005 4.46967 20.1599C4.61032 20.0192 4.80109 19.9402 5 19.9402H17.81C18.0089 19.9402 18.1997 20.0192 18.3403 20.1599C18.481 20.3005 18.56 20.4913 18.56 20.6902C18.56 20.8891 18.481 21.0799 18.3403 21.2205C18.1997 21.3612 18.0089 21.4402 17.81 21.4402Z" fill="white"/>
<path d="M11.35 21.44C11.2803 21.4497 11.2096 21.4497 11.14 21.44C10.949 21.3843 10.788 21.255 10.6924 21.0806C10.5967 20.9062 10.5743 20.701 10.63 20.51L13.53 10.51C13.5564 10.4147 13.6016 10.3257 13.663 10.2482C13.7243 10.1707 13.8006 10.1062 13.8873 10.0587C13.974 10.0111 14.0693 9.98146 14.1677 9.97138C14.2661 9.96131 14.3654 9.97104 14.46 10C14.6494 10.058 14.8088 10.1876 14.904 10.3613C14.9993 10.5351 15.023 10.7391 14.97 10.93L12.07 20.93C12.018 21.0794 11.9206 21.2088 11.7916 21.3002C11.6625 21.3916 11.5081 21.4405 11.35 21.44Z" fill="white"/>
</svg>
