<svg width="24" height="24" viewBox="0 0 24 24" fill="none" xmlns="http://www.w3.org/2000/svg">
<path d="M21.14 22.7501H2.85999C2.66107 22.7501 2.47031 22.6711 2.32966 22.5304C2.189 22.3898 2.10999 22.199 2.10999 22.0001V15.6201C2.10999 15.4212 2.189 15.2304 2.32966 15.0898C2.47031 14.9491 2.66107 14.8701 2.85999 14.8701H21.14C21.3389 14.8701 21.5297 14.9491 21.6703 15.0898C21.811 15.2304 21.89 15.4212 21.89 15.6201V22.0001C21.89 22.199 21.811 22.3898 21.6703 22.5304C21.5297 22.6711 21.3389 22.7501 21.14 22.7501ZM3.60999 21.2501H20.39V16.3701H3.60999V21.2501Z" fill="white"/>
<path d="M2.86 16.37C2.76137 16.371 2.66356 16.352 2.57247 16.3142C2.48138 16.2764 2.3989 16.2205 2.33 16.15C2.18955 16.0093 2.11066 15.8187 2.11066 15.62C2.11066 15.4212 2.18955 15.2306 2.33 15.09L6 11.43C6.14591 11.2913 6.33873 11.2127 6.54 11.21L17.54 11.28C17.7345 11.2867 17.9197 11.3651 18.06 11.5L21.65 15.09C21.7904 15.2306 21.8693 15.4212 21.8693 15.62C21.8693 15.8187 21.7904 16.0093 21.65 16.15C21.5811 16.2207 21.4986 16.277 21.4076 16.3154C21.3166 16.3537 21.2188 16.3735 21.12 16.3735C21.0212 16.3735 20.9234 16.3537 20.8324 16.3154C20.7414 16.277 20.6589 16.2207 20.59 16.15L17.22 12.78L6.83 12.71L3.39 16.15C3.32075 16.2201 3.2382 16.2756 3.14719 16.3134C3.05618 16.3512 2.95854 16.3704 2.86 16.37Z" fill="white"/>
<path d="M17.85 12.7501C17.651 12.7501 17.4603 12.6711 17.3196 12.5304C17.179 12.3898 17.1 12.199 17.1 12.0001V2.83008H7.26996V12.0001C7.26996 12.199 7.19094 12.3898 7.05029 12.5304C6.90964 12.6711 6.71887 12.7501 6.51996 12.7501C6.32105 12.7501 6.13028 12.6711 5.98963 12.5304C5.84898 12.3898 5.76996 12.199 5.76996 12.0001V2.08008C5.77255 1.88197 5.8524 1.69271 5.99249 1.55261C6.13259 1.41252 6.32185 1.33267 6.51996 1.33008H17.85C18.0489 1.33008 18.2396 1.4091 18.3803 1.54975C18.5209 1.6904 18.6 1.88117 18.6 2.08008V12.0001C18.6013 12.0989 18.5828 12.1971 18.5456 12.2887C18.5084 12.3803 18.4532 12.4635 18.3833 12.5334C18.3134 12.6033 18.2302 12.6585 18.1386 12.6957C18.047 12.7329 17.9488 12.7514 17.85 12.7501Z" fill="white"/>
<path d="M12.19 5.87012C12.0911 5.87146 11.993 5.85298 11.9014 5.81577C11.8098 5.77855 11.7266 5.72336 11.6567 5.65344C11.5868 5.58353 11.5316 5.50032 11.4944 5.40871C11.4571 5.31711 11.4387 5.21898 11.44 5.12012V2.12012C11.44 1.9212 11.519 1.73044 11.6597 1.58979C11.8003 1.44913 11.9911 1.37012 12.19 1.37012C12.3889 1.37012 12.5797 1.44913 12.7203 1.58979C12.861 1.73044 12.94 1.9212 12.94 2.12012V5.12012C12.94 5.31903 12.861 5.5098 12.7203 5.65045C12.5797 5.7911 12.3889 5.87012 12.19 5.87012Z" fill="white"/>
<path d="M14.39 8.08016C14.1919 8.07757 14.0026 7.99772 13.8625 7.85763C13.7224 7.71753 13.6426 7.52827 13.64 7.33016C13.6567 7.12895 13.6315 6.92646 13.5659 6.73549C13.5004 6.54452 13.3959 6.36922 13.2592 6.22066C13.1225 6.07211 12.9564 5.95353 12.7715 5.87242C12.5866 5.79131 12.3869 5.74944 12.185 5.74944C11.9831 5.74944 11.7834 5.79131 11.5985 5.87242C11.4136 5.95353 11.2475 6.07211 11.1108 6.22066C10.974 6.36922 10.8696 6.54452 10.8041 6.73549C10.7385 6.92646 10.7133 7.12895 10.73 7.33016C10.73 7.52908 10.651 7.71984 10.5103 7.86049C10.3697 8.00115 10.1789 8.08016 9.98 8.08016C9.78109 8.08016 9.59032 8.00115 9.44967 7.86049C9.30902 7.71984 9.23 7.52908 9.23 7.33016C9.15445 6.89894 9.17421 6.45641 9.28787 6.03363C9.40153 5.61085 9.60634 5.21807 9.88794 4.88286C10.1695 4.54765 10.5211 4.27813 10.9179 4.09323C11.3147 3.90832 11.7472 3.8125 12.185 3.8125C12.6228 3.8125 13.0553 3.90832 13.4521 4.09323C13.8489 4.27813 14.2005 4.54765 14.4821 4.88286C14.7637 5.21807 14.9685 5.61085 15.0821 6.03363C15.1958 6.45641 15.2155 6.89894 15.14 7.33016C15.14 7.52908 15.061 7.71984 14.9203 7.86049C14.7797 8.00115 14.5889 8.08016 14.39 8.08016Z" fill="white"/>
</svg>
