<svg width="24" height="24" viewBox="0 0 24 24" fill="none" xmlns="http://www.w3.org/2000/svg">
<path d="M6.26001 16.5801C6.13026 16.5799 6.00283 16.5457 5.89049 16.4807C5.77816 16.4158 5.68488 16.3224 5.62001 16.2101C4.88348 15.0009 4.45173 13.6309 4.36191 12.2179C4.27208 10.8049 4.52688 9.39129 5.10436 8.09858C5.68185 6.80587 6.56474 5.67281 7.67709 4.79688C8.78944 3.92094 10.0979 3.32834 11.49 3.07008C11.6863 3.03427 11.8887 3.0779 12.0528 3.19136C12.2169 3.30482 12.3292 3.47882 12.365 3.67508C12.4008 3.87134 12.3572 4.07378 12.2437 4.23788C12.1303 4.40197 11.9563 4.51427 11.76 4.55008C10.3906 4.80412 9.12362 5.44774 8.11084 6.40376C7.09806 7.35978 6.38252 8.58762 6.05001 9.94008C5.60581 11.8141 5.9108 13.7876 6.90001 15.4401C6.99403 15.6071 7.02051 15.8039 6.97402 15.9898C6.92753 16.1758 6.81158 16.3369 6.65001 16.4401C6.53478 16.5206 6.40015 16.5689 6.26001 16.5801Z" fill="white"/>
<path d="M13.1 20.43C11.7061 20.4196 10.3348 20.0768 9.10002 19.43C9.00785 19.3875 8.92524 19.3268 8.85721 19.2516C8.78917 19.1763 8.73712 19.088 8.7042 18.992C8.67128 18.896 8.65818 18.7944 8.66569 18.6932C8.6732 18.592 8.70117 18.4934 8.74789 18.4033C8.79462 18.3132 8.85914 18.2336 8.93754 18.1692C9.01595 18.1048 9.1066 18.0569 9.20403 18.0286C9.30145 18.0002 9.40362 17.9919 9.50434 18.0042C9.60507 18.0165 9.70225 18.049 9.79002 18.1C10.8369 18.6436 12.0005 18.9236 13.1801 18.9157C14.3597 18.9078 15.5195 18.6122 16.5589 18.0545C17.5984 17.4969 18.4861 16.694 19.145 15.7156C19.8039 14.7372 20.2141 13.6128 20.34 12.44C20.3444 12.3379 20.3696 12.2379 20.414 12.1459C20.4584 12.054 20.5211 11.9721 20.5983 11.9052C20.6755 11.8384 20.7655 11.788 20.8629 11.7572C20.9602 11.7263 21.0628 11.7157 21.1645 11.7259C21.2661 11.7362 21.3645 11.767 21.4537 11.8167C21.543 11.8663 21.6212 11.9336 21.6835 12.0145C21.7458 12.0954 21.7909 12.1881 21.8161 12.2871C21.8413 12.3861 21.8461 12.4891 21.83 12.59C21.6007 14.7382 20.5855 16.7259 18.9797 18.1712C17.3738 19.6165 15.2905 20.4174 13.13 20.42L13.1 20.43Z" fill="white"/>
<path d="M5.34999 20.94C5.11371 20.9381 4.88158 20.8777 4.67435 20.7641C4.46712 20.6506 4.29126 20.4875 4.16248 20.2894C4.03371 20.0912 3.95603 19.8643 3.9364 19.6288C3.91677 19.3934 3.9558 19.1567 4.04999 18.94L5.57999 15.52C5.62004 15.4267 5.67807 15.3423 5.75075 15.2715C5.82344 15.2007 5.90936 15.1449 6.00361 15.1073C6.09786 15.0697 6.1986 15.051 6.30007 15.0523C6.40154 15.0536 6.50175 15.0749 6.59499 15.115C6.68823 15.155 6.77267 15.2131 6.84348 15.2857C6.91429 15.3584 6.9701 15.4444 7.0077 15.5386C7.04531 15.6329 7.06399 15.7336 7.06266 15.8351C7.06134 15.9365 7.04004 16.0367 6.99999 16.13L5.49999 19.38L9.16999 18.07C9.26563 18.0319 9.368 18.0137 9.47089 18.0164C9.57378 18.0191 9.67506 18.0427 9.76857 18.0857C9.86208 18.1287 9.94587 18.1903 10.0149 18.2666C10.0839 18.343 10.1367 18.4326 10.17 18.53C10.2096 18.6255 10.2289 18.7281 10.227 18.8314C10.225 18.9348 10.2017 19.0366 10.1585 19.1305C10.1153 19.2244 10.0531 19.3083 9.97597 19.3771C9.89879 19.4458 9.80824 19.4979 9.70999 19.53L5.81999 20.86C5.66859 20.9115 5.50992 20.9385 5.34999 20.94Z" fill="white"/>
<path d="M15.41 9.53001C15.3114 9.53048 15.2138 9.51126 15.1228 9.47348C15.0318 9.4357 14.9492 9.38013 14.88 9.31001C14.7395 9.16939 14.6606 8.97876 14.6606 8.78001C14.6606 8.58126 14.7395 8.39064 14.88 8.25001L19 4.16001C19.1049 4.05526 19.2384 3.98393 19.3838 3.95505C19.5292 3.92616 19.6799 3.94102 19.8169 3.99773C19.9539 4.05444 20.071 4.15047 20.1534 4.27368C20.2358 4.3969 20.2799 4.54177 20.28 4.69001V8.78001C20.28 8.97893 20.201 9.16969 20.0603 9.31034C19.9197 9.451 19.7289 9.53001 19.53 9.53001C19.3311 9.53001 19.1403 9.451 18.9997 9.31034C18.859 9.16969 18.78 8.97893 18.78 8.78001V6.50001L15.94 9.31001C15.8711 9.38059 15.7886 9.43646 15.6975 9.47428C15.6064 9.51209 15.5086 9.53105 15.41 9.53001Z" fill="white"/>
<path d="M19.5 5.44019H15.41C15.2111 5.44019 15.0203 5.36117 14.8796 5.22052C14.739 5.07986 14.66 4.8891 14.66 4.69019C14.66 4.49127 14.739 4.30051 14.8796 4.15986C15.0203 4.0192 15.2111 3.94019 15.41 3.94019H19.5C19.6989 3.94019 19.8897 4.0192 20.0303 4.15986C20.171 4.30051 20.25 4.49127 20.25 4.69019C20.25 4.8891 20.171 5.07986 20.0303 5.22052C19.8897 5.36117 19.6989 5.44019 19.5 5.44019Z" fill="white"/>
</svg>
