<svg width="24" height="24" viewBox="0 0 24 24" fill="none" xmlns="http://www.w3.org/2000/svg">
<path d="M12 17C10.4724 17 9.00727 16.3932 7.92706 15.313C6.84685 14.2328 6.24 12.7677 6.24 11.24V4.56004C6.22477 4.34364 6.22477 4.12644 6.24 3.91004C6.26228 3.72537 6.35239 3.55557 6.49283 3.4336C6.63327 3.31164 6.81403 3.24622 7 3.25004H17C17.1832 3.24896 17.3602 3.31585 17.4969 3.43776C17.6336 3.55968 17.7202 3.72795 17.74 3.91004C17.7552 4.12644 17.7552 4.34364 17.74 4.56004V11.24C17.74 12.7642 17.1359 14.2263 16.06 15.3059C14.9841 16.3856 13.5242 16.9947 12 17ZM7.74 4.75004V11.24C7.74 12.3699 8.18882 13.4534 8.98772 14.2523C9.78663 15.0512 10.8702 15.5 12 15.5C13.1298 15.5 14.2134 15.0512 15.0123 14.2523C15.8112 13.4534 16.26 12.3699 16.26 11.24V4.75004H7.74Z" fill="white"/>
<path d="M17 12.7101C16.9007 12.7168 16.801 12.7038 16.7068 12.6716C16.6125 12.6394 16.5257 12.5888 16.4512 12.5227C16.3767 12.4567 16.3162 12.3764 16.273 12.2867C16.2299 12.1969 16.2051 12.0995 16.2 12.0001C16.1999 11.8019 16.2773 11.6116 16.4155 11.4696C16.5537 11.3277 16.7419 11.2453 16.94 11.2401C19.31 11.2401 19.94 8.64007 20.05 7.32007H17C16.8011 7.32007 16.6103 7.24105 16.4697 7.1004C16.329 6.95975 16.25 6.76898 16.25 6.57007C16.25 6.37116 16.329 6.18039 16.4697 6.03974C16.6103 5.89909 16.8011 5.82007 17 5.82007H20.84C21.0381 5.82266 21.2274 5.90251 21.3675 6.0426C21.5076 6.1827 21.5874 6.37196 21.59 6.57007C21.59 8.69007 20.59 12.7001 16.94 12.7401L17 12.7101Z" fill="white"/>
<path d="M7.06 12.71C3.38 12.71 2.41 8.71004 2.41 6.54004C2.41 6.34113 2.48902 6.15036 2.62967 6.00971C2.77033 5.86906 2.96109 5.79004 3.16 5.79004H7C7.19892 5.79004 7.38968 5.86906 7.53033 6.00971C7.67099 6.15036 7.75 6.34113 7.75 6.54004C7.75 6.73895 7.67099 6.92972 7.53033 7.07037C7.38968 7.21102 7.19892 7.29004 7 7.29004H4C4.15 8.61004 4.74 11.2 7.11 11.21C7.20849 11.21 7.30602 11.2294 7.39702 11.2671C7.48801 11.3048 7.57069 11.3601 7.64033 11.4297C7.70998 11.4994 7.76522 11.582 7.80291 11.673C7.8406 11.764 7.86 11.8615 7.86 11.96C7.86 12.0585 7.8406 12.1561 7.80291 12.2471C7.76522 12.338 7.70998 12.4207 7.64033 12.4904C7.57069 12.56 7.48801 12.6153 7.39702 12.6529C7.30602 12.6906 7.20849 12.71 7.11 12.71H7.06Z" fill="white"/>
<path d="M12 20.75C11.8019 20.7474 11.6126 20.6676 11.4725 20.5275C11.3324 20.3874 11.2526 20.1981 11.25 20V16.25C11.25 16.0511 11.329 15.8603 11.4697 15.7197C11.6103 15.579 11.8011 15.5 12 15.5C12.1989 15.5 12.3897 15.579 12.5303 15.7197C12.671 15.8603 12.75 16.0511 12.75 16.25V20C12.7474 20.1981 12.6676 20.3874 12.5275 20.5275C12.3874 20.6676 12.1981 20.7474 12 20.75Z" fill="white"/>
</svg>
