<svg width="24" height="24" viewBox="0 0 24 24" fill="none" xmlns="http://www.w3.org/2000/svg">
<path d="M20 19.75H3.99997C3.73936 19.7581 3.47979 19.7136 3.23678 19.6191C2.99378 19.5246 2.77231 19.382 2.58562 19.2C2.39894 19.018 2.25086 18.8002 2.15023 18.5597C2.04961 18.3191 1.9985 18.0608 1.99997 17.8V12.27C2.01302 11.7483 2.22948 11.2524 2.60314 10.888C2.97681 10.5237 3.47809 10.3199 3.99997 10.32H6.86997C6.92906 10.32 6.98758 10.3084 7.04218 10.2858C7.09677 10.2632 7.14638 10.23 7.18817 10.1882C7.22995 10.1465 7.2631 10.0968 7.28572 10.0423C7.30833 9.98766 7.31997 9.92914 7.31997 9.87004V7.87004C7.33265 7.35686 7.54216 6.8682 7.90515 6.50522C8.26813 6.14224 8.75679 5.93272 9.26997 5.92004H14.83C15.3604 5.92004 15.8691 6.13076 16.2442 6.50583C16.6193 6.8809 16.83 7.38961 16.83 7.92004V12.39C16.83 12.5094 16.8774 12.6238 16.9618 12.7082C17.0462 12.7926 17.1606 12.84 17.28 12.84H20C20.5199 12.8556 21.0134 13.0732 21.3756 13.4466C21.7377 13.82 21.9402 14.3198 21.94 14.84V17.8C21.9413 18.0556 21.8921 18.309 21.7952 18.5455C21.6983 18.782 21.5556 18.9971 21.3753 19.1783C21.195 19.3595 20.9807 19.5033 20.7447 19.6014C20.5087 19.6995 20.2556 19.75 20 19.75ZM3.99997 11.82C3.88236 11.8227 3.77046 11.8712 3.68822 11.9553C3.60598 12.0394 3.55994 12.1524 3.55997 12.27V17.8C3.55994 17.9177 3.60598 18.0306 3.68822 18.1148C3.77046 18.1989 3.88236 18.2474 3.99997 18.25H20C20.1176 18.2474 20.2295 18.1989 20.3117 18.1148C20.394 18.0306 20.44 17.9177 20.44 17.8V14.74C20.44 14.6224 20.394 14.5094 20.3117 14.4253C20.2295 14.3412 20.1176 14.2927 20 14.29H17.23C16.7081 14.2902 16.2068 14.0864 15.8331 13.722C15.4595 13.3577 15.243 12.8618 15.23 12.34V7.87004C15.23 7.7507 15.1826 7.63624 15.0982 7.55185C15.0138 7.46745 14.8993 7.42004 14.78 7.42004H9.26997C9.15062 7.42004 9.03616 7.46745 8.95177 7.55185C8.86738 7.63624 8.81997 7.7507 8.81997 7.87004V9.87004C8.82013 10.3919 8.6163 10.8932 8.25197 11.2669C7.88764 11.6405 7.39169 11.857 6.86997 11.87L3.99997 11.82Z" fill="white"/>
</svg>
