<svg width="24" height="24" viewBox="0 0 24 24" fill="none" xmlns="http://www.w3.org/2000/svg">
<path d="M11.5 13.25C10.3628 13.25 9.25106 12.9128 8.30547 12.281C7.35989 11.6491 6.6229 10.7511 6.1877 9.70043C5.75249 8.64976 5.63862 7.49362 5.86049 6.37823C6.08235 5.26284 6.62999 4.23829 7.43414 3.43414C8.23829 2.62999 9.26284 2.08235 10.3782 1.86049C11.4936 1.63862 12.6498 1.75249 13.7004 2.1877C14.7511 2.6229 15.6491 3.35989 16.281 4.30547C16.9128 5.25106 17.25 6.36276 17.25 7.5C17.2474 9.02419 16.6407 10.4852 15.5629 11.5629C14.4852 12.6407 13.0242 13.2474 11.5 13.25ZM11.5 3.25C10.6594 3.25 9.83774 3.49926 9.13883 3.96626C8.43992 4.43325 7.89519 5.09701 7.57351 5.8736C7.25184 6.65018 7.16768 7.50472 7.33167 8.32914C7.49565 9.15356 7.90043 9.91083 8.4948 10.5052C9.08917 11.0996 9.84645 11.5044 10.6709 11.6683C11.4953 11.8323 12.3498 11.7482 13.1264 11.4265C13.903 11.1048 14.5668 10.5601 15.0337 9.86118C15.5007 9.16227 15.75 8.34057 15.75 7.5C15.7474 6.37364 15.2987 5.29417 14.5023 4.49772C13.7058 3.70126 12.6264 3.25264 11.5 3.25Z" fill="white"/>
<path d="M2.5 21.25C2.30189 21.2474 2.11263 21.1676 1.97253 21.0275C1.83244 20.8874 1.75259 20.6981 1.75 20.5C1.75528 18.181 2.67885 15.9585 4.31865 14.3187C5.95845 12.6789 8.18098 11.7553 10.5 11.75H12.5C12.6989 11.75 12.8897 11.829 13.0303 11.9697C13.171 12.1103 13.25 12.3011 13.25 12.5C13.25 12.6989 13.171 12.8897 13.0303 13.0303C12.8897 13.171 12.6989 13.25 12.5 13.25H10.5C8.57799 13.2526 6.73546 14.0173 5.3764 15.3764C4.01733 16.7355 3.25265 18.578 3.25 20.5C3.24741 20.6981 3.16756 20.8874 3.02747 21.0275C2.88737 21.1676 2.69811 21.2474 2.5 21.25Z" fill="white"/>
<path d="M14.5 22.25C14.3073 22.2342 14.1282 22.1447 14 22L9.99998 18C9.93314 17.86 9.91133 17.7028 9.93756 17.55C9.96379 17.3971 10.0368 17.2561 10.1464 17.1464C10.2561 17.0368 10.3971 16.9638 10.5499 16.9376C10.7028 16.9114 10.86 16.9332 11 17L14.43 20.43L20.94 13C21.0056 12.9265 21.0851 12.8666 21.174 12.8238C21.2628 12.7809 21.3591 12.756 21.4576 12.7505C21.556 12.7449 21.6545 12.7588 21.7476 12.7913C21.8407 12.8238 21.9264 12.8743 22 12.94C22.0735 13.0057 22.1334 13.0852 22.1762 13.174C22.219 13.2628 22.2439 13.3591 22.2495 13.4576C22.2551 13.556 22.2412 13.6546 22.2087 13.7476C22.1762 13.8407 22.1256 13.9265 22.06 14L15.06 22C14.9946 22.0779 14.9137 22.1412 14.8224 22.186C14.7312 22.2307 14.6316 22.256 14.53 22.26L14.5 22.25Z" fill="white"/>
</svg>
