<svg width="24" height="24" viewBox="0 0 24 24" fill="none" xmlns="http://www.w3.org/2000/svg">
<path d="M20 18.25H4C3.80189 18.2474 3.61263 18.1676 3.47253 18.0275C3.33244 17.8874 3.25259 17.6981 3.25 17.5V12.5C3.25 11.5054 3.64509 10.5516 4.34835 9.84835C5.05161 9.14509 6.00544 8.75 7 8.75H17C17.9946 8.75 18.9484 9.14509 19.6517 9.84835C20.3549 10.5516 20.75 11.5054 20.75 12.5V17.5C20.7474 17.6981 20.6676 17.8874 20.5275 18.0275C20.3874 18.1676 20.1981 18.2474 20 18.25ZM4.75 16.75H19.25V12.5C19.25 11.9033 19.0129 11.331 18.591 10.909C18.169 10.4871 17.5967 10.25 17 10.25H7C6.40326 10.25 5.83097 10.4871 5.40901 10.909C4.98705 11.331 4.75 11.9033 4.75 12.5V16.75Z" fill="white"/>
<path d="M7.5 21.25C6.90326 21.25 6.33097 21.0129 5.90901 20.591C5.48705 20.169 5.25 19.5967 5.25 19V17.5C5.25 17.3011 5.32902 17.1103 5.46967 16.9697C5.61032 16.829 5.80109 16.75 6 16.75C6.19891 16.75 6.38968 16.829 6.53033 16.9697C6.67098 17.1103 6.75 17.3011 6.75 17.5V19C6.75 19.1989 6.82902 19.3897 6.96967 19.5303C7.11032 19.671 7.30109 19.75 7.5 19.75C7.69891 19.75 7.88968 19.671 8.03033 19.5303C8.17098 19.3897 8.25 19.1989 8.25 19V17.5C8.25 17.3011 8.32902 17.1103 8.46967 16.9697C8.61032 16.829 8.80109 16.75 9 16.75C9.19891 16.75 9.38968 16.829 9.53033 16.9697C9.67098 17.1103 9.75 17.3011 9.75 17.5V19C9.75 19.5967 9.51295 20.169 9.09099 20.591C8.66903 21.0129 8.09674 21.25 7.5 21.25Z" fill="white"/>
<path d="M16.5 21.25C15.9033 21.25 15.331 21.0129 14.909 20.591C14.4871 20.169 14.25 19.5967 14.25 19V17.5C14.25 17.3011 14.329 17.1103 14.4697 16.9697C14.6103 16.829 14.8011 16.75 15 16.75C15.1989 16.75 15.3897 16.829 15.5303 16.9697C15.671 17.1103 15.75 17.3011 15.75 17.5V19C15.75 19.1989 15.829 19.3897 15.9697 19.5303C16.1103 19.671 16.3011 19.75 16.5 19.75C16.6989 19.75 16.8897 19.671 17.0303 19.5303C17.171 19.3897 17.25 19.1989 17.25 19V17.5C17.25 17.3011 17.329 17.1103 17.4697 16.9697C17.6103 16.829 17.8011 16.75 18 16.75C18.1989 16.75 18.3897 16.829 18.5303 16.9697C18.671 17.1103 18.75 17.3011 18.75 17.5V19C18.75 19.5967 18.5129 20.169 18.091 20.591C17.669 21.0129 17.0967 21.25 16.5 21.25Z" fill="white"/>
<path d="M8 14.2501C7.90022 14.2504 7.80147 14.23 7.71 14.1901C7.52896 14.115 7.3851 13.9711 7.31 13.7901C7.27012 13.6986 7.24969 13.5999 7.25 13.5001C7.25788 13.3117 7.33642 13.1332 7.47 13.0001C7.53936 12.9323 7.62075 12.8781 7.71 12.8401C7.80155 12.8005 7.90025 12.78 8 12.78C8.09976 12.78 8.19846 12.8005 8.29 12.8401C8.37925 12.8781 8.46065 12.9323 8.53 13.0001C8.6707 13.1406 8.74983 13.3313 8.75 13.5301C8.75031 13.6299 8.72988 13.7286 8.69 13.8201C8.61491 14.0011 8.47105 14.145 8.29 14.2201C8.19623 14.249 8.0977 14.2592 8 14.2501Z" fill="white"/>
<path d="M16 14.2501C15.9003 14.2495 15.8017 14.2291 15.71 14.1901C15.529 14.115 15.3851 13.9711 15.31 13.7901C15.2701 13.6986 15.2497 13.5999 15.25 13.5001C15.2502 13.3012 15.3293 13.1106 15.47 12.9701C15.5394 12.9023 15.6208 12.848 15.71 12.8101C15.8016 12.7704 15.9002 12.75 16 12.75C16.0998 12.75 16.1985 12.7704 16.29 12.8101C16.3793 12.848 16.4606 12.9023 16.53 12.9701C16.6705 13.1107 16.7493 13.3013 16.7493 13.5001C16.7493 13.6988 16.6705 13.8894 16.53 14.0301C16.4606 14.0979 16.3793 14.1521 16.29 14.1901C16.1985 14.23 16.0998 14.2504 16 14.2501Z" fill="white"/>
<path d="M18 10.25H6C5.80189 10.2474 5.61263 10.1676 5.47253 10.0275C5.33244 9.88737 5.25259 9.69811 5.25 9.5V6.5C5.25 5.50544 5.64509 4.55161 6.34835 3.84835C7.05161 3.14509 8.00544 2.75 9 2.75H15C15.9946 2.75 16.9484 3.14509 17.6517 3.84835C18.3549 4.55161 18.75 5.50544 18.75 6.5V9.5C18.7474 9.69811 18.6676 9.88737 18.5275 10.0275C18.3874 10.1676 18.1981 10.2474 18 10.25ZM6.75 8.75H17.25V6.5C17.25 5.90326 17.0129 5.33097 16.591 4.90901C16.169 4.48705 15.5967 4.25 15 4.25H9C8.40326 4.25 7.83097 4.48705 7.40901 4.90901C6.98705 5.33097 6.75 5.90326 6.75 6.5V8.75Z" fill="white"/>
</svg>
