<svg width="24" height="24" viewBox="0 0 24 24" fill="none" xmlns="http://www.w3.org/2000/svg">
<path d="M17.22 16.71C17.0219 16.7075 16.8327 16.6276 16.6926 16.4875C16.5525 16.3474 16.4726 16.1582 16.47 15.96V4.05005C16.47 3.85114 16.5491 3.66037 16.6897 3.51972C16.8304 3.37907 17.0211 3.30005 17.22 3.30005C17.4189 3.30005 17.6097 3.37907 17.7504 3.51972C17.891 3.66037 17.97 3.85114 17.97 4.05005V16C17.9598 16.1919 17.8763 16.3726 17.7367 16.5047C17.5972 16.6368 17.4122 16.7103 17.22 16.71Z" fill="white"/>
<path d="M17.22 22.36C16.296 22.36 15.3927 22.0859 14.6245 21.5723C13.8563 21.0587 13.2577 20.3287 12.9046 19.4748C12.5514 18.6209 12.4595 17.6814 12.6405 16.7753C12.8215 15.8691 13.2673 15.037 13.9214 14.3843C14.5755 13.7316 15.4086 13.2876 16.3151 13.1085C17.2217 12.9295 18.161 13.0234 19.0141 13.3784C19.8673 13.7334 20.5959 14.3335 21.1079 15.1028C21.6198 15.8721 21.892 16.776 21.89 17.7C21.89 18.3128 21.7692 18.9196 21.5344 19.4856C21.2996 20.0517 20.9554 20.5658 20.5216 20.9987C20.0878 21.4315 19.5729 21.7746 19.0064 22.0082C18.4399 22.2418 17.8328 22.3613 17.22 22.36ZM17.22 14.53C16.5931 14.53 15.9802 14.7159 15.4589 15.0643C14.9376 15.4126 14.5313 15.9077 14.2913 16.4869C14.0514 17.0662 13.9886 17.7035 14.111 18.3185C14.2333 18.9334 14.5352 19.4982 14.9785 19.9416C15.4218 20.3849 15.9867 20.6868 16.6016 20.8091C17.2165 20.9314 17.8539 20.8686 18.4331 20.6287C19.0124 20.3888 19.5075 19.9825 19.8558 19.4612C20.2041 18.9399 20.39 18.327 20.39 17.7C20.39 17.2837 20.308 16.8715 20.1487 16.4869C19.9894 16.1023 19.7559 15.7529 19.4616 15.4585C19.1672 15.1641 18.8177 14.9306 18.4331 14.7713C18.0485 14.612 17.6363 14.53 17.22 14.53Z" fill="white"/>
<path d="M6.30003 22.3602C5.37726 22.3542 4.47694 22.0751 3.7127 21.5579C2.94847 21.0407 2.35459 20.3087 2.00602 19.4543C1.65745 18.5999 1.56983 17.6613 1.75421 16.7572C1.93858 15.853 2.3867 15.0237 3.04199 14.374C3.69728 13.7243 4.53036 13.2833 5.43608 13.1066C6.3418 12.93 7.27955 13.0256 8.13095 13.3815C8.98236 13.7373 9.70926 14.3375 10.2199 15.1061C10.7305 15.8747 11.002 16.7774 11 17.7002C10.9987 18.3151 10.876 18.9238 10.6388 19.4912C10.4017 20.0586 10.0548 20.5736 9.61808 21.0065C9.18138 21.4395 8.66346 21.782 8.09406 22.0143C7.52466 22.2466 6.91498 22.3641 6.30003 22.3602ZM6.30003 14.5302C5.67306 14.5302 5.06017 14.7161 4.53887 15.0644C4.01756 15.4127 3.61126 15.9078 3.37133 16.4871C3.1314 17.0663 3.06862 17.7037 3.19094 18.3186C3.31325 18.9335 3.61516 19.4984 4.0585 19.9417C4.50183 20.385 5.06667 20.6869 5.68159 20.8093C6.29651 20.9316 6.93389 20.8688 7.51313 20.6289C8.09237 20.3889 8.58746 19.9826 8.93578 19.4613C9.28411 18.94 9.47003 18.3271 9.47003 17.7002C9.46739 16.8602 9.13256 16.0555 8.53864 15.4616C7.94472 14.8676 7.13995 14.5328 6.30003 14.5302Z" fill="white"/>
<path d="M6.30002 16.7101H6.16002C5.96543 16.6736 5.79315 16.5617 5.68075 16.3987C5.56835 16.2358 5.52495 16.0349 5.56002 15.8401C5.56002 15.7601 7.26002 7.3501 17.22 7.3501C17.4189 7.3501 17.6097 7.42912 17.7503 7.56977C17.891 7.71042 17.97 7.90119 17.97 8.1001C17.97 8.29901 17.891 8.48978 17.7503 8.63043C17.6097 8.77108 17.4189 8.8501 17.22 8.8501C8.53002 8.8301 7.10002 15.8001 7.00002 16.1001C6.96878 16.2656 6.88274 16.4158 6.75576 16.5264C6.62878 16.6371 6.46824 16.7018 6.30002 16.7101Z" fill="white"/>
</svg>
