<svg width="24" height="24" viewBox="0 0 24 24" fill="none" xmlns="http://www.w3.org/2000/svg">
<path d="M17 22.7101H6.99998C6.00885 22.7154 5.05591 22.3282 4.34947 21.633C3.64303 20.9378 3.24054 19.9912 3.22998 19.0001V5.00009C3.24054 4.00901 3.64303 3.0624 4.34947 2.3672C5.05591 1.672 6.00885 1.28475 6.99998 1.29009H17C17.9911 1.28475 18.944 1.672 19.6505 2.3672C20.3569 3.0624 20.7594 4.00901 20.77 5.00009V19.0001C20.7594 19.9912 20.3569 20.9378 19.6505 21.633C18.944 22.3282 17.9911 22.7154 17 22.7101ZM6.99998 2.79009C6.40666 2.78473 5.83523 3.01394 5.41008 3.42785C4.98494 3.84175 4.7405 4.40684 4.72998 5.00009V19.0001C4.7405 19.5933 4.98494 20.1584 5.41008 20.5723C5.83523 20.9862 6.40666 21.2155 6.99998 21.2101H17C17.5933 21.2155 18.1647 20.9862 18.5899 20.5723C19.015 20.1584 19.2595 19.5933 19.27 19.0001V5.00009C19.2595 4.40684 19.015 3.84175 18.5899 3.42785C18.1647 3.01394 17.5933 2.78473 17 2.79009H6.99998Z" fill="white"/>
<path d="M12 16.32C11.8809 16.3212 11.7632 16.2937 11.657 16.2397C11.5508 16.1857 11.4592 16.1069 11.39 16.01L8.82 12.44C8.72729 12.312 8.67737 12.158 8.67737 12C8.67737 11.8419 8.72729 11.688 8.82 11.56L11.39 7.99997C11.4581 7.90117 11.5492 7.82041 11.6555 7.76467C11.7618 7.70892 11.88 7.67985 12 7.67997C12.1191 7.67873 12.2368 7.70626 12.343 7.76023C12.4492 7.8142 12.5408 7.89302 12.61 7.98997L15.18 11.56C15.2727 11.688 15.3226 11.8419 15.3226 12C15.3226 12.158 15.2727 12.312 15.18 12.44L12.61 16C12.5419 16.0988 12.4508 16.1795 12.3445 16.2353C12.2382 16.291 12.12 16.3201 12 16.32ZM10.35 12L12 14.29L13.65 12L12 9.70997L10.35 12Z" fill="white"/>
</svg>
