<svg width="16" height="17" viewBox="0 0 16 17" fill="none" xmlns="http://www.w3.org/2000/svg">
<path d="M7.14649 14.4467C5.86091 14.4467 4.6042 14.0654 3.53528 13.3512C2.46636 12.637 1.63324 11.6218 1.14127 10.4341C0.649301 9.24639 0.520579 7.93945 0.771383 6.67858C1.02219 5.4177 1.64125 4.25951 2.55029 3.35047C3.45933 2.44143 4.61752 1.82237 5.8784 1.57156C7.13928 1.32076 8.44621 1.44948 9.63393 1.94145C10.8216 2.43342 11.8368 3.26654 12.551 4.33546C13.2653 5.40438 13.6465 6.66109 13.6465 7.94667C13.643 9.66949 12.957 11.3207 11.7388 12.539C10.5206 13.7572 8.86931 14.4431 7.14649 14.4467ZM7.14649 2.44667C6.05955 2.45062 4.99816 2.77654 4.09632 3.38329C3.19448 3.99004 2.49265 4.85039 2.07943 5.85573C1.66622 6.86106 1.56015 7.96629 1.77462 9.03187C1.98909 10.0974 2.51449 11.0756 3.28446 11.8428C4.05444 12.61 5.03448 13.1318 6.10083 13.3424C7.16717 13.553 8.27201 13.4429 9.27584 13.0261C10.2797 12.6092 11.1375 11.9042 11.7409 11.0002C12.3444 10.0962 12.6665 9.03361 12.6665 7.94667C12.6656 7.22296 12.5221 6.50652 12.2441 5.83832C11.9662 5.17012 11.5592 4.56326 11.0466 4.05245C10.5339 3.54165 9.92556 3.1369 9.25635 2.86137C8.58715 2.58583 7.87019 2.44491 7.14649 2.44667Z" fill="#E59C50"/>
<path d="M8.85323 15.5533C7.2115 15.5592 5.62809 14.9449 4.4199 13.8333C4.32786 13.7387 4.27637 13.612 4.27637 13.48C4.27637 13.348 4.32786 13.2213 4.4199 13.1267C4.46409 13.078 4.51744 13.0386 4.57688 13.0106C4.63632 12.9826 4.7007 12.9666 4.76632 12.9635C4.83195 12.9604 4.89755 12.9703 4.95936 12.9926C5.02117 13.0149 5.07799 13.0491 5.12657 13.0933C5.71434 13.6376 6.41391 14.0468 7.17634 14.2925C7.93878 14.5382 8.74568 14.6144 9.54063 14.5158C10.3356 14.4171 11.0994 14.146 11.7786 13.7214C12.4579 13.2968 13.0362 12.729 13.4731 12.0576C13.9101 11.3862 14.1951 10.6275 14.3082 9.83444C14.4213 9.04142 14.3599 8.23326 14.1281 7.46647C13.8964 6.69968 13.4999 5.99276 12.9665 5.39516C12.4331 4.79755 11.7756 4.32367 11.0399 4.00667C10.9779 3.98137 10.9217 3.94372 10.8748 3.89601C10.8278 3.8483 10.791 3.79154 10.7667 3.72917C10.7424 3.6668 10.731 3.60013 10.7333 3.53323C10.7356 3.46632 10.7514 3.40058 10.7799 3.34C10.806 3.27863 10.844 3.22308 10.8919 3.17664C10.9397 3.1302 10.9963 3.0938 11.0585 3.06957C11.1206 3.04534 11.1869 3.03379 11.2536 3.03558C11.3202 3.03737 11.3858 3.05247 11.4466 3.08C12.8158 3.6759 13.9381 4.72507 14.6247 6.05109C15.3113 7.37712 15.5205 8.89913 15.217 10.3612C14.9134 11.8233 14.1158 13.1363 12.958 14.0794C11.8003 15.0226 10.3532 15.5383 8.8599 15.54L8.85323 15.5533Z" fill="#E59C50"/>
<path d="M5.14651 11.5267C5.07456 11.5249 5.00385 11.5076 4.93921 11.476C4.87456 11.4443 4.8175 11.3991 4.77193 11.3434C4.72636 11.2877 4.69335 11.2229 4.67516 11.1532C4.65696 11.0836 4.65401 11.0109 4.66651 10.94L5.00651 8.97333L3.57317 7.57333C3.50553 7.50861 3.45769 7.42597 3.43526 7.33507C3.41283 7.24417 3.41673 7.14876 3.44651 7.06C3.47511 6.97182 3.52766 6.89332 3.5983 6.83328C3.66893 6.77324 3.75487 6.73402 3.84651 6.72L5.84651 6.43333L6.73317 4.64C6.78015 4.56274 6.84623 4.49888 6.92505 4.45457C7.00386 4.41025 7.09276 4.38697 7.18317 4.38697C7.27359 4.38697 7.36249 4.41025 7.4413 4.45457C7.52012 4.49888 7.5862 4.56274 7.63317 4.64L8.48651 6.43333L10.4865 6.72C10.5781 6.73402 10.6641 6.77324 10.7347 6.83328C10.8054 6.89332 10.8579 6.97182 10.8865 7.06C10.9163 7.14876 10.9202 7.24417 10.8978 7.33507C10.8753 7.42597 10.8275 7.50861 10.7598 7.57333L9.33317 8.97333L9.67317 10.94C9.68889 11.0327 9.6785 11.1279 9.64318 11.215C9.60786 11.3022 9.549 11.3778 9.47317 11.4333C9.39723 11.4874 9.30766 11.5192 9.2146 11.5251C9.12153 11.531 9.02867 11.5108 8.94651 11.4667L7.17317 10.54L5.37984 11.4667C5.30832 11.5059 5.22808 11.5265 5.14651 11.5267ZM7.14651 9.47333C7.22809 9.47346 7.30832 9.49409 7.37984 9.53333L8.48651 10.1133L8.27984 8.88C8.26665 8.80081 8.27247 8.71962 8.29681 8.64312C8.32115 8.56662 8.36332 8.497 8.41984 8.44L9.33317 7.56667L8.09317 7.38667C8.01288 7.37398 7.93667 7.34264 7.87068 7.29517C7.80469 7.2477 7.75074 7.18542 7.71317 7.11333L7.15984 5.98667L6.59984 7.11333C6.56315 7.18609 6.50945 7.24893 6.4433 7.29651C6.37715 7.3441 6.30049 7.37502 6.21984 7.38667L4.97984 7.56667L5.87984 8.44C5.9373 8.49636 5.98009 8.56591 6.0045 8.64261C6.0289 8.7193 6.03417 8.8008 6.01984 8.88L5.81317 10.1133L6.91984 9.53333C6.98871 9.4935 7.06696 9.47279 7.14651 9.47333Z" fill="#E59C50"/>
</svg>
