<svg width="24" height="24" viewBox="0 0 24 24" fill="none" xmlns="http://www.w3.org/2000/svg">
<g opacity="0.5">
<path d="M12.0006 18.46C11.8026 18.4557 11.6135 18.3772 11.4706 18.24L5.77064 12.53C5.64556 12.3935 5.57617 12.2151 5.57617 12.03C5.57617 11.8449 5.64556 11.6665 5.77064 11.53L14.1606 3C14.3012 2.85931 14.4918 2.78017 14.6906 2.78H20.4406C20.6378 2.77998 20.8271 2.85762 20.9675 2.99612C21.1078 3.13462 21.188 3.32282 21.1906 3.52L21.2506 9.2C21.2509 9.40188 21.1719 9.5958 21.0306 9.74L12.5206 18.25C12.381 18.3846 12.1946 18.4599 12.0006 18.46ZM7.35064 12L12.0006 16.64L19.7606 8.89L19.7006 4.27L15.0006 4.25L7.35064 12Z" fill="currentColor"/>
<path d="M14.7906 21.25C14.692 21.2505 14.5944 21.2312 14.5034 21.1935C14.4124 21.1557 14.3298 21.1001 14.2606 21.03L3.00058 9.74C2.90919 9.59904 2.86777 9.43148 2.88296 9.26418C2.89814 9.09687 2.96906 8.93951 3.08434 8.81732C3.19962 8.69512 3.35258 8.61517 3.51872 8.59027C3.68486 8.56537 3.85454 8.59697 4.00058 8.68L15.3206 20C15.461 20.1406 15.5399 20.3312 15.5399 20.53C15.5399 20.7287 15.461 20.9194 15.3206 21.06C15.2492 21.1252 15.1656 21.1755 15.0746 21.2082C14.9837 21.2408 14.8871 21.255 14.7906 21.25Z" fill="currentColor"/>
<path d="M7.00035 21.19C6.89576 21.2008 6.79007 21.1894 6.69015 21.1567C6.59023 21.1239 6.49831 21.0706 6.42035 21L3.00035 17.55C2.92919 17.4774 2.87311 17.3914 2.83535 17.297C2.79759 17.2026 2.7789 17.1017 2.78035 17C2.78035 16.59 2.78035 16.58 6.89035 12.58C7.03357 12.4408 7.22623 12.3641 7.42596 12.3669C7.62569 12.3697 7.81611 12.4518 7.95535 12.595C8.09459 12.7382 8.17123 12.9309 8.16842 13.1306C8.16561 13.3303 8.08357 13.5208 7.94035 13.66C6.66035 14.91 5.26035 16.29 4.57035 17L7.00035 19.38L10.3104 16C10.3793 15.9292 10.4617 15.873 10.5527 15.8346C10.6438 15.7962 10.7416 15.7764 10.8404 15.7764C10.9391 15.7764 11.0369 15.7962 11.128 15.8346C11.219 15.873 11.3014 15.9292 11.3704 16C11.5108 16.1406 11.5897 16.3312 11.5897 16.53C11.5897 16.7288 11.5108 16.9194 11.3704 17.06L7.48035 21C7.34614 21.1153 7.17711 21.1822 7.00035 21.19Z" fill="currentColor"/>
<path d="M12.0003 12.75C11.9018 12.7505 11.8041 12.7312 11.7131 12.6935C11.6221 12.6557 11.5396 12.6001 11.4703 12.53C11.3299 12.3894 11.251 12.1988 11.251 12C11.251 11.8013 11.3299 11.6106 11.4703 11.47L15.4703 7.47C15.539 7.39631 15.6218 7.33721 15.7138 7.29622C15.8058 7.25523 15.9051 7.23319 16.0058 7.23141C16.1065 7.22963 16.2065 7.24816 16.2999 7.28588C16.3933 7.3236 16.4781 7.37974 16.5494 7.45096C16.6206 7.52218 16.6767 7.60701 16.7144 7.7004C16.7522 7.79379 16.7707 7.89382 16.7689 7.99452C16.7671 8.09523 16.7451 8.19454 16.7041 8.28654C16.6631 8.37854 16.604 8.46134 16.5303 8.53L12.5303 12.53C12.4611 12.6001 12.3785 12.6557 12.2875 12.6935C12.1965 12.7312 12.0989 12.7505 12.0003 12.75Z" fill="currentColor"/>
</g>
</svg>
