<svg width="24" height="24" viewBox="0 0 24 24" fill="none" xmlns="http://www.w3.org/2000/svg">
<g opacity="0.5">
<path d="M20.5 22.75H3.5C3.30109 22.75 3.11032 22.671 2.96967 22.5303C2.82902 22.3897 2.75 22.1989 2.75 22C2.75 21.8011 2.82902 21.6103 2.96967 21.4697C3.11032 21.329 3.30109 21.25 3.5 21.25H20.5C20.6989 21.25 20.8897 21.329 21.0303 21.4697C21.171 21.6103 21.25 21.8011 21.25 22C21.25 22.1989 21.171 22.3897 21.0303 22.5303C20.8897 22.671 20.6989 22.75 20.5 22.75Z" fill="currentColor"/>
<path d="M6.5 22.75C6.30189 22.7474 6.11263 22.6676 5.97253 22.5275C5.83244 22.3874 5.75259 22.1981 5.75 22V2C5.75059 1.87297 5.78344 1.74816 5.84547 1.6373C5.9075 1.52643 5.99667 1.43314 6.10462 1.36617C6.21257 1.2992 6.33576 1.26075 6.46264 1.25443C6.58952 1.2481 6.71592 1.2741 6.83 1.33L18.83 7.33C18.9573 7.38969 19.065 7.48441 19.1404 7.60306C19.2158 7.72172 19.2558 7.85941 19.2558 8C19.2558 8.14059 19.2158 8.27828 19.1404 8.39694C19.065 8.51559 18.9573 8.61031 18.83 8.67L7.25 14.46V22C7.24741 22.1981 7.16756 22.3874 7.02747 22.5275C6.88737 22.6676 6.69811 22.7474 6.5 22.75ZM7.25 3.21V12.79L16.82 8L7.25 3.21Z" fill="currentColor"/>
</g>
</svg>
