<svg width="24" height="24" viewBox="0 0 24 24" fill="none" xmlns="http://www.w3.org/2000/svg">
<g opacity="0.5">
<path d="M20 19.75H4.00003C3.73942 19.7581 3.47985 19.7135 3.23685 19.619C2.99384 19.5245 2.77237 19.382 2.58569 19.2C2.399 19.0179 2.25092 18.8002 2.15029 18.5596C2.04967 18.3191 1.99856 18.0607 2.00003 17.8V12.27C2.01308 11.7483 2.22954 11.2523 2.60321 10.888C2.97687 10.5237 3.47815 10.3198 4.00003 10.32H6.87003C6.92913 10.32 6.98764 10.3084 7.04224 10.2857C7.09684 10.2631 7.14644 10.23 7.18823 10.1882C7.23002 10.1464 7.26316 10.0968 7.28578 10.0422C7.30839 9.98761 7.32003 9.92909 7.32003 9.87V7.87C7.33271 7.35682 7.54222 6.86816 7.90521 6.50517C8.26819 6.14219 8.75685 5.93268 9.27003 5.92H14.83C15.3605 5.92 15.8692 6.13071 16.2442 6.50578C16.6193 6.88086 16.83 7.38957 16.83 7.92V12.39C16.83 12.5093 16.8774 12.6238 16.9618 12.7082C17.0462 12.7926 17.1607 12.84 17.28 12.84H20C20.52 12.8556 21.0134 13.0732 21.3756 13.4466C21.7378 13.82 21.9403 14.3198 21.94 14.84V17.8C21.9413 18.0556 21.8921 18.3089 21.7952 18.5455C21.6983 18.782 21.5556 18.997 21.3754 19.1783C21.1951 19.3595 20.9808 19.5033 20.7448 19.6014C20.5087 19.6995 20.2556 19.75 20 19.75ZM4.00003 11.82C3.88242 11.8226 3.77052 11.8712 3.68828 11.9553C3.60604 12.0394 3.56 12.1524 3.56003 12.27V17.8C3.56 17.9176 3.60604 18.0306 3.68828 18.1147C3.77052 18.1988 3.88242 18.2474 4.00003 18.25H20C20.1176 18.2474 20.2295 18.1988 20.3118 18.1147C20.394 18.0306 20.4401 17.9176 20.44 17.8V14.74C20.4401 14.6224 20.394 14.5094 20.3118 14.4253C20.2295 14.3412 20.1176 14.2926 20 14.29H17.23C16.7081 14.2902 16.2069 14.0863 15.8332 13.722C15.4595 13.3577 15.2431 12.8617 15.23 12.34V7.87C15.23 7.75065 15.1826 7.63619 15.0982 7.5518C15.0138 7.46741 14.8994 7.42 14.78 7.42H9.27003C9.15068 7.42 9.03622 7.46741 8.95183 7.5518C8.86744 7.63619 8.82003 7.75065 8.82003 7.87V9.87C8.82019 10.3919 8.61636 10.8932 8.25203 11.2668C7.88771 11.6405 7.39175 11.857 6.87003 11.87L4.00003 11.82Z" fill="currentColor"/>
</g>
</svg>
