<svg width="24" height="24" viewBox="0 0 24 24" fill="none" xmlns="http://www.w3.org/2000/svg">
<g opacity="0.5">
<path d="M16.3902 15.56H12.2002C12.0013 15.56 11.8105 15.481 11.6699 15.3403C11.5292 15.1997 11.4502 15.0089 11.4502 14.81C11.4502 14.6111 11.5292 14.4203 11.6699 14.2797C11.8105 14.139 12.0013 14.06 12.2002 14.06H16.3902C16.5891 14.06 16.7799 14.139 16.9205 14.2797C17.0612 14.4203 17.1402 14.6111 17.1402 14.81C17.1402 15.0089 17.0612 15.1997 16.9205 15.3403C16.7799 15.481 16.5891 15.56 16.3902 15.56Z" fill="currentColor"/>
<path d="M19.2102 15.23C19.1181 15.2279 19.0269 15.211 18.9402 15.18C18.8446 15.1448 18.7572 15.0905 18.6832 15.0205C18.6093 14.9504 18.5505 14.866 18.5102 14.7724C18.47 14.6789 18.4492 14.5781 18.4492 14.4762C18.4492 14.3744 18.4699 14.2736 18.5102 14.18L20.8902 7.85C20.9172 7.74917 20.965 7.65511 21.0305 7.57382C21.096 7.49253 21.1778 7.42581 21.2705 7.37792C21.3633 7.33004 21.465 7.30205 21.5692 7.29575C21.6734 7.28944 21.7778 7.30496 21.8757 7.34131C21.9735 7.37766 22.0627 7.43404 22.1376 7.50684C22.2124 7.57964 22.2712 7.66725 22.3102 7.76408C22.3492 7.86091 22.3676 7.96482 22.3641 8.06915C22.3607 8.17349 22.3355 8.27596 22.2902 8.37L19.9102 14.71C19.8622 14.8588 19.769 14.989 19.6435 15.0822C19.518 15.1754 19.3665 15.2271 19.2102 15.23Z" fill="currentColor"/>
<path d="M9.00016 15.44C8.84335 15.4399 8.69053 15.3906 8.56317 15.2991C8.43581 15.2077 8.34033 15.0786 8.29016 14.93L5.21016 5.56H2.41016C2.21124 5.56 2.02048 5.48098 1.87983 5.34033C1.73917 5.19968 1.66016 5.00891 1.66016 4.81C1.66016 4.61109 1.73917 4.42032 1.87983 4.27967C2.02048 4.13902 2.21124 4.06 2.41016 4.06H5.75016C5.9082 4.06082 6.06194 4.11153 6.18944 4.20492C6.31695 4.2983 6.41169 4.42957 6.46016 4.58L9.75016 14.45C9.78953 14.5461 9.8085 14.6494 9.80587 14.7532C9.80324 14.8571 9.77906 14.9593 9.73488 15.0533C9.69069 15.1473 9.62745 15.2311 9.54918 15.2994C9.4709 15.3677 9.37929 15.419 9.28016 15.45C9.18716 15.4664 9.09174 15.463 9.00016 15.44Z" fill="currentColor"/>
<path d="M10.54 19.94C9.89725 19.94 9.2689 19.7494 8.73444 19.3923C8.19998 19.0352 7.78342 18.5276 7.53743 17.9337C7.29145 17.3399 7.22709 16.6864 7.35249 16.056C7.47789 15.4255 7.78742 14.8464 8.24194 14.3919C8.69646 13.9374 9.27556 13.6279 9.906 13.5024C10.5364 13.377 11.1899 13.4414 11.7838 13.6874C12.3776 13.9334 12.8852 14.3499 13.2423 14.8844C13.5994 15.4189 13.79 16.0472 13.79 16.69C13.7874 17.5511 13.4441 18.3763 12.8352 18.9852C12.2263 19.5941 11.4012 19.9374 10.54 19.94ZM10.54 14.94C10.1939 14.94 9.85558 15.0426 9.56779 15.2349C9.28001 15.4272 9.0557 15.7005 8.92325 16.0203C8.7908 16.3401 8.75614 16.6919 8.82367 17.0314C8.89119 17.3709 9.05786 17.6827 9.3026 17.9274C9.54734 18.1722 9.85917 18.3389 10.1986 18.4064C10.5381 18.4739 10.89 18.4392 11.2097 18.3068C11.5295 18.1743 11.8028 17.95 11.9951 17.6623C12.1874 17.3745 12.29 17.0361 12.29 16.69C12.29 16.2259 12.1057 15.7808 11.7775 15.4526C11.4493 15.1244 11.0042 14.94 10.54 14.94Z" fill="currentColor"/>
<path d="M18.0498 19.94C17.407 19.94 16.7787 19.7494 16.2442 19.3923C15.7097 19.0352 15.2932 18.5276 15.0472 17.9337C14.8012 17.3399 14.7369 16.6864 14.8623 16.056C14.9877 15.4255 15.2972 14.8464 15.7517 14.3919C16.2062 13.9374 16.7853 13.6279 17.4158 13.5024C18.0462 13.377 18.6997 13.4414 19.2935 13.6874C19.8874 13.9334 20.395 14.3499 20.7521 14.8844C21.1092 15.4189 21.2998 16.0472 21.2998 16.69C21.2972 17.5511 20.9539 18.3763 20.345 18.9852C19.7361 19.5941 18.9109 19.9374 18.0498 19.94ZM18.0498 14.94C17.7037 14.94 17.3653 15.0426 17.0776 15.2349C16.7898 15.4272 16.5655 15.7005 16.433 16.0203C16.3006 16.3401 16.2659 16.6919 16.3334 17.0314C16.401 17.3709 16.5676 17.6827 16.8124 17.9274C17.0571 18.1722 17.3689 18.3389 17.7084 18.4064C18.0479 18.4739 18.3997 18.4392 18.7195 18.3068C19.0393 18.1743 19.3126 17.95 19.5049 17.6623C19.6972 17.3745 19.7998 17.0361 19.7998 16.69C19.7998 16.2259 19.6154 15.7808 19.2872 15.4526C18.9591 15.1244 18.5139 14.94 18.0498 14.94Z" fill="currentColor"/>
</g>
</svg>
