<svg width="24" height="24" viewBox="0 0 24 24" fill="none" xmlns="http://www.w3.org/2000/svg">
<path d="M12 21.66C11.8019 21.6574 11.6126 21.5776 11.4725 21.4375C11.3324 21.2974 11.2526 21.1081 11.25 20.91V15.34C11.25 15.1411 11.329 14.9503 11.4697 14.8097C11.6103 14.669 11.8011 14.59 12 14.59C12.1989 14.59 12.3897 14.669 12.5303 14.8097C12.671 14.9503 12.75 15.1411 12.75 15.34V20.91C12.7474 21.1081 12.6676 21.2974 12.5275 21.4375C12.3874 21.5776 12.1981 21.6574 12 21.66Z" fill="currentColor"/>
<path d="M11.9999 16.09C10.4723 16.09 9.00721 15.4831 7.927 14.4029C6.84679 13.3227 6.23994 11.8576 6.23994 10.33V3.65C6.22471 3.4336 6.22471 3.2164 6.23994 3C6.25241 2.90216 6.28404 2.80774 6.333 2.72213C6.38197 2.63652 6.44732 2.56138 6.52532 2.50103C6.60332 2.44067 6.69244 2.39627 6.78761 2.37035C6.88277 2.34444 6.9821 2.33752 7.07994 2.35C7.17777 2.36247 7.27219 2.3941 7.3578 2.44306C7.44342 2.49203 7.51855 2.55738 7.57891 2.63538C7.63926 2.71338 7.68367 2.8025 7.70958 2.89767C7.7355 2.99283 7.74241 3.09216 7.72994 3.19C7.71933 3.34315 7.71933 3.49685 7.72994 3.65V10.33C7.72994 11.4598 8.17876 12.5434 8.97766 13.3423C9.77657 14.1412 10.8601 14.59 11.9899 14.59C13.1198 14.59 14.2033 14.1412 15.0022 13.3423C15.8011 12.5434 16.2499 11.4598 16.2499 10.33V3.65C16.2605 3.49685 16.2605 3.34315 16.2499 3.19C16.2545 3.01109 16.3229 2.83972 16.4428 2.70683C16.5626 2.57393 16.7261 2.48828 16.9036 2.46534C17.081 2.4424 17.2609 2.48368 17.4106 2.58173C17.5603 2.67978 17.67 2.82813 17.7199 3C17.7352 3.2164 17.7352 3.4336 17.7199 3.65V10.33C17.72 11.8507 17.1186 13.3098 16.047 14.3889C14.9755 15.4679 13.5206 16.0794 11.9999 16.09Z" fill="currentColor"/>
<path d="M17.5497 10C17.4122 9.99881 17.2776 9.96083 17.1597 9.89L16.6197 9.57C16.4582 9.46684 16.3422 9.30573 16.2957 9.11975C16.2492 8.93378 16.2757 8.73706 16.3697 8.57C16.4696 8.4048 16.63 8.28515 16.8168 8.23657C17.0037 8.188 17.2021 8.21435 17.3697 8.31L17.7197 8.52C20.3897 8.32 20.9997 5.28 21.1997 3.84H2.79973C2.93973 5.29 3.57973 8.32 6.24973 8.46L6.59973 8.25C6.76739 8.15435 6.9658 8.128 7.15262 8.17657C7.33944 8.22515 7.49988 8.3448 7.59973 8.51C7.69375 8.67706 7.72023 8.87378 7.67374 9.05975C7.62725 9.24573 7.5113 9.40684 7.34973 9.51L6.80973 9.83C6.69188 9.90083 6.55722 9.93881 6.41973 9.94C2.30973 9.94 1.21973 5.44 1.21973 3.06C1.23009 2.86194 1.31746 2.67578 1.4632 2.54126C1.60893 2.40673 1.80147 2.33451 1.99973 2.34H21.9997C22.1978 2.34259 22.3871 2.42244 22.5272 2.56253C22.6673 2.70263 22.7471 2.89189 22.7497 3.09C22.7497 5.47 21.6597 10 17.5497 10Z" fill="currentColor"/>
<path d="M17.5693 21.66H7.56934C7.37042 21.66 7.17966 21.581 7.03901 21.4403C6.89835 21.2997 6.81934 21.1089 6.81934 20.91C6.81934 20.7111 6.89835 20.5203 7.03901 20.3797C7.17966 20.239 7.37042 20.16 7.56934 20.16H17.5693C17.7682 20.16 17.959 20.239 18.0997 20.3797C18.2403 20.5203 18.3193 20.7111 18.3193 20.91C18.3193 21.1089 18.2403 21.2997 18.0997 21.4403C17.959 21.581 17.7682 21.66 17.5693 21.66Z" fill="#5062E5"/>
</svg>
