<svg width="16" height="15" viewBox="0 0 16 15" fill="none" xmlns="http://www.w3.org/2000/svg">
<path d="M7.14649 13.2197C5.86091 13.2197 4.6042 12.8385 3.53528 12.1243C2.46636 11.4101 1.63324 10.3949 1.14127 9.20717C0.649301 8.01945 0.520579 6.71252 0.771383 5.45164C1.02219 4.19077 1.64125 3.03258 2.55029 2.12354C3.45933 1.21449 4.61752 0.595429 5.8784 0.344625C7.13928 0.0938213 8.44621 0.222543 9.63393 0.714512C10.8216 1.20648 11.8368 2.0396 12.551 3.10852C13.2653 4.17744 13.6465 5.43415 13.6465 6.71973C13.643 8.44255 12.957 10.0938 11.7388 11.312C10.5206 12.5303 8.86931 13.2162 7.14649 13.2197ZM7.14649 1.21973C6.05955 1.22368 4.99816 1.54961 4.09632 2.15635C3.19448 2.7631 2.49265 3.62346 2.07943 4.62879C1.66622 5.63413 1.56015 6.73936 1.77462 7.80493C1.98909 8.87051 2.51449 9.84864 3.28446 10.6158C4.05444 11.383 5.03448 11.9049 6.10083 12.1155C7.16717 12.3261 8.27201 12.216 9.27584 11.7991C10.2797 11.3823 11.1375 10.6773 11.7409 9.77328C12.3444 8.86924 12.6665 7.80667 12.6665 6.71973C12.6656 5.99602 12.5221 5.27958 12.2441 4.61138C11.9662 3.94318 11.5592 3.33633 11.0466 2.82552C10.5339 2.31471 9.92556 1.90996 9.25635 1.63443C8.58715 1.3589 7.87019 1.21798 7.14649 1.21973Z" fill="white"/>
<path d="M8.85323 14.3265C7.2115 14.3324 5.62809 13.7181 4.4199 12.6065C4.32786 12.5119 4.27637 12.3852 4.27637 12.2532C4.27637 12.1212 4.32786 11.9945 4.4199 11.8999C4.46409 11.8512 4.51744 11.8118 4.57688 11.7838C4.63632 11.7558 4.7007 11.7398 4.76632 11.7367C4.83195 11.7336 4.89755 11.7435 4.95936 11.7658C5.02117 11.7881 5.07799 11.8223 5.12657 11.8665C5.71434 12.4108 6.41391 12.82 7.17634 13.0657C7.93878 13.3114 8.74568 13.3876 9.54063 13.289C10.3356 13.1903 11.0994 12.9192 11.7786 12.4946C12.4579 12.07 13.0362 11.5022 13.4731 10.8308C13.9101 10.1594 14.1951 9.40065 14.3082 8.60764C14.4213 7.81462 14.3599 7.00646 14.1281 6.23967C13.8964 5.47288 13.4999 4.76596 12.9665 4.16835C12.4331 3.57075 11.7756 3.09687 11.0399 2.77986C10.9779 2.75456 10.9217 2.71691 10.8748 2.66921C10.8278 2.6215 10.791 2.56474 10.7667 2.50237C10.7424 2.44 10.731 2.37333 10.7333 2.30643C10.7356 2.23952 10.7514 2.17378 10.7799 2.1132C10.806 2.05182 10.844 1.99628 10.8919 1.94984C10.9397 1.9034 10.9963 1.86699 11.0585 1.84277C11.1206 1.81854 11.1869 1.80698 11.2536 1.80877C11.3202 1.81057 11.3858 1.82567 11.4466 1.8532C12.8158 2.4491 13.9381 3.49827 14.6247 4.82429C15.3113 6.15032 15.5205 7.67233 15.217 9.13441C14.9134 10.5965 14.1158 11.9095 12.958 12.8526C11.8003 13.7958 10.3532 14.3115 8.8599 14.3132L8.85323 14.3265Z" fill="white"/>
<path d="M5.14651 10.2999C5.07456 10.2981 5.00385 10.2808 4.93921 10.2491C4.87456 10.2175 4.8175 10.1723 4.77193 10.1166C4.72636 10.0609 4.69335 9.99605 4.67516 9.92642C4.65696 9.85679 4.65401 9.78406 4.66651 9.71318L5.00651 7.74652L3.57317 6.34652C3.50553 6.28179 3.45769 6.19915 3.43526 6.10825C3.41283 6.01735 3.41673 5.92195 3.44651 5.83318C3.47511 5.745 3.52766 5.6665 3.5983 5.60646C3.66893 5.54642 3.75487 5.5072 3.84651 5.49318L5.84651 5.20652L6.73317 3.41318C6.78015 3.33593 6.84623 3.27207 6.92505 3.22775C7.00386 3.18343 7.09276 3.16016 7.18317 3.16016C7.27359 3.16016 7.36249 3.18343 7.4413 3.22775C7.52012 3.27207 7.5862 3.33593 7.63317 3.41318L8.48651 5.20652L10.4865 5.49318C10.5781 5.5072 10.6641 5.54642 10.7347 5.60646C10.8054 5.6665 10.8579 5.745 10.8865 5.83318C10.9163 5.92195 10.9202 6.01735 10.8978 6.10825C10.8753 6.19915 10.8275 6.28179 10.7598 6.34652L9.33317 7.74652L9.67317 9.71318C9.68889 9.80587 9.6785 9.90111 9.64318 9.98823C9.60786 10.0754 9.549 10.1509 9.47317 10.2065C9.39723 10.2606 9.30766 10.2924 9.2146 10.2983C9.12153 10.3042 9.02867 10.284 8.94651 10.2399L7.17317 9.31318L5.37984 10.2399C5.30832 10.2791 5.22808 10.2997 5.14651 10.2999ZM7.14651 8.24652C7.22809 8.24664 7.30832 8.26728 7.37984 8.30652L8.48651 8.88652L8.27984 7.65318C8.26665 7.574 8.27247 7.49281 8.29681 7.41631C8.32115 7.33981 8.36332 7.27019 8.41984 7.21318L9.33317 6.33985L8.09317 6.15985C8.01288 6.14716 7.93667 6.11583 7.87068 6.06836C7.80469 6.02089 7.75074 5.95861 7.71317 5.88652L7.15984 4.75985L6.59984 5.88652C6.56315 5.95928 6.50945 6.02211 6.4433 6.0697C6.37715 6.11728 6.30049 6.14821 6.21984 6.15985L4.97984 6.33985L5.87984 7.21318C5.9373 7.26954 5.98009 7.3391 6.0045 7.41579C6.0289 7.49249 6.03417 7.57399 6.01984 7.65318L5.81317 8.88652L6.91984 8.30652C6.98871 8.26669 7.06696 8.24598 7.14651 8.24652Z" fill="white"/>
</svg>
