<svg width="14" height="12" viewBox="0 0 14 12" fill="none" xmlns="http://www.w3.org/2000/svg">
<path d="M11.9998 11.9266H1.33317C1.02375 11.9266 0.727005 11.8037 0.508213 11.5849C0.28942 11.3661 0.166504 11.0694 0.166504 10.7599V8.09327C0.171725 7.78672 0.296734 7.49438 0.514777 7.27883C0.73282 7.06328 1.02657 6.94164 1.33317 6.93994H11.9998C12.3087 6.94169 12.6044 7.06517 12.8229 7.28358C13.0413 7.502 13.1648 7.79773 13.1665 8.10661V10.7733C13.163 11.0804 13.0385 11.3737 12.8201 11.5896C12.6017 11.8055 12.307 11.9266 11.9998 11.9266ZM1.33317 7.92661C1.28897 7.92661 1.24658 7.94417 1.21532 7.97542C1.18406 8.00668 1.1665 8.04907 1.1665 8.09327V10.7599C1.16466 10.7829 1.1676 10.806 1.17515 10.8278C1.18269 10.8496 1.19468 10.8696 1.21034 10.8865C1.22601 10.9034 1.24501 10.9169 1.26615 10.9261C1.28729 10.9353 1.31011 10.94 1.33317 10.9399H11.9998C12.044 10.9399 12.0864 10.9224 12.1177 10.8911C12.1489 10.8599 12.1665 10.8175 12.1665 10.7733V8.10661C12.1665 8.06241 12.1489 8.02001 12.1177 7.98876C12.0864 7.9575 12.044 7.93994 11.9998 7.93994L1.33317 7.92661Z" fill="white"/>
<path d="M4.66634 9.92627H3.33301C3.2004 9.92627 3.07322 9.87359 2.97945 9.77982C2.88569 9.68606 2.83301 9.55888 2.83301 9.42627C2.83301 9.29366 2.88569 9.16649 2.97945 9.07272C3.07322 8.97895 3.2004 8.92627 3.33301 8.92627H4.66634C4.79895 8.92627 4.92613 8.97895 5.01989 9.07272C5.11366 9.16649 5.16634 9.29366 5.16634 9.42627C5.16634 9.55888 5.11366 9.68606 5.01989 9.77982C4.92613 9.87359 4.79895 9.92627 4.66634 9.92627Z" fill="white"/>
<path d="M9.47984 7.92627C9.41392 7.92629 9.34866 7.91311 9.28792 7.88748C9.22718 7.86186 9.17219 7.82433 9.1262 7.77709C9.08021 7.72986 9.04416 7.67389 9.02016 7.61249C8.99617 7.55109 8.98473 7.4855 8.98651 7.4196V5.4196C8.99163 5.2881 9.04705 5.16358 9.14134 5.07178C9.23563 4.97997 9.36158 4.92788 9.49318 4.92627C9.62523 4.92975 9.7507 4.98466 9.84286 5.0793C9.93501 5.17395 9.98656 5.30084 9.98651 5.43294V7.43294C9.98564 7.4986 9.97184 7.56345 9.94591 7.62378C9.91998 7.68411 9.88241 7.73874 9.83536 7.78455C9.78831 7.83036 9.7327 7.86646 9.6717 7.89077C9.6107 7.91509 9.54551 7.92715 9.47984 7.92627Z" fill="white"/>
<path d="M11.16 4.59313C11.0611 4.59261 10.9643 4.56494 10.88 4.51313C9.24004 3.4198 8.21338 4.4398 8.18004 4.44647C8.13408 4.49364 8.07913 4.53113 8.01845 4.55673C7.95777 4.58233 7.89257 4.59551 7.82671 4.59551C7.76085 4.59551 7.69565 4.58233 7.63497 4.55673C7.57428 4.53113 7.51934 4.49364 7.47338 4.44647C7.37974 4.35272 7.32715 4.22563 7.32715 4.09313C7.32715 3.96063 7.37974 3.83355 7.47338 3.7398C8.03338 3.1798 9.58671 2.44647 11.44 3.6798C11.5422 3.75365 11.6127 3.86336 11.6375 3.98698C11.6622 4.11061 11.6393 4.239 11.5734 4.34647C11.5318 4.41989 11.4718 4.48123 11.3993 4.52448C11.3269 4.56772 11.2444 4.59138 11.16 4.59313Z" fill="white"/>
<path d="M13.3334 2.97971C13.2345 2.97918 13.1376 2.95151 13.0534 2.89971C8.84003 0.0863738 6.03337 2.80637 6.0067 2.83304C5.96074 2.88021 5.90579 2.9177 5.84511 2.9433C5.78443 2.9689 5.71923 2.98209 5.65337 2.98209C5.58751 2.98209 5.52231 2.9689 5.46163 2.9433C5.40094 2.9177 5.346 2.88021 5.30003 2.83304C5.2064 2.73929 5.15381 2.61221 5.15381 2.47971C5.15381 2.34721 5.2064 2.22012 5.30003 2.12637C5.33337 2.12637 8.72004 -1.20696 13.6134 2.06637C13.7155 2.14022 13.7861 2.24994 13.8108 2.37356C13.8355 2.49718 13.8126 2.62558 13.7467 2.73304C13.7051 2.80646 13.6451 2.86781 13.5727 2.91105C13.5002 2.9543 13.4177 2.97796 13.3334 2.97971Z" fill="white"/>
</svg>
