<svg width="14" height="11" viewBox="0 0 14 11" fill="none" xmlns="http://www.w3.org/2000/svg">
<path d="M11 10.1061H3C2.33696 10.1061 1.70107 9.84273 1.23223 9.37389C0.763392 8.90505 0.5 8.26916 0.5 7.60612V2.93945C0.5 2.27641 0.763392 1.64053 1.23223 1.17169C1.70107 0.702845 2.33696 0.439453 3 0.439453H11C11.663 0.439453 12.2989 0.702845 12.7678 1.17169C13.2366 1.64053 13.5 2.27641 13.5 2.93945V7.60612C13.5 8.26916 13.2366 8.90505 12.7678 9.37389C12.2989 9.84273 11.663 10.1061 11 10.1061ZM3 1.43945C2.60218 1.43945 2.22064 1.59749 1.93934 1.87879C1.65804 2.1601 1.5 2.54163 1.5 2.93945V7.60612C1.5 8.00394 1.65804 8.38547 1.93934 8.66678C2.22064 8.94808 2.60218 9.10612 3 9.10612H11C11.3978 9.10612 11.7794 8.94808 12.0607 8.66678C12.342 8.38547 12.5 8.00394 12.5 7.60612V2.93945C12.5 2.54163 12.342 2.1601 12.0607 1.87879C11.7794 1.59749 11.3978 1.43945 11 1.43945H3Z" fill="white"/>
<path d="M12.9998 7.77295H9.29984C8.73458 7.77119 8.19298 7.54587 7.79328 7.14617C7.39359 6.74647 7.16826 6.20487 7.1665 5.63962V4.90628C7.16826 4.34103 7.39359 3.79943 7.79328 3.39973C8.19298 3.00003 8.73458 2.77471 9.29984 2.77295H12.9998C13.1324 2.77295 13.2596 2.82563 13.3534 2.9194C13.4472 3.01316 13.4998 3.14034 13.4998 3.27295C13.4998 3.40556 13.4472 3.53273 13.3534 3.6265C13.2596 3.72027 13.1324 3.77295 12.9998 3.77295H9.29984C8.99926 3.77295 8.71099 3.89235 8.49845 4.10489C8.28591 4.31744 8.1665 4.6057 8.1665 4.90628V5.63962C8.1665 5.94019 8.28591 6.22846 8.49845 6.441C8.71099 6.65355 8.99926 6.77295 9.29984 6.77295H12.9998C13.1324 6.77295 13.2596 6.82563 13.3534 6.9194C13.4472 7.01316 13.4998 7.14034 13.4998 7.27295C13.4998 7.40556 13.4472 7.53273 13.3534 7.6265C13.2596 7.72027 13.1324 7.77295 12.9998 7.77295Z" fill="white"/>
<path d="M10.3333 5.7728C10.2668 5.77301 10.201 5.75939 10.14 5.7328C10.0805 5.7075 10.0262 5.67133 9.98 5.62614C9.90922 5.55636 9.86117 5.46684 9.84214 5.3693C9.82311 5.27175 9.83398 5.17073 9.87333 5.07947C9.89604 5.0186 9.93255 4.96384 9.98 4.91947C10.0262 4.87428 10.0805 4.8381 10.14 4.8128C10.2316 4.77524 10.3322 4.76532 10.4293 4.78428C10.5265 4.80324 10.6159 4.85023 10.6867 4.91947C10.7319 4.96571 10.768 5.01997 10.7933 5.07947C10.8197 5.15398 10.828 5.23369 10.8176 5.31204C10.8072 5.3904 10.7784 5.46517 10.7335 5.53023C10.6886 5.59529 10.6289 5.64877 10.5594 5.6863C10.4898 5.72384 10.4124 5.74434 10.3333 5.74614V5.7728Z" fill="white"/>
</svg>
