<svg width="24" height="24" viewBox="0 0 24 24" fill="none" xmlns="http://www.w3.org/2000/svg">
<path d="M12 19C10.3189 19 8.67548 18.5015 7.27766 17.5675C5.87984 16.6335 4.79037 15.306 4.14703 13.7528C3.50368 12.1996 3.33535 10.4906 3.66333 8.84174C3.9913 7.1929 4.80085 5.67834 5.9896 4.4896C7.17834 3.30085 8.6929 2.4913 10.3417 2.16333C11.9906 1.83535 13.6996 2.00368 15.2528 2.64703C16.806 3.29037 18.1335 4.37984 19.0675 5.77766C20.0015 7.17548 20.5 8.81886 20.5 10.5C20.4974 12.7535 19.601 14.914 18.0075 16.5075C16.414 18.101 14.2535 18.9974 12 19ZM12 3C10.5166 3 9.0666 3.43987 7.83323 4.26398C6.59986 5.08809 5.63856 6.25943 5.07091 7.62988C4.50325 9.00032 4.35472 10.5083 4.64411 11.9632C4.9335 13.418 5.64781 14.7544 6.6967 15.8033C7.7456 16.8522 9.08197 17.5665 10.5368 17.8559C11.9917 18.1453 13.4997 17.9968 14.8701 17.4291C16.2406 16.8614 17.4119 15.9001 18.236 14.6668C19.0601 13.4334 19.5 11.9834 19.5 10.5C19.5 8.51088 18.7098 6.60323 17.3033 5.1967C15.8968 3.79018 13.9891 3 12 3Z" fill="white"/>
<path d="M12 14C11.3078 14 10.6311 13.7947 10.0555 13.4101C9.47993 13.0256 9.03133 12.4789 8.76642 11.8394C8.50152 11.1999 8.4322 10.4961 8.56725 9.81718C8.7023 9.13825 9.03564 8.51461 9.52513 8.02513C10.0146 7.53564 10.6383 7.2023 11.3172 7.06725C11.9961 6.9322 12.6999 7.00152 13.3394 7.26642C13.9789 7.53133 14.5256 7.97993 14.9101 8.55551C15.2947 9.13108 15.5 9.80777 15.5 10.5C15.5 11.4283 15.1313 12.3185 14.4749 12.9749C13.8185 13.6313 12.9283 14 12 14ZM12 8C11.5055 8 11.0222 8.14662 10.6111 8.42133C10.2 8.69603 9.87952 9.08648 9.6903 9.54329C9.50108 10.0001 9.45158 10.5028 9.54804 10.9877C9.6445 11.4727 9.8826 11.9181 10.2322 12.2678C10.5819 12.6174 11.0273 12.8555 11.5123 12.952C11.9972 13.0484 12.4999 12.9989 12.9567 12.8097C13.4135 12.6205 13.804 12.3 14.0787 11.8889C14.3534 11.4778 14.5 10.9945 14.5 10.5C14.5 9.83696 14.2366 9.20108 13.7678 8.73223C13.2989 8.26339 12.663 8 12 8Z" fill="white"/>
<path d="M22 22H2C1.9027 21.999 1.80768 21.9703 1.72617 21.9172C1.64466 21.864 1.58007 21.7886 1.54 21.7C1.50212 21.6107 1.49047 21.5125 1.50641 21.4169C1.52235 21.3212 1.56522 21.2321 1.63 21.16L6.26 16.09C6.30562 16.0434 6.36008 16.0064 6.42018 15.9811C6.48028 15.9559 6.54481 15.9429 6.61 15.9429C6.67519 15.9429 6.73972 15.9559 6.79982 15.9811C6.85992 16.0064 6.91438 16.0434 6.96 16.09C7.05225 16.1851 7.10384 16.3124 7.10384 16.445C7.10384 16.5775 7.05225 16.7048 6.96 16.8L3.13 21H20.92L17.31 16.75C17.2673 16.7 17.2349 16.6422 17.2146 16.5798C17.1942 16.5174 17.1864 16.4515 17.1915 16.3861C17.1966 16.3206 17.2146 16.2568 17.2443 16.1982C17.2741 16.1397 17.3151 16.0876 17.365 16.045C17.4149 16.0023 17.4727 15.9698 17.5352 15.9495C17.5976 15.9292 17.6634 15.9213 17.7289 15.9264C17.7944 15.9315 17.8582 15.9495 17.9167 15.9793C17.9752 16.009 18.0273 16.05 18.07 16.1L22.38 21.18C22.4441 21.2507 22.4852 21.3393 22.4977 21.434C22.5102 21.5287 22.4936 21.625 22.45 21.71C22.4123 21.7975 22.3493 21.8719 22.2692 21.9235C22.189 21.9752 22.0953 22.0018 22 22Z" fill="white"/>
</svg>
