<svg width="24" height="24" viewBox="0 0 24 24" fill="none" xmlns="http://www.w3.org/2000/svg">
<path d="M15.74 19.05H8.26C7.33255 19.0474 6.44385 18.6778 5.78804 18.022C5.13223 17.3662 4.76264 16.4774 4.76 15.55V8.45C4.77314 7.53043 5.14768 6.65299 5.80264 6.00739C6.4576 5.36178 7.34034 4.99991 8.26 5H15.74C16.6683 5 17.5585 5.36875 18.2149 6.02513C18.8713 6.6815 19.24 7.57174 19.24 8.5V15.6C19.2243 16.5187 18.8489 17.3947 18.1945 18.0397C17.5401 18.6848 16.6589 19.0475 15.74 19.05ZM8.26 6C7.59777 6.00263 6.96341 6.26687 6.49514 6.73514C6.02687 7.20341 5.76263 7.83777 5.76 8.5V15.6C5.76263 16.2622 6.02687 16.8966 6.49514 17.3649C6.96341 17.8331 7.59777 18.0974 8.26 18.1H15.74C16.4022 18.0974 17.0366 17.8331 17.5049 17.3649C17.9731 16.8966 18.2374 16.2622 18.24 15.6V8.45C18.2244 7.79649 17.9544 7.17485 17.4875 6.71731C17.0207 6.25977 16.3937 6.00242 15.74 6H8.26Z" fill="white"/>
<path d="M16.13 6H7.87C7.73739 6 7.61021 5.94733 7.51645 5.85356C7.42268 5.75979 7.37 5.63261 7.37 5.5V2.38001C7.37 2.2474 7.42268 2.12022 7.51645 2.02645C7.61021 1.93268 7.73739 1.88 7.87 1.88H16.13C16.2626 1.88 16.3898 1.93268 16.4836 2.02645C16.5773 2.12022 16.63 2.2474 16.63 2.38001V5.45C16.637 5.51974 16.6293 5.59018 16.6073 5.65673C16.5853 5.72329 16.5496 5.78449 16.5025 5.83635C16.4553 5.88821 16.3978 5.92958 16.3336 5.95777C16.2695 5.98597 16.2001 6.00036 16.13 6ZM8.37 5H15.63V2.88001H8.37V5Z" fill="white"/>
<path d="M16.13 22.1201H7.87C7.73739 22.1201 7.61021 22.0674 7.51645 21.9736C7.42268 21.8798 7.37 21.7527 7.37 21.6201V18.55C7.37 18.4174 7.42268 18.2903 7.51645 18.1965C7.61021 18.1027 7.73739 18.05 7.87 18.05H16.13C16.2626 18.05 16.3898 18.1027 16.4836 18.1965C16.5773 18.2903 16.63 18.4174 16.63 18.55V21.6201C16.63 21.7527 16.5773 21.8798 16.4836 21.9736C16.3898 22.0674 16.2626 22.1201 16.13 22.1201ZM8.37 21.1201H15.63V19.05H8.37V21.1201Z" fill="white"/>
</svg>
