<svg width="24" height="24" viewBox="0 0 24 24" fill="none" xmlns="http://www.w3.org/2000/svg">
<path d="M20 22.5C19.9344 22.5008 19.8694 22.4878 19.8091 22.462C19.7488 22.4362 19.6946 22.398 19.65 22.35L16 18.71L12.35 22.35C12.3051 22.3978 12.2509 22.4359 12.1907 22.462C12.1305 22.488 12.0656 22.5015 12 22.5015C11.9344 22.5015 11.8695 22.488 11.8093 22.462C11.7491 22.4359 11.6949 22.3978 11.65 22.35L8 18.71L4.35 22.35C4.28303 22.4228 4.19478 22.4727 4.09781 22.4924C4.00085 22.5122 3.90013 22.5008 3.81 22.46C3.71869 22.4224 3.64053 22.3587 3.58536 22.2769C3.53019 22.195 3.50049 22.0987 3.5 22V1.99995C3.50049 1.90124 3.53019 1.80488 3.58536 1.72302C3.64053 1.64116 3.71869 1.57746 3.81 1.53995C3.90013 1.49911 4.00085 1.48775 4.09781 1.50751C4.19478 1.52726 4.28303 1.57711 4.35 1.64995L8 5.28995L11.65 1.64995C11.6949 1.60212 11.7491 1.564 11.8093 1.53794C11.8695 1.51188 11.9344 1.49843 12 1.49843C12.0656 1.49843 12.1305 1.51188 12.1907 1.53794C12.2509 1.564 12.3051 1.60212 12.35 1.64995L16 5.28995L19.65 1.64995C19.717 1.57711 19.8052 1.52726 19.9022 1.50751C19.9991 1.48775 20.0999 1.49911 20.19 1.53995C20.2813 1.57746 20.3595 1.64116 20.4146 1.72302C20.4698 1.80488 20.4995 1.90124 20.5 1.99995V22C20.4995 22.0987 20.4698 22.195 20.4146 22.2769C20.3595 22.3587 20.2813 22.4224 20.19 22.46C20.1305 22.4876 20.0656 22.5013 20 22.5ZM8 17.5C8.06558 17.4992 8.13059 17.5121 8.19087 17.5379C8.25115 17.5638 8.30535 17.6019 8.35 17.65L12 21.29L15.65 17.65C15.6949 17.6021 15.7491 17.564 15.8093 17.5379C15.8695 17.5119 15.9344 17.4984 16 17.4984C16.0656 17.4984 16.1305 17.5119 16.1907 17.5379C16.2509 17.564 16.3051 17.6021 16.35 17.65L19.5 20.79V3.20995L16.35 6.34995C16.3051 6.39778 16.2509 6.43591 16.1907 6.46197C16.1305 6.48803 16.0656 6.50147 16 6.50147C15.9344 6.50147 15.8695 6.48803 15.8093 6.46197C15.7491 6.43591 15.6949 6.39778 15.65 6.34995L12 2.70995L8.35 6.34995C8.30511 6.39778 8.25089 6.43591 8.19069 6.46197C8.1305 6.48803 8.0656 6.50147 8 6.50147C7.9344 6.50147 7.8695 6.48803 7.80931 6.46197C7.74911 6.43591 7.69489 6.39778 7.65 6.34995L4.5 3.20995V20.79L7.65 17.65C7.69465 17.6019 7.74885 17.5638 7.80913 17.5379C7.86941 17.5121 7.93442 17.4992 8 17.5Z" fill="white"/>
</svg>
