<svg width="24" height="24" viewBox="0 0 24 24" fill="none" xmlns="http://www.w3.org/2000/svg">
<path d="M11.93 21C10.2449 21 8.59765 20.5003 7.19654 19.5641C5.79543 18.6279 4.7034 17.2973 4.05855 15.7404C3.41369 14.1836 3.24496 12.4705 3.57371 10.8178C3.90246 9.16508 4.71391 7.64696 5.90545 6.45542C7.09699 5.26387 8.61511 4.45242 10.2678 4.12367C11.9205 3.79493 13.6336 3.96365 15.1905 4.60851C16.7473 5.25337 18.0779 6.3454 19.0141 7.74651C19.9503 9.14761 20.45 10.7949 20.45 12.48C20.4474 14.7388 19.5489 16.9044 17.9516 18.5016C16.3544 20.0988 14.1888 20.9973 11.93 21ZM11.93 4.99996C10.4427 4.99996 8.98877 5.441 7.75211 6.26731C6.51545 7.09362 5.5516 8.26809 4.98243 9.64219C4.41325 11.0163 4.26433 12.5283 4.55449 13.987C4.84466 15.4458 5.56087 16.7857 6.61256 17.8374C7.66425 18.8891 9.00418 19.6053 10.4629 19.8955C11.9217 20.1856 13.4337 20.0367 14.8078 19.4675C16.1819 18.8984 17.3563 17.9345 18.1827 16.6979C19.009 15.4612 19.45 14.0073 19.45 12.52C19.4474 10.5263 18.6542 8.61514 17.2445 7.20544C15.8348 5.79574 13.9236 5.00261 11.93 4.99996Z" fill="white"/>
<path d="M11.87 12.64C11.3261 12.64 10.7944 12.4787 10.3422 12.1766C9.88995 11.8744 9.53747 11.4449 9.32933 10.9424C9.12119 10.4399 9.06673 9.88696 9.17284 9.35352C9.27895 8.82007 9.54086 8.33007 9.92546 7.94547C10.3101 7.56088 10.8001 7.29897 11.3335 7.19286C11.867 7.08675 12.4199 7.14121 12.9224 7.34935C13.4249 7.55749 13.8544 7.90996 14.1565 8.3622C14.4587 8.81443 14.62 9.34612 14.62 9.89002C14.62 10.6194 14.3303 11.3188 13.8145 11.8346C13.2988 12.3503 12.5993 12.64 11.87 12.64ZM11.87 8.14002C11.5239 8.14002 11.1855 8.24265 10.8978 8.43494C10.61 8.62724 10.3857 8.90055 10.2532 9.22032C10.1208 9.54009 10.0861 9.89196 10.1536 10.2314C10.2211 10.5709 10.3878 10.8827 10.6326 11.1275C10.8773 11.3722 11.1891 11.5389 11.5286 11.6064C11.8681 11.6739 12.2199 11.6393 12.5397 11.5068C12.8595 11.3744 13.1328 11.15 13.3251 10.8623C13.5174 10.5745 13.62 10.2361 13.62 9.89002C13.62 9.42589 13.4356 8.98077 13.1074 8.65258C12.7792 8.32439 12.3341 8.14002 11.87 8.14002Z" fill="white"/>
<path d="M11.93 17.9C11.3109 17.9 10.7058 17.7164 10.1911 17.3725C9.67634 17.0286 9.27516 16.5397 9.03826 15.9678C8.80136 15.3959 8.73937 14.7665 8.86014 14.1594C8.98091 13.5522 9.27902 12.9945 9.71676 12.5568C10.1545 12.119 10.7122 11.8209 11.3194 11.7002C11.9265 11.5794 12.5559 11.6414 13.1278 11.8783C13.6997 12.1152 14.1886 12.5164 14.5325 13.0311C14.8764 13.5458 15.06 14.151 15.06 14.77C15.0574 15.5993 14.7268 16.3939 14.1403 16.9803C13.5539 17.5668 12.7593 17.8974 11.93 17.9ZM11.93 12.64C11.5087 12.64 11.0969 12.7649 10.7466 12.999C10.3964 13.233 10.1234 13.5657 9.96214 13.9549C9.80092 14.3441 9.75874 14.7724 9.84093 15.1856C9.92311 15.5987 10.126 15.9783 10.4239 16.2762C10.7217 16.574 11.1013 16.7769 11.5145 16.8591C11.9276 16.9413 12.3559 16.8991 12.7451 16.7379C13.1343 16.5767 13.467 16.3037 13.701 15.9534C13.9351 15.6031 14.06 15.1913 14.06 14.77C14.06 14.2051 13.8356 13.6633 13.4361 13.2639C13.0367 12.8644 12.4949 12.64 11.93 12.64Z" fill="white"/>
</svg>
