<svg width="24" height="24" viewBox="0 0 24 24" fill="none" xmlns="http://www.w3.org/2000/svg">
<path d="M8.94001 12.83C8.84605 12.8253 8.75532 12.7942 8.67826 12.7402C8.6012 12.6862 8.54093 12.6116 8.50438 12.5249C8.46782 12.4383 8.45646 12.343 8.47161 12.2502C8.48676 12.1573 8.5278 12.0706 8.59001 12C8.68516 11.9078 8.81248 11.8562 8.94501 11.8562C9.07754 11.8562 9.20486 11.9078 9.30001 12C9.38932 12.0947 9.43906 12.2199 9.43906 12.35C9.43906 12.4802 9.38932 12.6054 9.30001 12.7C9.20144 12.7885 9.07234 12.8351 8.94001 12.83Z" fill="white"/>
<path d="M14.51 12.8601C14.4121 12.8587 14.3168 12.8287 14.2359 12.7736C14.155 12.7186 14.092 12.641 14.0547 12.5505C14.0174 12.46 14.0075 12.3606 14.0263 12.2645C14.045 12.1685 14.0915 12.08 14.16 12.0101C14.2535 11.9185 14.3791 11.8672 14.51 11.8672C14.6409 11.8672 14.7665 11.9185 14.86 12.0101C14.9285 12.08 14.975 12.1685 14.9938 12.2645C15.0125 12.3606 15.0026 12.46 14.9653 12.5505C14.9281 12.641 14.865 12.7186 14.7841 12.7736C14.7032 12.8287 14.6079 12.8587 14.51 12.8601Z" fill="white"/>
<path d="M11.77 22.61C10.8468 22.6165 9.95868 22.2569 9.30002 21.61L2.20002 14.51C1.86619 14.1849 1.60087 13.7961 1.4197 13.3667C1.23854 12.9374 1.1452 12.4761 1.1452 12.01C1.1452 11.544 1.23854 11.0827 1.4197 10.6533C1.60087 10.2239 1.86619 9.83521 2.20002 9.51003L9.30002 2.41003C9.62436 2.08379 10.01 1.8249 10.4348 1.64823C10.8595 1.47156 11.315 1.38062 11.775 1.38062C12.2351 1.38062 12.6905 1.47156 13.1153 1.64823C13.54 1.8249 13.9257 2.08379 14.25 2.41003L21.35 9.51003C21.6814 9.8366 21.9445 10.2258 22.1242 10.655C22.3038 11.0842 22.3963 11.5448 22.3963 12.01C22.3963 12.4753 22.3038 12.9359 22.1242 13.3651C21.9445 13.7943 21.6814 14.1835 21.35 14.51L14.25 21.61C13.5877 22.2575 12.6963 22.617 11.77 22.61ZM11.77 2.41003C11.1072 2.4121 10.4716 2.67423 10 3.14003L2.90002 10.24C2.43226 10.7103 2.16969 11.3467 2.16969 12.01C2.16969 12.6734 2.43226 13.3097 2.90002 13.78L10 20.88C10.4716 21.3454 11.1075 21.6063 11.77 21.6063C12.4326 21.6063 13.0684 21.3454 13.54 20.88L20.64 13.78C21.1054 13.3084 21.3663 12.6726 21.3663 12.01C21.3663 11.3475 21.1054 10.7116 20.64 10.24L13.54 3.14003C13.0684 2.67423 12.4329 2.4121 11.77 2.41003Z" fill="white"/>
</svg>
