<svg width="24" height="24" viewBox="0 0 24 24" fill="none" xmlns="http://www.w3.org/2000/svg">
<path d="M8.78995 8.47999C8.65481 8.47965 8.52534 8.42571 8.42995 8.32999C8.34064 8.23533 8.29089 8.11012 8.29089 7.97999C8.29089 7.84985 8.34064 7.72464 8.42995 7.62999C8.47441 7.57735 8.52927 7.53448 8.59108 7.50405C8.65289 7.47362 8.72033 7.45629 8.78915 7.45316C8.85798 7.45002 8.92671 7.46114 8.99103 7.48582C9.05536 7.5105 9.11389 7.54821 9.16295 7.59658C9.21201 7.64496 9.25055 7.70294 9.27614 7.76691C9.30173 7.83088 9.31383 7.89945 9.31167 7.96831C9.30951 8.03717 9.29314 8.10485 9.26359 8.16709C9.23404 8.22932 9.19195 8.28478 9.13995 8.32999C9.0953 8.37802 9.0411 8.41619 8.98082 8.44202C8.92054 8.46785 8.85552 8.48078 8.78995 8.47999Z" fill="white"/>
<path d="M8.79001 12.5C8.65487 12.4997 8.52539 12.4457 8.43001 12.35C8.3855 12.3045 8.35138 12.2499 8.33001 12.19C8.31513 12.1275 8.31513 12.0625 8.33001 12C8.32922 11.8695 8.37946 11.7439 8.47001 11.65C8.51447 11.5974 8.56932 11.5545 8.63114 11.5241C8.69295 11.4936 8.76038 11.4763 8.82921 11.4732C8.89804 11.47 8.96677 11.4812 9.03109 11.5058C9.09542 11.5305 9.15394 11.5682 9.20301 11.6166C9.25207 11.665 9.2906 11.723 9.3162 11.7869C9.34179 11.8509 9.35388 11.9195 9.35172 11.9883C9.34956 12.0572 9.3332 12.1249 9.30365 12.1871C9.2741 12.2493 9.232 12.3048 9.18001 12.35C9.13097 12.4034 9.07025 12.4447 9.00259 12.4707C8.93494 12.4968 8.86218 12.5068 8.79001 12.5Z" fill="white"/>
<path d="M15.17 12.4999C15.1044 12.5007 15.0394 12.4878 14.9791 12.462C14.9188 12.4361 14.8646 12.398 14.82 12.3499C14.7723 12.305 14.7348 12.2505 14.71 12.1899C14.7007 12.127 14.7007 12.0629 14.71 11.9999C14.7129 11.8683 14.7667 11.7429 14.86 11.6499C14.904 11.6013 14.9588 11.5636 15.02 11.5399C15.1417 11.4899 15.2783 11.4899 15.4 11.5399C15.4653 11.561 15.524 11.599 15.57 11.6499C15.6593 11.7446 15.709 11.8698 15.709 11.9999C15.709 12.1301 15.6593 12.2553 15.57 12.3499C15.519 12.4035 15.4565 12.4449 15.3872 12.4708C15.3179 12.4968 15.2437 12.5068 15.17 12.4999Z" fill="white"/>
<path d="M15.17 8.47998C15.1044 8.48077 15.0394 8.46784 14.9791 8.44201C14.9189 8.41617 14.8646 8.37801 14.82 8.32998C14.7387 8.23375 14.6968 8.11039 14.7025 7.98456C14.7082 7.85874 14.7612 7.73971 14.8509 7.65127C14.9406 7.56284 15.0604 7.51152 15.1863 7.50757C15.3122 7.50362 15.4349 7.54734 15.53 7.62998C15.6193 7.72463 15.6691 7.84984 15.6691 7.97998C15.6691 8.11011 15.6193 8.23532 15.53 8.32998C15.4346 8.4257 15.3051 8.47964 15.17 8.47998Z" fill="white"/>
<path d="M8.78997 16.48C8.72289 16.481 8.65633 16.4682 8.5944 16.4424C8.53248 16.4166 8.47651 16.3783 8.42997 16.33C8.34412 16.2411 8.29424 16.1235 8.28997 16C8.27509 15.9375 8.27509 15.8725 8.28997 15.81C8.31134 15.7501 8.34546 15.6955 8.38997 15.65C8.43443 15.5974 8.48928 15.5545 8.5511 15.5241C8.61291 15.4936 8.68034 15.4763 8.74917 15.4732C8.818 15.47 8.88673 15.4812 8.95105 15.5058C9.01538 15.5305 9.07391 15.5682 9.12297 15.6166C9.17203 15.665 9.21056 15.723 9.23616 15.7869C9.26175 15.8509 9.27384 15.9195 9.27168 15.9883C9.26952 16.0572 9.25316 16.1249 9.22361 16.1871C9.19406 16.2493 9.15196 16.3048 9.09997 16.35C9.01619 16.4301 8.90579 16.4764 8.78997 16.48Z" fill="white"/>
<path d="M15.17 16.4799C15.1044 16.4807 15.0394 16.4678 14.9791 16.442C14.9188 16.4161 14.8646 16.378 14.82 16.3299C14.7721 16.285 14.734 16.2308 14.708 16.1706C14.6819 16.1104 14.6685 16.0455 14.6685 15.9799C14.6685 15.9143 14.6819 15.8494 14.708 15.7892C14.734 15.729 14.7721 15.6748 14.82 15.6299C14.864 15.5813 14.9188 15.5436 14.98 15.5199C15.1017 15.4699 15.2382 15.4699 15.36 15.5199C15.4253 15.541 15.484 15.5789 15.53 15.6299C15.6193 15.7246 15.669 15.8498 15.669 15.9799C15.669 16.1101 15.6193 16.2353 15.53 16.3299C15.4834 16.3782 15.4275 16.4165 15.3655 16.4423C15.3036 16.4681 15.2371 16.4809 15.17 16.4799Z" fill="white"/>
<path d="M17 20.52H6.99998C6.53698 20.5227 6.07806 20.4335 5.6498 20.2575C5.22153 20.0815 4.83244 19.8224 4.50505 19.495C4.17765 19.1676 3.91847 18.7785 3.74252 18.3502C3.56656 17.922 3.47732 17.463 3.47998 17V7.00004C3.47732 6.53704 3.56656 6.07812 3.74252 5.64986C3.91847 5.2216 4.17765 4.8325 4.50505 4.50511C4.83244 4.17771 5.22153 3.91853 5.6498 3.74258C6.07806 3.56662 6.53698 3.47738 6.99998 3.48004H17C17.463 3.47738 17.9219 3.56662 18.3502 3.74258C18.7784 3.91853 19.1675 4.17771 19.4949 4.50511C19.8223 4.8325 20.0815 5.2216 20.2574 5.64986C20.4334 6.07812 20.5226 6.53704 20.52 7.00004V17C20.5226 17.463 20.4334 17.922 20.2574 18.3502C20.0815 18.7785 19.8223 19.1676 19.4949 19.495C19.1675 19.8224 18.7784 20.0815 18.3502 20.2575C17.9219 20.4335 17.463 20.5227 17 20.52ZM6.99998 4.48004C6.6683 4.47737 6.33942 4.54074 6.03247 4.66643C5.72553 4.79213 5.44667 4.97765 5.21213 5.21219C4.97759 5.44673 4.79207 5.72559 4.66637 6.03253C4.54068 6.33948 4.47731 6.66836 4.47998 7.00004V17C4.47731 17.3317 4.54068 17.6606 4.66637 17.9675C4.79207 18.2745 4.97759 18.5533 5.21213 18.7879C5.44667 19.0224 5.72553 19.2079 6.03247 19.3336C6.33942 19.4593 6.6683 19.5227 6.99998 19.52H17C17.663 19.52 18.2989 19.2566 18.7677 18.7878C19.2366 18.319 19.5 17.6831 19.5 17.02V7.00004C19.5026 6.67005 19.4399 6.34281 19.3154 6.03719C19.191 5.73156 19.0073 5.4536 18.7749 5.21933C18.5424 4.98506 18.266 4.79912 17.9613 4.67223C17.6567 4.54535 17.33 4.48003 17 4.48004H6.99998Z" fill="white"/>
</svg>
