<svg width="24" height="24" viewBox="0 0 24 24" fill="none" xmlns="http://www.w3.org/2000/svg">
<path d="M12 16.7699C6.32 16.7699 1.69 13.8899 1.69 10.3499C1.69 6.80994 6.32 3.93994 12 3.93994C17.68 3.93994 22.3 6.80994 22.3 10.3499C22.3 13.8899 17.68 16.7699 12 16.7699ZM12 4.93994C6.87 4.93994 2.69 7.36994 2.69 10.3499C2.69 13.3299 6.87 15.7699 12 15.7699C17.13 15.7699 21.3 13.3399 21.3 10.3499C21.3 7.35994 17.13 4.93994 12 4.93994Z" fill="white"/>
<path d="M12 20.0699C6.33 20.0699 1.7 17.1899 1.7 13.6499C1.7 13.5173 1.75268 13.3901 1.84644 13.2963C1.94021 13.2026 2.06739 13.1499 2.2 13.1499C2.33261 13.1499 2.45978 13.2026 2.55355 13.2963C2.64732 13.3901 2.7 13.5173 2.7 13.6499C2.7 16.6499 6.88 19.0699 12 19.0699C17.12 19.0699 21.19 16.6999 21.32 13.7799V13.6499C21.32 13.5173 21.3727 13.3901 21.4664 13.2963C21.5602 13.2026 21.6874 13.1499 21.82 13.1499C21.9526 13.1499 22.0798 13.2026 22.1735 13.2963C22.2673 13.3901 22.32 13.5173 22.32 13.6499V13.8099C22.15 17.3199 17.62 20.0699 12 20.0699Z" fill="white"/>
<path d="M12 14C8.05 14 5 12.33 5 10.21C5 8.08996 8.05 6.45996 12 6.45996C15.95 6.45996 19 8.12996 19 10.25C19 12.37 16 14 12 14ZM12 7.41996C8.38 7.41996 6 8.85996 6 10.21C6 11.56 8.38 13 12 13C15.62 13 18 11.56 18 10.21C18 8.85996 15.61 7.45996 12 7.45996V7.41996Z" fill="white"/>
<path d="M2.19 14.1499C2.0582 14.1473 1.9325 14.0938 1.83928 14.0006C1.74606 13.9074 1.69256 13.7817 1.69 13.6499V10.3499C1.69256 10.218 1.74606 10.0924 1.83928 9.99913C1.9325 9.90591 2.0582 9.85241 2.19 9.84985C2.32261 9.84985 2.44979 9.90253 2.54356 9.9963C2.63732 10.0901 2.69 10.2172 2.69 10.3499V13.6499C2.69 13.7825 2.63732 13.9096 2.54356 14.0034C2.44979 14.0972 2.32261 14.1499 2.19 14.1499Z" fill="white"/>
<path d="M21.8 14.3099C21.6682 14.3073 21.5425 14.2538 21.4493 14.1606C21.3561 14.0674 21.3026 13.9417 21.3 13.8099V10.3499C21.3026 10.218 21.3561 10.0924 21.4493 9.99913C21.5425 9.90591 21.6682 9.85241 21.8 9.84985C21.9326 9.84985 22.0598 9.90253 22.1536 9.9963C22.2473 10.0901 22.3 10.2172 22.3 10.3499V13.8099C22.3 13.9425 22.2473 14.0696 22.1536 14.1634C22.0598 14.2572 21.9326 14.3099 21.8 14.3099Z" fill="white"/>
</svg>
