<svg width="24" height="24" viewBox="0 0 24 24" fill="none" xmlns="http://www.w3.org/2000/svg">
<path d="M8.34 20.9401C8.26413 20.9377 8.18943 20.9207 8.12 20.8901C8.03657 20.8479 7.96633 20.7836 7.91695 20.7043C7.86757 20.6249 7.84095 20.5335 7.84 20.4401V17.7301H4.84C4.70819 17.7275 4.5825 17.674 4.48928 17.5808C4.39606 17.4876 4.34256 17.3619 4.34 17.2301C4.34 17.0975 4.39268 16.9703 4.48644 16.8765C4.58021 16.7827 4.70739 16.7301 4.84 16.7301H8.34C8.47261 16.7301 8.59978 16.7827 8.69355 16.8765C8.78732 16.9703 8.84 17.0975 8.84 17.2301V19.4301L12.17 16.9101C12.2578 16.8475 12.3623 16.8127 12.47 16.8101H16L18.43 14.3401V3.81006H5.31V14.0001C5.31 14.1327 5.25732 14.2598 5.16355 14.3536C5.06978 14.4474 4.94261 14.5001 4.81 14.5001C4.67739 14.5001 4.55021 14.4474 4.45644 14.3536C4.36268 14.2598 4.31 14.1327 4.31 14.0001V3.31006C4.31256 3.17825 4.36606 3.05256 4.45928 2.95934C4.5525 2.86612 4.67819 2.81262 4.81 2.81006H18.9C19.0318 2.81262 19.1575 2.86612 19.2507 2.95934C19.3439 3.05256 19.3974 3.17825 19.4 3.31006V14.5501C19.3996 14.6155 19.3861 14.6801 19.3604 14.7402C19.3346 14.8003 19.2971 14.8547 19.25 14.9001L16.53 17.6601C16.4838 17.7089 16.4279 17.7474 16.3659 17.7733C16.3039 17.7991 16.2372 17.8116 16.17 17.8101H12.64L8.64 20.8101C8.55739 20.8858 8.45174 20.9316 8.34 20.9401Z" fill="white"/>
<path d="M9.19 11.8501C9.05739 11.8501 8.93022 11.7974 8.83645 11.7037C8.74268 11.6099 8.69 11.4827 8.69 11.3501V7.2301C8.69 7.09749 8.74268 6.97032 8.83645 6.87655C8.93022 6.78278 9.05739 6.7301 9.19 6.7301C9.32261 6.7301 9.44979 6.78278 9.54356 6.87655C9.63732 6.97032 9.69 7.09749 9.69 7.2301V11.3501C9.69 11.4827 9.63732 11.6099 9.54356 11.7037C9.44979 11.7974 9.32261 11.8501 9.19 11.8501Z" fill="white"/>
<path d="M14.81 11.8501C14.6774 11.8501 14.5502 11.7974 14.4564 11.7037C14.3627 11.6099 14.31 11.4827 14.31 11.3501V7.2301C14.31 7.09749 14.3627 6.97032 14.4564 6.87655C14.5502 6.78278 14.6774 6.7301 14.81 6.7301C14.9426 6.7301 15.0698 6.78278 15.1636 6.87655C15.2573 6.97032 15.31 7.09749 15.31 7.2301V11.3501C15.31 11.4827 15.2573 11.6099 15.1636 11.7037C15.0698 11.7974 14.9426 11.8501 14.81 11.8501Z" fill="white"/>
</svg>
