<svg width="24" height="24" viewBox="0 0 24 24" fill="none" xmlns="http://www.w3.org/2000/svg">
<path d="M19.56 13.47C19.4461 13.4705 19.3355 13.4321 19.2464 13.3612C19.1573 13.2903 19.0951 13.1911 19.07 13.08C18.7283 11.4566 17.8388 10.0001 16.5506 8.95481C15.2624 7.90952 13.6539 7.33902 11.995 7.33902C10.3361 7.33902 8.72759 7.90952 7.4394 8.95481C6.15121 10.0001 5.26167 11.4566 4.92 13.08C4.90698 13.1441 4.88127 13.2049 4.84436 13.2589C4.80746 13.3129 4.76012 13.359 4.70513 13.3944C4.65015 13.4298 4.58863 13.4538 4.5242 13.4651C4.45977 13.4764 4.39374 13.4746 4.33 13.46C4.26565 13.4468 4.20451 13.4212 4.15008 13.3844C4.09565 13.3477 4.04899 13.3006 4.01278 13.2458C3.97656 13.191 3.95149 13.1296 3.93901 13.0651C3.92652 13.0006 3.92686 12.9343 3.94 12.87C4.3276 11.0206 5.3398 9.36085 6.80659 8.1696C8.27338 6.97835 10.1054 6.32813 11.995 6.32812C13.8846 6.32812 15.7166 6.97835 17.1834 8.1696C18.6502 9.36085 19.6624 11.0206 20.05 12.87C20.0647 12.9337 20.0664 12.9997 20.0551 13.0642C20.0439 13.1286 20.0198 13.1901 19.9844 13.2451C19.949 13.3001 19.9029 13.3474 19.8489 13.3843C19.7949 13.4212 19.7341 13.4469 19.67 13.46L19.56 13.47Z" fill="white"/>
<path d="M12 18.3799C6.64 18.3799 1.22 17.2299 1.22 14.9999C1.22 12.7699 6.64 11.6599 12 11.6599C17.36 11.6599 22.78 12.8199 22.78 14.9999C22.78 17.1799 17.36 18.3799 12 18.3799ZM12 12.6599C6 12.6599 2.22 14.0599 2.22 15.0199C2.22 15.9799 6 17.3799 12 17.3799C18 17.3799 21.78 15.9999 21.78 14.9999C21.78 13.9999 18 12.6599 12 12.6599Z" fill="white"/>
<path d="M18.07 22.3599H5.94C4.72 22.3599 3.78 20.9299 3.78 19.0999V16.8799C3.78 16.7473 3.83268 16.6201 3.92645 16.5263C4.02021 16.4326 4.14739 16.3799 4.28 16.3799C4.41261 16.3799 4.53978 16.4326 4.63355 16.5263C4.72732 16.6201 4.78 16.7473 4.78 16.8799V19.0999C4.78 20.4299 5.39 21.3599 5.94 21.3599H18.07C18.61 21.3599 19.23 20.4299 19.23 19.0999V16.8799C19.23 16.7473 19.2827 16.6201 19.3764 16.5263C19.4702 16.4326 19.5974 16.3799 19.73 16.3799C19.8626 16.3799 19.9898 16.4326 20.0836 16.5263C20.1773 16.6201 20.23 16.7473 20.23 16.8799V19.0999C20.23 20.9299 19.28 22.3599 18.07 22.3599Z" fill="white"/>
<path d="M12 7.32998C11.8674 7.32998 11.7402 7.2773 11.6464 7.18353C11.5527 7.08977 11.5 6.96259 11.5 6.82998V2.22998C11.5 2.09737 11.5527 1.9702 11.6464 1.87643C11.7402 1.78266 11.8674 1.72998 12 1.72998C12.1326 1.72998 12.2598 1.78266 12.3536 1.87643C12.4473 1.9702 12.5 2.09737 12.5 2.22998V6.82998C12.5 6.96259 12.4473 7.08977 12.3536 7.18353C12.2598 7.2773 12.1326 7.32998 12 7.32998Z" fill="white"/>
</svg>
