<svg width="24" height="24" viewBox="0 0 24 24" fill="none" xmlns="http://www.w3.org/2000/svg">
<path d="M11 20.49C10.8668 20.4893 10.7386 20.4395 10.64 20.35L2.64 12.35C2.59313 12.3035 2.55593 12.2482 2.53055 12.1873C2.50516 12.1264 2.4921 12.061 2.4921 11.995C2.4921 11.929 2.50516 11.8636 2.53055 11.8027C2.55593 11.7418 2.59313 11.6865 2.64 11.64L10.64 3.64001C10.7105 3.5709 10.7999 3.52422 10.8969 3.50582C10.9938 3.48743 11.0941 3.49816 11.185 3.53666C11.2759 3.57516 11.3534 3.6397 11.4076 3.72216C11.4619 3.80462 11.4906 3.90129 11.49 4.00001V7.55001H21C21.1326 7.55001 21.2598 7.60269 21.3535 7.69645C21.4473 7.79022 21.5 7.9174 21.5 8.05001V16.05C21.5 16.1826 21.4473 16.3098 21.3535 16.4036C21.2598 16.4973 21.1326 16.55 21 16.55H11.5V19.99C11.5009 20.089 11.4717 20.186 11.4164 20.2681C11.361 20.3502 11.2821 20.4136 11.19 20.45C11.1305 20.4777 11.0655 20.4913 11 20.49ZM3.72 12L10.51 18.79V16.06C10.5092 15.9295 10.5595 15.8039 10.65 15.71C10.7454 15.6143 10.8749 15.5603 11.01 15.56H20.51V8.56001H11C10.8674 8.56001 10.7402 8.50733 10.6464 8.41356C10.5527 8.31979 10.5 8.19262 10.5 8.06001V5.22001L3.72 12Z" fill="white"/>
</svg>
