<svg width="24" height="24" viewBox="0 0 24 24" fill="none" xmlns="http://www.w3.org/2000/svg">
<path d="M12 21.8299C10.0558 21.8299 8.15528 21.2534 6.53875 20.1733C4.92221 19.0931 3.66228 17.5579 2.91827 15.7617C2.17426 13.9655 1.97959 11.989 2.35888 10.0822C2.73818 8.17535 3.67439 6.42382 5.04914 5.04907C6.42389 3.67432 8.17543 2.7381 10.0823 2.35881C11.9891 1.97951 13.9656 2.17418 15.7618 2.91819C17.558 3.6622 19.0932 4.92214 20.1733 6.53867C21.2535 8.15521 21.83 10.0557 21.83 11.9999C21.8274 14.6062 20.7908 17.105 18.9479 18.9479C17.105 20.7908 14.6063 21.8273 12 21.8299ZM12 3.16993C10.2536 3.16993 8.5464 3.6878 7.09432 4.65805C5.64223 5.6283 4.51047 7.00736 3.84215 8.62083C3.17382 10.2343 2.99896 12.0097 3.33967 13.7226C3.68038 15.4354 4.52135 17.0088 5.75625 18.2437C6.99115 19.4786 8.5645 20.3196 10.2774 20.6603C11.9902 21.001 13.7656 20.8261 15.3791 20.1578C16.9926 19.4895 18.3716 18.3577 19.3419 16.9056C20.3121 15.4535 20.83 13.7463 20.83 11.9999C20.8274 9.65888 19.8962 7.41447 18.2408 5.7591C16.5855 4.10372 14.3411 3.17257 12 3.16993Z" fill="white"/>
<path d="M7.38001 17.1199C7.3118 17.1276 7.24272 17.1209 7.17726 17.1002C7.1118 17.0796 7.05141 17.0454 7.00001 16.9999C6.93479 16.9343 6.88905 16.8519 6.86786 16.7618C6.84667 16.6718 6.85088 16.5777 6.88001 16.4899L8.88001 10.5499C8.9001 10.4857 8.9337 10.4267 8.97855 10.3767C9.02341 10.3266 9.07846 10.2868 9.14001 10.2599L16.4 6.95986C16.4924 6.9188 16.595 6.9067 16.6944 6.92515C16.7938 6.94359 16.8852 6.99172 16.9567 7.06319C17.0281 7.13467 17.0763 7.22612 17.0947 7.32549C17.1132 7.42487 17.1011 7.5275 17.06 7.61986L13.76 14.8799C13.7331 14.9414 13.6932 14.9965 13.6432 15.0413C13.5932 15.0862 13.5341 15.1198 13.47 15.1399L7.53001 17.1399C7.4792 17.1426 7.42833 17.1358 7.38001 17.1199ZM9.77001 11.0499L8.17001 15.8299L13 14.2299L15.66 8.38986L9.77001 11.0499Z" fill="white"/>
<path d="M11.53 13C11.3983 12.997 11.2729 12.9433 11.18 12.85C11.1329 12.8046 11.0954 12.7503 11.0696 12.6901C11.0439 12.63 11.0304 12.5654 11.03 12.5C11.016 12.434 11.016 12.3659 11.03 12.3C11.0537 12.2388 11.0913 12.184 11.14 12.14C11.1855 12.0955 11.2401 12.0613 11.3 12.04C11.3897 12.0008 11.4891 11.9894 11.5853 12.0072C11.6816 12.025 11.7703 12.0713 11.84 12.14C11.8887 12.184 11.9263 12.2388 11.95 12.3C11.964 12.3659 11.964 12.434 11.95 12.5C11.9508 12.5656 11.9379 12.6306 11.912 12.6908C11.8862 12.7511 11.848 12.8053 11.8 12.85C11.7277 12.9267 11.6333 12.9791 11.53 13Z" fill="white"/>
</svg>
