<svg width="24" height="24" viewBox="0 0 24 24" fill="none" xmlns="http://www.w3.org/2000/svg">
<path d="M16.75 15H7.25C7.11739 15 6.99021 14.9473 6.89645 14.8536C6.80268 14.7598 6.75 14.6326 6.75 14.5V9.5C6.75 9.36739 6.80268 9.24021 6.89645 9.14645C6.99021 9.05268 7.11739 9 7.25 9H16.75C16.8826 9 17.0098 9.05268 17.1036 9.14645C17.1973 9.24021 17.25 9.36739 17.25 9.5V14.5C17.25 14.6326 17.1973 14.7598 17.1036 14.8536C17.0098 14.9473 16.8826 15 16.75 15ZM7.75 14H16.25V10H7.75V14Z" fill="white"/>
<path d="M12 14.5C11.5055 14.5 11.0222 14.3534 10.6111 14.0787C10.2 13.804 9.87952 13.4135 9.6903 12.9567C9.50108 12.4999 9.45157 11.9972 9.54804 11.5123C9.6445 11.0273 9.8826 10.5819 10.2322 10.2322C10.5819 9.8826 11.0273 9.6445 11.5123 9.54804C11.9972 9.45157 12.4999 9.50108 12.9567 9.6903C13.4135 9.87952 13.804 10.2 14.0787 10.6111C14.3534 11.0222 14.5 11.5055 14.5 12C14.5 12.663 14.2366 13.2989 13.7678 13.7678C13.2989 14.2366 12.663 14.5 12 14.5ZM12 10.5C11.7033 10.5 11.4133 10.588 11.1666 10.7528C10.92 10.9176 10.7277 11.1519 10.6142 11.426C10.5007 11.7001 10.4709 12.0017 10.5288 12.2926C10.5867 12.5836 10.7296 12.8509 10.9393 13.0607C11.1491 13.2704 11.4164 13.4133 11.7074 13.4712C11.9983 13.5291 12.2999 13.4994 12.574 13.3858C12.8481 13.2723 13.0824 13.08 13.2472 12.8334C13.412 12.5867 13.5 12.2967 13.5 12C13.5 11.6022 13.342 11.2206 13.0607 10.9393C12.7794 10.658 12.3978 10.5 12 10.5Z" fill="white"/>
<path d="M5.99998 22.11C4.99507 22.1078 4.03065 21.7137 3.31172 21.0116C2.59278 20.3094 2.17601 19.3546 2.14998 18.35L1.84998 6.06003C1.82849 5.03961 2.21201 4.05222 2.91665 3.31385C3.62129 2.57548 4.58968 2.14624 5.60998 2.12003L15.05 1.89003C15.1766 1.8789 15.3025 1.91846 15.4 2.00003L21.75 7.77003C21.8006 7.8153 21.841 7.8708 21.8686 7.93286C21.8962 7.99491 21.9103 8.06212 21.91 8.13003L22.15 17.85C22.1619 18.3557 22.0742 18.8587 21.8916 19.3304C21.7091 19.8021 21.4355 20.2332 21.0863 20.599C20.7371 20.9649 20.3193 21.2584 19.8566 21.4628C19.394 21.6672 18.8956 21.7783 18.39 21.79L6.08998 22.09L5.99998 22.11ZM14.57 2.90003L5.62998 3.12003C4.88109 3.13838 4.16954 3.45085 3.64927 3.98983C3.12901 4.52881 2.84187 5.25096 2.84998 6.00003L3.14998 18.3C3.16049 19.0489 3.46539 19.7636 3.99873 20.2895C4.53208 20.8153 5.25099 21.1101 5.99998 21.11H6.06998L18.37 20.81C19.1241 20.7917 19.8403 20.475 20.3614 19.9296C20.8825 19.3841 21.1661 18.6542 21.15 17.9L20.92 8.38003L14.87 2.89003L14.57 2.90003Z" fill="white"/>
</svg>
