<svg width="24" height="24" viewBox="0 0 24 24" fill="none" xmlns="http://www.w3.org/2000/svg">
<path d="M18.53 18.9999H5.4C5.29639 18.9977 5.19592 18.964 5.11195 18.9033C5.02799 18.8425 4.96452 18.7577 4.93 18.6599L1.73 8.88994C1.69988 8.7962 1.6981 8.69565 1.7249 8.6009C1.75169 8.50615 1.80587 8.42142 1.88063 8.35734C1.95539 8.29326 2.04741 8.25268 2.14514 8.24069C2.24287 8.2287 2.34197 8.24583 2.43 8.28994L8.48 11.2899L11.55 5.28994C11.5957 5.21105 11.6613 5.14555 11.7403 5.10002C11.8193 5.05449 11.9088 5.03052 12 5.03052C12.0912 5.03052 12.1807 5.05449 12.2597 5.10002C12.3387 5.14555 12.4043 5.21105 12.45 5.28994L15.52 11.3399L21.57 8.33994C21.6584 8.29605 21.7577 8.27927 21.8556 8.29173C21.9535 8.30418 22.0455 8.34531 22.12 8.40994C22.193 8.47694 22.2457 8.56305 22.2722 8.65849C22.2987 8.75394 22.298 8.85491 22.27 8.94994L19 18.6499C18.9698 18.7511 18.9078 18.8399 18.8231 18.9029C18.7384 18.966 18.6356 19 18.53 18.9999ZM5.77 17.9999H18.17L20.93 9.76994L15.52 12.4599C15.4015 12.5166 15.2657 12.5254 15.1409 12.4844C15.016 12.4434 14.9118 12.3558 14.85 12.2399L12 6.60994L9.15 12.2299C9.08816 12.3458 8.98397 12.4334 8.85915 12.4744C8.73433 12.5154 8.59852 12.5066 8.48 12.4499L3.06 9.71994L5.77 17.9999Z" fill="white"/>
<path d="M12 14.47C11.8674 14.47 11.7402 14.4173 11.6464 14.3235C11.5527 14.2298 11.5 14.1026 11.5 13.97C11.4987 13.9048 11.5104 13.84 11.5344 13.7794C11.5584 13.7188 11.5943 13.6636 11.6399 13.617C11.6856 13.5704 11.74 13.5335 11.8001 13.5082C11.8603 13.483 11.9248 13.47 11.99 13.47C12.1226 13.47 12.2498 13.5226 12.3436 13.6164C12.4373 13.7102 12.49 13.8374 12.49 13.97C12.49 14.1026 12.4373 14.2298 12.3436 14.3235C12.2498 14.4173 12.1226 14.47 11.99 14.47H12Z" fill="white"/>
</svg>
