<svg width="24" height="24" viewBox="0 0 24 24" fill="none" xmlns="http://www.w3.org/2000/svg">
<path d="M11.25 15C11.1195 15.0007 10.9939 14.9505 10.9 14.86L8.89997 12.86C8.85311 12.8135 8.81591 12.7582 8.79053 12.6972C8.76514 12.6363 8.75208 12.571 8.75208 12.505C8.75208 12.439 8.76514 12.3736 8.79053 12.3127C8.81591 12.2517 8.85311 12.1964 8.89997 12.15C8.94486 12.1021 8.99908 12.064 9.05928 12.0379C9.11948 12.0119 9.18438 11.9984 9.24997 11.9984C9.31557 11.9984 9.38047 12.0119 9.44067 12.0379C9.50087 12.064 9.55508 12.1021 9.59997 12.15L11.23 13.77L14.37 10.17C14.4651 10.0777 14.5924 10.0261 14.725 10.0261C14.8575 10.0261 14.9848 10.0777 15.08 10.17C15.1299 10.2122 15.171 10.2639 15.2006 10.3222C15.2302 10.3805 15.2479 10.4442 15.2526 10.5094C15.2572 10.5747 15.2488 10.6402 15.2277 10.7021C15.2067 10.764 15.1734 10.8211 15.13 10.87L11.63 14.87C11.5852 14.9219 11.53 14.9639 11.468 14.9932C11.406 15.0225 11.3385 15.0384 11.27 15.04L11.25 15Z" fill="white"/>
<path d="M12 21.45C11.9116 21.4517 11.8246 21.4274 11.75 21.38L4 16.91C3.92431 16.864 3.86162 16.7994 3.81786 16.7224C3.77411 16.6454 3.75075 16.5585 3.75 16.47V7.52997C3.75075 7.44141 3.77411 7.3545 3.81786 7.2775C3.86162 7.2005 3.92431 7.13595 4 7.08997L11.75 2.61997C11.826 2.57608 11.9122 2.55298 12 2.55298C12.0878 2.55298 12.174 2.57608 12.25 2.61997L20 7.08997C20.0757 7.13595 20.1384 7.2005 20.1821 7.2775C20.2259 7.3545 20.2492 7.44141 20.25 7.52997V16.47C20.2492 16.5585 20.2259 16.6454 20.1821 16.7224C20.1384 16.7994 20.0757 16.864 20 16.91L12.25 21.38C12.1754 21.4274 12.0884 21.4517 12 21.45ZM4.75 16.19L12 20.37L19.25 16.19V7.80997L12 3.62997L4.75 7.80997V16.19Z" fill="white"/>
</svg>
