<svg width="24" height="24" viewBox="0 0 24 24" fill="none" xmlns="http://www.w3.org/2000/svg">
<path d="M11.45 22.9399H11.33C11.2224 22.9134 11.1267 22.8518 11.0579 22.7649C10.9892 22.678 10.9512 22.5707 10.95 22.4599V12.4599H7.25999C7.12739 12.4599 7.00021 12.4073 6.90644 12.3135C6.81267 12.2197 6.75999 12.0926 6.75999 11.9599V2.43994C6.75999 2.30733 6.81267 2.18016 6.90644 2.08639C7.00021 1.99262 7.12739 1.93994 7.25999 1.93994H13.64C13.7726 1.93994 13.8998 1.99262 13.9935 2.08639C14.0873 2.18016 14.14 2.30733 14.14 2.43994V8.28994H19C19.0783 8.30036 19.1532 8.32884 19.2186 8.37313C19.2841 8.41742 19.3383 8.47631 19.3771 8.54516C19.4159 8.61401 19.4382 8.69093 19.4421 8.76986C19.4461 8.84878 19.4317 8.92755 19.4 8.99994L11.89 22.6799C11.846 22.7582 11.7822 22.8234 11.7049 22.869C11.6277 22.9147 11.5397 22.9391 11.45 22.9399ZM7.75999 11.4699H11.45C11.5826 11.4699 11.7098 11.5226 11.8035 11.6164C11.8973 11.7102 11.95 11.8373 11.95 11.9699V20.4899L18.11 9.28994H13.64C13.5074 9.28994 13.3802 9.23726 13.2864 9.1435C13.1927 9.04973 13.14 8.92255 13.14 8.78994V2.93994H7.75999V11.4699Z" fill="white"/>
</svg>
