<svg width="24" height="24" viewBox="0 0 24 24" fill="none" xmlns="http://www.w3.org/2000/svg">
<path d="M19 20.74C18.9121 20.7382 18.8261 20.7141 18.75 20.67L9.53 15.25H5C4.86739 15.25 4.74021 15.1974 4.64645 15.1036C4.55268 15.0098 4.5 14.8827 4.5 14.75V9.25005C4.5 9.11744 4.55268 8.99026 4.64645 8.89649C4.74021 8.80273 4.86739 8.75005 5 8.75005H9.53L18.75 3.33005C18.826 3.28616 18.9122 3.26306 19 3.26306C19.0878 3.26306 19.174 3.28616 19.25 3.33005C19.3243 3.37513 19.3861 3.4381 19.4297 3.51322C19.4734 3.58833 19.4976 3.6732 19.5 3.76005V20.24C19.4976 20.3269 19.4734 20.4118 19.4297 20.4869C19.3861 20.562 19.3243 20.625 19.25 20.67C19.1734 20.713 19.0877 20.737 19 20.74ZM5.5 14.25H9.67C9.75695 14.2496 9.84271 14.2702 9.92 14.31L18.5 19.31V4.64005L9.92 9.69005C9.84271 9.72988 9.75695 9.75047 9.67 9.75005H5.5V14.25Z" fill="white"/>
</svg>
