<svg width="24" height="24" viewBox="0 0 24 24" fill="none" xmlns="http://www.w3.org/2000/svg">
<path d="M7.22001 21.12C6.85985 21.1111 6.51098 20.9925 6.22001 20.78C5.9131 20.5594 5.68586 20.2453 5.5723 19.8848C5.45874 19.5243 5.46495 19.1367 5.59001 18.78L6.85001 14.9C6.89927 14.7469 6.8987 14.5822 6.84839 14.4294C6.79808 14.2767 6.70061 14.1439 6.57001 14.05L3.27001 11.65C2.97315 11.4328 2.7518 11.1281 2.63705 10.7786C2.52231 10.4291 2.51994 10.0525 2.63028 9.70161C2.74062 9.35072 2.95813 9.04322 3.25224 8.82232C3.54635 8.60141 3.90228 8.47821 4.27001 8.47001H8.35001C8.50345 8.47353 8.65435 8.43051 8.78287 8.34662C8.91139 8.26273 9.01149 8.14189 9.07001 8.00001L10.33 4.11001C10.4366 3.7512 10.6574 3.43696 10.9588 3.21498C11.2601 2.993 11.6257 2.87539 12 2.88001C12.3714 2.87573 12.7343 2.99107 13.035 3.20897C13.3358 3.42688 13.5584 3.73579 13.67 4.09001L14.93 8.00001C14.9816 8.15043 15.0786 8.28117 15.2075 8.37428C15.3364 8.46739 15.491 8.5183 15.65 8.52001H19.74C20.1077 8.52821 20.4637 8.65141 20.7578 8.87232C21.0519 9.09322 21.2694 9.40072 21.3797 9.75161C21.4901 10.1025 21.4877 10.4791 21.373 10.8286C21.2582 11.1781 21.0369 11.4828 20.74 11.7L17.44 14.1C17.3094 14.1939 17.212 14.3267 17.1616 14.4794C17.1113 14.6322 17.1108 14.7969 17.16 14.95L18.43 18.84C18.5524 19.1979 18.5562 19.5857 18.441 19.9459C18.3257 20.3062 18.0974 20.6197 17.79 20.84C17.4918 21.0647 17.1285 21.1863 16.755 21.1863C16.3816 21.1863 16.0183 21.0647 15.72 20.84L12.42 18.44C12.2899 18.3479 12.1344 18.2984 11.975 18.2984C11.8156 18.2984 11.6601 18.3479 11.53 18.44L8.22001 20.84C7.92349 21.0341 7.57423 21.1319 7.22001 21.12ZM4.26001 9.50001C4.09952 9.49545 3.942 9.54392 3.81184 9.63792C3.68168 9.73193 3.58614 9.86622 3.54001 10.02C3.48812 10.1719 3.48634 10.3365 3.53494 10.4895C3.58355 10.6425 3.67996 10.7759 3.81001 10.87L7.12001 13.27C7.42619 13.4914 7.65349 13.805 7.76864 14.1649C7.8838 14.5247 7.88078 14.912 7.76001 15.27L6.50001 19.12C6.44647 19.2718 6.44386 19.4369 6.49258 19.5903C6.5413 19.7436 6.6387 19.877 6.77001 19.97C6.89761 20.0681 7.05406 20.1213 7.21501 20.1213C7.37597 20.1213 7.53242 20.0681 7.66001 19.97L11 17.57C11.2986 17.3507 11.6595 17.2324 12.03 17.2324C12.4005 17.2324 12.7614 17.3507 13.06 17.57L16.34 20C16.4676 20.0981 16.6241 20.1513 16.785 20.1513C16.946 20.1513 17.1024 20.0981 17.23 20C17.3613 19.907 17.4587 19.7736 17.5075 19.6203C17.5562 19.4669 17.5536 19.3018 17.5 19.15L16.24 15.27C16.1193 14.912 16.1162 14.5247 16.2314 14.1649C16.3465 13.805 16.5738 13.4914 16.88 13.27L20.18 10.87C20.3074 10.7754 20.402 10.6433 20.4505 10.4922C20.499 10.3411 20.499 10.1786 20.4504 10.0275C20.4019 9.87642 20.3073 9.74431 20.1799 9.64971C20.0525 9.55511 19.8987 9.50276 19.74 9.50001H15.65C15.2832 9.49545 14.927 9.37637 14.6311 9.15942C14.3353 8.94248 14.1146 8.63851 14 8.29001L12.72 4.40001C12.6739 4.24622 12.5784 4.11193 12.4482 4.01792C12.318 3.92392 12.1605 3.87545 12 3.88001C11.8395 3.87545 11.682 3.92392 11.5518 4.01792C11.4217 4.11193 11.3261 4.24622 11.28 4.40001L10 8.29001C9.8854 8.63851 9.66475 8.94248 9.36891 9.15942C9.07308 9.37637 8.71684 9.49545 8.35001 9.50001H4.26001Z" fill="white"/>
</svg>
