<svg width="24" height="24" viewBox="0 0 24 24" fill="none" xmlns="http://www.w3.org/2000/svg">
<path d="M6.25999 16.3299C6.17294 16.3284 6.08772 16.3047 6.01245 16.2609C5.93718 16.2171 5.87437 16.1548 5.82999 16.0799C5.11539 14.9049 4.69692 13.5739 4.61059 12.2014C4.52425 10.8288 4.77264 9.45585 5.33437 8.20055C5.89611 6.94525 6.75438 5.84521 7.83536 4.99503C8.91634 4.14486 10.1877 3.57001 11.54 3.31993C11.6044 3.30696 11.6708 3.3071 11.7352 3.32033C11.7996 3.33356 11.8607 3.35961 11.9148 3.39693C11.9689 3.43425 12.015 3.48208 12.0502 3.53757C12.0855 3.59306 12.1092 3.65508 12.12 3.71993C12.1405 3.85093 12.1091 3.98476 12.0326 4.09303C11.956 4.20131 11.8403 4.27552 11.71 4.29993C10.2942 4.56429 8.98457 5.23126 7.93814 6.22094C6.8917 7.21061 6.15281 8.48102 5.80999 9.87993C5.34573 11.8186 5.66176 13.8621 6.68999 15.5699C6.73308 15.6465 6.75568 15.7328 6.75559 15.8207C6.75549 15.9085 6.73272 15.9948 6.68946 16.0713C6.64621 16.1477 6.58395 16.2117 6.50871 16.257C6.43346 16.3023 6.34779 16.3274 6.25999 16.3299Z" fill="white"/>
<path d="M13.1 20.1799C11.7353 20.1653 10.3941 19.8223 9.18999 19.1799C9.08579 19.1172 9.00862 19.018 8.97351 18.9015C8.93839 18.7851 8.94783 18.6598 8.99999 18.5499C9.05993 18.4321 9.16406 18.3429 9.2896 18.3017C9.41515 18.2605 9.55191 18.2706 9.66999 18.3299C10.7528 18.8941 11.9571 19.185 13.178 19.1773C14.399 19.1697 15.5995 18.8636 16.6751 18.2859C17.7507 17.7082 18.6688 16.8762 19.3494 15.8626C20.03 14.8489 20.4524 13.6842 20.58 12.4699C20.5951 12.3381 20.661 12.2174 20.7637 12.1333C20.8664 12.0493 20.9978 12.0086 21.13 12.0199C21.2611 12.035 21.3809 12.1013 21.4633 12.2043C21.5457 12.3073 21.584 12.4387 21.57 12.5699C21.3748 14.3884 20.5962 16.0948 19.3507 17.4341C18.1051 18.7734 16.4596 19.6735 14.66 19.9999C14.1469 20.1094 13.6245 20.1697 13.1 20.1799Z" fill="white"/>
<path d="M5.34 20.69C5.14557 20.6906 4.95409 20.6424 4.78317 20.5498C4.61224 20.4571 4.46735 20.323 4.36181 20.1597C4.25626 19.9964 4.19346 19.8092 4.17917 19.6153C4.16487 19.4214 4.19954 19.227 4.28 19.05L5.81 15.62C5.83415 15.5561 5.87111 15.4979 5.91862 15.4489C5.96612 15.3999 6.02316 15.3611 6.08621 15.335C6.14927 15.3088 6.21701 15.2959 6.28525 15.2969C6.3535 15.298 6.42082 15.313 6.48305 15.341C6.54528 15.369 6.60111 15.4095 6.64711 15.46C6.6931 15.5104 6.72828 15.5697 6.75048 15.6343C6.77268 15.6988 6.78142 15.7672 6.77618 15.8353C6.77094 15.9033 6.75182 15.9696 6.72 16.03L5.19 19.45C5.17332 19.4789 5.16454 19.5116 5.16454 19.545C5.16454 19.5783 5.17332 19.6111 5.19 19.64C5.21699 19.6568 5.24818 19.6658 5.28 19.6658C5.31182 19.6658 5.343 19.6568 5.37 19.64L9.22 18.27C9.3436 18.2292 9.47824 18.2382 9.5953 18.2951C9.71236 18.352 9.80262 18.4523 9.84689 18.5747C9.89116 18.6971 9.88596 18.832 9.83239 18.9506C9.77881 19.0692 9.6811 19.1623 9.56 19.21L5.74 20.62C5.61204 20.6675 5.47648 20.6912 5.34 20.69Z" fill="white"/>
<path d="M15.41 9.27994C15.3474 9.29411 15.2825 9.29411 15.22 9.27994C15.1287 9.24243 15.0505 9.17873 14.9953 9.09687C14.9402 9.01501 14.9105 8.91865 14.91 8.81994V4.68994C14.91 4.55733 14.9627 4.43016 15.0564 4.33639C15.1502 4.24262 15.2774 4.18994 15.41 4.18994C15.5426 4.18994 15.6698 4.24262 15.7635 4.33639C15.8573 4.43016 15.91 4.55733 15.91 4.68994V7.56994L19.15 4.33994C19.1965 4.29308 19.2518 4.25588 19.3127 4.2305C19.3736 4.20511 19.439 4.19204 19.505 4.19204C19.571 4.19204 19.6363 4.20511 19.6973 4.2305C19.7582 4.25588 19.8135 4.29308 19.86 4.33994C19.9516 4.43341 20.0029 4.55907 20.0029 4.68994C20.0029 4.82082 19.9516 4.94648 19.86 5.03994L15.77 9.12994C15.6746 9.22566 15.5451 9.27961 15.41 9.27994Z" fill="white"/>
<path d="M19.5 9.28003H15.41C15.2774 9.28003 15.1502 9.22735 15.0564 9.13358C14.9627 9.03981 14.91 8.91264 14.91 8.78003C14.91 8.64742 14.9627 8.52024 15.0564 8.42648C15.1502 8.33271 15.2774 8.28003 15.41 8.28003H19.5C19.6326 8.28003 19.7598 8.33271 19.8535 8.42648C19.9473 8.52024 20 8.64742 20 8.78003C20 8.91264 19.9473 9.03981 19.8535 9.13358C19.7598 9.22735 19.6326 9.28003 19.5 9.28003Z" fill="white"/>
</svg>
