<svg width="24" height="24" viewBox="0 0 24 24" fill="none" xmlns="http://www.w3.org/2000/svg">
<path d="M18.63 14.16C18.4974 14.16 18.3702 14.1073 18.2765 14.0136C18.1827 13.9198 18.13 13.7926 18.13 13.66V8.13C18.13 6.50422 17.4842 4.94503 16.3346 3.79544C15.185 2.64584 13.6258 2 12 2C10.3742 2 8.81504 2.64584 7.66544 3.79544C6.51584 4.94503 5.87 6.50422 5.87 8.13V13.66C5.86744 13.7918 5.81394 13.9175 5.72072 14.0107C5.6275 14.1039 5.50181 14.1574 5.37 14.16C5.23739 14.16 5.11022 14.1073 5.01645 14.0136C4.92268 13.9198 4.87 13.7926 4.87 13.66V8.13C4.87 6.23901 5.6212 4.42546 6.95833 3.08833C8.29547 1.75119 10.109 1 12 1C13.891 1 15.7045 1.75119 17.0417 3.08833C18.3788 4.42546 19.13 6.23901 19.13 8.13V13.66C19.13 13.7926 19.0773 13.9198 18.9836 14.0136C18.8898 14.1073 18.7626 14.16 18.63 14.16Z" fill="white"/>
<path d="M22 14.1601H2.05C1.9182 14.1575 1.7925 14.104 1.69928 14.0108C1.60606 13.9176 1.55256 13.7919 1.55 13.6601V10.3401C1.55256 10.2083 1.60606 10.0826 1.69928 9.98937C1.7925 9.89615 1.9182 9.84265 2.05 9.84009C2.18261 9.84009 2.30979 9.89277 2.40356 9.98653C2.49732 10.0803 2.55 10.2075 2.55 10.3401V13.1601H21.45V10.3401C21.45 10.2075 21.5027 10.0803 21.5965 9.98653C21.6902 9.89277 21.8174 9.84009 21.95 9.84009C22.0818 9.84265 22.2075 9.89615 22.3007 9.98937C22.3939 10.0826 22.4474 10.2083 22.45 10.3401V13.6601C22.4484 13.7838 22.4019 13.9028 22.3191 13.9948C22.2363 14.0868 22.1229 14.1455 22 14.1601Z" fill="white"/>
<path d="M12 22.9999C11.8674 22.9999 11.7402 22.9472 11.6464 22.8535C11.5527 22.7597 11.5 22.6325 11.5 22.4999V13.6599C11.5 13.5273 11.5527 13.4001 11.6464 13.3064C11.7402 13.2126 11.8674 13.1599 12 13.1599C12.1326 13.1599 12.2598 13.2126 12.3536 13.3064C12.4473 13.4001 12.5 13.5273 12.5 13.6599V22.4999C12.5 22.6325 12.4473 22.7597 12.3536 22.8535C12.2598 22.9472 12.1326 22.9999 12 22.9999Z" fill="white"/>
<path d="M7.58 23.0001C7.44739 23.0001 7.32022 22.9474 7.22645 22.8536C7.13268 22.7599 7.08 22.6327 7.08 22.5001C7.08 22.4501 7.14 17.5801 12 17.5801C12.1326 17.5801 12.2598 17.6328 12.3536 17.7265C12.4473 17.8203 12.5 17.9475 12.5 18.0801C12.5 18.2127 12.4473 18.3399 12.3536 18.4336C12.2598 18.5274 12.1326 18.5801 12 18.5801C11.4807 18.5634 10.9635 18.6534 10.4804 18.8445C9.99724 19.0356 9.55842 19.3237 9.19104 19.6911C8.82365 20.0585 8.53551 20.4973 8.34442 20.9805C8.15332 21.4636 8.06333 21.9808 8.08 22.5001C8.08 22.6327 8.02732 22.7599 7.93356 22.8536C7.83979 22.9474 7.71261 23.0001 7.58 23.0001Z" fill="white"/>
<path d="M16.42 23.0001C16.2874 23.0001 16.1602 22.9474 16.0664 22.8536C15.9727 22.7599 15.92 22.6327 15.92 22.5001C15.92 22.3401 15.86 18.5801 12 18.5801C11.8674 18.5801 11.7402 18.5274 11.6464 18.4336C11.5527 18.3399 11.5 18.2127 11.5 18.0801C11.5 17.9475 11.5527 17.8203 11.6464 17.7265C11.7402 17.6328 11.8674 17.5801 12 17.5801C16.86 17.5801 16.92 22.4501 16.92 22.5001C16.92 22.6327 16.8673 22.7599 16.7736 22.8536C16.6798 22.9474 16.5526 23.0001 16.42 23.0001Z" fill="white"/>
</svg>
