<svg width="24" height="24" viewBox="0 0 24 24" fill="none" xmlns="http://www.w3.org/2000/svg">
<path d="M12 21.42C11.9203 21.4236 11.841 21.4064 11.77 21.3701C11.46 21.2001 4.14001 17.31 2.62001 12.12C1.75001 9.17005 2.00001 6.34005 3.38001 4.55005C3.86267 3.90555 4.49385 3.38715 5.21987 3.03894C5.94589 2.69073 6.74526 2.52301 7.55001 2.55005C8.49502 2.50867 9.42973 2.76027 10.2263 3.27042C11.0228 3.78057 11.6423 4.52437 12 5.40005C12.3625 4.52997 12.984 3.79257 13.7801 3.28804C14.5763 2.78352 15.5085 2.53632 16.45 2.58005C17.2548 2.55301 18.0541 2.72073 18.7801 3.06894C19.5062 3.41715 20.1373 3.93555 20.62 4.58005C21.96 6.37005 22.25 9.20005 21.38 12.15C19.85 17.34 12.54 21.23 12.23 21.4C12.1563 21.4262 12.0771 21.433 12 21.42ZM7.55001 3.58005C6.90315 3.5494 6.25853 3.67627 5.67152 3.94974C5.08452 4.22321 4.57269 4.63511 4.18001 5.15005C3.03001 6.69005 2.80001 9.15005 3.58001 11.84C4.84001 16.14 10.75 19.65 12 20.35C13.25 19.65 19.16 16.13 20.42 11.84C21.2 9.19005 20.97 6.69005 19.82 5.15005C19.4273 4.63511 18.9155 4.22321 18.3285 3.94974C17.7415 3.67627 17.0969 3.5494 16.45 3.58005C12.73 3.58005 12.51 7.34005 12.5 7.50005C12.5 7.63266 12.4473 7.75984 12.3536 7.8536C12.2598 7.94737 12.1326 8.00005 12 8.00005C11.8674 8.00005 11.7402 7.94737 11.6465 7.8536C11.5527 7.75984 11.5 7.63266 11.5 7.50005C11.49 7.34005 11.27 3.58005 7.55001 3.58005Z" fill="white"/>
<path d="M10.72 16.5099C10.5642 16.5083 10.4106 16.4736 10.2692 16.4081C10.1278 16.3425 10.002 16.2477 9.90002 16.1299L6.68002 12.3099H3.05002C2.91741 12.3099 2.79023 12.2573 2.69647 12.1635C2.6027 12.0697 2.55002 11.9426 2.55002 11.8099C2.55002 11.6773 2.6027 11.5502 2.69647 11.4564C2.79023 11.3626 2.91741 11.3099 3.05002 11.3099H6.91002C6.98275 11.3099 7.05458 11.326 7.12031 11.3571C7.18603 11.3882 7.24401 11.4336 7.29002 11.4899L10.66 15.4899H10.79L14.17 9.83995C14.2555 9.68773 14.3748 9.55717 14.5187 9.45835C14.6626 9.35952 14.8273 9.29506 15 9.26995C15.1724 9.24916 15.3472 9.2691 15.5105 9.32815C15.6737 9.38719 15.8208 9.48371 15.94 9.60995L17.39 11.0899H21C21.1326 11.0899 21.2598 11.1426 21.3536 11.2364C21.4473 11.3302 21.5 11.4573 21.5 11.5899C21.5 11.7226 21.4473 11.8497 21.3536 11.9435C21.2598 12.0373 21.1326 12.0899 21 12.0899H17.19C17.1229 12.0915 17.0561 12.079 16.9941 12.0532C16.9321 12.0273 16.8762 11.9887 16.83 11.9399L15.23 10.2999C15.2128 10.2919 15.194 10.2877 15.175 10.2877C15.156 10.2877 15.1372 10.2919 15.12 10.2999C15.1011 10.3013 15.0829 10.3076 15.0671 10.3181C15.0514 10.3286 15.0386 10.343 15.03 10.3599L11.65 15.9999C11.5597 16.1456 11.4368 16.2683 11.2911 16.3585C11.1453 16.4488 10.9807 16.504 10.81 16.5199L10.72 16.5099Z" fill="white"/>
</svg>
