<svg width="24" height="24" viewBox="0 0 24 24" fill="none" xmlns="http://www.w3.org/2000/svg">
<path d="M7.59002 12.6199C7.45821 12.6174 7.33251 12.5639 7.23929 12.4707C7.14608 12.3774 7.09258 12.2517 7.09002 12.1199C7.07514 12.0575 7.07514 11.9924 7.09002 11.9299C7.11329 11.8656 7.15091 11.8075 7.20002 11.7599C7.29576 11.6728 7.42056 11.6245 7.55002 11.6245C7.67947 11.6245 7.80427 11.6728 7.90002 11.7599C7.94912 11.8075 7.98674 11.8656 8.01002 11.9299C8.02489 11.9924 8.02489 12.0575 8.01002 12.1199C8.00746 12.2517 7.95395 12.3774 7.86074 12.4707C7.76752 12.5639 7.64182 12.6174 7.51002 12.6199H7.59002Z" fill="white"/>
<path d="M12.11 8.10009C12.0476 8.11496 11.9825 8.11496 11.92 8.10009C11.8589 8.08114 11.8038 8.04669 11.76 8.00009C11.7109 7.95251 11.6733 7.89437 11.65 7.83008C11.6351 7.76763 11.6351 7.70254 11.65 7.64008C11.6492 7.57451 11.6621 7.50949 11.688 7.44921C11.7138 7.38894 11.752 7.33473 11.8 7.29009C11.8429 7.24018 11.8981 7.20228 11.96 7.18008C12.0817 7.13008 12.2183 7.13008 12.34 7.18008C12.3992 7.20733 12.4534 7.24454 12.5 7.29009C12.5916 7.38414 12.6451 7.50886 12.65 7.64008C12.6457 7.77438 12.5923 7.90244 12.5 8.00009C12.453 8.04255 12.3988 8.0764 12.34 8.10009C12.2648 8.12097 12.1853 8.12097 12.11 8.10009Z" fill="white"/>
<path d="M11.83 16.8601C11.7675 16.8743 11.7026 16.8743 11.64 16.8601C11.5812 16.8364 11.5271 16.8026 11.48 16.7601C11.3877 16.6624 11.3344 16.5344 11.33 16.4001C11.333 16.2684 11.3867 16.143 11.48 16.0501C11.524 16.0014 11.5788 15.9638 11.64 15.9401C11.7617 15.8901 11.8983 15.8901 12.02 15.9401C12.0843 15.9634 12.1424 16.001 12.19 16.0501C12.2346 16.0975 12.2717 16.1515 12.3 16.2101C12.3096 16.2731 12.3096 16.3371 12.3 16.4001C12.3105 16.463 12.3105 16.5272 12.3 16.5901C12.2692 16.6503 12.2323 16.7073 12.19 16.7601C12.1394 16.8027 12.0819 16.8365 12.02 16.8601C11.9576 16.875 11.8925 16.875 11.83 16.8601Z" fill="white"/>
<path d="M16.35 12.35C16.2181 12.3482 16.0923 12.2942 16 12.2C15.9529 12.1547 15.9154 12.1003 15.8896 12.0402C15.8639 11.9801 15.8504 11.9154 15.85 11.85C15.836 11.7841 15.836 11.716 15.85 11.65C15.8737 11.5888 15.9113 11.534 15.96 11.49C16.0074 11.4454 16.0614 11.4084 16.12 11.38C16.2417 11.33 16.3783 11.33 16.5 11.38C16.5586 11.4084 16.6126 11.4454 16.66 11.49C16.7557 11.5854 16.8097 11.7149 16.81 11.85C16.8096 11.9154 16.7962 11.9801 16.7704 12.0402C16.7446 12.1003 16.7071 12.1547 16.66 12.2C16.5677 12.2942 16.4419 12.3482 16.31 12.35H16.35Z" fill="white"/>
<path d="M12 22.59C11.5411 22.5951 11.0858 22.5093 10.6601 22.3377C10.2345 22.1661 9.84704 21.912 9.52002 21.59L2.42002 14.49C2.08865 14.1634 1.8255 13.7742 1.64589 13.345C1.46627 12.9159 1.37378 12.4552 1.37378 11.99C1.37378 11.5247 1.46627 11.0641 1.64589 10.6349C1.8255 10.2058 2.08865 9.81656 2.42002 9.48999L9.52002 2.38999C9.84659 2.05862 10.2358 1.79547 10.665 1.61586C11.0942 1.43625 11.5548 1.34375 12.02 1.34375C12.4853 1.34375 12.9459 1.43625 13.3751 1.61586C13.8043 1.79547 14.1934 2.05862 14.52 2.38999L21.63 9.48999C21.9614 9.81656 22.2245 10.2058 22.4042 10.6349C22.5838 11.0641 22.6763 11.5247 22.6763 11.99C22.6763 12.4552 22.5838 12.9159 22.4042 13.345C22.2245 13.7742 21.9614 14.1634 21.63 14.49L14.52 21.59C14.1896 21.9187 13.7959 22.1768 13.3627 22.3487C12.9295 22.5206 12.4659 22.6027 12 22.59ZM12 2.38999C11.6714 2.38886 11.3458 2.45278 11.0421 2.57807C10.7383 2.70336 10.4623 2.88754 10.23 3.11999L3.13002 10.22C2.66467 10.6916 2.40376 11.3275 2.40376 11.99C2.40376 12.6525 2.66467 13.2884 3.13002 13.76L10.23 20.86C10.7016 21.3253 11.3375 21.5863 12 21.5863C12.6626 21.5863 13.2984 21.3253 13.77 20.86L20.87 13.76C21.3378 13.2897 21.6004 12.6533 21.6004 11.99C21.6004 11.3267 21.3378 10.6903 20.87 10.22L13.77 3.11999C13.5378 2.88754 13.2618 2.70336 12.958 2.57807C12.6542 2.45278 12.3286 2.38886 12 2.38999Z" fill="white"/>
</svg>
