<svg width="24" height="24" viewBox="0 0 24 24" fill="none" xmlns="http://www.w3.org/2000/svg">
<path d="M12 21.5C10.1211 21.5 8.28435 20.9428 6.72209 19.899C5.15982 18.8551 3.94218 17.3714 3.22315 15.6355C2.50412 13.8996 2.31598 11.9895 2.68254 10.1466C3.0491 8.30383 3.95389 6.61109 5.28249 5.28249C6.61109 3.95389 8.30383 3.0491 10.1466 2.68254C11.9895 2.31598 13.8996 2.50412 15.6355 3.22315C17.3714 3.94218 18.8551 5.15982 19.899 6.72209C20.9428 8.28435 21.5 10.1211 21.5 12C21.4974 14.5187 20.4956 16.9336 18.7146 18.7146C16.9336 20.4956 14.5187 21.4974 12 21.5ZM12 3.5C10.3189 3.5 8.67548 3.99852 7.27766 4.93251C5.87984 5.8665 4.79037 7.19402 4.14703 8.74719C3.50368 10.3004 3.33535 12.0094 3.66333 13.6583C3.9913 15.3071 4.80085 16.8217 5.9896 18.0104C7.17834 19.1992 8.6929 20.0087 10.3417 20.3367C11.9906 20.6647 13.6996 20.4963 15.2528 19.853C16.806 19.2096 18.1335 18.1202 19.0675 16.7224C20.0015 15.3245 20.5 13.6811 20.5 12C20.4974 9.74648 19.601 7.58601 18.0075 5.99252C16.414 4.39903 14.2535 3.50265 12 3.5Z" fill="white"/>
<path d="M15 17.13C14.9164 17.1292 14.8342 17.1086 14.76 17.07L12 15.61L9.23 17.07C9.14706 17.1149 9.05309 17.1355 8.95895 17.1293C8.86482 17.1231 8.77435 17.0904 8.69801 17.035C8.62166 16.9796 8.56256 16.9037 8.52752 16.8161C8.49249 16.7285 8.48295 16.6328 8.5 16.54L9 13.45L6.79 11.27C6.72221 11.2039 6.67414 11.1203 6.65118 11.0284C6.62822 10.9366 6.63128 10.8402 6.66 10.75C6.68959 10.6624 6.74244 10.5844 6.8129 10.5245C6.88336 10.4647 6.96877 10.4251 7.06 10.41L10.17 9.99997L11.55 7.18997C11.5957 7.11107 11.6613 7.04557 11.7403 7.00004C11.8193 6.95451 11.9088 6.93054 12 6.93054C12.0912 6.93054 12.1807 6.95451 12.2597 7.00004C12.3387 7.04557 12.4043 7.11107 12.45 7.18997L13.83 9.99997L16.94 10.45C17.0312 10.465 17.1167 10.5047 17.1871 10.5645C17.2576 10.6244 17.3104 10.7024 17.34 10.79C17.3687 10.8802 17.3718 10.9766 17.3488 11.0684C17.3259 11.1603 17.2778 11.2439 17.21 11.31L15 13.45L15.53 16.54C15.5447 16.6321 15.5338 16.7265 15.4985 16.8129C15.4633 16.8993 15.405 16.9744 15.33 17.03C15.2342 17.0992 15.1181 17.1343 15 17.13ZM12 14.54C12.0806 14.5395 12.1599 14.5602 12.23 14.6L14.34 15.71L13.94 13.36C13.9254 13.2808 13.9305 13.1992 13.9549 13.1224C13.9793 13.0457 14.0223 12.9762 14.08 12.92L15.79 11.26L13.43 10.91C13.3495 10.8992 13.2728 10.869 13.2066 10.822C13.1404 10.7749 13.0867 10.7125 13.05 10.64L12 8.49997L11 10.64C10.9634 10.7125 10.9096 10.7749 10.8434 10.822C10.7772 10.869 10.7005 10.8992 10.62 10.91L8.26 11.26L9.97 12.92C10.0277 12.9762 10.0707 13.0457 10.0951 13.1224C10.1195 13.1992 10.1246 13.2808 10.11 13.36L9.71 15.71L11.82 14.6C11.8752 14.5677 11.9365 14.5472 12 14.54Z" fill="white"/>
</svg>
