<svg width="24" height="24" viewBox="0 0 24 24" fill="none" xmlns="http://www.w3.org/2000/svg">
<path d="M12.5 21.75C10.8211 21.7447 9.21258 21.0747 8.02633 19.8866C6.84009 18.6984 6.17265 17.0889 6.17001 15.41V8.90996C6.17001 8.07869 6.33374 7.25556 6.65186 6.48757C6.96997 5.71958 7.43623 5.02176 8.02403 4.43397C8.61182 3.84618 9.30964 3.37991 10.0776 3.0618C10.8456 2.74369 11.6687 2.57996 12.5 2.57996C13.3313 2.57996 14.1544 2.74369 14.9224 3.0618C15.6904 3.37991 16.3882 3.84618 16.976 4.43397C17.5638 5.02176 18.0301 5.71958 18.3482 6.48757C18.6663 7.25556 18.83 8.07869 18.83 8.90996V15.41C18.8274 17.0889 18.1599 18.6984 16.9737 19.8866C15.7874 21.0747 14.1789 21.7447 12.5 21.75ZM12.5 3.57996C11.0864 3.57996 9.7307 4.14151 8.73113 5.14108C7.73157 6.14065 7.17001 7.49635 7.17001 8.90996V15.41C7.17001 16.1099 7.30788 16.803 7.57574 17.4497C7.84359 18.0963 8.2362 18.6839 8.73113 19.1788C9.22607 19.6738 9.81365 20.0664 10.4603 20.3342C11.107 20.6021 11.8001 20.74 12.5 20.74C13.2 20.74 13.8931 20.6021 14.5397 20.3342C15.1864 20.0664 15.774 19.6738 16.2689 19.1788C16.7638 18.6839 17.1564 18.0963 17.4243 17.4497C17.6921 16.803 17.83 16.1099 17.83 15.41V8.90996C17.83 7.49635 17.2685 6.14065 16.2689 5.14108C15.2693 4.14151 13.9136 3.57996 12.5 3.57996Z" fill="white"/>
<path d="M12.5 11.47C12.3724 11.4702 12.2496 11.4217 12.1566 11.3343C12.0637 11.2469 12.0077 11.1273 12 11V8.21997C12 8.08736 12.0527 7.96019 12.1464 7.86642C12.2402 7.77265 12.3674 7.71997 12.5 7.71997C12.6326 7.71997 12.7598 7.77265 12.8536 7.86642C12.9473 7.96019 13 8.08736 13 8.21997V11C12.9923 11.1273 12.9363 11.2469 12.8434 11.3343C12.7504 11.4217 12.6276 11.4702 12.5 11.47Z" fill="white"/>
</svg>
