<svg width="24" height="24" viewBox="0 0 24 24" fill="none" xmlns="http://www.w3.org/2000/svg">
<path d="M15.33 19.1701H2.00001C1.92336 19.1737 1.84685 19.1604 1.77596 19.131C1.70508 19.1016 1.64157 19.0569 1.59001 19.0001C1.54366 18.9358 1.51392 18.8611 1.50345 18.7826C1.49298 18.7041 1.5021 18.6242 1.53001 18.5501L6.00001 5.18008C6.03156 5.07971 6.09398 4.99185 6.17836 4.92901C6.26275 4.86617 6.36481 4.83155 6.47001 4.83008H19.78C19.8591 4.83066 19.9369 4.85 20.0071 4.8865C20.0772 4.92299 20.1377 4.97561 20.1836 5.04003C20.2295 5.10445 20.2594 5.17883 20.2709 5.25706C20.2825 5.3353 20.2753 5.41515 20.25 5.49008L15.81 18.8201C15.7779 18.9221 15.714 19.0111 15.6276 19.0741C15.5412 19.1371 15.4369 19.1707 15.33 19.1701ZM2.69001 18.1701H15L19.08 5.83008H6.80001L2.69001 18.1701Z" fill="white"/>
<path d="M22 19.1702H11.81C11.6782 19.1676 11.5525 19.1141 11.4593 19.0209C11.3661 18.9277 11.3126 18.802 11.31 18.6702C11.31 18.5376 11.3627 18.4104 11.4564 18.3166C11.5502 18.2228 11.6774 18.1702 11.81 18.1702H22C22.1326 18.1702 22.2598 18.2228 22.3536 18.3166C22.4473 18.4104 22.5 18.5376 22.5 18.6702C22.5 18.8028 22.4473 18.93 22.3536 19.0237C22.2598 19.1175 22.1326 19.1702 22 19.1702Z" fill="white"/>
<path d="M10.89 14.22C12.1161 14.22 13.11 13.2261 13.11 12C13.11 10.774 12.1161 9.78003 10.89 9.78003C9.66394 9.78003 8.67001 10.774 8.67001 12C8.67001 13.2261 9.66394 14.22 10.89 14.22Z" fill="white"/>
</svg>
