<svg width="24" height="24" viewBox="0 0 24 24" fill="none" xmlns="http://www.w3.org/2000/svg">
<path d="M12 21.43C10.1344 21.4308 8.31039 20.8782 6.75891 19.842C5.20742 18.8059 3.99814 17.3329 3.28408 15.6093C2.57002 13.8857 2.38327 11.989 2.74746 10.1592C3.11164 8.32946 4.0104 6.64884 5.33001 5.33002C7.09994 3.56279 9.49886 2.57019 12 2.57019C14.5012 2.57019 16.9001 3.56279 18.67 5.33002C19.9896 6.64884 20.8884 8.32946 21.2526 10.1592C21.6168 11.989 21.43 13.8857 20.7159 15.6093C20.0019 17.3329 18.7926 18.8059 17.2411 19.842C15.6896 20.8782 13.8657 21.4308 12 21.43ZM12 3.57002C10.8892 3.56028 9.7874 3.76992 8.75778 4.18691C7.72816 4.60391 6.79099 5.22005 6.00001 6.00002C4.60965 7.38077 3.74103 9.20087 3.54213 11.1502C3.34324 13.0996 3.82638 15.0576 4.90925 16.6907C5.99211 18.3238 7.6077 19.5309 9.48076 20.1064C11.3538 20.6819 13.3685 20.5902 15.1815 19.8468C16.9945 19.1035 18.4937 17.7546 19.4237 16.0298C20.3537 14.3051 20.6569 12.3112 20.2816 10.388C19.9064 8.4648 18.876 6.73117 17.3659 5.48249C15.8558 4.23381 13.9595 3.54733 12 3.54002V3.57002Z" fill="white"/>
<path d="M12 14.4401C11.5174 14.4401 11.0457 14.297 10.6444 14.0288C10.2432 13.7607 9.93041 13.3797 9.74573 12.9338C9.56105 12.488 9.51273 11.9974 9.60688 11.524C9.70103 11.0507 9.93342 10.616 10.2747 10.2747C10.6159 9.93348 11.0507 9.70109 11.524 9.60694C11.9973 9.5128 12.4879 9.56112 12.9337 9.74579C13.3796 9.93047 13.7607 10.2432 14.0288 10.6445C14.2969 11.0457 14.44 11.5175 14.44 12.0001C14.4374 12.6464 14.1795 13.2655 13.7224 13.7225C13.2654 14.1795 12.6463 14.4374 12 14.4401ZM12 10.5601C11.7152 10.5601 11.4368 10.6445 11.2 10.8027C10.9632 10.961 10.7786 11.1859 10.6696 11.449C10.5606 11.7121 10.5321 12.0017 10.5877 12.281C10.6432 12.5603 10.7804 12.8169 10.9818 13.0183C11.1832 13.2197 11.4397 13.3568 11.7191 13.4124C11.9984 13.468 12.2879 13.4394 12.5511 13.3304C12.8142 13.2215 13.0391 13.0369 13.1973 12.8001C13.3555 12.5633 13.44 12.2849 13.44 12.0001C13.4374 11.619 13.2848 11.2542 13.0153 10.9847C12.7459 10.7152 12.3811 10.5627 12 10.5601Z" fill="white"/>
<path d="M20.94 12.5H13.94C13.8074 12.5 13.6802 12.4473 13.5864 12.3536C13.4927 12.2598 13.44 12.1326 13.44 12C13.44 11.8674 13.4927 11.7402 13.5864 11.6464C13.6802 11.5527 13.8074 11.5 13.94 11.5H20.94C21.0726 11.5 21.1998 11.5527 21.2936 11.6464C21.3873 11.7402 21.44 11.8674 21.44 12C21.44 12.1326 21.3873 12.2598 21.2936 12.3536C21.1998 12.4473 21.0726 12.5 20.94 12.5Z" fill="white"/>
<path d="M10.06 12.5H3.06C2.92739 12.5 2.80021 12.4473 2.70644 12.3536C2.61268 12.2598 2.56 12.1326 2.56 12C2.56 11.8674 2.61268 11.7402 2.70644 11.6464C2.80021 11.5527 2.92739 11.5 3.06 11.5H10.06C10.1926 11.5 10.3198 11.5527 10.4136 11.6464C10.5073 11.7402 10.56 11.8674 10.56 12C10.56 12.1326 10.5073 12.2598 10.4136 12.3536C10.3198 12.4473 10.1926 12.5 10.06 12.5Z" fill="white"/>
<path d="M12 21.4401C11.8674 21.4401 11.7402 21.3874 11.6464 21.2936C11.5527 21.1999 11.5 21.0727 11.5 20.9401V13.9401C11.5 13.8075 11.5527 13.6803 11.6464 13.5865C11.7402 13.4927 11.8674 13.4401 12 13.4401C12.1326 13.4401 12.2598 13.4927 12.3536 13.5865C12.4473 13.6803 12.5 13.8075 12.5 13.9401V20.9401C12.5 21.0727 12.4473 21.1999 12.3536 21.2936C12.2598 21.3874 12.1326 21.4401 12 21.4401Z" fill="white"/>
</svg>
