<svg width="24" height="24" viewBox="0 0 24 24" fill="none" xmlns="http://www.w3.org/2000/svg">
<path d="M17.5 21H6.5C5.57174 21 4.6815 20.6313 4.02513 19.9749C3.36875 19.3185 3 18.4283 3 17.5V6.5C3 5.57174 3.36875 4.6815 4.02513 4.02513C4.6815 3.36875 5.57174 3 6.5 3H17.5C18.4283 3 19.3185 3.36875 19.9749 4.02513C20.6313 4.6815 21 5.57174 21 6.5V17.5C21 18.4283 20.6313 19.3185 19.9749 19.9749C19.3185 20.6313 18.4283 21 17.5 21ZM6.5 4C5.83696 4 5.20107 4.26339 4.73223 4.73223C4.26339 5.20107 4 5.83696 4 6.5V17.5C4 18.163 4.26339 18.7989 4.73223 19.2678C5.20107 19.7366 5.83696 20 6.5 20H17.5C18.163 20 18.7989 19.7366 19.2678 19.2678C19.7366 18.7989 20 18.163 20 17.5V6.5C20 5.83696 19.7366 5.20107 19.2678 4.73223C18.7989 4.26339 18.163 4 17.5 4H6.5Z" fill="white"/>
<path d="M3.5 16.8099C3.42715 16.8107 3.35508 16.7949 3.28924 16.7638C3.2234 16.7326 3.16553 16.6868 3.12 16.6299C3.07712 16.5804 3.04459 16.5228 3.02435 16.4605C3.00411 16.3982 2.99656 16.3325 3.00216 16.2673C3.00775 16.202 3.02637 16.1385 3.05692 16.0806C3.08746 16.0227 3.12932 15.9714 3.18 15.9299L7.88 11.9999C8.5928 11.4088 9.5108 11.1243 10.433 11.2087C11.3551 11.293 12.2063 11.7393 12.8 12.4499L13.92 13.7899C14.1326 14.0461 14.3945 14.2571 14.69 14.4103C14.9856 14.5636 15.3089 14.656 15.6408 14.6821C15.9728 14.7082 16.3065 14.6675 16.6224 14.5623C16.9383 14.4572 17.2299 14.2897 17.48 14.0699L20.17 11.7199C20.2715 11.6341 20.4025 11.5913 20.5352 11.6006C20.6678 11.6099 20.7915 11.6707 20.88 11.7699C20.9235 11.8188 20.9567 11.8759 20.9778 11.9378C20.9988 11.9997 21.0073 12.0652 21.0026 12.1305C20.9979 12.1957 20.9803 12.2594 20.9506 12.3177C20.921 12.376 20.88 12.4277 20.83 12.4699L18.14 14.8199C17.7894 15.1298 17.3802 15.366 16.9365 15.5145C16.4928 15.663 16.0238 15.7207 15.5574 15.6844C15.0909 15.648 14.6365 15.5182 14.2213 15.3027C13.806 15.0872 13.4383 14.7904 13.14 14.4299L12 13.1199C11.7907 12.8682 11.5338 12.6602 11.2441 12.5079C10.9543 12.3555 10.6374 12.2618 10.3114 12.2321C9.98534 12.2023 9.65666 12.2372 9.34413 12.3346C9.0316 12.4321 8.74136 12.5902 8.49 12.7999L3.79 16.6999C3.70617 16.7642 3.60534 16.8024 3.5 16.8099Z" fill="white"/>
</svg>
