<svg width="24" height="24" viewBox="0 0 24 24" fill="none" xmlns="http://www.w3.org/2000/svg">
<path d="M19 19H5C4.07174 19 3.1815 18.6313 2.52513 17.9749C1.86875 17.3185 1.5 16.4283 1.5 15.5V8.5C1.5 7.57174 1.86875 6.6815 2.52513 6.02513C3.1815 5.36875 4.07174 5 5 5H19C19.9283 5 20.8185 5.36875 21.4749 6.02513C22.1313 6.6815 22.5 7.57174 22.5 8.5V15.5C22.5 16.4283 22.1313 17.3185 21.4749 17.9749C20.8185 18.6313 19.9283 19 19 19ZM5 6C4.33696 6 3.70107 6.26339 3.23223 6.73223C2.76339 7.20107 2.5 7.83696 2.5 8.5V15.5C2.5 16.163 2.76339 16.7989 3.23223 17.2678C3.70107 17.7366 4.33696 18 5 18H19C19.663 18 20.2989 17.7366 20.7678 17.2678C21.2366 16.7989 21.5 16.163 21.5 15.5V8.5C21.5 7.83696 21.2366 7.20107 20.7678 6.73223C20.2989 6.26339 19.663 6 19 6H5Z" fill="white"/>
<path d="M10 15H6C5.86739 15 5.74021 14.9473 5.64645 14.8536C5.55268 14.7598 5.5 14.6326 5.5 14.5C5.5 14.3674 5.55268 14.2402 5.64645 14.1464C5.74021 14.0527 5.86739 14 6 14H10C10.1326 14 10.2598 14.0527 10.3536 14.1464C10.4473 14.2402 10.5 14.3674 10.5 14.5C10.5 14.6326 10.4473 14.7598 10.3536 14.8536C10.2598 14.9473 10.1326 15 10 15Z" fill="white"/>
<path d="M16 15H13C12.8674 15 12.7402 14.9473 12.6464 14.8536C12.5527 14.7598 12.5 14.6326 12.5 14.5C12.5 14.3674 12.5527 14.2402 12.6464 14.1464C12.7402 14.0527 12.8674 14 13 14H16C16.1326 14 16.2598 14.0527 16.3536 14.1464C16.4473 14.2402 16.5 14.3674 16.5 14.5C16.5 14.6326 16.4473 14.7598 16.3536 14.8536C16.2598 14.9473 16.1326 15 16 15Z" fill="white"/>
</svg>
