<svg width="24" height="24" viewBox="0 0 24 24" fill="none" xmlns="http://www.w3.org/2000/svg">
<path d="M12 16.7499C10.5387 16.7499 9.13717 16.1694 8.10385 15.1361C7.07052 14.1028 6.49001 12.7013 6.49001 11.2399V4.55994C6.47477 4.35355 6.47477 4.14633 6.49001 3.93994C6.50491 3.81624 6.56546 3.70257 6.6598 3.62118C6.75413 3.53979 6.87546 3.49655 7.00001 3.49994H17C17.1222 3.50118 17.24 3.54629 17.3317 3.62705C17.4235 3.70781 17.4832 3.81885 17.5 3.93994C17.5 4.13994 17.5 4.34994 17.5 4.55994V11.2399C17.5 12.6996 16.9209 14.0995 15.8897 15.1326C14.8585 16.1656 13.4596 16.7473 12 16.7499ZM7.49001 4.49994V11.2399C7.56616 12.3816 8.07337 13.4516 8.90891 14.2332C9.74444 15.0149 10.8458 15.4498 11.99 15.4498C13.1342 15.4498 14.2356 15.0149 15.0711 14.2332C15.9066 13.4516 16.4139 12.3816 16.49 11.2399V4.49994H7.49001Z" fill="white"/>
<path d="M17 12.4599C16.8674 12.4599 16.7402 12.4072 16.6465 12.3134C16.5527 12.2197 16.5 12.0925 16.5 11.9599C16.5 11.8273 16.5527 11.7001 16.6465 11.6063C16.7402 11.5126 16.8674 11.4599 17 11.4599C19.74 11.4599 20.28 8.28988 20.38 7.03988H17C16.8674 7.03988 16.7402 6.9872 16.6465 6.89343C16.5527 6.79967 16.5 6.67249 16.5 6.53988C16.4945 6.47094 16.5033 6.40159 16.526 6.33623C16.5486 6.27088 16.5845 6.21093 16.6315 6.16017C16.6785 6.10942 16.7355 6.06897 16.799 6.04138C16.8624 6.01379 16.9308 5.99966 17 5.99988H20.84C20.9718 6.00244 21.0975 6.05594 21.1907 6.14916C21.284 6.24238 21.3375 6.36807 21.34 6.49988C21.34 8.49988 20.42 12.3799 16.94 12.4199L17 12.4599Z" fill="white"/>
<path d="M7.06 12.4599C3.58 12.4599 2.66 8.57992 2.66 6.53992C2.66 6.40731 2.71268 6.28013 2.80645 6.18636C2.90022 6.0926 3.0274 6.03992 3.16 6.03992H7C7.13261 6.03992 7.25979 6.0926 7.35356 6.18636C7.44732 6.28013 7.5 6.40731 7.5 6.53992C7.48993 6.66547 7.43283 6.7826 7.34013 6.86789C7.24744 6.95317 7.12596 7.00032 7 6.99992H3.67C3.77 8.25992 4.31 11.3999 7.06 11.4199C7.19261 11.4199 7.31979 11.4726 7.41356 11.5664C7.50733 11.6601 7.56 11.7873 7.56 11.9199C7.56 12.0525 7.50733 12.1797 7.41356 12.2735C7.31979 12.3672 7.19261 12.4199 7.06 12.4199V12.4599Z" fill="white"/>
<path d="M12 20.5C11.8674 20.5 11.7402 20.4473 11.6464 20.3536C11.5527 20.2598 11.5 20.1326 11.5 20V16.25C11.5 16.1174 11.5527 15.9902 11.6464 15.8964C11.7402 15.8027 11.8674 15.75 12 15.75C12.1326 15.75 12.2598 15.8027 12.3536 15.8964C12.4473 15.9902 12.5 16.1174 12.5 16.25V20C12.5 20.1326 12.4473 20.2598 12.3536 20.3536C12.2598 20.4473 12.1326 20.5 12 20.5Z" fill="white"/>
</svg>
