<svg width="24" height="24" viewBox="0 0 24 24" fill="none" xmlns="http://www.w3.org/2000/svg">
<path d="M6.00001 21.76C5.07429 21.7574 4.18709 21.3891 3.53157 20.7355C2.87604 20.0818 2.50529 19.1957 2.50001 18.27V9.26998C2.4987 8.80951 2.58826 8.35331 2.76356 7.92752C2.93886 7.50172 3.19646 7.1147 3.5216 6.78864C3.84673 6.46257 4.23302 6.20387 4.65831 6.02736C5.0836 5.85084 5.53955 5.75998 6.00001 5.75998H7.00001C7.13262 5.75998 7.2598 5.81266 7.35357 5.90643C7.44734 6.0002 7.50001 6.12737 7.50001 6.25998C7.50001 6.39259 7.44734 6.51977 7.35357 6.61353C7.2598 6.7073 7.13262 6.75998 7.00001 6.75998H6.00001C5.67189 6.75811 5.34678 6.82271 5.04429 6.94989C4.74181 7.07707 4.46822 7.26419 4.24001 7.49998C4.00756 7.73225 3.82338 8.00823 3.69809 8.31201C3.5728 8.6158 3.50888 8.94138 3.51001 9.26998V18.27C3.51524 18.9288 3.77926 19.5591 4.2451 20.0249C4.71093 20.4907 5.34124 20.7548 6.00001 20.76H18C18.3326 20.7597 18.6617 20.6922 18.9676 20.5616C19.2734 20.431 19.5498 20.24 19.78 20C20.2477 19.5296 20.5101 18.8933 20.51 18.23V9.22998C20.5074 8.56602 20.2418 7.93016 19.7713 7.4616C19.3009 6.99305 18.664 6.72998 18 6.72998H17C16.8674 6.72998 16.7402 6.6773 16.6465 6.58353C16.5527 6.48977 16.5 6.36259 16.5 6.22998C16.5 6.09737 16.5527 5.9702 16.6465 5.87643C16.7402 5.78266 16.8674 5.72998 17 5.72998H18C18.9257 5.7326 19.8129 6.10082 20.4685 6.75447C21.124 7.40812 21.4947 8.29427 21.5 9.21998V18.22C21.5013 18.6804 21.4118 19.1367 21.2365 19.5624C21.0612 19.9882 20.8036 20.3753 20.4784 20.7013C20.1533 21.0274 19.767 21.2861 19.3417 21.4626C18.9164 21.6391 18.4605 21.73 18 21.73H6.00001V21.76Z" fill="white"/>
<path d="M10 6.75C9.86739 6.75 9.74021 6.69732 9.64645 6.60355C9.55268 6.50979 9.5 6.38261 9.5 6.25C9.5 6.11739 9.55268 5.99021 9.64645 5.89645C9.74021 5.80268 9.86739 5.75 10 5.75H14C14.1326 5.75 14.2598 5.80268 14.3536 5.89645C14.4473 5.99021 14.5 6.11739 14.5 6.25C14.5 6.38261 14.4473 6.50979 14.3536 6.60355C14.2598 6.69732 14.1326 6.75 14 6.75H10Z" fill="white"/>
<path d="M8.48004 8.26001C7.94961 8.26001 7.4409 8.0493 7.06583 7.67422C6.69076 7.29915 6.48004 6.79044 6.48004 6.26001V4.26001C6.48004 3.72958 6.69076 3.22087 7.06583 2.8458C7.4409 2.47072 7.94961 2.26001 8.48004 2.26001C9.01047 2.26001 9.51918 2.47072 9.89426 2.8458C10.2693 3.22087 10.48 3.72958 10.48 4.26001V6.26001C10.4805 6.78815 10.272 7.29503 9.90004 7.67001C9.52252 8.03935 9.0181 8.25042 8.49004 8.26001H8.48004ZM8.48004 3.26001C8.21482 3.26001 7.96047 3.36537 7.77293 3.5529C7.5854 3.74044 7.48004 3.99479 7.48004 4.26001V6.26001C7.4838 6.52378 7.59163 6.77538 7.78004 6.96001C7.97117 7.13871 8.21883 7.24485 8.48004 7.26001C8.74161 7.2696 8.99652 7.17626 9.19004 7.00001C9.28272 6.90657 9.35605 6.79575 9.40581 6.67392C9.45558 6.55208 9.4808 6.42162 9.48004 6.29001V4.29001C9.48406 4.15619 9.46116 4.02292 9.41271 3.89811C9.36425 3.7733 9.29123 3.65949 9.19797 3.56343C9.10471 3.46737 8.99311 3.39102 8.86978 3.3389C8.74646 3.28677 8.61393 3.25995 8.48004 3.26001Z" fill="white"/>
<path d="M15.48 8.23999C14.9519 8.24041 14.445 8.03191 14.07 7.65999C13.8829 7.47393 13.7344 7.25267 13.6331 7.00896C13.5319 6.76525 13.4798 6.5039 13.48 6.23999V4.23999C13.48 3.70956 13.6908 3.20085 14.0658 2.82578C14.4409 2.4507 14.9496 2.23999 15.48 2.23999C16.0105 2.23999 16.5192 2.4507 16.8943 2.82578C17.2693 3.20085 17.48 3.70956 17.48 4.23999V6.23999C17.48 6.77042 17.2693 7.27913 16.8943 7.6542C16.5192 8.02928 16.0105 8.23999 15.48 8.23999ZM15.48 3.23999C15.2148 3.23999 14.9605 3.34535 14.7729 3.53288C14.5854 3.72042 14.48 3.97477 14.48 4.23999V6.23999C14.48 6.50521 14.5854 6.75956 14.7729 6.9471C14.9605 7.13463 15.2148 7.23999 15.48 7.23999C15.7453 7.23999 15.9996 7.13463 16.1871 6.9471C16.3747 6.75956 16.48 6.50521 16.48 6.23999V4.23999C16.48 3.97477 16.3747 3.72042 16.1871 3.53288C15.9996 3.34535 15.7453 3.23999 15.48 3.23999Z" fill="white"/>
<path d="M3 11.77C2.86819 11.7675 2.7425 11.714 2.64928 11.6207C2.55606 11.5275 2.50256 11.4018 2.5 11.27C2.5 11.1374 2.55268 11.0102 2.64645 10.9165C2.74021 10.8227 2.86739 10.77 3 10.77H21C21.1326 10.77 21.2598 10.8227 21.3536 10.9165C21.4473 11.0102 21.5 11.1374 21.5 11.27C21.5013 11.3352 21.4896 11.4 21.4656 11.4606C21.4416 11.5212 21.4057 11.5764 21.3601 11.623C21.3144 11.6695 21.26 11.7065 21.1999 11.7318C21.1397 11.757 21.0752 11.77 21.01 11.77H3.01H3Z" fill="white"/>
</svg>
