<svg width="24" height="24" viewBox="0 0 24 24" fill="none" xmlns="http://www.w3.org/2000/svg">
<path d="M9.54999 19.6601C9.17422 19.6579 8.81462 19.5069 8.54999 19.2401L2.32999 13.0001C2.23775 12.9049 2.18616 12.7776 2.18616 12.6451C2.18616 12.5126 2.23775 12.3852 2.32999 12.2901L4.74999 9.91009C5.02075 9.65556 5.37838 9.51386 5.74999 9.51386C6.12161 9.51386 6.47924 9.65556 6.74999 9.91009L9.53999 12.6901C9.5791 12.73 9.62578 12.7617 9.67729 12.7834C9.7288 12.805 9.78412 12.8162 9.83999 12.8162C9.89587 12.8162 9.95119 12.805 10.0027 12.7834C10.0542 12.7617 10.1009 12.73 10.14 12.6901L17.49 5.35009C17.7608 5.09556 18.1184 4.95386 18.49 4.95386C18.8616 4.95386 19.2192 5.09556 19.49 5.35009L21 6.80009C21.2638 7.06605 21.4118 7.42548 21.4118 7.80009C21.4118 8.1747 21.2638 8.53413 21 8.80009L10.56 19.2401C10.4278 19.3734 10.2704 19.4792 10.0971 19.5512C9.92369 19.6233 9.73775 19.6603 9.54999 19.6601ZM3.38999 12.6601L9.24999 18.5101C9.2891 18.55 9.33578 18.5817 9.38729 18.6034C9.4388 18.625 9.49412 18.6362 9.54999 18.6362C9.60587 18.6362 9.66119 18.625 9.7127 18.6034C9.76421 18.5817 9.81089 18.55 9.85 18.5101L20.27 8.11009C20.3121 8.07247 20.3455 8.02617 20.368 7.97437C20.3904 7.92258 20.4013 7.86652 20.4 7.81009C20.4008 7.75225 20.3897 7.69486 20.3674 7.64152C20.345 7.58817 20.3118 7.54002 20.27 7.50009L18.82 6.05009C18.7397 5.9719 18.6321 5.92815 18.52 5.92815C18.4079 5.92815 18.3003 5.9719 18.22 6.05009L10.87 13.4001C10.5992 13.6546 10.2416 13.7963 9.86999 13.7963C9.49838 13.7963 9.14075 13.6546 8.86999 13.4001L6.05999 10.6101C5.97971 10.5319 5.87206 10.4881 5.75999 10.4881C5.64793 10.4881 5.54028 10.5319 5.45999 10.6101L3.38999 12.6601Z" fill="white"/>
</svg>
