<svg width="24" height="24" viewBox="0 0 24 24" fill="none" xmlns="http://www.w3.org/2000/svg">
<path d="M15.75 19.17C15.6155 19.1618 15.4896 19.1007 15.4 19C15.352 18.9553 15.3138 18.9011 15.288 18.8408C15.2621 18.7806 15.2492 18.7155 15.25 18.65C15.2503 18.5148 15.3043 18.3854 15.4 18.29C15.4957 18.2028 15.6205 18.1545 15.75 18.1545C15.8795 18.1545 16.0043 18.2028 16.1 18.29C16.1957 18.3854 16.2497 18.5148 16.25 18.65C16.2508 18.7155 16.2379 18.7806 16.212 18.8408C16.1862 18.9011 16.148 18.9553 16.1 19C16.0104 19.1007 15.8846 19.1618 15.75 19.17Z" fill="white"/>
<path d="M15.75 15.92C15.6183 15.917 15.4929 15.8633 15.4 15.77C15.352 15.7253 15.3138 15.6711 15.288 15.6109C15.2621 15.5506 15.2492 15.4856 15.25 15.42C15.2503 15.2848 15.3043 15.1554 15.4 15.06C15.4957 14.9728 15.6205 14.9246 15.75 14.9246C15.8795 14.9246 16.0043 14.9728 16.1 15.06C16.1957 15.1554 16.2497 15.2848 16.25 15.42C16.2508 15.4856 16.2379 15.5506 16.212 15.6109C16.1862 15.6711 16.148 15.7253 16.1 15.77C16.0071 15.8633 15.8817 15.917 15.75 15.92Z" fill="white"/>
<path d="M17.36 22.5H6.64C6.05653 22.5 5.49695 22.2682 5.08437 21.8556C4.67179 21.4431 4.44 20.8835 4.44 20.3V3.7C4.44 3.11652 4.67179 2.55695 5.08437 2.14437C5.49695 1.73179 6.05653 1.5 6.64 1.5H17.36C17.9435 1.5 18.5031 1.73179 18.9156 2.14437C19.3282 2.55695 19.56 3.11652 19.56 3.7V20.3C19.56 20.8835 19.3282 21.4431 18.9156 21.8556C18.5031 22.2682 17.9435 22.5 17.36 22.5ZM6.64 2.5C6.32174 2.5 6.01652 2.62643 5.79147 2.85147C5.56643 3.07652 5.44 3.38174 5.44 3.7V20.3C5.44 20.6183 5.56643 20.9235 5.79147 21.1485C6.01652 21.3736 6.32174 21.5 6.64 21.5H17.36C17.6783 21.5 17.9835 21.3736 18.2085 21.1485C18.4336 20.9235 18.56 20.6183 18.56 20.3V3.7C18.56 3.38174 18.4336 3.07652 18.2085 2.85147C17.9835 2.62643 17.6783 2.5 17.36 2.5H6.64Z" fill="white"/>
<path d="M9.88 19.1699C9.7474 19.1699 9.62022 19.1172 9.52645 19.0235C9.43268 18.9297 9.38 18.8025 9.38 18.6699V15.4199C9.38 15.2873 9.43268 15.1601 9.52645 15.0664C9.62022 14.9726 9.7474 14.9199 9.88 14.9199C10.0126 14.9199 10.1398 14.9726 10.2336 15.0664C10.3273 15.1601 10.38 15.2873 10.38 15.4199V18.6699C10.3774 18.8017 10.3239 18.9274 10.2307 19.0206C10.1375 19.1139 10.0118 19.1674 9.88 19.1699Z" fill="white"/>
<path d="M11.5 17.54H8.25C8.11739 17.54 7.99021 17.4874 7.89645 17.3936C7.80268 17.2998 7.75 17.1726 7.75 17.04C7.75 16.9074 7.80268 16.7803 7.89645 16.6865C7.99021 16.5927 8.11739 16.54 8.25 16.54H11.5C11.6326 16.54 11.7598 16.5927 11.8536 16.6865C11.9473 16.7803 12 16.9074 12 17.04C12 17.1726 11.9473 17.2998 11.8536 17.3936C11.7598 17.4874 11.6326 17.54 11.5 17.54Z" fill="white"/>
<path d="M19.06 12.5H4.94C4.80739 12.5 4.68022 12.4473 4.58645 12.3536C4.49268 12.2598 4.44 12.1326 4.44 12C4.44 11.8674 4.49268 11.7402 4.58645 11.6464C4.68022 11.5527 4.80739 11.5 4.94 11.5H19.06C19.1926 11.5 19.3198 11.5527 19.4136 11.6464C19.5073 11.7402 19.56 11.8674 19.56 12C19.56 12.1326 19.5073 12.2598 19.4136 12.3536C19.3198 12.4473 19.1926 12.5 19.06 12.5Z" fill="white"/>
</svg>
