<svg width="24" height="24" viewBox="0 0 24 24" fill="none" xmlns="http://www.w3.org/2000/svg">
<path d="M9.67 21.07C9.34139 21.0712 9.01581 21.0072 8.71203 20.8819C8.40824 20.7567 8.13226 20.5725 7.9 20.34L3.49 15.92C3.25749 15.6886 3.07298 15.4136 2.94709 15.1107C2.82119 14.8078 2.75638 14.483 2.75638 14.155C2.75638 13.827 2.82119 13.5022 2.94709 13.1993C3.07298 12.8964 3.25749 12.6214 3.49 12.39L12.73 3.15002C13.2053 2.69174 13.8398 2.43567 14.5 2.43567C15.1602 2.43567 15.7947 2.69174 16.27 3.15002L20.68 7.56002C20.9128 7.79225 21.0975 8.06813 21.2236 8.37185C21.3496 8.67558 21.4145 9.00119 21.4145 9.33002C21.4145 9.65886 21.3496 9.98446 21.2236 10.2882C21.0975 10.5919 20.9128 10.8678 20.68 11.1L11.44 20.34C11.2077 20.5725 10.9318 20.7567 10.628 20.8819C10.3242 21.0072 9.9986 21.0712 9.67 21.07ZM14.5 3.41002C14.1023 3.41037 13.721 3.56864 13.44 3.85002L4.2 13.1C4.05971 13.2386 3.94832 13.4037 3.8723 13.5856C3.79628 13.7676 3.75714 13.9628 3.75714 14.16C3.75714 14.3572 3.79628 14.5525 3.8723 14.7344C3.94832 14.9164 4.05971 15.0814 4.2 15.22L8.61 19.63C8.74858 19.7703 8.91364 19.8817 9.0956 19.9577C9.27756 20.0337 9.4728 20.0729 9.67 20.0729C9.8672 20.0729 10.0624 20.0337 10.2444 19.9577C10.4264 19.8817 10.5914 19.7703 10.73 19.63L20 10.39C20.1403 10.2514 20.2517 10.0864 20.3277 9.90442C20.4037 9.72246 20.4429 9.52722 20.4429 9.33002C20.4429 9.13282 20.4037 8.93758 20.3277 8.75563C20.2517 8.57367 20.1403 8.40861 20 8.27002L15.56 3.85002C15.279 3.56864 14.8977 3.41037 14.5 3.41002Z" fill="white"/>
<path d="M14.5 12.32C14.1977 12.3178 13.9078 12.1997 13.69 11.99L12.1 10.39C11.8893 10.175 11.7713 9.88598 11.7713 9.58497C11.7713 9.28395 11.8893 8.99493 12.1 8.77997L13.79 7.08997C14.005 6.87926 14.294 6.76123 14.595 6.76123C14.896 6.76123 15.185 6.87926 15.4 7.08997L17 8.67997C17.2097 8.89773 17.3278 9.18766 17.33 9.48997C17.3299 9.79268 17.2115 10.0834 17 10.3L15.31 12C15.0918 12.2078 14.8013 12.3226 14.5 12.32ZM14.6 7.75997C14.5843 7.75278 14.5673 7.74905 14.55 7.74905C14.5327 7.74905 14.5157 7.75278 14.5 7.75997L12.81 9.48997C12.7953 9.50217 12.7835 9.51745 12.7754 9.53473C12.7673 9.55202 12.7631 9.57087 12.7631 9.58997C12.7631 9.60906 12.7673 9.62792 12.7754 9.6452C12.7835 9.66248 12.7953 9.67777 12.81 9.68997L14.4 11.28C14.4275 11.3046 14.4631 11.3182 14.5 11.3182C14.5369 11.3182 14.5725 11.3046 14.6 11.28L16.29 9.58997C16.3146 9.56247 16.3282 9.52686 16.3282 9.48997C16.3282 9.45307 16.3146 9.41747 16.29 9.38997L14.7 7.79997C14.6868 7.78703 14.6712 7.77683 14.654 7.76997C14.6368 7.7631 14.6185 7.7597 14.6 7.75997Z" fill="white"/>
<path d="M21.5 21.59H2.5C2.36739 21.59 2.24021 21.5373 2.14645 21.4435C2.05268 21.3498 2 21.2226 2 21.09C2 20.9574 2.05268 20.8302 2.14645 20.7364C2.24021 20.6426 2.36739 20.59 2.5 20.59H21.5C21.6326 20.59 21.7598 20.6426 21.8536 20.7364C21.9473 20.8302 22 20.9574 22 21.09C22 21.2226 21.9473 21.3498 21.8536 21.4435C21.7598 21.5373 21.6326 21.59 21.5 21.59Z" fill="white"/>
<path d="M7.5 14.59C7.43443 14.5908 7.36941 14.5778 7.30913 14.552C7.24886 14.5262 7.19465 14.488 7.15 14.44C7.10314 14.3935 7.06594 14.3382 7.04056 14.2773C7.01517 14.2163 7.00211 14.151 7.00211 14.085C7.00211 14.019 7.01517 13.9536 7.04056 13.8927C7.06594 13.8317 7.10314 13.7764 7.15 13.73L9.15 11.73C9.24347 11.6384 9.36913 11.587 9.5 11.587C9.63088 11.587 9.75654 11.6384 9.85001 11.73C9.89687 11.7764 9.93407 11.8317 9.95945 11.8927C9.98484 11.9536 9.9979 12.019 9.9979 12.085C9.9979 12.151 9.98484 12.2163 9.95945 12.2773C9.93407 12.3382 9.89687 12.3935 9.85001 12.44L7.85 14.44C7.80536 14.488 7.75115 14.5262 7.69088 14.552C7.6306 14.5778 7.56558 14.5908 7.5 14.59Z" fill="white"/>
<path d="M9.5 16.59C9.43443 16.5908 9.36941 16.5778 9.30913 16.552C9.24886 16.5262 9.19465 16.488 9.15 16.44C9.10314 16.3935 9.06594 16.3382 9.04056 16.2773C9.01517 16.2163 9.00211 16.151 9.00211 16.085C9.00211 16.019 9.01517 15.9536 9.04056 15.8927C9.06594 15.8317 9.10314 15.7764 9.15 15.73L11.15 13.73C11.2435 13.6384 11.3691 13.587 11.5 13.587C11.6309 13.587 11.7565 13.6384 11.85 13.73C11.8969 13.7764 11.9341 13.8317 11.9595 13.8927C11.9848 13.9536 11.9979 14.019 11.9979 14.085C11.9979 14.151 11.9848 14.2163 11.9595 14.2773C11.9341 14.3382 11.8969 14.3935 11.85 14.44L9.85001 16.44C9.80536 16.488 9.75115 16.5262 9.69088 16.552C9.6306 16.5778 9.56558 16.5908 9.5 16.59Z" fill="white"/>
</svg>
