<svg width="24" height="24" viewBox="0 0 24 24" fill="none" xmlns="http://www.w3.org/2000/svg">
<path d="M15 22.5H9C8.07174 22.5 7.1815 22.1313 6.52513 21.4749C5.86875 20.8185 5.5 19.9283 5.5 19V5C5.5 4.07174 5.86875 3.1815 6.52513 2.52513C7.1815 1.86875 8.07174 1.5 9 1.5H15C15.9283 1.5 16.8185 1.86875 17.4749 2.52513C18.1313 3.1815 18.5 4.07174 18.5 5V19C18.5 19.9283 18.1313 20.8185 17.4749 21.4749C16.8185 22.1313 15.9283 22.5 15 22.5ZM9 2.5C8.33696 2.5 7.70107 2.76339 7.23223 3.23223C6.76339 3.70107 6.5 4.33696 6.5 5V19C6.5 19.663 6.76339 20.2989 7.23223 20.7678C7.70107 21.2366 8.33696 21.5 9 21.5H15C15.663 21.5 16.2989 21.2366 16.7678 20.7678C17.2366 20.2989 17.5 19.663 17.5 19V5C17.5 4.33696 17.2366 3.70107 16.7678 3.23223C16.2989 2.76339 15.663 2.5 15 2.5H9Z" fill="white"/>
<path d="M12 19.5C11.9375 19.5142 11.8725 19.5142 11.81 19.5C11.7476 19.4787 11.6923 19.4406 11.65 19.39C11.6022 19.3451 11.564 19.2909 11.538 19.2307C11.5119 19.1705 11.4985 19.1056 11.4985 19.04C11.4985 18.9744 11.5119 18.9095 11.538 18.8493C11.564 18.7891 11.6022 18.7349 11.65 18.69C11.6923 18.6394 11.7476 18.6013 11.81 18.58C11.9317 18.53 12.0683 18.53 12.19 18.58C12.2524 18.6013 12.3077 18.6394 12.35 18.69C12.3978 18.7349 12.436 18.7891 12.462 18.8493C12.4881 18.9095 12.5015 18.9744 12.5015 19.04C12.5015 19.1056 12.4881 19.1705 12.462 19.2307C12.436 19.2909 12.3978 19.3451 12.35 19.39C12.3077 19.4406 12.2524 19.4787 12.19 19.5C12.1275 19.5142 12.0625 19.5142 12 19.5Z" fill="white"/>
</svg>
