<svg width="24" height="24" viewBox="0 0 24 24" fill="none" xmlns="http://www.w3.org/2000/svg">
<path d="M12 14.54C11.9194 14.5405 11.8401 14.5198 11.77 14.48C11.62 14.41 8.21001 12.59 7.49001 10.13C7.27128 9.52896 7.19271 8.8859 7.2603 8.24987C7.32789 7.61384 7.53985 7.00166 7.88001 6.46C8.12454 6.1375 8.44288 5.87838 8.80828 5.70437C9.17369 5.53037 9.57551 5.44657 9.98001 5.46C10.3708 5.44375 10.7593 5.52698 11.1091 5.70188C11.4589 5.87679 11.7586 6.13764 11.98 6.46C12.2015 6.13764 12.5011 5.87679 12.851 5.70188C13.2008 5.52698 13.5893 5.44375 13.98 5.46C14.3845 5.44657 14.7863 5.53037 15.1517 5.70437C15.5172 5.87838 15.8355 6.1375 16.08 6.46C16.4202 7.00166 16.6321 7.61384 16.6997 8.24987C16.7673 8.8859 16.6887 9.52896 16.47 10.13C15.75 12.59 12.34 14.41 12.19 14.48C12.1318 14.5136 12.067 14.5341 12 14.54ZM10 6.46C9.75082 6.44641 9.50209 6.49397 9.2755 6.59855C9.04891 6.70313 8.85134 6.86155 8.70001 7.06C8.45552 7.47827 8.30794 7.94604 8.26813 8.42888C8.22833 8.91172 8.29732 9.39735 8.47001 9.85C9.00001 11.58 11.26 13 12 13.47C12.74 13.03 15 11.57 15.55 9.85C15.7227 9.39735 15.7917 8.91172 15.7519 8.42888C15.7121 7.94604 15.5645 7.47827 15.32 7.06C15.1687 6.86155 14.9711 6.70313 14.7445 6.59855C14.5179 6.49397 14.2692 6.44641 14.02 6.46C13.8179 6.45724 13.6174 6.49533 13.4304 6.572C13.2434 6.64867 13.0739 6.76233 12.9319 6.90616C12.7899 7.04999 12.6785 7.22102 12.6043 7.40899C12.5301 7.59696 12.4946 7.79799 12.5 8C12.5 8.13261 12.4473 8.25979 12.3536 8.35356C12.2598 8.44733 12.1326 8.5 12 8.5C11.8674 8.5 11.7402 8.44733 11.6465 8.35356C11.5527 8.25979 11.5 8.13261 11.5 8C11.5027 7.80039 11.466 7.60221 11.392 7.41678C11.318 7.23135 11.2083 7.06231 11.069 6.91931C10.9297 6.7763 10.7636 6.66213 10.5802 6.58333C10.3968 6.50452 10.1996 6.46261 10 6.46Z" fill="white"/>
<path d="M18.76 17.5H5.24C4.2489 17.4974 3.29915 17.1025 2.59834 16.4017C1.89752 15.7008 1.50264 14.7511 1.5 13.76V6.24C1.50264 5.2489 1.89752 4.29915 2.59834 3.59834C3.29915 2.89752 4.2489 2.50264 5.24 2.5H18.76C19.7511 2.50264 20.7008 2.89752 21.4017 3.59834C22.1025 4.29915 22.4974 5.2489 22.5 6.24V13.76C22.4974 14.7511 22.1025 15.7008 21.4017 16.4017C20.7008 17.1025 19.7511 17.4974 18.76 17.5ZM5.24 3.5C4.51331 3.5 3.81638 3.78868 3.30253 4.30253C2.78868 4.81638 2.5 5.51331 2.5 6.24V13.76C2.5 14.4867 2.78868 15.1836 3.30253 15.6975C3.81638 16.2113 4.51331 16.5 5.24 16.5H18.76C19.4867 16.5 20.1836 16.2113 20.6975 15.6975C21.2113 15.1836 21.5 14.4867 21.5 13.76V6.24C21.5 5.51331 21.2113 4.81638 20.6975 4.30253C20.1836 3.78868 19.4867 3.5 18.76 3.5H5.24Z" fill="white"/>
<path d="M12 21.5C11.8674 21.5 11.7402 21.4473 11.6464 21.3536C11.5527 21.2598 11.5 21.1326 11.5 21V17C11.5 16.8674 11.5527 16.7402 11.6464 16.6464C11.7402 16.5527 11.8674 16.5 12 16.5C12.1326 16.5 12.2598 16.5527 12.3536 16.6464C12.4473 16.7402 12.5 16.8674 12.5 17V21C12.5 21.1326 12.4473 21.2598 12.3536 21.3536C12.2598 21.4473 12.1326 21.5 12 21.5Z" fill="white"/>
<path d="M18 21.5H6C5.86739 21.5 5.74021 21.4473 5.64645 21.3536C5.55268 21.2598 5.5 21.1326 5.5 21C5.5 20.8674 5.55268 20.7402 5.64645 20.6464C5.74021 20.5527 5.86739 20.5 6 20.5H18C18.1326 20.5 18.2598 20.5527 18.3536 20.6464C18.4473 20.7402 18.5 20.8674 18.5 21C18.5 21.1326 18.4473 21.2598 18.3536 21.3536C18.2598 21.4473 18.1326 21.5 18 21.5Z" fill="white"/>
</svg>
