<svg width="24" height="24" viewBox="0 0 24 24" fill="none" xmlns="http://www.w3.org/2000/svg">
<path d="M18.43 18.79C15.57 18.79 14.14 15.97 13.72 14.97H10.28C9.85999 15.97 8.42999 18.79 5.56999 18.79C1.92999 18.79 1.92999 15.79 1.92999 14.38C1.92999 12.71 4.81999 7.11997 5.14999 6.47997C5.19094 6.39847 5.25382 6.33002 5.33155 6.28232C5.40929 6.23462 5.49879 6.20956 5.58999 6.20997H18.41C18.5012 6.20956 18.5907 6.23462 18.6684 6.28232C18.7462 6.33002 18.809 6.39847 18.85 6.47997C19.18 7.11997 22.07 12.71 22.07 14.38C22.07 15.81 22.07 18.79 18.43 18.79ZM9.93999 14H14.06C14.1643 13.9992 14.2662 14.0318 14.3507 14.0929C14.4352 14.1541 14.4981 14.2406 14.53 14.34C14.53 14.34 15.75 17.82 18.43 17.82C20.87 17.82 21.07 16.27 21.07 14.41C21.07 13.41 19.31 9.57997 18.07 7.23997H5.88999C4.68999 9.57997 2.88999 13.38 2.88999 14.41C2.88999 16.27 3.08999 17.82 5.52999 17.82C8.20999 17.82 9.41999 14.37 9.42999 14.34C9.46368 14.2338 9.53255 14.1422 9.62527 14.0804C9.71798 14.0186 9.82899 13.9902 9.93999 14Z" fill="white"/>
<path d="M12 7.20998C11.8842 7.21195 11.7715 7.17286 11.6818 7.09964C11.5921 7.02642 11.5312 6.9238 11.51 6.80998C11.4096 6.19967 11.435 5.57529 11.5846 4.97515C11.7342 4.37501 12.0049 3.81177 12.38 3.31998C12.8974 2.77458 13.5312 2.35287 14.2341 2.08624C14.937 1.81962 15.691 1.71493 16.44 1.77998C16.5726 1.77998 16.6998 1.83266 16.7936 1.92643C16.8873 2.0202 16.94 2.14737 16.94 2.27998C16.94 2.41259 16.8873 2.53977 16.7936 2.63354C16.6998 2.7273 16.5726 2.77998 16.44 2.77998C15.8354 2.7265 15.2266 2.80822 14.6575 3.01924C14.0885 3.23026 13.5735 3.56527 13.15 3.99998C12.5897 4.77341 12.3529 5.7348 12.49 6.67998C12.5134 6.80988 12.4844 6.94375 12.4095 7.0524C12.3346 7.16106 12.2197 7.23567 12.09 7.25998L12 7.20998Z" fill="white"/>
</svg>
