<svg width="24" height="24" viewBox="0 0 24 24" fill="none" xmlns="http://www.w3.org/2000/svg">
<path d="M17 22.4601H6.99998C6.07515 22.4654 5.1858 22.1045 4.52624 21.4562C3.86668 20.8079 3.49053 19.9249 3.47998 19.0001V5.0001C3.49053 4.07532 3.86668 3.1923 4.52624 2.54398C5.1858 1.89567 6.07515 1.53475 6.99998 1.5401H17C17.9248 1.53475 18.8142 1.89567 19.4737 2.54398C20.1333 3.1923 20.5094 4.07532 20.52 5.0001V19.0001C20.5094 19.9249 20.1333 20.8079 19.4737 21.4562C18.8142 22.1045 17.9248 22.4654 17 22.4601ZM6.99998 2.5401C6.34036 2.53474 5.70535 2.79029 5.23332 3.25108C4.76129 3.71187 4.49051 4.34054 4.47998 5.0001V19.0001C4.49051 19.6597 4.76129 20.2883 5.23332 20.7491C5.70535 21.2099 6.34036 21.4655 6.99998 21.4601H17C17.3283 21.4601 17.6534 21.3954 17.9567 21.2698C18.26 21.1442 18.5356 20.96 18.7677 20.7279C18.9999 20.4957 19.184 20.2201 19.3097 19.9168C19.4353 19.6135 19.5 19.2884 19.5 18.9601V5.0001C19.4895 4.34401 19.2215 3.71836 18.7538 3.25813C18.286 2.79791 17.6561 2.54001 17 2.5401H6.99998Z" fill="white"/>
<path d="M12 16.0702C11.9213 16.0698 11.8439 16.0506 11.7743 16.014C11.7047 15.9775 11.6449 15.9247 11.6 15.8602L8.99996 12.2902C8.94104 12.2049 8.90948 12.1038 8.90948 12.0002C8.90948 11.8966 8.94104 11.7954 8.99996 11.7102L11.6 8.14018C11.6449 8.07565 11.7047 8.02288 11.7743 7.98633C11.8439 7.94978 11.9213 7.93052 12 7.93018C12.0798 7.93133 12.1584 7.95088 12.2295 7.9873C12.3006 8.02372 12.3623 8.07603 12.41 8.14018L15 11.7102C15.0589 11.7954 15.0904 11.8966 15.0904 12.0002C15.0904 12.1038 15.0589 12.2049 15 12.2902L12.43 15.8602C12.3803 15.9271 12.3154 15.981 12.2406 16.0176C12.1657 16.0541 12.0832 16.0722 12 16.0702ZM9.99996 12.0002L12 14.7202L14 12.0002L12 9.28018L9.99996 12.0002Z" fill="white"/>
</svg>
