<svg width="24" height="24" viewBox="0 0 24 24" fill="none" xmlns="http://www.w3.org/2000/svg">
<path d="M11.84 22.27C10.2333 22.2689 8.67451 21.7229 7.41831 20.7212C6.16211 19.7195 5.28279 18.3214 4.92406 16.7553C4.56532 15.1891 4.74838 13.5477 5.44332 12.099C6.13826 10.6504 7.30399 9.48034 8.75 8.78001C8.86809 8.7207 9.00485 8.71055 9.13039 8.75177C9.25594 8.793 9.36006 8.88224 9.42 9.00001C9.47477 9.11948 9.4803 9.25572 9.43538 9.37923C9.39047 9.50275 9.29872 9.60362 9.18 9.66001C7.92669 10.2678 6.91913 11.2861 6.32478 12.5459C5.73044 13.8056 5.58512 15.2308 5.91299 16.5845C6.24085 17.9383 7.02214 19.1391 8.127 19.9873C9.23185 20.8355 10.5937 21.28 11.9862 21.247C13.3787 21.214 14.718 20.7054 15.7814 19.8058C16.8448 18.9061 17.5683 17.6697 17.8316 16.3019C18.0949 14.9341 17.8822 13.5174 17.2288 12.2873C16.5754 11.0571 15.5207 10.0877 14.24 9.54001C14.1279 9.48196 14.0413 9.38439 13.9969 9.26616C13.9526 9.14794 13.9537 9.01747 14 8.90001C14.0261 8.83946 14.0639 8.78467 14.1113 8.7388C14.1586 8.69292 14.2146 8.65686 14.2759 8.6327C14.3373 8.60853 14.4028 8.59674 14.4687 8.59799C14.5346 8.59925 14.5996 8.61352 14.66 8.64001C16.1649 9.28239 17.4018 10.4249 18.1614 11.8742C18.921 13.3235 19.1566 14.9907 18.8285 16.5938C18.5003 18.1969 17.6285 19.6374 16.3606 20.6717C15.0926 21.706 13.5063 22.2706 11.87 22.27H11.84Z" fill="white"/>
<path d="M9 9.72988C8.86739 9.72988 8.74021 9.6772 8.64645 9.58344C8.55268 9.48967 8.5 9.36249 8.5 9.22988V5.37988C8.5 5.24727 8.55268 5.1201 8.64645 5.02633C8.74021 4.93256 8.86739 4.87988 9 4.87988H14.46C14.5926 4.87988 14.7198 4.93256 14.8136 5.02633C14.9073 5.1201 14.96 5.24727 14.96 5.37988V9.09988C14.96 9.23249 14.9073 9.35967 14.8136 9.45344C14.7198 9.5472 14.5926 9.59988 14.46 9.59988C14.3282 9.59732 14.2025 9.54382 14.1093 9.4506C14.0161 9.35738 13.9626 9.23169 13.96 9.09988V5.87988H9.47V9.22988C9.47023 9.35745 9.42169 9.48029 9.33431 9.57324C9.24694 9.66619 9.12734 9.72223 9 9.72988Z" fill="white"/>
<path d="M10.79 17.5101C8.94148 17.5116 7.09684 17.3408 5.28 17.0001C5.16423 16.9793 5.05918 16.9192 4.98263 16.8299C4.90609 16.7407 4.86277 16.6276 4.86 16.5101C4.85656 16.4332 4.8709 16.3566 4.90191 16.2862C4.93292 16.2158 4.97976 16.1535 5.03879 16.1041C5.09781 16.0548 5.16743 16.0197 5.24222 16.0017C5.31701 15.9836 5.39496 15.9831 5.47 16.0001C5.84 16.0701 14.66 17.8701 18.06 14.3701C18.1065 14.3232 18.1618 14.286 18.2227 14.2606C18.2836 14.2352 18.349 14.2222 18.415 14.2222C18.481 14.2222 18.5464 14.2352 18.6073 14.2606C18.6682 14.286 18.7235 14.3232 18.77 14.3701C18.861 14.4618 18.912 14.5858 18.912 14.7151C18.912 14.8443 18.861 14.9683 18.77 15.0601C16.87 17.0001 13.63 17.5101 10.79 17.5101Z" fill="white"/>
<path d="M13.58 5.88H9.99999C9.86738 5.88 9.7402 5.82732 9.64643 5.73355C9.55266 5.63979 9.49999 5.51261 9.49999 5.38V2.53C9.49589 2.46186 9.50579 2.3936 9.52908 2.32943C9.55236 2.26526 9.58854 2.20654 9.63539 2.15689C9.68223 2.10724 9.73875 2.0677 9.80145 2.04072C9.86416 2.01373 9.93172 1.99988 9.99999 2H13.63C13.7626 2 13.8898 2.05268 13.9835 2.14645C14.0773 2.24022 14.13 2.36739 14.13 2.5V5.38C14.1303 5.45009 14.1159 5.51947 14.0878 5.58364C14.0596 5.64781 14.0182 5.70533 13.9663 5.75248C13.9145 5.79963 13.8533 5.83534 13.7867 5.85731C13.7202 5.87928 13.6497 5.88701 13.58 5.88ZM10.45 4.88H13.08V3H10.45V4.88Z" fill="white"/>
</svg>
