<svg width="24" height="24" viewBox="0 0 24 24" fill="none" xmlns="http://www.w3.org/2000/svg">
<path d="M19.38 15.1201C19.3118 15.1272 19.2429 15.1202 19.1775 15.0995C19.1121 15.0789 19.0517 15.045 19 15.0001C18.9512 14.9539 18.9126 14.898 18.8868 14.836C18.8609 14.774 18.8484 14.7072 18.85 14.6401C18.8492 14.5745 18.8621 14.5095 18.888 14.4492C18.9138 14.3889 18.9519 14.3347 19 14.2901C19.0946 14.2007 19.2199 14.151 19.35 14.151C19.4801 14.151 19.6053 14.2007 19.7 14.2901C19.748 14.3347 19.7862 14.3889 19.812 14.4492C19.8379 14.5095 19.8508 14.5745 19.85 14.6401C19.8516 14.7072 19.839 14.774 19.8132 14.836C19.7874 14.898 19.7488 14.9539 19.7 15.0001C19.6526 15.0446 19.5986 15.0817 19.54 15.1101C19.4874 15.1208 19.4335 15.1241 19.38 15.1201Z" fill="white"/>
<path d="M4.61999 15.12C4.49227 15.1262 4.36702 15.0833 4.26999 15C4.22195 14.9554 4.18379 14.9012 4.15795 14.8409C4.13212 14.7806 4.11919 14.7156 4.11999 14.65C4.10498 14.5842 4.10498 14.5158 4.11999 14.45C4.14365 14.3888 4.18133 14.334 4.22999 14.29C4.32345 14.1984 4.44911 14.1471 4.57999 14.1471C4.71086 14.1471 4.83652 14.1984 4.92999 14.29C4.97865 14.334 5.01632 14.3888 5.03999 14.45C5.04942 14.5164 5.04942 14.5837 5.03999 14.65C5.06865 14.7677 5.05447 14.8918 4.99999 15C4.94826 15.045 4.88783 15.0789 4.82246 15.0995C4.75709 15.1202 4.68817 15.1271 4.61999 15.12Z" fill="white"/>
<path d="M20.29 18.53H16.47C16.4043 18.5262 16.34 18.5094 16.2808 18.4807C16.2216 18.452 16.1686 18.4118 16.1249 18.3626C16.0813 18.3133 16.0477 18.256 16.0263 18.1938C16.0049 18.1315 15.9959 18.0657 16 18V6C16 5.86739 16.0527 5.74021 16.1464 5.64645C16.2402 5.55268 16.3674 5.5 16.5 5.5H20.32C20.9778 5.50789 21.606 5.77477 22.0684 6.24276C22.5308 6.71074 22.79 7.34212 22.79 8V16C22.7939 16.3308 22.7322 16.6591 22.6084 16.9659C22.4845 17.2727 22.301 17.5519 22.0684 17.7872C21.8359 18.0225 21.559 18.2094 21.2537 18.3369C20.9484 18.4644 20.6208 18.53 20.29 18.53ZM16.97 17.53H20.29C20.6878 17.53 21.0693 17.372 21.3506 17.0907C21.6319 16.8094 21.79 16.4278 21.79 16.03V8C21.79 7.60218 21.6319 7.22064 21.3506 6.93934C21.0693 6.65804 20.6878 6.5 20.29 6.5H17L16.97 17.53Z" fill="white"/>
<path d="M7.52999 18.53H3.70999C3.37914 18.53 3.05159 18.4644 2.7463 18.3369C2.44101 18.2094 2.16407 18.0225 1.93153 17.7872C1.69899 17.5519 1.51547 17.2727 1.39161 16.9659C1.26775 16.6591 1.20602 16.3308 1.20999 16V8C1.20999 7.33696 1.47338 6.70107 1.94222 6.23223C2.41106 5.76339 3.04695 5.5 3.70999 5.5H7.52999C7.65733 5.50765 7.77693 5.56369 7.8643 5.65664C7.95168 5.7496 8.00022 5.87243 7.99999 6V18C8.00405 18.0657 7.9951 18.1315 7.97366 18.1938C7.95222 18.256 7.9187 18.3133 7.87503 18.3626C7.83137 18.4118 7.77841 18.452 7.7192 18.4807C7.65999 18.5094 7.59569 18.5262 7.52999 18.53ZM3.70999 6.47C3.51046 6.46996 3.31292 6.50973 3.12895 6.58698C2.94498 6.66423 2.77827 6.77741 2.63858 6.91989C2.49889 7.06237 2.38904 7.23129 2.31544 7.41676C2.24185 7.60222 2.206 7.80051 2.20999 8V16C2.20999 16.3978 2.36802 16.7794 2.64933 17.0607C2.93063 17.342 3.31216 17.5 3.70999 17.5H6.99999V6.47H3.70999Z" fill="white"/>
<path d="M16.47 8.53003H7.53C7.39739 8.53003 7.27021 8.47735 7.17645 8.38358C7.08268 8.28981 7.03 8.16264 7.03 8.03003C7.03 7.89742 7.08268 7.77024 7.17645 7.67648C7.27021 7.58271 7.39739 7.53003 7.53 7.53003H16.47C16.6026 7.53003 16.7298 7.58271 16.8236 7.67648C16.9173 7.77024 16.97 7.89742 16.97 8.03003C16.97 8.16264 16.9173 8.28981 16.8236 8.38358C16.7298 8.47735 16.6026 8.53003 16.47 8.53003Z" fill="white"/>
<path d="M16.47 16.47H7.53C7.39739 16.47 7.27021 16.4173 7.17645 16.3235C7.08268 16.2298 7.03 16.1026 7.03 15.97C7.03 15.8374 7.08268 15.7102 7.17645 15.6164C7.27021 15.5226 7.39739 15.47 7.53 15.47H16.47C16.6026 15.47 16.7298 15.5226 16.8236 15.6164C16.9173 15.7102 16.97 15.8374 16.97 15.97C16.97 16.1026 16.9173 16.2298 16.8236 16.3235C16.7298 16.4173 16.6026 16.47 16.47 16.47Z" fill="white"/>
</svg>
