<svg width="24" height="24" viewBox="0 0 24 24" fill="none" xmlns="http://www.w3.org/2000/svg">
<path d="M12 15C11.9174 15.0001 11.836 14.9801 11.7629 14.9418C11.6897 14.9035 11.627 14.848 11.58 14.78L3.57999 2.78003C3.52888 2.70443 3.49943 2.61627 3.49485 2.52512C3.49026 2.43397 3.51071 2.34331 3.55398 2.26295C3.59725 2.18259 3.66169 2.11561 3.74031 2.06927C3.81893 2.02292 3.90873 1.99898 3.99999 2.00003H20C20.0913 1.99898 20.1811 2.02292 20.2597 2.06927C20.3383 2.11561 20.4027 2.18259 20.446 2.26295C20.4893 2.34331 20.5097 2.43397 20.5051 2.52512C20.5006 2.61627 20.4711 2.70443 20.42 2.78003L12.42 14.78C12.373 14.848 12.3103 14.9035 12.2371 14.9418C12.164 14.9801 12.0826 15.0001 12 15ZM4.92999 3.00003L12 13.6L19.07 3.00003H4.92999Z" fill="white"/>
<path d="M12 22C11.8674 22 11.7402 21.9473 11.6464 21.8536C11.5527 21.7598 11.5 21.6326 11.5 21.5V14.5C11.5 14.3674 11.5527 14.2402 11.6464 14.1464C11.7402 14.0527 11.8674 14 12 14C12.1326 14 12.2598 14.0527 12.3536 14.1464C12.4473 14.2402 12.5 14.3674 12.5 14.5V21.5C12.5 21.6326 12.4473 21.7598 12.3536 21.8536C12.2598 21.9473 12.1326 22 12 22Z" fill="white"/>
<path d="M16.31 22H7.68999C7.55738 22 7.4302 21.9473 7.33643 21.8536C7.24267 21.7598 7.18999 21.6326 7.18999 21.5C7.18999 21.3674 7.24267 21.2402 7.33643 21.1464C7.4302 21.0527 7.55738 21 7.68999 21H16.31C16.4426 21 16.5698 21.0527 16.6635 21.1464C16.7573 21.2402 16.81 21.3674 16.81 21.5C16.81 21.6326 16.7573 21.7598 16.6635 21.8536C16.5698 21.9473 16.4426 22 16.31 22Z" fill="white"/>
</svg>
