<svg width="24" height="24" viewBox="0 0 24 24" fill="none" xmlns="http://www.w3.org/2000/svg">
<path d="M11 21.3501C9.34335 21.3499 7.72394 20.8586 6.34636 19.9384C4.96879 19.0182 3.89487 17.7104 3.26028 16.1801C2.62569 14.6498 2.45892 12.9658 2.78102 11.3407C3.10313 9.71571 3.89967 8.22261 5.06999 7.05009C6.04381 6.07444 7.24327 5.3541 8.56207 4.95289C9.88087 4.55167 11.2783 4.48199 12.6304 4.75001C13.9826 5.01804 15.2478 5.61549 16.3138 6.48941C17.3799 7.36334 18.2139 8.48675 18.7419 9.76009C19.2699 11.0334 19.4757 12.4174 19.341 13.7892C19.2062 15.1611 18.7351 16.4786 17.9694 17.6248C17.2038 18.7711 16.1671 19.7108 14.9514 20.3606C13.7357 21.0104 12.3785 21.3503 11 21.3501ZM5.77999 7.76009C4.57235 8.96702 3.82053 10.5553 3.65265 12.2544C3.48477 13.9535 3.9112 15.6583 4.8593 17.0782C5.80739 18.4981 7.21849 19.5454 8.85216 20.0416C10.4858 20.5378 12.241 20.4521 13.8186 19.7993C15.3963 19.1465 16.6988 17.9669 17.5042 16.4614C18.3096 14.956 18.5681 13.2178 18.2356 11.5431C17.9032 9.86846 17.0004 8.36084 15.681 7.27717C14.3617 6.19349 12.7074 5.60081 11 5.60009C9.0426 5.60036 7.16527 6.37719 5.77999 7.76009Z" fill="white"/>
<path d="M18.37 10.73C18.2381 10.7281 18.1123 10.6742 18.02 10.58C17.9277 10.4848 17.8762 10.3575 17.8762 10.225C17.8762 10.0925 17.9277 9.96515 18.02 9.87L20.17 7.72L16.31 3.86L14.19 6C14.1435 6.04686 14.0882 6.08406 14.0273 6.10944C13.9664 6.13483 13.901 6.1479 13.835 6.1479C13.769 6.1479 13.7036 6.13483 13.6427 6.10944C13.5818 6.08406 13.5265 6.04686 13.48 6C13.3884 5.90653 13.3371 5.78088 13.3371 5.65C13.3371 5.51912 13.3884 5.39346 13.48 5.3L16 2.8C16.0465 2.75313 16.1018 2.71594 16.1627 2.69055C16.2236 2.66517 16.289 2.6521 16.355 2.6521C16.421 2.6521 16.4864 2.66517 16.5473 2.69055C16.6082 2.71594 16.6635 2.75313 16.71 2.8L21.28 7.37C21.3269 7.41648 21.3641 7.47178 21.3894 7.53271C21.4148 7.59364 21.4279 7.65899 21.4279 7.725C21.4279 7.791 21.4148 7.85636 21.3894 7.91729C21.3641 7.97822 21.3269 8.03352 21.28 8.08L18.78 10.58C18.727 10.6338 18.6628 10.6751 18.5919 10.7011C18.521 10.727 18.4452 10.7369 18.37 10.73Z" fill="white"/>
</svg>
