<svg width="24" height="24" viewBox="0 0 24 24" fill="none" xmlns="http://www.w3.org/2000/svg">
<path d="M18.43 17.33H5.57C4.57809 17.33 3.62681 16.936 2.92542 16.2346C2.22404 15.5332 1.83 14.582 1.83 13.59V6.59005C1.82472 6.09508 1.91749 5.60396 2.10295 5.14501C2.28841 4.68607 2.5629 4.26839 2.91059 3.91605C3.25828 3.56372 3.67228 3.2837 4.12872 3.09216C4.58516 2.90062 5.075 2.80134 5.57 2.80005H18.43C19.4211 2.80269 20.3708 3.19757 21.0717 3.89839C21.7725 4.5992 22.1674 5.54895 22.17 6.54005V13.59C22.17 14.0812 22.0733 14.5675 21.8853 15.0213C21.6974 15.475 21.4219 15.8873 21.0746 16.2346C20.7273 16.5819 20.315 16.8574 19.8612 17.0454C19.4075 17.2333 18.9211 17.33 18.43 17.33ZM5.57 3.80005C4.84331 3.80005 4.14638 4.08873 3.63253 4.60258C3.11868 5.11643 2.83 5.81336 2.83 6.54005V13.59C2.83 14.3167 3.11868 15.0137 3.63253 15.5275C4.14638 16.0414 4.84331 16.33 5.57 16.33H18.43C19.1567 16.33 19.8536 16.0414 20.3675 15.5275C20.8813 15.0137 21.17 14.3167 21.17 13.59V6.59005C21.1766 6.22604 21.1107 5.86436 20.976 5.52613C20.8412 5.18791 20.6405 4.87992 20.3854 4.62017C20.1303 4.36042 19.826 4.15411 19.4902 4.0133C19.1545 3.87248 18.7941 3.79999 18.43 3.80005H5.57Z" fill="white"/>
<path d="M21.67 13.53H2.33C2.19819 13.5275 2.0725 13.474 1.97928 13.3808C1.88606 13.2875 1.83256 13.1618 1.83 13.03C1.83 12.8974 1.88268 12.7702 1.97645 12.6765C2.07022 12.5827 2.19739 12.53 2.33 12.53H21.67C21.8026 12.53 21.9298 12.5827 22.0236 12.6765C22.1173 12.7702 22.17 12.8974 22.17 13.03C22.17 13.1626 22.1173 13.2898 22.0236 13.3836C21.9298 13.4774 21.8026 13.53 21.67 13.53Z" fill="white"/>
<path d="M12 21.2001C11.8674 21.2001 11.7402 21.1474 11.6464 21.0536C11.5527 20.9599 11.5 20.8327 11.5 20.7001V16.8301C11.5 16.6975 11.5527 16.5703 11.6464 16.4765C11.7402 16.3828 11.8674 16.3301 12 16.3301C12.1326 16.3301 12.2598 16.3828 12.3536 16.4765C12.4473 16.5703 12.5 16.6975 12.5 16.8301V20.7001C12.5 20.8327 12.4473 20.9599 12.3536 21.0536C12.2598 21.1474 12.1326 21.2001 12 21.2001Z" fill="white"/>
<path d="M17.8 21.2001H6.2C6.06739 21.2001 5.94021 21.1474 5.84644 21.0536C5.75268 20.9599 5.7 20.8327 5.7 20.7001C5.7 20.5675 5.75268 20.4403 5.84644 20.3465C5.94021 20.2528 6.06739 20.2001 6.2 20.2001H17.8C17.9326 20.2001 18.0598 20.2528 18.1536 20.3465C18.2473 20.4403 18.3 20.5675 18.3 20.7001C18.3 20.8327 18.2473 20.9599 18.1536 21.0536C18.0598 21.1474 17.9326 21.2001 17.8 21.2001Z" fill="white"/>
</svg>
