<svg width="24" height="24" viewBox="0 0 24 24" fill="none" xmlns="http://www.w3.org/2000/svg">
<path d="M14.78 19.72H9.77996C8.06996 19.72 4.82996 18.86 4.82996 15.61C4.82996 12.36 8.06996 11.5 9.77996 11.5H14.22C14.38 11.5 18.22 11.45 18.22 8.39003C18.22 5.33003 14.43 5.28003 14.22 5.28003H9.21996C9.08815 5.27747 8.96245 5.22397 8.86924 5.13075C8.77602 5.03753 8.72252 4.91184 8.71996 4.78003C8.71996 4.64742 8.77263 4.52024 8.8664 4.42648C8.96017 4.33271 9.08735 4.28003 9.21996 4.28003H14.22C15.93 4.28003 19.22 5.14003 19.22 8.39003C19.22 11.64 15.98 12.5 14.22 12.5H9.77996C9.61996 12.5 5.82996 12.55 5.82996 15.61C5.82996 18.67 9.61996 18.72 9.77996 18.72H14.78C14.9118 18.7226 15.0375 18.7761 15.1307 18.8693C15.2239 18.9625 15.2774 19.0882 15.28 19.22C15.28 19.3526 15.2273 19.4798 15.1335 19.5736C15.0397 19.6673 14.9126 19.72 14.78 19.72Z" fill="white"/>
<path d="M6.43997 8.06C5.79125 8.06 5.1571 7.86763 4.6177 7.50722C4.07831 7.14681 3.65791 6.63454 3.40965 6.0352C3.16139 5.43586 3.09644 4.77636 3.223 4.14011C3.34956 3.50385 3.66195 2.91941 4.12066 2.46069C4.57938 2.00198 5.16382 1.68959 5.80008 1.56303C6.43634 1.43647 7.09583 1.50142 7.69518 1.74968C8.29452 1.99793 8.80678 2.41834 9.16719 2.95773C9.52761 3.49712 9.71997 4.13128 9.71997 4.78C9.71997 5.21074 9.63513 5.63726 9.4703 6.0352C9.30546 6.43315 9.06386 6.79474 8.75928 7.09931C8.45471 7.40389 8.09312 7.64549 7.69518 7.81033C7.29723 7.97516 6.87071 8.06 6.43997 8.06ZM6.43997 2.5C5.98903 2.5 5.54822 2.63372 5.17327 2.88425C4.79833 3.13478 4.5061 3.49087 4.33353 3.90748C4.16096 4.3241 4.11581 4.78253 4.20378 5.22481C4.29176 5.66708 4.50891 6.07334 4.82777 6.3922C5.14663 6.71107 5.55289 6.92822 5.99517 7.01619C6.43745 7.10417 6.89588 7.05901 7.31249 6.88645C7.72911 6.71388 8.0852 6.42165 8.33573 6.0467C8.58626 5.67176 8.71997 5.23094 8.71997 4.78C8.71997 4.17531 8.47976 3.59538 8.05218 3.1678C7.6246 2.74022 7.04467 2.5 6.43997 2.5Z" fill="white"/>
<path d="M17.56 22.5001C16.9108 22.502 16.2757 22.3113 15.735 21.9521C15.1943 21.5929 14.7723 21.0814 14.5225 20.4822C14.2727 19.883 14.2063 19.2232 14.3318 18.5863C14.4572 17.9494 14.7688 17.364 15.2271 16.9043C15.6854 16.4446 16.2698 16.1312 16.9064 16.0038C17.5429 15.8765 18.2029 15.9408 18.8028 16.1888C19.4028 16.4367 19.9156 16.8571 20.2765 17.3967C20.6373 17.9364 20.83 18.5709 20.83 19.22C20.83 20.0882 20.4858 20.921 19.8728 21.5358C19.2599 22.1507 18.4281 22.4974 17.56 22.5001ZM17.56 16.9401C17.1086 16.9381 16.6668 17.0701 16.2905 17.3194C15.9143 17.5688 15.6205 17.9241 15.4464 18.3406C15.2723 18.757 15.2257 19.2158 15.3126 19.6587C15.3994 20.1016 15.6158 20.5088 15.9342 20.8287C16.2527 21.1485 16.6589 21.3667 17.1015 21.4555C17.544 21.5443 18.003 21.4997 18.4202 21.3274C18.8374 21.1552 19.194 20.8629 19.445 20.4878C19.696 20.1126 19.83 19.6714 19.83 19.22C19.8274 18.6179 19.5877 18.041 19.1628 17.6143C18.738 17.1875 18.1621 16.9453 17.56 16.9401Z" fill="white"/>
</svg>
