<svg width="24" height="24" viewBox="0 0 24 24" fill="none" xmlns="http://www.w3.org/2000/svg">
<path d="M12 21.41C2.7 21.41 2.59 12.14 2.59 12.05V3.05005C2.59256 2.91824 2.64606 2.79255 2.73928 2.69933C2.8325 2.60611 2.95819 2.55261 3.09 2.55005H20.91C21.0418 2.55261 21.1675 2.60611 21.2607 2.69933C21.3539 2.79255 21.4074 2.91824 21.41 3.05005V12.05C21.41 12.14 21.3 21.41 12 21.41ZM3.59 3.59005V12.05C3.59 12.39 3.71 20.41 12 20.41C20.29 20.41 20.41 12.41 20.41 12.05V3.59005H3.59Z" fill="white"/>
</svg>
