<svg width="24" height="24" viewBox="0 0 24 24" fill="none" xmlns="http://www.w3.org/2000/svg">
<path d="M12 13.5C10.9122 13.5 9.84884 13.1774 8.94437 12.5731C8.0399 11.9687 7.33495 11.1098 6.91867 10.1048C6.50238 9.09977 6.39346 7.9939 6.60568 6.92701C6.8179 5.86011 7.34173 4.8801 8.11091 4.11092C8.8801 3.34173 9.86011 2.8179 10.927 2.60568C11.9939 2.39346 13.0998 2.50238 14.1048 2.91867C15.1098 3.33495 15.9687 4.0399 16.5731 4.94437C17.1774 5.84884 17.5 6.91221 17.5 8C17.4974 9.45788 16.917 10.8553 15.8862 11.8862C14.8553 12.917 13.4579 13.4974 12 13.5ZM12 3.5C11.11 3.5 10.24 3.76392 9.49994 4.25839C8.75992 4.75286 8.18314 5.45566 7.84254 6.27793C7.50195 7.10019 7.41284 8.00499 7.58647 8.87791C7.7601 9.75082 8.18869 10.5526 8.81802 11.182C9.44736 11.8113 10.2492 12.2399 11.1221 12.4135C11.995 12.5872 12.8998 12.4981 13.7221 12.1575C14.5443 11.8169 15.2471 11.2401 15.7416 10.5001C16.2361 9.76005 16.5 8.89002 16.5 8C16.4974 6.80734 16.0224 5.66428 15.1791 4.82094C14.3357 3.9776 13.1927 3.50264 12 3.5Z" fill="white"/>
<path d="M21 21.5C20.8674 21.5 20.7402 21.4473 20.6464 21.3536C20.5527 21.2598 20.5 21.1326 20.5 21C20.5 19.0109 19.7098 17.1032 18.3033 15.6967C16.8968 14.2902 14.9891 13.5 13 13.5H11C9.01088 13.5 7.10322 14.2902 5.6967 15.6967C4.29018 17.1032 3.5 19.0109 3.5 21C3.5 21.1326 3.44732 21.2598 3.35355 21.3536C3.25979 21.4473 3.13261 21.5 3 21.5C2.86739 21.5 2.74021 21.4473 2.64645 21.3536C2.55268 21.2598 2.5 21.1326 2.5 21C2.50265 18.7465 3.39903 16.586 4.99252 14.9925C6.586 13.399 8.74647 12.5026 11 12.5H13C15.2535 12.5026 17.414 13.399 19.0075 14.9925C20.601 16.586 21.4974 18.7465 21.5 21C21.5 21.1326 21.4473 21.2598 21.3536 21.3536C21.2598 21.4473 21.1326 21.5 21 21.5Z" fill="white"/>
</svg>
