<svg width="24" height="24" viewBox="0 0 24 24" fill="none" xmlns="http://www.w3.org/2000/svg">
<path d="M8.29999 20.88C7.86754 20.8745 7.44385 20.7574 7.06999 20.54C6.65443 20.3054 6.31713 19.9537 6.10018 19.5287C5.88322 19.1036 5.79621 18.6241 5.84999 18.15L5.99999 16.43C6.03287 16.1226 5.96731 15.8126 5.81276 15.5449C5.6582 15.2771 5.42263 15.0653 5.13999 14.94L3.59999 14.25C3.16398 14.0573 2.79336 13.742 2.53319 13.3426C2.27303 12.9431 2.13452 12.4767 2.13452 12C2.13452 11.5233 2.27303 11.0569 2.53319 10.6574C2.79336 10.258 3.16398 9.94271 3.59999 9.74999L5.17999 9.05999C5.45519 8.92842 5.68227 8.71395 5.82934 8.44671C5.97641 8.17947 6.03609 7.87288 5.99999 7.56999L5.84999 5.84999C5.80289 5.37698 5.89328 4.90043 6.1103 4.47753C6.32733 4.05462 6.66178 3.70332 7.07352 3.46578C7.48525 3.22824 7.95679 3.11455 8.43154 3.13835C8.90628 3.16216 9.36408 3.32245 9.74999 3.59999L11.14 4.59999C11.3885 4.78505 11.6901 4.885 12 4.885C12.3099 4.885 12.6115 4.78505 12.86 4.59999L14.25 3.59999C14.6359 3.32245 15.0937 3.16216 15.5684 3.13835C16.0432 3.11455 16.5147 3.22824 16.9265 3.46578C17.3382 3.70332 17.6726 4.05462 17.8897 4.47753C18.1067 4.90043 18.1971 5.37698 18.15 5.84999L18 7.56999C17.9671 7.87741 18.0327 8.18734 18.1872 8.45511C18.3418 8.72289 18.5773 8.93468 18.86 9.05999L20.44 9.74999C20.876 9.94271 21.2466 10.258 21.5068 10.6574C21.7669 11.0569 21.9055 11.5233 21.9055 12C21.9055 12.4767 21.7669 12.9431 21.5068 13.3426C21.2466 13.742 20.876 14.0573 20.44 14.25L18.86 14.94C18.5773 15.0653 18.3418 15.2771 18.1872 15.5449C18.0327 15.8126 17.9671 16.1226 18 16.43L18.19 18.15C18.2371 18.623 18.1467 19.0995 17.9297 19.5225C17.7126 19.9454 17.3782 20.2967 16.9665 20.5342C16.5547 20.7717 16.0832 20.8854 15.6084 20.8616C15.1337 20.8378 14.6759 20.6775 14.29 20.4L12.9 19.4C12.6515 19.2149 12.3499 19.115 12.04 19.115C11.7301 19.115 11.4285 19.2149 11.18 19.4L9.78999 20.4C9.35687 20.7141 8.83502 20.8822 8.29999 20.88ZM8.29999 4.12999C8.03991 4.12956 7.78444 4.1986 7.55999 4.32999C7.31263 4.46595 7.11178 4.67302 6.98341 4.9244C6.85505 5.17578 6.80508 5.4599 6.83999 5.73999L6.99999 7.45999C7.06585 7.97954 6.9635 8.50652 6.70794 8.96365C6.45238 9.42077 6.05707 9.78398 5.57999 9.99999L3.99999 10.67C3.74079 10.7826 3.52013 10.9684 3.36513 11.2047C3.21014 11.441 3.12757 11.7174 3.12757 12C3.12757 12.2826 3.21014 12.559 3.36513 12.7953C3.52013 13.0316 3.74079 13.2174 3.99999 13.33L5.56999 14.03C6.04355 14.2429 6.43725 14.6007 6.69427 15.0518C6.95129 15.5029 7.05835 16.0241 6.99999 16.54L6.80999 18.26C6.77508 18.5401 6.82505 18.8242 6.95341 19.0756C7.08178 19.327 7.28263 19.534 7.52999 19.67C7.7731 19.8157 8.05405 19.886 8.33715 19.8717C8.62025 19.8575 8.89273 19.7594 9.11999 19.59L10.51 18.59C10.9292 18.2783 11.4376 18.11 11.96 18.11C12.4824 18.11 12.9908 18.2783 13.41 18.59L14.8 19.59C15.0283 19.757 15.3005 19.8535 15.583 19.8677C15.8655 19.8819 16.146 19.8132 16.39 19.67C16.6373 19.534 16.8382 19.327 16.9666 19.0756C17.0949 18.8242 17.1449 18.5401 17.11 18.26L17 16.54C16.9341 16.0204 17.0365 15.4935 17.292 15.0363C17.5476 14.5792 17.9429 14.216 18.42 14L19.99 13.3C20.2492 13.1874 20.4698 13.0016 20.6248 12.7653C20.7798 12.529 20.8624 12.2526 20.8624 11.97C20.8624 11.6874 20.7798 11.411 20.6248 11.1747C20.4698 10.9384 20.2492 10.7526 19.99 10.64L18.42 9.99999C17.9429 9.78398 17.5476 9.42077 17.292 8.96365C17.0365 8.50652 16.9341 7.97954 17 7.45999L17.19 5.73999C17.2249 5.4599 17.1749 5.17578 17.0466 4.9244C16.9182 4.67302 16.7173 4.46595 16.47 4.32999C16.226 4.18678 15.9455 4.11805 15.663 4.13226C15.3805 4.14648 15.1083 4.24302 14.88 4.40999L13.49 5.40999C13.0689 5.71721 12.5612 5.88275 12.04 5.88275C11.5188 5.88275 11.011 5.71721 10.59 5.40999L9.19999 4.40999C8.94193 4.22182 8.62929 4.12347 8.30999 4.12999H8.29999Z" fill="white"/>
<path d="M12 14.9399C11.4185 14.9399 10.8501 14.7675 10.3666 14.4445C9.88314 14.1214 9.50631 13.6622 9.28379 13.125C9.06127 12.5878 9.00305 11.9967 9.11649 11.4264C9.22993 10.8561 9.50994 10.3322 9.92111 9.92104C10.3323 9.50988 10.8561 9.22987 11.4264 9.11643C11.9967 9.00299 12.5879 9.06121 13.1251 9.28373C13.6623 9.50625 14.1215 9.88308 14.4445 10.3666C14.7676 10.85 14.94 11.4185 14.94 11.9999C14.94 12.7797 14.6302 13.5275 14.0789 14.0788C13.5275 14.6302 12.7797 14.9399 12 14.9399ZM12 10.0599C11.6163 10.0599 11.2412 10.1737 10.9222 10.3869C10.6032 10.6001 10.3545 10.903 10.2077 11.2575C10.0608 11.612 10.0224 12.0021 10.0973 12.3784C10.1721 12.7547 10.3569 13.1004 10.6282 13.3717C10.8995 13.643 11.2452 13.8278 11.6215 13.9027C11.9978 13.9775 12.3879 13.9391 12.7424 13.7923C13.0969 13.6454 13.3999 13.3968 13.613 13.0777C13.8262 12.7587 13.94 12.3836 13.94 11.9999C13.94 11.4854 13.7356 10.992 13.3718 10.6282C13.008 10.2643 12.5145 10.0599 12 10.0599Z" fill="white"/>
</svg>
