<svg width="24" height="24" viewBox="0 0 24 24" fill="none" xmlns="http://www.w3.org/2000/svg">
<path d="M6.94 11.3602C6.21019 11.3602 5.49676 11.1438 4.88995 10.7383C4.28313 10.3329 3.81017 9.75659 3.53088 9.08233C3.2516 8.40807 3.17852 7.66613 3.3209 6.95034C3.46328 6.23455 3.81472 5.57706 4.33078 5.061C4.84683 4.54495 5.50433 4.19351 6.22012 4.05113C6.93591 3.90875 7.67784 3.98182 8.3521 4.26111C9.02636 4.5404 9.60266 5.01335 10.0081 5.62017C10.4136 6.22699 10.63 6.94041 10.63 7.67023C10.63 8.1548 10.5346 8.63464 10.3491 9.08233C10.1637 9.53002 9.89187 9.9368 9.54922 10.2795C9.20658 10.6221 8.79979 10.8939 8.3521 11.0793C7.90441 11.2648 7.42458 11.3602 6.94 11.3602ZM6.94 5.00023C6.40712 5.00024 5.88625 5.15852 5.44346 5.455C5.00067 5.75147 4.65591 6.17278 4.45291 6.66548C4.24991 7.15818 4.19782 7.70007 4.30324 8.22242C4.40867 8.74477 4.66686 9.22403 5.04507 9.59943C5.42327 9.97482 5.90445 10.2294 6.42757 10.331C6.95069 10.4325 7.49218 10.3763 7.98335 10.1697C8.47452 9.96301 8.89325 9.61511 9.18641 9.17012C9.47957 8.72513 9.63396 8.20309 9.63 7.67023C9.62869 7.31828 9.55807 6.97004 9.42217 6.64539C9.28628 6.32074 9.08777 6.02604 8.83798 5.7781C8.58819 5.53017 8.29201 5.33387 7.96636 5.2004C7.6407 5.06693 7.29194 4.99891 6.94 5.00023Z" fill="white"/>
<path d="M17.06 11.2601C16.3293 11.2621 15.6145 11.0471 15.0062 10.6424C14.3978 10.2377 13.9233 9.66151 13.6428 8.98684C13.3623 8.31218 13.2884 7.56941 13.4304 6.85269C13.5725 6.13597 13.9241 5.47756 14.4408 4.9609C14.9574 4.44425 15.6159 4.09261 16.3326 3.95054C17.0493 3.80848 17.7921 3.8824 18.4667 4.16293C19.1414 4.44345 19.7176 4.91796 20.1223 5.52631C20.527 6.13465 20.742 6.84945 20.74 7.58012C20.7374 8.5553 20.3488 9.48979 19.6592 10.1794C18.9697 10.8689 18.0352 11.2575 17.06 11.2601ZM17.06 4.89012C16.5275 4.88814 16.0065 5.04422 15.5628 5.33859C15.1191 5.63297 14.7728 6.05239 14.5676 6.54375C14.3625 7.0351 14.3078 7.57629 14.4105 8.09875C14.5131 8.62122 14.7685 9.10146 15.1443 9.47867C15.5201 9.85587 15.9994 10.1131 16.5215 10.2177C17.0436 10.3223 17.585 10.2696 18.0771 10.0663C18.5692 9.86299 18.9899 9.51821 19.286 9.07563C19.582 8.63305 19.74 8.11257 19.74 7.58012C19.7374 6.86922 19.4545 6.18803 18.9528 5.68441C18.451 5.18079 17.7709 4.89538 17.06 4.89012Z" fill="white"/>
<path d="M6.94 21.3702C6.21019 21.3702 5.49676 21.1538 4.88995 20.7484C4.28313 20.3429 3.81017 19.7666 3.53088 19.0923C3.2516 18.4181 3.17852 17.6761 3.3209 16.9604C3.46328 16.2446 3.81472 15.5871 4.33078 15.071C4.84683 14.555 5.50433 14.2035 6.22012 14.0611C6.93591 13.9188 7.67784 13.9918 8.3521 14.2711C9.02636 14.5504 9.60266 15.0234 10.0081 15.6302C10.4136 16.237 10.63 16.9504 10.63 17.6802C10.63 18.1648 10.5346 18.6446 10.3491 19.0923C10.1637 19.54 9.89187 19.9468 9.54922 20.2895C9.20658 20.6321 8.79979 20.9039 8.3521 21.0894C7.90441 21.2748 7.42458 21.3702 6.94 21.3702ZM6.94 15.0002C6.40754 15.0002 5.88706 15.1583 5.44448 15.4543C5.0019 15.7503 4.65712 16.171 4.45382 16.6631C4.25052 17.1553 4.19783 17.6966 4.30244 18.2187C4.40705 18.7408 4.66424 19.2201 5.04145 19.5959C5.41865 19.9717 5.8989 20.2271 6.42136 20.3298C6.94383 20.4324 7.48501 20.3777 7.97637 20.1726C8.46772 19.9675 8.88715 19.6211 9.18152 19.1774C9.4759 18.7338 9.63198 18.2127 9.63 17.6802C9.63 17.3275 9.56035 16.9781 9.42504 16.6523C9.28974 16.3265 9.09143 16.0306 8.84151 15.7816C8.59159 15.5327 8.29497 15.3355 7.96866 15.2014C7.64235 15.0673 7.29278 14.9989 6.94 15.0002Z" fill="white"/>
<path d="M17.06 21.2701C16.3293 21.2721 15.6145 21.0571 15.0062 20.6524C14.3978 20.2477 13.9233 19.6715 13.6428 18.9969C13.3623 18.3222 13.2884 17.5794 13.4304 16.8627C13.5725 16.146 13.9241 15.4876 14.4408 14.9709C14.9574 14.4543 15.6159 14.1026 16.3326 13.9606C17.0493 13.8185 17.7921 13.8924 18.4667 14.1729C19.1414 14.4535 19.7176 14.928 20.1223 15.5363C20.527 16.1447 20.742 16.8595 20.74 17.5901C20.7374 18.5653 20.3488 19.4998 19.6592 20.1894C18.9697 20.8789 18.0352 21.2675 17.06 21.2701ZM17.06 14.9001C16.5275 14.8981 16.0065 15.0542 15.5628 15.3486C15.1191 15.643 14.7728 16.0624 14.5676 16.5538C14.3625 17.0451 14.3078 17.5863 14.4105 18.1088C14.5131 18.6312 14.7685 19.1115 15.1443 19.4887C15.5201 19.8659 15.9994 20.1231 16.5215 20.2277C17.0436 20.3323 17.585 20.2796 18.0771 20.0763C18.5692 19.873 18.9899 19.5282 19.286 19.0856C19.582 18.6431 19.74 18.1226 19.74 17.5901C19.7374 16.8792 19.4545 16.198 18.9528 15.6944C18.451 15.1908 17.7709 14.9054 17.06 14.9001Z" fill="white"/>
</svg>
