<svg width="24" height="24" viewBox="0 0 24 24" fill="none" xmlns="http://www.w3.org/2000/svg">
<path d="M11.55 18.21C11.4149 18.2097 11.2854 18.1557 11.19 18.06L5.49 12.36C5.39775 12.2649 5.34616 12.1375 5.34616 12.005C5.34616 11.8725 5.39775 11.7452 5.49 11.65L13.89 3.15001C13.9369 3.10216 13.9929 3.06423 14.0548 3.03846C14.1166 3.01269 14.183 2.99962 14.25 3.00001H20C20.1326 3.00001 20.2598 3.05269 20.3536 3.14646C20.4473 3.24022 20.5 3.3674 20.5 3.50001L20.57 9.17001C20.5697 9.30514 20.5157 9.43462 20.42 9.53001L11.9 18.06C11.8546 18.1071 11.8003 18.1446 11.7402 18.1704C11.6801 18.1962 11.6154 18.2096 11.55 18.21ZM6.55 12L11.55 17L19.55 9.00001L19.5 4.00001H14.45L6.55 12Z" fill="white"/>
<path d="M14.35 21.0001C14.2168 20.9994 14.0886 20.9495 13.99 20.8601L2.7 9.57006C2.60775 9.47491 2.55616 9.34758 2.55616 9.21506C2.55616 9.08253 2.60775 8.95521 2.7 8.86006C2.74648 8.81319 2.80178 8.776 2.86271 8.75061C2.92364 8.72523 2.98899 8.71216 3.055 8.71216C3.121 8.71216 3.18636 8.72523 3.24729 8.75061C3.30822 8.776 3.36352 8.81319 3.41 8.86006L14.7 20.1501C14.7469 20.1965 14.7841 20.2518 14.8094 20.3128C14.8348 20.3737 14.8479 20.4391 14.8479 20.5051C14.8479 20.5711 14.8348 20.6364 14.8094 20.6973C14.7841 20.7583 14.7469 20.8136 14.7 20.8601C14.6039 20.9473 14.4797 20.9969 14.35 21.0001Z" fill="white"/>
<path d="M6.5 20.94C6.4346 20.9396 6.36994 20.9262 6.30983 20.9004C6.24972 20.8746 6.19538 20.8371 6.15 20.79L2.73 17.37C2.6814 17.3216 2.64306 17.2639 2.61729 17.2003C2.59151 17.1367 2.57883 17.0686 2.58 17C2.58 16.73 2.58 16.69 6.58 12.76C6.67548 12.6672 6.80392 12.6161 6.93707 12.618C7.07022 12.6198 7.19717 12.6745 7.29 12.77C7.38283 12.8655 7.43392 12.9939 7.43205 13.1271C7.43017 13.2602 7.37548 13.3872 7.28 13.48C6.19 14.59 4.45 16.3 3.77 17L6.5 19.73L10 16.19C10.0935 16.0984 10.2191 16.0471 10.35 16.0471C10.4809 16.0471 10.6065 16.0984 10.7 16.19C10.7469 16.2365 10.7841 16.2918 10.8094 16.3527C10.8348 16.4137 10.8479 16.479 10.8479 16.545C10.8479 16.611 10.8348 16.6764 10.8094 16.7373C10.7841 16.7982 10.7469 16.8535 10.7 16.9L6.86 20.79C6.76461 20.8857 6.63513 20.9397 6.5 20.94Z" fill="white"/>
</svg>
