<svg width="24" height="24" viewBox="0 0 24 24" fill="none" xmlns="http://www.w3.org/2000/svg">
<path d="M16 21.49H8.00001C7.8674 21.49 7.74023 21.4373 7.64646 21.3436C7.55269 21.2498 7.50001 21.1226 7.50001 20.99V11.49L4.00001 11.52C3.90229 11.5107 3.80834 11.4776 3.72639 11.4236C3.64445 11.3695 3.57702 11.2962 3.53001 11.21C3.49507 11.1172 3.48685 11.0165 3.50629 10.9193C3.52574 10.822 3.57207 10.7322 3.64001 10.66L11.64 2.66002C11.7335 2.5684 11.8591 2.51709 11.99 2.51709C12.1209 2.51709 12.2465 2.5684 12.34 2.66002L20.34 10.66C20.4129 10.727 20.4627 10.8152 20.4825 10.9122C20.5022 11.0092 20.4909 11.1099 20.45 11.2C20.4125 11.2913 20.3488 11.3695 20.2669 11.4247C20.1851 11.4798 20.0887 11.5095 19.99 11.51H16.46V21C16.4579 21.1242 16.4097 21.2432 16.3246 21.3338C16.2396 21.4244 16.1239 21.4801 16 21.49ZM8.50001 20.49H15.5V11C15.5 10.8674 15.5527 10.7402 15.6465 10.6465C15.7402 10.5527 15.8674 10.5 16 10.5H18.83L12 3.72002L5.23001 10.51H7.96001C8.02622 10.504 8.0929 10.5145 8.15401 10.5407C8.21512 10.5669 8.26874 10.6079 8.31001 10.66C8.35805 10.7047 8.39621 10.7589 8.42205 10.8191C8.44788 10.8794 8.46081 10.9444 8.46001 11.01L8.50001 20.49Z" fill="white"/>
</svg>
