<svg width="24" height="24" viewBox="0 0 24 24" fill="none" xmlns="http://www.w3.org/2000/svg">
<path d="M9.31998 15.33C9.19885 15.3198 9.08536 15.2666 8.99998 15.18C8.90837 15.0866 8.85706 14.9609 8.85706 14.83C8.85706 14.6991 8.90837 14.5735 8.99998 14.48L14.66 8.82002C14.7065 8.77315 14.7618 8.73596 14.8227 8.71057C14.8836 8.68519 14.949 8.67212 15.015 8.67212C15.081 8.67212 15.1463 8.68519 15.2073 8.71057C15.2682 8.73596 15.3235 8.77315 15.37 8.82002C15.4616 8.91348 15.5129 9.03914 15.5129 9.17002C15.5129 9.30089 15.4616 9.42655 15.37 9.52002L9.66998 15.18C9.57767 15.2742 9.45187 15.3281 9.31998 15.33Z" fill="white"/>
<path d="M15 15.33C14.9346 15.3296 14.8699 15.3162 14.8098 15.2904C14.7497 15.2646 14.6954 15.2271 14.65 15.18L8.99998 9.52002C8.90837 9.42655 8.85706 9.30089 8.85706 9.17002C8.85706 9.03914 8.90837 8.91348 8.99998 8.82002C9.04647 8.77315 9.10177 8.73596 9.1627 8.71057C9.22363 8.68519 9.28898 8.67212 9.35498 8.67212C9.42099 8.67212 9.48634 8.68519 9.54727 8.71057C9.6082 8.73596 9.6635 8.77315 9.70998 8.82002L15.37 14.48C15.4616 14.5735 15.5129 14.6991 15.5129 14.83C15.5129 14.9609 15.4616 15.0866 15.37 15.18C15.3216 15.2286 15.2638 15.267 15.2003 15.2927C15.1367 15.3185 15.0686 15.3312 15 15.33Z" fill="white"/>
<path d="M12.14 21.45C12.0518 21.4506 11.9651 21.4263 11.89 21.38L4.14001 16.91C4.06432 16.864 4.00163 16.7994 3.95788 16.7224C3.91413 16.6454 3.89077 16.5585 3.89001 16.47V7.52997C3.89077 7.44141 3.91413 7.3545 3.95788 7.2775C4.00163 7.2005 4.06432 7.13595 4.14001 7.08997L11.89 2.61997C11.966 2.57608 12.0522 2.55298 12.14 2.55298C12.2278 2.55298 12.314 2.57608 12.39 2.61997L20.14 7.08997C20.2171 7.13444 20.2808 7.19866 20.3248 7.276C20.3687 7.35335 20.3913 7.44102 20.39 7.52997V16.47C20.3913 16.5589 20.3687 16.6466 20.3248 16.7239C20.2808 16.8013 20.2171 16.8655 20.14 16.91L12.39 21.38C12.3159 21.4285 12.2286 21.4529 12.14 21.45ZM4.89001 16.19L12.14 20.37L19.39 16.19V7.80997L12.14 3.62997L4.89001 7.80997V16.19Z" fill="white"/>
</svg>
