<svg width="24" height="24" viewBox="0 0 24 24" fill="none" xmlns="http://www.w3.org/2000/svg">
<path d="M17 20.5H7C6.07174 20.5 5.1815 20.1313 4.52513 19.4749C3.86875 18.8185 3.5 17.9283 3.5 17V7C3.5 6.07174 3.86875 5.1815 4.52513 4.52513C5.1815 3.86875 6.07174 3.5 7 3.5H17C17.9283 3.5 18.8185 3.86875 19.4749 4.52513C20.1313 5.1815 20.5 6.07174 20.5 7V17C20.5 17.9283 20.1313 18.8185 19.4749 19.4749C18.8185 20.1313 17.9283 20.5 17 20.5ZM7 4.5C6.33696 4.5 5.70107 4.76339 5.23223 5.23223C4.76339 5.70107 4.5 6.33696 4.5 7V17C4.5 17.663 4.76339 18.2989 5.23223 18.7678C5.70107 19.2366 6.33696 19.5 7 19.5H17C17.663 19.5 18.2989 19.2366 18.7678 18.7678C19.2366 18.2989 19.5 17.663 19.5 17V7C19.5 6.33696 19.2366 5.70107 18.7678 5.23223C18.2989 4.76339 17.663 4.5 17 4.5H7Z" fill="white"/>
<path d="M12 17.5C11.8649 17.4997 11.7354 17.4457 11.64 17.35C11.5495 17.2561 11.4992 17.1305 11.5 17C11.4904 16.937 11.4904 16.873 11.5 16.81C11.5283 16.7514 11.5654 16.6974 11.61 16.65C11.6809 16.5799 11.7708 16.5321 11.8685 16.5126C11.9663 16.493 12.0676 16.5026 12.16 16.54C12.2212 16.5637 12.276 16.6013 12.32 16.65C12.3676 16.6949 12.4051 16.7494 12.43 16.81C12.4393 16.873 12.4393 16.937 12.43 17C12.4271 17.1316 12.3733 17.2571 12.28 17.35C12.2059 17.4297 12.1074 17.4825 12 17.5Z" fill="white"/>
<path d="M14.5 13.5H9.5C8.70435 13.5 7.94129 13.1839 7.37868 12.6213C6.81607 12.0587 6.5 11.2956 6.5 10.5C6.5 9.70435 6.81607 8.94129 7.37868 8.37868C7.94129 7.81607 8.70435 7.5 9.5 7.5H14.5C15.2956 7.5 16.0587 7.81607 16.6213 8.37868C17.1839 8.94129 17.5 9.70435 17.5 10.5C17.5 11.2956 17.1839 12.0587 16.6213 12.6213C16.0587 13.1839 15.2956 13.5 14.5 13.5ZM9.5 8.5C8.96957 8.5 8.46086 8.71071 8.08579 9.08579C7.71071 9.46086 7.5 9.96957 7.5 10.5C7.5 11.0304 7.71071 11.5391 8.08579 11.9142C8.46086 12.2893 8.96957 12.5 9.5 12.5H14.5C15.0304 12.5 15.5391 12.2893 15.9142 11.9142C16.2893 11.5391 16.5 11.0304 16.5 10.5C16.5 9.96957 16.2893 9.46086 15.9142 9.08579C15.5391 8.71071 15.0304 8.5 14.5 8.5H9.5Z" fill="white"/>
</svg>
