<svg width="24" height="24" viewBox="0 0 24 24" fill="none" xmlns="http://www.w3.org/2000/svg">
<path d="M19.5 20.23H3.5C3.10218 20.23 2.72064 20.0719 2.43934 19.7906C2.15804 19.5093 2 19.1278 2 18.73V14.73C2 14.3322 2.15804 13.9506 2.43934 13.6693C2.72064 13.388 3.10218 13.23 3.5 13.23H19.5C19.8978 13.23 20.2794 13.388 20.5607 13.6693C20.842 13.9506 21 14.3322 21 14.73V18.73C21 19.1278 20.842 19.5093 20.5607 19.7906C20.2794 20.0719 19.8978 20.23 19.5 20.23ZM3.5 14.23C3.36739 14.23 3.24021 14.2827 3.14645 14.3764C3.05268 14.4702 3 14.5974 3 14.73V18.73C3 18.8626 3.05268 18.9898 3.14645 19.0835C3.24021 19.1773 3.36739 19.23 3.5 19.23H19.5C19.6326 19.23 19.7598 19.1773 19.8536 19.0835C19.9473 18.9898 20 18.8626 20 18.73V14.73C20 14.5974 19.9473 14.4702 19.8536 14.3764C19.7598 14.2827 19.6326 14.23 19.5 14.23H3.5Z" fill="white"/>
<path d="M8.5 17.23H6.5C6.36739 17.23 6.24021 17.1773 6.14645 17.0835C6.05268 16.9898 6 16.8626 6 16.73C6 16.5974 6.05268 16.4702 6.14645 16.3764C6.24021 16.2827 6.36739 16.23 6.5 16.23H8.5C8.63261 16.23 8.75979 16.2827 8.85355 16.3764C8.94732 16.4702 9 16.5974 9 16.73C9 16.8626 8.94732 16.9898 8.85355 17.0835C8.75979 17.1773 8.63261 17.23 8.5 17.23Z" fill="white"/>
<path d="M15.72 14.23C15.6548 14.23 15.5902 14.217 15.5301 14.1918C15.47 14.1665 15.4155 14.1296 15.3699 14.083C15.3243 14.0364 15.2884 13.9812 15.2644 13.9206C15.2403 13.86 15.2286 13.7952 15.23 13.73V10.73C15.2285 10.6631 15.2408 10.5966 15.2661 10.5347C15.2914 10.4727 15.329 10.4166 15.3768 10.3697C15.4246 10.3229 15.4815 10.2863 15.5439 10.2623C15.6064 10.2383 15.6731 10.2273 15.74 10.23C15.8709 10.2376 15.9942 10.2943 16.085 10.3889C16.1759 10.4835 16.2277 10.6089 16.23 10.74V13.74C16.2287 13.8057 16.2144 13.8705 16.1881 13.9306C16.1618 13.9908 16.1238 14.0452 16.0765 14.0907C16.0291 14.1362 15.9733 14.1719 15.9121 14.1958C15.8509 14.2197 15.7856 14.2314 15.72 14.23Z" fill="white"/>
<path d="M18.24 9.23C18.1543 9.22528 18.0714 9.19765 18 9.15C15.37 7.4 13.65 9.07001 13.63 9.09001C13.5365 9.18162 13.4109 9.23293 13.28 9.23293C13.1491 9.23293 13.0235 9.18162 12.93 9.09001C12.8831 9.04352 12.8459 8.98822 12.8206 8.92729C12.7952 8.86636 12.7821 8.80101 12.7821 8.735C12.7821 8.669 12.7952 8.60365 12.8206 8.54272C12.8459 8.48179 12.8831 8.42649 12.93 8.38001C12.93 8.38001 15.26 6.12 18.56 8.32C18.6468 8.3806 18.7122 8.46719 18.7467 8.5673C18.7811 8.66742 18.7829 8.77589 18.7518 8.87709C18.7206 8.97828 18.6582 9.06699 18.5734 9.13041C18.4886 9.19383 18.3859 9.22871 18.28 9.23H18.24Z" fill="white"/>
<path d="M21.5 6.81002C21.4007 6.81299 21.3028 6.78503 21.22 6.73002C14.73 2.40002 10.38 6.62002 10.33 6.67002C10.2366 6.76163 10.1109 6.81294 9.98002 6.81294C9.84914 6.81294 9.72348 6.76163 9.63002 6.67002C9.58315 6.62353 9.54596 6.56823 9.52057 6.5073C9.49519 6.44637 9.48212 6.38102 9.48212 6.31502C9.48212 6.24901 9.49519 6.18366 9.52057 6.12273C9.54596 6.0618 9.58315 6.0065 9.63002 5.96002C9.63002 5.96002 14.63 1.12002 21.78 5.90002C21.8668 5.96061 21.9322 6.0472 21.9667 6.14731C22.0011 6.24743 22.0029 6.3559 21.9718 6.4571C21.9406 6.55829 21.8782 6.647 21.7934 6.71042C21.7086 6.77384 21.6059 6.80872 21.5 6.81002Z" fill="white"/>
</svg>
