<svg width="24" height="24" viewBox="0 0 24 24" fill="none" xmlns="http://www.w3.org/2000/svg">
<path d="M7.76002 20.74C6.87058 20.7392 6.00132 20.4749 5.26203 19.9804C4.52273 19.4858 3.94657 18.7833 3.6063 17.9615C3.26603 17.1398 3.17692 16.2356 3.35023 15.3632C3.52354 14.4908 3.95148 13.6893 4.58002 13.06L6.00002 11.65C6.0465 11.6031 6.1018 11.5659 6.16273 11.5406C6.22366 11.5152 6.28902 11.5021 6.35502 11.5021C6.42103 11.5021 6.48638 11.5152 6.54731 11.5406C6.60824 11.5659 6.66354 11.6031 6.71002 11.65C6.80163 11.7435 6.85295 11.8691 6.85295 12C6.85295 12.1309 6.80163 12.2565 6.71002 12.35L5.28002 13.77C4.62601 14.4277 4.25889 15.3175 4.25889 16.245C4.25889 17.1725 4.62601 18.0623 5.28002 18.72C5.9499 19.37 6.84661 19.7336 7.78002 19.7336C8.71343 19.7336 9.61014 19.37 10.28 18.72L13.11 15.89C13.4439 15.5648 13.7092 15.1761 13.8903 14.7467C14.0715 14.3173 14.1648 13.856 14.1648 13.39C14.1648 12.924 14.0715 12.4627 13.8903 12.0333C13.7092 11.6039 13.4439 11.2152 13.11 10.89C13.0159 10.7959 12.963 10.6682 12.963 10.535C12.963 10.4019 13.0159 10.2742 13.11 10.18C13.2042 10.0859 13.3319 10.033 13.465 10.033C13.5982 10.033 13.7259 10.0859 13.82 10.18C14.6609 11.0267 15.1328 12.1717 15.1328 13.365C15.1328 14.5583 14.6609 15.7033 13.82 16.55L10.99 19.37C10.5719 19.8044 10.0701 20.1497 9.51505 20.3852C8.95996 20.6206 8.36298 20.7413 7.76002 20.74Z" fill="white"/>
<path d="M10.59 13.91C10.5237 13.9117 10.4578 13.9002 10.396 13.8761C10.3342 13.8521 10.2778 13.816 10.23 13.77C9.81127 13.352 9.47904 12.8555 9.25236 12.309C9.02568 11.7625 8.909 11.1766 8.909 10.585C8.909 9.99329 9.02568 9.40743 9.25236 8.86091C9.47904 8.31438 9.81127 7.81793 10.23 7.39995L13.06 4.57995C13.472 4.13783 13.9688 3.78322 14.5208 3.53727C15.0728 3.29132 15.6687 3.15907 16.2729 3.14841C16.8771 3.13774 17.4773 3.24889 18.0376 3.47522C18.598 3.70154 19.107 4.03841 19.5343 4.46572C19.9616 4.89304 20.2984 5.40204 20.5248 5.96237C20.7511 6.5227 20.8622 7.12287 20.8516 7.72709C20.8409 8.33131 20.7087 8.92719 20.4627 9.47918C20.2168 10.0312 19.8622 10.528 19.42 10.94L18 12.35C17.9536 12.3968 17.8983 12.434 17.8373 12.4594C17.7764 12.4848 17.711 12.4979 17.645 12.4979C17.579 12.4979 17.5137 12.4848 17.4527 12.4594C17.3918 12.434 17.3365 12.3968 17.29 12.35C17.1984 12.2565 17.1471 12.1308 17.1471 12C17.1471 11.8691 17.1984 11.7434 17.29 11.65L18.71 10.23C19.3641 9.57227 19.7312 8.68247 19.7312 7.75495C19.7312 6.82744 19.3641 5.93763 18.71 5.27995C18.0426 4.64472 17.1565 4.29043 16.235 4.29043C15.3136 4.29043 14.4275 4.64472 13.76 5.27995L10.94 8.10995C10.6062 8.43513 10.3409 8.82387 10.1597 9.25324C9.97855 9.68262 9.88522 10.1439 9.88522 10.61C9.88522 11.076 9.97855 11.5373 10.1597 11.9667C10.3409 12.396 10.6062 12.7848 10.94 13.11C11.0086 13.1798 11.0551 13.2683 11.0738 13.3644C11.0925 13.4604 11.0826 13.5599 11.0454 13.6504C11.0081 13.7409 10.9451 13.8185 10.8641 13.8735C10.7832 13.9285 10.6879 13.9586 10.59 13.96V13.91Z" fill="white"/>
</svg>
