<svg width="24" height="24" viewBox="0 0 24 24" fill="none" xmlns="http://www.w3.org/2000/svg">
<path d="M6.18002 12.6401C6.04489 12.6398 5.91541 12.5858 5.82002 12.4901C5.77551 12.4446 5.74139 12.3901 5.72002 12.3301C5.70514 12.2677 5.70514 12.2026 5.72002 12.1401C5.71924 12.0097 5.76948 11.8841 5.86002 11.7901C5.93091 11.72 6.02079 11.6723 6.11854 11.6527C6.21629 11.6332 6.31763 11.6427 6.41002 11.6801C6.47121 11.7038 6.52601 11.7415 6.57002 11.7901C6.66333 11.883 6.71708 12.0085 6.72002 12.1401C6.73046 12.203 6.73046 12.2672 6.72002 12.3301C6.69516 12.3907 6.65765 12.4452 6.61002 12.4901C6.56601 12.5388 6.51121 12.5765 6.45002 12.6001C6.36675 12.6424 6.27198 12.6565 6.18002 12.6401Z" fill="white"/>
<path d="M12 12.51C11.8649 12.5097 11.7354 12.4558 11.64 12.36C11.594 12.3123 11.5579 12.2559 11.5339 12.1941C11.5098 12.1323 11.4983 12.0663 11.5 12C11.4896 11.9371 11.4896 11.8729 11.5 11.81C11.5308 11.7498 11.5677 11.6928 11.61 11.64C11.6827 11.5727 11.773 11.5276 11.8704 11.5099C11.9679 11.4921 12.0683 11.5026 12.16 11.54C12.2188 11.5637 12.273 11.5976 12.32 11.64C12.3623 11.6928 12.3992 11.7498 12.43 11.81C12.4405 11.8729 12.4405 11.9371 12.43 12C12.4271 12.1317 12.3733 12.2571 12.28 12.35C12.2334 12.3956 12.1793 12.4328 12.12 12.46C12.0818 12.4807 12.0416 12.4974 12 12.51Z" fill="white"/>
<path d="M17.76 12.37C17.6282 12.3675 17.5025 12.314 17.4093 12.2207C17.3161 12.1275 17.2626 12.0018 17.26 11.87C17.2621 11.7713 17.2928 11.6754 17.3483 11.5938C17.4039 11.5122 17.4819 11.4485 17.573 11.4104C17.664 11.3723 17.7642 11.3614 17.8613 11.3791C17.9584 11.3968 18.0482 11.4423 18.12 11.51C18.2095 11.6086 18.2593 11.7369 18.26 11.87C18.2696 11.933 18.2696 11.997 18.26 12.06C18.2292 12.1171 18.1923 12.1708 18.15 12.22C18.0986 12.2701 18.0375 12.3093 17.9704 12.3351C17.9034 12.3609 17.8318 12.3727 17.76 12.37Z" fill="white"/>
<path d="M12 22.61C11.0738 22.617 10.1824 22.2575 9.52002 21.61L2.42002 14.51C2.08865 14.1835 1.8255 13.7943 1.64589 13.3651C1.46627 12.9359 1.37378 12.4753 1.37378 12.01C1.37378 11.5448 1.46627 11.0842 1.64589 10.655C1.8255 10.2258 2.08865 9.83662 2.42002 9.51005L9.52002 2.41005C9.8452 2.07621 10.2339 1.81089 10.6633 1.62972C11.0927 1.44856 11.554 1.35522 12.02 1.35522C12.4861 1.35522 12.9474 1.44856 13.3767 1.62972C13.8061 1.81089 14.1948 2.07621 14.52 2.41005L21.63 9.51005C21.9614 9.83662 22.2245 10.2258 22.4042 10.655C22.5838 11.0842 22.6763 11.5448 22.6763 12.01C22.6763 12.4753 22.5838 12.9359 22.4042 13.3651C22.2245 13.7943 21.9614 14.1835 21.63 14.51L14.52 21.61C14.1886 21.9373 13.7947 22.1945 13.3617 22.3663C12.9288 22.5381 12.4657 22.621 12 22.61ZM12 2.41005C11.3372 2.41212 10.7016 2.67424 10.23 3.14005L3.13002 10.24C2.66467 10.7116 2.40376 11.3475 2.40376 12.01C2.40376 12.6726 2.66467 13.3085 3.13002 13.78L10.23 20.88C10.7016 21.3454 11.3375 21.6063 12 21.6063C12.6626 21.6063 13.2984 21.3454 13.77 20.88L20.87 13.78C21.3378 13.3097 21.6004 12.6734 21.6004 12.01C21.6004 11.3467 21.3378 10.7104 20.87 10.24L13.77 3.14005C13.2984 2.67424 12.6629 2.41212 12 2.41005Z" fill="white"/>
</svg>
