<svg width="24" height="24" viewBox="0 0 24 24" fill="none" xmlns="http://www.w3.org/2000/svg">
<path d="M18.05 22.48H6C5.86739 22.48 5.74021 22.4273 5.64645 22.3336C5.55268 22.2398 5.5 22.1126 5.5 21.98V2C5.5 1.86739 5.55268 1.74021 5.64645 1.64645C5.74021 1.55268 5.86739 1.5 6 1.5H18.1C18.2326 1.5 18.3598 1.55268 18.4536 1.64645C18.5473 1.74021 18.6 1.86739 18.6 2C18.5974 2.13181 18.5439 2.2575 18.4507 2.35072C18.3575 2.44394 18.2318 2.49744 18.1 2.5H10.5V11.39L18.22 13.39C18.3284 13.415 18.4251 13.4761 18.4942 13.5634C18.5633 13.6506 18.6006 13.7587 18.6 13.87V22C18.5976 22.0684 18.5812 22.1356 18.5518 22.1974C18.5224 22.2592 18.4806 22.3143 18.4291 22.3592C18.3775 22.4042 18.3173 22.4382 18.2521 22.459C18.1869 22.4797 18.1181 22.4869 18.05 22.48ZM6.45 21.48H17.55V14.28L9.83 12.28C9.72324 12.2519 9.62849 12.1899 9.55997 12.1034C9.49144 12.0168 9.45286 11.9104 9.45 11.8V2.52H6.45V21.48Z" fill="white"/>
<path d="M15.3 13.6801C15.2471 13.6896 15.1929 13.6896 15.14 13.6801C15.0141 13.6389 14.9097 13.5494 14.8497 13.4313C14.7897 13.3131 14.779 13.176 14.82 13.0501L15.53 10.9401C15.5492 10.8769 15.581 10.8183 15.6234 10.7678C15.6658 10.7172 15.718 10.6758 15.7769 10.6459C15.8357 10.616 15.9 10.5983 15.9658 10.5939C16.0316 10.5894 16.0977 10.5983 16.16 10.6201C16.2222 10.6403 16.2798 10.6729 16.3292 10.7157C16.3787 10.7586 16.419 10.8109 16.4479 10.8696C16.4768 10.9284 16.4937 10.9923 16.4975 11.0576C16.5013 11.123 16.4919 11.1884 16.47 11.2501L15.77 13.3701C15.733 13.4638 15.6681 13.5438 15.584 13.5993C15.4999 13.6548 15.4007 13.683 15.3 13.6801Z" fill="white"/>
</svg>
