<svg width="24" height="24" viewBox="0 0 24 24" fill="none" xmlns="http://www.w3.org/2000/svg">
<path d="M12.07 20.5401C11.9969 20.5424 11.9243 20.5273 11.8582 20.496C11.7921 20.4647 11.7345 20.4181 11.69 20.3601L1.69 8.36009C1.60984 8.26884 1.56563 8.15154 1.56563 8.03009C1.56563 7.90863 1.60984 7.79133 1.69 7.70009L5.58 3.61009C5.63407 3.5549 5.69997 3.51273 5.77273 3.48674C5.84549 3.46076 5.9232 3.45164 6 3.46009H18C18.1305 3.4593 18.2561 3.50954 18.35 3.60009L22.29 7.54009C22.3729 7.63196 22.4188 7.75132 22.4188 7.87509C22.4188 7.99885 22.3729 8.11821 22.29 8.21009L12.46 20.3601C12.4172 20.4224 12.3584 20.472 12.2897 20.5037C12.2211 20.5354 12.1452 20.548 12.07 20.5401ZM2.74 8.06009L12.07 19.2501L21.25 7.93009L17.78 4.46009H6.16L2.74 8.06009Z" fill="white"/>
</svg>
