<svg width="24" height="24" viewBox="0 0 24 24" fill="none" xmlns="http://www.w3.org/2000/svg">
<path d="M17.51 22.47H5.32001C5.1874 22.47 5.06022 22.4173 4.96645 22.3236C4.87269 22.2298 4.82001 22.1026 4.82001 21.97V13.76C4.82001 13.6274 4.87269 13.5002 4.96645 13.4065C5.06022 13.3127 5.1874 13.26 5.32001 13.26H17.51C17.6426 13.26 17.7698 13.3127 17.8636 13.4065C17.9573 13.5002 18.01 13.6274 18.01 13.76V22C18.0024 22.1274 17.9463 22.2469 17.8534 22.3343C17.7604 22.4217 17.6376 22.4702 17.51 22.47ZM5.82001 21.47H17V14.26H5.82001V21.47Z" fill="white"/>
<path d="M17.51 14.26C17.3774 14.26 17.2502 14.2073 17.1565 14.1136C17.0627 14.0198 17.01 13.8926 17.01 13.76V2.53H5.82001V13.76C5.82001 13.8926 5.76733 14.0198 5.67356 14.1136C5.57979 14.2073 5.45262 14.26 5.32001 14.26C5.1874 14.26 5.06022 14.2073 4.96645 14.1136C4.87269 14.0198 4.82001 13.8926 4.82001 13.76V2C4.82001 1.86739 4.87269 1.74021 4.96645 1.64645C5.06022 1.55268 5.1874 1.5 5.32001 1.5H17.51C17.6409 1.50262 17.7655 1.55645 17.8571 1.64994C17.9487 1.74342 18 1.86911 18 2V13.76C18 13.8909 17.9487 14.0166 17.8571 14.1101C17.7655 14.2036 17.6409 14.2574 17.51 14.26Z" fill="white"/>
<path d="M19.8 2.53003H3.14001C3.00741 2.53003 2.88023 2.47735 2.78646 2.38358C2.69269 2.28981 2.64001 2.16264 2.64001 2.03003C2.64001 1.89742 2.69269 1.77024 2.78646 1.67648C2.88023 1.58271 3.00741 1.53003 3.14001 1.53003H19.8C19.9326 1.53003 20.0598 1.58271 20.1536 1.67648C20.2473 1.77024 20.3 1.89742 20.3 2.03003C20.3 2.16264 20.2473 2.28981 20.1536 2.38358C20.0598 2.47735 19.9326 2.53003 19.8 2.53003Z" fill="white"/>
<path d="M13.32 14.24C13.1874 14.24 13.0602 14.1873 12.9665 14.0935C12.8727 13.9998 12.82 13.8726 12.82 13.74V11.49C12.82 11.3574 12.8727 11.2302 12.9665 11.1364C13.0602 11.0427 13.1874 10.99 13.32 10.99C13.4526 10.99 13.5798 11.0427 13.6736 11.1364C13.7673 11.2302 13.82 11.3574 13.82 11.49V13.74C13.82 13.8726 13.7673 13.9998 13.6736 14.0935C13.5798 14.1873 13.4526 14.24 13.32 14.24Z" fill="white"/>
</svg>
