<svg width="24" height="24" viewBox="0 0 24 24" fill="none" xmlns="http://www.w3.org/2000/svg">
<path d="M16.79 21.65H6.78999C5.86174 21.65 4.9715 21.2813 4.31512 20.6249C3.65874 19.9685 3.28999 19.0783 3.28999 18.15V8.15002C3.28999 7.22177 3.65874 6.33153 4.31512 5.67515C4.9715 5.01877 5.86174 4.65002 6.78999 4.65002H16.79C17.7183 4.65002 18.6085 5.01877 19.2649 5.67515C19.9212 6.33153 20.29 7.22177 20.29 8.15002V18.15C20.29 19.0783 19.9212 19.9685 19.2649 20.6249C18.6085 21.2813 17.7183 21.65 16.79 21.65ZM6.78999 5.65002C6.12695 5.65002 5.49107 5.91342 5.02223 6.38226C4.55339 6.8511 4.28999 7.48698 4.28999 8.15002V18.15C4.28999 18.8131 4.55339 19.449 5.02223 19.9178C5.49107 20.3866 6.12695 20.65 6.78999 20.65H16.79C17.453 20.65 18.0889 20.3866 18.5578 19.9178C19.0266 19.449 19.29 18.8131 19.29 18.15V8.15002C19.29 7.48698 19.0266 6.8511 18.5578 6.38226C18.0889 5.91342 17.453 5.65002 16.79 5.65002H6.78999Z" fill="white"/>
<path d="M19.79 13.86H3.78999C3.65739 13.86 3.53021 13.8073 3.43644 13.7135C3.34267 13.6198 3.28999 13.4926 3.28999 13.36C3.28999 13.2274 3.34267 13.1002 3.43644 13.0064C3.53021 12.9127 3.65739 12.86 3.78999 12.86H19.79C19.9226 12.86 20.0498 12.9127 20.1435 13.0064C20.2373 13.1002 20.29 13.2274 20.29 13.36C20.29 13.4926 20.2373 13.6198 20.1435 13.7135C20.0498 13.8073 19.9226 13.86 19.79 13.86Z" fill="white"/>
<path d="M11.77 5.61004C11.6383 5.60711 11.5129 5.55336 11.42 5.46004L8.78999 2.83004C8.74312 2.78356 8.70593 2.72826 8.68054 2.66733C8.65516 2.6064 8.64209 2.54105 8.64209 2.47504C8.64209 2.40904 8.65516 2.34368 8.68054 2.28275C8.70593 2.22182 8.74312 2.16652 8.78999 2.12004C8.88514 2.02779 9.01246 1.97621 9.14499 1.97621C9.27752 1.97621 9.40484 2.02779 9.49999 2.12004L11.77 4.40004L14.11 2.06004C14.2035 1.96843 14.3291 1.91711 14.46 1.91711C14.5909 1.91711 14.7165 1.96843 14.81 2.06004C14.8569 2.10652 14.8941 2.16182 14.9194 2.22275C14.9448 2.28368 14.9579 2.34904 14.9579 2.41504C14.9579 2.48105 14.9448 2.5464 14.9194 2.60733C14.8941 2.66826 14.8569 2.72356 14.81 2.77004L12.12 5.46004C12.0271 5.55336 11.9016 5.60711 11.77 5.61004Z" fill="white"/>
<path d="M11.77 21.65C11.6374 21.65 11.5102 21.5973 11.4164 21.5036C11.3227 21.4098 11.27 21.2826 11.27 21.15V5.15002C11.27 5.01742 11.3227 4.89024 11.4164 4.79647C11.5102 4.7027 11.6374 4.65002 11.77 4.65002C11.9026 4.65002 12.0298 4.7027 12.1235 4.79647C12.2173 4.89024 12.27 5.01742 12.27 5.15002V21.15C12.27 21.2826 12.2173 21.4098 12.1235 21.5036C12.0298 21.5973 11.9026 21.65 11.77 21.65Z" fill="white"/>
</svg>
