<svg width="24" height="24" viewBox="0 0 24 24" fill="none" xmlns="http://www.w3.org/2000/svg">
<path d="M11.42 13.46C10.7357 13.46 10.0667 13.2571 9.49772 12.8769C8.92873 12.4967 8.48525 11.9564 8.22337 11.3241C7.96149 10.6919 7.89297 9.9962 8.02648 9.32503C8.15998 8.65385 8.48951 8.03734 8.9734 7.55345C9.45729 7.06956 10.0738 6.74003 10.745 6.60652C11.4162 6.47302 12.1118 6.54154 12.7441 6.80342C13.3763 7.0653 13.9167 7.50877 14.2969 8.07777C14.6771 8.64676 14.88 9.31572 14.88 10C14.88 10.4544 14.7905 10.9043 14.6166 11.3241C14.4427 11.7439 14.1879 12.1253 13.8666 12.4466C13.5453 12.7679 13.1639 13.0228 12.7441 13.1967C12.3243 13.3705 11.8744 13.46 11.42 13.46ZM11.42 7.54004C10.9335 7.54004 10.4578 7.68432 10.0533 7.95463C9.64875 8.22493 9.33344 8.60913 9.14725 9.05864C8.96106 9.50815 8.91234 10.0028 9.00726 10.48C9.10218 10.9572 9.33647 11.3955 9.68051 11.7395C10.0245 12.0836 10.4629 12.3179 10.9401 12.4128C11.4173 12.5077 11.9119 12.459 12.3614 12.2728C12.8109 12.0866 13.1951 11.7713 13.4654 11.3667C13.7357 10.9622 13.88 10.4866 13.88 10C13.88 9.34761 13.6208 8.7219 13.1595 8.26056C12.6981 7.79922 12.0724 7.54004 11.42 7.54004Z" fill="white"/>
<path d="M17.33 20.33H5.5C5.36739 20.33 5.24021 20.2773 5.14645 20.1836C5.05268 20.0898 5 19.9626 5 19.83V4C5 3.86739 5.05268 3.74021 5.14645 3.64645C5.24021 3.55268 5.36739 3.5 5.5 3.5H17.33C17.4626 3.5 17.5898 3.55268 17.6836 3.64645C17.7773 3.74021 17.83 3.86739 17.83 4V19.83C17.83 19.9626 17.7773 20.0898 17.6836 20.1836C17.5898 20.2773 17.4626 20.33 17.33 20.33ZM6 19.33H16.83V4.5H6V19.33Z" fill="white"/>
<path d="M14.38 16.5H8.46001C8.3274 16.5 8.20022 16.4473 8.10645 16.3536C8.01268 16.2598 7.96001 16.1326 7.96001 16C7.96001 15.8674 8.01268 15.7402 8.10645 15.6464C8.20022 15.5527 8.3274 15.5 8.46001 15.5H14.38C14.5126 15.5 14.6398 15.5527 14.7336 15.6464C14.8273 15.7402 14.88 15.8674 14.88 16C14.88 16.1326 14.8273 16.2598 14.7336 16.3536C14.6398 16.4473 14.5126 16.5 14.38 16.5Z" fill="white"/>
</svg>
