<svg width="24" height="24" viewBox="0 0 24 24" fill="none" xmlns="http://www.w3.org/2000/svg">
<path d="M7 21.5C6.33696 21.5 5.70107 21.2366 5.23223 20.7678C4.76339 20.2989 4.5 19.663 4.5 19V15C4.5 14.337 4.76339 13.7011 5.23223 13.2322C5.70107 12.7634 6.33696 12.5 7 12.5C7.66304 12.5 8.29893 12.7634 8.76777 13.2322C9.23661 13.7011 9.5 14.337 9.5 15V19C9.5 19.663 9.23661 20.2989 8.76777 20.7678C8.29893 21.2366 7.66304 21.5 7 21.5ZM7 13.5C6.60218 13.5 6.22064 13.658 5.93934 13.9393C5.65804 14.2206 5.5 14.6022 5.5 15V19C5.5 19.3978 5.65804 19.7794 5.93934 20.0607C6.22064 20.342 6.60218 20.5 7 20.5C7.39782 20.5 7.77936 20.342 8.06066 20.0607C8.34196 19.7794 8.5 19.3978 8.5 19V15C8.5 14.6022 8.34196 14.2206 8.06066 13.9393C7.77936 13.658 7.39782 13.5 7 13.5Z" fill="white"/>
<path d="M17 21.5C16.337 21.5 15.7011 21.2366 15.2322 20.7678C14.7634 20.2989 14.5 19.663 14.5 19V15C14.5 14.337 14.7634 13.7011 15.2322 13.2322C15.7011 12.7634 16.337 12.5 17 12.5C17.663 12.5 18.2989 12.7634 18.7678 13.2322C19.2366 13.7011 19.5 14.337 19.5 15V19C19.5 19.663 19.2366 20.2989 18.7678 20.7678C18.2989 21.2366 17.663 21.5 17 21.5ZM17 13.5C16.6022 13.5 16.2206 13.658 15.9393 13.9393C15.658 14.2206 15.5 14.6022 15.5 15V19C15.5 19.3978 15.658 19.7794 15.9393 20.0607C16.2206 20.342 16.6022 20.5 17 20.5C17.3978 20.5 17.7794 20.342 18.0607 20.0607C18.342 19.7794 18.5 19.3978 18.5 19V15C18.5 14.6022 18.342 14.2206 18.0607 13.9393C17.7794 13.658 17.3978 13.5 17 13.5Z" fill="white"/>
<path d="M22 17.5C21.8674 17.5 21.7402 17.4473 21.6464 17.3536C21.5527 17.2598 21.5 17.1326 21.5 17V13C21.5 10.4804 20.4991 8.06408 18.7175 6.28249C16.9359 4.50089 14.5196 3.5 12 3.5C9.48044 3.5 7.06408 4.50089 5.28249 6.28249C3.50089 8.06408 2.5 10.4804 2.5 13V17C2.5 17.1326 2.44732 17.2598 2.35355 17.3536C2.25979 17.4473 2.13261 17.5 2 17.5C1.86739 17.5 1.74021 17.4473 1.64645 17.3536C1.55268 17.2598 1.5 17.1326 1.5 17V13C1.5 10.2152 2.60625 7.54451 4.57538 5.57538C6.54451 3.60625 9.21523 2.5 12 2.5C14.7848 2.5 17.4555 3.60625 19.4246 5.57538C21.3938 7.54451 22.5 10.2152 22.5 13V17C22.5 17.1326 22.4473 17.2598 22.3536 17.3536C22.2598 17.4473 22.1326 17.5 22 17.5Z" fill="white"/>
</svg>
