<svg width="24" height="24" viewBox="0 0 24 24" fill="none" xmlns="http://www.w3.org/2000/svg">
<path d="M16.78 21.87H6.78C5.85174 21.87 4.9615 21.5012 4.30512 20.8449C3.64875 20.1885 3.28 19.2983 3.28 18.37V8.37C3.28 7.44174 3.64875 6.5515 4.30512 5.89512C4.9615 5.23874 5.85174 4.87 6.78 4.87H16.78C17.7083 4.87 18.5985 5.23874 19.2549 5.89512C19.9112 6.5515 20.28 7.44174 20.28 8.37V18.37C20.28 19.2983 19.9112 20.1885 19.2549 20.8449C18.5985 21.5012 17.7083 21.87 16.78 21.87ZM6.78 5.87C6.11777 5.87263 5.48341 6.13687 5.01514 6.60514C4.54687 7.07341 4.28263 7.70776 4.28 8.37V18.37C4.28263 19.0322 4.54687 19.6666 5.01514 20.1349C5.48341 20.6031 6.11777 20.8674 6.78 20.87H16.78C17.4422 20.8674 18.0766 20.6031 18.5449 20.1349C19.0131 19.6666 19.2774 19.0322 19.28 18.37V8.37C19.2774 7.70776 19.0131 7.07341 18.5449 6.60514C18.0766 6.13687 17.4422 5.87263 16.78 5.87H6.78Z" fill="white"/>
<path d="M21.64 11.1699H1.89C1.75739 11.1699 1.63021 11.1172 1.53645 11.0235C1.44268 10.9297 1.39 10.8025 1.39 10.6699C1.39 10.5373 1.44268 10.4101 1.53645 10.3164C1.63021 10.2226 1.75739 10.1699 1.89 10.1699H21.64C21.7726 10.1699 21.8998 10.2226 21.9936 10.3164C22.0873 10.4101 22.14 10.5373 22.14 10.6699C22.1374 10.8017 22.0839 10.9274 21.9907 11.0206C21.8975 11.1139 21.7718 11.1674 21.64 11.1699Z" fill="white"/>
<path d="M11.76 5.81998C11.6299 5.81873 11.5051 5.76878 11.41 5.67998L8.78 3.04998C8.73338 3.00336 8.6964 2.94802 8.67117 2.8871C8.64594 2.82619 8.63296 2.76091 8.63296 2.69498C8.63296 2.62905 8.64594 2.56377 8.67117 2.50286C8.6964 2.44194 8.73338 2.3866 8.78 2.33998C8.87415 2.24583 9.00185 2.19293 9.135 2.19293C9.20093 2.19293 9.26622 2.20592 9.32713 2.23115C9.38804 2.25638 9.44338 2.29336 9.49 2.33998L11.76 4.61998L14.1 2.27998C14.1942 2.18583 14.3219 2.13293 14.455 2.13293C14.5882 2.13293 14.7159 2.18583 14.81 2.27998C14.9042 2.37413 14.957 2.50183 14.957 2.63498C14.957 2.76813 14.9042 2.89583 14.81 2.98998L12.12 5.67998C12.0214 5.76944 11.8932 5.8193 11.76 5.81998Z" fill="white"/>
<path d="M11.76 21.8699C11.6282 21.8674 11.5025 21.8139 11.4093 21.7206C11.3161 21.6274 11.2626 21.5017 11.26 21.3699V10.6699C11.26 10.5373 11.3127 10.4101 11.4064 10.3164C11.5002 10.2226 11.6274 10.1699 11.76 10.1699C11.8926 10.1699 12.0198 10.2226 12.1136 10.3164C12.2073 10.4101 12.26 10.5373 12.26 10.6699V21.3699C12.26 21.5025 12.2073 21.6297 12.1136 21.7235C12.0198 21.8172 11.8926 21.8699 11.76 21.8699Z" fill="white"/>
<path d="M19.78 15.9199H3.78C3.64819 15.9174 3.5225 15.8639 3.42928 15.7706C3.33606 15.6774 3.28256 15.5517 3.28 15.4199C3.28 15.2873 3.33268 15.1601 3.42645 15.0664C3.52021 14.9726 3.64739 14.9199 3.78 14.9199H19.78C19.9126 14.9199 20.0398 14.9726 20.1336 15.0664C20.2273 15.1601 20.28 15.2873 20.28 15.4199C20.28 15.5525 20.2273 15.6797 20.1336 15.7735C20.0398 15.8672 19.9126 15.9199 19.78 15.9199Z" fill="white"/>
</svg>
