<svg width="24" height="24" viewBox="0 0 24 24" fill="none" xmlns="http://www.w3.org/2000/svg">
<path d="M6.70001 17.6501C6.5845 17.6269 6.48059 17.5644 6.40594 17.4733C6.33129 17.3821 6.2905 17.268 6.2905 17.1501C6.2905 17.0323 6.33129 16.9181 6.40594 16.827C6.48059 16.7358 6.5845 16.6734 6.70001 16.6501C6.77402 16.6353 6.85042 16.637 6.92368 16.6552C6.99694 16.6735 7.06524 16.7077 7.12365 16.7556C7.18206 16.8034 7.22912 16.8636 7.26143 16.9319C7.29374 17.0001 7.3105 17.0746 7.3105 17.1501C7.3105 17.2256 7.29374 17.3002 7.26143 17.3684C7.22912 17.4367 7.18206 17.4969 7.12365 17.5447C7.06524 17.5925 6.99694 17.6268 6.92368 17.645C6.85042 17.6633 6.77402 17.665 6.70001 17.6501Z" fill="white"/>
<path d="M6.71 22C5.74983 21.9994 4.81136 21.7144 4.01301 21.181C3.21465 20.6475 2.5922 19.8896 2.2242 19.0027C1.85619 18.1159 1.75913 17.1399 1.94525 16.1979C2.13138 15.256 2.59235 14.3903 3.27 13.71C4.11729 12.8647 5.24517 12.3595 6.44 12.29C6.57261 12.29 6.69979 12.3427 6.79356 12.4365C6.88732 12.5303 6.94 12.6574 6.94 12.79C6.94 12.9226 6.88732 13.0498 6.79356 13.1436C6.69979 13.2374 6.57261 13.29 6.44 13.29C5.81521 13.3253 5.20835 13.5119 4.6717 13.8338C4.13506 14.1557 3.68472 14.6032 3.35949 15.1378C3.03427 15.6725 2.8439 16.2782 2.8048 16.9027C2.7657 17.5273 2.87904 18.152 3.13504 18.723C3.39105 19.2941 3.78205 19.7943 4.27436 20.1806C4.76667 20.5669 5.34552 20.8277 5.96104 20.9406C6.57656 21.0535 7.2103 21.015 7.80765 20.8285C8.40499 20.642 8.94804 20.3131 9.39 19.87C10.0606 19.2014 10.4566 18.306 10.5 17.36C10.5 17.2274 10.5527 17.1003 10.6464 17.0065C10.7402 16.9127 10.8674 16.86 11 16.86C11.1326 16.86 11.2598 16.9127 11.3536 17.0065C11.4473 17.1003 11.5 17.2274 11.5 17.36C11.4488 18.6001 10.9231 19.7731 10.0317 20.6367C9.1402 21.5002 7.95108 21.9883 6.71 22Z" fill="white"/>
<path d="M11.05 17.8801C10.9215 17.8778 10.7986 17.8271 10.7059 17.7381C10.6132 17.6491 10.5575 17.5284 10.55 17.4001C10.5473 17.3345 10.5576 17.2689 10.5803 17.2072C10.603 17.1455 10.6376 17.0889 10.6822 17.0406C10.7268 16.9923 10.7804 16.9533 10.8401 16.9257C10.8998 16.8982 10.9643 16.8827 11.03 16.8801C11.9764 16.8386 12.8725 16.4423 13.54 15.7701C13.9209 15.4175 14.2268 14.9916 14.4394 14.518C14.6519 14.0444 14.7668 13.5327 14.777 13.0137C14.7872 12.4947 14.6927 11.9789 14.499 11.4973C14.3053 11.0157 14.0164 10.5781 13.6497 10.2106C13.2829 9.84323 12.8459 9.55357 12.3646 9.35899C11.8833 9.1644 11.3677 9.0689 10.8487 9.07819C10.3296 9.08748 9.81781 9.20137 9.34381 9.41304C8.8698 9.62472 8.44336 9.92983 8.09 10.3101C7.42676 10.9819 7.03807 11.8769 7 12.8201C6.99886 12.8858 6.98424 12.9506 6.95705 13.0104C6.92986 13.0702 6.89068 13.1238 6.84193 13.1679C6.79318 13.212 6.73591 13.2455 6.67365 13.2666C6.61139 13.2876 6.54548 13.2956 6.48 13.2901C6.4139 13.2889 6.34872 13.2743 6.2884 13.2472C6.22808 13.2202 6.17387 13.1812 6.12902 13.1326C6.08418 13.084 6.04963 13.0268 6.02745 12.9645C6.00528 12.9023 5.99594 12.8361 6 12.7701C6.05122 11.5789 6.54302 10.4492 7.38 9.60013C7.93637 9.04055 8.62062 8.62486 9.37363 8.38897C10.1266 8.15309 10.9258 8.10411 11.702 8.24626C12.4781 8.38842 13.208 8.71743 13.8286 9.20488C14.4491 9.69232 14.9416 10.3235 15.2636 11.044C15.5855 11.7644 15.7272 12.5524 15.6763 13.3399C15.6255 14.1273 15.3837 14.8905 14.9718 15.5636C14.5599 16.2367 13.9903 16.7993 13.3122 17.2029C12.6342 17.6065 11.868 17.839 11.08 17.8801H11.05Z" fill="white"/>
<path d="M13.89 10.4501C13.8251 10.4528 13.7603 10.4417 13.7 10.4176C13.6397 10.3935 13.5851 10.3568 13.54 10.3101C13.4931 10.2636 13.4559 10.2083 13.4306 10.1474C13.4052 10.0865 13.3921 10.0211 13.3921 9.95512C13.3921 9.88911 13.4052 9.82376 13.4306 9.76283C13.4559 9.7019 13.4931 9.6466 13.54 9.60012L21.3 1.83012C21.3952 1.73787 21.5225 1.68628 21.655 1.68628C21.7875 1.68628 21.9149 1.73787 22.01 1.83012C22.0569 1.8766 22.0941 1.9319 22.1194 1.99283C22.1448 2.05376 22.1579 2.11911 22.1579 2.18512C22.1579 2.25112 22.1448 2.31648 22.1194 2.37741C22.0941 2.43833 22.0569 2.49364 22.01 2.54012L14.24 10.3101C14.1949 10.3568 14.1403 10.3935 14.08 10.4176C14.0197 10.4417 13.9549 10.4528 13.89 10.4501Z" fill="white"/>
</svg>
