<svg width="24" height="24" viewBox="0 0 24 24" fill="none" xmlns="http://www.w3.org/2000/svg">
<path d="M18.11 22.4601H5.90001C5.58269 22.4614 5.26822 22.4 4.97467 22.2795C4.68112 22.159 4.41427 21.9817 4.18942 21.7577C3.96457 21.5338 3.78615 21.2677 3.66441 20.9746C3.54267 20.6816 3.48001 20.3674 3.48001 20.0501V4.00006C3.47334 3.67855 3.53107 3.35895 3.64982 3.0601C3.76857 2.76125 3.94593 2.48919 4.17145 2.25994C4.39697 2.03069 4.6661 1.84889 4.96296 1.72526C5.25983 1.60163 5.57843 1.53866 5.90001 1.54006H18.11C18.4307 1.53999 18.7483 1.60395 19.044 1.72818C19.3397 1.8524 19.6076 2.03441 19.8321 2.26352C20.0565 2.49263 20.233 2.76424 20.3511 3.06243C20.4692 3.36062 20.5267 3.67939 20.52 4.00006V20.1001C20.5069 20.7305 20.2473 21.3308 19.7967 21.772C19.3461 22.2132 18.7406 22.4602 18.11 22.4601ZM5.90001 2.54006C5.70972 2.53859 5.52111 2.57566 5.34553 2.64902C5.16994 2.72238 5.01103 2.83053 4.87835 2.96694C4.74568 3.10335 4.64199 3.26521 4.57353 3.44276C4.50507 3.62032 4.47326 3.80989 4.48001 4.00006V20.1001C4.49302 20.467 4.64867 20.8144 4.91385 21.0684C5.17903 21.3224 5.53283 21.4629 5.90001 21.4601H18.11C18.484 21.4601 18.8426 21.3115 19.107 21.0471C19.3715 20.7827 19.52 20.424 19.52 20.0501V4.00006C19.52 3.62611 19.3715 3.26747 19.107 3.00304C18.8426 2.73862 18.484 2.59006 18.11 2.59006L5.90001 2.54006Z" fill="white"/>
<path d="M20 12.5H14.47C14.3374 12.5 14.2102 12.4473 14.1165 12.3536C14.0227 12.2598 13.97 12.1326 13.97 12C13.97 11.8674 14.0227 11.7402 14.1165 11.6464C14.2102 11.5527 14.3374 11.5 14.47 11.5H20C20.1326 11.5 20.2598 11.5527 20.3536 11.6464C20.4474 11.7402 20.5 11.8674 20.5 12C20.5 12.1326 20.4474 12.2598 20.3536 12.3536C20.2598 12.4473 20.1326 12.5 20 12.5Z" fill="white"/>
<path d="M9.54 12.5H4C3.86739 12.5 3.74021 12.4473 3.64645 12.3536C3.55268 12.2598 3.5 12.1326 3.5 12C3.5 11.8674 3.55268 11.7402 3.64645 11.6464C3.74021 11.5527 3.86739 11.5 4 11.5H9.54C9.67261 11.5 9.79979 11.5527 9.89355 11.6464C9.98732 11.7402 10.04 11.8674 10.04 12C10.04 12.1326 9.98732 12.2598 9.89355 12.3536C9.79979 12.4473 9.67261 12.5 9.54 12.5Z" fill="white"/>
<path d="M15.36 5.88H8.64001C8.50741 5.88 8.38023 5.82732 8.28646 5.73355C8.19269 5.63979 8.14001 5.51261 8.14001 5.38V2C8.14001 1.86739 8.19269 1.74021 8.28646 1.64645C8.38023 1.55268 8.50741 1.5 8.64001 1.5H15.36C15.4926 1.5 15.6198 1.55268 15.7136 1.64645C15.8073 1.74021 15.86 1.86739 15.86 2V5.38C15.86 5.51261 15.8073 5.63979 15.7136 5.73355C15.6198 5.82732 15.4926 5.88 15.36 5.88ZM9.14001 4.88H14.86V2.54H9.14001V4.88Z" fill="white"/>
<path d="M15.36 22.4601H8.64001C8.50741 22.4601 8.38023 22.4074 8.28646 22.3137C8.19269 22.2199 8.14001 22.0927 8.14001 21.9601V18.6201C8.14001 18.4875 8.19269 18.3603 8.28646 18.2666C8.38023 18.1728 8.50741 18.1201 8.64001 18.1201H15.36C15.4926 18.1201 15.6198 18.1728 15.7136 18.2666C15.8073 18.3603 15.86 18.4875 15.86 18.6201V22.0001C15.8499 22.1257 15.7928 22.2428 15.7001 22.3281C15.6074 22.4134 15.486 22.4605 15.36 22.4601ZM9.14001 21.4601H14.86V19.1201H9.14001V21.4601Z" fill="white"/>
<path d="M12 14.8999C11.4067 14.8999 10.8266 14.724 10.3333 14.3943C9.83994 14.0647 9.45543 13.5961 9.22836 13.048C9.0013 12.4998 8.94189 11.8966 9.05765 11.3146C9.1734 10.7327 9.45912 10.1981 9.87868 9.77858C10.2982 9.35903 10.8328 9.0733 11.4147 8.95755C11.9967 8.84179 12.5999 8.9012 13.1481 9.12827C13.6962 9.35533 14.1648 9.73985 14.4944 10.2332C14.8241 10.7265 15 11.3066 15 11.8999C15 12.6956 14.6839 13.4586 14.1213 14.0212C13.5587 14.5838 12.7957 14.8999 12 14.8999ZM12 9.9999C11.6044 9.9999 11.2178 10.1172 10.8889 10.337C10.56 10.5567 10.3036 10.8691 10.1522 11.2345C10.0009 11.6 9.96126 12.0021 10.0384 12.3901C10.1156 12.778 10.3061 13.1344 10.5858 13.4141C10.8655 13.6938 11.2219 13.8843 11.6098 13.9615C11.9978 14.0386 12.3999 13.999 12.7654 13.8477C13.1308 13.6963 13.4432 13.4399 13.6629 13.111C13.8827 12.7821 14 12.3955 14 11.9999C14 11.4695 13.7893 10.9608 13.4142 10.5857C13.0391 10.2106 12.5304 9.9999 12 9.9999Z" fill="white"/>
</svg>
