<svg width="24" height="24" viewBox="0 0 24 24" fill="none" xmlns="http://www.w3.org/2000/svg">
<path d="M12 22.4401C3.55002 22.4401 3.45002 14.0201 3.45002 13.9301V5.84008C3.4495 5.74502 3.47664 5.65187 3.52813 5.57197C3.57962 5.49207 3.65324 5.42887 3.74002 5.39008L11.74 1.61008C11.8079 1.58063 11.8811 1.56543 11.955 1.56543C12.029 1.56543 12.1022 1.58063 12.17 1.61008L20.22 5.39008C20.3053 5.43084 20.3776 5.4945 20.4288 5.57397C20.48 5.65343 20.5081 5.74556 20.51 5.84008V13.9301C20.55 14.0001 20.45 22.4401 12 22.4401ZM4.45002 6.16008V13.9301C4.45002 14.2401 4.55002 21.4401 12 21.4401C19.45 21.4401 19.55 14.2401 19.55 13.9301V6.16008L12 2.61008L4.45002 6.16008Z" fill="white"/>
<path d="M12 22.4401C11.8674 22.4401 11.7402 22.3874 11.6464 22.2936C11.5527 22.1998 11.5 22.0727 11.5 21.9401V2.06006C11.5 1.92745 11.5527 1.80027 11.6464 1.70651C11.7402 1.61274 11.8674 1.56006 12 1.56006C12.1318 1.56262 12.2575 1.61612 12.3507 1.70934C12.4439 1.80256 12.4974 1.92825 12.5 2.06006V21.9401C12.4974 22.0719 12.4439 22.1976 12.3507 22.2908C12.2575 22.384 12.1318 22.4375 12 22.4401Z" fill="white"/>
<path d="M20.05 12.5H4C3.86739 12.5 3.74021 12.4473 3.64645 12.3536C3.55268 12.2598 3.5 12.1326 3.5 12C3.5 11.8674 3.55268 11.7402 3.64645 11.6464C3.74021 11.5527 3.86739 11.5 4 11.5H20.1C20.2326 11.5 20.3598 11.5527 20.4536 11.6464C20.5473 11.7402 20.6 11.8674 20.6 12C20.6 12.1326 20.5473 12.2598 20.4536 12.3536C20.3598 12.4473 20.2326 12.5 20.1 12.5H20.05Z" fill="white"/>
</svg>
