<svg width="24" height="24" viewBox="0 0 24 24" fill="none" xmlns="http://www.w3.org/2000/svg">
<path d="M20 18H4C3.86739 18 3.74021 17.9473 3.64645 17.8536C3.55268 17.7598 3.5 17.6326 3.5 17.5V12.5C3.5 11.5717 3.86875 10.6815 4.52513 10.0251C5.1815 9.36875 6.07174 9 7 9H17C17.9283 9 18.8185 9.36875 19.4749 10.0251C20.1313 10.6815 20.5 11.5717 20.5 12.5V17.5C20.5 17.6326 20.4473 17.7598 20.3536 17.8536C20.2598 17.9473 20.1326 18 20 18ZM4.5 17H19.5V12.5C19.5 11.837 19.2366 11.2011 18.7678 10.7322C18.2989 10.2634 17.663 10 17 10H7C6.33696 10 5.70107 10.2634 5.23223 10.7322C4.76339 11.2011 4.5 11.837 4.5 12.5V17Z" fill="white"/>
<path d="M7.5 21C6.96957 21 6.46086 20.7893 6.08579 20.4142C5.71071 20.0391 5.5 19.5304 5.5 19V17.5C5.5 17.3674 5.55268 17.2402 5.64645 17.1464C5.74021 17.0527 5.86739 17 6 17C6.13261 17 6.25979 17.0527 6.35355 17.1464C6.44732 17.2402 6.5 17.3674 6.5 17.5V19C6.5 19.2652 6.60536 19.5196 6.79289 19.7071C6.98043 19.8946 7.23478 20 7.5 20C7.76522 20 8.01957 19.8946 8.20711 19.7071C8.39464 19.5196 8.5 19.2652 8.5 19V17.5C8.5 17.3674 8.55268 17.2402 8.64645 17.1464C8.74021 17.0527 8.86739 17 9 17C9.13261 17 9.25979 17.0527 9.35355 17.1464C9.44732 17.2402 9.5 17.3674 9.5 17.5V19C9.5 19.5304 9.28929 20.0391 8.91421 20.4142C8.53914 20.7893 8.03043 21 7.5 21Z" fill="white"/>
<path d="M16.5 21C15.9696 21 15.4609 20.7893 15.0858 20.4142C14.7107 20.0391 14.5 19.5304 14.5 19V17.5C14.5 17.3674 14.5527 17.2402 14.6464 17.1464C14.7402 17.0527 14.8674 17 15 17C15.1326 17 15.2598 17.0527 15.3536 17.1464C15.4473 17.2402 15.5 17.3674 15.5 17.5V19C15.5 19.2652 15.6054 19.5196 15.7929 19.7071C15.9804 19.8946 16.2348 20 16.5 20C16.7652 20 17.0196 19.8946 17.2071 19.7071C17.3946 19.5196 17.5 19.2652 17.5 19V17.5C17.5 17.3674 17.5527 17.2402 17.6464 17.1464C17.7402 17.0527 17.8674 17 18 17C18.1326 17 18.2598 17.0527 18.3536 17.1464C18.4473 17.2402 18.5 17.3674 18.5 17.5V19C18.5 19.5304 18.2893 20.0391 17.9142 20.4142C17.5391 20.7893 17.0304 21 16.5 21Z" fill="white"/>
<path d="M8 14C7.90213 13.9986 7.80683 13.9686 7.72589 13.9135C7.64495 13.8585 7.58195 13.7809 7.54468 13.6904C7.50741 13.5999 7.49753 13.5005 7.51625 13.4044C7.53497 13.3084 7.58148 13.2199 7.65 13.15C7.74346 13.0584 7.86912 13.0071 8 13.0071C8.13087 13.0071 8.25653 13.0584 8.35 13.15C8.41852 13.2199 8.46502 13.3084 8.48374 13.4044C8.50246 13.5005 8.49258 13.5999 8.45531 13.6904C8.41805 13.7809 8.35504 13.8585 8.2741 13.9135C8.19317 13.9686 8.09786 13.9986 8 14Z" fill="white"/>
<path d="M16 13.9999C15.9021 13.9985 15.8068 13.9685 15.7259 13.9135C15.645 13.8584 15.5819 13.7808 15.5447 13.6903C15.5074 13.5998 15.4975 13.5004 15.5163 13.4043C15.535 13.3083 15.5815 13.2198 15.65 13.1499C15.7186 13.0795 15.8068 13.0314 15.9031 13.0118C15.9994 12.9922 16.0993 13.002 16.19 13.0399C16.2524 13.0612 16.3077 13.0993 16.35 13.1499C16.3978 13.1948 16.4359 13.249 16.462 13.3092C16.4881 13.3694 16.5015 13.4343 16.5015 13.4999C16.5015 13.5655 16.4881 13.6304 16.462 13.6906C16.4359 13.7508 16.3978 13.805 16.35 13.8499C16.3077 13.9006 16.2524 13.9386 16.19 13.9599C16.1308 13.9883 16.0656 14.002 16 13.9999Z" fill="white"/>
<path d="M18 10H6C5.86739 10 5.74021 9.94732 5.64645 9.85355C5.55268 9.75979 5.5 9.63261 5.5 9.5V6.5C5.5 5.57174 5.86875 4.6815 6.52513 4.02513C7.1815 3.36875 8.07174 3 9 3H15C15.9283 3 16.8185 3.36875 17.4749 4.02513C18.1313 4.6815 18.5 5.57174 18.5 6.5V9.5C18.5 9.63261 18.4473 9.75979 18.3536 9.85355C18.2598 9.94732 18.1326 10 18 10ZM6.5 9H17.5V6.5C17.5 5.83696 17.2366 5.20107 16.7678 4.73223C16.2989 4.26339 15.663 4 15 4H9C8.33696 4 7.70107 4.26339 7.23223 4.73223C6.76339 5.20107 6.5 5.83696 6.5 6.5V9Z" fill="white"/>
</svg>
