<svg width="24" height="24" viewBox="0 0 24 24" fill="none" xmlns="http://www.w3.org/2000/svg">
<path d="M6.5 15.8799C5.70435 15.8799 4.94129 15.5638 4.37868 15.0012C3.81607 14.4386 3.5 13.6755 3.5 12.8799V5.87988C3.5 5.08423 3.81607 4.32117 4.37868 3.75856C4.94129 3.19595 5.70435 2.87988 6.5 2.87988C7.29565 2.87988 8.05871 3.19595 8.62132 3.75856C9.18393 4.32117 9.5 5.08423 9.5 5.87988V12.8799C9.5 13.6755 9.18393 14.4386 8.62132 15.0012C8.05871 15.5638 7.29565 15.8799 6.5 15.8799ZM6.5 3.87988C5.96957 3.87988 5.46086 4.0906 5.08579 4.46567C4.71071 4.84074 4.5 5.34945 4.5 5.87988V12.8799C4.5 13.4103 4.71071 13.919 5.08579 14.2941C5.46086 14.6692 5.96957 14.8799 6.5 14.8799C7.03043 14.8799 7.53914 14.6692 7.91421 14.2941C8.28929 13.919 8.5 13.4103 8.5 12.8799V5.87988C8.5 5.34945 8.28929 4.84074 7.91421 4.46567C7.53914 4.0906 7.03043 3.87988 6.5 3.87988Z" fill="white"/>
<path d="M11.78 21.1199C11.5303 21.1192 11.2842 21.061 11.0605 20.9501C10.8368 20.8391 10.6416 20.6783 10.49 20.4799C9.47954 18.9722 8.79807 17.2685 8.49 15.4799C8.48515 15.4501 8.48515 15.4197 8.49 15.3899V5.3199C8.49 4.67278 8.74707 4.05215 9.20466 3.59456C9.66225 3.13697 10.2829 2.8799 10.93 2.8799H18.05C18.3713 2.87859 18.6896 2.94073 18.9868 3.06276C19.284 3.18479 19.5542 3.36431 19.7818 3.59102C20.0094 3.81772 20.1901 4.08715 20.3133 4.38384C20.4366 4.68053 20.5 4.99863 20.5 5.3199V13.4499C20.5 13.7699 20.4368 14.0867 20.3141 14.3821C20.1913 14.6776 20.0114 14.9459 19.7847 15.1717C19.558 15.3975 19.289 15.5763 18.993 15.6978C18.697 15.8193 18.38 15.8812 18.06 15.8799H13.5V19.4099C13.4969 19.7629 13.3834 20.106 13.1753 20.3912C12.9673 20.6764 12.6752 20.8892 12.34 20.9999C12.1625 21.0746 11.9725 21.1153 11.78 21.1199ZM9.5 15.3399C9.77592 16.9514 10.3782 18.4895 11.27 19.8599C11.3553 19.9717 11.474 20.0533 11.6089 20.0929C11.7438 20.1324 11.8879 20.1279 12.02 20.0799C12.1606 20.0334 12.2828 19.9434 12.3691 19.823C12.4553 19.7026 12.5012 19.558 12.5 19.4099V15.4099C12.5 15.2773 12.5527 15.1501 12.6464 15.0563C12.7402 14.9626 12.8674 14.9099 13 14.9099H18.06C18.2486 14.9112 18.4357 14.8752 18.6103 14.8039C18.785 14.7327 18.9438 14.6275 19.0776 14.4946C19.2115 14.3617 19.3177 14.2036 19.3902 14.0295C19.4627 13.8553 19.5 13.6685 19.5 13.4799V5.3199C19.5 4.93799 19.3483 4.57172 19.0782 4.30167C18.8082 4.03162 18.4419 3.8799 18.06 3.8799H10.94C10.5581 3.8799 10.1918 4.03162 9.92176 4.30167C9.65171 4.57172 9.5 4.93799 9.5 5.3199V15.3399Z" fill="white"/>
</svg>
