<svg width="24" height="24" viewBox="0 0 24 24" fill="none" xmlns="http://www.w3.org/2000/svg">
<path d="M17.66 21.7299H6.33999C5.31095 21.7299 4.32406 21.3211 3.59642 20.5935C2.86878 19.8658 2.45999 18.8789 2.45999 17.8499V6.5299C2.45999 5.50086 2.86878 4.51397 3.59642 3.78633C4.32406 3.05869 5.31095 2.6499 6.33999 2.6499H17.66C18.689 2.6499 19.6759 3.05869 20.4036 3.78633C21.1312 4.51397 21.54 5.50086 21.54 6.5299V17.8499C21.54 18.8789 21.1312 19.8658 20.4036 20.5935C19.6759 21.3211 18.689 21.7299 17.66 21.7299ZM6.33999 3.6499C5.57617 3.6499 4.84363 3.95333 4.30352 4.49343C3.76342 5.03354 3.45999 5.76608 3.45999 6.5299V17.8499C3.45999 18.6137 3.76342 19.3463 4.30352 19.8864C4.84363 20.4265 5.57617 20.7299 6.33999 20.7299H17.66C18.4238 20.7299 19.1564 20.4265 19.6965 19.8864C20.2366 19.3463 20.54 18.6137 20.54 17.8499V6.5299C20.54 5.76608 20.2366 5.03354 19.6965 4.49343C19.1564 3.95333 18.4238 3.6499 17.66 3.6499H6.33999Z" fill="white"/>
<path d="M8.18998 11.89C7.48715 11.89 6.81312 11.6108 6.31614 11.1138C5.81917 10.6169 5.53998 9.94281 5.53998 9.23999C5.53998 9.10738 5.59266 8.98021 5.68642 8.88644C5.78019 8.79267 5.90737 8.73999 6.03998 8.73999C6.17259 8.73999 6.29976 8.79267 6.39353 8.88644C6.4873 8.98021 6.53998 9.10738 6.53998 9.23999C6.53998 9.6776 6.71382 10.0973 7.02325 10.4067C7.33269 10.7162 7.75237 10.89 8.18998 10.89C8.62758 10.89 9.04727 10.7162 9.3567 10.4067C9.66614 10.0973 9.83998 9.6776 9.83998 9.23999C9.83998 9.10738 9.89266 8.98021 9.98642 8.88644C10.0802 8.79267 10.2074 8.73999 10.34 8.73999C10.4726 8.73999 10.5998 8.79267 10.6935 8.88644C10.7873 8.98021 10.84 9.10738 10.84 9.23999C10.84 9.94281 10.5608 10.6169 10.0638 11.1138C9.56684 11.6108 8.8928 11.89 8.18998 11.89Z" fill="white"/>
<path d="M16 11.89C15.2962 11.89 14.6212 11.6111 14.1226 11.1144C13.6241 10.6177 13.3426 9.94373 13.34 9.23999C13.34 9.10738 13.3927 8.98021 13.4864 8.88644C13.5802 8.79267 13.7074 8.73999 13.84 8.73999C13.9726 8.73999 14.0998 8.79267 14.1935 8.88644C14.2873 8.98021 14.34 9.10738 14.34 9.23999C14.3724 9.6567 14.5608 10.0459 14.8676 10.3297C15.1744 10.6136 15.577 10.7712 15.995 10.7712C16.413 10.7712 16.8156 10.6136 17.1224 10.3297C17.4292 10.0459 17.6176 9.6567 17.65 9.23999C17.65 9.10738 17.7027 8.98021 17.7964 8.88644C17.8902 8.79267 18.0174 8.73999 18.15 8.73999C18.2826 8.73999 18.4098 8.79267 18.5035 8.88644C18.5973 8.98021 18.65 9.10738 18.65 9.23999C18.65 9.94281 18.3708 10.6169 17.8738 11.1138C17.3769 11.6108 16.7028 11.89 16 11.89Z" fill="white"/>
<path d="M16 17.3699H8.19C8.05739 17.3699 7.93022 17.3172 7.83645 17.2234C7.74268 17.1297 7.69 17.0025 7.69 16.8699C7.69 16.7373 7.74268 16.6101 7.83645 16.5163C7.93022 16.4226 8.05739 16.3699 8.19 16.3699H16C16.1318 16.3724 16.2575 16.4259 16.3507 16.5192C16.4439 16.6124 16.4974 16.7381 16.5 16.8699C16.5 17.0025 16.4473 17.1297 16.3536 17.2234C16.2598 17.3172 16.1326 17.3699 16 17.3699Z" fill="white"/>
</svg>
