<svg width="24" height="24" viewBox="0 0 24 24" fill="none" xmlns="http://www.w3.org/2000/svg">
<path d="M12 22.41C11.6383 22.4107 11.2808 22.3323 10.9525 22.1803C10.6243 22.0283 10.3333 21.8063 10.1 21.53L9.21998 20.53C9.07058 20.3543 8.88296 20.2153 8.67148 20.1234C8.46001 20.0315 8.2303 19.9893 7.99998 20L6.65998 20.12C6.29865 20.1501 5.93508 20.1013 5.59449 19.9769C5.25391 19.8526 4.94445 19.6556 4.68759 19.3997C4.43072 19.1438 4.2326 18.835 4.10696 18.4949C3.98132 18.1548 3.93117 17.7914 3.95998 17.43L3.99998 16.06C4.01859 15.8229 3.9802 15.5848 3.88799 15.3656C3.79579 15.1464 3.65246 14.9525 3.46998 14.8L2.46998 13.93C2.19229 13.6962 1.96906 13.4046 1.81592 13.0756C1.66278 12.7465 1.58344 12.3879 1.58344 12.025C1.58344 11.662 1.66278 11.3034 1.81592 10.9744C1.96906 10.6453 2.19229 10.3537 2.46998 10.12L3.46998 9.23997C3.64837 9.08849 3.78911 8.89762 3.88109 8.68242C3.97307 8.46723 4.01377 8.23359 3.99998 7.99997L3.89998 6.62997C3.86982 6.26864 3.91863 5.90507 4.04301 5.56449C4.16739 5.2239 4.36436 4.91444 4.62027 4.65758C4.87619 4.40072 5.18491 4.2026 5.52503 4.07695C5.86515 3.95131 6.22854 3.90116 6.58998 3.92997L7.93998 3.99997C8.17376 4.02342 8.40977 3.99126 8.62875 3.9061C8.84773 3.82094 9.04346 3.6852 9.19998 3.50997L10.07 2.50997C10.3032 2.22292 10.5974 1.99141 10.9312 1.83228C11.265 1.67314 11.6301 1.59037 12 1.58997C12.3617 1.58922 12.7192 1.6676 13.0474 1.81962C13.3756 1.97163 13.6666 2.19361 13.9 2.46997L14.78 3.46997C14.9303 3.64444 15.1181 3.78272 15.3294 3.87449C15.5406 3.96626 15.7698 4.00915 16 3.99997L17.34 3.87997C17.7013 3.84982 18.0649 3.89862 18.4055 4.023C18.746 4.14738 19.0555 4.34436 19.3124 4.60027C19.5692 4.85618 19.7674 5.1649 19.893 5.50503C20.0186 5.84515 20.0688 6.20853 20.04 6.56997L20 7.93997C19.9814 8.17705 20.0198 8.41513 20.112 8.63433C20.2042 8.85354 20.3475 9.04748 20.53 9.19997L21.53 10.07C21.8077 10.3037 22.0309 10.5953 22.184 10.9244C22.3372 11.2534 22.4165 11.612 22.4165 11.975C22.4165 12.3379 22.3372 12.6965 22.184 13.0256C22.0309 13.3546 21.8077 13.6462 21.53 13.88L20.53 14.76C20.3516 14.9115 20.2108 15.1023 20.1189 15.3175C20.0269 15.5327 19.9862 15.7663 20 16L20.12 17.35C20.1501 17.7113 20.1013 18.0749 19.9769 18.4155C19.8526 18.756 19.6556 19.0655 19.3997 19.3224C19.1438 19.5792 18.835 19.7773 18.4949 19.903C18.1548 20.0286 17.7914 20.0788 17.43 20.05L16.06 20C15.823 19.9822 15.5852 20.021 15.3661 20.1131C15.147 20.2052 14.953 20.3481 14.8 20.53L13.93 21.53C13.6971 21.8076 13.4065 22.0311 13.0783 22.1849C12.7501 22.3386 12.3924 22.4188 12.03 22.42L12 22.41ZM8.09998 19C8.46169 18.9992 8.81919 19.0776 9.14741 19.2296C9.47562 19.3816 9.76662 19.6036 9.99998 19.88L10.88 20.88C11.019 21.0471 11.1933 21.1813 11.3905 21.273C11.5876 21.3646 11.8026 21.4114 12.02 21.41C12.2383 21.4082 12.4537 21.36 12.652 21.2686C12.8502 21.1773 13.0268 21.0448 13.17 20.88L14.04 19.88C14.2921 19.5736 14.6151 19.3333 14.981 19.18C15.347 19.0267 15.7448 18.9649 16.14 19L17.49 19.1C17.7062 19.1199 17.9242 19.0917 18.1282 19.0173C18.3322 18.943 18.5173 18.8244 18.67 18.67C18.8235 18.5145 18.9414 18.3276 19.0156 18.1222C19.0899 17.9167 19.1186 17.6976 19.1 17.48L19 16.11C18.9634 15.7151 19.0224 15.3171 19.1721 14.9499C19.3218 14.5826 19.5578 14.2568 19.86 14L20.86 13.12C21.0282 12.9851 21.1647 12.8148 21.2597 12.6212C21.3548 12.4277 21.4061 12.2156 21.41 12C21.4082 11.7817 21.36 11.5662 21.2686 11.368C21.1773 11.1697 21.0448 10.9931 20.88 10.85L19.88 9.97997C19.5713 9.72533 19.3297 9.39896 19.1763 9.0294C19.0229 8.65984 18.9624 8.25834 19 7.85997L19.1 6.50997C19.1192 6.29379 19.0907 6.07602 19.0163 5.8721C18.942 5.66818 18.8238 5.4831 18.67 5.32997C18.5149 5.17593 18.3281 5.05763 18.1225 4.98336C17.917 4.90908 17.6977 4.88062 17.48 4.89997L16.11 4.99997C15.7148 5.03913 15.3161 4.98126 14.9484 4.83139C14.5807 4.68152 14.2552 4.44418 14 4.13997L13.12 3.13997C12.9851 2.97176 12.8148 2.83529 12.6212 2.74024C12.4277 2.64519 12.2156 2.59389 12 2.58997C11.7817 2.59176 11.5662 2.63993 11.368 2.73131C11.1697 2.82268 10.9931 2.95516 10.85 3.11997L9.97998 4.11997C9.72477 4.42795 9.39832 4.66905 9.02891 4.82239C8.65949 4.97573 8.25826 5.03669 7.85998 4.99997L6.50998 4.89997C6.29379 4.88074 6.07603 4.90929 5.8721 4.9836C5.66818 5.05791 5.4831 5.17616 5.32998 5.32997C5.17241 5.48877 5.05209 5.6806 4.97772 5.89159C4.90336 6.10258 4.8768 6.32746 4.89998 6.54997L4.99998 7.88997C5.03656 8.28488 4.97751 8.68279 4.82781 9.05006C4.67812 9.41733 4.44219 9.74315 4.13998 9.99997L3.13998 10.88C2.97177 11.0149 2.8353 11.1852 2.74025 11.3787C2.6452 11.5723 2.5939 11.7844 2.58998 12C2.59176 12.2183 2.63994 12.4337 2.73131 12.632C2.82269 12.8302 2.95517 13.0068 3.11998 13.15L4.11998 14.02C4.42863 14.2746 4.67021 14.601 4.82361 14.9705C4.97701 15.3401 5.03757 15.7416 4.99998 16.14L4.89998 17.49C4.88075 17.7062 4.9093 17.9239 4.98361 18.1278C5.05792 18.3318 5.17617 18.5168 5.32998 18.67C5.48503 18.824 5.67187 18.9423 5.87742 19.0166C6.08297 19.0909 6.30227 19.1193 6.51998 19.1L7.88998 19H8.09998Z" fill="white"/>
<path d="M12 15.5C11.0717 15.5 10.1815 15.1313 9.52513 14.4749C8.86875 13.8185 8.5 12.9283 8.5 12C8.5 11.0717 8.86875 10.1815 9.52513 9.52513C10.1815 8.86875 11.0717 8.5 12 8.5C12.9283 8.5 13.8185 8.86875 14.4749 9.52513C15.1313 10.1815 15.5 11.0717 15.5 12C15.5 12.9283 15.1313 13.8185 14.4749 14.4749C13.8185 15.1313 12.9283 15.5 12 15.5ZM12 9.5C11.337 9.5 10.7011 9.76339 10.2322 10.2322C9.76339 10.7011 9.5 11.337 9.5 12C9.5 12.663 9.76339 13.2989 10.2322 13.7678C10.7011 14.2366 11.337 14.5 12 14.5C12.663 14.5 13.2989 14.2366 13.7678 13.7678C14.2366 13.2989 14.5 12.663 14.5 12C14.5 11.337 14.2366 10.7011 13.7678 10.2322C13.2989 9.76339 12.663 9.5 12 9.5Z" fill="white"/>
</svg>
