<svg width="24" height="24" viewBox="0 0 24 24" fill="none" xmlns="http://www.w3.org/2000/svg">
<path d="M12 17.08C11.9194 17.0805 11.8401 17.0598 11.77 17.02C11.63 16.95 8.32001 15.19 7.62001 12.8C7.41072 12.2164 7.33619 11.593 7.402 10.9764C7.46781 10.3599 7.67225 9.76629 8.00001 9.23999C8.23559 8.92019 8.54511 8.66219 8.90211 8.48804C9.2591 8.3139 9.65296 8.22879 10.05 8.23999C10.4329 8.22947 10.8122 8.31557 11.153 8.49035C11.4938 8.66512 11.7851 8.92294 12 9.23999C12.2149 8.92294 12.5062 8.66512 12.847 8.49035C13.1878 8.31557 13.5671 8.22947 13.95 8.23999C14.3471 8.22879 14.7409 8.3139 15.0979 8.48804C15.4549 8.66219 15.7644 8.92019 16 9.23999C16.3278 9.76629 16.5322 10.3599 16.598 10.9764C16.6638 11.593 16.5893 12.2164 16.38 12.8C15.68 15.19 12.38 16.95 12.23 17.02C12.1599 17.0598 12.0806 17.0805 12 17.08ZM10.05 9.25999C9.81035 9.24889 9.57156 9.29583 9.35393 9.39681C9.1363 9.49779 8.94628 9.64982 8.80001 9.83999C8.56784 10.2428 8.4277 10.692 8.38967 11.1553C8.35163 11.6187 8.41663 12.0847 8.58001 12.52C9.07001 14.18 11.27 15.58 12 16C12.73 15.57 14.93 14.17 15.42 12.51C15.5834 12.0747 15.6484 11.6087 15.6103 11.1453C15.5723 10.682 15.4322 10.2328 15.2 9.82999C15.0577 9.64863 14.8753 9.50276 14.6671 9.40385C14.4588 9.30494 14.2305 9.2557 14 9.25999C13.8092 9.25866 13.6201 9.29526 13.4435 9.36766C13.267 9.44006 13.1066 9.54681 12.9717 9.68172C12.8368 9.81663 12.7301 9.97701 12.6577 10.1535C12.5853 10.3301 12.5487 10.5192 12.55 10.71C12.55 10.8426 12.4973 10.9698 12.4036 11.0635C12.3098 11.1573 12.1826 11.21 12.05 11.21C11.9174 11.21 11.7902 11.1573 11.6965 11.0635C11.6027 10.9698 11.55 10.8426 11.55 10.71C11.5487 10.5157 11.5087 10.3236 11.4323 10.145C11.3558 9.96634 11.2445 9.80477 11.1048 9.66972C10.9651 9.53468 10.7998 9.42887 10.6187 9.35852C10.4376 9.28816 10.2442 9.25467 10.05 9.25999Z" fill="white"/>
<path d="M12 21.5C10.1211 21.5 8.28435 20.9428 6.72209 19.899C5.15982 18.8551 3.94218 17.3714 3.22315 15.6355C2.50412 13.8996 2.31598 11.9895 2.68254 10.1466C3.0491 8.30383 3.95389 6.61109 5.28249 5.28249C6.61109 3.95389 8.30383 3.0491 10.1466 2.68254C11.9895 2.31598 13.8996 2.50412 15.6355 3.22315C17.3714 3.94218 18.8551 5.15982 19.899 6.72209C20.9428 8.28435 21.5 10.1211 21.5 12C21.4974 14.5187 20.4956 16.9336 18.7146 18.7146C16.9336 20.4956 14.5187 21.4974 12 21.5ZM12 3.5C10.3189 3.5 8.67548 3.99852 7.27766 4.93251C5.87984 5.8665 4.79037 7.19402 4.14703 8.74719C3.50368 10.3004 3.33535 12.0094 3.66333 13.6583C3.9913 15.3071 4.80085 16.8217 5.9896 18.0104C7.17834 19.1992 8.6929 20.0087 10.3417 20.3367C11.9906 20.6647 13.6996 20.4963 15.2528 19.853C16.806 19.2096 18.1335 18.1202 19.0675 16.7224C20.0015 15.3245 20.5 13.6811 20.5 12C20.4974 9.74648 19.601 7.58601 18.0075 5.99252C16.414 4.39903 14.2535 3.50265 12 3.5Z" fill="white"/>
</svg>
