<svg width="24" height="24" viewBox="0 0 24 24" fill="none" xmlns="http://www.w3.org/2000/svg">
<path d="M12 19.1401C9.22573 19.1374 6.56569 18.0348 4.60304 16.0741C2.6404 14.1133 1.53529 11.4543 1.53 8.68005C1.53 8.54745 1.58268 8.42027 1.67645 8.3265C1.77022 8.23273 1.89739 8.18005 2.03 8.18005H22C22.1326 8.18005 22.2598 8.23273 22.3536 8.3265C22.4473 8.42027 22.5 8.54745 22.5 8.68005C22.4974 10.0563 22.2237 11.4186 21.6946 12.6891C21.1655 13.9595 20.3914 15.1134 19.4163 16.0847C18.4413 17.056 17.2845 17.8257 16.012 18.35C14.7395 18.8742 13.3763 19.1427 12 19.1401ZM2.55 9.14005C2.66187 11.5711 3.70636 13.8656 5.46632 15.5464C7.22629 17.2273 9.56634 18.1652 12 18.1652C14.4337 18.1652 16.7737 17.2273 18.5337 15.5464C20.2936 13.8656 21.3381 11.5711 21.45 9.14005H2.55Z" fill="white"/>
<path d="M12 19.14C11.8674 19.14 11.7402 19.0873 11.6464 18.9936C11.5527 18.8998 11.5 18.7726 11.5 18.64V8.64001C11.4991 8.54099 11.5283 8.44404 11.5836 8.36192C11.639 8.27981 11.7179 8.21639 11.81 8.18001C11.9004 8.14067 12.0007 8.13012 12.0974 8.1498C12.194 8.16948 12.2822 8.21843 12.35 8.29001L19.35 15.29C19.4416 15.3835 19.4929 15.5091 19.4929 15.64C19.4929 15.7709 19.4416 15.8965 19.35 15.99C19.3035 16.0369 19.2482 16.0741 19.1873 16.0995C19.1264 16.1248 19.061 16.1379 18.995 16.1379C18.929 16.1379 18.8636 16.1248 18.8027 16.0995C18.7418 16.0741 18.6865 16.0369 18.64 15.99L12.5 9.89001V18.64C12.5 18.7726 12.4473 18.8998 12.3536 18.9936C12.2598 19.0873 12.1326 19.14 12 19.14Z" fill="white"/>
<path d="M5 16.2201C4.86684 16.2194 4.73863 16.1695 4.64 16.0801C4.54775 15.9849 4.49616 15.8576 4.49616 15.7251C4.49616 15.5925 4.54775 15.4652 4.64 15.3701L11.69 8.37007C11.7828 8.27725 11.9087 8.2251 12.04 8.2251C12.1713 8.2251 12.2972 8.27725 12.39 8.37007C12.4828 8.4629 12.535 8.5888 12.535 8.72007C12.535 8.85135 12.4828 8.97725 12.39 9.07007L5.39 16.0701C5.33822 16.1197 5.27706 16.1586 5.2101 16.1843C5.14313 16.2101 5.07171 16.2222 5 16.2201Z" fill="white"/>
</svg>
