<svg width="24" height="24" viewBox="0 0 24 24" fill="none" xmlns="http://www.w3.org/2000/svg">
<path d="M12 22.5C9.9233 22.5 7.89323 21.8842 6.16652 20.7304C4.4398 19.5767 3.09399 17.9368 2.29927 16.0182C1.50455 14.0996 1.29661 11.9884 1.70176 9.95156C2.1069 7.91476 3.10693 6.04384 4.57538 4.57538C6.04384 3.10693 7.91476 2.1069 9.95156 1.70176C11.9884 1.29661 14.0996 1.50455 16.0182 2.29927C17.9368 3.09399 19.5767 4.4398 20.7304 6.16652C21.8842 7.89323 22.5 9.9233 22.5 12C22.4974 14.784 21.3903 17.4531 19.4217 19.4217C17.4531 21.3903 14.784 22.4974 12 22.5ZM12 2.5C10.1211 2.5 8.28435 3.05717 6.72209 4.10104C5.15982 5.14492 3.94218 6.62861 3.22315 8.36451C2.50412 10.1004 2.31599 12.0105 2.68254 13.8534C3.0491 15.6962 3.95389 17.3889 5.28249 18.7175C6.61109 20.0461 8.30383 20.9509 10.1466 21.3175C11.9895 21.684 13.8996 21.4959 15.6355 20.7769C17.3714 20.0578 18.8551 18.8402 19.899 17.2779C20.9428 15.7157 21.5 13.8789 21.5 12C21.4974 9.48126 20.4956 7.06644 18.7146 5.28541C16.9336 3.50439 14.5187 2.50265 12 2.5Z" fill="white"/>
<path d="M9.16998 15.33C9.07212 15.3286 8.97681 15.2986 8.89587 15.2435C8.81493 15.1885 8.75193 15.1109 8.71466 15.0204C8.6774 14.9299 8.66751 14.8305 8.68623 14.7344C8.70496 14.6384 8.75146 14.5499 8.81998 14.48L14.47 8.82002C14.5165 8.77315 14.5718 8.73596 14.6327 8.71057C14.6936 8.68519 14.759 8.67212 14.825 8.67212C14.891 8.67212 14.9563 8.68519 15.0173 8.71057C15.0782 8.73596 15.1335 8.77315 15.18 8.82002C15.2278 8.86491 15.2659 8.91913 15.292 8.97932C15.3181 9.03952 15.3315 9.10442 15.3315 9.17002C15.3315 9.23561 15.3181 9.30052 15.292 9.36071C15.2659 9.42091 15.2278 9.47513 15.18 9.52002L9.51998 15.18C9.47533 15.2281 9.42113 15.2662 9.36085 15.2921C9.30057 15.3179 9.23555 15.3308 9.16998 15.33Z" fill="white"/>
<path d="M14.83 15.33C14.6949 15.3297 14.5654 15.2757 14.47 15.18L8.82002 9.52002C8.77406 9.47406 8.7376 9.4195 8.71273 9.35944C8.68785 9.29939 8.67505 9.23502 8.67505 9.17002C8.67505 9.10502 8.68785 9.04066 8.71273 8.98061C8.7376 8.92055 8.77406 8.86599 8.82002 8.82002C8.86599 8.77406 8.92055 8.7376 8.98061 8.71273C9.04066 8.68785 9.10502 8.67505 9.17002 8.67505C9.23502 8.67505 9.29939 8.68785 9.35944 8.71273C9.4195 8.7376 9.47406 8.77406 9.52002 8.82002L15.18 14.48C15.2485 14.5499 15.295 14.6384 15.3138 14.7344C15.3325 14.8305 15.3226 14.9299 15.2853 15.0204C15.2481 15.1109 15.1851 15.1885 15.1041 15.2436C15.0232 15.2986 14.9279 15.3286 14.83 15.33Z" fill="white"/>
</svg>
