<svg width="24" height="24" viewBox="0 0 24 24" fill="none" xmlns="http://www.w3.org/2000/svg">
<path d="M19.76 16H4.24C3.51331 16 2.81638 15.7113 2.30253 15.1975C1.78868 14.6836 1.5 13.9867 1.5 13.26V7.74C1.5 7.01331 1.78868 6.31638 2.30253 5.80253C2.81638 5.28868 3.51331 5 4.24 5H19.76C20.4867 5 21.1836 5.28868 21.6975 5.80253C22.2113 6.31638 22.5 7.01331 22.5 7.74V13.26C22.5 13.9867 22.2113 14.6836 21.6975 15.1975C21.1836 15.7113 20.4867 16 19.76 16ZM4.24 6C3.77852 6 3.33595 6.18332 3.00963 6.50963C2.68332 6.83595 2.5 7.27852 2.5 7.74V13.26C2.5 13.7215 2.68332 14.1641 3.00963 14.4904C3.33595 14.8167 3.77852 15 4.24 15H19.76C20.2215 15 20.6641 14.8167 20.9904 14.4904C21.3167 14.1641 21.5 13.7215 21.5 13.26V7.74C21.5 7.27852 21.3167 6.83595 20.9904 6.50963C20.6641 6.18332 20.2215 6 19.76 6H4.24Z" fill="white"/>
<path d="M17 13C16.5055 13 16.0222 12.8534 15.6111 12.5787C15.2 12.304 14.8795 11.9135 14.6903 11.4567C14.5011 10.9999 14.4516 10.4972 14.548 10.0123C14.6445 9.52732 14.8826 9.08187 15.2322 8.73223C15.5819 8.3826 16.0273 8.1445 16.5123 8.04804C16.9972 7.95157 17.4999 8.00108 17.9567 8.1903C18.4135 8.37952 18.804 8.69995 19.0787 9.11108C19.3534 9.5222 19.5 10.0055 19.5 10.5C19.5 11.163 19.2366 11.7989 18.7678 12.2678C18.2989 12.7366 17.663 13 17 13ZM17 9C16.7033 9 16.4133 9.08797 16.1666 9.2528C15.92 9.41762 15.7277 9.65189 15.6142 9.92598C15.5007 10.2001 15.4709 10.5017 15.5288 10.7926C15.5867 11.0836 15.7296 11.3509 15.9393 11.5607C16.1491 11.7704 16.4164 11.9133 16.7074 11.9712C16.9983 12.0291 17.2999 11.9994 17.574 11.8858C17.8481 11.7723 18.0824 11.58 18.2472 11.3334C18.412 11.0867 18.5 10.7967 18.5 10.5C18.5 10.1022 18.342 9.72065 18.0607 9.43934C17.7794 9.15804 17.3978 9 17 9Z" fill="white"/>
<path d="M12 11H5C4.86739 11 4.74021 10.9473 4.64645 10.8536C4.55268 10.7598 4.5 10.6326 4.5 10.5C4.5 10.3674 4.55268 10.2402 4.64645 10.1464C4.74021 10.0527 4.86739 10 5 10H12C12.1326 10 12.2598 10.0527 12.3536 10.1464C12.4473 10.2402 12.5 10.3674 12.5 10.5C12.5 10.6326 12.4473 10.7598 12.3536 10.8536C12.2598 10.9473 12.1326 11 12 11Z" fill="white"/>
<path d="M6.28 19C6.14739 19 6.02021 18.9473 5.92645 18.8536C5.83268 18.7598 5.78 18.6326 5.78 18.5V15.5C5.78 15.3674 5.83268 15.2402 5.92645 15.1464C6.02021 15.0527 6.14739 15 6.28 15C6.41261 15 6.53978 15.0527 6.63355 15.1464C6.72732 15.2402 6.78 15.3674 6.78 15.5V18.5C6.78 18.6326 6.72732 18.7598 6.63355 18.8536C6.53978 18.9473 6.41261 19 6.28 19Z" fill="white"/>
<path d="M17.72 19C17.5874 19 17.4602 18.9473 17.3664 18.8536C17.2727 18.7598 17.22 18.6326 17.22 18.5V15.5C17.22 15.3674 17.2727 15.2402 17.3664 15.1464C17.4602 15.0527 17.5874 15 17.72 15C17.8526 15 17.9798 15.0527 18.0736 15.1464C18.1673 15.2402 18.22 15.3674 18.22 15.5V18.5C18.22 18.6326 18.1673 18.7598 18.0736 18.8536C17.9798 18.9473 17.8526 19 17.72 19Z" fill="white"/>
</svg>
