<svg width="24" height="24" viewBox="0 0 24 24" fill="none" xmlns="http://www.w3.org/2000/svg">
<path d="M19.23 15.9999H4.76999C4.63738 15.9999 4.5102 15.9472 4.41644 15.8534C4.32267 15.7597 4.26999 15.6325 4.26999 15.4999V5.88989C4.26999 5.49207 4.42802 5.11054 4.70933 4.82923C4.99063 4.54793 5.37216 4.38989 5.76999 4.38989H18.22C18.6187 4.38988 19.0013 4.5476 19.2842 4.82862C19.5671 5.10964 19.7273 5.49115 19.73 5.88989V15.4499C19.737 15.5196 19.7293 15.5901 19.7073 15.6566C19.6853 15.7232 19.6496 15.7844 19.6025 15.8362C19.5553 15.8881 19.4978 15.9295 19.4336 15.9577C19.3695 15.9859 19.3001 16.0002 19.23 15.9999ZM5.22999 14.9999H18.73V5.88989C18.7274 5.75637 18.6725 5.62921 18.5771 5.53572C18.4818 5.44222 18.3535 5.38987 18.22 5.38989H5.76999C5.63818 5.39245 5.51249 5.44595 5.41927 5.53917C5.32605 5.63239 5.27255 5.75809 5.26999 5.88989L5.22999 14.9999Z" fill="white"/>
<path d="M20.75 19.61H3.25C3.11739 19.61 2.99021 19.5573 2.89645 19.4635C2.80268 19.3697 2.75 19.2426 2.75 19.11V15.45C2.75 15.3173 2.80268 15.1902 2.89645 15.0964C2.99021 15.0026 3.11739 14.95 3.25 14.95H20.75C20.8826 14.95 21.0098 15.0026 21.1036 15.0964C21.1973 15.1902 21.25 15.3173 21.25 15.45V19.11C21.25 19.2426 21.1973 19.3697 21.1036 19.4635C21.0098 19.5573 20.8826 19.61 20.75 19.61ZM3.75 18.61H20.25V16H3.75V18.61Z" fill="white"/>
</svg>
