<svg width="24" height="24" viewBox="0 0 24 24" fill="none" xmlns="http://www.w3.org/2000/svg">
<path d="M12 22.5C9.9233 22.5 7.89323 21.8842 6.16652 20.7304C4.4398 19.5767 3.09399 17.9368 2.29927 16.0182C1.50455 14.0996 1.29661 11.9884 1.70176 9.95156C2.1069 7.91476 3.10693 6.04384 4.57538 4.57538C6.04384 3.10693 7.91476 2.1069 9.95156 1.70176C11.9884 1.29661 14.0996 1.50455 16.0182 2.29927C17.9368 3.09399 19.5767 4.4398 20.7304 6.16652C21.8842 7.89323 22.5 9.9233 22.5 12C22.4974 14.784 21.3903 17.4531 19.4217 19.4217C17.4531 21.3903 14.784 22.4974 12 22.5ZM12 2.5C10.1211 2.5 8.28435 3.05717 6.72209 4.10104C5.15982 5.14492 3.94218 6.62861 3.22315 8.36451C2.50412 10.1004 2.31599 12.0105 2.68254 13.8534C3.0491 15.6962 3.95389 17.3889 5.28249 18.7175C6.61109 20.0461 8.30383 20.9509 10.1466 21.3175C11.9895 21.684 13.8996 21.4959 15.6355 20.7769C17.3714 20.0578 18.8551 18.8402 19.899 17.2779C20.9428 15.7157 21.5 13.8789 21.5 12C21.4974 9.48126 20.4956 7.06644 18.7146 5.28541C16.9336 3.50439 14.5187 2.50265 12 2.5Z" fill="white"/>
<path d="M9 16.0001C8.86739 16.0001 8.74021 15.9474 8.64645 15.8536C8.55268 15.7598 8.5 15.6327 8.5 15.5001V8.56006C8.5 8.42745 8.55268 8.30027 8.64645 8.2065C8.74021 8.11274 8.86739 8.06006 9 8.06006C9.13261 8.06006 9.25979 8.11274 9.35355 8.2065C9.44732 8.30027 9.5 8.42745 9.5 8.56006V15.5001C9.5 15.6327 9.44732 15.7598 9.35355 15.8536C9.25979 15.9474 9.13261 16.0001 9 16.0001Z" fill="white"/>
<path d="M15 16.0001C14.8674 16.0001 14.7402 15.9474 14.6464 15.8536C14.5527 15.7598 14.5 15.6327 14.5 15.5001V8.56006C14.5 8.42745 14.5527 8.30027 14.6464 8.2065C14.7402 8.11274 14.8674 8.06006 15 8.06006C15.1318 8.06262 15.2575 8.11612 15.3507 8.20934C15.4439 8.30256 15.4974 8.42825 15.5 8.56006V15.5001C15.5 15.6327 15.4473 15.7598 15.3536 15.8536C15.2598 15.9474 15.1326 16.0001 15 16.0001Z" fill="white"/>
</svg>
