<svg width="24" height="24" viewBox="0 0 24 24" fill="none" xmlns="http://www.w3.org/2000/svg">
<path d="M14 20.82C13.8674 20.82 13.7402 20.7673 13.6464 20.6736C13.5527 20.5798 13.5 20.4526 13.5 20.32V14.54C13.4959 14.4714 13.5058 14.4026 13.529 14.3379C13.5521 14.2732 13.5882 14.2139 13.6349 14.1634C13.6816 14.113 13.738 14.0725 13.8007 14.0444C13.8635 14.0163 13.9312 14.0012 14 14H19.69C19.8218 14.0026 19.9475 14.0561 20.0407 14.1493C20.1339 14.2425 20.1874 14.3682 20.19 14.5C20.19 14.6326 20.1373 14.7598 20.0435 14.8536C19.9498 14.9473 19.8226 15 19.69 15H14.45V20.28C14.4611 20.4111 14.4201 20.5413 14.3359 20.6424C14.2516 20.7435 14.1309 20.8073 14 20.82Z" fill="white"/>
<path d="M10.05 20.82C9.91738 20.82 9.7902 20.7673 9.69643 20.6736C9.60266 20.5798 9.54999 20.4526 9.54999 20.32V15H4.35999C4.22738 15 4.1002 14.9473 4.00643 14.8536C3.91266 14.7598 3.85999 14.6326 3.85999 14.5C3.86255 14.3682 3.91605 14.2425 4.00926 14.1493C4.10248 14.0561 4.22818 14.0026 4.35999 14H10.05C10.1818 14.0026 10.3075 14.0561 10.4007 14.1493C10.4939 14.2425 10.5474 14.3682 10.55 14.5V20.28C10.5555 20.3489 10.5467 20.4183 10.5241 20.4836C10.5014 20.549 10.4655 20.609 10.4185 20.6597C10.3715 20.7105 10.3145 20.7509 10.251 20.7785C10.1876 20.8061 10.1192 20.8202 10.05 20.82Z" fill="white"/>
<path d="M10.05 11.05H4.35999C4.22818 11.0475 4.10248 10.994 4.00926 10.9007C3.91605 10.8075 3.86255 10.6818 3.85999 10.55C3.85999 10.4174 3.91266 10.2902 4.00643 10.1965C4.1002 10.1027 4.22738 10.05 4.35999 10.05H9.54999V4.77002C9.54999 4.63741 9.60266 4.51023 9.69643 4.41647C9.7902 4.3227 9.91738 4.27002 10.05 4.27002C10.1826 4.27002 10.3098 4.3227 10.4035 4.41647C10.4973 4.51023 10.55 4.63741 10.55 4.77002V10.55C10.5474 10.6818 10.4939 10.8075 10.4007 10.9007C10.3075 10.994 10.1818 11.0475 10.05 11.05Z" fill="white"/>
<path d="M19.64 11.05H14C13.8682 11.0475 13.7425 10.994 13.6493 10.9007C13.5561 10.8075 13.5026 10.6818 13.5 10.55V4.77002C13.5 4.63741 13.5527 4.51023 13.6464 4.41647C13.7402 4.3227 13.8674 4.27002 14 4.27002C14.1326 4.27002 14.2598 4.3227 14.3536 4.41647C14.4473 4.51023 14.5 4.63741 14.5 4.77002V10.05H19.69C19.8226 10.05 19.9498 10.1027 20.0436 10.1965C20.1373 10.2902 20.19 10.4174 20.19 10.55C20.1889 10.6197 20.1735 10.6883 20.1448 10.7518C20.1161 10.8152 20.0747 10.8721 20.0231 10.919C19.9716 10.9658 19.911 11.0016 19.8451 11.0241C19.7792 11.0467 19.7094 11.0555 19.64 11.05Z" fill="white"/>
</svg>
