<svg width="24" height="24" viewBox="0 0 24 24" fill="none" xmlns="http://www.w3.org/2000/svg">
<path d="M18.05 14.7202C17.9182 14.7176 17.7925 14.6641 17.6993 14.5709C17.606 14.4777 17.5525 14.352 17.55 14.2202C17.5543 14.0859 17.6077 13.9578 17.7 13.8602C17.747 13.8177 17.8012 13.7838 17.86 13.7602C17.9817 13.7102 18.1183 13.7102 18.24 13.7602C18.303 13.7814 18.3609 13.8154 18.41 13.8602C18.4994 13.9588 18.5493 14.087 18.55 14.2202C18.5508 14.3506 18.5005 14.4762 18.41 14.5702C18.3123 14.6625 18.1843 14.7158 18.05 14.7202Z" fill="white"/>
<path d="M5.26999 14.7202C5.13834 14.7172 5.01292 14.6635 4.91999 14.5702C4.87196 14.5255 4.83379 14.4713 4.80796 14.411C4.78213 14.3508 4.76919 14.2857 4.76999 14.2202C4.77032 14.085 4.82427 13.9556 4.91999 13.8602C4.96547 13.8157 5.02006 13.7815 5.07999 13.7602C5.20172 13.7102 5.33826 13.7102 5.45999 13.7602C5.51993 13.7815 5.57452 13.8157 5.61999 13.8602C5.71571 13.9556 5.76966 14.085 5.76999 14.2202C5.77079 14.2857 5.75786 14.3508 5.73203 14.411C5.70619 14.4713 5.66803 14.5255 5.61999 14.5702C5.52707 14.6635 5.40165 14.7172 5.26999 14.7202Z" fill="white"/>
<path d="M12 10.0801C11.8839 10.0778 11.772 10.0359 11.6829 9.96133C11.5938 9.88677 11.5328 9.78402 11.51 9.67009C11.4155 9.05974 11.4437 8.43665 11.5931 7.83736C11.7425 7.23807 12.01 6.67463 12.38 6.18009C12.8974 5.63468 13.5312 5.21298 14.2341 4.94635C14.9371 4.67972 15.6911 4.57504 16.44 4.64009C16.5726 4.64009 16.6998 4.69277 16.7936 4.78654C16.8873 4.88031 16.94 5.00748 16.94 5.14009C16.94 5.2727 16.8873 5.39988 16.7936 5.49364C16.6998 5.58741 16.5726 5.64009 16.44 5.64009C15.8465 5.58763 15.2487 5.66612 14.6889 5.87001C14.129 6.07391 13.6208 6.39824 13.2 6.82009C12.6353 7.58766 12.398 8.54782 12.54 9.49009C12.5515 9.55513 12.55 9.62179 12.5355 9.68623C12.5211 9.75067 12.494 9.81162 12.4559 9.86555C12.4178 9.91947 12.3694 9.96531 12.3134 10.0004C12.2575 10.0355 12.1952 10.0592 12.13 10.0701L12 10.0801Z" fill="white"/>
<path d="M6 19.3602C5.32257 19.3623 4.65156 19.2289 4.02644 18.9679C3.40133 18.7068 2.83473 18.3234 2.36 17.8402C1.40368 16.874 0.867249 15.5695 0.867249 14.2102C0.867249 12.8508 1.40368 11.5463 2.36 10.5802C2.83707 10.1014 3.40454 9.72226 4.02943 9.46476C4.65431 9.20725 5.32415 9.07651 6 9.08015C6.13261 9.08015 6.25979 9.13283 6.35355 9.2266C6.44732 9.32037 6.5 9.44754 6.5 9.58015C6.5 9.71276 6.44732 9.83994 6.35355 9.93371C6.25979 10.0275 6.13261 10.0802 6 10.0802C5.31811 10.0777 4.64618 10.2437 4.0439 10.5635C3.44162 10.8832 2.92764 11.3468 2.54764 11.913C2.16764 12.4792 1.93338 13.1305 1.86566 13.809C1.79795 14.4876 1.89889 15.1723 2.15951 15.8024C2.42013 16.4325 2.83236 16.9885 3.35957 17.421C3.88679 17.8535 4.51266 18.149 5.18158 18.2814C5.85051 18.4137 6.54177 18.3788 7.19396 18.1797C7.84614 17.9806 8.43905 17.6235 8.92 17.1402C8.96648 17.0933 9.02178 17.0561 9.08271 17.0307C9.14364 17.0053 9.209 16.9923 9.275 16.9923C9.34101 16.9923 9.40636 17.0053 9.46729 17.0307C9.52822 17.0561 9.58352 17.0933 9.63 17.1402C9.72162 17.2336 9.77293 17.3593 9.77293 17.4902C9.77293 17.621 9.72162 17.7467 9.63 17.8402C9.15645 18.3222 8.59148 18.7049 7.96817 18.9659C7.34486 19.2269 6.67575 19.361 6 19.3602Z" fill="white"/>
<path d="M18.05 19.3602C17.3743 19.361 16.7052 19.2269 16.0819 18.9659C15.4586 18.7049 14.8936 18.3222 14.42 17.8402C14.3284 17.7467 14.2771 17.621 14.2771 17.4902C14.2771 17.3593 14.3284 17.2336 14.42 17.1402C14.4665 17.0933 14.5218 17.0561 14.5827 17.0307C14.6437 17.0053 14.709 16.9923 14.775 16.9923C14.841 16.9923 14.9064 17.0053 14.9673 17.0307C15.0282 17.0561 15.0835 17.0933 15.13 17.1402C15.611 17.6235 16.2039 17.9806 16.8561 18.1797C17.5083 18.3788 18.1995 18.4137 18.8684 18.2814C19.5374 18.149 20.1632 17.8535 20.6905 17.421C21.2177 16.9885 21.6299 16.4325 21.8905 15.8024C22.1511 15.1723 22.2521 14.4876 22.1844 13.809C22.1167 13.1305 21.8824 12.4792 21.5024 11.913C21.1224 11.3468 20.6084 10.8832 20.0061 10.5635C19.4039 10.2437 18.7319 10.0777 18.05 10.0802C17.9174 10.0802 17.7902 10.0275 17.6965 9.93371C17.6027 9.83994 17.55 9.71276 17.55 9.58015C17.55 9.44754 17.6027 9.32037 17.6965 9.2266C17.7902 9.13283 17.9174 9.08015 18.05 9.08015C18.7259 9.07651 19.3957 9.20725 20.0206 9.46476C20.6455 9.72226 21.213 10.1014 21.69 10.5802C22.647 11.548 23.1837 12.8541 23.1837 14.2152C23.1837 15.5762 22.647 16.8823 21.69 17.8502C21.2135 18.3303 20.6463 18.7109 20.0214 18.9702C19.3966 19.2294 18.7265 19.3619 18.05 19.3602Z" fill="white"/>
<path d="M14.78 18H9.22C9.08739 18 8.96022 17.9473 8.86645 17.8536C8.77268 17.7598 8.72 17.6326 8.72 17.5C8.72256 17.3682 8.77606 17.2425 8.86928 17.1493C8.9625 17.0561 9.08819 17.0026 9.22 17H14.78C14.9118 17.0026 15.0375 17.0561 15.1307 17.1493C15.2239 17.2425 15.2774 17.3682 15.28 17.5C15.28 17.5657 15.2671 17.6307 15.2419 17.6913C15.2168 17.752 15.18 17.8071 15.1336 17.8536C15.0871 17.9 15.032 17.9368 14.9713 17.9619C14.9107 17.9871 14.8457 18 14.78 18Z" fill="white"/>
<path d="M18.05 10.0801H6C5.86739 10.0801 5.74021 10.0274 5.64645 9.93363C5.55268 9.83986 5.5 9.71269 5.5 9.58008C5.5 9.44747 5.55268 9.32029 5.64645 9.22652C5.74021 9.13276 5.86739 9.08008 6 9.08008H18.1C18.2326 9.08008 18.3598 9.13276 18.4536 9.22652C18.5473 9.32029 18.6 9.44747 18.6 9.58008C18.6 9.71269 18.5473 9.83986 18.4536 9.93363C18.3598 10.0274 18.2326 10.0801 18.1 10.0801H18.05Z" fill="white"/>
</svg>
