<svg width="24" height="24" viewBox="0 0 24 24" fill="none" xmlns="http://www.w3.org/2000/svg">
<path d="M14.44 20.4799C13.298 20.4819 12.181 20.1449 11.2306 19.5117C10.2802 18.8784 9.5391 17.9774 9.10114 16.9226C8.66319 15.8679 8.54808 14.7069 8.7704 13.5867C8.99271 12.4665 9.54246 11.4375 10.35 10.6299C11.1576 9.82239 12.1866 9.27264 13.3068 9.05033C14.427 8.82801 15.588 8.94312 16.6427 9.38107C17.6974 9.81903 18.5985 10.5601 19.2318 11.5105C19.865 12.4609 20.202 13.5779 20.2 14.7199C20.1974 16.2468 19.5897 17.7103 18.51 18.7899C17.4304 19.8696 15.9668 20.4773 14.44 20.4799ZM14.44 9.94993C13.4962 9.94796 12.573 10.226 11.7872 10.749C11.0015 11.2719 10.3885 12.0162 10.026 12.8876C9.66341 13.759 9.56752 14.7184 9.75044 15.6444C9.93336 16.5703 10.3869 17.4212 11.0536 18.0893C11.7203 18.7574 12.5702 19.2127 13.4957 19.3975C14.4213 19.5824 15.3809 19.4885 16.2531 19.1278C17.1253 18.7671 17.8708 18.1557 18.3954 17.371C18.92 16.5864 19.2 15.6638 19.2 14.7199C19.1869 13.4653 18.6799 12.2663 17.7889 11.3828C16.8979 10.4993 15.6947 10.0025 14.44 9.99994V9.94993Z" fill="white"/>
<path d="M4.3 10.82C4.16685 10.8193 4.03864 10.7695 3.94 10.68C3.84775 10.5848 3.79617 10.4575 3.79617 10.325C3.79617 10.1925 3.84775 10.0651 3.94 9.97L10.24 3.67C10.3342 3.57584 10.4619 3.52295 10.595 3.52295C10.7282 3.52295 10.8559 3.57584 10.95 3.67C11.0442 3.76415 11.097 3.89184 11.097 4.025C11.097 4.15815 11.0442 4.28584 10.95 4.38L4.65 10.68C4.55394 10.7672 4.4297 10.8169 4.3 10.82Z" fill="white"/>
<path d="M11 11.2401C10.9344 11.2409 10.8694 11.2279 10.8091 11.2021C10.7489 11.1763 10.6946 11.1381 10.65 11.0901L7.09 7.53005C7.04314 7.48357 7.00594 7.42827 6.98055 7.36734C6.95517 7.30641 6.9421 7.24106 6.9421 7.17505C6.9421 7.10905 6.95517 7.04369 6.98055 6.98276C7.00594 6.92183 7.04314 6.86653 7.09 6.82005C7.18346 6.72844 7.30912 6.67712 7.44 6.67712C7.57088 6.67712 7.69654 6.72844 7.79 6.82005L11.36 10.3801C11.4069 10.4265 11.4441 10.4818 11.4694 10.5428C11.4948 10.6037 11.5079 10.669 11.5079 10.7351C11.5079 10.8011 11.4948 10.8664 11.4694 10.9273C11.4441 10.9883 11.4069 11.0436 11.36 11.0901C11.3142 11.1394 11.2584 11.1783 11.1963 11.2042C11.1342 11.23 11.0672 11.2423 11 11.2401Z" fill="white"/>
</svg>
