<svg width="24" height="24" viewBox="0 0 24 24" fill="none" xmlns="http://www.w3.org/2000/svg">
<path d="M12 23.1601C11.9351 23.1622 11.8706 23.1508 11.8103 23.1267C11.7501 23.1026 11.6955 23.0663 11.65 23.0201L7.75999 19.1901C7.66667 19.0972 7.61292 18.9717 7.60999 18.8401V7.23008C7.60999 7.09747 7.66266 6.9703 7.75643 6.87653C7.8502 6.78276 7.97738 6.73008 8.10998 6.73008H15.89C15.9552 6.72875 16.02 6.74044 16.0806 6.76447C16.1412 6.7885 16.1964 6.82438 16.243 6.87002C16.2895 6.91565 16.3265 6.97012 16.3518 7.03023C16.377 7.09034 16.39 7.15488 16.39 7.22008L16.47 18.7601C16.4697 18.8952 16.4157 19.0247 16.32 19.1201L12.38 23.0001C12.3335 23.0545 12.2749 23.0973 12.2089 23.125C12.1429 23.1528 12.0714 23.1648 12 23.1601ZM8.60998 18.6301L12 22.0001L15.44 18.5901L15.4 7.73008H8.60998V18.6301Z" fill="white"/>
<path d="M19.7 7.7301H4.29999C4.16738 7.7301 4.0402 7.67742 3.94643 7.58366C3.85267 7.48989 3.79999 7.36271 3.79999 7.2301C3.79999 7.09749 3.85267 6.97032 3.94643 6.87655C4.0402 6.78278 4.16738 6.7301 4.29999 6.7301H19.7C19.8326 6.7301 19.9598 6.78278 20.0535 6.87655C20.1473 6.97032 20.2 7.09749 20.2 7.2301C20.2 7.36271 20.1473 7.48989 20.0535 7.58366C19.9598 7.67742 19.8326 7.7301 19.7 7.7301Z" fill="white"/>
<path d="M9.69 7.73004C9.5582 7.72748 9.4325 7.67398 9.33928 7.58076C9.24606 7.48755 9.19256 7.36185 9.19 7.23004V1.92004C9.19 1.78744 9.24268 1.66026 9.33645 1.56649C9.43022 1.47272 9.55739 1.42004 9.69 1.42004H14.36C14.4951 1.42037 14.6246 1.47432 14.72 1.57004C14.91 1.76004 14.93 1.79004 14.86 7.23004C14.8574 7.36185 14.8039 7.48755 14.7107 7.58076C14.6175 7.67398 14.4918 7.72748 14.36 7.73004C14.2943 7.72874 14.2296 7.71452 14.1694 7.68818C14.1092 7.66185 14.0549 7.62392 14.0093 7.57655C13.9638 7.52919 13.9281 7.47333 13.9042 7.41216C13.8803 7.35099 13.8687 7.28571 13.87 7.22004C13.87 5.70004 13.87 3.37004 13.87 2.42004H10.17V7.23004C10.1701 7.35926 10.1202 7.4835 10.0307 7.57671C9.94121 7.66992 9.81911 7.72488 9.69 7.73004Z" fill="white"/>
</svg>
