<svg width="24" height="24" viewBox="0 0 24 24" fill="none" xmlns="http://www.w3.org/2000/svg">
<path d="M12 22.3099C9.96088 22.3099 7.96755 21.7053 6.27208 20.5724C4.57661 19.4395 3.25515 17.8293 2.47481 15.9454C1.69447 14.0615 1.4903 11.9885 1.88811 9.98856C2.28592 7.98862 3.26786 6.15155 4.70974 4.70968C6.15162 3.2678 7.98868 2.28586 9.98863 1.88805C11.9886 1.49024 14.0616 1.69441 15.9455 2.47475C17.8294 3.25509 19.4396 4.57655 20.5725 6.27202C21.7053 7.96749 22.31 9.96082 22.31 11.9999C22.3074 14.7335 21.2203 17.3544 19.2874 19.2873C17.3544 21.2202 14.7336 22.3073 12 22.3099ZM12 2.68995C10.1587 2.68995 8.35867 3.23597 6.82765 4.25896C5.29663 5.28196 4.10334 6.73598 3.39869 8.43716C2.69404 10.1383 2.50967 12.0103 2.8689 13.8162C3.22812 15.6222 4.11482 17.2811 5.41684 18.5831C6.71887 19.8851 8.37775 20.7718 10.1837 21.1311C11.9897 21.4903 13.8616 21.3059 15.5628 20.6013C17.264 19.8966 18.718 18.7033 19.741 17.1723C20.764 15.6413 21.31 13.8413 21.31 11.9999C21.3047 9.5324 20.3222 7.16744 18.5773 5.42262C16.8325 3.6778 14.4675 2.69523 12 2.68995Z" fill="white"/>
<path d="M8.11002 16C7.56612 16 7.03443 15.8387 6.5822 15.5365C6.12996 15.2344 5.77749 14.8049 5.56935 14.3024C5.36121 13.7999 5.30675 13.247 5.41286 12.7135C5.51897 12.1801 5.78088 11.6901 6.16547 11.3055C6.55007 10.9209 7.04007 10.659 7.57352 10.5528C8.10697 10.4467 8.6599 10.5012 9.1624 10.7093C9.66489 10.9175 10.0944 11.2699 10.3966 11.7222C10.6987 12.1744 10.86 12.7061 10.86 13.25C10.86 13.6111 10.7889 13.9687 10.6507 14.3024C10.5125 14.636 10.3099 14.9392 10.0546 15.1945C9.7992 15.4499 9.49604 15.6525 9.1624 15.7907C8.82875 15.9289 8.47115 16 8.11002 16ZM8.11002 11.5C7.7618 11.5001 7.42154 11.6042 7.13277 11.7988C6.844 11.9934 6.61985 12.2697 6.489 12.5924C6.35814 12.9151 6.32653 13.2695 6.39821 13.6102C6.46988 13.951 6.64159 14.2626 6.89136 14.5052C7.14113 14.7479 7.4576 14.9105 7.80029 14.9722C8.14299 15.034 8.49632 14.9921 8.81508 14.852C9.13385 14.7118 9.40356 14.4798 9.5897 14.1855C9.77585 13.8912 9.86997 13.5481 9.86002 13.2C9.85739 12.7367 9.67217 12.2931 9.34455 11.9655C9.01693 11.6378 8.57334 11.4526 8.11002 11.45V11.5Z" fill="white"/>
<path d="M15.89 16C15.3461 16 14.8144 15.8387 14.3622 15.5365C13.91 15.2344 13.5575 14.8049 13.3493 14.3024C13.1412 13.7999 13.0867 13.247 13.1929 12.7135C13.299 12.1801 13.5609 11.6901 13.9455 11.3055C14.3301 10.9209 14.8201 10.659 15.3535 10.5528C15.887 10.4467 16.4399 10.5012 16.9424 10.7093C17.4449 10.9175 17.8744 11.2699 18.1766 11.7222C18.4787 12.1744 18.64 12.7061 18.64 13.25C18.64 13.9793 18.3503 14.6788 17.8346 15.1945C17.3188 15.7103 16.6194 16 15.89 16ZM15.89 11.5C15.5439 11.5 15.2056 11.6026 14.9178 11.7949C14.63 11.9872 14.4057 12.2605 14.2732 12.5803C14.1408 12.9001 14.1061 13.2519 14.1736 13.5914C14.2412 13.9309 14.4078 14.2427 14.6526 14.4874C14.8973 14.7322 15.2091 14.8989 15.5486 14.9664C15.8881 15.0339 16.2399 14.9992 16.5597 14.8668C16.8795 14.7343 17.1528 14.51 17.3451 14.2222C17.5374 13.9345 17.64 13.5961 17.64 13.25C17.6467 13.016 17.6064 12.7831 17.5214 12.5649C17.4365 12.3468 17.3086 12.1479 17.1455 11.9801C16.9823 11.8123 16.7871 11.6789 16.5715 11.5878C16.3558 11.4968 16.1241 11.4499 15.89 11.45V11.5Z" fill="white"/>
<path d="M2.42 10.3599C2.30474 10.3599 2.193 10.3201 2.10371 10.2473C2.01442 10.1744 1.95306 10.0729 1.93 9.95992C1.90612 9.83024 1.9334 9.69635 2.00612 9.58634C2.07883 9.47634 2.19133 9.39877 2.32 9.36992C2.43 9.34992 13.25 6.99992 16.16 2.99992C16.1987 2.94663 16.2475 2.90149 16.3036 2.86709C16.3597 2.8327 16.4221 2.80974 16.4872 2.79952C16.5522 2.7893 16.6186 2.79202 16.6826 2.80754C16.7466 2.82305 16.8069 2.85105 16.86 2.88992C16.9655 2.9696 17.0359 3.08712 17.0564 3.2177C17.0769 3.34829 17.046 3.48174 16.97 3.58992C13.83 7.89992 3 10.2499 2.53 10.3499L2.42 10.3599Z" fill="white"/>
<path d="M19 8.70003C16.5226 8.6174 14.0818 8.07838 11.8 7.11004C11.678 7.05699 11.5821 6.95766 11.5333 6.83388C11.4846 6.71011 11.487 6.57203 11.54 6.45003C11.5931 6.32804 11.6924 6.2321 11.8162 6.18334C11.9399 6.13459 12.078 6.13699 12.2 6.19003C12.25 6.19003 16.94 8.28004 20.88 7.54003C21.0111 7.51645 21.1462 7.5451 21.2565 7.61985C21.3667 7.6946 21.4434 7.80952 21.47 7.94003C21.4934 8.06993 21.4645 8.2038 21.3895 8.31246C21.3146 8.42111 21.1997 8.49573 21.07 8.52004C20.3874 8.64673 19.6942 8.70702 19 8.70003Z" fill="white"/>
<path d="M13.64 13.7H10.36C10.2274 13.7 10.1002 13.6473 10.0065 13.5535C9.91269 13.4597 9.86002 13.3326 9.86002 13.2C9.86258 13.0681 9.91608 12.9424 10.0093 12.8492C10.1025 12.756 10.2282 12.7025 10.36 12.7H13.64C13.7718 12.7025 13.8975 12.756 13.9907 12.8492C14.084 12.9424 14.1375 13.0681 14.14 13.2C14.14 13.3326 14.0873 13.4597 13.9936 13.5535C13.8998 13.6473 13.7726 13.7 13.64 13.7Z" fill="white"/>
<path d="M5.86002 13.7H2.27002C2.13741 13.7 2.01023 13.6473 1.91647 13.5535C1.8227 13.4597 1.77002 13.3326 1.77002 13.2C1.77258 13.0681 1.82608 12.9424 1.9193 12.8492C2.01252 12.756 2.13821 12.7025 2.27002 12.7H5.86002C5.99263 12.7 6.1198 12.7526 6.21357 12.8464C6.30734 12.9402 6.36002 13.0673 6.36002 13.2C6.36002 13.3326 6.30734 13.4597 6.21357 13.5535C6.1198 13.6473 5.99263 13.7 5.86002 13.7Z" fill="white"/>
<path d="M21.74 13.7H18.14C18.0074 13.7 17.8802 13.6473 17.7865 13.5535C17.6927 13.4597 17.64 13.3326 17.64 13.2C17.64 13.0673 17.6927 12.9402 17.7865 12.8464C17.8802 12.7526 18.0074 12.7 18.14 12.7H21.74C21.8726 12.7 21.9998 12.7526 22.0936 12.8464C22.1873 12.9402 22.24 13.0673 22.24 13.2C22.24 13.3326 22.1873 13.4597 22.0936 13.5535C21.9998 13.6473 21.8726 13.7 21.74 13.7Z" fill="white"/>
</svg>
