<svg width="24" height="24" viewBox="0 0 24 24" fill="none" xmlns="http://www.w3.org/2000/svg">
<path d="M12 21.8299C10.051 21.8299 8.14582 21.2517 6.52556 20.1685C4.90531 19.0852 3.64282 17.5457 2.89789 15.7447C2.15296 13.9437 1.95907 11.9621 2.34075 10.0509C2.72244 8.13962 3.66255 6.38456 5.0421 5.00781C6.42165 3.63106 8.17862 2.69452 10.0907 2.31672C12.0027 1.93892 13.9838 2.13684 15.7833 2.88543C17.5828 3.63402 19.1198 4.89963 20.1997 6.52208C21.2796 8.14454 21.854 10.0509 21.85 11.9999C21.8421 14.608 20.8011 17.1067 18.955 18.949C17.1089 20.7914 14.6081 21.8273 12 21.8299ZM12 3.12989C10.2505 3.12989 8.54023 3.64843 7.08529 4.62C5.63035 5.59157 4.49602 6.97258 3.8256 8.58854C3.15518 10.2045 2.97875 11.9829 3.31862 13.6991C3.65848 15.4153 4.49937 16.9922 5.73507 18.2307C6.97076 19.4692 8.54581 20.3137 10.2612 20.6574C11.9766 21.0011 13.7554 20.8287 15.3729 20.1619C16.9904 19.4952 18.3739 18.364 19.3488 16.9112C20.3236 15.4585 20.846 13.7494 20.85 11.9999C20.8513 10.8364 20.6234 9.684 20.1794 8.60855C19.7354 7.5331 19.0838 6.55565 18.262 5.73199C17.4402 4.90833 16.4643 4.25461 15.3898 3.80814C14.3154 3.36167 13.1635 3.1312 12 3.12989Z" fill="white"/>
<path d="M14.81 15.2799C14.6768 15.2792 14.5486 15.2293 14.45 15.1399L11.65 12.3299C11.6044 12.2875 11.5677 12.2366 11.5419 12.1799C11.5162 12.1233 11.5019 12.0621 11.5 11.9999V6.36987C11.5 6.23726 11.5527 6.11009 11.6464 6.01632C11.7402 5.92255 11.8674 5.86987 12 5.86987C12.1326 5.86987 12.2598 5.92255 12.3536 6.01632C12.4473 6.11009 12.5 6.23726 12.5 6.36987V11.7699L15.16 14.4299C15.2522 14.525 15.3038 14.6523 15.3038 14.7849C15.3038 14.9174 15.2522 15.0447 15.16 15.1399C15.0639 15.2271 14.9397 15.2768 14.81 15.2799Z" fill="white"/>
</svg>
