<svg width="24" height="24" viewBox="0 0 24 24" fill="none" xmlns="http://www.w3.org/2000/svg">
<path d="M6.75998 20.8601H6.60998C6.54707 20.8406 6.48886 20.8083 6.43897 20.7653C6.38908 20.7223 6.34857 20.6694 6.31998 20.6101L1.70998 11.6101C1.67904 11.5511 1.66019 11.4866 1.65452 11.4203C1.64886 11.354 1.6565 11.2872 1.67699 11.2238C1.69748 11.1605 1.73041 11.1019 1.77386 11.0514C1.8173 11.001 1.87038 10.9597 1.92998 10.9301L17 3.19009C17.1217 3.14009 17.2582 3.14009 17.38 3.19009C17.4429 3.20964 17.5011 3.24192 17.551 3.28493C17.6009 3.32794 17.6414 3.38076 17.67 3.44009L22.28 12.4401C22.3109 12.499 22.3298 12.5636 22.3354 12.6299C22.3411 12.6962 22.3335 12.763 22.313 12.8264C22.2925 12.8897 22.2595 12.9483 22.2161 12.9987C22.1727 13.0492 22.1196 13.0904 22.06 13.1201L6.99998 20.8101C6.92436 20.8434 6.84259 20.8604 6.75998 20.8601ZM2.82998 11.5701L6.99998 19.6901L21.19 12.4301L17 4.31009L2.82998 11.5701Z" fill="white"/>
<path d="M8.23 16.84C8.13904 16.8393 8.05 16.8138 7.97246 16.7662C7.89493 16.7186 7.83184 16.6508 7.79 16.57L5.79 12.74C5.7307 12.6219 5.72055 12.4852 5.76177 12.3596C5.80299 12.2341 5.89224 12.13 6.01 12.07L9.84 10.07C9.95809 10.0107 10.0948 10.0006 10.2204 10.0418C10.3459 10.083 10.4501 10.1723 10.51 10.29L12.46 14.12C12.5201 14.2369 12.5317 14.3727 12.4924 14.4981C12.4531 14.6235 12.366 14.7283 12.25 14.79L8.42 16.79C8.36101 16.8202 8.2962 16.8372 8.23 16.84ZM7 12.73L8.5 15.67L11.44 14.17L9.88 11.23L7 12.73Z" fill="white"/>
</svg>
