<svg width="24" height="24" viewBox="0 0 24 24" fill="none" xmlns="http://www.w3.org/2000/svg">
<path d="M16.21 18H7.78999C6.19869 18 4.67257 17.3679 3.54735 16.2426C2.42213 15.1174 1.78999 13.5913 1.78999 12C1.78999 10.4087 2.42213 8.88258 3.54735 7.75736C4.67257 6.63214 6.19869 6 7.78999 6H16.21C17.8013 6 19.3274 6.63214 20.4526 7.75736C21.5779 8.88258 22.21 10.4087 22.21 12C22.21 13.5913 21.5779 15.1174 20.4526 16.2426C19.3274 17.3679 17.8013 18 16.21 18ZM7.78999 7C6.46391 7 5.19214 7.52678 4.25446 8.46447C3.31678 9.40215 2.78999 10.6739 2.78999 12C2.78999 13.3261 3.31678 14.5979 4.25446 15.5355C5.19214 16.4732 6.46391 17 7.78999 17H16.21C17.5361 17 18.8078 16.4732 19.7455 15.5355C20.6832 14.5979 21.21 13.3261 21.21 12C21.21 10.6739 20.6832 9.40215 19.7455 8.46447C18.8078 7.52678 17.5361 7 16.21 7H7.78999Z" fill="white"/>
<path d="M6.46999 14.0799C6.33738 14.0799 6.2102 14.0272 6.11643 13.9335C6.02266 13.8397 5.96999 13.7125 5.96999 13.5799V10.4199C5.96999 10.2873 6.02266 10.1601 6.11643 10.0664C6.2102 9.9726 6.33738 9.91992 6.46999 9.91992C6.60259 9.91992 6.72977 9.9726 6.82354 10.0664C6.91731 10.1601 6.96999 10.2873 6.96999 10.4199V13.5799C6.96999 13.7125 6.91731 13.8397 6.82354 13.9335C6.72977 14.0272 6.60259 14.0799 6.46999 14.0799Z" fill="white"/>
<path d="M13.77 14.0799C13.6374 14.0799 13.5102 14.0272 13.4164 13.9335C13.3227 13.8397 13.27 13.7125 13.27 13.5799V10.4199C13.27 10.2873 13.3227 10.1601 13.4164 10.0664C13.5102 9.9726 13.6374 9.91992 13.77 9.91992C13.9018 9.92248 14.0275 9.97598 14.1207 10.0692C14.2139 10.1624 14.2674 10.2881 14.27 10.4199V13.5799C14.2674 13.7117 14.2139 13.8374 14.1207 13.9306C14.0275 14.0239 13.9018 14.0774 13.77 14.0799Z" fill="white"/>
<path d="M10.12 14.0799C9.98739 14.0799 9.86021 14.0272 9.76644 13.9335C9.67267 13.8397 9.62 13.7125 9.62 13.5799V10.4199C9.62 10.2873 9.67267 10.1601 9.76644 10.0664C9.86021 9.9726 9.98739 9.91992 10.12 9.91992C10.2518 9.92248 10.3775 9.97598 10.4707 10.0692C10.5639 10.1624 10.6174 10.2881 10.62 10.4199V13.5799C10.6174 13.7117 10.5639 13.8374 10.4707 13.9306C10.3775 14.0239 10.2518 14.0774 10.12 14.0799Z" fill="white"/>
</svg>
