<svg width="24" height="24" viewBox="0 0 24 24" fill="none" xmlns="http://www.w3.org/2000/svg">
<path d="M12 21.48C10.1855 21.4761 8.42344 20.8714 6.98907 19.7601C5.55471 18.6488 4.52888 17.0937 4.0719 15.3377C3.61491 13.5817 3.7525 11.7238 4.46318 10.0543C5.17386 8.38484 6.41758 6.9978 8 6.10996C8.05681 6.07652 8.11978 6.05489 8.18514 6.04636C8.25051 6.03783 8.31692 6.04257 8.38041 6.06031C8.4439 6.07805 8.50316 6.10842 8.55463 6.1496C8.60611 6.19077 8.64875 6.24191 8.68 6.29996C8.71419 6.35977 8.73565 6.426 8.74304 6.4945C8.75042 6.563 8.74357 6.63229 8.72292 6.69802C8.70226 6.76374 8.66824 6.82449 8.623 6.87645C8.57775 6.92841 8.52226 6.97046 8.46 6.99996C7.08003 7.77793 5.99469 8.98873 5.37171 10.4453C4.74873 11.9018 4.62279 13.5229 5.01335 15.0582C5.40391 16.5934 6.28923 17.9573 7.53249 18.9391C8.77575 19.9209 10.3077 20.4658 11.8917 20.4898C13.4757 20.5138 15.0235 20.0154 16.2959 19.0717C17.5683 18.128 18.4944 16.7915 18.9313 15.2688C19.3681 13.746 19.2913 12.1218 18.7126 10.6471C18.134 9.17241 17.0858 7.92932 15.73 7.10996C15.6733 7.07605 15.6238 7.03123 15.5846 6.9781C15.5453 6.92497 15.5169 6.86458 15.5011 6.80041C15.4853 6.73625 15.4823 6.66959 15.4925 6.60429C15.5026 6.53898 15.5255 6.47633 15.56 6.41996C15.6303 6.30743 15.7417 6.22674 15.8705 6.195C15.9993 6.16326 16.1355 6.18297 16.25 6.24996C17.7745 7.18351 18.9532 8.58862 19.6073 10.2523C20.2614 11.916 20.3554 13.7476 19.8749 15.4695C19.3944 17.1914 18.3656 18.7097 16.9446 19.7943C15.5235 20.8789 13.7876 21.4707 12 21.48Z" fill="white"/>
<path d="M12 9.55C11.8674 9.55 11.7402 9.49732 11.6464 9.40355C11.5527 9.30978 11.5 9.18261 11.5 9.05V3C11.5 2.86739 11.5527 2.74021 11.6464 2.64645C11.7402 2.55268 11.8674 2.5 12 2.5C12.1326 2.5 12.2598 2.55268 12.3536 2.64645C12.4473 2.74021 12.5 2.86739 12.5 3V9C12.507 9.06974 12.4993 9.14017 12.4773 9.20673C12.4553 9.27329 12.4196 9.33448 12.3725 9.38634C12.3253 9.43821 12.2678 9.47957 12.2036 9.50777C12.1395 9.53596 12.0701 9.55035 12 9.55Z" fill="white"/>
</svg>
