<svg width="24" height="24" viewBox="0 0 24 24" fill="none" xmlns="http://www.w3.org/2000/svg">
<path d="M18 19.5H6C5.07174 19.5 4.1815 19.1313 3.52513 18.4749C2.86875 17.8185 2.5 16.9283 2.5 16V8C2.5 7.07174 2.86875 6.1815 3.52513 5.52513C4.1815 4.86875 5.07174 4.5 6 4.5H18C18.9283 4.5 19.8185 4.86875 20.4749 5.52513C21.1313 6.1815 21.5 7.07174 21.5 8V16C21.5 16.9283 21.1313 17.8185 20.4749 18.4749C19.8185 19.1313 18.9283 19.5 18 19.5ZM6 5.5C5.33696 5.5 4.70107 5.76339 4.23223 6.23223C3.76339 6.70107 3.5 7.33696 3.5 8V16C3.5 16.663 3.76339 17.2989 4.23223 17.7678C4.70107 18.2366 5.33696 18.5 6 18.5H18C18.3283 18.5 18.6534 18.4353 18.9567 18.3097C19.26 18.1841 19.5356 17.9999 19.7678 17.7678C19.9999 17.5356 20.1841 17.26 20.3097 16.9567C20.4353 16.6534 20.5 16.3283 20.5 16V8C20.5 7.6717 20.4353 7.34661 20.3097 7.04329C20.1841 6.73998 19.9999 6.46438 19.7678 6.23223C19.5356 6.00009 19.26 5.81594 18.9567 5.6903C18.6534 5.56466 18.3283 5.5 18 5.5H6Z" fill="white"/>
<path d="M12 14.58H11.84L2.84 11.49C2.72964 11.4371 2.6425 11.3456 2.59508 11.2328C2.54765 11.12 2.54324 10.9938 2.58267 10.8779C2.62211 10.7621 2.70265 10.6647 2.80905 10.6043C2.91544 10.5439 3.04031 10.5245 3.16 10.55L12 13.55L20.85 10.68C20.976 10.6417 21.112 10.6536 21.2294 10.7132C21.3468 10.7729 21.4366 10.8756 21.48 11C21.5001 11.063 21.5075 11.1294 21.5017 11.1953C21.496 11.2612 21.4772 11.3253 21.4465 11.3839C21.4159 11.4425 21.3738 11.4944 21.3229 11.5367C21.272 11.5789 21.2132 11.6106 21.15 11.63L12.15 14.55C12.1025 14.5698 12.0515 14.58 12 14.58Z" fill="white"/>
</svg>
