<svg width="24" height="24" viewBox="0 0 24 24" fill="none" xmlns="http://www.w3.org/2000/svg">
<path d="M7.59001 12.6201C7.52747 12.6343 7.46255 12.6343 7.40001 12.6201C7.27959 12.5668 7.18334 12.4705 7.13001 12.3501C7.11584 12.2876 7.11584 12.2226 7.13001 12.1601C7.13034 12.025 7.18429 11.8955 7.28001 11.8001C7.32549 11.7556 7.38007 11.7215 7.44001 11.7001C7.56174 11.6501 7.69828 11.6501 7.82001 11.7001C7.87995 11.7215 7.93454 11.7556 7.98001 11.8001C8.02912 11.8477 8.06673 11.9058 8.09001 11.9701C8.10489 12.0326 8.10489 12.0976 8.09001 12.1601C8.10418 12.2226 8.10418 12.2876 8.09001 12.3501C8.03668 12.4705 7.94043 12.5668 7.82001 12.6201C7.74491 12.642 7.66511 12.642 7.59001 12.6201Z" fill="white"/>
<path d="M12 12.49C11.9371 12.5004 11.8729 12.5004 11.81 12.49C11.7465 12.4653 11.6886 12.4279 11.64 12.38C11.5978 12.3307 11.5609 12.2771 11.53 12.22C11.5204 12.157 11.5204 12.093 11.53 12.03C11.5307 11.8968 11.5806 11.7686 11.67 11.67C11.7192 11.6253 11.7771 11.5912 11.84 11.57C11.9297 11.5308 12.0291 11.5194 12.1254 11.5372C12.2216 11.5551 12.3103 11.6013 12.38 11.67C12.4723 11.7677 12.5257 11.8957 12.53 12.03C12.5393 12.093 12.5393 12.157 12.53 12.22C12.5028 12.2792 12.4656 12.3334 12.42 12.38C12.3624 12.4281 12.2949 12.4629 12.2223 12.4819C12.1497 12.5009 12.0738 12.5037 12 12.49Z" fill="white"/>
<path d="M12.11 8.10009C11.982 8.11066 11.8543 8.0752 11.75 8.00009C11.6577 7.90244 11.6044 7.77439 11.6 7.64009C11.6022 7.55783 11.6242 7.4773 11.6642 7.40538C11.7042 7.33346 11.761 7.2723 11.8298 7.2271C11.8986 7.18191 11.9772 7.15403 12.0591 7.14584C12.141 7.13765 12.2237 7.14941 12.3 7.18009C12.3606 7.20496 12.4151 7.24246 12.46 7.29009C12.5533 7.38302 12.6071 7.50844 12.61 7.64009C12.6057 7.77439 12.5523 7.90244 12.46 8.00009C12.3635 8.08653 12.2396 8.13611 12.11 8.14009V8.10009Z" fill="white"/>
<path d="M11.83 16.8599C11.7675 16.8741 11.7026 16.8741 11.64 16.8599C11.5788 16.8362 11.524 16.7986 11.48 16.7499C11.4322 16.705 11.3941 16.6508 11.368 16.5906C11.3419 16.5304 11.3285 16.4655 11.3285 16.3999C11.3285 16.3343 11.3419 16.2694 11.368 16.2092C11.3941 16.149 11.4322 16.0948 11.48 16.0499C11.524 16.0012 11.5788 15.9636 11.64 15.9399C11.7324 15.9025 11.8337 15.8929 11.9315 15.9125C12.0292 15.932 12.1191 15.9798 12.19 16.0499C12.2793 16.1445 12.3291 16.2698 12.3291 16.3999C12.3291 16.53 12.2793 16.6552 12.19 16.7499C12.1402 16.7911 12.0828 16.822 12.021 16.8408C11.9592 16.8597 11.8943 16.8662 11.83 16.8599Z" fill="white"/>
<path d="M16.35 12.3499C16.2871 12.3604 16.2229 12.3604 16.16 12.3499C16.0954 12.3136 16.0405 12.2621 16 12.1999C15.9514 12.1559 15.9137 12.1011 15.89 12.0399C15.8759 11.9774 15.8759 11.9125 15.89 11.8499C15.876 11.784 15.876 11.7159 15.89 11.6499C15.9137 11.5887 15.9514 11.5339 16 11.4899C16.0474 11.4453 16.1014 11.4083 16.16 11.3799C16.2511 11.3446 16.3504 11.3362 16.4462 11.3557C16.5419 11.3752 16.63 11.4218 16.7 11.4899C16.7456 11.5366 16.7828 11.5907 16.81 11.6499C16.8195 11.7163 16.8195 11.7836 16.81 11.8499C16.8193 11.9129 16.8193 11.9769 16.81 12.0399C16.7828 12.0992 16.7456 12.1533 16.7 12.1999C16.6071 12.2933 16.4817 12.347 16.35 12.3499Z" fill="white"/>
<path d="M12 22.59C11.5411 22.5951 11.0858 22.5093 10.6601 22.3377C10.2345 22.1661 9.84704 21.912 9.52002 21.59L2.42002 14.49C2.08865 14.1634 1.8255 13.7742 1.64589 13.345C1.46627 12.9159 1.37378 12.4552 1.37378 11.99C1.37378 11.5247 1.46627 11.0641 1.64589 10.6349C1.8255 10.2058 2.08865 9.81656 2.42002 9.48999L9.52002 2.38999C9.84659 2.05862 10.2358 1.79547 10.665 1.61586C11.0942 1.43625 11.5548 1.34375 12.02 1.34375C12.4853 1.34375 12.9459 1.43625 13.3751 1.61586C13.8043 1.79547 14.1934 2.05862 14.52 2.38999L21.63 9.48999C21.9614 9.81656 22.2245 10.2058 22.4042 10.6349C22.5838 11.0641 22.6763 11.5247 22.6763 11.99C22.6763 12.4552 22.5838 12.9159 22.4042 13.345C22.2245 13.7742 21.9614 14.1634 21.63 14.49L14.52 21.59C14.1896 21.9187 13.7959 22.1768 13.3627 22.3487C12.9295 22.5206 12.4659 22.6027 12 22.59ZM12 2.38999C11.6714 2.38886 11.3458 2.45278 11.0421 2.57807C10.7383 2.70336 10.4623 2.88754 10.23 3.11999L3.13002 10.22C2.66467 10.6916 2.40376 11.3275 2.40376 11.99C2.40376 12.6525 2.66467 13.2884 3.13002 13.76L10.23 20.86C10.7016 21.3253 11.3375 21.5863 12 21.5863C12.6626 21.5863 13.2984 21.3253 13.77 20.86L20.87 13.76C21.3378 13.2897 21.6004 12.6533 21.6004 11.99C21.6004 11.3267 21.3378 10.6903 20.87 10.22L13.77 3.11999C13.5378 2.88754 13.2618 2.70336 12.958 2.57807C12.6542 2.45278 12.3286 2.38886 12 2.38999Z" fill="white"/>
</svg>
