<svg width="24" height="24" viewBox="0 0 24 24" fill="none" xmlns="http://www.w3.org/2000/svg">
<path d="M11.82 11.5801C11.1752 11.5801 10.5449 11.3889 10.0088 11.0307C9.47274 10.6724 9.05489 10.1633 8.80815 9.56761C8.56141 8.97192 8.49685 8.31644 8.62264 7.68407C8.74843 7.05169 9.05891 6.47081 9.51483 6.01489C9.97075 5.55897 10.5516 5.24849 11.184 5.1227C11.8164 4.99691 12.4719 5.06147 13.0675 5.30821C13.6632 5.55495 14.1724 5.9728 14.5306 6.5089C14.8888 7.04501 15.08 7.67529 15.08 8.32006C15.08 9.18467 14.7365 10.0139 14.1252 10.6252C13.5138 11.2366 12.6846 11.5801 11.82 11.5801ZM11.82 6.06006C11.373 6.06006 10.9361 6.19261 10.5644 6.44094C10.1928 6.68927 9.90308 7.04223 9.73203 7.4552C9.56098 7.86816 9.51622 8.32257 9.60342 8.76096C9.69063 9.19936 9.90587 9.60205 10.2219 9.91812C10.538 10.2342 10.9407 10.4494 11.3791 10.5366C11.8175 10.6238 12.2719 10.5791 12.6849 10.408C13.0978 10.237 13.4508 9.9473 13.6991 9.57565C13.9475 9.20399 14.08 8.76705 14.08 8.32006C14.08 7.72067 13.8419 7.14583 13.4181 6.722C12.9942 6.29817 12.4194 6.06006 11.82 6.06006Z" fill="white"/>
<path d="M17.46 9.94008H17.38C17.2572 9.90919 17.1503 9.83373 17.08 9.72838C17.0098 9.62302 16.9812 9.49531 17 9.37008V9.21008C17.0033 9.14012 17.0033 9.07004 17 9.00008C17.0098 8.89698 17.0098 8.79318 17 8.69008C17 8.43008 17 8.30008 17 8.30008C17 6.95543 16.4658 5.66586 15.515 4.71505C14.5642 3.76424 13.2746 3.23008 11.93 3.23008C10.5853 3.23008 9.29575 3.76424 8.34494 4.71505C7.39413 5.66586 6.85997 6.95543 6.85997 8.30008C6.85997 8.30008 6.85997 8.43008 6.85997 8.62008C6.88783 8.7529 6.935 8.88093 6.99997 9.00008V9.25008V9.41008C7.00982 9.47574 7.00664 9.5427 6.99061 9.60713C6.97458 9.67156 6.94602 9.7322 6.90655 9.7856C6.86709 9.83899 6.81749 9.88409 6.7606 9.91832C6.70371 9.95254 6.64063 9.97523 6.57497 9.98508C6.50931 9.99493 6.44235 9.99175 6.37792 9.97572C6.31348 9.95969 6.25284 9.93113 6.19945 9.89166C6.14605 9.8522 6.10096 9.80261 6.06673 9.74571C6.0325 9.68882 6.00982 9.62574 5.99997 9.56008V9.20008C5.9826 9.03721 5.9826 8.87295 5.99997 8.71008V8.40008C5.99997 6.79021 6.63948 5.24629 7.77783 4.10794C8.91618 2.96959 10.4601 2.33008 12.07 2.33008C13.6798 2.33008 15.2238 2.96959 16.3621 4.10794C17.5005 5.24629 18.14 6.79021 18.14 8.40008C18.14 8.40008 18.14 8.57008 18.14 8.77008C18.1382 8.93459 18.1214 9.09859 18.09 9.26008L18 9.52008C17.9825 9.64668 17.9163 9.76145 17.8154 9.83991C17.7145 9.91837 17.587 9.95432 17.46 9.94008Z" fill="white"/>
<path d="M12 21.75C11.9344 21.7508 11.8694 21.7379 11.8091 21.712C11.7488 21.6862 11.6946 21.648 11.65 21.6C6.34998 16.3 5.99998 8.66 5.92998 8.34C5.9273 8.27432 5.9376 8.20876 5.96028 8.14707C5.98296 8.08538 6.01758 8.02877 6.06216 7.98047C6.10675 7.93217 6.16041 7.89314 6.2201 7.8656C6.27978 7.83807 6.3443 7.82257 6.40998 7.82C6.47565 7.81732 6.54121 7.82761 6.6029 7.85029C6.66459 7.87297 6.72121 7.9076 6.7695 7.95218C6.8178 7.99676 6.85684 8.05043 6.88437 8.11011C6.91191 8.16979 6.92741 8.23432 6.92998 8.3C6.92998 8.37 7.33998 15.88 12.35 20.9C12.3978 20.9449 12.4359 20.9991 12.462 21.0593C12.4881 21.1195 12.5015 21.1844 12.5015 21.25C12.5015 21.3156 12.4881 21.3805 12.462 21.4407C12.4359 21.5009 12.3978 21.5551 12.35 21.6C12.3053 21.648 12.2511 21.6862 12.1909 21.712C12.1306 21.7379 12.0656 21.7508 12 21.75Z" fill="white"/>
<path d="M12 21.7502C11.9344 21.751 11.8694 21.738 11.8091 21.7122C11.7488 21.6864 11.6946 21.6482 11.65 21.6002C11.6022 21.5553 11.564 21.5011 11.538 21.4409C11.5119 21.3807 11.4985 21.3158 11.4985 21.2502C11.4985 21.1846 11.5119 21.1197 11.538 21.0595C11.564 20.9993 11.6022 20.9451 11.65 20.9002C16.65 15.9002 17.06 8.37017 17.07 8.30017C17.0665 8.23271 17.0778 8.1653 17.1033 8.10273C17.1288 8.04016 17.1677 7.98397 17.2174 7.93815C17.267 7.89233 17.3261 7.85801 17.3905 7.83762C17.4549 7.81723 17.523 7.81127 17.59 7.82017C17.7217 7.82791 17.8453 7.88641 17.9349 7.98338C18.0244 8.08035 18.0728 8.20824 18.07 8.34017C18.07 8.66017 17.65 16.3402 12.35 21.6002C12.3053 21.6482 12.2511 21.6864 12.1909 21.7122C12.1306 21.738 12.0656 21.751 12 21.7502Z" fill="white"/>
</svg>
