<svg width="24" height="24" viewBox="0 0 24 24" fill="none" xmlns="http://www.w3.org/2000/svg">
<path d="M19.89 9.40005H4.11C3.42882 9.35838 2.78919 9.05841 2.32159 8.56133C1.85398 8.06425 1.59363 7.4075 1.59363 6.72505C1.59363 6.04259 1.85398 5.38585 2.32159 4.88877C2.78919 4.39168 3.42882 4.09172 4.11 4.05005H19.89C20.5712 4.09172 21.2108 4.39168 21.6784 4.88877C22.146 5.38585 22.4064 6.04259 22.4064 6.72505C22.4064 7.4075 22.146 8.06425 21.6784 8.56133C21.2108 9.05841 20.5712 9.35838 19.89 9.40005ZM4.11 5.05005C3.68811 5.08267 3.29408 5.27329 3.00663 5.58382C2.71919 5.89435 2.55952 6.30191 2.55952 6.72505C2.55952 7.14819 2.71919 7.55575 3.00663 7.86628C3.29408 8.17681 3.68811 8.36743 4.11 8.40005H19.89C20.3119 8.36743 20.7059 8.17681 20.9934 7.86628C21.2808 7.55575 21.4405 7.14819 21.4405 6.72505C21.4405 6.30191 21.2808 5.89435 20.9934 5.58382C20.7059 5.27329 20.3119 5.08267 19.89 5.05005H4.11Z" fill="white"/>
<path d="M19.29 20.0001H4.71C4.57739 20.0001 4.45021 19.9475 4.35645 19.8537C4.26268 19.7599 4.21 19.6328 4.21 19.5001V8.90015C4.21 8.76754 4.26268 8.64036 4.35645 8.54659C4.45021 8.45283 4.57739 8.40015 4.71 8.40015H19.29C19.4226 8.40015 19.5498 8.45283 19.6436 8.54659C19.7373 8.64036 19.79 8.76754 19.79 8.90015V19.4501C19.797 19.5199 19.7893 19.5903 19.7673 19.6569C19.7453 19.7234 19.7096 19.7846 19.6625 19.8365C19.6153 19.8884 19.5578 19.9297 19.4936 19.9579C19.4295 19.9861 19.3601 20.0005 19.29 20.0001ZM5.21 19.0001H18.79V9.40015H5.21V19.0001Z" fill="white"/>
</svg>
