<svg width="24" height="24" viewBox="0 0 24 24" fill="none" xmlns="http://www.w3.org/2000/svg">
<path d="M12 21.5C10.1211 21.5 8.28435 20.9428 6.72209 19.899C5.15982 18.8551 3.94218 17.3714 3.22315 15.6355C2.50412 13.8996 2.31598 11.9895 2.68254 10.1466C3.0491 8.30383 3.95389 6.61109 5.28249 5.28249C6.61109 3.95389 8.30383 3.0491 10.1466 2.68254C11.9895 2.31598 13.8996 2.50412 15.6355 3.22315C17.3714 3.94218 18.8551 5.15982 19.899 6.72209C20.9428 8.28435 21.5 10.1211 21.5 12C21.4974 14.5187 20.4956 16.9336 18.7146 18.7146C16.9336 20.4956 14.5187 21.4974 12 21.5ZM12 3.5C10.3189 3.5 8.67548 3.99852 7.27766 4.93251C5.87984 5.8665 4.79037 7.19402 4.14703 8.74719C3.50368 10.3004 3.33535 12.0094 3.66333 13.6583C3.9913 15.3071 4.80085 16.8217 5.9896 18.0104C7.17834 19.1992 8.6929 20.0087 10.3417 20.3367C11.9906 20.6647 13.6996 20.4963 15.2528 19.853C16.806 19.2096 18.1335 18.1202 19.0675 16.7224C20.0015 15.3245 20.5 13.6811 20.5 12C20.4974 9.74648 19.601 7.58601 18.0075 5.99252C16.414 4.39903 14.2535 3.50265 12 3.5Z" fill="white"/>
<path d="M5.58999 15.29C4.79753 15.2933 4.00787 15.1959 3.23999 15C3.17624 14.9837 3.11634 14.9549 3.06372 14.9154C3.0111 14.8759 2.96679 14.8264 2.93335 14.7697C2.8999 14.7131 2.87797 14.6503 2.86882 14.5852C2.85966 14.52 2.86346 14.4537 2.87999 14.39C2.89517 14.3266 2.92284 14.2669 2.96137 14.2144C2.9999 14.1619 3.04853 14.1175 3.1044 14.084C3.16027 14.0505 3.22226 14.0284 3.28675 14.0192C3.35124 14.0099 3.41694 14.0136 3.47999 14.03C4.73601 14.3539 6.04954 14.3857 7.31976 14.1229C8.58998 13.8602 9.7831 13.3099 10.8076 12.5143C11.832 11.7187 12.6605 10.6989 13.2295 9.53327C13.7985 8.36762 14.0929 7.0871 14.09 5.79C14.0948 4.98751 13.9802 4.18876 13.75 3.42C13.7115 3.28739 13.7273 3.14493 13.7939 3.02397C13.8605 2.90301 13.9724 2.81345 14.105 2.775C14.2376 2.73654 14.38 2.75234 14.501 2.81891C14.622 2.88549 14.7115 2.99739 14.75 3.13C15.0034 3.99389 15.1314 4.88971 15.13 5.79C15.1287 7.04055 14.8807 8.27857 14.4003 9.43318C13.92 10.5878 13.2166 11.6363 12.3304 12.5187C11.4443 13.4012 10.3928 14.1001 9.23621 14.5757C8.07959 15.0512 6.84054 15.2939 5.58999 15.29Z" fill="white"/>
<path d="M12.35 21.49C12.2313 21.4912 12.1162 21.4493 12.0261 21.3721C11.936 21.2948 11.877 21.1875 11.86 21.07C11.7916 20.6872 11.7581 20.2989 11.76 19.91C11.7627 17.8978 12.5632 15.9688 13.986 14.546C15.4088 13.1231 17.3378 12.3226 19.35 12.32C19.9222 12.3161 20.4928 12.3799 21.05 12.51C21.1145 12.5242 21.1756 12.551 21.2296 12.5889C21.2837 12.6268 21.3297 12.675 21.3651 12.7308C21.4004 12.7866 21.4243 12.8488 21.4355 12.9139C21.4466 12.979 21.4448 13.0456 21.43 13.11C21.416 13.1743 21.3891 13.235 21.3511 13.2887C21.313 13.3423 21.2645 13.3878 21.2085 13.4223C21.1526 13.4569 21.0902 13.4798 21.0252 13.4897C20.9601 13.4996 20.8938 13.4963 20.83 13.48C20.3444 13.3703 19.8479 13.3166 19.35 13.32C17.6031 13.3226 15.9284 14.0178 14.6931 15.2531C13.4578 16.4884 12.7627 18.163 12.76 19.91C12.7609 20.2449 12.7876 20.5792 12.84 20.91C12.8529 20.9752 12.8524 21.0423 12.8386 21.1073C12.8247 21.1722 12.7978 21.2337 12.7595 21.288C12.7211 21.3422 12.6721 21.3881 12.6155 21.4228C12.5589 21.4576 12.4958 21.4804 12.43 21.49H12.35Z" fill="white"/>
<path d="M18.36 18.8599C18.2944 18.8607 18.2294 18.8478 18.1691 18.8219C18.1088 18.7961 18.0546 18.7579 18.01 18.7099L5.28999 5.9999C5.24312 5.95342 5.20593 5.89812 5.18054 5.83719C5.15516 5.77626 5.14209 5.71091 5.14209 5.6449C5.14209 5.5789 5.15516 5.51354 5.18054 5.45261C5.20593 5.39168 5.24312 5.33638 5.28999 5.2899C5.38345 5.19829 5.50911 5.14697 5.63999 5.14697C5.77087 5.14697 5.89652 5.19829 5.98999 5.2899L18.71 17.9999C18.7569 18.0464 18.7941 18.1017 18.8194 18.1626C18.8448 18.2235 18.8579 18.2889 18.8579 18.3549C18.8579 18.4209 18.8448 18.4863 18.8194 18.5472C18.7941 18.6081 18.7569 18.6634 18.71 18.7099C18.6653 18.7579 18.6111 18.7961 18.5509 18.8219C18.4906 18.8478 18.4256 18.8607 18.36 18.8599Z" fill="white"/>
</svg>
