<svg width="24" height="24" viewBox="0 0 24 24" fill="none" xmlns="http://www.w3.org/2000/svg">
<path d="M5.14 18.8999C5.02565 18.9023 4.91406 18.8646 4.82456 18.7934C4.73507 18.7222 4.67332 18.6219 4.65 18.5099L2.9 10.4199C2.70698 9.50973 2.88323 8.56017 3.39 7.77989C3.6371 7.39288 3.95897 7.05908 4.33675 6.79808C4.71452 6.53707 5.1406 6.3541 5.59 6.25989L13.59 4.52989C14.5008 4.33267 15.4526 4.50148 16.24 4.99989C17.0193 5.50628 17.5659 6.30105 17.76 7.20989L19.5 15.2999C19.5159 15.3646 19.5179 15.4319 19.5059 15.4974C19.4938 15.5629 19.4679 15.6251 19.43 15.6799C19.3964 15.7351 19.3514 15.7824 19.2979 15.8187C19.2444 15.8549 19.1837 15.8792 19.12 15.8899L5.24 18.8899L5.14 18.8999ZM5.8 7.23989C5.47574 7.30854 5.16838 7.44098 4.89578 7.6295C4.62317 7.81803 4.39078 8.05888 4.21212 8.33805C4.03345 8.61721 3.91208 8.92911 3.85506 9.25562C3.79805 9.58212 3.80652 9.9167 3.88 10.2399L5.52 17.8499L18.42 14.9999L16.78 7.39989C16.7139 7.07432 16.583 6.76535 16.3951 6.49133C16.2073 6.21732 15.9663 5.98384 15.6865 5.80475C15.4067 5.62566 15.0937 5.50463 14.7662 5.44882C14.4387 5.39302 14.1033 5.40358 13.78 5.47989L5.78 7.20989L5.8 7.23989Z" fill="white"/>
<path d="M4.36 15.32C4.24735 15.3201 4.13812 15.2813 4.0507 15.2103C3.96327 15.1393 3.90299 15.0403 3.88 14.93C3.86525 14.8656 3.8634 14.799 3.87455 14.7339C3.8857 14.6688 3.90963 14.6066 3.94496 14.5508C3.98029 14.495 4.02632 14.4468 4.08039 14.4089C4.13446 14.371 4.19551 14.3442 4.26 14.33L18.14 11.33C18.2726 11.3022 18.4108 11.3281 18.5243 11.4022C18.6378 11.4763 18.7172 11.5924 18.745 11.725C18.7728 11.8576 18.7469 11.9958 18.6728 12.1093C18.5987 12.2228 18.4826 12.3022 18.35 12.33L4.47 15.33L4.36 15.32Z" fill="white"/>
<path d="M2.14 19.5498C2.07434 19.5571 2.0079 19.5513 1.94447 19.5328C1.88105 19.5144 1.82188 19.4836 1.77034 19.4423C1.66626 19.3588 1.59959 19.2375 1.585 19.1048C1.57778 19.0392 1.58356 18.9727 1.60201 18.9093C1.62047 18.8459 1.65124 18.7867 1.69256 18.7352C1.77601 18.6311 1.89739 18.5644 2.03 18.5498L21.75 14.2998C21.8812 14.2731 22.0176 14.299 22.1299 14.3719C22.2421 14.4449 22.3212 14.5591 22.35 14.6898C22.3631 14.7542 22.3635 14.8205 22.351 14.885C22.3385 14.9495 22.3134 15.0108 22.2772 15.0656C22.241 15.1204 22.1944 15.1675 22.1399 15.2043C22.0855 15.2411 22.0244 15.2667 21.96 15.2798L2.25 19.5398L2.14 19.5498Z" fill="white"/>
</svg>
