<svg width="24" height="24" viewBox="0 0 24 24" fill="none" xmlns="http://www.w3.org/2000/svg">
<path d="M12 21C11.4197 21 10.85 20.8446 10.35 20.55L5.4 17.71C4.89881 17.4218 4.48241 17.0067 4.19275 16.5063C3.90308 16.006 3.75037 15.4381 3.75 14.86V9.14001C3.75037 8.56188 3.90308 7.99404 4.19275 7.49371C4.48241 6.99337 4.89881 6.5782 5.4 6.29001L10.35 3.43001C10.8523 3.14232 11.4211 2.99097 12 2.99097C12.5789 2.99097 13.1477 3.14232 13.65 3.43001L18.65 6.30001C19.1512 6.5882 19.5676 7.00337 19.8573 7.50371C20.1469 8.00404 20.2996 8.57187 20.3 9.15001V14.87C20.2996 15.4481 20.1469 16.016 19.8573 16.5163C19.5676 17.0167 19.1512 17.4318 18.65 17.72L13.65 20.58C13.1471 20.8642 12.5776 21.0091 12 21ZM12 4.00001C11.5973 3.99983 11.2013 4.10313 10.85 4.30001L5.9 7.15001C5.54916 7.35257 5.25804 7.6442 5.0561 7.9954C4.85416 8.34659 4.74857 8.7449 4.75 9.15001V14.87C4.74857 15.2751 4.85416 15.6734 5.0561 16.0246C5.25804 16.3758 5.54916 16.6675 5.9 16.87L10.85 19.73C11.1996 19.9319 11.5963 20.0382 12 20.0382C12.4037 20.0382 12.8004 19.9319 13.15 19.73L18.15 16.87C18.5008 16.6675 18.792 16.3758 18.9939 16.0246C19.1958 15.6734 19.3014 15.2751 19.3 14.87V9.14001C19.3014 8.7349 19.1958 8.33659 18.9939 7.9854C18.792 7.6342 18.5008 7.34257 18.15 7.14001L13.15 4.28001C12.7968 4.09009 12.4009 3.9937 12 4.00001Z" fill="white"/>
<path d="M12 20.52C11.8674 20.52 11.7402 20.4673 11.6464 20.3736C11.5527 20.2798 11.5 20.1526 11.5 20.02V4C11.5 3.86739 11.5527 3.74021 11.6464 3.64645C11.7402 3.55268 11.8674 3.5 12 3.5C12.1326 3.5 12.2598 3.55268 12.3536 3.64645C12.4473 3.74021 12.5 3.86739 12.5 4V20C12.5027 20.0673 12.4918 20.1345 12.4678 20.1975C12.4439 20.2605 12.4075 20.318 12.3608 20.3666C12.3141 20.4151 12.2581 20.4538 12.1961 20.4801C12.1341 20.5065 12.0674 20.5201 12 20.52Z" fill="white"/>
</svg>
