<svg width="24" height="24" viewBox="0 0 24 24" fill="none" xmlns="http://www.w3.org/2000/svg">
<path d="M5.99999 16.54C5.91638 16.5392 5.83414 16.5186 5.75999 16.48C5.61999 16.41 2.20999 14.59 1.48999 12.13C1.272 11.5293 1.19295 10.887 1.25876 10.2514C1.32458 9.61574 1.53355 9.00328 1.86999 8.45999C2.11862 8.13449 2.44199 7.87368 2.81275 7.69962C3.18351 7.52555 3.59074 7.44336 3.99999 7.45999C4.39061 7.44467 4.77877 7.52831 5.12842 7.70314C5.47807 7.87796 5.77787 8.1383 5.99999 8.45999C6.22077 8.13694 6.52032 7.87557 6.87029 7.70058C7.22026 7.5256 7.60909 7.44279 7.99999 7.45999C8.40604 7.44577 8.80957 7.52916 9.17671 7.70316C9.54386 7.87716 9.86391 8.1367 10.11 8.45999C10.4481 9.00249 10.6588 9.61456 10.7264 10.2502C10.7939 10.8859 10.7165 11.5285 10.5 12.13C9.76999 14.59 6.35999 16.41 6.21999 16.48C6.15286 16.5181 6.0772 16.5388 5.99999 16.54ZM3.99999 8.45999C3.75058 8.44462 3.50125 8.49139 3.27436 8.59611C3.04747 8.70083 2.85011 8.86022 2.69999 9.05999C2.45344 9.47747 2.30466 9.94538 2.26482 10.4286C2.22499 10.9118 2.29513 11.3978 2.46999 11.85C2.99999 13.58 5.28999 15 5.99999 15.47C6.73999 15.03 8.99999 13.57 9.54999 11.85C9.72269 11.3973 9.79168 10.9117 9.75187 10.4289C9.71207 9.94602 9.56449 9.47825 9.31999 9.05999C9.16711 8.86074 8.96782 8.70191 8.73949 8.59733C8.51116 8.49275 8.26072 8.4456 8.00999 8.45999C7.81173 8.46254 7.61598 8.50463 7.43419 8.5838C7.25241 8.66297 7.08825 8.77763 6.95135 8.92106C6.81444 9.06448 6.70754 9.23379 6.63691 9.41905C6.56627 9.60432 6.53332 9.80182 6.53999 9.99999C6.53245 10.1283 6.47676 10.249 6.38406 10.338C6.29136 10.427 6.16848 10.4777 6.03999 10.48C5.91078 10.4801 5.78654 10.4302 5.69333 10.3407C5.60011 10.2512 5.54516 10.1291 5.53999 9.99999C5.54268 9.79701 5.50468 9.59554 5.42824 9.40749C5.3518 9.21943 5.23847 9.04859 5.09493 8.90505C4.95139 8.76151 4.78055 8.64818 4.59249 8.57174C4.40444 8.4953 4.20297 8.4573 3.99999 8.45999Z" fill="white"/>
<path d="M18 16.54C17.9194 16.5405 17.8401 16.5198 17.77 16.48C17.63 16.41 14.22 14.59 13.49 12.13C13.2735 11.5285 13.1961 10.8859 13.2636 10.2502C13.3312 9.61456 13.5419 9.00249 13.88 8.45999C14.1261 8.1367 14.4461 7.87716 14.8133 7.70316C15.1804 7.52916 15.5839 7.44577 15.99 7.45999C16.3809 7.44279 16.7697 7.5256 17.1197 7.70058C17.4697 7.87557 17.7692 8.13694 17.99 8.45999C18.2121 8.1383 18.5119 7.87796 18.8616 7.70314C19.2112 7.52831 19.5994 7.44467 19.99 7.45999C20.3959 7.44659 20.7991 7.53035 21.1662 7.70429C21.5332 7.87823 21.8533 8.13732 22.1 8.45999C22.4364 9.00328 22.6454 9.61574 22.7112 10.2514C22.777 10.887 22.698 11.5293 22.48 12.13C21.76 14.59 18.35 16.41 18.21 16.48C18.1449 16.5143 18.0734 16.5348 18 16.54ZM16 8.45999C15.7492 8.4456 15.4988 8.49275 15.2705 8.59733C15.0421 8.70191 14.8429 8.86074 14.69 9.05999C14.4455 9.47825 14.2979 9.94602 14.2581 10.4289C14.2183 10.9117 14.2873 11.3973 14.46 11.85C14.97 13.58 17.27 15.04 18.01 15.47C18.76 15.03 21.06 13.57 21.56 11.85C21.7348 11.3978 21.805 10.9118 21.7651 10.4286C21.7253 9.94538 21.5765 9.47747 21.33 9.05999C21.1298 8.80591 20.8564 8.6194 20.5469 8.52565C20.2373 8.4319 19.9064 8.43542 19.5989 8.53574C19.2914 8.63607 19.022 8.82836 18.8273 9.08664C18.6326 9.34492 18.5218 9.65674 18.51 9.97999C18.5048 10.1082 18.4495 10.2292 18.356 10.3171C18.2625 10.405 18.1383 10.4527 18.01 10.45C17.8808 10.4501 17.7565 10.4002 17.6633 10.3107C17.5701 10.2212 17.5151 10.0991 17.51 9.96999C17.5113 9.77132 17.4732 9.57437 17.3977 9.39057C17.3223 9.20677 17.2112 9.03978 17.0707 8.89929C16.9302 8.75881 16.7632 8.64764 16.5794 8.57222C16.3956 8.49681 16.1986 8.45866 16 8.45999Z" fill="white"/>
</svg>
