<svg width="24" height="24" viewBox="0 0 24 24" fill="none" xmlns="http://www.w3.org/2000/svg">
<path d="M19.94 18.9999H19.88C19.7481 18.9824 19.6283 18.9141 19.5461 18.8094C19.4639 18.7048 19.4258 18.5722 19.44 18.4399C19.4801 18.1081 19.5001 17.7742 19.5 17.4399V13.1699C19.5118 11.0616 18.7218 9.02756 17.29 7.47992C16.6169 6.74589 15.7998 6.15839 14.8897 5.75407C13.9796 5.34976 12.9959 5.13729 12 5.12992C9.94779 5.20559 8.00847 6.08855 6.60393 7.58673C5.19939 9.08491 4.44325 11.0771 4.5 13.1299V17.3899C4.49987 17.7242 4.51991 18.0581 4.56 18.3899C4.5742 18.5222 4.53614 18.6548 4.45394 18.7594C4.37173 18.8641 4.2519 18.9324 4.12 18.9499C3.9882 18.9616 3.8569 18.9226 3.75285 18.8408C3.64881 18.7591 3.57984 18.6407 3.56 18.5099C3.5198 18.1346 3.49977 17.7574 3.5 17.3799V13.1699C3.44337 10.852 4.30489 8.6055 5.89693 6.9198C7.48898 5.23411 9.68258 4.24573 12 4.16992C13.1273 4.17118 14.2423 4.40546 15.2748 4.85804C16.3073 5.31063 17.2351 5.97175 18 6.79992C19.6151 8.52605 20.5063 10.8061 20.49 13.1699V17.4299C20.4902 17.8074 20.4702 18.1846 20.43 18.5599C20.4135 18.6793 20.3552 18.7891 20.2655 18.8696C20.1758 18.9502 20.0605 18.9963 19.94 18.9999Z" fill="white"/>
<path d="M19.94 19H4.06C3.92739 19 3.80021 18.9473 3.70645 18.8536C3.61268 18.7598 3.56 18.6326 3.56 18.5C3.56 18.3674 3.61268 18.2402 3.70645 18.1464C3.80021 18.0527 3.92739 18 4.06 18H19.94C20.0726 18 20.1998 18.0527 20.2936 18.1464C20.3873 18.2402 20.44 18.3674 20.44 18.5C20.44 18.6326 20.3873 18.7598 20.2936 18.8536C20.1998 18.9473 20.0726 19 19.94 19Z" fill="white"/>
<path d="M12 5.13C11.8674 5.13 11.7402 5.07732 11.6464 4.98355C11.5527 4.88979 11.5 4.76261 11.5 4.63V2.5C11.5 2.36739 11.5527 2.24021 11.6464 2.14645C11.7402 2.05268 11.8674 2 12 2C12.1326 2 12.2598 2.05268 12.3536 2.14645C12.4473 2.24021 12.5 2.36739 12.5 2.5V4.63C12.5 4.76261 12.4473 4.88979 12.3536 4.98355C12.2598 5.07732 12.1326 5.13 12 5.13Z" fill="white"/>
<path d="M12 22C11.0717 22 10.1815 21.6313 9.52513 20.9749C8.86875 20.3185 8.5 19.4283 8.5 18.5C8.5 18.3674 8.55268 18.2402 8.64645 18.1464C8.74021 18.0527 8.86739 18 9 18C9.13261 18 9.25979 18.0527 9.35355 18.1464C9.44732 18.2402 9.5 18.3674 9.5 18.5C9.5 19.163 9.76339 19.7989 10.2322 20.2678C10.7011 20.7366 11.337 21 12 21C12.663 21 13.2989 20.7366 13.7678 20.2678C14.2366 19.7989 14.5 19.163 14.5 18.5C14.5 18.3674 14.5527 18.2402 14.6464 18.1464C14.7402 18.0527 14.8674 18 15 18C15.1326 18 15.2598 18.0527 15.3536 18.1464C15.4473 18.2402 15.5 18.3674 15.5 18.5C15.5 19.4283 15.1313 20.3185 14.4749 20.9749C13.8185 21.6313 12.9283 22 12 22Z" fill="white"/>
</svg>
