<svg width="24" height="24" viewBox="0 0 24 24" fill="none" xmlns="http://www.w3.org/2000/svg">
<path d="M17.15 17.6301H7.31C5.85396 17.5688 4.47792 16.9473 3.46934 15.8953C2.46075 14.8434 1.89764 13.4424 1.89764 11.9851C1.89764 10.5278 2.46075 9.12679 3.46934 8.07486C4.47792 7.02292 5.85396 6.40138 7.31 6.34009H17.15C18.606 6.40138 19.9821 7.02292 20.9907 8.07486C21.9992 9.12679 22.5624 10.5278 22.5624 11.9851C22.5624 13.4424 21.9992 14.8434 20.9907 15.8953C19.9821 16.9473 18.606 17.5688 17.15 17.6301ZM7.31 7.34009C6.11535 7.39553 4.988 7.90913 4.16218 8.77417C3.33636 9.6392 2.87558 10.7892 2.87558 11.9851C2.87558 13.181 3.33636 14.331 4.16218 15.196C4.988 16.061 6.11535 16.5746 7.31 16.6301H17.15C18.3446 16.5746 19.472 16.061 20.2978 15.196C21.1236 14.331 21.5844 13.181 21.5844 11.9851C21.5844 10.7892 21.1236 9.6392 20.2978 8.77417C19.472 7.90913 18.3446 7.39553 17.15 7.34009H7.31Z" fill="white"/>
<path d="M6.92001 14.1001C6.78741 14.1001 6.66023 14.0474 6.56646 13.9537C6.47269 13.8599 6.42001 13.7327 6.42001 13.6001V10.3501C6.42001 10.2175 6.47269 10.0903 6.56646 9.99654C6.66023 9.90278 6.78741 9.8501 6.92001 9.8501C7.05262 9.8501 7.1798 9.90278 7.27357 9.99654C7.36733 10.0903 7.42001 10.2175 7.42001 10.3501V13.6001C7.42001 13.7327 7.36733 13.8599 7.27357 13.9537C7.1798 14.0474 7.05262 14.1001 6.92001 14.1001Z" fill="white"/>
<path d="M8.54001 12.47H5.29001C5.1574 12.47 5.03022 12.4173 4.93646 12.3235C4.84269 12.2298 4.79001 12.1026 4.79001 11.97C4.79257 11.8382 4.84607 11.7125 4.93929 11.6192C5.03251 11.526 5.1582 11.4725 5.29001 11.47H8.54001C8.67092 11.4802 8.79254 11.5415 8.87861 11.6407C8.96468 11.7399 9.00829 11.8689 9.00001 12C8.99313 12.1207 8.94273 12.2348 8.85815 12.3212C8.77358 12.4077 8.66055 12.4605 8.54001 12.47Z" fill="white"/>
<path d="M17.54 14.1201C17.4082 14.1176 17.2825 14.0641 17.1893 13.9708C17.0961 13.8776 17.0426 13.7519 17.04 13.6201V10.3701C17.04 10.2375 17.0927 10.1103 17.1865 10.0166C17.2802 9.9228 17.4074 9.87012 17.54 9.87012C17.6726 9.87012 17.7998 9.9228 17.8936 10.0166C17.9873 10.1103 18.04 10.2375 18.04 10.3701V13.6201C18.04 13.7527 17.9873 13.8799 17.8936 13.9737C17.7998 14.0674 17.6726 14.1201 17.54 14.1201Z" fill="white"/>
<path d="M19.17 12.49H15.92C15.7874 12.49 15.6602 12.4373 15.5665 12.3435C15.4727 12.2498 15.42 12.1226 15.42 11.99C15.42 11.8574 15.4727 11.7302 15.5665 11.6364C15.6602 11.5427 15.7874 11.49 15.92 11.49H19.17C19.3018 11.4926 19.4275 11.5461 19.5207 11.6393C19.614 11.7325 19.6675 11.8582 19.67 11.99C19.67 12.1226 19.6173 12.2498 19.5236 12.3435C19.4298 12.4373 19.3026 12.49 19.17 12.49Z" fill="white"/>
</svg>
