<svg width="24" height="24" viewBox="0 0 24 24" fill="none" xmlns="http://www.w3.org/2000/svg">
<path d="M9.86002 16.73C9.58051 16.7339 9.3048 16.665 9.06002 16.53C8.77615 16.3881 8.53765 16.1696 8.37153 15.8993C8.2054 15.6289 8.11828 15.3174 8.12002 15V9.00001C8.11828 8.68267 8.2054 8.37117 8.37153 8.10077C8.53765 7.83038 8.77615 7.61188 9.06002 7.47001C9.33964 7.32193 9.65468 7.25385 9.97049 7.27326C10.2863 7.29267 10.5906 7.39881 10.85 7.58001L15.14 10.58C15.369 10.7394 15.556 10.9517 15.6852 11.199C15.8144 11.4462 15.8818 11.7211 15.8818 12C15.8818 12.279 15.8144 12.5538 15.6852 12.8011C15.556 13.0483 15.369 13.2607 15.14 13.42L10.85 16.42C10.5595 16.6222 10.214 16.7304 9.86002 16.73ZM9.86002 8.27001C9.74222 8.27164 9.62619 8.29894 9.52002 8.35001C9.39913 8.40999 9.29753 8.50273 9.22681 8.61765C9.15608 8.73258 9.11908 8.86507 9.12002 9.00001V15C9.11908 15.135 9.15608 15.2674 9.22681 15.3824C9.29753 15.4973 9.39913 15.59 9.52002 15.65C9.63685 15.7139 9.76946 15.7431 9.9023 15.7342C10.0351 15.7254 10.1627 15.6788 10.27 15.6L14.56 12.6C14.659 12.5343 14.7403 12.4452 14.7964 12.3405C14.8526 12.2358 14.882 12.1188 14.882 12C14.882 11.8812 14.8526 11.7642 14.7964 11.6595C14.7403 11.5548 14.659 11.4657 14.56 11.4L10.27 8.40001C10.1507 8.3141 10.007 8.26856 9.86002 8.27001Z" fill="white"/>
<path d="M17.66 21.54H6.34002C5.31098 21.54 4.32409 21.1312 3.59645 20.4035C2.86881 19.6759 2.46002 18.689 2.46002 17.66V6.33996C2.46002 5.31092 2.86881 4.32403 3.59645 3.59639C4.32409 2.86875 5.31098 2.45996 6.34002 2.45996H17.66C18.6891 2.45996 19.676 2.86875 20.4036 3.59639C21.1312 4.32403 21.54 5.31092 21.54 6.33996V17.66C21.54 18.689 21.1312 19.6759 20.4036 20.4035C19.676 21.1312 18.6891 21.54 17.66 21.54ZM6.34002 3.45996C5.5762 3.45996 4.84366 3.76339 4.30355 4.30349C3.76345 4.8436 3.46002 5.57614 3.46002 6.33996V17.66C3.46002 18.4238 3.76345 19.1563 4.30355 19.6964C4.84366 20.2365 5.5762 20.54 6.34002 20.54H17.66C18.4238 20.54 19.1564 20.2365 19.6965 19.6964C20.2366 19.1563 20.54 18.4238 20.54 17.66V6.33996C20.54 5.57614 20.2366 4.8436 19.6965 4.30349C19.1564 3.76339 18.4238 3.45996 17.66 3.45996H6.34002Z" fill="white"/>
</svg>
