<svg width="24" height="24" viewBox="0 0 24 24" fill="none" xmlns="http://www.w3.org/2000/svg">
<path d="M12 14.1499C11.1111 14.1519 10.2416 13.89 9.50172 13.3974C8.76182 12.9048 8.18477 12.2036 7.8437 11.3828C7.50262 10.5619 7.41286 9.65832 7.58579 8.78642C7.75872 7.91451 8.18655 7.11355 8.81509 6.48501C9.44363 5.85648 10.2446 5.42864 11.1165 5.25571C11.9884 5.08278 12.892 5.17254 13.7129 5.51362C14.5337 5.85469 15.2349 6.43174 15.7275 7.17165C16.2201 7.91155 16.482 8.78103 16.48 9.66991C16.4773 10.8573 16.0045 11.9952 15.1649 12.8348C14.3253 13.6744 13.1873 14.1473 12 14.1499ZM12 6.14991C11.3093 6.14793 10.6336 6.35094 10.0583 6.73322C9.48309 7.1155 9.03421 7.65987 8.76853 8.2974C8.50285 8.93494 8.4323 9.63698 8.56584 10.3146C8.69937 10.9923 9.03097 11.6151 9.51865 12.1042C10.0063 12.5932 10.6282 12.9266 11.3054 13.0621C11.9827 13.1976 12.6849 13.1291 13.3232 12.8652C13.9615 12.6013 14.5072 12.154 14.8911 11.5799C15.275 11.0057 15.48 10.3306 15.48 9.63991C15.4747 8.72043 15.1057 7.84041 14.4537 7.1921C13.8016 6.54379 12.9195 6.1799 12 6.17991V6.14991Z" fill="white"/>
<path d="M19 18.9999C18.8879 18.9982 18.7796 18.9588 18.6925 18.888C18.6054 18.8173 18.5447 18.7193 18.52 18.6099C18.2099 17.3276 17.4768 16.1871 16.439 15.3725C15.4013 14.5579 14.1193 14.1166 12.8 14.1199H11.2C9.88199 14.1171 8.60151 14.5587 7.56542 15.3735C6.52934 16.1882 5.79817 17.3284 5.49003 18.6099C5.47372 18.6736 5.44498 18.7336 5.40546 18.7862C5.36595 18.8388 5.31644 18.8831 5.25977 18.9165C5.2031 18.95 5.14038 18.9719 5.07522 18.9811C5.01005 18.9902 4.94372 18.9864 4.88003 18.9699C4.81596 18.956 4.75542 18.9291 4.70214 18.8909C4.64886 18.8527 4.60397 18.804 4.57023 18.7478C4.5365 18.6916 4.51465 18.629 4.50601 18.564C4.49738 18.499 4.50215 18.433 4.52003 18.3699C4.88178 16.8716 5.73758 15.5388 6.94946 14.5863C8.16134 13.6339 9.65867 13.1173 11.2 13.1199H12.79C14.3345 13.1156 15.8352 13.6325 17.0493 14.5871C18.2634 15.5417 19.1198 16.8781 19.48 18.3799C19.5101 18.5085 19.4881 18.6438 19.4188 18.7562C19.3494 18.8686 19.2384 18.949 19.11 18.9799L19 18.9999Z" fill="white"/>
<path d="M12 22.0599C10.0103 22.0599 8.06533 21.4699 6.41097 20.3645C4.75661 19.2591 3.4672 17.688 2.70578 15.8497C1.94436 14.0115 1.74514 11.9888 2.13331 10.0373C2.52147 8.08589 3.4796 6.29337 4.88651 4.88645C6.29343 3.47954 8.08595 2.52141 10.0374 2.13325C11.9888 1.74508 14.0116 1.9443 15.8498 2.70572C17.688 3.46714 19.2592 4.75655 20.3646 6.41091C21.47 8.06527 22.06 10.0103 22.06 11.9999C22.0574 14.6672 20.9966 17.2245 19.1106 19.1105C17.2245 20.9966 14.6673 22.0573 12 22.0599ZM12 2.93995C10.2081 2.93995 8.45645 3.47131 6.96654 4.46683C5.47663 5.46236 4.31539 6.87734 3.62966 8.53283C2.94393 10.1883 2.76451 12.01 3.11409 13.7675C3.46367 15.5249 4.32656 17.1393 5.59362 18.4063C6.86068 19.6734 8.47502 20.5363 10.2325 20.8859C11.99 21.2354 13.8116 21.056 15.4671 20.3703C17.1226 19.6846 18.5376 18.5233 19.5331 17.0334C20.5286 15.5435 21.06 13.7918 21.06 11.9999C21.06 9.59708 20.1055 7.29264 18.4064 5.59356C16.7073 3.89448 14.4029 2.93995 12 2.93995Z" fill="white"/>
</svg>
