<svg width="24" height="24" viewBox="0 0 24 24" fill="none" xmlns="http://www.w3.org/2000/svg">
<path d="M21.14 22.5001H2.85999C2.72738 22.5001 2.6002 22.4474 2.50643 22.3537C2.41266 22.2599 2.35999 22.1327 2.35999 22.0001V15.6201C2.35999 15.4875 2.41266 15.3603 2.50643 15.2666C2.6002 15.1728 2.72738 15.1201 2.85999 15.1201H21.14C21.2726 15.1201 21.3998 15.1728 21.4935 15.2666C21.5873 15.3603 21.64 15.4875 21.64 15.6201V22.0001C21.64 22.1327 21.5873 22.2599 21.4935 22.3537C21.3998 22.4474 21.2726 22.5001 21.14 22.5001ZM3.35999 21.5001H20.64V16.1201H3.35999V21.5001Z" fill="white"/>
<path d="M2.85998 16.12C2.72887 16.1289 2.59955 16.0858 2.49998 16C2.40773 15.9049 2.35614 15.7775 2.35614 15.645C2.35614 15.5125 2.40773 15.3852 2.49998 15.29L6.16998 11.63C6.21462 11.582 6.26883 11.5438 6.32911 11.518C6.38938 11.4921 6.4544 11.4792 6.51998 11.48L17.52 11.55C17.6537 11.557 17.7809 11.61 17.88 11.7L21.47 15.29C21.5641 15.3842 21.617 15.5119 21.617 15.645C21.617 15.7782 21.5641 15.9059 21.47 16C21.3758 16.0942 21.2481 16.1471 21.115 16.1471C20.9818 16.1471 20.8541 16.0942 20.76 16L17.31 12.55L6.72998 12.46L3.20998 16C3.16279 16.0427 3.10744 16.0753 3.04728 16.0959C2.98712 16.1165 2.9234 16.1247 2.85998 16.12Z" fill="white"/>
<path d="M17.85 12.5001C17.7174 12.5001 17.5902 12.4474 17.4964 12.3536C17.4027 12.2599 17.35 12.1327 17.35 12.0001V2.58008H7V12.0001C7 12.1327 6.94732 12.2599 6.85355 12.3536C6.75979 12.4474 6.63261 12.5001 6.5 12.5001C6.36739 12.5001 6.24021 12.4474 6.14645 12.3536C6.05268 12.2599 6 12.1327 6 12.0001V2.08008C6.00256 1.94827 6.05606 1.82258 6.14928 1.72936C6.2425 1.63614 6.36819 1.58264 6.5 1.58008H17.85C17.9826 1.58008 18.1098 1.63276 18.2036 1.72652C18.2973 1.82029 18.35 1.94747 18.35 2.08008V12.0001C18.35 12.1327 18.2973 12.2599 18.2036 12.3536C18.1098 12.4474 17.9826 12.5001 17.85 12.5001Z" fill="white"/>
<path d="M12.19 5.62012C12.0574 5.62012 11.9302 5.56744 11.8364 5.47367C11.7427 5.3799 11.69 5.25273 11.69 5.12012V2.12012C11.69 1.98751 11.7427 1.86033 11.8364 1.76656C11.9302 1.6728 12.0574 1.62012 12.19 1.62012C12.3218 1.62268 12.4475 1.67618 12.5407 1.7694C12.6339 1.86262 12.6874 1.98831 12.69 2.12012V5.12012C12.69 5.25273 12.6373 5.3799 12.5436 5.47367C12.4498 5.56744 12.3226 5.62012 12.19 5.62012Z" fill="white"/>
<path d="M14.39 7.83011C14.2582 7.82755 14.1325 7.77405 14.0393 7.68083C13.946 7.58761 13.8925 7.46192 13.89 7.33011C13.908 7.09523 13.8773 6.85916 13.7997 6.63671C13.7222 6.41426 13.5996 6.21023 13.4395 6.0374C13.2794 5.86458 13.0853 5.7267 12.8695 5.63241C12.6536 5.53811 12.4205 5.48944 12.185 5.48944C11.9494 5.48944 11.7164 5.53811 11.5005 5.63241C11.2846 5.7267 11.0906 5.86458 10.9305 6.0374C10.7704 6.21023 10.6477 6.41426 10.5702 6.63671C10.4927 6.85916 10.462 7.09523 10.48 7.33011C10.48 7.46272 10.4273 7.5899 10.3335 7.68366C10.2398 7.77743 10.1126 7.83011 9.97998 7.83011C9.84817 7.82755 9.72247 7.77405 9.62926 7.68083C9.53604 7.58761 9.48254 7.46192 9.47998 7.33011C9.45753 6.96105 9.51084 6.5913 9.63662 6.24362C9.76241 5.89593 9.95801 5.57766 10.2114 5.30839C10.4648 5.03913 10.7706 4.82456 11.11 4.67789C11.4494 4.53123 11.8152 4.45557 12.185 4.45557C12.5547 4.45557 12.9205 4.53123 13.26 4.67789C13.5994 4.82456 13.9052 5.03913 14.1586 5.30839C14.4119 5.57766 14.6075 5.89593 14.7333 6.24362C14.8591 6.5913 14.9124 6.96105 14.89 7.33011C14.89 7.46272 14.8373 7.5899 14.7435 7.68366C14.6498 7.77743 14.5226 7.83011 14.39 7.83011Z" fill="white"/>
</svg>
