<svg width="24" height="24" viewBox="0 0 24 24" fill="none" xmlns="http://www.w3.org/2000/svg">
<path d="M4.56999 21.78C4.49356 21.7827 4.41773 21.7655 4.34999 21.73C4.26584 21.6887 4.19497 21.6247 4.14546 21.5451C4.09596 21.4656 4.06981 21.3737 4.06999 21.28V5.58997C4.07263 4.697 4.42853 3.84136 5.05996 3.20993C5.69138 2.57851 6.54702 2.22261 7.43999 2.21997H16.56C17.453 2.22261 18.3086 2.57851 18.94 3.20993C19.5715 3.84136 19.9274 4.697 19.93 5.58997V21.28C19.9302 21.3737 19.904 21.4656 19.8545 21.5451C19.805 21.6247 19.7341 21.6887 19.65 21.73C19.572 21.7788 19.4819 21.8046 19.39 21.8046C19.298 21.8046 19.2079 21.7788 19.13 21.73L12 16.42L4.86999 21.69C4.78134 21.7495 4.67678 21.7809 4.56999 21.78ZM7.43999 3.21997C6.81224 3.2226 6.21095 3.47314 5.76706 3.91704C5.32317 4.36093 5.07263 4.96222 5.06999 5.58997V20.29L11.7 15.39C11.7872 15.3266 11.8922 15.2924 12 15.2924C12.1078 15.2924 12.2128 15.3266 12.3 15.39L18.93 20.29V5.58997C18.9274 4.96222 18.6768 4.36093 18.2329 3.91704C17.789 3.47314 17.1877 3.2226 16.56 3.21997H7.43999Z" fill="white"/>
</svg>
