<svg width="24" height="24" viewBox="0 0 24 24" fill="none" xmlns="http://www.w3.org/2000/svg">
<path d="M10.34 17.5499C10.2387 17.5519 10.1392 17.5237 10.054 17.4689C9.9688 17.4141 9.90188 17.3351 9.86174 17.2421C9.82161 17.1491 9.81007 17.0463 9.8286 16.9467C9.84714 16.8471 9.8949 16.7553 9.96582 16.683C10.0367 16.6107 10.1276 16.5611 10.2268 16.5406C10.326 16.5201 10.429 16.5296 10.5228 16.5679C10.6166 16.6062 10.6968 16.6715 10.7533 16.7556C10.8098 16.8397 10.84 16.9386 10.84 17.0399C10.84 17.1735 10.7877 17.3017 10.6942 17.3971C10.6007 17.4924 10.4735 17.5473 10.34 17.5499Z" fill="white"/>
<path d="M14.01 17.5499C14.2861 17.5499 14.51 17.3261 14.51 17.0499C14.51 16.7738 14.2861 16.5499 14.01 16.5499C13.7339 16.5499 13.51 16.7738 13.51 17.0499C13.51 17.3261 13.7339 17.5499 14.01 17.5499Z" fill="white"/>
<path d="M14.27 21.48H9.72999C8.55243 21.48 7.4231 21.0122 6.59044 20.1795C5.75778 19.3469 5.28999 18.2175 5.28999 17.04C5.28999 15.8624 5.75778 14.7331 6.59044 13.9004C7.4231 13.0678 8.55243 12.6 9.72999 12.6H14.27C15.4476 12.6 16.5769 13.0678 17.4095 13.9004C18.2422 14.7331 18.71 15.8624 18.71 17.04C18.71 18.2175 18.2422 19.3469 17.4095 20.1795C16.5769 21.0122 15.4476 21.48 14.27 21.48ZM9.72999 13.6C9.27825 13.6 8.83092 13.689 8.41356 13.8618C7.9962 14.0347 7.61698 14.2881 7.29755 14.6075C6.97811 14.927 6.72472 15.3062 6.55185 15.7235C6.37897 16.1409 6.28999 16.5882 6.28999 17.04C6.28999 17.4917 6.37897 17.939 6.55185 18.3564C6.72472 18.7738 6.97811 19.153 7.29755 19.4724C7.61698 19.7919 7.9962 20.0452 8.41356 20.2181C8.83092 20.391 9.27825 20.48 9.72999 20.48H14.27C15.1823 20.48 16.0573 20.1175 16.7024 19.4724C17.3476 18.8273 17.71 17.9523 17.71 17.04C17.71 16.1276 17.3476 15.2527 16.7024 14.6075C16.0573 13.9624 15.1823 13.6 14.27 13.6H9.72999Z" fill="white"/>
<path d="M20 15.06H17.32C17.1874 15.06 17.0602 15.0073 16.9664 14.9135C16.8727 14.8198 16.82 14.6926 16.82 14.56C16.82 14.4274 16.8727 14.3002 16.9664 14.2064C17.0602 14.1127 17.1874 14.06 17.32 14.06H20C20.4819 14.0574 20.9433 13.8648 21.284 13.524C21.6248 13.1833 21.8174 12.7219 21.82 12.24C21.8174 9.92983 20.8992 7.71492 19.2666 6.08046C17.634 4.446 15.4201 3.52527 13.11 3.51998H11C8.68812 3.52263 6.47169 4.44219 4.83695 6.07693C3.2022 7.71168 2.28264 9.9281 2.28 12.24C2.28262 12.7219 2.47521 13.1833 2.81596 13.524C3.15671 13.8648 3.61811 14.0574 4.1 14.06H6.68C6.8126 14.06 6.93978 14.1127 7.03355 14.2064C7.12732 14.3002 7.18 14.4274 7.18 14.56C7.18 14.6926 7.12732 14.8198 7.03355 14.9135C6.93978 15.0073 6.8126 15.06 6.68 15.06H4.05C3.30209 15.06 2.58481 14.7629 2.05595 14.234C1.5271 13.7052 1.23 12.9879 1.23 12.24C1.2313 10.9597 1.48526 9.69224 1.97733 8.51028C2.4694 7.32832 3.18989 6.2551 4.09751 5.35212C5.00514 4.44914 6.08205 3.73416 7.26651 3.24817C8.45098 2.76217 9.71971 2.51472 11 2.51998H13.11C15.6836 2.52526 18.1503 3.54998 19.9702 5.36981C21.79 7.18964 22.8147 9.65635 22.82 12.23C22.82 12.9788 22.5232 13.6971 21.9946 14.2276C21.4661 14.758 20.7488 15.0573 20 15.06Z" fill="white"/>
<path d="M3.16999 12.3299C2.62389 12.3214 2.08436 12.2095 1.57999 11.9999C1.51889 11.9757 1.46317 11.9396 1.41601 11.8938C1.36886 11.848 1.3312 11.7934 1.3052 11.733C1.27919 11.6726 1.26534 11.6077 1.26445 11.542C1.26356 11.4763 1.27563 11.411 1.29999 11.3499C1.32202 11.2883 1.35641 11.2319 1.40105 11.1841C1.44568 11.1362 1.49963 11.098 1.55956 11.0718C1.6195 11.0456 1.68416 11.0319 1.74958 11.0316C1.815 11.0313 1.8798 11.0443 1.93999 11.0699C2.33272 11.2203 2.74946 11.2982 3.16999 11.2999C3.86037 11.2951 4.53126 11.0705 5.08543 10.6587C5.6396 10.247 6.04824 9.66945 6.25214 9.00985C6.45604 8.35025 6.44459 7.64285 6.21945 6.9902C5.99432 6.33754 5.56719 5.77354 4.99999 5.37993C4.90782 5.29945 4.84836 5.18797 4.83287 5.06659C4.81738 4.94521 4.84694 4.82236 4.91594 4.72132C4.98495 4.62027 5.08862 4.54803 5.20731 4.51829C5.32601 4.48855 5.45149 4.50336 5.55999 4.55993C6.31329 5.06962 6.88322 5.80752 7.18599 6.66518C7.48875 7.52284 7.50839 8.455 7.24201 9.32465C6.97563 10.1943 6.43729 10.9556 5.70612 11.4965C4.97495 12.0375 4.08952 12.3296 3.17999 12.3299H3.16999Z" fill="white"/>
<path d="M22.26 12.3099C20.6974 12.1917 19.2367 11.4889 18.1691 10.3417C17.1016 9.19447 16.5056 7.68704 16.5 6.11994C16.4979 5.36418 16.6369 4.61466 16.91 3.90994C16.9342 3.84884 16.9703 3.79312 17.0161 3.74597C17.0619 3.69882 17.1166 3.66116 17.1769 3.63515C17.2373 3.60915 17.3022 3.5953 17.3679 3.59441C17.4337 3.59351 17.4989 3.60559 17.56 3.62995C17.6216 3.65198 17.678 3.68636 17.7259 3.731C17.7737 3.77564 17.8119 3.82958 17.8381 3.88952C17.8643 3.94945 17.878 4.01412 17.8784 4.07954C17.8787 4.14496 17.8656 4.20975 17.84 4.26994C17.5611 5.02382 17.4605 5.83198 17.5459 6.63122C17.6314 7.43046 17.9006 8.19909 18.3325 8.87698C18.7644 9.55487 19.3473 10.1236 20.0356 10.5388C20.7239 10.9539 21.4989 11.2042 22.3 11.2699C22.4326 11.2699 22.5598 11.3226 22.6535 11.4164C22.7473 11.5102 22.8 11.6373 22.8 11.7699C22.8 11.9026 22.7473 12.0297 22.6535 12.1235C22.5598 12.2173 22.4326 12.2699 22.3 12.2699L22.26 12.3099Z" fill="white"/>
</svg>
