<svg width="24" height="24" viewBox="0 0 24 24" fill="none" xmlns="http://www.w3.org/2000/svg">
<path d="M12.44 22.75C12.3314 22.7523 12.2254 22.717 12.14 22.65L5.27999 17.53C5.22001 17.4815 5.17113 17.4207 5.13663 17.3517C5.10213 17.2827 5.08282 17.2071 5.07999 17.13V6.88001C5.08139 6.80122 5.10002 6.72368 5.13457 6.65285C5.16912 6.58202 5.21875 6.51962 5.27999 6.47001L12.14 1.35001C12.2272 1.2866 12.3322 1.25244 12.44 1.25244C12.5478 1.25244 12.6528 1.2866 12.74 1.35001L19.59 6.47001C19.6529 6.51813 19.7037 6.58024 19.7384 6.6514C19.7731 6.72257 19.7908 6.80083 19.79 6.88001V17.13C19.7892 17.2075 19.7708 17.2838 19.7362 17.3531C19.7015 17.4224 19.6515 17.4829 19.59 17.53L12.74 22.65C12.6538 22.7156 12.5483 22.7507 12.44 22.75ZM6.07999 16.87L12.44 21.63L18.79 16.87V7.13001L12.44 2.37001L6.07999 7.13001V16.87Z" fill="white"/>
<path d="M9.93997 15.7599C9.80736 15.7599 9.68019 15.7072 9.58642 15.6135C9.49265 15.5197 9.43997 15.3925 9.43997 15.2599V8.66992C9.43997 8.53731 9.49265 8.41014 9.58642 8.31637C9.68019 8.2226 9.80736 8.16992 9.93997 8.16992C10.0726 8.16992 10.1998 8.2226 10.2935 8.31637C10.3873 8.41014 10.44 8.53731 10.44 8.66992V15.2599C10.4374 15.3917 10.3839 15.5174 10.2907 15.6106C10.1975 15.7039 10.0718 15.7574 9.93997 15.7599Z" fill="white"/>
<path d="M14.94 15.83C14.8074 15.83 14.6802 15.7773 14.5864 15.6835C14.4927 15.5898 14.44 15.4626 14.44 15.33V8.73999C14.44 8.60738 14.4927 8.48021 14.5864 8.38644C14.6802 8.29267 14.8074 8.23999 14.94 8.23999C15.0718 8.24255 15.1975 8.29605 15.2907 8.38927C15.3839 8.48249 15.4374 8.60818 15.44 8.73999V15.33C15.44 15.4626 15.3873 15.5898 15.2935 15.6835C15.1998 15.7773 15.0726 15.83 14.94 15.83Z" fill="white"/>
</svg>
