<svg width="24" height="24" viewBox="0 0 24 24" fill="none" xmlns="http://www.w3.org/2000/svg">
<path d="M11.42 22.75C11.3115 22.7523 11.2054 22.717 11.12 22.65L4.27 17.53C4.20717 17.4834 4.15565 17.4233 4.11929 17.354C4.08293 17.2847 4.06267 17.2082 4.06 17.13V6.88001C4.06116 6.80013 4.08071 6.72159 4.11712 6.65049C4.15354 6.57938 4.20586 6.51763 4.27 6.47001L11.12 1.35001C11.2072 1.2866 11.3122 1.25244 11.42 1.25244C11.5278 1.25244 11.6328 1.2866 11.72 1.35001L18.57 6.47001C18.6329 6.51813 18.6837 6.58024 18.7184 6.6514C18.7531 6.72257 18.7708 6.80083 18.77 6.88001V17.13C18.7692 17.2075 18.7508 17.2838 18.7162 17.3531C18.6815 17.4224 18.6315 17.4829 18.57 17.53L11.72 22.65C11.6338 22.7156 11.5283 22.7507 11.42 22.75ZM5.06 16.88L11.42 21.63L17.77 16.88V7.13001L11.42 2.37001L5.06 7.13001V16.88Z" fill="white"/>
<path d="M11.42 17.0801C11.3115 17.0824 11.2055 17.0471 11.12 16.9801L8.05 14.6901C7.98847 14.643 7.93847 14.5825 7.90382 14.5132C7.86917 14.4439 7.85076 14.3676 7.85 14.2901V9.71008C7.85076 9.63259 7.86917 9.55629 7.90382 9.48698C7.93847 9.41767 7.98847 9.35717 8.05 9.31008L11.12 7.00008C11.2051 6.93191 11.3109 6.89478 11.42 6.89478C11.5291 6.89478 11.6349 6.93191 11.72 7.00008L14.78 9.29008C14.8433 9.33551 14.8946 9.39567 14.9294 9.46536C14.9643 9.53505 14.9816 9.61218 14.98 9.69007V14.2701C14.9816 14.348 14.9643 14.4251 14.9294 14.4948C14.8946 14.5645 14.8433 14.6246 14.78 14.6701L11.72 17.0001C11.6313 17.0586 11.526 17.0866 11.42 17.0801ZM8.85 14.0001L11.42 16.0001L14 14.0001V10.0001L11.42 8.00008L8.85 10.0001V14.0001Z" fill="white"/>
</svg>
