<svg width="24" height="24" viewBox="0 0 24 24" fill="none" xmlns="http://www.w3.org/2000/svg">
<path d="M18 19H6C5.07174 19 4.1815 18.6313 3.52513 17.9749C2.86875 17.3185 2.5 16.4283 2.5 15.5V8.5C2.5 7.57174 2.86875 6.6815 3.52513 6.02513C4.1815 5.36875 5.07174 5 6 5H18C18.9283 5 19.8185 5.36875 20.4749 6.02513C21.1313 6.6815 21.5 7.57174 21.5 8.5V15.5C21.5 16.4283 21.1313 17.3185 20.4749 17.9749C19.8185 18.6313 18.9283 19 18 19ZM6 6C5.33696 6 4.70107 6.26339 4.23223 6.73223C3.76339 7.20107 3.5 7.83696 3.5 8.5V15.5C3.5 16.163 3.76339 16.7989 4.23223 17.2678C4.70107 17.7366 5.33696 18 6 18H18C18.3283 18 18.6534 17.9353 18.9567 17.8097C19.26 17.6841 19.5356 17.4999 19.7678 17.2678C19.9999 17.0356 20.1841 16.76 20.3097 16.4567C20.4353 16.1534 20.5 15.8283 20.5 15.5V8.5C20.5 8.1717 20.4353 7.84661 20.3097 7.54329C20.1841 7.23998 19.9999 6.96438 19.7678 6.73223C19.5356 6.50009 19.26 6.31594 18.9567 6.1903C18.6534 6.06466 18.3283 6 18 6H6Z" fill="white"/>
<path d="M21 15.5H15.45C14.6716 15.4871 13.9287 15.1722 13.3783 14.6217C12.8278 14.0713 12.5129 13.3284 12.5 12.55V11.45C12.5129 10.6716 12.8278 9.92874 13.3783 9.37827C13.9287 8.8278 14.6716 8.51287 15.45 8.5H21C21.1326 8.5 21.2598 8.55268 21.3536 8.64645C21.4473 8.74021 21.5 8.86739 21.5 9C21.5 9.13261 21.4473 9.25979 21.3536 9.35355C21.2598 9.44732 21.1326 9.5 21 9.5H15.45C14.9368 9.51268 14.4482 9.72219 14.0852 10.0852C13.7222 10.4482 13.5127 10.9368 13.5 11.45V12.55C13.5127 13.0632 13.7222 13.5518 14.0852 13.9148C14.4482 14.2778 14.9368 14.4873 15.45 14.5H21C21.1326 14.5 21.2598 14.5527 21.3536 14.6464C21.4473 14.7402 21.5 14.8674 21.5 15C21.5 15.1326 21.4473 15.2598 21.3536 15.3536C21.2598 15.4473 21.1326 15.5 21 15.5Z" fill="white"/>
<path d="M17 12.5C16.9375 12.5141 16.8726 12.5141 16.81 12.5C16.6896 12.4466 16.5934 12.3504 16.54 12.23C16.5252 12.1675 16.5252 12.1024 16.54 12.04C16.5392 11.9744 16.5522 11.9094 16.578 11.8491C16.6038 11.7888 16.642 11.7346 16.69 11.69C16.7586 11.6196 16.8468 11.5715 16.9431 11.5519C17.0394 11.5322 17.1394 11.542 17.23 11.58C17.2924 11.6013 17.3478 11.6393 17.39 11.69C17.4381 11.7346 17.4762 11.7888 17.5021 11.8491C17.5279 11.9094 17.5408 11.9744 17.54 12.04C17.5549 12.1024 17.5549 12.1675 17.54 12.23C17.4867 12.3504 17.3904 12.4466 17.27 12.5C17.1824 12.5289 17.0877 12.5289 17 12.5Z" fill="white"/>
</svg>
