<svg width="24" height="24" viewBox="0 0 24 24" fill="none" xmlns="http://www.w3.org/2000/svg">
<path d="M7.00002 22.51C6.5404 22.5087 6.08553 22.4169 5.66139 22.2398C5.23725 22.0627 4.85215 21.8038 4.52807 21.4778C4.204 21.1519 3.94729 20.7653 3.77261 20.3402C3.59794 19.915 3.50871 19.4596 3.51002 19V11C3.51266 10.0752 3.88121 9.18905 4.53514 8.53512C5.18907 7.88119 6.07523 7.51265 7.00002 7.51001H17C17.9248 7.51265 18.811 7.88119 19.4649 8.53512C20.1188 9.18905 20.4874 10.0752 20.49 11V19C20.4848 19.9231 20.115 20.8067 19.4614 21.4584C18.8078 22.1102 17.9231 22.4774 17 22.48H7.00002V22.51ZM17 8.51001H7.00002C6.67135 8.50737 6.34541 8.56983 6.041 8.69378C5.73659 8.81773 5.45973 9.00072 5.22638 9.2322C4.99304 9.46369 4.80784 9.73907 4.68146 10.0425C4.55508 10.3459 4.49001 10.6713 4.49002 11V19C4.4887 19.33 4.55272 19.657 4.67839 19.9621C4.80406 20.2672 4.9889 20.5445 5.22224 20.7778C5.45558 21.0111 5.7328 21.196 6.03793 21.3216C6.34305 21.4473 6.67004 21.5113 7.00002 21.51H17C17.327 21.5104 17.6509 21.4461 17.9529 21.3208C18.255 21.1955 18.5293 21.0117 18.76 20.78C18.996 20.5472 19.1836 20.2702 19.3123 19.9647C19.441 19.6593 19.5082 19.3315 19.51 19V11C19.5127 10.6692 19.4496 10.3411 19.3246 10.0348C19.1995 9.72855 19.0149 9.45014 18.7814 9.21574C18.5479 8.98134 18.2702 8.79561 17.9645 8.66931C17.6587 8.54302 17.3309 8.47868 17 8.48001V8.51001Z" fill="white"/>
<path d="M8.00005 8.50003C7.86959 8.50082 7.74399 8.45058 7.65005 8.36003C7.54876 8.26669 7.48778 8.13757 7.48005 8.00003V6.00003C7.47873 5.40656 7.59481 4.81868 7.82162 4.27025C8.04842 3.72182 8.38147 3.22367 8.80159 2.80449C9.2217 2.3853 9.72059 2.05336 10.2695 1.82777C10.8184 1.60218 11.4066 1.4874 12.0001 1.49003C13.191 1.49796 14.3304 1.97661 15.1697 2.82154C16.009 3.66648 16.4801 4.80909 16.4801 6.00003V8.00003C16.4801 8.13264 16.4274 8.25982 16.3336 8.35359C16.2398 8.44736 16.1127 8.50003 15.9801 8.50003H7.98005H8.00005ZM12.0001 2.50003C11.5387 2.4974 11.0815 2.58598 10.6545 2.76069C10.2276 2.9354 9.83937 3.1928 9.51224 3.51806C9.18511 3.84333 8.92552 4.23006 8.74837 4.65601C8.57123 5.08196 8.48004 5.53872 8.48005 6.00003V7.50003H15.4801V6.00003C15.4801 5.0743 15.1144 4.18603 14.4626 3.52864C13.8108 2.87124 12.9258 2.49795 12.0001 2.49003V2.50003Z" fill="white"/>
<path d="M12 17C11.6713 17.0013 11.3457 16.9376 11.0417 16.8124C10.7378 16.6872 10.4617 16.5031 10.2293 16.2707C9.99689 16.0383 9.8128 15.7622 9.68763 15.4583C9.56246 15.1544 9.4987 14.8287 9.50002 14.5C9.50265 13.8378 9.76689 13.2034 10.2352 12.7351C10.7034 12.2669 11.3378 12.0026 12 12C12.6623 12.0026 13.2966 12.2669 13.7649 12.7351C14.2331 13.2034 14.4974 13.8378 14.5 14.5C14.5013 14.8287 14.4376 15.1544 14.3124 15.4583C14.1872 15.7622 14.0031 16.0383 13.7707 16.2707C13.5383 16.5031 13.2622 16.6872 12.9583 16.8124C12.6544 16.9376 12.3287 17.0013 12 17ZM12 13C11.7045 13.0049 11.4168 13.0965 11.1728 13.2634C10.9288 13.4302 10.7392 13.665 10.6274 13.9387C10.5156 14.2123 10.4866 14.5128 10.5439 14.8028C10.6013 15.0927 10.7425 15.3595 10.95 15.57C11.2296 15.8462 11.607 16.0008 12 16C12.1972 16.0015 12.3926 15.9633 12.5747 15.8877C12.7568 15.8121 12.9219 15.7007 13.06 15.56C13.3414 15.279 13.4997 14.8977 13.5 14.5C13.5 14.1022 13.342 13.7206 13.0607 13.4393C12.7794 13.158 12.3978 13 12 13Z" fill="white"/>
<path d="M12 19C11.8674 19 11.7402 18.9473 11.6464 18.8536C11.5527 18.7598 11.5 18.6326 11.5 18.5V16.5C11.5026 16.3682 11.5561 16.2425 11.6493 16.1493C11.7425 16.0561 11.8682 16.0026 12 16C12.1326 16 12.2598 16.0527 12.3536 16.1464C12.4473 16.2402 12.5 16.3674 12.5 16.5V18.5C12.5 18.6326 12.4473 18.7598 12.3536 18.8536C12.2598 18.9473 12.1326 19 12 19Z" fill="white"/>
</svg>
