<svg width="24" height="24" viewBox="0 0 24 24" fill="none" xmlns="http://www.w3.org/2000/svg">
<path d="M5.2 16.3299C5.11402 16.3297 5.02968 16.3064 4.9558 16.2624C4.88192 16.2184 4.8212 16.1554 4.78 16.0799C4.063 14.9061 3.6423 13.5755 3.55417 12.2028C3.46604 10.8302 3.71313 9.4567 4.27414 8.20083C4.83515 6.94496 5.69323 5.84441 6.77438 4.99408C7.85553 4.14376 9.1273 3.56919 10.48 3.31993C10.5445 3.30696 10.6109 3.3071 10.6752 3.32033C10.7396 3.33356 10.8007 3.35961 10.8548 3.39693C10.9089 3.43425 10.955 3.48208 10.9903 3.53757C11.0255 3.59306 11.0492 3.65508 11.06 3.71993C11.0834 3.84982 11.0544 3.9837 10.9795 4.09235C10.9046 4.201 10.7897 4.27562 10.66 4.29993C9.24235 4.56254 7.93061 5.22873 6.88227 6.21854C5.83393 7.20834 5.09355 8.47968 4.75 9.87993C4.28464 11.8186 4.60075 13.8624 5.63 15.5699C5.66425 15.6255 5.68703 15.6874 5.69701 15.7519C5.707 15.8165 5.70398 15.8824 5.68814 15.9457C5.67231 16.0091 5.64397 16.0686 5.60479 16.1209C5.56561 16.1731 5.51638 16.217 5.46 16.2499C5.3824 16.3001 5.2924 16.3278 5.2 16.3299Z" fill="white"/>
<path d="M12 20.1799C10.6355 20.1641 9.29459 19.8212 8.09002 19.1799C7.972 19.1189 7.88304 19.0135 7.84272 18.8869C7.8024 18.7604 7.81402 18.6229 7.87502 18.5049C7.93602 18.3869 8.0414 18.2979 8.16799 18.2576C8.29458 18.2173 8.432 18.2289 8.55002 18.2899C10.0387 19.0606 11.7415 19.3139 13.39 19.0099C14.9768 18.716 16.4257 17.916 17.5199 16.7299C18.6141 15.5438 19.2947 14.0352 19.46 12.4299C19.4775 12.2991 19.544 12.1799 19.6462 12.0963C19.7483 12.0127 19.8784 11.9711 20.01 11.9799C20.0758 11.9862 20.1397 12.0054 20.198 12.0365C20.2563 12.0676 20.3079 12.1099 20.3497 12.1611C20.3916 12.2122 20.4229 12.2711 20.4418 12.3344C20.4607 12.3978 20.4669 12.4642 20.46 12.5299C20.2742 14.348 19.506 16.0574 18.2698 17.4035C17.0337 18.7495 15.3957 19.6603 13.6 19.9999C13.0738 20.112 12.5379 20.1723 12 20.1799Z" fill="white"/>
<path d="M4.27999 20.6899C4.12066 20.6888 3.96321 20.6555 3.81713 20.5919C3.67104 20.5283 3.53935 20.4358 3.42999 20.3199C3.27464 20.1519 3.17196 19.9421 3.13463 19.7164C3.09731 19.4907 3.12698 19.2589 3.21999 19.0499L4.74999 15.6199C4.80455 15.4994 4.90465 15.4054 5.02835 15.3586C5.15205 15.3117 5.28928 15.3158 5.40999 15.3699C5.47055 15.3959 5.52526 15.4337 5.57085 15.4813C5.61643 15.5289 5.65196 15.5852 5.67529 15.6468C5.69863 15.7084 5.70931 15.7741 5.70668 15.8399C5.70405 15.9057 5.68817 15.9704 5.65999 16.0299L4.13999 19.4499C4.12657 19.4801 4.12225 19.5136 4.12754 19.5462C4.13284 19.5788 4.14752 19.6092 4.1698 19.6336C4.19208 19.658 4.22099 19.6753 4.25299 19.6836C4.28499 19.6918 4.3187 19.6905 4.34999 19.6799L8.19999 18.3099C8.32464 18.2649 8.46207 18.2712 8.58208 18.3274C8.70209 18.3837 8.79486 18.4853 8.83999 18.6099C8.88181 18.736 8.87282 18.8733 8.81493 18.9929C8.75704 19.1124 8.65481 19.2046 8.52999 19.2499L4.67999 20.6199C4.55221 20.6681 4.41653 20.6918 4.27999 20.6899Z" fill="white"/>
<path d="M16.4 10.13C16.2682 10.1274 16.1425 10.0739 16.0492 9.98073C15.956 9.88751 15.9025 9.76182 15.9 9.63001V3.84001C15.9005 3.7413 15.9302 3.64494 15.9853 3.56308C16.0405 3.48122 16.1187 3.41752 16.21 3.38001C16.3006 3.34208 16.4006 3.33229 16.4969 3.3519C16.5932 3.37152 16.6814 3.41964 16.75 3.49001L19.65 6.38001C19.6966 6.42663 19.7336 6.48197 19.7588 6.54289C19.784 6.6038 19.797 6.66908 19.797 6.73501C19.797 6.80094 19.784 6.86622 19.7588 6.92713C19.7336 6.98805 19.6966 7.04339 19.65 7.09001C19.6033 7.13663 19.548 7.17361 19.4871 7.19884C19.4262 7.22407 19.3609 7.23706 19.295 7.23706C19.229 7.23706 19.1637 7.22407 19.1028 7.19884C19.0419 7.17361 18.9866 7.13663 18.94 7.09001L16.94 5.09001V9.63001C16.9402 9.69918 16.9261 9.76764 16.8985 9.83106C16.8709 9.89449 16.8304 9.9515 16.7797 9.99849C16.7289 10.0455 16.669 10.0814 16.6036 10.1041C16.5383 10.1267 16.4689 10.1355 16.4 10.13Z" fill="white"/>
<path d="M13.51 7.2299C13.4451 7.2326 13.3803 7.22153 13.32 7.1974C13.2597 7.17326 13.2051 7.13663 13.16 7.0899C13.1131 7.04342 13.0759 6.98812 13.0505 6.92719C13.0252 6.86626 13.0121 6.8009 13.0121 6.7349C13.0121 6.66889 13.0252 6.60354 13.0505 6.54261C13.0759 6.48168 13.1131 6.42638 13.16 6.3799L16.05 3.4899C16.0949 3.44207 16.1491 3.40394 16.2093 3.37788C16.2695 3.35182 16.3344 3.33838 16.4 3.33838C16.4656 3.33838 16.5305 3.35182 16.5907 3.37788C16.6509 3.40394 16.7051 3.44207 16.75 3.4899C16.7968 3.53638 16.834 3.59168 16.8594 3.65261C16.8848 3.71354 16.8979 3.77889 16.8979 3.8449C16.8979 3.9109 16.8848 3.97626 16.8594 4.03719C16.834 4.09812 16.7968 4.15342 16.75 4.1999L13.86 7.0899C13.8145 7.13613 13.7599 7.17243 13.6996 7.19652C13.6394 7.22062 13.5748 7.23198 13.51 7.2299Z" fill="white"/>
</svg>
