<svg width="24" height="24" viewBox="0 0 24 24" fill="none" xmlns="http://www.w3.org/2000/svg">
<path d="M11 22.5H10.87C10.759 22.4741 10.6608 22.4096 10.5931 22.318C10.5253 22.2264 10.4923 22.1137 10.5 22V12.5H7.42C6.64557 12.5 5.90285 12.1924 5.35525 11.6448C4.80764 11.0971 4.5 10.3544 4.5 9.58V2C4.5 1.86739 4.55268 1.74021 4.64645 1.64645C4.74021 1.55268 4.86739 1.5 5 1.5H11C11.1326 1.5 11.2598 1.55268 11.3536 1.64645C11.4473 1.74021 11.5 1.86739 11.5 2V7.5H15.81C16.2188 7.50659 16.6188 7.61971 16.9705 7.82819C17.3222 8.03667 17.6134 8.3333 17.8154 8.68877C18.0173 9.04424 18.1231 9.44626 18.1221 9.8551C18.1212 10.2639 18.0136 10.6655 17.81 11.02L11.43 22.25C11.388 22.327 11.3257 22.391 11.2499 22.435C11.1741 22.4791 11.0877 22.5016 11 22.5ZM5.5 2.5V9.58C5.5 10.0892 5.70229 10.5776 6.06236 10.9376C6.42242 11.2977 6.91078 11.5 7.42 11.5H11C11.1326 11.5 11.2598 11.5527 11.3536 11.6464C11.4473 11.7402 11.5 11.8674 11.5 12V20.12L17 10.52C17.1124 10.3154 17.1698 10.0852 17.1667 9.85177C17.1636 9.61836 17.0999 9.38975 16.9821 9.18826C16.8642 8.98677 16.6961 8.81929 16.4942 8.70217C16.2923 8.58504 16.0634 8.52228 15.83 8.52H11C10.8674 8.52 10.7402 8.46732 10.6464 8.37355C10.5527 8.27979 10.5 8.15261 10.5 8.02V2.5H5.5Z" fill="white"/>
</svg>
