<svg width="24" height="24" viewBox="0 0 24 24" fill="none" xmlns="http://www.w3.org/2000/svg">
<path d="M18.73 13.2198C18.5995 13.2206 18.4739 13.1704 18.38 13.0798C18.2843 12.9844 18.2303 12.855 18.23 12.7198C18.2158 12.6573 18.2158 12.5924 18.23 12.5298C18.2537 12.4686 18.2913 12.4138 18.34 12.3698C18.41 12.3017 18.4981 12.2551 18.5938 12.2356C18.6896 12.2161 18.7889 12.2245 18.88 12.2598C18.9386 12.2881 18.9926 12.3252 19.04 12.3698C19.0886 12.4138 19.1263 12.4686 19.15 12.5298C19.1642 12.5924 19.1642 12.6573 19.15 12.7198C19.1497 12.855 19.0957 12.9844 19 13.0798C18.9035 13.1663 18.7795 13.2158 18.65 13.2198H18.73Z" fill="white"/>
<path d="M5.27002 13.2199C5.20711 13.2303 5.14292 13.2303 5.08002 13.2199C5.0214 13.1915 4.96745 13.1544 4.92002 13.1099C4.86902 13.0639 4.83108 13.0052 4.81002 12.9399C4.79514 12.8774 4.79514 12.8123 4.81002 12.7499C4.80922 12.6843 4.82215 12.6193 4.84798 12.559C4.87382 12.4987 4.91198 12.4445 4.96002 12.3999C5.00492 12.3522 5.05946 12.3147 5.12002 12.2899C5.21111 12.2545 5.31042 12.2461 5.40615 12.2656C5.50188 12.2851 5.59 12.3317 5.66002 12.3999C5.70805 12.4445 5.74622 12.4987 5.77205 12.559C5.79788 12.6193 5.81082 12.6843 5.81002 12.7499C5.82489 12.8123 5.82489 12.8774 5.81002 12.9399C5.77485 13.0328 5.71172 13.1125 5.62933 13.168C5.54694 13.2236 5.44935 13.2521 5.35002 13.2499L5.27002 13.2199Z" fill="white"/>
<path d="M6 17.8599C5.3232 17.8639 4.65245 17.7324 4.02729 17.473C3.40213 17.2137 2.83523 16.8318 2.36 16.3499C1.40368 15.3838 0.867249 14.0793 0.867249 12.7199C0.867249 11.3605 1.40368 10.056 2.36 9.08992C2.83707 8.61117 3.40454 8.23203 4.02943 7.97452C4.65431 7.71701 5.32415 7.58628 6 7.58992C6.13261 7.58992 6.25979 7.6426 6.35355 7.73636C6.44732 7.83013 6.5 7.95731 6.5 8.08992C6.49744 8.22172 6.44394 8.34742 6.35072 8.44064C6.2575 8.53386 6.13181 8.58736 6 8.58992C5.44474 8.5763 4.89251 8.67565 4.37681 8.88193C3.86111 9.08821 3.3927 9.39712 3 9.78992C2.2269 10.5691 1.79308 11.6223 1.79308 12.7199C1.79308 13.8176 2.2269 14.8707 3 15.6499C3.7762 16.4248 4.82819 16.8601 5.925 16.8601C7.02181 16.8601 8.0738 16.4248 8.85 15.6499C8.89648 15.6031 8.95178 15.5659 9.01271 15.5405C9.07364 15.5151 9.139 15.502 9.205 15.502C9.27101 15.502 9.33636 15.5151 9.39729 15.5405C9.45822 15.5659 9.51352 15.6031 9.56 15.6499C9.65225 15.7451 9.70384 15.8724 9.70384 16.0049C9.70384 16.1374 9.65225 16.2648 9.56 16.3599C8.61779 17.3101 7.33812 17.8493 6 17.8599Z" fill="white"/>
<path d="M18.05 17.8599C17.3749 17.8626 16.706 17.7304 16.0827 17.4711C15.4593 17.2118 14.894 16.8306 14.42 16.3499C14.3277 16.2548 14.2762 16.1274 14.2762 15.9949C14.2762 15.8624 14.3277 15.7351 14.42 15.6399C14.4665 15.593 14.5218 15.5558 14.5827 15.5305C14.6436 15.5051 14.709 15.492 14.775 15.492C14.841 15.492 14.9063 15.5051 14.9673 15.5305C15.0282 15.5558 15.0835 15.593 15.13 15.6399C15.9062 16.4148 16.9582 16.8501 18.055 16.8501C19.1518 16.8501 20.2038 16.4148 20.98 15.6399C21.7531 14.8607 22.1869 13.8076 22.1869 12.7099C22.1869 11.6123 21.7531 10.5591 20.98 9.77991C20.5955 9.39565 20.1385 9.09167 19.6355 8.88566C19.1325 8.67965 18.5935 8.57572 18.05 8.57991C17.9182 8.57735 17.7925 8.52385 17.6993 8.43063C17.6061 8.33741 17.5526 8.21171 17.55 8.07991C17.55 7.9473 17.6027 7.82012 17.6964 7.72635C17.7902 7.63259 17.9174 7.57991 18.05 7.57991C18.7258 7.57627 19.3957 7.707 20.0206 7.96451C20.6455 8.22202 21.2129 8.60116 21.69 9.07991C22.6463 10.046 23.1827 11.3505 23.1827 12.7099C23.1827 14.0693 22.6463 15.3738 21.69 16.3399C21.2156 16.8236 20.6491 17.2074 20.0239 17.4684C19.3987 17.7295 18.7275 17.8626 18.05 17.8599Z" fill="white"/>
<path d="M14.78 16.5H9.22C9.08739 16.5 8.96022 16.4473 8.86645 16.3536C8.77268 16.2598 8.72 16.1326 8.72 16C8.72 15.8674 8.77268 15.7402 8.86645 15.6464C8.96022 15.5527 9.08739 15.5 9.22 15.5H14.78C14.9126 15.5 15.0398 15.5527 15.1336 15.6464C15.2273 15.7402 15.28 15.8674 15.28 16C15.28 16.1326 15.2273 16.2598 15.1336 16.3536C15.0398 16.4473 14.9126 16.5 14.78 16.5Z" fill="white"/>
<path d="M18.05 8.58984H6C5.86739 8.58984 5.74021 8.53716 5.64645 8.4434C5.55268 8.34963 5.5 8.22245 5.5 8.08984C5.5 7.95724 5.55268 7.83006 5.64645 7.73629C5.74021 7.64252 5.86739 7.58984 6 7.58984H18.1C18.2326 7.58984 18.3598 7.64252 18.4536 7.73629C18.5473 7.83006 18.6 7.95724 18.6 8.08984C18.6004 8.15993 18.586 8.22931 18.5578 8.29348C18.5296 8.35765 18.4882 8.41517 18.4363 8.46232C18.3845 8.50947 18.3233 8.54518 18.2567 8.56715C18.1902 8.58912 18.1197 8.59685 18.05 8.58984Z" fill="white"/>
</svg>
