<svg width="24" height="24" viewBox="0 0 24 24" fill="none" xmlns="http://www.w3.org/2000/svg">
<path d="M6.89 11.9099C6.75629 11.9123 6.62701 11.862 6.53 11.7699C6.43771 11.6723 6.38435 11.5442 6.38 11.4099C6.38294 11.2783 6.43669 11.1529 6.53 11.0599C6.58002 11.032 6.63396 11.0118 6.69 10.9999C6.7824 10.9625 6.88373 10.953 6.98148 10.9726C7.07923 10.9921 7.16911 11.0399 7.24 11.1099C7.33421 11.2023 7.38813 11.3281 7.39 11.4599C7.38566 11.5942 7.3323 11.7223 7.24 11.8199C7.19295 11.8624 7.13879 11.8963 7.08 11.9199C7.01672 11.9308 6.9518 11.9274 6.89 11.9099Z" fill="white"/>
<path d="M9.72999 14.7501C9.59953 14.7509 9.47393 14.7006 9.37999 14.6101C9.33195 14.5654 9.29379 14.5112 9.26796 14.451C9.24213 14.3907 9.22919 14.3257 9.22999 14.2601C9.22841 14.1929 9.24094 14.1262 9.26678 14.0642C9.29262 14.0022 9.33119 13.9463 9.37999 13.9001C9.45001 13.832 9.53813 13.7854 9.63386 13.7659C9.72959 13.7464 9.8289 13.7548 9.91999 13.7901C9.97861 13.8184 10.0326 13.8555 10.08 13.9001C10.1739 13.9967 10.2276 14.1254 10.23 14.2601C10.2233 14.3909 10.1701 14.515 10.08 14.6101C10.0326 14.6547 9.97861 14.6918 9.91999 14.7201C9.85857 14.7398 9.79449 14.7499 9.72999 14.7501Z" fill="white"/>
<path d="M14.24 10.2399C14.1745 10.2407 14.1095 10.2278 14.0492 10.2019C13.9889 10.1761 13.9347 10.1379 13.89 10.0899C13.8422 10.045 13.8041 9.9908 13.778 9.93061C13.752 9.87041 13.7385 9.80551 13.7385 9.73991C13.7385 9.67432 13.752 9.60941 13.778 9.54922C13.8041 9.48902 13.8422 9.4348 13.89 9.38991C13.9586 9.31954 14.0468 9.27142 14.1431 9.2518C14.2394 9.23219 14.3394 9.24198 14.43 9.27991C14.4943 9.30319 14.5525 9.34081 14.6 9.38991C14.6894 9.48457 14.7391 9.60978 14.7391 9.73991C14.7391 9.87005 14.6894 9.99526 14.6 10.0899C14.5525 10.139 14.4943 10.1766 14.43 10.1999C14.3708 10.2283 14.3057 10.242 14.24 10.2399Z" fill="white"/>
<path d="M11.4 7.39996C11.2684 7.39703 11.143 7.34328 11.05 7.24996C11.002 7.20532 10.9638 7.15111 10.938 7.09083C10.9122 7.03056 10.8992 6.96554 10.9 6.89996C10.8985 6.8328 10.911 6.76606 10.9368 6.70404C10.9627 6.64203 11.0012 6.58613 11.05 6.53996C11.1458 6.45283 11.2706 6.40454 11.4 6.40454C11.5295 6.40454 11.6543 6.45283 11.75 6.53996C11.7988 6.58613 11.8374 6.64203 11.8632 6.70404C11.8891 6.76606 11.9016 6.8328 11.9 6.89996C11.9142 6.9625 11.9142 7.02742 11.9 7.08996C11.8764 7.15116 11.8387 7.20595 11.79 7.24996C11.7393 7.30109 11.6783 7.34088 11.6111 7.36674C11.5439 7.39259 11.4719 7.40392 11.4 7.39996Z" fill="white"/>
<path d="M12.54 17.57C12.4745 17.5708 12.4094 17.5579 12.3492 17.532C12.2889 17.5062 12.2347 17.468 12.19 17.42C12.1422 17.3751 12.1041 17.3209 12.078 17.2607C12.052 17.2005 12.0385 17.1356 12.0385 17.07C12.0385 17.0044 12.052 16.9395 12.078 16.8793C12.1041 16.8191 12.1422 16.7649 12.19 16.72C12.2586 16.6496 12.3468 16.6015 12.4431 16.5819C12.5394 16.5623 12.6394 16.5721 12.73 16.61C12.7924 16.6313 12.8478 16.6694 12.89 16.72C12.9586 16.7899 13.0051 16.8783 13.0238 16.9744C13.0425 17.0705 13.0326 17.1699 12.9953 17.2604C12.9581 17.3509 12.8951 17.4285 12.8141 17.4835C12.7332 17.5385 12.6379 17.5686 12.54 17.57Z" fill="white"/>
<path d="M17.06 13.05C16.9265 13.0513 16.7976 13.0012 16.7 12.91C16.6106 12.8114 16.5607 12.6832 16.56 12.55C16.5592 12.4196 16.6095 12.294 16.7 12.2C16.7709 12.13 16.8608 12.0822 16.9585 12.0626C17.0563 12.0431 17.1576 12.0526 17.25 12.09C17.3704 12.1434 17.4667 12.2396 17.52 12.36C17.5293 12.423 17.5293 12.487 17.52 12.55C17.5157 12.6843 17.4623 12.8124 17.37 12.91C17.3208 12.9523 17.2671 12.9892 17.21 13.02C17.1614 13.0361 17.111 13.0462 17.06 13.05Z" fill="white"/>
<path d="M12 22.59C11.5411 22.5951 11.0858 22.5093 10.6601 22.3377C10.2345 22.1661 9.84704 21.912 9.52002 21.59L2.42002 14.49C2.08865 14.1634 1.8255 13.7742 1.64589 13.345C1.46627 12.9159 1.37378 12.4552 1.37378 11.99C1.37378 11.5247 1.46627 11.0641 1.64589 10.6349C1.8255 10.2058 2.08865 9.81656 2.42002 9.48999L9.52002 2.38999C9.84659 2.05862 10.2358 1.79547 10.665 1.61586C11.0942 1.43625 11.5548 1.34375 12.02 1.34375C12.4853 1.34375 12.9459 1.43625 13.3751 1.61586C13.8043 1.79547 14.1934 2.05862 14.52 2.38999L21.63 9.48999C21.9614 9.81656 22.2245 10.2058 22.4042 10.6349C22.5838 11.0641 22.6763 11.5247 22.6763 11.99C22.6763 12.4552 22.5838 12.9159 22.4042 13.345C22.2245 13.7742 21.9614 14.1634 21.63 14.49L14.52 21.59C14.1896 21.9187 13.7959 22.1768 13.3627 22.3487C12.9295 22.5206 12.4659 22.6027 12 22.59ZM12 2.38999C11.6714 2.38886 11.3458 2.45278 11.0421 2.57807C10.7383 2.70336 10.4623 2.88754 10.23 3.11999L3.13002 10.22C2.66467 10.6916 2.40376 11.3275 2.40376 11.99C2.40376 12.6525 2.66467 13.2884 3.13002 13.76L10.23 20.86C10.7016 21.3253 11.3375 21.5863 12 21.5863C12.6626 21.5863 13.2984 21.3253 13.77 20.86L20.87 13.76C21.3378 13.2897 21.6004 12.6533 21.6004 11.99C21.6004 11.3267 21.3378 10.6903 20.87 10.22L13.77 3.11999C13.5378 2.88754 13.2618 2.70336 12.958 2.57807C12.6542 2.45278 12.3286 2.38886 12 2.38999Z" fill="white"/>
</svg>
