<svg width="24" height="24" viewBox="0 0 24 24" fill="none" xmlns="http://www.w3.org/2000/svg">
<path d="M6.26 16.3299C6.17408 16.3286 6.08983 16.3059 6.01479 16.2641C5.93975 16.2222 5.87626 16.1623 5.83 16.0899C4.66263 14.1583 4.30335 11.8446 4.83 9.64993C5.21749 8.06111 6.05613 6.61824 7.24487 5.49514C8.43362 4.37204 9.92176 3.61663 11.53 3.31993C11.5944 3.30696 11.6608 3.3071 11.7252 3.32033C11.7896 3.33356 11.8507 3.35961 11.9048 3.39693C11.9589 3.43425 12.005 3.48208 12.0402 3.53757C12.0755 3.59306 12.0992 3.65508 12.11 3.71993C12.1305 3.85093 12.0991 3.98476 12.0226 4.09303C11.946 4.20131 11.8303 4.27552 11.7 4.29993C10.2842 4.56429 8.97457 5.23126 7.92814 6.22094C6.88171 7.21061 6.14282 8.48102 5.8 9.87993C5.33464 11.8186 5.65074 13.8624 6.68 15.5699C6.72309 15.6465 6.74568 15.7328 6.74559 15.8207C6.7455 15.9085 6.72272 15.9948 6.67947 16.0713C6.63622 16.1477 6.57395 16.2117 6.49871 16.257C6.42347 16.3023 6.3378 16.3274 6.25 16.3299H6.26Z" fill="white"/>
<path d="M13.1 20.1799C11.7353 20.1653 10.3941 19.8223 9.18999 19.1799C9.07197 19.1189 8.98302 19.0135 8.9427 18.8869C8.90237 18.7604 8.91399 18.6229 8.97499 18.5049C9.03599 18.3869 9.14138 18.2979 9.26796 18.2576C9.39455 18.2173 9.53197 18.2289 9.64999 18.2899C10.7328 18.8541 11.9371 19.145 13.158 19.1373C14.379 19.1297 15.5795 18.8236 16.6551 18.2459C17.7307 17.6682 18.6488 16.8362 19.3294 15.8226C20.01 14.8089 20.4324 13.6442 20.56 12.4299C20.5775 12.2991 20.644 12.1799 20.7461 12.0963C20.8483 12.0127 20.9783 11.9711 21.11 11.9799C21.2411 11.995 21.3609 12.0613 21.4433 12.1643C21.5257 12.2673 21.564 12.3987 21.55 12.5299C21.3641 14.3528 20.592 16.0661 19.3497 17.413C18.1074 18.7599 16.4619 19.6676 14.66 19.9999C14.1469 20.1094 13.6245 20.1697 13.1 20.1799Z" fill="white"/>
<path d="M5.34 20.69C5.14652 20.6881 4.95652 20.6382 4.78703 20.5449C4.61754 20.4516 4.47384 20.3176 4.36881 20.1551C4.26378 19.9926 4.20068 19.8066 4.18519 19.6137C4.16969 19.4209 4.20227 19.2272 4.28 19.05L5.81 15.62C5.83415 15.5561 5.87112 15.4979 5.91862 15.4489C5.96613 15.3999 6.02316 15.3611 6.08622 15.335C6.14927 15.3088 6.21701 15.2959 6.28526 15.2969C6.35351 15.298 6.42082 15.313 6.48306 15.341C6.54529 15.369 6.60112 15.4095 6.64711 15.46C6.69311 15.5104 6.72829 15.5697 6.75048 15.6343C6.77268 15.6988 6.78143 15.7672 6.77619 15.8353C6.77095 15.9033 6.75183 15.9696 6.72 16.03L5.19 19.45C5.17659 19.4802 5.17226 19.5136 5.17756 19.5462C5.18285 19.5789 5.19754 19.6092 5.21982 19.6336C5.2421 19.658 5.27101 19.6754 5.30301 19.6836C5.33501 19.6919 5.36872 19.6906 5.4 19.68L9.25 18.31C9.37361 18.2692 9.50824 18.2782 9.6253 18.3351C9.74237 18.392 9.83262 18.4923 9.87689 18.6147C9.92117 18.7371 9.91596 18.872 9.86239 18.9906C9.80882 19.1092 9.7111 19.2023 9.59 19.25L5.74 20.62C5.61205 20.6675 5.47649 20.6912 5.34 20.69Z" fill="white"/>
<path d="M15.41 9.27982C15.3121 9.27844 15.2168 9.24838 15.1359 9.19335C15.055 9.13832 14.9919 9.06074 14.9547 8.97024C14.9174 8.87974 14.9075 8.78029 14.9263 8.68423C14.945 8.58816 14.9915 8.4997 15.06 8.42982L19.15 4.33982C19.2178 4.26824 19.306 4.21928 19.4026 4.1996C19.4993 4.17992 19.5996 4.19047 19.69 4.22982C19.7821 4.26619 19.861 4.32961 19.9164 4.41173C19.9717 4.49384 20.0009 4.5908 20 4.68982V8.77982C20 8.91243 19.9473 9.0396 19.8536 9.13337C19.7598 9.22714 19.6326 9.27982 19.5 9.27982C19.3674 9.27982 19.2402 9.22714 19.1464 9.13337C19.0527 9.0396 19 8.91243 19 8.77982V5.89982L15.77 9.12982C15.6746 9.22554 15.5451 9.27949 15.41 9.27982Z" fill="white"/>
<path d="M19.5 5.18994H15.41C15.2774 5.18994 15.1502 5.13726 15.0565 5.04349C14.9627 4.94973 14.91 4.82255 14.91 4.68994C14.91 4.55733 14.9627 4.43016 15.0565 4.33639C15.1502 4.24262 15.2774 4.18994 15.41 4.18994H19.5C19.6326 4.18994 19.7598 4.24262 19.8536 4.33639C19.9473 4.43016 20 4.55733 20 4.68994C20 4.82255 19.9473 4.94973 19.8536 5.04349C19.7598 5.13726 19.6326 5.18994 19.5 5.18994Z" fill="white"/>
</svg>
