<svg width="24" height="24" viewBox="0 0 24 24" fill="none" xmlns="http://www.w3.org/2000/svg">
<path d="M18 15.1301C17.8703 15.127 17.7461 15.0773 17.65 14.9901C17.6031 14.9436 17.5659 14.8883 17.5406 14.8274C17.5152 14.7664 17.5021 14.7011 17.5021 14.6351C17.5021 14.5691 17.5152 14.5037 17.5406 14.4428C17.5659 14.3819 17.6031 14.3266 17.65 14.2801C17.7636 14.1638 17.853 14.0262 17.9131 13.8751C17.9732 13.7241 18.0027 13.5626 18 13.4001V7.24009C18.0013 7.07688 17.9702 6.91504 17.9083 6.76399C17.8465 6.61295 17.7552 6.47572 17.6398 6.36031C17.5244 6.2449 17.3871 6.15361 17.2361 6.09177C17.0851 6.02992 16.9232 5.99876 16.76 6.00009H10.6C10.274 6.00104 9.96139 6.13038 9.73 6.36009C9.68352 6.40696 9.62822 6.44415 9.56729 6.46954C9.50636 6.49492 9.44101 6.50799 9.375 6.50799C9.309 6.50799 9.24364 6.49492 9.18271 6.46954C9.12178 6.44415 9.06648 6.40696 9.02 6.36009C8.97217 6.3152 8.93405 6.26098 8.90799 6.20079C8.88193 6.14059 8.86848 6.07569 8.86848 6.01009C8.86848 5.94449 8.88193 5.87959 8.90799 5.8194C8.93405 5.7592 8.97217 5.70498 9.02 5.66009C9.43848 5.23953 10.0067 5.00217 10.6 5.00009H16.76C17.0549 4.99742 17.3474 5.05354 17.6204 5.16516C17.8933 5.27679 18.1413 5.44169 18.3499 5.65022C18.5584 5.85876 18.7233 6.10676 18.8349 6.37973C18.9466 6.65271 19.0027 6.94519 19 7.24009V13.4001C19.0015 13.998 18.7681 14.5726 18.35 15.0001C18.2525 15.0837 18.1284 15.1298 18 15.1301Z" fill="white"/>
<path d="M13.4 19.0002H7.24C6.64591 19.0002 6.07616 18.7642 5.65608 18.3441C5.236 17.924 5 17.3543 5 16.7602V10.6002C5 10.0061 5.236 9.43636 5.65608 9.01628C6.07616 8.5962 6.64591 8.3602 7.24 8.3602H13.4C13.9967 8.35493 14.5715 8.58485 15 9.0002C15.4181 9.41622 15.6553 9.98038 15.66 10.5702V16.7402C15.6593 17.3426 15.4223 17.9207 15 18.3502C14.5725 18.7683 13.9979 19.0017 13.4 19.0002ZM7.24 9.3602C6.9107 9.3596 6.59446 9.48897 6.36 9.7202C6.2446 9.83565 6.15334 9.97292 6.09153 10.124C6.02973 10.2751 5.99861 10.437 6 10.6002V16.7602C5.99867 16.9234 6.02983 17.0852 6.09168 17.2363C6.15352 17.3873 6.24481 17.5246 6.36022 17.64C6.47563 17.7554 6.61286 17.8467 6.7639 17.9085C6.91495 17.9704 7.07679 18.0015 7.24 18.0002H13.4C13.5639 18.0003 13.7262 17.9676 13.8774 17.9041C14.0285 17.8405 14.1654 17.7474 14.28 17.6302C14.5112 17.3957 14.6406 17.0795 14.64 16.7502V10.6002C14.6348 10.2729 14.5025 9.96052 14.2711 9.72909C14.0397 9.49765 13.7273 9.36535 13.4 9.3602H7.24Z" fill="white"/>
<path d="M14.62 9.88001C14.4849 9.87968 14.3554 9.82573 14.26 9.73001C14.1678 9.63486 14.1162 9.50754 14.1162 9.37501C14.1162 9.24248 14.1678 9.11516 14.26 9.02001L17.64 5.65001C17.7335 5.5584 17.8591 5.50708 17.99 5.50708C18.1209 5.50708 18.2465 5.5584 18.34 5.65001C18.3869 5.69649 18.4241 5.75179 18.4494 5.81272C18.4748 5.87365 18.4879 5.939 18.4879 6.00501C18.4879 6.07101 18.4748 6.13637 18.4494 6.1973C18.4241 6.25823 18.3869 6.31353 18.34 6.36001L15 9.73001C14.9512 9.78088 14.892 9.82061 14.8264 9.8465C14.7608 9.87239 14.6904 9.88382 14.62 9.88001Z" fill="white"/>
<path d="M6 9.8701C5.86487 9.86977 5.73539 9.81582 5.64 9.7201C5.54775 9.62495 5.49616 9.49762 5.49616 9.3651C5.49616 9.23257 5.54775 9.10525 5.64 9.0101L9 5.6501C9.04648 5.60323 9.10178 5.56604 9.16271 5.54065C9.22364 5.51527 9.28899 5.5022 9.355 5.5022C9.42101 5.5022 9.48636 5.51527 9.54729 5.54065C9.60822 5.56604 9.66352 5.60323 9.71 5.6501C9.80161 5.74356 9.85293 5.86922 9.85293 6.0001C9.85293 6.13097 9.80161 6.25663 9.71 6.3501L6.36 9.7201C6.3131 9.76794 6.25707 9.80588 6.19523 9.83164C6.13339 9.85741 6.06699 9.87049 6 9.8701Z" fill="white"/>
<path d="M14.63 18.5C14.5646 18.4996 14.4999 18.4861 14.4398 18.4604C14.3797 18.4346 14.3254 18.3971 14.28 18.35C14.2331 18.3035 14.1959 18.2482 14.1706 18.1873C14.1452 18.1263 14.1321 18.061 14.1321 17.995C14.1321 17.929 14.1452 17.8636 14.1706 17.8027C14.1959 17.7418 14.2331 17.6865 14.28 17.64L17.64 14.28C17.6865 14.2331 17.7418 14.1959 17.8027 14.1705C17.8636 14.1451 17.929 14.1321 17.995 14.1321C18.061 14.1321 18.1264 14.1451 18.1873 14.1705C18.2482 14.1959 18.3035 14.2331 18.35 14.28C18.4416 14.3734 18.4929 14.4991 18.4929 14.63C18.4929 14.7609 18.4416 14.8865 18.35 14.98L15 18.35C14.9531 18.4006 14.8957 18.4403 14.8317 18.4662C14.7678 18.4921 14.6989 18.5037 14.63 18.5Z" fill="white"/>
</svg>
