<svg width="24" height="24" viewBox="0 0 24 24" fill="none" xmlns="http://www.w3.org/2000/svg">
<path d="M17.56 15.83H6.43999C5.42502 15.8274 4.45238 15.423 3.73468 14.7053C3.01699 13.9876 2.61263 13.015 2.60999 12V5.33C2.61263 4.31503 3.01699 3.34239 3.73468 2.6247C4.45238 1.907 5.42502 1.50264 6.43999 1.5H17.56C18.575 1.50264 19.5476 1.907 20.2653 2.6247C20.983 3.34239 21.3873 4.31503 21.39 5.33V12C21.3873 13.015 20.983 13.9876 20.2653 14.7053C19.5476 15.423 18.575 15.8274 17.56 15.83ZM6.43999 2.5C5.68942 2.5 4.9696 2.79816 4.43887 3.32889C3.90815 3.85962 3.60999 4.57944 3.60999 5.33V12C3.60999 12.7506 3.90815 13.4704 4.43887 14.0011C4.9696 14.5318 5.68942 14.83 6.43999 14.83H17.56C18.3105 14.83 19.0304 14.5318 19.5611 14.0011C20.0918 13.4704 20.39 12.7506 20.39 12V5.33C20.39 4.57944 20.0918 3.85962 19.5611 3.32889C19.0304 2.79816 18.3105 2.5 17.56 2.5H6.43999Z" fill="white"/>
<path d="M3.10999 22.4999C2.97738 22.4999 2.8502 22.4472 2.75643 22.3535C2.66266 22.2597 2.60999 22.1325 2.60999 21.9999V8.66992C2.60999 8.53731 2.66266 8.41014 2.75643 8.31637C2.8502 8.2226 2.97738 8.16992 3.10999 8.16992C3.24259 8.16992 3.36977 8.2226 3.46354 8.31637C3.55731 8.41014 3.60999 8.53731 3.60999 8.66992V21.9999C3.60999 22.1325 3.55731 22.2597 3.46354 22.3535C3.36977 22.4472 3.24259 22.4999 3.10999 22.4999Z" fill="white"/>
</svg>
