<svg width="24" height="24" viewBox="0 0 24 24" fill="none" xmlns="http://www.w3.org/2000/svg">
<path d="M12.84 12.59C11.7522 12.59 10.6889 12.2674 9.78439 11.6631C8.87992 11.0587 8.17497 10.1997 7.75869 9.19473C7.34241 8.18973 7.23349 7.08387 7.44571 6.01697C7.65793 4.95008 8.18175 3.97007 8.95094 3.20088C9.72013 2.43169 10.7001 1.90787 11.767 1.69565C12.8339 1.48343 13.9398 1.59235 14.9448 2.00863C15.9498 2.42491 16.8088 3.12986 17.4131 4.03433C18.0175 4.9388 18.34 6.00217 18.34 7.08997C18.34 8.54866 17.7606 9.94761 16.7291 10.9791C15.6977 12.0105 14.2987 12.59 12.84 12.59ZM12.84 2.58997C11.95 2.58997 11.08 2.85389 10.34 3.34836C9.59994 3.84282 9.02317 4.54563 8.68257 5.36789C8.34198 6.19016 8.25286 7.09496 8.4265 7.96788C8.60013 8.84079 9.02871 9.64261 9.65805 10.2719C10.2874 10.9013 11.0892 11.3299 11.9621 11.5035C12.835 11.6771 13.7398 11.588 14.5621 11.2474C15.3844 10.9068 16.0872 10.3301 16.5816 9.59003C17.0761 8.85001 17.34 7.97998 17.34 7.08997C17.3413 6.49865 17.2259 5.91289 17.0002 5.36633C16.7745 4.81977 16.4431 4.32317 16.025 3.90505C15.6068 3.48692 15.1102 3.1555 14.5637 2.92983C14.0171 2.70415 13.4313 2.58865 12.84 2.58997Z" fill="white"/>
<path d="M3.84003 20.59C3.70742 20.59 3.58024 20.5373 3.48647 20.4435C3.39271 20.3498 3.34003 20.2226 3.34003 20.09C3.34267 17.8364 4.23906 15.676 5.83254 14.0825C7.42603 12.489 9.5865 11.5926 11.84 11.59H13.84C13.9726 11.59 14.0998 11.6426 14.1936 11.7364C14.2873 11.8302 14.34 11.9574 14.34 12.09C14.3375 12.2218 14.284 12.3475 14.1907 12.4407C14.0975 12.5339 13.9718 12.5874 13.84 12.59H11.84C9.8509 12.59 7.94325 13.3801 6.53673 14.7867C5.1302 16.1932 4.34003 18.1008 4.34003 20.09C4.33747 20.2218 4.28397 20.3475 4.19075 20.4407C4.09753 20.5339 3.97183 20.5874 3.84003 20.59Z" fill="white"/>
<path d="M14.51 22.41C14.4437 22.4117 14.3777 22.4002 14.3159 22.3761C14.2541 22.3521 14.1977 22.316 14.15 22.27C14.0578 22.1748 14.0062 22.0475 14.0062 21.915C14.0062 21.7824 14.0578 21.6551 14.15 21.56L19.81 15.9C19.8566 15.8534 19.912 15.8164 19.9729 15.7911C20.0338 15.7659 20.0991 15.7529 20.165 15.7529C20.2309 15.7529 20.2962 15.7659 20.3571 15.7911C20.418 15.8164 20.4734 15.8534 20.52 15.9C20.5666 15.9466 20.6036 16.0019 20.6288 16.0629C20.6541 16.1238 20.667 16.189 20.667 16.255C20.667 16.3209 20.6541 16.3862 20.6288 16.4471C20.6036 16.508 20.5666 16.5634 20.52 16.61L14.86 22.27C14.8145 22.3162 14.7599 22.3525 14.6997 22.3766C14.6394 22.4007 14.5748 22.4121 14.51 22.41Z" fill="white"/>
<path d="M20.16 22.41C20.0953 22.4109 20.0311 22.399 19.971 22.375C19.911 22.351 19.8562 22.3153 19.81 22.27L14.15 16.61C14.1034 16.5634 14.0664 16.508 14.0412 16.4471C14.016 16.3862 14.003 16.3209 14.003 16.255C14.003 16.189 14.016 16.1238 14.0412 16.0629C14.0664 16.0019 14.1034 15.9466 14.15 15.9C14.1967 15.8534 14.252 15.8164 14.3129 15.7911C14.3738 15.7659 14.4391 15.7529 14.505 15.7529C14.571 15.7529 14.6362 15.7659 14.6972 15.7911C14.7581 15.8164 14.8134 15.8534 14.86 15.9L20.52 21.56C20.6123 21.6551 20.6639 21.7824 20.6639 21.915C20.6639 22.0475 20.6123 22.1748 20.52 22.27C20.4723 22.316 20.4159 22.3521 20.3541 22.3761C20.2923 22.4002 20.2263 22.4117 20.16 22.41Z" fill="white"/>
</svg>
