<svg width="24" height="24" viewBox="0 0 24 24" fill="none" xmlns="http://www.w3.org/2000/svg">
<path d="M16.41 17.89C16.302 17.888 16.1974 17.8518 16.1113 17.7866C16.0252 17.7214 15.962 17.6305 15.9308 17.5271C15.8997 17.4236 15.9022 17.313 15.938 17.2111C15.9738 17.1091 16.041 17.0212 16.13 16.96C17.5188 16.0676 18.5812 14.7494 19.1581 13.2028C19.7351 11.6561 19.7956 9.96421 19.3306 8.3803C18.8656 6.79639 17.9001 5.4057 16.5786 4.41641C15.2571 3.42712 13.6508 2.89246 12 2.89246C10.3492 2.89246 8.74288 3.42712 7.4214 4.41641C6.09992 5.4057 5.1344 6.79639 4.66939 8.3803C4.20438 9.96421 4.26489 11.6561 4.84186 13.2028C5.41883 14.7494 6.48123 16.0676 7.87 16.96C7.92566 16.9963 7.97351 17.0434 8.01076 17.0984C8.04801 17.1535 8.07391 17.2154 8.08695 17.2806C8.09998 17.3457 8.09989 17.4129 8.08668 17.478C8.07347 17.5431 8.0474 17.605 8.01 17.66C7.93656 17.7691 7.82375 17.8457 7.69516 17.8737C7.56657 17.9016 7.43215 17.8788 7.32 17.81C5.75156 16.7993 4.55245 15.308 3.902 13.5592C3.25154 11.8104 3.1847 9.89797 3.71147 8.108C4.23824 6.31803 5.33031 4.74669 6.82435 3.62897C8.3184 2.51125 10.1341 1.90723 12 1.90723C13.8659 1.90723 15.6816 2.51125 17.1757 3.62897C18.6697 4.74669 19.7618 6.31803 20.2885 8.108C20.8153 9.89797 20.7485 11.8104 20.098 13.5592C19.4476 15.308 18.2484 16.7993 16.68 17.81C16.5983 17.8592 16.5053 17.8867 16.41 17.89Z" fill="white"/>
<path d="M16.41 22.1199H7.59C7.4574 22.1199 7.33022 22.0672 7.23645 21.9734C7.14268 21.8797 7.09 21.7525 7.09 21.6199V17.3899C7.09 17.2573 7.14268 17.1301 7.23645 17.0363C7.33022 16.9426 7.4574 16.8899 7.59 16.8899C7.72261 16.8899 7.84979 16.9426 7.94356 17.0363C8.03733 17.1301 8.09 17.2573 8.09 17.3899V21.1199H15.91V17.3899C15.91 17.2573 15.9627 17.1301 16.0564 17.0363C16.1502 16.9426 16.2774 16.8899 16.41 16.8899C16.5426 16.8899 16.6698 16.9426 16.7636 17.0363C16.8573 17.1301 16.91 17.2573 16.91 17.3899V21.6199C16.91 21.7525 16.8573 21.8797 16.7636 21.9734C16.6698 22.0672 16.5426 22.1199 16.41 22.1199Z" fill="white"/>
<path d="M9.16 14.3C9.0274 14.3 8.90022 14.2473 8.80645 14.1535C8.71268 14.0597 8.66 13.9326 8.66 13.8V10.2C8.66 10.0673 8.71268 9.94017 8.80645 9.8464C8.90022 9.75263 9.0274 9.69995 9.16 9.69995C9.29181 9.70251 9.41751 9.75601 9.51072 9.84923C9.60394 9.94245 9.65744 10.0681 9.66 10.2V13.8C9.65744 13.9318 9.60394 14.0575 9.51072 14.1507C9.41751 14.2439 9.29181 14.2974 9.16 14.3Z" fill="white"/>
<path d="M14.56 14.3C14.4282 14.2974 14.3025 14.2439 14.2093 14.1507C14.1161 14.0575 14.0626 13.9318 14.06 13.8V10.2C14.0626 10.0681 14.1161 9.94245 14.2093 9.84923C14.3025 9.75601 14.4282 9.70251 14.56 9.69995C14.6926 9.69995 14.8198 9.75263 14.9136 9.8464C15.0073 9.94017 15.06 10.0673 15.06 10.2V13.8C15.06 13.8656 15.0471 13.9306 15.0219 13.9913C14.9968 14.052 14.96 14.1071 14.9136 14.1535C14.8671 14.1999 14.812 14.2368 14.7513 14.2619C14.6907 14.287 14.6257 14.3 14.56 14.3Z" fill="white"/>
<path d="M10.58 22.14C10.4482 22.1374 10.3225 22.0839 10.2293 21.9907C10.1361 21.8975 10.0826 21.7718 10.08 21.64V19.51C10.08 19.3774 10.1327 19.2502 10.2264 19.1565C10.3202 19.0627 10.4474 19.01 10.58 19.01C10.7126 19.01 10.8398 19.0627 10.9336 19.1565C11.0273 19.2502 11.08 19.3774 11.08 19.51V21.64C11.08 21.7726 11.0273 21.8998 10.9336 21.9936C10.8398 22.0873 10.7126 22.14 10.58 22.14Z" fill="white"/>
<path d="M13.42 22.14C13.2874 22.14 13.1602 22.0873 13.0664 21.9936C12.9727 21.8998 12.92 21.7726 12.92 21.64V19.51C12.92 19.3774 12.9727 19.2502 13.0664 19.1565C13.1602 19.0627 13.2874 19.01 13.42 19.01C13.5526 19.01 13.6798 19.0627 13.7736 19.1565C13.8673 19.2502 13.92 19.3774 13.92 19.51V21.64C13.9174 21.7718 13.8639 21.8975 13.7707 21.9907C13.6775 22.0839 13.5518 22.1374 13.42 22.14Z" fill="white"/>
</svg>
