<svg width="24" height="24" viewBox="0 0 24 24" fill="none" xmlns="http://www.w3.org/2000/svg">
<path d="M17.61 21.46H6.39C5.36626 21.46 4.38446 21.0533 3.66057 20.3295C2.93668 19.6056 2.53 18.6238 2.53 17.6V6.38002C2.53 5.35628 2.93668 4.37448 3.66057 3.65059C4.38446 2.9267 5.36626 2.52002 6.39 2.52002H17.61C18.6337 2.52002 19.6155 2.9267 20.3394 3.65059C21.0633 4.37448 21.47 5.35628 21.47 6.38002V17.6C21.47 18.6238 21.0633 19.6056 20.3394 20.3295C19.6155 21.0533 18.6337 21.46 17.61 21.46ZM6.39 3.52002C5.63148 3.52002 4.90403 3.82134 4.36767 4.35769C3.83132 4.89405 3.53 5.6215 3.53 6.38002V17.6C3.53 18.3585 3.83132 19.086 4.36767 19.6223C4.90403 20.1587 5.63148 20.46 6.39 20.46H17.61C18.3685 20.46 19.096 20.1587 19.6323 19.6223C20.1687 19.086 20.47 18.3585 20.47 17.6V6.38002C20.47 5.6215 20.1687 4.89405 19.6323 4.35769C19.096 3.82134 18.3685 3.52002 17.61 3.52002H6.39Z" fill="white"/>
<path d="M7.86 14.6501C7.15718 14.6501 6.48314 14.3709 5.98617 13.8739C5.48919 13.377 5.21 12.7029 5.21 12.0001C5.21 11.2973 5.48919 10.6232 5.98617 10.1263C6.48314 9.62929 7.15718 9.3501 7.86 9.3501C7.99261 9.3501 8.11978 9.40278 8.21355 9.49654C8.30732 9.59031 8.36 9.71749 8.36 9.8501C8.36 9.98271 8.30732 10.1099 8.21355 10.2037C8.11978 10.2974 7.99261 10.3501 7.86 10.3501C7.55559 10.3515 7.2575 10.4371 6.99871 10.5974C6.73992 10.7577 6.53052 10.9865 6.39368 11.2584C6.25685 11.5303 6.1979 11.8348 6.22337 12.1381C6.24884 12.4415 6.35773 12.7319 6.538 12.9772C6.71827 13.2225 6.96288 13.4131 7.24478 13.528C7.52667 13.6429 7.83486 13.6776 8.13524 13.6282C8.43563 13.5788 8.71649 13.4473 8.94677 13.2482C9.17704 13.0491 9.34775 12.7902 9.44 12.5001H8.59C8.45739 12.5001 8.33021 12.4474 8.23645 12.3537C8.14268 12.2599 8.09 12.1327 8.09 12.0001C8.09 11.8675 8.14268 11.7403 8.23645 11.6465C8.33021 11.5528 8.45739 11.5001 8.59 11.5001H10C10.1326 11.5001 10.2598 11.5528 10.3536 11.6465C10.4473 11.7403 10.5 11.8675 10.5 12.0001C10.4974 12.7004 10.2187 13.3714 9.72447 13.8675C9.23023 14.3636 8.56028 14.6448 7.86 14.6501Z" fill="white"/>
<path d="M12.65 14.6401C12.5174 14.6401 12.3902 14.5874 12.2964 14.4936C12.2027 14.3999 12.15 14.2727 12.15 14.1401V9.84009C12.15 9.70748 12.2027 9.5803 12.2964 9.48653C12.3902 9.39277 12.5174 9.34009 12.65 9.34009C12.7826 9.34009 12.9098 9.39277 13.0036 9.48653C13.0973 9.5803 13.15 9.70748 13.15 9.84009V14.1401C13.15 14.2727 13.0973 14.3999 13.0036 14.4936C12.9098 14.5874 12.7826 14.6401 12.65 14.6401Z" fill="white"/>
<path d="M15.33 14.6501C15.1974 14.6501 15.0702 14.5974 14.9764 14.5037C14.8827 14.4099 14.83 14.2827 14.83 14.1501V9.8501C14.83 9.71749 14.8827 9.59031 14.9764 9.49654C15.0702 9.40278 15.1974 9.3501 15.33 9.3501C15.4626 9.3501 15.5898 9.40278 15.6836 9.49654C15.7773 9.59031 15.83 9.71749 15.83 9.8501V14.1501C15.83 14.2827 15.7773 14.4099 15.6836 14.5037C15.5898 14.5974 15.4626 14.6501 15.33 14.6501Z" fill="white"/>
<path d="M17.93 12.5601H15.33C15.1974 12.5601 15.0702 12.5074 14.9764 12.4136C14.8827 12.3198 14.83 12.1927 14.83 12.0601C14.83 11.9275 14.8827 11.8003 14.9764 11.7065C15.0702 11.6127 15.1974 11.5601 15.33 11.5601H17.93C18.0626 11.5601 18.1898 11.6127 18.2836 11.7065C18.3773 11.8003 18.43 11.9275 18.43 12.0601C18.43 12.1927 18.3773 12.3198 18.2836 12.4136C18.1898 12.5074 18.0626 12.5601 17.93 12.5601Z" fill="white"/>
<path d="M17.93 10.3501H15.33C15.1974 10.3501 15.0702 10.2974 14.9764 10.2037C14.8827 10.1099 14.83 9.98271 14.83 9.8501C14.83 9.71749 14.8827 9.59031 14.9764 9.49654C15.0702 9.40278 15.1974 9.3501 15.33 9.3501H17.93C18.0626 9.3501 18.1898 9.40278 18.2836 9.49654C18.3773 9.59031 18.43 9.71749 18.43 9.8501C18.43 9.98271 18.3773 10.1099 18.2836 10.2037C18.1898 10.2974 18.0626 10.3501 17.93 10.3501Z" fill="white"/>
</svg>
