<svg width="24" height="24" viewBox="0 0 24 24" fill="none" xmlns="http://www.w3.org/2000/svg">
<path d="M4.63 12.08C4.52339 12.0797 4.41917 12.0484 4.33 11.99C4.25597 11.934 4.19899 11.8585 4.16543 11.772C4.13187 11.6854 4.12307 11.5913 4.14 11.5L4.63 8.63L2.54 6.63C2.47478 6.5644 2.42904 6.48201 2.40785 6.39197C2.38667 6.30193 2.39087 6.20778 2.42 6.11999C2.44528 6.02996 2.49685 5.94951 2.56811 5.88894C2.63936 5.82837 2.72707 5.79044 2.82 5.78L5.7 5.32999L7 2.72C7.04569 2.6411 7.11131 2.5756 7.19029 2.53007C7.26927 2.48454 7.35884 2.46057 7.45 2.46057C7.54117 2.46057 7.63073 2.48454 7.70971 2.53007C7.78869 2.5756 7.85432 2.6411 7.9 2.72L9.17 5.32999L12.05 5.74999C12.1443 5.75985 12.2335 5.7974 12.3065 5.85791C12.3795 5.91842 12.4329 5.99917 12.46 6.09C12.4867 6.17879 12.4888 6.2732 12.4659 6.36306C12.443 6.45292 12.396 6.53484 12.33 6.59999L10.25 8.6L10.74 11.47C10.7536 11.5621 10.7422 11.6562 10.707 11.7423C10.6718 11.8285 10.6141 11.9037 10.54 11.96C10.4628 12.0167 10.3712 12.0505 10.2757 12.0576C10.1802 12.0647 10.0847 12.0447 10 12L7.44 10.67L4.86 12C4.79191 12.0468 4.71246 12.0745 4.63 12.08ZM7.44 9.60999C7.51971 9.60643 7.59897 9.62366 7.67 9.66L9.58 10.66L9.22 8.54C9.20447 8.4608 9.20915 8.37896 9.23362 8.30206C9.25809 8.22515 9.30156 8.15565 9.36 8.1L10.91 6.59L8.77 6.28C8.6901 6.2638 8.61469 6.23035 8.54906 6.18199C8.48342 6.13363 8.42914 6.07151 8.39 5.99999L7.39 4.05999L6.48 5.99999C6.44303 6.07026 6.39047 6.13113 6.32633 6.17793C6.2622 6.22473 6.18819 6.25622 6.11 6.26999L4 6.59L5.51 8.1C5.56948 8.15518 5.61432 8.22428 5.6405 8.30107C5.66668 8.37787 5.67338 8.45997 5.66 8.54L5.29 10.67L7.21 9.67C7.28009 9.63019 7.3594 9.6095 7.44 9.60999Z" fill="white"/>
<path d="M12.33 21.56C12.2247 21.5608 12.1224 21.5255 12.04 21.46C11.9641 21.4076 11.9048 21.3345 11.8694 21.2494C11.8339 21.1643 11.8237 21.0707 11.84 20.98L12.43 17.5L9.91 15C9.84478 14.9344 9.79903 14.852 9.77785 14.762C9.75666 14.6719 9.76087 14.5778 9.79 14.49C9.81755 14.4012 9.86979 14.3221 9.94062 14.2619C10.0114 14.2017 10.0979 14.1629 10.19 14.15L13.68 13.64L15.24 10.48C15.2863 10.4034 15.3516 10.34 15.4295 10.2961C15.5075 10.2521 15.5955 10.229 15.685 10.229C15.7745 10.229 15.8625 10.2521 15.9404 10.2961C16.0184 10.34 16.0837 10.4034 16.13 10.48L17.69 13.64L21.18 14.15C21.272 14.1633 21.3584 14.2021 21.4296 14.2619C21.5008 14.3216 21.5539 14.4001 21.583 14.4883C21.6121 14.5766 21.616 14.6713 21.5942 14.7617C21.5725 14.852 21.526 14.9346 21.46 15L18.93 17.5L19.53 20.98C19.5439 21.0706 19.5326 21.1634 19.4973 21.248C19.462 21.3327 19.4041 21.406 19.33 21.46C19.251 21.5108 19.159 21.5378 19.065 21.5378C18.971 21.5378 18.879 21.5108 18.8 21.46L15.68 19.82L12.56 21.5C12.4899 21.5398 12.4106 21.5605 12.33 21.56ZM11.33 15.04L13.33 16.97C13.3877 17.0262 13.4307 17.0957 13.4551 17.1725C13.4795 17.2492 13.4846 17.3308 13.47 17.41L13 20.15L15.45 18.86C15.5221 18.8206 15.6029 18.7999 15.685 18.7999C15.7671 18.7999 15.8479 18.8206 15.92 18.86L18.37 20.15L17.9 17.41C17.8866 17.33 17.8933 17.2479 17.9195 17.1711C17.9457 17.0943 17.9905 17.0252 18.05 16.97L20 15L17.26 14.6C17.1791 14.5866 17.1024 14.5542 17.0364 14.5056C16.9704 14.4569 16.9168 14.3933 16.88 14.32L15.65 11.84L14.43 14.32C14.392 14.3924 14.338 14.4552 14.2722 14.5037C14.2064 14.5522 14.1304 14.5851 14.05 14.6L11.33 15.04Z" fill="white"/>
</svg>
