<svg width="24" height="24" viewBox="0 0 24 24" fill="none" xmlns="http://www.w3.org/2000/svg">
<path d="M12 22.75C11.8915 22.7523 11.7854 22.717 11.7 22.65L4.85 17.53C4.78846 17.4829 4.73847 17.4224 4.70382 17.3531C4.66916 17.2838 4.65076 17.2075 4.65 17.13V6.88001C4.64922 6.80083 4.66689 6.72257 4.7016 6.6514C4.73632 6.58024 4.78712 6.51813 4.85 6.47001L11.7 1.35001C11.7872 1.2866 11.8922 1.25244 12 1.25244C12.1078 1.25244 12.2128 1.2866 12.3 1.35001L19.15 6.47001C19.2129 6.51813 19.2637 6.58024 19.2984 6.6514C19.3331 6.72257 19.3508 6.80083 19.35 6.88001V17.13C19.3492 17.2075 19.3308 17.2838 19.2962 17.3531C19.2615 17.4224 19.2115 17.4829 19.15 17.53L12.3 22.65C12.2146 22.717 12.1085 22.7523 12 22.75ZM5.65 16.87L12 21.63L18.35 16.87V7.13001L12 2.37001L5.65 7.13001V16.87Z" fill="white"/>
</svg>
