<svg width="24" height="24" viewBox="0 0 24 24" fill="none" xmlns="http://www.w3.org/2000/svg">
<path d="M16.5 20.7399C16.4121 20.7381 16.3261 20.714 16.25 20.6699L7 15.2499H2.5C2.36739 15.2499 2.24021 15.1972 2.14645 15.1035C2.05268 15.0097 2 14.8825 2 14.7499V9.24993C2 9.11732 2.05268 8.99014 2.14645 8.89637C2.24021 8.8026 2.36739 8.74993 2.5 8.74993H7L16.22 3.32993C16.296 3.28604 16.3822 3.26294 16.47 3.26294C16.5578 3.26294 16.644 3.28604 16.72 3.32993C16.7943 3.37501 16.8561 3.43798 16.8997 3.5131C16.9434 3.58821 16.9676 3.67307 16.97 3.75993V20.2399C16.9676 20.3268 16.9434 20.4116 16.8997 20.4868C16.8561 20.5619 16.7943 20.6248 16.72 20.6699C16.6524 20.7086 16.5775 20.7324 16.5 20.7399ZM3 14.2499H7.17C7.25695 14.2495 7.34271 14.2701 7.42 14.3099L16 19.3099V4.63993L7.42 9.68993C7.34271 9.72976 7.25695 9.75035 7.17 9.74993H3V14.2499Z" fill="white"/>
<path d="M21.5 21.5C21.4344 21.5008 21.3694 21.4878 21.3091 21.462C21.2488 21.4362 21.1946 21.398 21.15 21.35L3.15 3.34998C3.05717 3.25715 3.00502 3.13126 3.00502 2.99998C3.00502 2.8687 3.05717 2.74281 3.15 2.64998C3.24282 2.55715 3.36872 2.505 3.49999 2.505C3.63127 2.505 3.75717 2.55715 3.84999 2.64998L21.85 20.65C21.8978 20.6949 21.9359 20.7491 21.962 20.8093C21.9881 20.8695 22.0015 20.9344 22.0015 21C22.0015 21.0656 21.9881 21.1305 21.962 21.1907C21.9359 21.2509 21.8978 21.3051 21.85 21.35C21.8053 21.398 21.7511 21.4362 21.6909 21.462C21.6306 21.4878 21.5656 21.5008 21.5 21.5Z" fill="white"/>
</svg>
