<svg width="24" height="24" viewBox="0 0 24 24" fill="none" xmlns="http://www.w3.org/2000/svg">
<path d="M12 21.3401C4.69 21.3401 3 8.34009 3 7.76009C2.99279 7.68958 3.00065 7.61835 3.02306 7.55111C3.04548 7.48387 3.08193 7.42217 3.13 7.37009C3.17544 7.31636 3.23214 7.27329 3.29608 7.24391C3.36002 7.21453 3.42964 7.19957 3.5 7.20009C5.82 7.20009 6.86 3.74009 6.87 3.70009C6.90169 3.59705 6.96522 3.50671 7.05146 3.44203C7.1377 3.37735 7.24221 3.34166 7.35 3.34009H16.73C16.8378 3.34166 16.9423 3.37735 17.0285 3.44203C17.1148 3.50671 17.1783 3.59705 17.21 3.70009C17.21 3.70009 18.21 7.20009 20.58 7.20009C20.6504 7.19957 20.72 7.21453 20.7839 7.24391C20.8479 7.27329 20.9046 7.31636 20.95 7.37009C20.9987 7.42148 21.0348 7.48341 21.0556 7.55105C21.0764 7.6187 21.0813 7.69023 21.07 7.76009C21 8.31009 19.31 21.3401 12 21.3401ZM4 8.15009C4.38 10.5201 6.29 20.3401 12 20.3401C17.71 20.3401 19.59 10.5201 20 8.15009C17.81 7.77009 16.7 5.29009 16.36 4.34009H7.67C7.33 5.29009 6.22 7.77009 4 8.15009Z" fill="white"/>
</svg>
