<svg width="24" height="24" viewBox="0 0 24 24" fill="none" xmlns="http://www.w3.org/2000/svg">
<path d="M19.23 15.9999H4.76999C4.63738 15.9999 4.5102 15.9472 4.41644 15.8534C4.32267 15.7597 4.26999 15.6325 4.26999 15.4999V5.88989C4.27263 5.49115 4.43288 5.10964 4.71578 4.82862C4.99867 4.5476 5.38124 4.38988 5.77999 4.38989H18.22C18.6187 4.38988 19.0013 4.5476 19.2842 4.82862C19.5671 5.10964 19.7273 5.49115 19.73 5.88989V15.4499C19.737 15.5196 19.7293 15.5901 19.7073 15.6566C19.6853 15.7232 19.6496 15.7844 19.6025 15.8362C19.5553 15.8881 19.4978 15.9295 19.4336 15.9577C19.3695 15.9859 19.3001 16.0002 19.23 15.9999ZM5.22999 14.9999H18.73V5.88989C18.7274 5.75637 18.6725 5.62921 18.5771 5.53572C18.4818 5.44222 18.3535 5.38987 18.22 5.38989H5.77999C5.64644 5.38987 5.51822 5.44222 5.42285 5.53572C5.32749 5.62921 5.27261 5.75637 5.26999 5.88989L5.22999 14.9999Z" fill="white"/>
<path d="M20.75 19.61H3.25C3.11739 19.61 2.99021 19.5573 2.89645 19.4635C2.80268 19.3697 2.75 19.2426 2.75 19.11V15.45C2.75 15.3173 2.80268 15.1902 2.89645 15.0964C2.99021 15.0026 3.11739 14.95 3.25 14.95H20.75C20.8826 14.95 21.0098 15.0026 21.1036 15.0964C21.1973 15.1902 21.25 15.3173 21.25 15.45V19.11C21.25 19.2426 21.1973 19.3697 21.1036 19.4635C21.0098 19.5573 20.8826 19.61 20.75 19.61ZM3.75 18.61H20.25V16H3.75V18.61Z" fill="white"/>
<path d="M12 12.9999C11.4442 12.9999 10.901 12.8351 10.4389 12.5263C9.97675 12.2175 9.61658 11.7787 9.4039 11.2652C9.19122 10.7518 9.13557 10.1868 9.244 9.64168C9.35242 9.09659 9.62005 8.5959 10.013 8.20291C10.406 7.80993 10.9067 7.5423 11.4518 7.43388C11.9969 7.32545 12.5619 7.3811 13.0753 7.59378C13.5888 7.80646 14.0277 8.16663 14.3364 8.62873C14.6452 9.09083 14.81 9.63412 14.81 10.1899C14.81 10.5589 14.7373 10.9243 14.5961 11.2652C14.4549 11.6061 14.2479 11.9159 13.987 12.1769C13.726 12.4378 13.4163 12.6448 13.0753 12.786C12.7344 12.9272 12.369 12.9999 12 12.9999ZM12 8.37988C11.642 8.37988 11.2921 8.48604 10.9944 8.68492C10.6968 8.88381 10.4648 9.16649 10.3278 9.49723C10.1908 9.82796 10.1549 10.1919 10.2248 10.543C10.2946 10.8941 10.467 11.2166 10.7201 11.4697C10.9733 11.7229 11.2958 11.8953 11.6469 11.9651C11.998 12.0349 12.3619 11.9991 12.6927 11.8621C13.0234 11.7251 13.3061 11.4931 13.505 11.1955C13.7038 10.8978 13.81 10.5479 13.81 10.1899C13.8126 9.95051 13.7678 9.713 13.678 9.49108C13.5882 9.26917 13.4553 9.06727 13.287 8.89707C13.1187 8.72687 12.9182 8.59176 12.6973 8.49955C12.4764 8.40734 12.2394 8.35987 12 8.35988V8.37988Z" fill="white"/>
</svg>
