<svg width="24" height="24" viewBox="0 0 24 24" fill="none" xmlns="http://www.w3.org/2000/svg">
<path d="M13 20.4901C12.9375 20.5043 12.8725 20.5043 12.81 20.4901C12.7179 20.4537 12.639 20.3903 12.5836 20.3082C12.5283 20.2261 12.4991 20.1291 12.5 20.0301V16.4501H3C2.86739 16.4501 2.74021 16.3974 2.64645 16.3037C2.55268 16.2099 2.5 16.0827 2.5 15.9501V8.00011C2.5 7.8675 2.55268 7.74032 2.64645 7.64656C2.74021 7.55279 2.86739 7.50011 3 7.50011H12.5V4.06011C12.5005 3.9614 12.5302 3.86504 12.5854 3.78318C12.6405 3.70132 12.7187 3.63762 12.81 3.60011C12.9015 3.56142 13.0022 3.55028 13.0999 3.56804C13.1976 3.58581 13.288 3.63171 13.36 3.70011L21.36 11.7001C21.4069 11.7466 21.4441 11.8019 21.4694 11.8628C21.4948 11.9238 21.5079 11.9891 21.5079 12.0551C21.5079 12.1211 21.4948 12.1865 21.4694 12.2474C21.4441 12.3083 21.4069 12.3636 21.36 12.4101L13.36 20.4101C13.2546 20.4817 13.1258 20.5103 13 20.4901ZM3.5 15.4901H13C13.1326 15.4901 13.2598 15.5428 13.3536 15.6366C13.4473 15.7303 13.5 15.8575 13.5 15.9901V18.8301L20.28 12.0001L13.49 5.22011V7.95011C13.4908 8.08057 13.4405 8.20618 13.35 8.30011C13.2546 8.39583 13.1251 8.44978 12.99 8.45011H3.51L3.5 15.4901Z" fill="white"/>
</svg>
