<svg width="24" height="24" viewBox="0 0 24 24" fill="none" xmlns="http://www.w3.org/2000/svg">
<path d="M16.4 19.3699H6.4C5.47174 19.3699 4.58151 19.0011 3.92513 18.3447C3.26875 17.6884 2.9 16.7981 2.9 15.8699V13.3699C2.9 13.2373 2.95268 13.1101 3.04645 13.0163C3.14022 12.9226 3.26739 12.8699 3.4 12.8699C3.53261 12.8699 3.65979 12.9226 3.75355 13.0163C3.84732 13.1101 3.9 13.2373 3.9 13.3699V15.8699C3.9 16.5329 4.16339 17.1688 4.63223 17.6376C5.10108 18.1065 5.73696 18.3699 6.4 18.3699H16.4C17.063 18.3699 17.6989 18.1065 18.1678 17.6376C18.6366 17.1688 18.9 16.5329 18.9 15.8699V13.3699C18.9 13.2373 18.9527 13.1101 19.0464 13.0163C19.1402 12.9226 19.2674 12.8699 19.4 12.8699C19.5326 12.8699 19.6598 12.9226 19.7536 13.0163C19.8473 13.1101 19.9 13.2373 19.9 13.3699V15.8699C19.9 16.7981 19.5313 17.6884 18.8749 18.3447C18.2185 19.0011 17.3283 19.3699 16.4 19.3699Z" fill="white"/>
<path d="M11.4 14.6299C11.2674 14.6299 11.1402 14.5772 11.0464 14.4834C10.9527 14.3897 10.9 14.2625 10.9 14.1299V5.12988C10.9 4.99727 10.9527 4.8701 11.0464 4.77633C11.1402 4.68256 11.2674 4.62988 11.4 4.62988C11.5326 4.62988 11.6598 4.68256 11.7536 4.77633C11.8473 4.8701 11.9 4.99727 11.9 5.12988V14.1299C11.9 14.2625 11.8473 14.3897 11.7536 14.4834C11.6598 14.5772 11.5326 14.6299 11.4 14.6299Z" fill="white"/>
<path d="M11.4 15.87C11.2649 15.8696 11.1354 15.8157 11.04 15.72L6.8 11.48C6.70839 11.3865 6.65707 11.2609 6.65707 11.13C6.65707 10.9991 6.70839 10.8734 6.8 10.78C6.84648 10.7331 6.90178 10.6959 6.96271 10.6705C7.02364 10.6451 7.089 10.6321 7.155 10.6321C7.22101 10.6321 7.28636 10.6451 7.34729 10.6705C7.40822 10.6959 7.46352 10.7331 7.51 10.78L11.4 14.66L15.29 10.78C15.336 10.734 15.3905 10.6976 15.4506 10.6727C15.5106 10.6478 15.575 10.635 15.64 10.635C15.705 10.635 15.7694 10.6478 15.8294 10.6727C15.8895 10.6976 15.944 10.734 15.99 10.78C16.036 10.8259 16.0724 10.8805 16.0973 10.9406C16.1222 11.0006 16.135 11.065 16.135 11.13C16.135 11.195 16.1222 11.2593 16.0973 11.3194C16.0724 11.3795 16.036 11.434 15.99 11.48L11.75 15.72C11.7046 15.7671 11.6503 15.8046 11.5902 15.8304C11.5301 15.8561 11.4654 15.8696 11.4 15.87Z" fill="white"/>
</svg>
