<svg width="24" height="24" viewBox="0 0 24 24" fill="none" xmlns="http://www.w3.org/2000/svg">
<path d="M20 19.4999H4C3.55086 19.4973 3.12103 19.317 2.80438 18.9985C2.48772 18.68 2.30999 18.2491 2.31 17.7999V12.2699C2.30999 11.8208 2.48772 11.3899 2.80438 11.0714C3.12103 10.7528 3.55086 10.5726 4 10.5699H6.87C7.05565 10.5699 7.2337 10.4962 7.36497 10.3649C7.49625 10.2336 7.57 10.0556 7.57 9.86992V7.86992C7.57 7.41905 7.7491 6.98665 8.06792 6.66784C8.38673 6.34903 8.81913 6.16992 9.27 6.16992H14.83C15.2809 6.16992 15.7133 6.34903 16.0321 6.66784C16.3509 6.98665 16.53 7.41905 16.53 7.86992V12.3399C16.53 12.5256 16.6037 12.7036 16.735 12.8349C16.8663 12.9662 17.0443 13.0399 17.23 13.0399H20C20.4491 13.0426 20.879 13.2228 21.1956 13.5414C21.5123 13.8599 21.69 14.2908 21.69 14.7399V17.7999C21.69 18.2491 21.5123 18.68 21.1956 18.9985C20.879 19.317 20.4491 19.4973 20 19.4999ZM4 11.5699C3.90854 11.5699 3.81799 11.5881 3.73362 11.6234C3.64924 11.6587 3.57273 11.7104 3.50852 11.7755C3.44432 11.8407 3.3937 11.9179 3.35962 12.0028C3.32554 12.0877 3.30867 12.1785 3.31 12.2699V17.7999C3.30867 17.8914 3.32554 17.9822 3.35962 18.067C3.3937 18.1519 3.44432 18.2292 3.50852 18.2943C3.57273 18.3594 3.64924 18.4112 3.73362 18.4465C3.81799 18.4818 3.90854 18.4999 4 18.4999H20C20.0915 18.4999 20.182 18.4818 20.2664 18.4465C20.3508 18.4112 20.4273 18.3594 20.4915 18.2943C20.5557 18.2292 20.6063 18.1519 20.6404 18.067C20.6745 17.9822 20.6913 17.8914 20.69 17.7999V14.7399C20.6954 14.6455 20.6816 14.551 20.6495 14.4621C20.6174 14.3731 20.5676 14.2916 20.5031 14.2225C20.4386 14.1533 20.3608 14.098 20.2743 14.0597C20.1879 14.0215 20.0945 14.0011 20 13.9999H17.23C16.7791 13.9999 16.3467 13.8208 16.0279 13.502C15.7091 13.1832 15.53 12.7508 15.53 12.2999V7.86992C15.53 7.68427 15.4562 7.50622 15.325 7.37495C15.1937 7.24367 15.0156 7.16992 14.83 7.16992H9.27C9.08435 7.16992 8.9063 7.24367 8.77502 7.37495C8.64375 7.50622 8.57 7.68427 8.57 7.86992V9.86992C8.57 10.3208 8.39089 10.7532 8.07208 11.072C7.75327 11.3908 7.32087 11.5699 6.87 11.5699H4Z" fill="white"/>
</svg>
