<svg width="24" height="24" viewBox="0 0 24 24" fill="none" xmlns="http://www.w3.org/2000/svg">
<path d="M16.1 16.29C16.0173 16.291 15.9356 16.2714 15.8623 16.233C15.789 16.1946 15.7263 16.1386 15.68 16.07C15.6431 16.0145 15.6176 15.9521 15.6052 15.8865C15.5927 15.821 15.5935 15.7536 15.6075 15.6884C15.6214 15.6232 15.6483 15.5614 15.6865 15.5067C15.7248 15.452 15.7735 15.4056 15.83 15.37C17.1164 14.5426 18.1002 13.3209 18.6343 11.8877C19.1684 10.4545 19.224 8.8869 18.7928 7.41945C18.3616 5.952 17.4668 4.66364 16.2423 3.74717C15.0178 2.8307 13.5295 2.33541 12 2.33541C10.4705 2.33541 8.98215 2.8307 7.75765 3.74717C6.53315 4.66364 5.63835 5.952 5.20717 7.41945C4.77598 8.8869 4.8316 10.4545 5.36569 11.8877C5.89978 13.3209 6.88363 14.5426 8.17 15.37C8.22897 15.4037 8.28047 15.449 8.32136 15.5031C8.36226 15.5573 8.39169 15.6193 8.40786 15.6852C8.42403 15.7512 8.42661 15.8197 8.41543 15.8867C8.40425 15.9536 8.37956 16.0176 8.34284 16.0747C8.30613 16.1318 8.25818 16.1809 8.2019 16.2188C8.14562 16.2568 8.0822 16.2829 8.0155 16.2956C7.9488 16.3082 7.88023 16.3072 7.81395 16.2925C7.74767 16.2778 7.68508 16.2497 7.63 16.21C6.16172 15.2659 5.03868 13.8717 4.42894 12.2361C3.8192 10.6004 3.75557 8.81126 4.24757 7.13642C4.73956 5.46157 5.76072 3.9911 7.15822 2.94508C8.55572 1.89906 10.2544 1.33374 12 1.33374C13.7456 1.33374 15.4443 1.89906 16.8418 2.94508C18.2393 3.9911 19.2604 5.46157 19.7524 7.13642C20.2444 8.81126 20.1808 10.6004 19.5711 12.2361C18.9613 13.8717 17.8383 15.2659 16.37 16.21C16.2903 16.2637 16.1961 16.2916 16.1 16.29Z" fill="white"/>
<path d="M16.1 20.24H7.9C7.76819 20.2375 7.6425 20.184 7.54928 20.0908C7.45606 19.9975 7.40256 19.8718 7.4 19.74V15.79C7.40256 15.6582 7.45606 15.5325 7.54928 15.4393C7.6425 15.3461 7.76819 15.2926 7.9 15.29C8.03261 15.29 8.15979 15.3427 8.25355 15.4365C8.34732 15.5303 8.4 15.6574 8.4 15.79V19.24H15.6V15.79C15.6 15.6574 15.6527 15.5303 15.7464 15.4365C15.8402 15.3427 15.9674 15.29 16.1 15.29C16.2318 15.2926 16.3575 15.3461 16.4507 15.4393C16.5439 15.5325 16.5974 15.6582 16.6 15.79V19.74C16.5974 19.8718 16.5439 19.9975 16.4507 20.0908C16.3575 20.184 16.2318 20.2375 16.1 20.24Z" fill="white"/>
<path d="M9.38 22.6799C9.24739 22.6799 9.12021 22.6272 9.02644 22.5335C8.93268 22.4397 8.88 22.3125 8.88 22.1799V20.4199C8.88256 20.2881 8.93606 20.1624 9.02928 20.0692C9.1225 19.976 9.24819 19.9225 9.38 19.9199C9.51261 19.9199 9.63978 19.9726 9.73355 20.0664C9.82732 20.1601 9.88 20.2873 9.88 20.4199V22.1799C9.88 22.3125 9.82732 22.4397 9.73355 22.5335C9.63978 22.6272 9.51261 22.6799 9.38 22.6799Z" fill="white"/>
<path d="M14.62 22.6799C14.4874 22.6799 14.3602 22.6272 14.2664 22.5335C14.1727 22.4397 14.12 22.3125 14.12 22.1799V20.4199C14.12 20.2873 14.1727 20.1601 14.2664 20.0664C14.3602 19.9726 14.4874 19.9199 14.62 19.9199C14.7518 19.9225 14.8775 19.976 14.9707 20.0692C15.0639 20.1624 15.1174 20.2881 15.12 20.4199V22.1799C15.12 22.3125 15.0673 22.4397 14.9735 22.5335C14.8798 22.6272 14.7526 22.6799 14.62 22.6799Z" fill="white"/>
<path d="M12 20.24C11.8674 20.24 11.7402 20.1873 11.6464 20.0935C11.5527 19.9998 11.5 19.8726 11.5 19.74V11.74C11.5 11.6074 11.5527 11.4802 11.6464 11.3864C11.7402 11.2927 11.8674 11.24 12 11.24C12.1326 11.24 12.2598 11.2927 12.3536 11.3864C12.4473 11.4802 12.5 11.6074 12.5 11.74V19.74C12.5 19.8726 12.4473 19.9998 12.3536 20.0935C12.2598 20.1873 12.1326 20.24 12 20.24Z" fill="white"/>
</svg>
