<svg width="24" height="24" viewBox="0 0 24 24" fill="none" xmlns="http://www.w3.org/2000/svg">
<path d="M12 22.4399C3.55002 22.4399 3.45002 14.0199 3.45002 13.9299V5.83994C3.4495 5.74489 3.47664 5.65173 3.52813 5.57183C3.57962 5.49193 3.65324 5.42874 3.74002 5.38994L11.74 1.60994C11.806 1.58012 11.8776 1.5647 11.95 1.5647C12.0224 1.5647 12.094 1.58012 12.16 1.60994L20.21 5.38994C20.2968 5.42874 20.3704 5.49193 20.4219 5.57183C20.4734 5.65173 20.5005 5.74489 20.5 5.83994V13.9299C20.55 13.9999 20.45 22.4399 12 22.4399ZM4.45002 6.15994V13.9299C4.45002 14.2399 4.56002 21.4399 12 21.4399C19.44 21.4399 19.55 14.2399 19.55 13.9299V6.15994L12 2.60994L4.45002 6.15994Z" fill="white"/>
<path d="M17.81 20.1999C17.6803 20.1968 17.5561 20.1471 17.46 20.0599L3.59999 6.18995C3.55403 6.14398 3.51757 6.08942 3.49269 6.02936C3.46782 5.96931 3.45502 5.90495 3.45502 5.83995C3.45502 5.77494 3.46782 5.71058 3.49269 5.65053C3.51757 5.59047 3.55403 5.53591 3.59999 5.48995C3.64595 5.44398 3.70052 5.40752 3.76057 5.38265C3.82063 5.35777 3.88499 5.34497 3.94999 5.34497C4.01499 5.34497 4.07936 5.35777 4.13941 5.38265C4.19946 5.40752 4.25403 5.44398 4.29999 5.48995L18.17 19.3499C18.2622 19.4451 18.3138 19.5724 18.3138 19.7049C18.3138 19.8375 18.2622 19.9648 18.17 20.0599C18.0714 20.1494 17.9431 20.1993 17.81 20.1999Z" fill="white"/>
<path d="M6.17999 20.2099C6.04811 20.2081 5.92231 20.1541 5.82999 20.0599C5.73775 19.9648 5.68616 19.8375 5.68616 19.7049C5.68616 19.5724 5.73775 19.4451 5.82999 19.3499L19.69 5.48994C19.7365 5.44308 19.7918 5.40588 19.8527 5.38049C19.9136 5.35511 19.979 5.34204 20.045 5.34204C20.111 5.34204 20.1764 5.35511 20.2373 5.38049C20.2982 5.40588 20.3535 5.44308 20.4 5.48994C20.4478 5.53483 20.4859 5.58905 20.512 5.64925C20.5381 5.70944 20.5515 5.77434 20.5515 5.83994C20.5515 5.90554 20.5381 5.97044 20.512 6.03063C20.4859 6.09083 20.4478 6.14505 20.4 6.18994L6.53999 20.0599C6.44461 20.1557 6.31513 20.2096 6.17999 20.2099Z" fill="white"/>
</svg>
