<svg width="24" height="24" viewBox="0 0 24 24" fill="none" xmlns="http://www.w3.org/2000/svg">
<path d="M17.66 21.79H6.34002C5.31098 21.79 4.32409 21.3812 3.59645 20.6535C2.86881 19.9259 2.46002 18.939 2.46002 17.91V6.58996C2.46002 5.56092 2.86881 4.57403 3.59645 3.84639C4.32409 3.11875 5.31098 2.70996 6.34002 2.70996H17.66C18.6891 2.70996 19.676 3.11875 20.4036 3.84639C21.1312 4.57403 21.54 5.56092 21.54 6.58996V17.91C21.54 18.939 21.1312 19.9259 20.4036 20.6535C19.676 21.3812 18.6891 21.79 17.66 21.79ZM6.34002 3.70996C5.5762 3.70996 4.84366 4.01339 4.30355 4.55349C3.76345 5.0936 3.46002 5.82614 3.46002 6.58996V17.91C3.46002 18.6738 3.76345 19.4063 4.30355 19.9464C4.84366 20.4865 5.5762 20.79 6.34002 20.79H17.66C18.4238 20.79 19.1564 20.4865 19.6965 19.9464C20.2366 19.4063 20.54 18.6738 20.54 17.91V6.58996C20.54 5.82614 20.2366 5.0936 19.6965 4.55349C19.1564 4.01339 18.4238 3.70996 17.66 3.70996H6.34002Z" fill="white"/>
<path d="M9 16.2199C8.86739 16.2199 8.74021 16.1672 8.64645 16.0735C8.55268 15.9797 8.5 15.8525 8.5 15.7199V8.77991C8.5 8.6473 8.55268 8.52012 8.64645 8.42635C8.74021 8.33259 8.86739 8.27991 9 8.27991C9.13261 8.27991 9.25979 8.33259 9.35355 8.42635C9.44732 8.52012 9.5 8.6473 9.5 8.77991V15.7199C9.5 15.8525 9.44732 15.9797 9.35355 16.0735C9.25979 16.1672 9.13261 16.2199 9 16.2199Z" fill="white"/>
<path d="M15 16.2199C14.8674 16.2199 14.7402 16.1672 14.6464 16.0735C14.5527 15.9797 14.5 15.8525 14.5 15.7199V8.77991C14.5 8.6473 14.5527 8.52012 14.6464 8.42635C14.7402 8.33259 14.8674 8.27991 15 8.27991C15.1326 8.27991 15.2598 8.33259 15.3536 8.42635C15.4473 8.52012 15.5 8.6473 15.5 8.77991V15.7199C15.5 15.8525 15.4473 15.9797 15.3536 16.0735C15.2598 16.1672 15.1326 16.2199 15 16.2199Z" fill="white"/>
</svg>
