<svg width="24" height="24" viewBox="0 0 24 24" fill="none" xmlns="http://www.w3.org/2000/svg">
<path d="M6.44997 11.6C6.38743 11.6142 6.32252 11.6142 6.25998 11.6C6.13572 11.5352 6.04224 11.4237 5.99997 11.29C5.98581 11.2275 5.98581 11.1626 5.99997 11.1C5.99918 11.0345 6.01211 10.9695 6.03794 10.9092C6.06378 10.8489 6.10194 10.7947 6.14997 10.75C6.19223 10.6994 6.24757 10.6614 6.30997 10.64C6.43171 10.59 6.56824 10.59 6.68997 10.64C6.75238 10.6614 6.80772 10.6994 6.84997 10.75C6.89801 10.7947 6.93617 10.8489 6.96201 10.9092C6.98784 10.9695 7.00077 11.0345 6.99997 11.1C7.01414 11.1626 7.01414 11.2275 6.99997 11.29C6.94665 11.4105 6.8504 11.5067 6.72997 11.56C6.64434 11.6062 6.5451 11.6203 6.44997 11.6Z" fill="white"/>
<path d="M10.42 19.67C8.73885 19.67 7.09546 19.1715 5.69764 18.2375C4.29982 17.3035 3.21036 15.976 2.56701 14.4229C1.92367 12.8697 1.75534 11.1606 2.08331 9.51178C2.41129 7.86294 3.22083 6.34839 4.40958 5.15964C5.59833 3.97089 7.11288 3.16135 8.76172 2.83337C10.4106 2.5054 12.1196 2.67373 13.6728 3.31707C15.226 3.96042 16.5535 5.04988 17.4875 6.4477C18.4215 7.84552 18.92 9.48891 18.92 11.17C18.9173 13.4236 18.021 15.584 16.4275 17.1775C14.834 18.771 12.6735 19.6674 10.42 19.67ZM10.42 3.67005C8.93663 3.67005 7.48658 4.10992 6.25321 4.93403C5.01984 5.75814 4.05855 6.92948 3.49089 8.29992C2.92323 9.67037 2.77471 11.1784 3.0641 12.6332C3.35349 14.0881 4.06779 15.4245 5.11669 16.4733C6.16558 17.5222 7.50195 18.2365 8.95681 18.5259C10.4117 18.8153 11.9197 18.6668 13.2901 18.0991C14.6606 17.5315 15.8319 16.5702 16.656 15.3368C17.4801 14.1035 17.92 12.6534 17.92 11.17C17.92 10.1851 17.726 9.20986 17.3491 8.29992C16.9722 7.38998 16.4197 6.56319 15.7233 5.86675C15.0268 5.17031 14.2001 4.61786 13.2901 4.24095C12.3802 3.86404 11.4049 3.67005 10.42 3.67005Z" fill="white"/>
<path d="M10.27 7.79004C10.1353 7.78761 10.0066 7.73398 9.90998 7.64004C9.86443 7.59339 9.82723 7.53927 9.79998 7.48004C9.79037 7.41707 9.79037 7.35301 9.79998 7.29004C9.79027 7.22372 9.79027 7.15635 9.79998 7.09004C9.82723 7.03081 9.86443 6.97669 9.90998 6.93004C10.0074 6.8422 10.1338 6.79358 10.265 6.79358C10.3961 6.79358 10.5226 6.8422 10.62 6.93004C10.6622 6.9793 10.6991 7.03293 10.73 7.09004C10.7394 7.15637 10.7394 7.2237 10.73 7.29004C10.7393 7.35303 10.7393 7.41705 10.73 7.48004C10.6991 7.53714 10.6622 7.59078 10.62 7.64004C10.5259 7.73167 10.4012 7.78512 10.27 7.79004Z" fill="white"/>
<path d="M14.28 11.4C14.2136 11.4028 14.1473 11.3918 14.0853 11.3677C14.0234 11.3436 13.9671 11.3069 13.9201 11.2599C13.8731 11.2129 13.8364 11.1566 13.8123 11.0947C13.7881 11.0327 13.7771 10.9664 13.78 10.9C13.7792 10.7695 13.8294 10.6439 13.92 10.55C13.9909 10.4799 14.0807 10.4322 14.1785 10.4126C14.2762 10.3931 14.3776 10.4026 14.47 10.44C14.5292 10.4673 14.5833 10.5045 14.63 10.55C14.7233 10.6429 14.777 10.7684 14.78 10.9C14.7756 11.0343 14.7223 11.1624 14.63 11.26C14.5829 11.3025 14.5288 11.3363 14.47 11.36C14.4105 11.3877 14.3455 11.4013 14.28 11.4Z" fill="white"/>
<path d="M10.27 15.4101C10.1363 15.4124 10.007 15.3622 9.91 15.2701C9.82054 15.1715 9.77068 15.0433 9.77 14.9101C9.76921 14.7796 9.81945 14.654 9.91 14.5601C9.98113 14.4928 10.0701 14.4475 10.1664 14.4294C10.2626 14.4113 10.362 14.4214 10.4527 14.4583C10.5433 14.4952 10.6215 14.5574 10.6778 14.6375C10.734 14.7177 10.7661 14.8123 10.77 14.9101C10.7657 15.0444 10.7123 15.1725 10.62 15.2701C10.5249 15.3589 10.4001 15.4089 10.27 15.4101Z" fill="white"/>
<path d="M21.58 19.67H10C9.86739 19.67 9.74021 19.6174 9.64645 19.5236C9.55268 19.4298 9.5 19.3027 9.5 19.17C9.5 19.0374 9.55268 18.9103 9.64645 18.8165C9.74021 18.7227 9.86739 18.67 10 18.67H21.58C21.7126 18.67 21.8398 18.7227 21.9336 18.8165C22.0273 18.9103 22.08 19.0374 22.08 19.17C22.08 19.3027 22.0273 19.4298 21.9336 19.5236C21.8398 19.6174 21.7126 19.67 21.58 19.67Z" fill="white"/>
</svg>
