<svg width="24" height="24" viewBox="0 0 24 24" fill="none" xmlns="http://www.w3.org/2000/svg">
<path d="M17.22 16.46C17.0882 16.4575 16.9625 16.404 16.8693 16.3108C16.7761 16.2176 16.7226 16.0919 16.72 15.96V4.05005C16.7226 3.91824 16.7761 3.79255 16.8693 3.69933C16.9625 3.60611 17.0882 3.55261 17.22 3.55005C17.3526 3.55005 17.4798 3.60273 17.5736 3.6965C17.6673 3.79026 17.72 3.91744 17.72 4.05005V16C17.7099 16.1256 17.6528 16.2427 17.5601 16.328C17.4674 16.4133 17.346 16.4605 17.22 16.46Z" fill="white"/>
<path d="M17.22 22.11C16.3454 22.11 15.4904 21.8505 14.7633 21.3644C14.0363 20.8783 13.4697 20.1874 13.1355 19.3792C12.8013 18.5709 12.7143 17.6817 12.8857 16.824C13.057 15.9664 13.479 15.1788 14.0981 14.5611C14.7173 13.9433 15.5058 13.5232 16.3638 13.3537C17.2219 13.1843 18.1109 13.2733 18.9184 13.6094C19.7259 13.9454 20.4155 14.5135 20.9 15.2417C21.3844 15.9699 21.642 16.8254 21.64 17.7C21.6374 18.8705 21.1705 19.9922 20.3419 20.819C19.5133 21.6457 18.3905 22.11 17.22 22.11ZM17.22 14.28C16.5436 14.28 15.8824 14.4806 15.3199 14.8564C14.7575 15.2322 14.3192 15.7663 14.0603 16.3912C13.8015 17.0162 13.7338 17.7038 13.8657 18.3672C13.9977 19.0306 14.3234 19.64 14.8017 20.1183C15.28 20.5966 15.8894 20.9223 16.5528 21.0543C17.2162 21.1863 17.9039 21.1185 18.5288 20.8597C19.1537 20.6008 19.6878 20.1625 20.0636 19.6001C20.4394 19.0377 20.64 18.3764 20.64 17.7C20.64 16.793 20.2797 15.9231 19.6383 15.2817C18.9969 14.6403 18.127 14.28 17.22 14.28Z" fill="white"/>
<path d="M6.3 22.11C5.42538 22.11 4.57042 21.8505 3.84334 21.3644C3.11626 20.8783 2.54975 20.1874 2.2155 19.3792C1.88126 18.5709 1.79432 17.6817 1.96568 16.824C2.13703 15.9664 2.55899 15.1788 3.17814 14.5611C3.79729 13.9433 4.58579 13.5232 5.44385 13.3537C6.3019 13.1843 7.19093 13.2733 7.9984 13.6094C8.80587 13.9454 9.49549 14.5135 9.97996 15.2417C10.4644 15.9699 10.722 16.8254 10.72 17.7C10.7147 18.8697 10.247 19.9899 9.41898 20.8161C8.59092 21.6422 7.46972 22.1074 6.3 22.11ZM6.3 14.28C5.62359 14.28 4.96237 14.4806 4.39995 14.8564C3.83753 15.2322 3.39918 15.7663 3.14033 16.3912C2.88148 17.0162 2.81375 17.7038 2.94571 18.3672C3.07768 19.0306 3.4034 19.64 3.8817 20.1183C4.35999 20.5966 4.96938 20.9223 5.63279 21.0543C6.29621 21.1863 6.98385 21.1185 7.60878 20.8597C8.2337 20.6008 8.76783 20.1625 9.14363 19.6001C9.51942 19.0377 9.72 18.3764 9.72 17.7C9.72 16.793 9.35968 15.9231 8.71831 15.2817C8.07693 14.6403 7.20704 14.28 6.3 14.28Z" fill="white"/>
<path d="M6.3 16.4601H6.21C6.08027 16.4358 5.96542 16.3612 5.89049 16.2525C5.81556 16.1439 5.78662 16.01 5.81 15.8801C5.81 15.7901 7.46 7.59009 17.22 7.59009C17.3526 7.59009 17.4798 7.64277 17.5736 7.73653C17.6673 7.8303 17.72 7.95748 17.72 8.09009C17.72 8.2227 17.6673 8.34987 17.5736 8.44364C17.4798 8.53741 17.3526 8.59009 17.22 8.59009C8.31 8.59009 6.85 15.7601 6.79 16.0601C6.76875 16.1739 6.70788 16.2765 6.61819 16.3497C6.52849 16.423 6.41577 16.4621 6.3 16.4601Z" fill="white"/>
</svg>
