<svg width="24" height="24" viewBox="0 0 24 24" fill="none" xmlns="http://www.w3.org/2000/svg">
<path d="M12 21.42C11.9203 21.4236 11.841 21.4064 11.77 21.3701C11.46 21.2001 4.14001 17.31 2.62001 12.12C1.75001 9.17005 2.00001 6.34005 3.38001 4.55005C3.86267 3.90555 4.49385 3.38715 5.21987 3.03894C5.94589 2.69073 6.74526 2.52301 7.55001 2.55005C8.49502 2.50867 9.42973 2.76027 10.2263 3.27042C11.0228 3.78057 11.6423 4.52437 12 5.40005C12.3625 4.52997 12.984 3.79257 13.7801 3.28804C14.5763 2.78352 15.5085 2.53632 16.45 2.58005C17.2548 2.55301 18.0541 2.72073 18.7801 3.06894C19.5062 3.41715 20.1373 3.93555 20.62 4.58005C21.96 6.37005 22.25 9.20005 21.38 12.15C19.86 17.34 12.54 21.23 12.23 21.4C12.1563 21.4262 12.0771 21.433 12 21.42ZM7.55001 3.58005C6.90315 3.5494 6.25853 3.67627 5.67152 3.94974C5.08452 4.22321 4.57269 4.63511 4.18001 5.15005C3.03001 6.69005 2.80001 9.15005 3.58001 11.84C4.84001 16.14 10.75 19.65 12 20.35C13.25 19.65 19.16 16.13 20.42 11.84C21.2 9.19005 20.97 6.69005 19.82 5.15005C19.4273 4.63511 18.9155 4.22321 18.3285 3.94974C17.7415 3.67627 17.0969 3.5494 16.45 3.58005C12.73 3.58005 12.51 7.34005 12.5 7.50005C12.5 7.63266 12.4473 7.75984 12.3536 7.8536C12.2598 7.94737 12.1326 8.00005 12 8.00005C11.8674 8.00005 11.7402 7.94737 11.6465 7.8536C11.5527 7.75984 11.5 7.63266 11.5 7.50005C11.49 7.34005 11.27 3.58005 7.55001 3.58005Z" fill="white"/>
<path d="M20.9 12.48H3.10001C2.9674 12.48 2.84022 12.4273 2.74645 12.3335C2.65268 12.2398 2.60001 12.1126 2.60001 11.98C2.60001 11.8474 2.65268 11.7202 2.74645 11.6264C2.84022 11.5327 2.9674 11.48 3.10001 11.48H20.9C21.0326 11.48 21.1598 11.5327 21.2536 11.6264C21.3473 11.7202 21.4 11.8474 21.4 11.98C21.4 12.1126 21.3473 12.2398 21.2536 12.3335C21.1598 12.4273 21.0326 12.48 20.9 12.48Z" fill="white"/>
</svg>
