<svg width="24" height="24" viewBox="0 0 24 24" fill="none" xmlns="http://www.w3.org/2000/svg">
<path d="M12 16.24C11.8674 16.24 11.7402 16.1873 11.6464 16.0935C11.5527 15.9998 11.5 15.8726 11.5 15.74V7.73999C11.5 7.60738 11.5527 7.48021 11.6464 7.38644C11.7402 7.29267 11.8674 7.23999 12 7.23999C12.1326 7.23999 12.2598 7.29267 12.3536 7.38644C12.4473 7.48021 12.5 7.60738 12.5 7.73999V15.74C12.5 15.8726 12.4473 15.9998 12.3536 16.0935C12.2598 16.1873 12.1326 16.24 12 16.24Z" fill="white"/>
<path d="M16 12.24H8C7.86739 12.24 7.74021 12.1873 7.64645 12.0935C7.55268 11.9998 7.5 11.8726 7.5 11.74C7.5 11.6074 7.55268 11.4802 7.64645 11.3864C7.74021 11.2927 7.86739 11.24 8 11.24H16C16.1326 11.24 16.2598 11.2927 16.3536 11.3864C16.4473 11.4802 16.5 11.6074 16.5 11.74C16.5 11.8726 16.4473 11.9998 16.3536 12.0935C16.2598 12.1873 16.1326 12.24 16 12.24Z" fill="white"/>
<path d="M12 21.19C11.9116 21.1917 11.8246 21.1673 11.75 21.12L4 16.65C3.92443 16.6063 3.8616 16.5437 3.81774 16.4682C3.77388 16.3928 3.75053 16.3072 3.75 16.22V7.26996C3.75075 7.1814 3.77411 7.09449 3.81786 7.01749C3.86162 6.94049 3.92431 6.87594 4 6.82996L11.75 2.35996C11.826 2.31607 11.9122 2.29297 12 2.29297C12.0878 2.29297 12.174 2.31607 12.25 2.35996L20 6.82996C20.0757 6.87594 20.1384 6.94049 20.1821 7.01749C20.2259 7.09449 20.2492 7.1814 20.25 7.26996V16.27C20.2495 16.3572 20.2261 16.4428 20.1823 16.5182C20.1384 16.5937 20.0756 16.6563 20 16.7L12.25 21.17C12.1702 21.2002 12.0835 21.2071 12 21.19ZM4.75 15.93L12 20.11L19.25 15.93V7.55996L12 3.36996L4.75 7.55996V15.93Z" fill="white"/>
</svg>
