<svg width="24" height="24" viewBox="0 0 24 24" fill="none" xmlns="http://www.w3.org/2000/svg">
<path d="M8.63003 15.92H1.78003C1.64742 15.92 1.52024 15.8673 1.42648 15.7735C1.33271 15.6797 1.28003 15.5526 1.28003 15.42V8.57996C1.28003 8.44735 1.33271 8.32017 1.42648 8.2264C1.52024 8.13263 1.64742 8.07996 1.78003 8.07996H8.63003C8.76264 8.07996 8.88981 8.13263 8.98358 8.2264C9.07735 8.32017 9.13003 8.44735 9.13003 8.57996V15.42C9.13003 15.5526 9.07735 15.6797 8.98358 15.7735C8.88981 15.8673 8.76264 15.92 8.63003 15.92ZM2.28003 14.92H8.13003V9.07996H2.28003V14.92Z" fill="white"/>
<path d="M8.63 17.75C8.4974 17.75 8.37022 17.6973 8.27645 17.6036C8.18268 17.5098 8.13 17.3826 8.13 17.25V6.75C8.13 6.61739 8.18268 6.49021 8.27645 6.39645C8.37022 6.30268 8.4974 6.25 8.63 6.25C8.76261 6.25 8.88979 6.30268 8.98356 6.39645C9.07733 6.49021 9.13 6.61739 9.13 6.75V17.25C9.13 17.3826 9.07733 17.5098 8.98356 17.6036C8.88979 17.6973 8.76261 17.75 8.63 17.75Z" fill="white"/>
<path d="M22.2201 15.92H15.3701C15.2374 15.92 15.1103 15.8673 15.0165 15.7735C14.9227 15.6797 14.8701 15.5526 14.8701 15.42V8.57996C14.8701 8.44735 14.9227 8.32017 15.0165 8.2264C15.1103 8.13263 15.2374 8.07996 15.3701 8.07996H22.2201C22.3527 8.07996 22.4798 8.13263 22.5736 8.2264C22.6674 8.32017 22.7201 8.44735 22.7201 8.57996V15.42C22.7201 15.5526 22.6674 15.6797 22.5736 15.7735C22.4798 15.8673 22.3527 15.92 22.2201 15.92ZM15.8701 14.92H21.7201V9.07996H15.8701V14.92Z" fill="white"/>
<path d="M15.3701 17.75C15.2374 17.75 15.1103 17.6973 15.0165 17.6036C14.9227 17.5098 14.8701 17.3826 14.8701 17.25V6.75C14.8701 6.61739 14.9227 6.49021 15.0165 6.39645C15.1103 6.30268 15.2374 6.25 15.3701 6.25C15.5027 6.25 15.6298 6.30268 15.7236 6.39645C15.8174 6.49021 15.8701 6.61739 15.8701 6.75V17.25C15.8701 17.3826 15.8174 17.5098 15.7236 17.6036C15.6298 17.6973 15.5027 17.75 15.3701 17.75Z" fill="white"/>
</svg>
