<svg width="24" height="24" viewBox="0 0 24 24" fill="none" xmlns="http://www.w3.org/2000/svg">
<path d="M15.75 19.1701C15.6829 19.1684 15.6169 19.1523 15.5566 19.123C15.4962 19.0937 15.4428 19.0518 15.4 19.0001C15.3524 18.9552 15.3149 18.9006 15.29 18.8401C15.2635 18.7802 15.2499 18.7155 15.2499 18.6501C15.2499 18.5847 15.2635 18.5199 15.29 18.4601C15.3149 18.3995 15.3524 18.345 15.4 18.3001C15.4951 18.2078 15.6225 18.1562 15.755 18.1562C15.8875 18.1562 16.0148 18.2078 16.11 18.3001C16.2005 18.394 16.2508 18.5196 16.25 18.6501C16.2604 18.713 16.2604 18.7772 16.25 18.8401C16.2217 18.8987 16.1846 18.9527 16.14 19.0001C16.0919 19.0559 16.0319 19.1002 15.9644 19.1296C15.8969 19.1591 15.8236 19.1729 15.75 19.1701Z" fill="white"/>
<path d="M15.75 15.9199C15.6844 15.9207 15.6194 15.9078 15.5591 15.8819C15.4988 15.8561 15.4446 15.8179 15.4 15.7699C15.3522 15.725 15.314 15.6708 15.288 15.6106C15.2619 15.5504 15.2485 15.4855 15.2485 15.4199C15.2485 15.3543 15.2619 15.2894 15.288 15.2292C15.314 15.169 15.3522 15.1148 15.4 15.0699C15.4422 15.0193 15.4976 14.9812 15.56 14.9599C15.6524 14.9225 15.7537 14.913 15.8515 14.9325C15.9492 14.9521 16.0391 14.9998 16.11 15.0699C16.1964 15.1664 16.246 15.2904 16.25 15.4199C16.2508 15.5504 16.2005 15.676 16.11 15.7699C16.0635 15.8182 16.0075 15.8565 15.9456 15.8823C15.8836 15.9081 15.8171 15.9209 15.75 15.9199Z" fill="white"/>
<path d="M15.36 22.5H4.94C4.80739 22.5 4.68022 22.4473 4.58645 22.3536C4.49268 22.2598 4.44 22.1326 4.44 22V2C4.44 1.86739 4.49268 1.74021 4.58645 1.64645C4.68022 1.55268 4.80739 1.5 4.94 1.5H19.06C19.1926 1.5 19.3198 1.55268 19.4136 1.64645C19.5073 1.74021 19.56 1.86739 19.56 2V18.29C19.56 19.4048 19.1178 20.4741 18.3305 21.2634C17.5431 22.0526 16.4748 22.4974 15.36 22.5ZM5.44 21.5H15.36C16.2096 21.4974 17.0235 21.158 17.6234 20.5563C18.2232 19.9546 18.56 19.1396 18.56 18.29V2.5H5.44V21.5Z" fill="white"/>
<path d="M9.87 19.1699C9.73819 19.1674 9.61249 19.1139 9.51927 19.0206C9.42606 18.9274 9.37256 18.8017 9.37 18.6699V15.4199C9.37 15.2873 9.42267 15.1601 9.51644 15.0664C9.61021 14.9726 9.73739 14.9199 9.87 14.9199C10.0026 14.9199 10.1298 14.9726 10.2235 15.0664C10.3173 15.1601 10.37 15.2873 10.37 15.4199V18.6699C10.37 18.8025 10.3173 18.9297 10.2235 19.0235C10.1298 19.1172 10.0026 19.1699 9.87 19.1699Z" fill="white"/>
<path d="M11.5 17.54H8.25C8.11739 17.54 7.99021 17.4874 7.89645 17.3936C7.80268 17.2998 7.75 17.1726 7.75 17.04C7.75 16.9074 7.80268 16.7803 7.89645 16.6865C7.99021 16.5927 8.11739 16.54 8.25 16.54H11.5C11.6326 16.54 11.7598 16.5927 11.8536 16.6865C11.9473 16.7803 12 16.9074 12 17.04C12 17.1726 11.9473 17.2998 11.8536 17.3936C11.7598 17.4874 11.6326 17.54 11.5 17.54Z" fill="white"/>
<path d="M16.24 12.5399H7.78003C7.64742 12.5399 7.52024 12.4873 7.42648 12.3935C7.33271 12.2997 7.28003 12.1725 7.28003 12.0399V4.67993C7.28003 4.54732 7.33271 4.42015 7.42648 4.32638C7.52024 4.23261 7.64742 4.17993 7.78003 4.17993H16.24C16.3726 4.17993 16.4998 4.23261 16.5936 4.32638C16.6874 4.42015 16.74 4.54732 16.74 4.67993V11.9999C16.7456 12.0689 16.7367 12.1382 16.7141 12.2036C16.6915 12.2689 16.6555 12.3289 16.6085 12.3796C16.5615 12.4304 16.5045 12.4708 16.4411 12.4984C16.3777 12.526 16.3092 12.5402 16.24 12.5399ZM8.24003 11.5399H15.7V5.17993H8.28003L8.24003 11.5399Z" fill="white"/>
</svg>
