<svg width="24" height="24" viewBox="0 0 24 24" fill="none" xmlns="http://www.w3.org/2000/svg">
<path d="M12 16.9999C10.6739 16.9999 9.40215 16.4731 8.46447 15.5354C7.52678 14.5978 7 13.326 7 11.9999V6.1499C7 4.82382 7.52678 3.55205 8.46447 2.61437C9.40215 1.67669 10.6739 1.1499 12 1.1499C13.3261 1.1499 14.5979 1.67669 15.5355 2.61437C16.4732 3.55205 17 4.82382 17 6.1499V11.9999C17 13.326 16.4732 14.5978 15.5355 15.5354C14.5979 16.4731 13.3261 16.9999 12 16.9999ZM12 2.1599C10.9391 2.1599 9.92172 2.58133 9.17157 3.33148C8.42143 4.08162 8 5.09904 8 6.1599V11.9999C8 13.0608 8.42143 14.0782 9.17157 14.8283C9.92172 15.5785 10.9391 15.9999 12 15.9999C13.0609 15.9999 14.0783 15.5785 14.8284 14.8283C15.5786 14.0782 16 13.0608 16 11.9999V6.1499C15.9974 5.09077 15.5748 4.07592 14.8249 3.32794C14.075 2.57995 13.0591 2.1599 12 2.1599Z" fill="white"/>
<path d="M16.5 22.8398H7.5C7.36739 22.8398 7.24021 22.7871 7.14645 22.6933C7.05268 22.5996 7 22.4724 7 22.3398C7.00256 22.208 7.05606 22.0823 7.14928 21.9891C7.2425 21.8958 7.36819 21.8423 7.5 21.8398H11.5V16.5298C11.5 16.3972 11.5527 16.27 11.6464 16.1762C11.7402 16.0825 11.8674 16.0298 12 16.0298C12.1326 16.0298 12.2598 16.0825 12.3536 16.1762C12.4473 16.27 12.5 16.3972 12.5 16.5298V21.8398H16.5C16.6318 21.8423 16.7575 21.8958 16.8507 21.9891C16.9439 22.0823 16.9974 22.208 17 22.3398C17 22.4724 16.9473 22.5996 16.8536 22.6933C16.7598 22.7871 16.6326 22.8398 16.5 22.8398Z" fill="white"/>
<path d="M16.5 7.84985H13.37C13.2374 7.84985 13.1102 7.79717 13.0164 7.70341C12.9227 7.60964 12.87 7.48246 12.87 7.34985C12.8726 7.21805 12.9261 7.09235 13.0193 6.99913C13.1125 6.90591 13.2382 6.85241 13.37 6.84985H16.5C16.6318 6.85241 16.7575 6.90591 16.8507 6.99913C16.9439 7.09235 16.9974 7.21805 17 7.34985C17 7.48246 16.9473 7.60964 16.8535 7.70341C16.7598 7.79717 16.6326 7.84985 16.5 7.84985Z" fill="white"/>
<path d="M16.5 11.8198H13.37C13.2374 11.8198 13.1102 11.7671 13.0164 11.6734C12.9227 11.5796 12.87 11.4524 12.87 11.3198C12.87 11.1872 12.9227 11.06 13.0164 10.9663C13.1102 10.8725 13.2374 10.8198 13.37 10.8198H16.5C16.6326 10.8198 16.7598 10.8725 16.8535 10.9663C16.9473 11.06 17 11.1872 17 11.3198C17 11.4524 16.9473 11.5796 16.8535 11.6734C16.7598 11.7671 16.6326 11.8198 16.5 11.8198Z" fill="white"/>
</svg>
