<svg width="24" height="24" viewBox="0 0 24 24" fill="none" xmlns="http://www.w3.org/2000/svg">
<path d="M17.66 21.7299H6.33999C5.31095 21.7299 4.32406 21.3211 3.59642 20.5935C2.86878 19.8658 2.45999 18.8789 2.45999 17.8499V6.5299C2.45999 5.50086 2.86878 4.51397 3.59642 3.78633C4.32406 3.05869 5.31095 2.6499 6.33999 2.6499H17.66C18.689 2.6499 19.6759 3.05869 20.4036 3.78633C21.1312 4.51397 21.54 5.50086 21.54 6.5299V17.8499C21.54 18.8789 21.1312 19.8658 20.4036 20.5935C19.6759 21.3211 18.689 21.7299 17.66 21.7299ZM6.33999 3.6499C5.57617 3.6499 4.84363 3.95333 4.30352 4.49343C3.76342 5.03354 3.45999 5.76608 3.45999 6.5299V17.8499C3.45999 18.6137 3.76342 19.3463 4.30352 19.8864C4.84363 20.4265 5.57617 20.7299 6.33999 20.7299H17.66C18.4238 20.7299 19.1564 20.4265 19.6965 19.8864C20.2366 19.3463 20.54 18.6137 20.54 17.8499V6.5299C20.54 5.76608 20.2366 5.03354 19.6965 4.49343C19.1564 3.95333 18.4238 3.6499 17.66 3.6499H6.33999Z" fill="white"/>
<path d="M18.13 11.8898C17.9974 11.8898 17.8702 11.8371 17.7764 11.7434C17.6827 11.6496 17.63 11.5224 17.63 11.3898C17.5976 10.9731 17.4091 10.5839 17.1023 10.3001C16.7955 10.0162 16.393 9.85855 15.975 9.85855C15.557 9.85855 15.1544 10.0162 14.8476 10.3001C14.5408 10.5839 14.3524 10.9731 14.32 11.3898C14.32 11.5224 14.2673 11.6496 14.1735 11.7434C14.0798 11.8371 13.9526 11.8898 13.82 11.8898C13.6874 11.8898 13.5602 11.8371 13.4664 11.7434C13.3727 11.6496 13.32 11.5224 13.32 11.3898C13.3615 10.7138 13.6593 10.0791 14.1526 9.61514C14.646 9.15115 15.2977 8.89282 15.975 8.89282C16.6522 8.89282 17.304 9.15115 17.7973 9.61514C18.2907 10.0791 18.5885 10.7138 18.63 11.3898C18.63 11.5224 18.5773 11.6496 18.4835 11.7434C18.3898 11.8371 18.2626 11.8898 18.13 11.8898Z" fill="white"/>
<path d="M10.34 11.89C10.2074 11.89 10.0802 11.8373 9.98642 11.7435C9.89266 11.6498 9.83998 11.5226 9.83998 11.39C9.83998 10.9524 9.66614 10.5327 9.3567 10.2233C9.04727 9.91383 8.62758 9.73999 8.18998 9.73999C7.75237 9.73999 7.33269 9.91383 7.02325 10.2233C6.71382 10.5327 6.53998 10.9524 6.53998 11.39C6.53998 11.5226 6.4873 11.6498 6.39353 11.7435C6.29976 11.8373 6.17259 11.89 6.03998 11.89C5.90737 11.89 5.78019 11.8373 5.68642 11.7435C5.59266 11.6498 5.53998 11.5226 5.53998 11.39C5.53998 10.6872 5.81917 10.0131 6.31614 9.51616C6.81312 9.01919 7.48715 8.73999 8.18998 8.73999C8.8928 8.73999 9.56684 9.01919 10.0638 9.51616C10.5608 10.0131 10.84 10.6872 10.84 11.39C10.84 11.5226 10.7873 11.6498 10.6935 11.7435C10.5998 11.8373 10.4726 11.89 10.34 11.89Z" fill="white"/>
<path d="M16 17.3699H8.19C8.05739 17.3699 7.93022 17.3172 7.83645 17.2234C7.74268 17.1297 7.69 17.0025 7.69 16.8699C7.69 16.7373 7.74268 16.6101 7.83645 16.5163C7.93022 16.4226 8.05739 16.3699 8.19 16.3699H16C16.1318 16.3724 16.2575 16.4259 16.3507 16.5192C16.4439 16.6124 16.4974 16.7381 16.5 16.8699C16.5 17.0025 16.4473 17.1297 16.3536 17.2234C16.2598 17.3172 16.1326 17.3699 16 17.3699Z" fill="white"/>
</svg>
