<svg width="24" height="24" viewBox="0 0 24 24" fill="none" xmlns="http://www.w3.org/2000/svg">
<path d="M21.54 19.0001H21.39C21.2638 18.9587 21.1587 18.8697 21.0971 18.7521C21.0354 18.6344 21.0221 18.4974 21.06 18.3701C21.5089 16.9469 21.6162 15.438 21.3732 13.9656C21.1303 12.4933 20.5439 11.0988 19.6615 9.89535C18.7792 8.69186 17.6258 7.71316 16.2947 7.03854C14.9636 6.36393 13.4923 6.01238 12 6.01238C10.5077 6.01238 9.03643 6.36393 7.70534 7.03854C6.37425 7.71316 5.22081 8.69186 4.33847 9.89535C3.45614 11.0988 2.86973 12.4933 2.62677 13.9656C2.3838 15.438 2.49111 16.9469 2.94 18.3701C2.97979 18.5027 2.96526 18.6457 2.89962 18.7676C2.83399 18.8895 2.72261 18.9803 2.59 19.0201C2.4574 19.0599 2.31441 19.0453 2.19252 18.9797C2.07062 18.9141 1.97979 18.8027 1.94 18.6701C1.43593 17.0956 1.31075 15.4244 1.57465 13.7924C1.83854 12.1604 2.48406 10.6138 3.45866 9.27845C4.43326 7.9431 5.70939 6.85674 7.1832 6.1078C8.657 5.35886 10.2868 4.96851 11.94 4.96851C13.5932 4.96851 15.223 5.35886 16.6968 6.1078C18.1706 6.85674 19.4468 7.9431 20.4213 9.27845C21.3959 10.6138 22.0415 12.1604 22.3054 13.7924C22.5693 15.4244 22.4441 17.0956 21.94 18.6701C21.9089 18.7558 21.8554 18.8317 21.7851 18.8897C21.7147 18.9477 21.6301 18.9859 21.54 19.0001Z" fill="white"/>
<path d="M21.54 19H2.46001C2.3274 19 2.20022 18.9473 2.10645 18.8536C2.01268 18.7598 1.96001 18.6326 1.96001 18.5C1.96001 18.3674 2.01268 18.2402 2.10645 18.1464C2.20022 18.0527 2.3274 18 2.46001 18H21.54C21.6726 18 21.7998 18.0527 21.8936 18.1464C21.9873 18.2402 22.04 18.3674 22.04 18.5C22.04 18.6326 21.9873 18.7598 21.8936 18.8536C21.7998 18.9473 21.6726 19 21.54 19Z" fill="white"/>
<path d="M12 16.0001C11.9344 16.0009 11.8694 15.988 11.8091 15.9621C11.7489 15.9363 11.6947 15.8981 11.65 15.8501C11.6022 15.8052 11.5641 15.751 11.538 15.6908C11.5119 15.6306 11.4985 15.5657 11.4985 15.5001C11.4985 15.4345 11.5119 15.3696 11.538 15.3094C11.5641 15.2492 11.6022 15.195 11.65 15.1501L15.65 11.1501C15.696 11.1041 15.7505 11.0677 15.8106 11.0428C15.8706 11.0179 15.935 11.0051 16 11.0051C16.065 11.0051 16.1294 11.0179 16.1894 11.0428C16.2495 11.0677 16.304 11.1041 16.35 11.1501C16.396 11.1961 16.4324 11.2506 16.4573 11.3107C16.4822 11.3707 16.495 11.4351 16.495 11.5001C16.495 11.5651 16.4822 11.6295 16.4573 11.6895C16.4324 11.7496 16.396 11.8041 16.35 11.8501L12.35 15.8501C12.3054 15.8981 12.2512 15.9363 12.1909 15.9621C12.1306 15.988 12.0656 16.0009 12 16.0001Z" fill="white"/>
</svg>
