<svg width="24" height="24" viewBox="0 0 24 24" fill="none" xmlns="http://www.w3.org/2000/svg">
<path d="M20 18H4C3.86739 18 3.74021 17.9473 3.64645 17.8536C3.55268 17.7598 3.5 17.6326 3.5 17.5V12.5C3.5 11.5717 3.86875 10.6815 4.52513 10.0251C5.1815 9.36875 6.07174 9 7 9H17C17.9283 9 18.8185 9.36875 19.4749 10.0251C20.1313 10.6815 20.5 11.5717 20.5 12.5V17.5C20.5 17.6326 20.4473 17.7598 20.3536 17.8536C20.2598 17.9473 20.1326 18 20 18ZM4.5 17H19.5V12.5C19.5 11.837 19.2366 11.2011 18.7678 10.7322C18.2989 10.2634 17.663 10 17 10H7C6.33696 10 5.70107 10.2634 5.23223 10.7322C4.76339 11.2011 4.5 11.837 4.5 12.5V17Z" fill="white"/>
<path d="M8.00003 13.9999C7.93749 14.0141 7.87257 14.0141 7.81003 13.9999C7.68961 13.9466 7.59336 13.8503 7.54003 13.7299C7.52515 13.6674 7.52515 13.6024 7.54003 13.5399C7.52586 13.4774 7.52586 13.4125 7.54003 13.3499C7.55719 13.2756 7.5902 13.2058 7.6368 13.1454C7.6834 13.085 7.74248 13.0354 7.81003 12.9999C7.93176 12.9499 8.0683 12.9499 8.19003 12.9999C8.31045 13.0532 8.4067 13.1495 8.46003 13.2699C8.47419 13.3325 8.47419 13.3974 8.46003 13.4599C8.4749 13.5224 8.4749 13.5874 8.46003 13.6499C8.4067 13.7703 8.31045 13.8666 8.19003 13.9199C8.13454 13.9623 8.06914 13.9899 8.00003 13.9999Z" fill="white"/>
<path d="M16 14C15.9375 14.0141 15.8726 14.0141 15.81 14C15.6896 13.9466 15.5934 13.8504 15.54 13.73C15.5252 13.6675 15.5252 13.6024 15.54 13.54C15.5392 13.4744 15.5522 13.4094 15.578 13.3491C15.6038 13.2888 15.642 13.2346 15.69 13.19C15.7586 13.1196 15.8468 13.0715 15.9431 13.0519C16.0394 13.0322 16.1394 13.042 16.23 13.08C16.3504 13.1333 16.4467 13.2295 16.5 13.35C16.5142 13.4125 16.5142 13.4774 16.5 13.54C16.5149 13.6024 16.5149 13.6675 16.5 13.73C16.4467 13.8504 16.3504 13.9466 16.23 14C16.1549 14.0219 16.0751 14.0219 16 14Z" fill="white"/>
<path d="M18 10H6C5.86739 10 5.74021 9.94733 5.64645 9.85356C5.55268 9.7598 5.5 9.63262 5.5 9.50001V4.76001C5.5 4.6274 5.55268 4.50022 5.64645 4.40646C5.74021 4.31269 5.86739 4.26001 6 4.26001H18C18.1326 4.26001 18.2598 4.31269 18.3536 4.40646C18.4473 4.50022 18.5 4.6274 18.5 4.76001V9.50001C18.5 9.63262 18.4473 9.7598 18.3536 9.85356C18.2598 9.94733 18.1326 10 18 10ZM6.5 9.00001H17.5V5.26001H6.5V9.00001Z" fill="white"/>
</svg>
