<svg width="24" height="24" viewBox="0 0 24 24" fill="none" xmlns="http://www.w3.org/2000/svg">
<path d="M12.08 15.2901C11.0693 15.2901 10.0814 14.9904 9.24104 14.4289C8.4007 13.8674 7.74574 13.0693 7.35898 12.1356C6.97221 11.2019 6.87102 10.1744 7.06819 9.18316C7.26536 8.19192 7.75204 7.2814 8.46668 6.56675C9.18133 5.85211 10.0918 5.36543 11.0831 5.16826C12.0743 4.97109 13.1018 5.07228 14.0355 5.45905C14.9692 5.84581 15.7673 6.50077 16.3288 7.34111C16.8903 8.18144 17.19 9.16941 17.19 10.1801C17.19 11.5353 16.6516 12.8351 15.6933 13.7934C14.735 14.7517 13.4353 15.2901 12.08 15.2901ZM12.08 6.07007C11.2671 6.07007 10.4725 6.31112 9.79661 6.76273C9.12072 7.21434 8.59393 7.85624 8.28285 8.60724C7.97178 9.35825 7.89039 10.1846 8.04897 10.9819C8.20756 11.7792 8.599 12.5115 9.17379 13.0863C9.74858 13.6611 10.4809 14.0525 11.2782 14.2111C12.0754 14.3697 12.9018 14.2883 13.6528 13.9772C14.4038 13.6661 15.0457 13.1393 15.4973 12.4635C15.949 11.7876 16.19 10.993 16.19 10.1801C16.19 9.09003 15.757 8.04464 14.9862 7.27386C14.2154 6.50309 13.17 6.07007 12.08 6.07007Z" fill="white"/>
<path d="M12 19.0601C11.3288 19.0625 10.6638 18.9311 10.044 18.6735C9.42412 18.416 8.86184 18.0374 8.39 17.5601C8.34217 17.5152 8.30404 17.4609 8.27798 17.4008C8.25192 17.3406 8.23848 17.2757 8.23848 17.2101C8.23848 17.1445 8.25192 17.0796 8.27798 17.0194C8.30404 16.9592 8.34217 16.9049 8.39 16.8601C8.43648 16.8132 8.49178 16.776 8.55271 16.7506C8.61364 16.7252 8.67899 16.7122 8.745 16.7122C8.811 16.7122 8.87636 16.7252 8.93729 16.7506C8.99822 16.776 9.05352 16.8132 9.1 16.8601C9.48075 17.241 9.93284 17.5433 10.4304 17.7495C10.928 17.9557 11.4614 18.0618 12 18.0618C12.5386 18.0618 13.072 17.9557 13.5696 17.7495C14.0672 17.5433 14.5192 17.241 14.9 16.8601C14.9465 16.8132 15.0018 16.776 15.0627 16.7506C15.1236 16.7252 15.189 16.7122 15.255 16.7122C15.321 16.7122 15.3864 16.7252 15.4473 16.7506C15.5082 16.776 15.5635 16.8132 15.61 16.8601C15.6578 16.9049 15.696 16.9592 15.722 17.0194C15.7481 17.0796 15.7615 17.1445 15.7615 17.2101C15.7615 17.2757 15.7481 17.3406 15.722 17.4008C15.696 17.4609 15.6578 17.5152 15.61 17.5601C15.1382 18.0374 14.5759 18.416 13.956 18.6735C13.3362 18.9311 12.6712 19.0625 12 19.0601Z" fill="white"/>
<path d="M12.08 12.0001C13.0852 12.0001 13.9 11.1853 13.9 10.1801C13.9 9.17495 13.0852 8.36011 12.08 8.36011C11.0748 8.36011 10.26 9.17495 10.26 10.1801C10.26 11.1853 11.0748 12.0001 12.08 12.0001Z" fill="white"/>
<path d="M20 22.4101C19.8674 22.4101 19.7402 22.3574 19.6464 22.2636C19.5527 22.1698 19.5 22.0427 19.5 21.9101V10.0001C19.3622 8.12367 18.5196 6.36891 17.1414 5.08817C15.7632 3.80743 13.9514 3.09558 12.07 3.09558C10.1886 3.09558 8.37681 3.80743 6.99859 5.08817C5.62037 6.36891 4.77777 8.12367 4.64 10.0001V21.9101C4.64 22.0427 4.58732 22.1698 4.49355 22.2636C4.39978 22.3574 4.27261 22.4101 4.14 22.4101C4.00739 22.4101 3.88021 22.3574 3.78645 22.2636C3.69268 22.1698 3.64 22.0427 3.64 21.9101V10.0001C3.71535 7.81059 4.63809 5.73598 6.21361 4.21376C7.78912 2.69153 9.89424 1.8407 12.085 1.8407C14.2758 1.8407 16.3809 2.69153 17.9564 4.21376C19.5319 5.73598 20.4546 7.81059 20.53 10.0001V21.9101C20.5287 21.9779 20.5139 22.0448 20.4865 22.1069C20.459 22.1689 20.4194 22.2249 20.3701 22.2714C20.3207 22.318 20.2626 22.3542 20.199 22.378C20.1355 22.4018 20.0678 22.4127 20 22.4101Z" fill="white"/>
<path d="M20 22.41H4.14C4.00739 22.41 3.88021 22.3574 3.78645 22.2636C3.69268 22.1698 3.64 22.0426 3.64 21.91C3.64 21.7774 3.69268 21.6502 3.78645 21.5565C3.88021 21.4627 4.00739 21.41 4.14 21.41H20C20.1326 21.41 20.2598 21.4627 20.3536 21.5565C20.4473 21.6502 20.5 21.7774 20.5 21.91C20.4974 22.0418 20.4439 22.1675 20.3507 22.2608C20.2575 22.354 20.1318 22.4075 20 22.41Z" fill="white"/>
</svg>
