<svg width="24" height="24" viewBox="0 0 24 24" fill="none" xmlns="http://www.w3.org/2000/svg">
<path d="M9.15 11H4.15C3.70616 11 3.28036 10.8244 2.96558 10.5115C2.65081 10.1986 2.47264 9.77385 2.47 9.33002V4.33002C2.47263 3.88527 2.65047 3.45948 2.96496 3.14498C3.27946 2.83049 3.70525 2.65265 4.15 2.65002H9.15C9.59475 2.65265 10.0205 2.83049 10.335 3.14498C10.6495 3.45948 10.8274 3.88527 10.83 4.33002V9.33002C10.8274 9.77385 10.6492 10.1986 10.3344 10.5115C10.0196 10.8244 9.59384 11 9.15 11ZM4.15 3.64002C3.97046 3.64261 3.799 3.71508 3.67203 3.84205C3.54506 3.96902 3.47258 4.14048 3.47 4.32002V9.32002C3.47 9.50037 3.54164 9.67333 3.66917 9.80086C3.79669 9.92838 3.96965 10 4.15 10H9.15C9.33035 10 9.50331 9.92838 9.63083 9.80086C9.75836 9.67333 9.83 9.50037 9.83 9.32002V4.32002C9.82742 4.14048 9.75495 3.96902 9.62798 3.84205C9.50101 3.71508 9.32954 3.64261 9.15 3.64002H4.15Z" fill="white"/>
<path d="M19.85 11H14.85C14.4045 11 13.9771 10.823 13.6621 10.508C13.347 10.1929 13.17 9.76558 13.17 9.32001V4.32001C13.1726 3.87526 13.3505 3.44947 13.665 3.13497C13.9795 2.82048 14.4053 2.64264 14.85 2.64001H19.85C20.2948 2.64264 20.7206 2.82048 21.0351 3.13497C21.3495 3.44947 21.5274 3.87526 21.53 4.32001V9.32001C21.53 9.76558 21.353 10.1929 21.038 10.508C20.7229 10.823 20.2956 11 19.85 11ZM14.85 3.64001C14.6705 3.6426 14.499 3.71507 14.372 3.84204C14.2451 3.96901 14.1726 4.14047 14.17 4.32001V9.32001C14.17 9.50036 14.2417 9.67332 14.3692 9.80085C14.4967 9.92837 14.6697 10 14.85 10H19.85C20.0304 10 20.2033 9.92837 20.3308 9.80085C20.4584 9.67332 20.53 9.50036 20.53 9.32001V4.32001C20.5274 4.14047 20.455 3.96901 20.328 3.84204C20.201 3.71507 20.0296 3.6426 19.85 3.64001H14.85Z" fill="white"/>
<path d="M9.15 21.35H4.15C3.70525 21.3474 3.27946 21.1695 2.96496 20.855C2.65047 20.5405 2.47263 20.1148 2.47 19.67V14.67C2.47264 14.2262 2.65081 13.8014 2.96558 13.4885C3.28036 13.1756 3.70616 13 4.15 13H9.15C9.59556 13 10.0229 13.177 10.3379 13.4921C10.653 13.8071 10.83 14.2344 10.83 14.68V19.68C10.8248 20.123 10.6458 20.5463 10.3316 20.8586C10.0173 21.1709 9.59304 21.3474 9.15 21.35ZM4.15 14C3.96965 14 3.79669 14.0716 3.66917 14.1992C3.54164 14.3267 3.47 14.4997 3.47 14.68V19.68C3.47258 19.8595 3.54506 20.031 3.67203 20.158C3.799 20.2849 3.97046 20.3574 4.15 20.36H9.15C9.32954 20.3574 9.50101 20.2849 9.62798 20.158C9.75495 20.031 9.82742 19.8595 9.83 19.68V14.68C9.83 14.4997 9.75836 14.3267 9.63083 14.1992C9.50331 14.0716 9.33035 14 9.15 14H4.15Z" fill="white"/>
<path d="M19.85 21.35H14.85C14.4053 21.3474 13.9795 21.1695 13.665 20.855C13.3505 20.5405 13.1726 20.1148 13.17 19.67V14.67C13.1727 14.2262 13.3508 13.8014 13.6656 13.4885C13.9804 13.1756 14.4062 13 14.85 13H19.85C20.2956 13 20.7229 13.177 21.038 13.4921C21.353 13.8071 21.53 14.2344 21.53 14.68V19.68C21.5248 20.123 21.3458 20.5463 21.0316 20.8586C20.7174 21.1709 20.2931 21.3474 19.85 21.35ZM14.85 13.99C14.6697 13.99 14.4967 14.0616 14.3692 14.1892C14.2417 14.3167 14.17 14.4897 14.17 14.67V19.67C14.1726 19.8495 14.2451 20.021 14.372 20.148C14.499 20.2749 14.6705 20.3474 14.85 20.35H19.85C20.0296 20.3474 20.201 20.2749 20.328 20.148C20.455 20.021 20.5274 19.8495 20.53 19.67V14.67C20.53 14.4897 20.4584 14.3167 20.3308 14.1892C20.2033 14.0616 20.0304 13.99 19.85 13.99H14.85Z" fill="white"/>
</svg>
