<svg width="24" height="24" viewBox="0 0 24 24" fill="none" xmlns="http://www.w3.org/2000/svg">
<path d="M12 12.5H6.35999C6.22738 12.5 6.1002 12.4473 6.00643 12.3536C5.91266 12.2598 5.85999 12.1326 5.85999 12V6.52002C5.85999 6.38741 5.91266 6.26023 6.00643 6.16647C6.1002 6.0727 6.22738 6.02002 6.35999 6.02002H12C12.1326 6.02002 12.2598 6.0727 12.3535 6.16647C12.4473 6.26023 12.5 6.38741 12.5 6.52002V12C12.5 12.1326 12.4473 12.2598 12.3535 12.3536C12.2598 12.4473 12.1326 12.5 12 12.5ZM6.85999 11.5H11.5V7.00002H6.85999V11.5Z" fill="white"/>
<path d="M17.64 12.5H12C11.8674 12.5 11.7402 12.4473 11.6464 12.3536C11.5527 12.2598 11.5 12.1326 11.5 12V6.52C11.4973 6.45268 11.5082 6.3855 11.5321 6.32251C11.5561 6.25952 11.5925 6.20201 11.6392 6.15345C11.6859 6.10488 11.7419 6.06625 11.8039 6.03988C11.8659 6.01351 11.9326 5.99995 12 6H17.64C17.7726 6 17.8998 6.05268 17.9935 6.14645C18.0873 6.24022 18.14 6.36739 18.14 6.5V12C18.14 12.1326 18.0873 12.2598 17.9935 12.3536C17.8998 12.4473 17.7726 12.5 17.64 12.5ZM12.5 11.5H17.14V7H12.5V11.5Z" fill="white"/>
<path d="M17.64 18H12C11.8674 18 11.7402 17.9473 11.6464 17.8536C11.5527 17.7598 11.5 17.6326 11.5 17.5V12C11.5 11.8674 11.5527 11.7402 11.6464 11.6464C11.7402 11.5527 11.8674 11.5 12 11.5H17.64C17.7726 11.5 17.8998 11.5527 17.9936 11.6464C18.0873 11.7402 18.14 11.8674 18.14 12V17.48C18.1427 17.5473 18.1318 17.6145 18.1078 17.6775C18.0839 17.7405 18.0475 17.798 18.0008 17.8466C17.9541 17.8951 17.8981 17.9338 17.8361 17.9601C17.7741 17.9865 17.7074 18.0001 17.64 18ZM12.5 17H17.14V12.5H12.5V17Z" fill="white"/>
<path d="M12 18H6.35999C6.22738 18 6.1002 17.9473 6.00643 17.8536C5.91266 17.7598 5.85999 17.6326 5.85999 17.5V12C5.85999 11.8674 5.91266 11.7402 6.00643 11.6464C6.1002 11.5527 6.22738 11.5 6.35999 11.5H12C12.1326 11.5 12.2598 11.5527 12.3535 11.6464C12.4473 11.7402 12.5 11.8674 12.5 12V17.48C12.5027 17.5473 12.4917 17.6145 12.4678 17.6775C12.4439 17.7405 12.4075 17.798 12.3608 17.8466C12.3141 17.8951 12.2581 17.9338 12.1961 17.9601C12.1341 17.9865 12.0674 18.0001 12 18ZM6.85999 17H11.5V12.5H6.85999V17Z" fill="white"/>
</svg>
