<svg width="24" height="24" viewBox="0 0 24 24" fill="none" xmlns="http://www.w3.org/2000/svg">
<path d="M16.21 18H7.79C6.1987 18 4.67258 17.3679 3.54736 16.2426C2.42214 15.1174 1.79 13.5913 1.79 12C1.79 10.4087 2.42214 8.88258 3.54736 7.75736C4.67258 6.63214 6.1987 6 7.79 6H16.21C17.8013 6 19.3274 6.63214 20.4526 7.75736C21.5779 8.88258 22.21 10.4087 22.21 12C22.21 13.5913 21.5779 15.1174 20.4526 16.2426C19.3274 17.3679 17.8013 18 16.21 18ZM7.79 7C6.46392 7 5.19215 7.52678 4.25447 8.46447C3.31679 9.40215 2.79 10.6739 2.79 12C2.79 13.3261 3.31679 14.5979 4.25447 15.5355C5.19215 16.4732 6.46392 17 7.79 17H16.21C17.5361 17 18.8079 16.4732 19.7455 15.5355C20.6832 14.5979 21.21 13.3261 21.21 12C21.21 10.6739 20.6832 9.40215 19.7455 8.46447C18.8079 7.52678 17.5361 7 16.21 7H7.79Z" fill="white"/>
<path d="M6.69 14.0799C6.55739 14.0799 6.43022 14.0272 6.33645 13.9335C6.24268 13.8397 6.19 13.7125 6.19 13.5799V10.4199C6.19 10.2873 6.24268 10.1601 6.33645 10.0664C6.43022 9.9726 6.55739 9.91992 6.69 9.91992C6.82181 9.92248 6.9475 9.97598 7.04072 10.0692C7.13394 10.1624 7.18744 10.2881 7.19 10.4199V13.5799C7.18744 13.7117 7.13394 13.8374 7.04072 13.9306C6.9475 14.0239 6.82181 14.0774 6.69 14.0799Z" fill="white"/>
</svg>
