<svg width="24" height="24" viewBox="0 0 24 24" fill="none" xmlns="http://www.w3.org/2000/svg">
<path d="M18.65 22.48H5.31C5.17739 22.48 5.05021 22.4273 4.95644 22.3335C4.86268 22.2398 4.81 22.1126 4.81 21.98C4.81 21.8474 4.86268 21.7202 4.95644 21.6264C5.05021 21.5327 5.17739 21.48 5.31 21.48H18.15V2.47998H12C11.8674 2.47998 11.7402 2.4273 11.6464 2.33353C11.5527 2.23977 11.5 2.11259 11.5 1.97998C11.5 1.84737 11.5527 1.7202 11.6464 1.62643C11.7402 1.53266 11.8674 1.47998 12 1.47998H18.67C18.8026 1.47998 18.9298 1.53266 19.0236 1.62643C19.1173 1.7202 19.17 1.84737 19.17 1.97998V22C19.1674 22.0657 19.1519 22.1302 19.1244 22.1899C19.0969 22.2495 19.0578 22.3032 19.0095 22.3478C18.9612 22.3924 18.9046 22.427 18.8429 22.4497C18.7812 22.4724 18.7157 22.4827 18.65 22.48Z" fill="white"/>
<path d="M18.65 22.4801C17.7736 22.5132 16.9001 22.3591 16.0879 22.028C15.2758 21.6969 14.5435 21.1965 13.94 20.5601C11.16 17.5601 11.47 12.2901 11.48 12.0701C11.4899 11.9436 11.5467 11.8253 11.6391 11.7384C11.7316 11.6515 11.8531 11.6022 11.98 11.6001H18.65C18.7826 11.6001 18.9098 11.6528 19.0035 11.7465C19.0973 11.8403 19.15 11.9675 19.15 12.1001C19.15 12.2327 19.0973 12.3599 19.0035 12.4537C18.9098 12.5474 18.7826 12.6001 18.65 12.6001H12.47C12.47 13.9201 12.63 17.7001 14.67 19.8801C15.1853 20.415 15.8083 20.8343 16.498 21.1102C17.1876 21.386 17.9279 21.5121 18.67 21.4801C18.8026 21.4801 18.9298 21.5328 19.0235 21.6265C19.1173 21.7203 19.17 21.8475 19.17 21.9801C19.17 22.0475 19.1565 22.1142 19.1301 22.1762C19.1037 22.2382 19.0651 22.2942 19.0165 22.3409C18.968 22.3876 18.9105 22.424 18.8475 22.4479C18.7845 22.4719 18.7173 22.4828 18.65 22.4801Z" fill="white"/>
<path d="M13.8 12.5999C13.6674 12.5999 13.5402 12.5473 13.4464 12.4535C13.3527 12.3597 13.3 12.2326 13.3 12.0999V10.4399C13.3 10.3073 13.3527 10.1802 13.4464 10.0864C13.5402 9.99262 13.6674 9.93994 13.8 9.93994C13.9326 9.93994 14.0598 9.99262 14.1535 10.0864C14.2473 10.1802 14.3 10.3073 14.3 10.4399V12.0999C14.3 12.2326 14.2473 12.3597 14.1535 12.4535C14.0598 12.5473 13.9326 12.5999 13.8 12.5999Z" fill="white"/>
</svg>
