<svg width="24" height="24" viewBox="0 0 24 24" fill="none" xmlns="http://www.w3.org/2000/svg">
<path d="M21 19.5H7C6.60218 19.5 6.22064 19.342 5.93934 19.0607C5.65804 18.7794 5.5 18.3978 5.5 18V10C5.5 9.60218 5.65804 9.22064 5.93934 8.93934C6.22064 8.65804 6.60218 8.5 7 8.5H21C21.3978 8.5 21.7794 8.65804 22.0607 8.93934C22.342 9.22064 22.5 9.60218 22.5 10V18C22.5 18.3978 22.342 18.7794 22.0607 19.0607C21.7794 19.342 21.3978 19.5 21 19.5ZM7 9.5C6.86739 9.5 6.74021 9.55268 6.64645 9.64645C6.55268 9.74021 6.5 9.86739 6.5 10V18C6.5 18.1326 6.55268 18.2598 6.64645 18.3536C6.74021 18.4473 6.86739 18.5 7 18.5H21C21.1326 18.5 21.2598 18.4473 21.3536 18.3536C21.4473 18.2598 21.5 18.1326 21.5 18V10C21.5 9.86739 21.4473 9.74021 21.3536 9.64645C21.2598 9.55268 21.1326 9.5 21 9.5H7Z" fill="white"/>
<path d="M6 15.5H3C2.60218 15.5 2.22064 15.342 1.93934 15.0607C1.65804 14.7794 1.5 14.3978 1.5 14V6C1.5 5.60218 1.65804 5.22064 1.93934 4.93934C2.22064 4.65804 2.60218 4.5 3 4.5H17C17.3978 4.5 17.7794 4.65804 18.0607 4.93934C18.342 5.22064 18.5 5.60218 18.5 6V9C18.5 9.13261 18.4473 9.25979 18.3536 9.35355C18.2598 9.44732 18.1326 9.5 18 9.5C17.8674 9.5 17.7402 9.44732 17.6464 9.35355C17.5527 9.25979 17.5 9.13261 17.5 9V6C17.5 5.86739 17.4473 5.74021 17.3536 5.64645C17.2598 5.55268 17.1326 5.5 17 5.5H3C2.86739 5.5 2.74021 5.55268 2.64645 5.64645C2.55268 5.74021 2.5 5.86739 2.5 6V14C2.5 14.1326 2.55268 14.2598 2.64645 14.3536C2.74021 14.4473 2.86739 14.5 3 14.5H6C6.13261 14.5 6.25979 14.5527 6.35355 14.6464C6.44732 14.7402 6.5 14.8674 6.5 15C6.5 15.1326 6.44732 15.2598 6.35355 15.3536C6.25979 15.4473 6.13261 15.5 6 15.5Z" fill="white"/>
<path d="M14 16.5C13.5055 16.5 13.0222 16.3534 12.6111 16.0787C12.2 15.804 11.8795 15.4135 11.6903 14.9567C11.5011 14.4999 11.4516 13.9972 11.548 13.5123C11.6445 13.0273 11.8826 12.5819 12.2322 12.2322C12.5819 11.8826 13.0273 11.6445 13.5123 11.548C13.9972 11.4516 14.4999 11.5011 14.9567 11.6903C15.4135 11.8795 15.804 12.2 16.0787 12.6111C16.3534 13.0222 16.5 13.5055 16.5 14C16.5 14.663 16.2366 15.2989 15.7678 15.7678C15.2989 16.2366 14.663 16.5 14 16.5ZM14 12.5C13.7033 12.5 13.4133 12.588 13.1666 12.7528C12.92 12.9176 12.7277 13.1519 12.6142 13.426C12.5006 13.7001 12.4709 14.0017 12.5288 14.2926C12.5867 14.5836 12.7296 14.8509 12.9393 15.0607C13.1491 15.2704 13.4164 15.4133 13.7074 15.4712C13.9983 15.5291 14.2999 15.4994 14.574 15.3858C14.8481 15.2723 15.0824 15.08 15.2472 14.8334C15.412 14.5867 15.5 14.2967 15.5 14C15.5 13.6022 15.342 13.2206 15.0607 12.9393C14.7794 12.658 14.3978 12.5 14 12.5Z" fill="white"/>
</svg>
