<svg width="24" height="24" viewBox="0 0 24 24" fill="none" xmlns="http://www.w3.org/2000/svg">
<path d="M12 12.5102C11.937 12.5195 11.873 12.5195 11.81 12.5102C11.7495 12.4853 11.6949 12.4478 11.65 12.4002C11.5952 12.3501 11.553 12.2877 11.5269 12.2182C11.5009 12.1487 11.4916 12.074 11.5 12.0002C11.5003 11.8651 11.5543 11.7356 11.65 11.6402C11.6955 11.5957 11.7501 11.5616 11.81 11.5402C11.9317 11.4902 12.0683 11.4902 12.19 11.5402C12.2499 11.5616 12.3045 11.5957 12.35 11.6402C12.4457 11.7356 12.4997 11.8651 12.5 12.0002C12.5008 12.0658 12.4879 12.1308 12.462 12.1911C12.4362 12.2513 12.398 12.3055 12.35 12.3502C12.3051 12.3978 12.2506 12.4353 12.19 12.4602C12.1296 12.4864 12.0655 12.5032 12 12.5102Z" fill="white"/>
<path d="M12 22.6101C11.5426 22.6155 11.0886 22.5299 10.6646 22.3582C10.2405 22.1865 9.85487 21.9322 9.53002 21.6101L2.42002 14.5101C2.08865 14.1835 1.8255 13.7943 1.64589 13.3651C1.46627 12.936 1.37378 12.4753 1.37378 12.0101C1.37378 11.5448 1.46627 11.0842 1.64589 10.655C1.8255 10.2259 2.08865 9.83666 2.42002 9.51009L9.53002 2.41009C10.1934 1.77093 11.0788 1.41382 12 1.41382C12.9212 1.41382 13.8066 1.77093 14.47 2.41009L21.58 9.51009C21.9114 9.83666 22.1745 10.2259 22.3542 10.655C22.5338 11.0842 22.6263 11.5448 22.6263 12.0101C22.6263 12.4753 22.5338 12.936 22.3542 13.3651C22.1745 13.7943 21.9114 14.1835 21.58 14.5101L14.47 21.6101C14.1452 21.9322 13.7595 22.1865 13.3355 22.3582C12.9114 22.5299 12.4575 22.6155 12 22.6101ZM12 2.41009C11.6714 2.40896 11.3458 2.47288 11.0421 2.59817C10.7383 2.72346 10.4623 2.90764 10.23 3.14009L3.13002 10.2401C2.66226 10.7104 2.39969 11.3468 2.39969 12.0101C2.39969 12.6734 2.66226 13.3098 3.13002 13.7801L10.23 20.8801C10.7076 21.3338 11.3413 21.5868 12 21.5868C12.6588 21.5868 13.2924 21.3338 13.77 20.8801L20.87 13.7801C21.3378 13.3098 21.6004 12.6734 21.6004 12.0101C21.6004 11.3468 21.3378 10.7104 20.87 10.2401L13.77 3.14009C13.5378 2.90764 13.2618 2.72346 12.958 2.59817C12.6542 2.47288 12.3286 2.40896 12 2.41009Z" fill="white"/>
</svg>
