<svg width="24" height="24" viewBox="0 0 24 24" fill="none" xmlns="http://www.w3.org/2000/svg">
<path d="M12 22.35H11.78C9.91076 22.2421 8.15498 21.4182 6.87745 20.0494C5.59991 18.6806 4.89888 16.8723 4.91999 15V13.25C4.91287 12.9829 4.98761 12.72 5.13418 12.4966C5.28075 12.2731 5.49214 12.0999 5.73999 12C5.98197 11.9016 6.24757 11.8766 6.50366 11.9282C6.75974 11.9798 6.99497 12.1056 7.17999 12.29L8.31999 13.43C8.39217 13.5046 8.48503 13.5559 8.58661 13.5773C8.6882 13.5987 8.79386 13.5892 8.88999 13.55C8.98399 13.5095 9.06423 13.4426 9.12102 13.3574C9.17781 13.2722 9.20871 13.1724 9.20999 13.07V5.30003C9.21494 4.88284 9.33527 4.47517 9.55766 4.12217C9.78006 3.76916 10.0958 3.48461 10.47 3.30003C10.8394 3.11258 11.2544 3.03375 11.6668 3.07269C12.0793 3.11163 12.4722 3.26675 12.8 3.52003C14.7035 4.84961 16.265 6.61119 17.3566 8.66049C18.4481 10.7098 19.0387 12.9885 19.08 15.31C19.0694 17.1808 18.3188 18.9714 16.9922 20.2905C15.6656 21.6096 13.8708 22.3501 12 22.35ZM6.24999 12.93C6.20692 12.9233 6.16306 12.9233 6.11999 12.93C6.06033 12.9511 6.00886 12.9905 5.97294 13.0426C5.93702 13.0947 5.91849 13.1568 5.91999 13.22V15C5.89892 16.6122 6.49872 18.1708 7.59519 19.3528C8.69165 20.5349 10.2008 21.25 11.81 21.35C12.6234 21.3755 13.4337 21.2373 14.1928 20.9438C14.9518 20.6503 15.6442 20.2074 16.229 19.6413C16.8137 19.0752 17.2788 18.3975 17.5968 17.6484C17.9147 16.8992 18.079 16.0939 18.08 15.28C18.0387 13.1123 17.4843 10.9853 16.4623 9.07322C15.4402 7.16116 13.9795 5.51855 12.2 4.28003C12.0195 4.13755 11.8017 4.05039 11.5728 4.02909C11.3438 4.0078 11.1136 4.05328 10.91 4.16003C10.6981 4.26252 10.5197 4.42321 10.3958 4.62331C10.2718 4.82341 10.2074 5.05466 10.21 5.29003V13.09C10.2101 13.3913 10.1206 13.6858 9.95298 13.9362C9.78534 14.1865 9.54708 14.3814 9.26846 14.4961C8.98984 14.6107 8.68343 14.64 8.38814 14.5802C8.09285 14.5203 7.822 14.3741 7.60999 14.16L6.46999 13C6.4404 12.9734 6.40548 12.9534 6.36754 12.9413C6.3296 12.9292 6.28953 12.9254 6.24999 12.93Z" fill="white"/>
</svg>
