<svg width="24" height="24" viewBox="0 0 24 24" fill="none" xmlns="http://www.w3.org/2000/svg">
<path d="M6.88998 10.1899C6.75738 10.1899 6.6302 10.1373 6.53643 10.0435C6.44266 9.94973 6.38998 9.82255 6.38998 9.68994V3.68994C6.38998 3.55733 6.44266 3.43016 6.53643 3.33639C6.6302 3.24262 6.75738 3.18994 6.88998 3.18994C7.02259 3.18994 7.14977 3.24262 7.24354 3.33639C7.33731 3.43016 7.38998 3.55733 7.38998 3.68994V9.68994C7.38998 9.82255 7.33731 9.94973 7.24354 10.0435C7.14977 10.1373 7.02259 10.1899 6.88998 10.1899Z" fill="white"/>
<path d="M9.87 7.20996H3.87C3.73739 7.20996 3.61021 7.15728 3.51644 7.06351C3.42267 6.96975 3.37 6.84257 3.37 6.70996C3.37 6.57735 3.42267 6.45018 3.51644 6.35641C3.61021 6.26264 3.73739 6.20996 3.87 6.20996H9.87C10.0026 6.20996 10.1298 6.26264 10.2235 6.35641C10.3173 6.45018 10.37 6.57735 10.37 6.70996C10.37 6.84257 10.3173 6.96975 10.2235 7.06351C10.1298 7.15728 10.0026 7.20996 9.87 7.20996Z" fill="white"/>
<path d="M15.18 20.78C15.0474 20.78 14.9202 20.7273 14.8264 20.6336C14.7327 20.5398 14.68 20.4126 14.68 20.28V11C14.68 10.8674 14.7327 10.7402 14.8264 10.6464C14.9202 10.5527 15.0474 10.5 15.18 10.5C15.3126 10.5 15.4398 10.5527 15.5335 10.6464C15.6273 10.7402 15.68 10.8674 15.68 11V20.26C15.6813 20.327 15.6694 20.3936 15.645 20.4559C15.6206 20.5183 15.5841 20.5753 15.5377 20.6236C15.4913 20.6719 15.4358 20.7105 15.3744 20.7374C15.313 20.7642 15.247 20.7787 15.18 20.78Z" fill="white"/>
<path d="M19.8 16.1499H10.55C10.4174 16.1499 10.2902 16.0972 10.1964 16.0035C10.1027 15.9097 10.05 15.7825 10.05 15.6499C10.05 15.5173 10.1027 15.3901 10.1964 15.2963C10.2902 15.2026 10.4174 15.1499 10.55 15.1499H19.8C19.9326 15.1499 20.0598 15.2026 20.1535 15.2963C20.2473 15.3901 20.3 15.5173 20.3 15.6499C20.3 15.7825 20.2473 15.9097 20.1535 16.0035C20.0598 16.0972 19.9326 16.1499 19.8 16.1499Z" fill="white"/>
</svg>
