<svg width="24" height="24" viewBox="0 0 24 24" fill="none" xmlns="http://www.w3.org/2000/svg">
<path d="M10.42 19.2801C9.52865 19.2466 8.67962 18.8913 8.03 18.2801C7.73476 17.9798 7.50294 17.6232 7.34833 17.2315C7.19371 16.8399 7.11946 16.4211 7.13 16.0001C7.13 15.8675 7.18268 15.7403 7.27644 15.6465C7.37021 15.5528 7.49739 15.5001 7.63 15.5001C7.7618 15.5027 7.8875 15.5562 7.98072 15.6494C8.07394 15.7426 8.12744 15.8683 8.13 16.0001C8.11078 16.2916 8.15143 16.5839 8.24946 16.8591C8.34749 17.1342 8.50082 17.3864 8.7 17.6001C9.16981 18.0106 9.76649 18.2472 10.39 18.2701C11.0059 18.2698 11.6015 18.0499 12.07 17.6501C12.2766 17.4305 12.4357 17.1706 12.5372 16.8867C12.6387 16.6028 12.6805 16.3009 12.66 16.0001C12.6788 15.6994 12.6361 15.3981 12.5347 15.1144C12.4333 14.8308 12.2751 14.5707 12.07 14.3501C11.602 13.9482 11.0069 13.725 10.39 13.7201H3.81C3.67819 13.7175 3.5525 13.664 3.45928 13.5708C3.36606 13.4776 3.31256 13.3519 3.31 13.2201C3.31 13.0875 3.36268 12.9603 3.45644 12.8665C3.55021 12.7728 3.67739 12.7201 3.81 12.7201H10.37C11.2559 12.721 12.1105 13.0486 12.77 13.6401C13.0729 13.9509 13.3084 14.321 13.4615 14.7271C13.6147 15.1332 13.6822 15.5666 13.66 16.0001C13.6828 16.4345 13.6145 16.8688 13.4595 17.2752C13.3045 17.6817 13.0662 18.0512 12.76 18.3601C12.1194 18.9436 11.2865 19.271 10.42 19.2801Z" fill="white"/>
<path d="M18.21 16.73C17.4686 16.7229 16.7561 16.4415 16.21 15.94C15.9613 15.6844 15.7681 15.3801 15.6425 15.0463C15.5168 14.7124 15.4615 14.3563 15.48 14C15.4826 13.8682 15.5361 13.7425 15.6293 13.6493C15.7225 13.5561 15.8482 13.5026 15.98 13.5C16.1126 13.5 16.2398 13.5527 16.3336 13.6465C16.4273 13.7403 16.48 13.8674 16.48 14C16.468 14.2217 16.4999 14.4435 16.5737 14.6528C16.6474 14.8621 16.7617 15.0549 16.91 15.22C17.2695 15.5226 17.7204 15.6952 18.19 15.71C18.4961 15.7305 18.8031 15.6879 19.092 15.5849C19.381 15.4818 19.6457 15.3205 19.8697 15.111C20.0937 14.9015 20.2724 14.6481 20.3945 14.3667C20.5166 14.0853 20.5796 13.7818 20.5796 13.475C20.5796 13.1683 20.5166 12.8648 20.3945 12.5834C20.2724 12.302 20.0937 12.0486 19.8697 11.8391C19.6457 11.6296 19.381 11.4683 19.092 11.3652C18.8031 11.2622 18.4961 11.2196 18.19 11.24H5.85C4.96661 11.2414 4.11445 10.9134 3.46 10.32C3.16209 10.0139 2.92957 9.65035 2.77657 9.25152C2.62357 8.85268 2.55329 8.4269 2.57 8.00005C2.54775 7.56658 2.61532 7.1332 2.76848 6.72708C2.92163 6.32097 3.15706 5.95088 3.46 5.64005C4.11743 5.04941 4.973 4.72769 5.85671 4.7388C6.74043 4.74992 7.58763 5.09306 8.23 5.70005C8.52183 6.00549 8.74924 6.36652 8.8987 6.76165C9.04816 7.15677 9.11662 7.57793 9.1 8.00005C9.09744 8.13186 9.04394 8.25755 8.95072 8.35077C8.8575 8.44399 8.7318 8.49749 8.6 8.50005C8.46739 8.50005 8.34021 8.44737 8.24644 8.3536C8.15268 8.25983 8.1 8.13266 8.1 8.00005C8.1173 7.70792 8.07478 7.41534 7.97505 7.14022C7.87532 6.8651 7.72047 6.61323 7.52 6.40005C7.05061 5.98879 6.45367 5.75213 5.83 5.73005C5.21362 5.72773 4.6171 5.94787 4.15 6.35005C3.94515 6.57047 3.78793 6.83075 3.68813 7.11464C3.58834 7.39852 3.54813 7.69993 3.57 8.00005C3.54952 8.29853 3.59043 8.59804 3.69018 8.88011C3.78993 9.16217 3.94643 9.4208 4.15 9.64005C4.6196 10.0471 5.21859 10.2739 5.84 10.28H18.2C19.0269 10.326 19.8048 10.6869 20.3738 11.2885C20.9429 11.8902 21.2601 12.6869 21.2601 13.515C21.2601 14.3432 20.9429 15.1399 20.3738 15.7416C19.8048 16.3432 19.0269 16.7041 18.2 16.75L18.21 16.73Z" fill="white"/>
</svg>
