<svg width="24" height="24" viewBox="0 0 24 24" fill="none" xmlns="http://www.w3.org/2000/svg">
<path d="M12 21.5C10.1211 21.5 8.28435 20.9428 6.72208 19.899C5.15981 18.8551 3.94217 17.3714 3.22314 15.6355C2.50411 13.8996 2.31598 11.9895 2.68254 10.1466C3.0491 8.30383 3.95388 6.61109 5.28248 5.28249C6.61108 3.95389 8.30382 3.0491 10.1466 2.68254C11.9895 2.31598 13.8996 2.50412 15.6355 3.22315C17.3714 3.94218 18.8551 5.15982 19.899 6.72209C20.9428 8.28435 21.5 10.1211 21.5 12C21.4973 14.5187 20.4956 16.9336 18.7146 18.7146C16.9336 20.4956 14.5187 21.4974 12 21.5ZM12 3.5C10.3189 3.5 8.67547 3.99852 7.27765 4.93251C5.87983 5.8665 4.79037 7.19402 4.14702 8.74719C3.50368 10.3004 3.33535 12.0094 3.66332 13.6583C3.9913 15.3071 4.80084 16.8217 5.98959 18.0104C7.17834 19.1992 8.69289 20.0087 10.3417 20.3367C11.9906 20.6647 13.6996 20.4963 15.2528 19.853C16.806 19.2096 18.1335 18.1202 19.0675 16.7224C20.0015 15.3245 20.5 13.6811 20.5 12C20.4973 9.74648 19.601 7.58601 18.0075 5.99252C16.414 4.39903 14.2535 3.50265 12 3.5Z" fill="white"/>
<path d="M12 15.8199C11.2445 15.8199 10.5059 15.5959 9.87772 15.1761C9.24952 14.7564 8.7599 14.1598 8.47078 13.4618C8.18165 12.7638 8.106 11.9957 8.25339 11.2547C8.40079 10.5137 8.76461 9.83302 9.29885 9.29879C9.83308 8.76455 10.5137 8.40073 11.2547 8.25333C11.9958 8.10594 12.7638 8.18159 13.4618 8.47071C14.1599 8.75984 14.7565 9.24946 15.1762 9.87766C15.596 10.5059 15.82 11.2444 15.82 11.9999C15.82 13.0131 15.4175 13.9847 14.7011 14.7011C13.9848 15.4175 13.0131 15.8199 12 15.8199ZM12 9.17993C11.4423 9.17993 10.897 9.34532 10.4333 9.65519C9.96954 9.96505 9.60809 10.4055 9.39465 10.9208C9.18122 11.4361 9.12537 12.0031 9.23418 12.5501C9.34299 13.0971 9.61157 13.5996 10.006 13.994C10.4003 14.3884 10.9028 14.6569 11.4498 14.7657C11.9969 14.8746 12.5639 14.8187 13.0792 14.6053C13.5944 14.3918 14.0349 14.0304 14.3447 13.5666C14.6546 13.1029 14.82 12.5577 14.82 11.9999C14.82 11.252 14.5229 10.5347 13.994 10.0059C13.4652 9.47704 12.7479 9.17993 12 9.17993Z" fill="white"/>
</svg>
