<svg width="24" height="24" viewBox="0 0 24 24" fill="none" xmlns="http://www.w3.org/2000/svg">
<path d="M18.33 20.49H5.64001C5.40907 20.4883 5.1837 20.4189 4.99182 20.2904C4.79994 20.1619 4.65 19.9799 4.56057 19.767C4.47114 19.554 4.44616 19.3196 4.48872 19.0926C4.53128 18.8656 4.63952 18.6561 4.80001 18.49L7.50001 15.79V8C7.50001 7.86739 7.55269 7.74021 7.64645 7.64645C7.74022 7.55268 7.8674 7.5 8.00001 7.5H16.06C16.1926 7.5 16.3198 7.55268 16.4136 7.64645C16.5073 7.74021 16.56 7.86739 16.56 8V15.86L19.17 18.46C19.3351 18.6279 19.4477 18.8403 19.4939 19.0712C19.5401 19.3021 19.5179 19.5415 19.43 19.76C19.3392 19.9767 19.1863 20.1616 18.9905 20.2915C18.7948 20.4214 18.5649 20.4905 18.33 20.49ZM8.50001 8.49V16C8.50081 16.0656 8.48787 16.1306 8.46204 16.1909C8.43621 16.2512 8.39805 16.3054 8.35001 16.35L5.51001 19.18C5.49245 19.2104 5.48321 19.2449 5.48321 19.28C5.48321 19.3151 5.49245 19.3496 5.51001 19.38C5.52404 19.4133 5.54776 19.4416 5.57807 19.4612C5.60839 19.4808 5.64391 19.4908 5.68001 19.49H18.33C18.369 19.4922 18.4076 19.4817 18.44 19.4601C18.4725 19.4384 18.4971 19.4068 18.51 19.37C18.5215 19.3337 18.5229 19.2951 18.5141 19.2581C18.5053 19.2211 18.4866 19.1872 18.46 19.16L15.71 16.41C15.6161 16.3134 15.5624 16.1847 15.56 16.05V8.49H8.50001Z" fill="white"/>
<path d="M7.99999 8.48996C7.93442 8.49076 7.8694 8.47783 7.80912 8.45199C7.74884 8.42616 7.69464 8.388 7.64999 8.33996C7.60216 8.29507 7.56404 8.24085 7.53798 8.18065C7.51192 8.12046 7.49847 8.05556 7.49847 7.98996C7.49847 7.92436 7.51192 7.85946 7.53798 7.79926C7.56404 7.73907 7.60216 7.68485 7.64999 7.63996L9.87999 5.39996C10.4412 4.84727 11.1973 4.53748 11.985 4.53748C12.7727 4.53748 13.5288 4.84727 14.09 5.39996L16.41 7.65996C16.4573 7.70592 16.495 7.76075 16.5211 7.8213C16.5472 7.88186 16.5611 7.94696 16.562 8.01289C16.563 8.07882 16.5509 8.14429 16.5265 8.20555C16.5022 8.26682 16.466 8.32268 16.42 8.36996C16.374 8.41724 16.3192 8.455 16.2586 8.48108C16.1981 8.50717 16.133 8.52108 16.0671 8.52201C16.0011 8.52293 15.9357 8.51087 15.8744 8.4865C15.8131 8.46212 15.7573 8.42592 15.71 8.37996L13.39 6.08996C13.0161 5.72351 12.5135 5.51825 11.99 5.51825C11.4665 5.51825 10.9639 5.72351 10.59 6.08996L8.34999 8.33996C8.30535 8.388 8.25114 8.42616 8.19086 8.45199C8.13059 8.47783 8.06557 8.49076 7.99999 8.48996Z" fill="white"/>
<path d="M4.46002 15.0799C4.32741 15.0799 4.20024 15.0272 4.10647 14.9335C4.0127 14.8397 3.96002 14.7125 3.96002 14.5799V7.99991C3.96002 7.8673 4.0127 7.74013 4.10647 7.64636C4.20024 7.55259 4.32741 7.49991 4.46002 7.49991C4.52864 7.49586 4.59738 7.50572 4.66209 7.5289C4.7268 7.55208 4.78616 7.5881 4.8366 7.63481C4.88704 7.68151 4.92752 7.73793 4.9556 7.80067C4.98368 7.86341 4.99879 7.93118 5.00002 7.99991V14.5399C5.00609 14.6124 4.99629 14.6853 4.9713 14.7535C4.94631 14.8218 4.90673 14.8838 4.85532 14.9352C4.80391 14.9866 4.74191 15.0262 4.67364 15.0512C4.60537 15.0762 4.53247 15.086 4.46002 15.0799Z" fill="white"/>
<path d="M19.54 15.08C19.4074 15.08 19.2803 15.0273 19.1865 14.9336C19.0927 14.8398 19.04 14.7126 19.04 14.58V8C19.0426 7.86819 19.0961 7.7425 19.1893 7.64928C19.2825 7.55606 19.4082 7.50256 19.54 7.5C19.6656 7.51008 19.7827 7.56717 19.868 7.65987C19.9533 7.75257 20.0004 7.87404 20 8V14.54C20.0055 14.6057 19.9979 14.6718 19.9777 14.7346C19.9575 14.7974 19.9251 14.8555 19.8824 14.9057C19.8396 14.9559 19.7874 14.9971 19.7286 15.027C19.6699 15.057 19.6058 15.075 19.54 15.08Z" fill="white"/>
</svg>
