<svg width="24" height="24" viewBox="0 0 24 24" fill="none" xmlns="http://www.w3.org/2000/svg">
<path d="M14.85 5.57H9.22998C9.09737 5.57 8.9702 5.51733 8.87643 5.42356C8.78266 5.32979 8.72998 5.20261 8.72998 5.07V2.38001C8.72998 2.2474 8.78266 2.12022 8.87643 2.02645C8.9702 1.93268 9.09737 1.88 9.22998 1.88H14.85C14.9826 1.88 15.1098 1.93268 15.2035 2.02645C15.2973 2.12022 15.35 2.2474 15.35 2.38001V5.07C15.35 5.13567 15.337 5.20068 15.3119 5.26135C15.2868 5.32201 15.25 5.37713 15.2035 5.42356C15.1571 5.46999 15.102 5.50682 15.0413 5.53194C14.9807 5.55707 14.9156 5.57 14.85 5.57ZM9.72998 4.57H14.35V2.88001H9.72998V4.57Z" fill="white"/>
<path d="M14.85 22.1201H9.22998C9.09737 22.1201 8.9702 22.0674 8.87643 21.9736C8.78266 21.8798 8.72998 21.7527 8.72998 21.6201V18.9301C8.72998 18.7974 8.78266 18.6703 8.87643 18.5765C8.9702 18.4827 9.09737 18.4301 9.22998 18.4301H14.85C14.9826 18.4301 15.1098 18.4827 15.2035 18.5765C15.2973 18.6703 15.35 18.7974 15.35 18.9301V21.6201C15.35 21.6857 15.337 21.7507 15.3119 21.8114C15.2868 21.8721 15.25 21.9272 15.2035 21.9736C15.1571 22.02 15.102 22.0569 15.0413 22.082C14.9807 22.1071 14.9156 22.1201 14.85 22.1201ZM9.72998 21.1201H14.35V19.4301H9.72998V21.1201Z" fill="white"/>
<path d="M12 19.4299C10.5305 19.4299 9.09398 18.9942 7.87212 18.1778C6.65027 17.3613 5.69795 16.2009 5.13559 14.8433C4.57323 13.4856 4.42609 11.9917 4.71278 10.5504C4.99946 9.10915 5.7071 7.78525 6.74621 6.74615C7.78531 5.70704 9.10921 4.9994 10.5505 4.71271C11.9918 4.42603 13.4857 4.57317 14.8433 5.13552C16.201 5.69788 17.3614 6.65021 18.1778 7.87206C18.9942 9.09392 19.43 10.5304 19.43 11.9999C19.43 13.9705 18.6472 15.8604 17.2538 17.2538C15.8604 18.6471 13.9706 19.4299 12 19.4299ZM12 5.56995C10.7283 5.56995 9.4851 5.94706 8.42769 6.6536C7.37029 7.36014 6.54614 8.36437 6.05947 9.5393C5.57279 10.7142 5.44546 12.0071 5.69356 13.2544C5.94166 14.5017 6.55406 15.6474 7.45331 16.5466C8.35257 17.4459 9.49828 18.0583 10.7456 18.3064C11.9929 18.5545 13.2857 18.4272 14.4607 17.9405C15.6356 17.4538 16.6398 16.6297 17.3464 15.5723C18.0529 14.5149 18.43 13.2717 18.43 11.9999C18.4274 10.2954 17.7491 8.66146 16.5438 7.45617C15.3385 6.25089 13.7045 5.57259 12 5.56995Z" fill="white"/>
</svg>
