<svg width="24" height="24" viewBox="0 0 24 24" fill="none" xmlns="http://www.w3.org/2000/svg">
<path d="M12 8.25001C11.8838 8.24771 11.7719 8.20581 11.6828 8.13125C11.5937 8.05669 11.5328 7.95395 11.51 7.84001C11.4154 7.22966 11.4437 6.60658 11.5931 6.00728C11.7425 5.40799 12.01 4.84456 12.38 4.35001C12.8974 3.80461 13.5312 3.3829 14.2341 3.11627C14.937 2.84965 15.691 2.74496 16.44 2.81001C16.5726 2.81001 16.6998 2.86269 16.7936 2.95646C16.8873 3.05023 16.94 3.1774 16.94 3.31001C16.94 3.44262 16.8873 3.5698 16.7936 3.66357C16.6998 3.75733 16.5726 3.81001 16.44 3.81001C15.8457 3.75884 15.2475 3.8389 14.6876 4.04454C14.1277 4.25018 13.6199 4.57637 13.2 5.00001C12.6353 5.76758 12.398 6.72774 12.54 7.67001C12.5515 7.73505 12.5499 7.80171 12.5355 7.86615C12.5211 7.9306 12.494 7.99154 12.4559 8.04547C12.4178 8.09939 12.3693 8.14523 12.3134 8.18034C12.2575 8.21545 12.1951 8.23913 12.13 8.25001H12Z" fill="white"/>
<path d="M5.62999 20.09C4.64684 20.0874 3.70472 19.6956 3.00953 19.0005C2.31435 18.3053 1.92262 17.3631 1.91998 16.38V11C1.9147 10.5094 2.00675 10.0227 2.19083 9.56796C2.3749 9.11321 2.64734 8.69949 2.99237 8.35074C3.33741 8.00198 3.74818 7.72513 4.20093 7.53618C4.65367 7.34724 5.1394 7.24997 5.62999 7.25C5.76259 7.25 5.88977 7.30268 5.98354 7.39645C6.07731 7.49021 6.12999 7.61739 6.12999 7.75C6.12743 7.88181 6.07392 8.0075 5.98071 8.10072C5.88749 8.19394 5.76179 8.24744 5.62999 8.25C5.27071 8.24996 4.91502 8.32136 4.58359 8.46004C4.25216 8.59873 3.95162 8.80193 3.69944 9.05783C3.44727 9.31373 3.24849 9.61722 3.11468 9.95064C2.98086 10.2841 2.91468 10.6408 2.91999 11V16.42C2.89754 16.7891 2.95084 17.1588 3.07663 17.5065C3.20242 17.8542 3.39802 18.1725 3.65141 18.4417C3.90479 18.711 4.2106 18.9256 4.55001 19.0722C4.88941 19.2189 5.25524 19.2945 5.62498 19.2945C5.99473 19.2945 6.36056 19.2189 6.69996 19.0722C7.03937 18.9256 7.34518 18.711 7.59856 18.4417C7.85195 18.1725 8.04755 17.8542 8.17334 17.5065C8.29913 17.1588 8.35244 16.7891 8.32999 16.42V13.67C8.32999 13.5374 8.38266 13.4102 8.47643 13.3164C8.5702 13.2227 8.69738 13.17 8.82999 13.17C8.96259 13.17 9.08977 13.2227 9.18354 13.3164C9.27731 13.4102 9.32999 13.5374 9.32999 13.67V16.38C9.32999 17.3622 8.94049 18.3044 8.24689 18.9998C7.55329 19.6953 6.6122 20.0874 5.62999 20.09Z" fill="white"/>
<path d="M18.38 20.0901C17.3968 20.0874 16.4547 19.6957 15.7595 19.0005C15.0643 18.3053 14.6726 17.3632 14.67 16.3801V13.6701C14.67 13.5374 14.7227 13.4103 14.8164 13.3165C14.9102 13.2227 15.0374 13.1701 15.17 13.1701C15.3026 13.1701 15.4298 13.2227 15.5235 13.3165C15.6173 13.4103 15.67 13.5374 15.67 13.6701V16.3801C15.6475 16.7491 15.7008 17.1189 15.8266 17.4665C15.9524 17.8142 16.148 18.1325 16.4014 18.4018C16.6548 18.671 16.9606 18.8856 17.3 19.0323C17.6394 19.1789 18.0052 19.2546 18.375 19.2546C18.7447 19.2546 19.1106 19.1789 19.45 19.0323C19.7894 18.8856 20.0952 18.671 20.3486 18.4018C20.6019 18.1325 20.7975 17.8142 20.9233 17.4665C21.0491 17.1189 21.1024 16.7491 21.08 16.3801V11.0001C21.0813 10.6446 21.0124 10.2925 20.8773 9.96374C20.7422 9.635 20.5436 9.33617 20.2927 9.0844C20.0419 8.83262 19.7438 8.63284 19.4155 8.49653C19.0873 8.36022 18.7354 8.29005 18.38 8.29005C18.2474 8.29005 18.1202 8.23737 18.0264 8.14361C17.9327 8.04984 17.88 7.92266 17.88 7.79005C17.88 7.65744 17.9327 7.53027 18.0264 7.4365C18.1202 7.34273 18.2474 7.29005 18.38 7.29005C18.8671 7.28873 19.3496 7.38385 19.7998 7.56995C20.25 7.75605 20.6588 8.02944 21.0028 8.37434C21.3468 8.71924 21.619 9.12883 21.8039 9.57949C21.9888 10.0301 22.0826 10.513 22.08 11.0001V16.4201C22.0695 17.3953 21.6753 18.3272 20.9829 19.0141C20.2904 19.7009 19.3553 20.0875 18.38 20.0901Z" fill="white"/>
<path d="M15.17 14.1699H8.82999C8.69818 14.1674 8.57249 14.1139 8.47927 14.0206C8.38605 13.9274 8.33255 13.8017 8.32999 13.6699C8.32999 13.5373 8.38266 13.4101 8.47643 13.3164C8.5702 13.2226 8.69738 13.1699 8.82999 13.1699H15.17C15.3026 13.1699 15.4298 13.2226 15.5235 13.3164C15.6173 13.4101 15.67 13.5373 15.67 13.6699C15.6674 13.8017 15.6139 13.9274 15.5207 14.0206C15.4275 14.1139 15.3018 14.1674 15.17 14.1699Z" fill="white"/>
<path d="M18.37 8.25H5.62C5.48739 8.25 5.36021 8.19732 5.26644 8.10355C5.17267 8.00979 5.12 7.88261 5.12 7.75C5.12 7.61739 5.17267 7.49021 5.26644 7.39645C5.36021 7.30268 5.48739 7.25 5.62 7.25H18.37C18.5026 7.25 18.6298 7.30268 18.7235 7.39645C18.8173 7.49021 18.87 7.61739 18.87 7.75C18.87 7.88261 18.8173 8.00979 18.7235 8.10355C18.6298 8.19732 18.5026 8.25 18.37 8.25Z" fill="white"/>
</svg>
