<svg width="24" height="24" viewBox="0 0 24 24" fill="none" xmlns="http://www.w3.org/2000/svg">
<path d="M12 18.21C11.8681 18.2081 11.7423 18.1542 11.65 18.06L5.94999 12.36C5.90313 12.3135 5.86593 12.2582 5.84055 12.1973C5.81516 12.1364 5.80209 12.071 5.80209 12.005C5.80209 11.939 5.81516 11.8737 5.84055 11.8127C5.86593 11.7518 5.90313 11.6965 5.94999 11.65L14.34 3.15003C14.3818 3.09858 14.4356 3.05806 14.4965 3.03193C14.5575 3.0058 14.6239 2.99486 14.69 3.00003H20.44C20.5718 3.00259 20.6975 3.05609 20.7907 3.14931C20.8839 3.24253 20.9374 3.36822 20.94 3.50003L21 9.19003C21.0016 9.25719 20.989 9.32394 20.9632 9.38595C20.9374 9.44796 20.8988 9.50386 20.85 9.55003L12.35 18.06C12.2571 18.1533 12.1316 18.2071 12 18.21ZM6.99999 12L12 17L20 9.00003L19.94 4.00003H14.94L6.99999 12Z" fill="white"/>
<path d="M14.79 21C14.6599 20.9988 14.5351 20.9488 14.44 20.86L3.15 9.57001C3.10314 9.52353 3.06594 9.46823 3.04056 9.4073C3.01517 9.34637 3.00211 9.28102 3.00211 9.21501C3.00211 9.14901 3.01517 9.08366 3.04056 9.02273C3.06594 8.9618 3.10314 8.9065 3.15 8.86001C3.19489 8.81218 3.24911 8.77406 3.30931 8.748C3.36951 8.72194 3.43441 8.7085 3.5 8.7085C3.5656 8.7085 3.6305 8.72194 3.6907 8.748C3.7509 8.77406 3.80511 8.81218 3.85 8.86001L15.15 20.15C15.2423 20.2452 15.2938 20.3725 15.2938 20.505C15.2938 20.6375 15.2423 20.7649 15.15 20.86C15.0514 20.9495 14.9232 20.9993 14.79 21Z" fill="white"/>
<path d="M7 20.9401C6.86487 20.9398 6.73539 20.8858 6.64 20.7901L3.17 17.3701C3.11777 17.3234 3.07572 17.2664 3.04647 17.2028C3.01722 17.1391 3.0014 17.0701 3 17.0001C3 16.7301 3 16.6901 7 12.7601C7.04648 12.7132 7.10178 12.676 7.16271 12.6506C7.22364 12.6253 7.28899 12.6122 7.355 12.6122C7.42101 12.6122 7.48636 12.6253 7.54729 12.6506C7.60822 12.676 7.66352 12.7132 7.71 12.7601C7.80225 12.8552 7.85384 12.9826 7.85384 13.1151C7.85384 13.2476 7.80225 13.3749 7.71 13.4701C6.63 14.5901 4.9 16.3001 4.22 17.0001L7 19.7301L10.53 16.1901C10.6242 16.0959 10.7518 16.043 10.885 16.043C11.0182 16.043 11.1458 16.0959 11.24 16.1901C11.3342 16.2842 11.387 16.4119 11.387 16.5451C11.387 16.6782 11.3342 16.8059 11.24 16.9001L7.3 20.7901C7.22025 20.8731 7.11429 20.9261 7 20.9401Z" fill="white"/>
<path d="M12 12.5C11.9344 12.5008 11.8694 12.4878 11.8091 12.462C11.7488 12.4362 11.6946 12.398 11.65 12.35C11.6022 12.3051 11.564 12.2509 11.538 12.1907C11.5119 12.1305 11.4985 12.0656 11.4985 12C11.4985 11.9344 11.5119 11.8695 11.538 11.8093C11.564 11.7491 11.6022 11.6949 11.65 11.65L15.65 7.64998C15.696 7.60402 15.7505 7.56756 15.8106 7.54268C15.8706 7.51781 15.935 7.505 16 7.505C16.065 7.505 16.1294 7.51781 16.1894 7.54268C16.2495 7.56756 16.304 7.60402 16.35 7.64998C16.396 7.69594 16.4324 7.75051 16.4573 7.81056C16.4822 7.87061 16.495 7.93498 16.495 7.99998C16.495 8.06498 16.4822 8.12935 16.4573 8.1894C16.4324 8.24945 16.396 8.30402 16.35 8.34998L12.35 12.35C12.3053 12.398 12.2511 12.4362 12.1909 12.462C12.1306 12.4878 12.0656 12.5008 12 12.5Z" fill="white"/>
</svg>
