<svg width="24" height="24" viewBox="0 0 24 24" fill="none" xmlns="http://www.w3.org/2000/svg">
<path d="M13.08 20.2399C11.7194 20.2412 10.3784 19.9153 9.16999 19.2899C9.11155 19.2597 9.05963 19.2183 9.0172 19.1681C8.97477 19.1178 8.94266 19.0597 8.92269 18.997C8.90273 18.9343 8.8953 18.8683 8.90085 18.8027C8.90639 18.7372 8.92479 18.6734 8.95499 18.6149C8.98519 18.5565 9.02661 18.5046 9.07688 18.4622C9.12715 18.4197 9.18528 18.3876 9.24796 18.3676C9.31064 18.3477 9.37664 18.3403 9.44219 18.3458C9.50774 18.3513 9.57155 18.3697 9.62999 18.3999C11.2485 19.2233 13.1103 19.4333 14.8715 18.991C16.6327 18.5487 18.1744 17.484 19.2118 15.9936C20.2492 14.5032 20.7123 12.6878 20.5155 10.8826C20.3188 9.07734 19.4754 7.40431 18.1412 6.17243C16.8071 4.94055 15.0722 4.23305 13.2571 4.18059C11.4419 4.12812 9.66911 4.73424 8.26602 5.887C6.86293 7.03976 5.92436 8.66129 5.62364 10.4521C5.32293 12.243 5.68038 14.0821 6.62999 15.6299C6.69697 15.7445 6.71669 15.8806 6.68495 16.0094C6.65321 16.1383 6.57251 16.2496 6.45999 16.3199C6.40361 16.3544 6.34096 16.3774 6.27566 16.3875C6.21036 16.3976 6.1437 16.3947 6.07953 16.3789C6.01537 16.3631 5.95498 16.3347 5.90185 16.2954C5.84871 16.2561 5.8039 16.2067 5.76999 16.1499C4.67259 14.3926 4.25482 12.295 4.59518 10.2513C4.93555 8.20763 6.01062 6.35862 7.61833 5.05182C9.22604 3.74502 11.2557 3.0704 13.3258 3.15476C15.3959 3.23912 17.3639 4.07666 18.86 5.50995C20.0153 6.5808 20.8504 7.95164 21.2719 9.46948C21.6934 10.9873 21.6849 12.5924 21.2472 14.1057C20.8095 15.619 19.9599 16.9808 18.7932 18.0393C17.6265 19.0978 16.1886 19.8112 14.64 20.0999C14.1256 20.1957 13.6032 20.2426 13.08 20.2399Z" fill="white"/>
<path d="M5.32 20.76C5.12615 20.7564 4.93619 20.705 4.76691 20.6105C4.59764 20.5159 4.45427 20.3812 4.34948 20.218C4.24468 20.0549 4.1817 19.8685 4.16609 19.6752C4.15048 19.482 4.18274 19.2879 4.26 19.11L5.78 15.69C5.83657 15.5688 5.93851 15.4747 6.06384 15.4279C6.18916 15.3812 6.32784 15.3855 6.44999 15.44C6.57049 15.4946 6.66446 15.5947 6.71132 15.7184C6.75817 15.8421 6.7541 15.9793 6.69999 16.1L5.16999 19.52C5.15052 19.546 5.13999 19.5776 5.13999 19.61C5.13999 19.6425 5.15052 19.6741 5.16999 19.7C5.19184 19.725 5.22052 19.7431 5.25251 19.752C5.2845 19.7609 5.31839 19.7602 5.34999 19.75L9.19999 18.38C9.26161 18.3563 9.32737 18.3453 9.39335 18.3477C9.45932 18.35 9.52414 18.3657 9.58391 18.3937C9.64368 18.4217 9.69718 18.4615 9.74118 18.5107C9.78519 18.5599 9.8188 18.6175 9.83999 18.68C9.88503 18.8047 9.87872 18.9421 9.82247 19.0621C9.76621 19.1821 9.66461 19.2749 9.53999 19.32L5.71999 20.69C5.59204 20.7375 5.45648 20.7613 5.32 20.76Z" fill="white"/>
<path d="M16 10.5H10C9.86739 10.5 9.74021 10.4473 9.64645 10.3536C9.55268 10.2598 9.5 10.1326 9.5 10C9.5 9.86739 9.55268 9.74021 9.64645 9.64645C9.74021 9.55268 9.86739 9.5 10 9.5H16C16.1326 9.5 16.2598 9.55268 16.3536 9.64645C16.4473 9.74021 16.5 9.86739 16.5 10C16.5 10.1326 16.4473 10.2598 16.3536 10.3536C16.2598 10.4473 16.1326 10.5 16 10.5Z" fill="white"/>
<path d="M16 14.5H10C9.86739 14.5 9.74021 14.4473 9.64645 14.3536C9.55268 14.2598 9.5 14.1326 9.5 14C9.5 13.8674 9.55268 13.7402 9.64645 13.6464C9.74021 13.5527 9.86739 13.5 10 13.5H16C16.1326 13.5 16.2598 13.5527 16.3536 13.6464C16.4473 13.7402 16.5 13.8674 16.5 14C16.5 14.1326 16.4473 14.2598 16.3536 14.3536C16.2598 14.4473 16.1326 14.5 16 14.5Z" fill="white"/>
</svg>
