<svg width="24" height="24" viewBox="0 0 24 24" fill="none" xmlns="http://www.w3.org/2000/svg">
<path d="M19.19 18.9999H19.13C18.9981 18.9824 18.8783 18.9141 18.7961 18.8094C18.7139 18.7048 18.6758 18.5722 18.69 18.4399C18.7301 18.1081 18.7501 17.7742 18.75 17.4399V13.1699C18.7618 11.0616 17.9718 9.02756 16.54 7.47992C15.8669 6.74589 15.0498 6.15839 14.1397 5.75407C13.2296 5.34976 12.2459 5.13729 11.25 5.12992C9.19779 5.20559 7.25847 6.08855 5.85393 7.58673C4.44939 9.08491 3.69325 11.0771 3.75 13.1299V17.3899C3.74987 17.7242 3.76991 18.0581 3.81 18.3899C3.8242 18.5222 3.78614 18.6548 3.70394 18.7594C3.62173 18.8641 3.5019 18.9324 3.37 18.9499C3.23771 18.9641 3.1051 18.9261 3.00048 18.8439C2.89586 18.7617 2.8275 18.6418 2.81 18.5099C2.7698 18.1346 2.74977 17.7574 2.75 17.3799V13.1699C2.69337 10.852 3.55489 8.6055 5.14693 6.9198C6.73898 5.23411 8.93258 4.24573 11.25 4.16992C12.3803 4.17627 13.497 4.41681 14.5297 4.87636C15.5624 5.3359 16.4886 6.00448 17.25 6.83992C18.8651 8.56605 19.7563 10.8461 19.74 13.2099V17.4699C19.7402 17.8474 19.7202 18.2246 19.68 18.5999C19.6553 18.712 19.5934 18.8125 19.5045 18.8851C19.4156 18.9577 19.3048 18.9981 19.19 18.9999Z" fill="white"/>
<path d="M19.19 19H3.31C3.17739 19 3.05022 18.9473 2.95645 18.8536C2.86268 18.7598 2.81 18.6326 2.81 18.5C2.81 18.3674 2.86268 18.2402 2.95645 18.1464C3.05022 18.0527 3.17739 18 3.31 18H19.19C19.3226 18 19.4498 18.0527 19.5436 18.1464C19.6373 18.2402 19.69 18.3674 19.69 18.5C19.69 18.6326 19.6373 18.7598 19.5436 18.8536C19.4498 18.9473 19.3226 19 19.19 19Z" fill="white"/>
<path d="M11.25 5.13C11.1174 5.13 10.9902 5.07732 10.8964 4.98355C10.8027 4.88979 10.75 4.76261 10.75 4.63V2.5C10.75 2.36739 10.8027 2.24021 10.8964 2.14645C10.9902 2.05268 11.1174 2 11.25 2C11.3826 2 11.5098 2.05268 11.6036 2.14645C11.6973 2.24021 11.75 2.36739 11.75 2.5V4.63C11.75 4.76261 11.6973 4.88979 11.6036 4.98355C11.5098 5.07732 11.3826 5.13 11.25 5.13Z" fill="white"/>
<path d="M11.25 22C10.3217 22 9.4315 21.6313 8.77513 20.9749C8.11875 20.3185 7.75 19.4283 7.75 18.5C7.75 18.3674 7.80268 18.2402 7.89645 18.1464C7.99021 18.0527 8.11739 18 8.25 18C8.38261 18 8.50979 18.0527 8.60355 18.1464C8.69732 18.2402 8.75 18.3674 8.75 18.5C8.75 19.163 9.01339 19.7989 9.48223 20.2678C9.95107 20.7366 10.587 21 11.25 21C11.913 21 12.5489 20.7366 13.0178 20.2678C13.4866 19.7989 13.75 19.163 13.75 18.5C13.75 18.3674 13.8027 18.2402 13.8964 18.1464C13.9902 18.0527 14.1174 18 14.25 18C14.3826 18 14.5098 18.0527 14.6036 18.1464C14.6973 18.2402 14.75 18.3674 14.75 18.5C14.75 18.9596 14.6595 19.4148 14.4836 19.8394C14.3077 20.264 14.0499 20.6499 13.7249 20.9749C13.3999 21.2999 13.014 21.5577 12.5894 21.7336C12.1648 21.9095 11.7096 22 11.25 22Z" fill="white"/>
<path d="M20.75 21.0001C20.6844 21.0009 20.6194 20.988 20.5591 20.9621C20.4989 20.9363 20.4446 20.8981 20.4 20.8501L2.9 3.3501C2.80718 3.25728 2.75503 3.13138 2.75503 3.0001C2.75503 2.86883 2.80718 2.74293 2.9 2.6501C2.99283 2.55728 3.11873 2.50513 3.25 2.50513C3.38128 2.50513 3.50718 2.55728 3.6 2.6501L21.1 20.1501C21.1478 20.195 21.186 20.2492 21.212 20.3094C21.2381 20.3696 21.2515 20.4345 21.2515 20.5001C21.2515 20.5657 21.2381 20.6306 21.212 20.6908C21.186 20.751 21.1478 20.8052 21.1 20.8501C21.0554 20.8981 21.0012 20.9363 20.9409 20.9621C20.8806 20.988 20.8156 21.0009 20.75 21.0001Z" fill="white"/>
</svg>
