<svg width="24" height="24" viewBox="0 0 24 24" fill="none" xmlns="http://www.w3.org/2000/svg">
<path d="M11.1 15.5C10.9674 15.5 10.8402 15.4473 10.7464 15.3536C10.6527 15.2598 10.6 15.1326 10.6 15V9.5C10.6102 8.45178 10.2327 7.43677 9.53998 6.65C9.22999 6.29299 8.84772 6.00587 8.41847 5.80762C7.98923 5.60937 7.52278 5.50452 7.04998 5.5C6.05056 5.56439 5.11696 6.02072 4.45218 6.76976C3.7874 7.51881 3.4452 8.5 3.49998 9.5V15C3.49998 15.1326 3.44731 15.2598 3.35354 15.3536C3.25977 15.4473 3.13259 15.5 2.99998 15.5C2.86738 15.5 2.7402 15.4473 2.64643 15.3536C2.55266 15.2598 2.49998 15.1326 2.49998 15V9.5C2.44291 8.23426 2.88965 6.99746 3.74241 6.06036C4.59517 5.12326 5.78448 4.5622 7.04998 4.5C7.66406 4.50608 8.26977 4.64302 8.82675 4.90167C9.38372 5.16033 9.87914 5.53476 10.28 6C11.1372 6.96354 11.6075 8.21033 11.6 9.5V15C11.6 15.1326 11.5473 15.2598 11.4535 15.3536C11.3598 15.4473 11.2326 15.5 11.1 15.5Z" fill="white"/>
<path d="M21 15.5H3C2.86739 15.5 2.74021 15.4473 2.64645 15.3536C2.55268 15.2598 2.5 15.1326 2.5 15C2.5 14.8674 2.55268 14.7402 2.64645 14.6464C2.74021 14.5527 2.86739 14.5 3 14.5H20.5V9.5C20.5102 8.45178 20.1327 7.43677 19.44 6.65C19.1356 6.2992 18.7614 6.01574 18.3413 5.81772C17.9211 5.61971 17.4643 5.5115 17 5.5C16.8674 5.5 16.7402 5.44732 16.6464 5.35355C16.5527 5.25979 16.5 5.13261 16.5 5C16.5 4.86739 16.5527 4.74021 16.6464 4.64645C16.7402 4.55268 16.8674 4.5 17 4.5C17.6056 4.51311 18.2017 4.65343 18.7495 4.91184C19.2974 5.17026 19.7847 5.541 20.18 6C21.0373 6.96354 21.5075 8.21033 21.5 9.5V15C21.5 15.1326 21.4473 15.2598 21.3536 15.3536C21.2598 15.4473 21.1326 15.5 21 15.5Z" fill="white"/>
<path d="M12 22.5C11.8674 22.5 11.7402 22.4473 11.6464 22.3536C11.5527 22.2598 11.5 22.1326 11.5 22V15.5H3C2.86739 15.5 2.74021 15.4473 2.64645 15.3536C2.55268 15.2598 2.5 15.1326 2.5 15C2.5 14.8674 2.55268 14.7402 2.64645 14.6464C2.74021 14.5527 2.86739 14.5 3 14.5H12C12.1326 14.5 12.2598 14.5527 12.3536 14.6464C12.4473 14.7402 12.5 14.8674 12.5 15V22C12.5 22.1326 12.4473 22.2598 12.3536 22.3536C12.2598 22.4473 12.1326 22.5 12 22.5Z" fill="white"/>
<path d="M17.4 5.5H7.5C7.36739 5.5 7.24021 5.44732 7.14645 5.35355C7.05268 5.25979 7 5.13261 7 5C7 4.86739 7.05268 4.74021 7.14645 4.64645C7.24021 4.55268 7.36739 4.5 7.5 4.5H17.4C17.5326 4.5 17.6598 4.55268 17.7536 4.64645C17.8473 4.74021 17.9 4.86739 17.9 5C17.9 5.13261 17.8473 5.25979 17.7536 5.35355C17.6598 5.44732 17.5326 5.5 17.4 5.5Z" fill="white"/>
<path d="M16 9.5C15.8674 9.5 15.7402 9.44732 15.6464 9.35355C15.5527 9.25979 15.5 9.13261 15.5 9V2C15.5 1.86739 15.5527 1.74021 15.6464 1.64645C15.7402 1.55268 15.8674 1.5 16 1.5H21C21.1326 1.5 21.2598 1.55268 21.3536 1.64645C21.4473 1.74021 21.5 1.86739 21.5 2C21.5 2.13261 21.4473 2.25979 21.3536 2.35355C21.2598 2.44732 21.1326 2.5 21 2.5H16.5V9C16.5 9.13261 16.4473 9.25979 16.3536 9.35355C16.2598 9.44732 16.1326 9.5 16 9.5Z" fill="white"/>
</svg>
