<svg width="24" height="24" viewBox="0 0 24 24" fill="none" xmlns="http://www.w3.org/2000/svg">
<path d="M12 15.5601C11.9194 15.5606 11.8401 15.5399 11.77 15.5001C11.66 15.4401 9.03 14.0501 8.47 12.1301C8.3007 11.6574 8.24152 11.1522 8.29698 10.6531C8.35243 10.154 8.52105 9.67419 8.79 9.25013C8.98412 8.98736 9.23965 8.77613 9.53425 8.63493C9.82886 8.49373 10.1536 8.42685 10.48 8.44013C10.7679 8.42715 11.0548 8.48087 11.3185 8.59709C11.5821 8.71331 11.8154 8.88889 12 9.11013C12.1846 8.88889 12.4179 8.71331 12.6815 8.59709C12.9452 8.48087 13.2321 8.42715 13.52 8.44013C13.8464 8.42685 14.1711 8.49373 14.4657 8.63493C14.7604 8.77613 15.0159 8.98736 15.21 9.25013C15.4796 9.6739 15.6487 10.1538 15.7041 10.653C15.7596 11.1522 15.7 11.6575 15.53 12.1301C14.97 14.0501 12.34 15.4401 12.23 15.5001C12.1599 15.5399 12.0806 15.5606 12 15.5601ZM10.48 9.44013C10.3089 9.42636 10.1372 9.45684 9.98134 9.52865C9.82547 9.60045 9.6907 9.71117 9.59 9.85013C9.41868 10.1515 9.31556 10.4868 9.28792 10.8324C9.26027 11.1779 9.30877 11.5254 9.43 11.8501C9.98463 12.9782 10.885 13.8996 12 14.4801C13.115 13.8996 14.0154 12.9782 14.57 11.8501C14.6912 11.5254 14.7397 11.1779 14.7121 10.8324C14.6844 10.4868 14.5813 10.1515 14.41 9.85013C14.3093 9.71117 14.1745 9.60045 14.0187 9.52865C13.8628 9.45684 13.6911 9.42636 13.52 9.44013C13.2548 9.44013 13.0004 9.54549 12.8129 9.73302C12.6254 9.92056 12.52 10.1749 12.52 10.4401C12.52 10.5727 12.4673 10.6999 12.3736 10.7937C12.2798 10.8875 12.1526 10.9401 12.02 10.9401C11.8874 10.9401 11.7602 10.8875 11.6664 10.7937C11.5727 10.6999 11.52 10.5727 11.52 10.4401C11.5201 10.3054 11.493 10.172 11.4402 10.048C11.3875 9.92397 11.3102 9.8119 11.2131 9.7185C11.116 9.6251 11.001 9.55229 10.875 9.50446C10.749 9.45662 10.6146 9.43474 10.48 9.44013Z" fill="white"/>
<path d="M17 22.4601H6.99998C6.07515 22.4654 5.1858 22.1045 4.52624 21.4562C3.86668 20.8079 3.49053 19.9249 3.47998 19.0001V5.0001C3.49053 4.07532 3.86668 3.1923 4.52624 2.54398C5.1858 1.89567 6.07515 1.53475 6.99998 1.5401H17C17.9248 1.53475 18.8142 1.89567 19.4737 2.54398C20.1333 3.1923 20.5094 4.07532 20.52 5.0001V19.0001C20.5094 19.9249 20.1333 20.8079 19.4737 21.4562C18.8142 22.1045 17.9248 22.4654 17 22.4601ZM6.99998 2.5401C6.34036 2.53474 5.70535 2.79029 5.23332 3.25108C4.76129 3.71187 4.49051 4.34054 4.47998 5.0001V19.0001C4.49051 19.6597 4.76129 20.2883 5.23332 20.7491C5.70535 21.2099 6.34036 21.4655 6.99998 21.4601H17C17.3283 21.4601 17.6534 21.3954 17.9567 21.2698C18.26 21.1442 18.5356 20.96 18.7677 20.7279C18.9999 20.4957 19.184 20.2201 19.3097 19.9168C19.4353 19.6135 19.5 19.2884 19.5 18.9601V5.0001C19.4895 4.34401 19.2215 3.71836 18.7538 3.25813C18.286 2.79791 17.6561 2.54001 17 2.5401H6.99998Z" fill="white"/>
</svg>
