<svg width="24" height="24" viewBox="0 0 24 24" fill="none" xmlns="http://www.w3.org/2000/svg">
<path d="M12.18 10.54C12.106 10.5389 12.0331 10.5223 11.9659 10.4913C11.8988 10.4603 11.8388 10.4155 11.79 10.36L7.19999 4.84999C7.11983 4.75874 7.07562 4.64144 7.07562 4.51999C7.07562 4.39853 7.11983 4.28123 7.19999 4.18999L8.99999 2.30999C9.0484 2.26138 9.10613 2.22305 9.1697 2.19728C9.23328 2.1715 9.3014 2.15882 9.36999 2.15999H14.89C15.0235 2.1587 15.1524 2.20883 15.25 2.29999L17.05 4.10999C17.1329 4.20186 17.1788 4.32122 17.1788 4.44499C17.1788 4.56875 17.1329 4.68811 17.05 4.77999L12.53 10.35C12.4882 10.4044 12.4355 10.4494 12.3752 10.4821C12.3149 10.5149 12.2484 10.5346 12.18 10.54ZM8.25999 4.53999L12.17 9.23999L16 4.49999L14.69 3.15999H9.57999L8.25999 4.53999Z" fill="white"/>
<path d="M12.14 20.93C10.7779 20.9265 9.44739 20.5199 8.316 19.7614C7.18462 19.003 6.30301 17.9267 5.78225 16.6681C5.26149 15.4095 5.12488 14.025 5.38963 12.6889C5.65438 11.3528 6.30865 10.1249 7.27 9.16003C7.36415 9.06322 7.4929 9.00778 7.62792 9.00591C7.76295 9.00403 7.89319 9.05587 7.99 9.15002C8.0868 9.24418 8.14224 9.37293 8.14411 9.50795C8.14599 9.64298 8.09415 9.77322 8 9.87003C7.1763 10.6938 6.61538 11.7433 6.38814 12.8858C6.16091 14.0283 6.27757 15.2126 6.72338 16.2888C7.1692 17.3651 7.92413 18.2849 8.89273 18.9321C9.86133 19.5793 11.0001 19.9247 12.165 19.9247C13.3299 19.9247 14.4687 19.5793 15.4373 18.9321C16.4059 18.2849 17.1608 17.3651 17.6066 16.2888C18.0524 15.2126 18.1691 14.0283 17.9418 12.8858C17.7146 11.7433 17.1537 10.6938 16.33 9.87003C16.2661 9.77586 16.2363 9.66273 16.2454 9.54932C16.2546 9.43591 16.3021 9.32901 16.3802 9.24626C16.4583 9.16351 16.5622 9.10987 16.6749 9.09419C16.7876 9.07851 16.9023 9.10174 17 9.16003C17.9619 10.1255 18.6164 11.3543 18.8808 12.6913C19.1453 14.0283 19.0078 15.4137 18.4858 16.6727C17.9638 17.9317 17.0807 19.0079 15.9477 19.7656C14.8148 20.5233 13.4829 20.9284 12.12 20.93H12.14Z" fill="white"/>
</svg>
