<svg width="24" height="24" viewBox="0 0 24 24" fill="none" xmlns="http://www.w3.org/2000/svg">
<path d="M10.9 11.52C10.8297 11.5206 10.7601 11.5056 10.6961 11.4762C10.6322 11.4468 10.5755 11.4038 10.53 11.35C10.482 11.2982 10.4463 11.2363 10.4255 11.1687C10.4047 11.1012 10.3994 11.0299 10.41 10.96C10.41 10.87 11.61 2.04004 19.41 2.04004C19.5323 2.04128 19.65 2.08639 19.7418 2.16715C19.8336 2.24791 19.8933 2.35895 19.91 2.48004C20.1278 4.7773 19.4428 7.06911 18 8.87004C16.43 10.63 14.05 11.52 10.9 11.52ZM18.9 3.06004C13.41 3.35004 11.9 8.71004 11.49 10.51C12.5518 10.5404 13.6085 10.3518 14.5943 9.95614C15.5801 9.56045 16.4739 8.96608 17.22 8.21004C18.3873 6.75405 18.9877 4.92454 18.91 3.06004H18.9Z" fill="white"/>
<path d="M10.9 11.5101H10.84C10.77 11.5101 4.08002 10.6001 4.08002 4.70009C4.08126 4.57785 4.12637 4.46012 4.20713 4.36835C4.28789 4.27657 4.39893 4.21686 4.52002 4.20009C6.26434 4.02663 8.00761 4.53957 9.38002 5.63009C10.0827 6.32882 10.6254 7.17168 10.9707 8.10051C11.316 9.02935 11.4556 10.022 11.38 11.0101C11.3805 11.0805 11.3656 11.1501 11.3362 11.214C11.3068 11.2779 11.2637 11.3346 11.21 11.3801C11.1243 11.4572 11.0151 11.503 10.9 11.5101ZM5.10002 5.16009C5.38002 8.92009 8.96002 10.0901 10.39 10.4101C10.3948 9.66534 10.2494 8.92726 9.96246 8.23998C9.67553 7.5527 9.25296 6.93034 8.72002 6.41009C7.69567 5.5847 6.41541 5.14262 5.10002 5.16009Z" fill="white"/>
<path d="M10.9 15.65C10.7674 15.65 10.6402 15.5973 10.5465 15.5036C10.4527 15.4098 10.4 15.2826 10.4 15.15V11C10.4 10.8674 10.4527 10.7402 10.5465 10.6464C10.6402 10.5527 10.7674 10.5 10.9 10.5C11.0326 10.5 11.1598 10.5527 11.2536 10.6464C11.3473 10.7402 11.4 10.8674 11.4 11V15.13C11.4027 15.1973 11.3918 15.2645 11.3679 15.3275C11.3439 15.3905 11.3075 15.448 11.2608 15.4966C11.2141 15.5451 11.1581 15.5838 11.0961 15.6101C11.0341 15.6365 10.9674 15.6501 10.9 15.65Z" fill="white"/>
<path d="M13.5 22H8.70001C7.77175 22 6.88152 21.6313 6.22514 20.9749C5.56876 20.3185 5.20001 19.4283 5.20001 18.5V15.15C5.20001 15.0174 5.25269 14.8902 5.34646 14.7965C5.44023 14.7027 5.5674 14.65 5.70001 14.65H16.5C16.6326 14.65 16.7598 14.7027 16.8536 14.7965C16.9473 14.8902 17 15.0174 17 15.15V18.46C17.0053 18.923 16.9187 19.3824 16.7452 19.8117C16.5716 20.241 16.3147 20.6315 15.9891 20.9608C15.6636 21.2901 15.276 21.5514 14.8487 21.7298C14.4214 21.9082 13.963 22.0001 13.5 22ZM6.20001 15.65V18.46C6.19605 18.7913 6.25772 19.1201 6.38145 19.4275C6.50519 19.7348 6.68856 20.0146 6.92097 20.2507C7.15338 20.4869 7.43024 20.6747 7.73558 20.8033C8.04092 20.9319 8.3687 20.9987 8.70001 21H13.5C14.1622 20.9974 14.7966 20.7332 15.2649 20.2649C15.7331 19.7966 15.9974 19.1623 16 18.5V15.65H6.20001Z" fill="white"/>
</svg>
