<svg width="24" height="24" viewBox="0 0 24 24" fill="none" xmlns="http://www.w3.org/2000/svg">
<path d="M12 21.5C10.1211 21.5 8.28435 20.9428 6.72209 19.899C5.15982 18.8551 3.94218 17.3714 3.22315 15.6355C2.50412 13.8996 2.31598 11.9895 2.68254 10.1466C3.0491 8.30383 3.95389 6.61109 5.28249 5.28249C6.61109 3.95389 8.30383 3.0491 10.1466 2.68254C11.9895 2.31598 13.8996 2.50412 15.6355 3.22315C17.3714 3.94218 18.8551 5.15982 19.899 6.72209C20.9428 8.28435 21.5 10.1211 21.5 12C21.4974 14.5187 20.4956 16.9336 18.7146 18.7146C16.9336 20.4956 14.5187 21.4974 12 21.5ZM12 3.5C10.3189 3.5 8.67548 3.99852 7.27766 4.93251C5.87984 5.8665 4.79037 7.19402 4.14703 8.74719C3.50368 10.3004 3.33535 12.0094 3.66333 13.6583C3.9913 15.3071 4.80085 16.8217 5.9896 18.0104C7.17834 19.1992 8.6929 20.0087 10.3417 20.3367C11.9906 20.6647 13.6996 20.4963 15.2528 19.853C16.806 19.2096 18.1335 18.1202 19.0675 16.7224C20.0015 15.3245 20.5 13.6811 20.5 12C20.4974 9.74648 19.601 7.58601 18.0075 5.99252C16.414 4.39903 14.2535 3.50265 12 3.5Z" fill="white"/>
<path d="M12 9C11.8674 9 11.7402 8.94732 11.6464 8.85355C11.5527 8.75979 11.5 8.63261 11.5 8.5V3.5C11.5 3.36739 11.5527 3.24021 11.6464 3.14645C11.7402 3.05268 11.8674 3 12 3C12.1326 3 12.2598 3.05268 12.3536 3.14645C12.4473 3.24021 12.5 3.36739 12.5 3.5V8.5C12.5 8.63261 12.4473 8.75979 12.3536 8.85355C12.2598 8.94732 12.1326 9 12 9Z" fill="white"/>
<path d="M12 21C11.8674 21 11.7402 20.9473 11.6464 20.8536C11.5527 20.7598 11.5 20.6326 11.5 20.5V15.5C11.5 15.3674 11.5527 15.2402 11.6464 15.1464C11.7402 15.0527 11.8674 15 12 15C12.1326 15 12.2598 15.0527 12.3536 15.1464C12.4473 15.2402 12.5 15.3674 12.5 15.5V20.5C12.5 20.6326 12.4473 20.7598 12.3536 20.8536C12.2598 20.9473 12.1326 21 12 21Z" fill="white"/>
<path d="M8.5 12.5H3.5C3.36739 12.5 3.24021 12.4473 3.14645 12.3536C3.05268 12.2598 3 12.1326 3 12C3 11.8674 3.05268 11.7402 3.14645 11.6464C3.24021 11.5527 3.36739 11.5 3.5 11.5H8.5C8.63261 11.5 8.75979 11.5527 8.85355 11.6464C8.94732 11.7402 9 11.8674 9 12C9 12.1326 8.94732 12.2598 8.85355 12.3536C8.75979 12.4473 8.63261 12.5 8.5 12.5Z" fill="white"/>
<path d="M20.5 12.5H15.5C15.3674 12.5 15.2402 12.4473 15.1464 12.3536C15.0527 12.2598 15 12.1326 15 12C15 11.8674 15.0527 11.7402 15.1464 11.6464C15.2402 11.5527 15.3674 11.5 15.5 11.5H20.5C20.6326 11.5 20.7598 11.5527 20.8536 11.6464C20.9473 11.7402 21 11.8674 21 12C21 12.1326 20.9473 12.2598 20.8536 12.3536C20.7598 12.4473 20.6326 12.5 20.5 12.5Z" fill="white"/>
</svg>
