<svg width="24" height="24" viewBox="0 0 24 24" fill="none" xmlns="http://www.w3.org/2000/svg">
<path d="M3.17 20.1301C3.07129 20.1296 2.97493 20.0999 2.89307 20.0447C2.81121 19.9896 2.74751 19.9114 2.71 19.8201C2.66984 19.7282 2.65885 19.6262 2.67852 19.5278C2.69819 19.4295 2.74758 19.3395 2.82 19.2701L18.07 4.00011C18.1635 3.90849 18.2891 3.85718 18.42 3.85718C18.5509 3.85718 18.6765 3.90849 18.77 4.00011L21.18 6.41011C21.228 6.45475 21.2662 6.50896 21.292 6.56923C21.3179 6.62951 21.3308 6.69453 21.33 6.76011C21.331 6.82718 21.3182 6.89375 21.2924 6.95567C21.2666 7.0176 21.2283 7.07356 21.18 7.12011L17.1 11.2201L19.44 13.5601C19.5251 13.6509 19.5724 13.7707 19.5724 13.8951C19.5724 14.0195 19.5251 14.1393 19.44 14.2301C19.28 14.4701 14.53 20.1301 3.17 20.1301ZM18.42 5.13011L4.42 19.1301C12.9 18.8001 17.27 15.1301 18.42 13.9601L16 11.5701C15.9522 11.5252 15.914 11.471 15.888 11.4108C15.8619 11.3506 15.8485 11.2857 15.8485 11.2201C15.8485 11.1545 15.8619 11.0896 15.888 11.0294C15.914 10.9692 15.9522 10.915 16 10.8701L20.08 6.78011L18.42 5.13011Z" fill="white"/>
</svg>
