<svg width="24" height="24" viewBox="0 0 24 24" fill="none" xmlns="http://www.w3.org/2000/svg">
<path d="M12 19.8899C10.4299 19.8899 8.89517 19.4238 7.59023 18.5506C6.2853 17.6775 5.26893 16.4366 4.66992 14.9853C4.07091 13.5339 3.91622 11.9374 4.22546 10.3981C4.5347 8.85872 5.29394 7.44582 6.40697 6.33839C7.52001 5.23097 8.93674 4.47889 10.4776 4.17744C12.0185 3.87599 13.6142 4.03875 15.0625 4.64509C16.5108 5.25143 17.7465 6.27406 18.6131 7.58339C19.4796 8.89273 19.938 10.4298 19.93 11.9999C19.9168 14.0953 19.0759 16.1006 17.5904 17.5785C16.105 19.0565 14.0955 19.8873 12 19.8899ZM12 4.99991C10.6324 4.99998 9.29537 5.40471 8.15731 6.16314C7.01924 6.92157 6.13103 7.99978 5.60452 9.262C5.07801 10.5242 4.93674 11.914 5.19851 13.2563C5.46028 14.5987 6.11339 15.8336 7.07557 16.8055C8.03776 17.7774 9.26601 18.4429 10.6057 18.7181C11.9453 18.9934 13.3364 18.8661 14.6039 18.3523C15.8713 17.8385 16.9584 16.9611 17.7282 15.8308C18.4981 14.7004 18.9162 13.3675 18.93 11.9999C18.9393 11.084 18.7669 10.1753 18.4227 9.32641C18.0786 8.47753 17.5696 7.70529 16.9252 7.05435C16.2808 6.4034 15.5137 5.88668 14.6683 5.53404C13.8229 5.18141 12.916 4.99986 12 4.99991Z" fill="white"/>
<path d="M12 6.84997C11.8674 6.84997 11.7402 6.79729 11.6464 6.70352C11.5527 6.60976 11.5 6.48258 11.5 6.34997V2.71997C11.5 2.58736 11.5527 2.46019 11.6464 2.36642C11.7402 2.27265 11.8674 2.21997 12 2.21997C12.1326 2.21997 12.2598 2.27265 12.3536 2.36642C12.4473 2.46019 12.5 2.58736 12.5 2.71997V6.34997C12.5 6.48258 12.4473 6.60976 12.3536 6.70352C12.2598 6.79729 12.1326 6.84997 12 6.84997Z" fill="white"/>
<path d="M12 21.6999C11.8674 21.6999 11.7402 21.6473 11.6464 21.5535C11.5527 21.4597 11.5 21.3326 11.5 21.1999V17.5699C11.5 17.4373 11.5527 17.3102 11.6464 17.2164C11.7402 17.1226 11.8674 17.0699 12 17.0699C12.1326 17.0699 12.2598 17.1226 12.3536 17.2164C12.4473 17.3102 12.5 17.4373 12.5 17.5699V21.1999C12.5 21.3326 12.4473 21.4597 12.3536 21.5535C12.2598 21.6473 12.1326 21.6999 12 21.6999Z" fill="white"/>
<path d="M21.24 12.5H17.61C17.4774 12.5 17.3502 12.4473 17.2564 12.3536C17.1627 12.2598 17.11 12.1326 17.11 12C17.11 11.8674 17.1627 11.7402 17.2564 11.6464C17.3502 11.5527 17.4774 11.5 17.61 11.5H21.24C21.3726 11.5 21.4998 11.5527 21.5935 11.6464C21.6873 11.7402 21.74 11.8674 21.74 12C21.74 12.1326 21.6873 12.2598 21.5935 12.3536C21.4998 12.4473 21.3726 12.5 21.24 12.5Z" fill="white"/>
<path d="M6.39001 12.46H2.76001C2.6274 12.46 2.50022 12.4073 2.40646 12.3135C2.31269 12.2197 2.26001 12.0926 2.26001 11.96C2.26001 11.8274 2.31269 11.7002 2.40646 11.6064C2.50022 11.5126 2.6274 11.46 2.76001 11.46H6.39001C6.52262 11.46 6.64979 11.5126 6.74356 11.6064C6.83733 11.7002 6.89001 11.8274 6.89001 11.96C6.89001 12.0926 6.83733 12.2197 6.74356 12.3135C6.64979 12.4073 6.52262 12.46 6.39001 12.46Z" fill="white"/>
</svg>
