<svg width="24" height="24" viewBox="0 0 24 24" fill="none" xmlns="http://www.w3.org/2000/svg">
<path d="M12.4 21.5C9.88047 21.5 7.46411 20.4991 5.68251 18.7175C3.90091 16.9359 2.90002 14.5196 2.90002 12C2.90002 9.48044 3.90091 7.06408 5.68251 5.28249C7.46411 3.50089 9.88047 2.5 12.4 2.5C12.5326 2.5 12.6598 2.55268 12.7536 2.64645C12.8473 2.74021 12.9 2.86739 12.9 3C12.9 3.13261 12.8473 3.25979 12.7536 3.35355C12.6598 3.44732 12.5326 3.5 12.4 3.5C10.9977 3.49169 9.61507 3.83047 8.37543 4.48615C7.13579 5.14183 6.07763 6.09403 5.29528 7.25789C4.51293 8.42174 4.0307 9.76109 3.89156 11.1565C3.75243 12.552 3.96072 13.9602 4.49787 15.2556C5.03501 16.551 5.88432 17.6934 6.9701 18.5809C8.05587 19.4685 9.34438 20.0736 10.7208 20.3423C12.0971 20.6111 13.5186 20.5351 14.8585 20.1212C16.1984 19.7072 17.415 18.9682 18.4 17.97C18.4445 17.9174 18.4993 17.8745 18.5612 17.8441C18.623 17.8136 18.6904 17.7963 18.7592 17.7932C18.8281 17.79 18.8968 17.8012 18.9611 17.8258C19.0254 17.8505 19.084 17.8882 19.133 17.9366C19.1821 17.985 19.2206 18.043 19.2462 18.1069C19.2718 18.1709 19.2839 18.2395 19.2817 18.3083C19.2796 18.3772 19.2632 18.4449 19.2337 18.5071C19.2041 18.5693 19.162 18.6248 19.11 18.67C18.2357 19.5639 17.192 20.2745 16.0399 20.7604C14.8878 21.2463 13.6504 21.4977 12.4 21.5Z" fill="white"/>
<path d="M12.1 15.1999C12.0352 15.202 11.9706 15.1906 11.9104 15.1666C11.8501 15.1425 11.7955 15.1062 11.75 15.0599L7.75001 11.0599C7.70315 11.0134 7.66595 10.9581 7.64057 10.8972C7.61518 10.8363 7.60211 10.7709 7.60211 10.7049C7.60211 10.6389 7.61518 10.5736 7.64057 10.5126C7.66595 10.4517 7.70315 10.3964 7.75001 10.3499C7.84516 10.2577 7.97248 10.2061 8.10501 10.2061C8.23754 10.2061 8.36486 10.2577 8.46001 10.3499L12.1 13.9999L20.25 5.84993C20.3442 5.75577 20.4719 5.70288 20.605 5.70288C20.7382 5.70288 20.8659 5.75577 20.96 5.84993C21.0542 5.94408 21.1071 6.07178 21.1071 6.20493C21.1071 6.33808 21.0542 6.46577 20.96 6.55993L12.46 15.0599C12.4123 15.106 12.3559 15.1421 12.2941 15.1661C12.2323 15.1901 12.1663 15.2016 12.1 15.1999Z" fill="white"/>
</svg>
