<svg width="24" height="24" viewBox="0 0 24 24" fill="none" xmlns="http://www.w3.org/2000/svg">
<path d="M12 22.5C9.9233 22.5 7.89323 21.8842 6.16651 20.7304C4.4398 19.5767 3.09399 17.9368 2.29926 16.0182C1.50454 14.0996 1.29661 11.9884 1.70175 9.95156C2.1069 7.91476 3.10693 6.04384 4.57538 4.57538C6.04383 3.10693 7.91475 2.1069 9.95155 1.70176C11.9884 1.29661 14.0996 1.50455 16.0182 2.29927C17.9368 3.09399 19.5767 4.4398 20.7304 6.16652C21.8842 7.89323 22.5 9.9233 22.5 12C22.4974 14.784 21.3903 17.4531 19.4217 19.4217C17.4531 21.3903 14.784 22.4974 12 22.5ZM12 2.5C10.1211 2.5 8.28435 3.05717 6.72208 4.10104C5.15982 5.14492 3.94218 6.62861 3.22314 8.36451C2.50411 10.1004 2.31598 12.0105 2.68254 13.8534C3.0491 15.6962 3.95389 17.3889 5.28249 18.7175C6.61108 20.0461 8.30382 20.9509 10.1466 21.3175C11.9895 21.684 13.8996 21.4959 15.6355 20.7769C17.3714 20.0578 18.8551 18.8402 19.899 17.2779C20.9428 15.7157 21.5 13.8789 21.5 12C21.4974 9.48126 20.4956 7.06644 18.7146 5.28541C16.9336 3.50439 14.5187 2.50265 12 2.5Z" fill="white"/>
<path d="M10.69 17C10.4107 17.0026 10.1353 16.9337 9.89 16.8C9.6116 16.6507 9.38064 16.4263 9.22333 16.1523C9.06601 15.8783 8.98864 15.5657 9 15.25V9.25001C8.99617 8.93348 9.08131 8.62224 9.24573 8.35173C9.41016 8.08123 9.64725 7.86235 9.93 7.72001C10.2096 7.57193 10.5247 7.50385 10.8405 7.52326C11.1563 7.54267 11.4606 7.64881 11.72 7.83001L16.01 10.83C16.239 10.9894 16.426 11.2017 16.5552 11.449C16.6844 11.6962 16.7518 11.9711 16.7518 12.25C16.7518 12.529 16.6844 12.8038 16.5552 13.0511C16.426 13.2983 16.239 13.5107 16.01 13.67L11.72 16.67C11.4214 16.8886 11.06 17.0043 10.69 17ZM10.69 8.54001C10.5722 8.54164 10.4562 8.56894 10.35 8.62001C10.2302 8.68044 10.13 8.77357 10.061 8.88861C9.99197 9.00365 9.95696 9.13589 9.96 9.27001V15.27C9.95696 15.4041 9.99197 15.5364 10.061 15.6514C10.13 15.7665 10.2302 15.8596 10.35 15.92C10.4687 15.9836 10.6028 16.0126 10.7372 16.0037C10.8715 15.9949 11.0007 15.9486 11.11 15.87L15.4 12.87C15.495 12.8014 15.5724 12.7113 15.6257 12.607C15.6791 12.5027 15.7069 12.3872 15.7069 12.27C15.7069 12.1529 15.6791 12.0374 15.6257 11.9331C15.5724 11.8287 15.495 11.7386 15.4 11.67L11.11 8.67001C10.9894 8.57682 10.8423 8.5243 10.69 8.52001V8.54001Z" fill="white"/>
</svg>
