<svg width="24" height="24" viewBox="0 0 24 24" fill="none" xmlns="http://www.w3.org/2000/svg">
<path d="M12.25 12C11.1622 12 10.0988 11.6774 9.19437 11.0731C8.2899 10.4687 7.58495 9.60976 7.16867 8.60476C6.75238 7.59977 6.64346 6.4939 6.85568 5.42701C7.0679 4.36011 7.59173 3.3801 8.36091 2.61092C9.1301 1.84173 10.1101 1.3179 11.177 1.10568C12.2439 0.893465 13.3498 1.00238 14.3548 1.41867C15.3598 1.83495 16.2187 2.5399 16.8231 3.44437C17.4274 4.34884 17.75 5.41221 17.75 6.5C17.7474 7.95788 17.167 9.35529 16.1362 10.3862C15.1053 11.417 13.7079 11.9974 12.25 12ZM12.25 2C11.36 2 10.49 2.26392 9.74994 2.75839C9.00992 3.25286 8.43314 3.95566 8.09254 4.77793C7.75195 5.60019 7.66284 6.50499 7.83647 7.37791C8.0101 8.25082 8.43869 9.05265 9.06802 9.68198C9.69736 10.3113 10.4992 10.7399 11.3721 10.9135C12.245 11.0872 13.1498 10.9981 13.9721 10.6575C14.7943 10.3169 15.4971 9.74009 15.9916 9.00007C16.4861 8.26005 16.75 7.39002 16.75 6.5C16.7474 5.30734 16.2724 4.16428 15.4291 3.32094C14.5857 2.4776 13.4427 2.00264 12.25 2Z" fill="white"/>
<path d="M3.25 20C3.11739 20 2.99021 19.9473 2.89645 19.8536C2.80268 19.7598 2.75 19.6326 2.75 19.5C2.75265 17.2465 3.64903 15.086 5.24252 13.4925C6.836 11.899 8.99647 11.0026 11.25 11H13.25C13.3826 11 13.5098 11.0527 13.6036 11.1464C13.6973 11.2402 13.75 11.3674 13.75 11.5C13.75 11.6326 13.6973 11.7598 13.6036 11.8536C13.5098 11.9473 13.3826 12 13.25 12H11.25C9.26088 12 7.35322 12.7902 5.9467 14.1967C4.54018 15.6032 3.75 17.5109 3.75 19.5C3.75 19.6326 3.69732 19.7598 3.60355 19.8536C3.50979 19.9473 3.38261 20 3.25 20Z" fill="white"/>
<path d="M16.75 23C16.6174 23 16.4902 22.9473 16.3964 22.8536C16.3027 22.7598 16.25 22.6326 16.25 22.5V14.5C16.25 14.3674 16.3027 14.2402 16.3964 14.1464C16.4902 14.0527 16.6174 14 16.75 14C16.8826 14 17.0098 14.0527 17.1036 14.1464C17.1973 14.2402 17.25 14.3674 17.25 14.5V22.5C17.25 22.6326 17.1973 22.7598 17.1036 22.8536C17.0098 22.9473 16.8826 23 16.75 23Z" fill="white"/>
<path d="M20.75 19H12.75C12.6174 19 12.4902 18.9473 12.3964 18.8536C12.3027 18.7598 12.25 18.6326 12.25 18.5C12.25 18.3674 12.3027 18.2402 12.3964 18.1464C12.4902 18.0527 12.6174 18 12.75 18H20.75C20.8826 18 21.0098 18.0527 21.1036 18.1464C21.1973 18.2402 21.25 18.3674 21.25 18.5C21.25 18.6326 21.1973 18.7598 21.1036 18.8536C21.0098 18.9473 20.8826 19 20.75 19Z" fill="white"/>
</svg>
