<svg width="24" height="24" viewBox="0 0 24 24" fill="none" xmlns="http://www.w3.org/2000/svg">
<path d="M15.48 22.5H8.48001C7.94958 22.5 7.44087 22.2893 7.0658 21.9142C6.69072 21.5392 6.48001 21.0305 6.48001 20.5V8.00003C6.47996 7.93266 6.49352 7.86596 6.51989 7.80396C6.54626 7.74195 6.58489 7.68592 6.63346 7.63922C6.68202 7.59252 6.73953 7.55611 6.80252 7.5322C6.86551 7.50828 6.93269 7.49734 7.00001 7.50003H17C17.1326 7.50003 17.2598 7.55271 17.3536 7.64648C17.4473 7.74025 17.5 7.86743 17.5 8.00003V20.48C17.5027 20.746 17.4523 21.0099 17.3517 21.2562C17.2511 21.5025 17.1024 21.7262 16.9143 21.9143C16.7262 22.1025 16.5025 22.2511 16.2562 22.3517C16.0099 22.4523 15.746 22.5027 15.48 22.5ZM7.48001 8.50003V20.5C7.48001 20.7653 7.58537 21.0196 7.7729 21.2071C7.96044 21.3947 8.21479 21.5 8.48001 21.5H15.48C15.7452 21.5 15.9996 21.3947 16.1871 21.2071C16.3747 21.0196 16.48 20.7653 16.48 20.5V8.50003H7.48001Z" fill="white"/>
<path d="M15.25 7.5C15.1174 7.5 14.9902 7.44732 14.8964 7.35355C14.8027 7.25979 14.75 7.13261 14.75 7V2.5H9.25V7C9.25 7.13261 9.19732 7.25979 9.10355 7.35355C9.00979 7.44732 8.88261 7.5 8.75 7.5C8.61739 7.5 8.49021 7.44732 8.39645 7.35355C8.30268 7.25979 8.25 7.13261 8.25 7V2C8.25 1.86739 8.30268 1.74021 8.39645 1.64645C8.49021 1.55268 8.61739 1.5 8.75 1.5H15.25C15.3826 1.5 15.5098 1.55268 15.6036 1.64645C15.6973 1.74021 15.75 1.86739 15.75 2V7C15.75 7.13261 15.6973 7.25979 15.6036 7.35355C15.5098 7.44732 15.3826 7.5 15.25 7.5Z" fill="white"/>
</svg>
