<svg width="24" height="24" viewBox="0 0 24 24" fill="none" xmlns="http://www.w3.org/2000/svg">
<path d="M15.35 11.3701C14.4596 11.3721 13.5885 11.1098 12.8472 10.6166C12.1059 10.1233 11.5275 9.42122 11.1854 8.59912C10.8433 7.77703 10.7527 6.87192 10.9252 5.99835C11.0978 5.12478 11.5255 4.32202 12.1545 3.69168C12.7834 3.06134 13.5852 2.63177 14.4584 2.45732C15.3316 2.28287 16.2369 2.3714 17.0598 2.7117C17.8826 3.052 18.586 3.62877 19.0809 4.36901C19.5758 5.10924 19.84 5.97967 19.84 6.87011C19.8374 8.06104 19.3638 9.2026 18.5226 10.0457C17.6814 10.8887 16.5409 11.3648 15.35 11.3701ZM15.35 3.37011C14.6569 3.36813 13.9788 3.57197 13.4017 3.9558C12.8246 4.33962 12.3745 4.88614 12.1083 5.52609C11.8422 6.16604 11.772 6.8706 11.9068 7.55046C12.0415 8.23033 12.3751 8.85488 12.8651 9.34497C13.3552 9.83505 13.9798 10.1686 14.6596 10.3033C15.3395 10.4381 16.0441 10.3679 16.684 10.1018C17.324 9.83561 17.8705 9.38546 18.2543 8.80836C18.6381 8.23126 18.842 7.55319 18.84 6.86011C18.8347 5.93705 18.465 5.05345 17.8114 4.40167C17.1577 3.7499 16.2731 3.38273 15.35 3.38011V3.37011Z" fill="white"/>
<path d="M17.81 21.1902H5C4.86739 21.1902 4.74021 21.1375 4.64645 21.0437C4.55268 20.95 4.5 20.8228 4.5 20.6902C4.5 20.5576 4.55268 20.4304 4.64645 20.3366C4.74021 20.2429 4.86739 20.1902 5 20.1902H17.81C17.9426 20.1902 18.0698 20.2429 18.1636 20.3366C18.2573 20.4304 18.31 20.5576 18.31 20.6902C18.31 20.8228 18.2573 20.95 18.1636 21.0437C18.0698 21.1375 17.9426 21.1902 17.81 21.1902Z" fill="white"/>
<path d="M11.35 21.1902H11.21C11.147 21.1718 11.0882 21.1412 11.037 21.1001C10.9858 21.059 10.9432 21.0082 10.9116 20.9506C10.88 20.8931 10.8601 20.8298 10.853 20.7646C10.8458 20.6993 10.8516 20.6332 10.87 20.5702L13.77 10.5702C13.8071 10.4429 13.8933 10.3356 14.0096 10.2718C14.1259 10.208 14.2627 10.1931 14.39 10.2302C14.5158 10.2696 14.6215 10.3561 14.6849 10.4717C14.7483 10.5873 14.7644 10.723 14.73 10.8502L11.83 20.8502C11.7976 20.9512 11.7332 21.0389 11.6467 21.1002C11.5601 21.1616 11.456 21.1931 11.35 21.1902Z" fill="white"/>
</svg>
