<svg width="24" height="24" viewBox="0 0 24 24" fill="none" xmlns="http://www.w3.org/2000/svg">
<path d="M20 22.5001C19.9344 22.5009 19.8694 22.4879 19.8091 22.4621C19.7488 22.4363 19.6946 22.3981 19.65 22.3501L16 18.7101L12.35 22.3501C12.3051 22.3979 12.2509 22.436 12.1907 22.4621C12.1305 22.4881 12.0656 22.5016 12 22.5016C11.9344 22.5016 11.8695 22.4881 11.8093 22.4621C11.7491 22.436 11.6949 22.3979 11.65 22.3501L8 18.7101L4.35 22.3501C4.28219 22.4216 4.19398 22.4706 4.09736 22.4903C4.00074 22.51 3.90041 22.4994 3.81 22.4601C3.71869 22.4225 3.64053 22.3588 3.58536 22.277C3.53019 22.1951 3.50049 22.0988 3.5 22.0001V2.00005C3.50049 1.90134 3.53019 1.80498 3.58536 1.72312C3.64053 1.64126 3.71869 1.57756 3.81 1.54005C3.90041 1.50071 4.00074 1.49016 4.09736 1.50984C4.19398 1.52952 4.28219 1.57848 4.35 1.65005L8 5.29005L11.65 1.65005C11.6949 1.60222 11.7491 1.5641 11.8093 1.53804C11.8695 1.51198 11.9344 1.49854 12 1.49854C12.0656 1.49854 12.1305 1.51198 12.1907 1.53804C12.2509 1.5641 12.3051 1.60222 12.35 1.65005L16 5.29005L19.65 1.65005C19.7178 1.57848 19.806 1.52952 19.9026 1.50984C19.9993 1.49016 20.0996 1.50071 20.19 1.54005C20.2813 1.57756 20.3595 1.64126 20.4146 1.72312C20.4698 1.80498 20.4995 1.90134 20.5 2.00005V22.0001C20.4995 22.0988 20.4698 22.1951 20.4146 22.277C20.3595 22.3588 20.2813 22.4225 20.19 22.4601C20.1305 22.4877 20.0656 22.5014 20 22.5001ZM8 17.5001C8.06558 17.4993 8.13059 17.5122 8.19087 17.538C8.25115 17.5639 8.30535 17.602 8.35 17.6501L12 21.2901L15.65 17.6501C15.6949 17.6022 15.7491 17.5641 15.8093 17.538C15.8695 17.512 15.9344 17.4985 16 17.4985C16.0656 17.4985 16.1305 17.512 16.1907 17.538C16.2509 17.5641 16.3051 17.6022 16.35 17.6501L19.5 20.7901V3.21005L16.35 6.35005C16.3051 6.39788 16.2509 6.43601 16.1907 6.46207C16.1305 6.48813 16.0656 6.50157 16 6.50157C15.9344 6.50157 15.8695 6.48813 15.8093 6.46207C15.7491 6.43601 15.6949 6.39788 15.65 6.35005L12 2.71005L8.35 6.35005C8.30511 6.39788 8.25089 6.43601 8.19069 6.46207C8.1305 6.48813 8.0656 6.50157 8 6.50157C7.9344 6.50157 7.8695 6.48813 7.80931 6.46207C7.74911 6.43601 7.69489 6.39788 7.65 6.35005L4.5 3.21005V20.7901L7.65 17.6501C7.69465 17.602 7.74885 17.5639 7.80913 17.538C7.86941 17.5122 7.93442 17.4993 8 17.5001Z" fill="white"/>
<path d="M16 10H8C7.86739 10 7.74021 9.94732 7.64645 9.85355C7.55268 9.75979 7.5 9.63261 7.5 9.5C7.5 9.36739 7.55268 9.24021 7.64645 9.14645C7.74021 9.05268 7.86739 9 8 9H16C16.1326 9 16.2598 9.05268 16.3536 9.14645C16.4473 9.24021 16.5 9.36739 16.5 9.5C16.5 9.63261 16.4473 9.75979 16.3536 9.85355C16.2598 9.94732 16.1326 10 16 10Z" fill="white"/>
<path d="M16 15H8C7.86739 15 7.74021 14.9473 7.64645 14.8536C7.55268 14.7598 7.5 14.6326 7.5 14.5C7.5 14.3674 7.55268 14.2402 7.64645 14.1464C7.74021 14.0527 7.86739 14 8 14H16C16.1326 14 16.2598 14.0527 16.3536 14.1464C16.4473 14.2402 16.5 14.3674 16.5 14.5C16.5 14.6326 16.4473 14.7598 16.3536 14.8536C16.2598 14.9473 16.1326 15 16 15Z" fill="white"/>
</svg>
