<svg width="24" height="24" viewBox="0 0 24 24" fill="none" xmlns="http://www.w3.org/2000/svg">
<path d="M5.16 15.66C4.43612 15.66 3.7285 15.4453 3.12661 15.0431C2.52473 14.641 2.05562 14.0694 1.7786 13.4006C1.50158 12.7318 1.4291 11.9959 1.57033 11.2859C1.71155 10.576 2.06013 9.92382 2.57199 9.41196C3.08385 8.9001 3.736 8.55152 4.44597 8.41029C5.15594 8.26907 5.89184 8.34155 6.56062 8.61857C7.2294 8.89558 7.80101 9.3647 8.20318 9.96658C8.60534 10.5685 8.82 11.2761 8.82 12C8.82 12.9707 8.43439 13.9016 7.74801 14.588C7.06163 15.2744 6.13069 15.66 5.16 15.66ZM5.16 9.33997C4.6339 9.33997 4.11962 9.49597 3.68218 9.78826C3.24475 10.0805 2.90381 10.496 2.70248 10.982C2.50115 11.4681 2.44847 12.0029 2.55111 12.5189C2.65375 13.0349 2.90709 13.5089 3.2791 13.8809C3.6511 14.2529 4.12507 14.5062 4.64106 14.6089C5.15705 14.7115 5.69189 14.6588 6.17794 14.4575C6.66399 14.2562 7.07942 13.9152 7.37171 13.4778C7.66399 13.0403 7.82 12.5261 7.82 12C7.82 11.2945 7.53975 10.6179 7.0409 10.1191C6.54206 9.62022 5.86548 9.33997 5.16 9.33997Z" fill="white"/>
<path d="M18.84 9.34002C18.1161 9.34002 17.4085 9.12537 16.8066 8.7232C16.2047 8.32103 15.7356 7.74942 15.4586 7.08064C15.1816 6.41186 15.1091 5.67596 15.2503 4.96599C15.3915 4.25602 15.7401 3.60387 16.252 3.09201C16.7638 2.58015 17.416 2.23157 18.126 2.09035C18.8359 1.94913 19.5718 2.02161 20.2406 2.29862C20.9094 2.57564 21.481 3.04475 21.8832 3.64663C22.2853 4.24852 22.5 4.95614 22.5 5.68002C22.5 6.65071 22.1144 7.58165 21.428 8.26803C20.7416 8.95442 19.8107 9.34002 18.84 9.34002ZM18.84 3.03002C18.3135 3.03002 17.7988 3.18629 17.3611 3.47902C16.9235 3.77174 16.5826 4.18777 16.3815 4.67441C16.1805 5.16104 16.1284 5.69639 16.2319 6.21265C16.3353 6.72891 16.5897 7.20286 16.9627 7.57446C17.3357 7.94607 17.8106 8.19862 18.3272 8.30012C18.8439 8.40163 19.379 8.34752 19.8649 8.14466C20.3508 7.9418 20.7655 7.5993 21.0566 7.16055C21.3477 6.7218 21.502 6.20654 21.5 5.68002C21.5026 5.32903 21.4358 4.98098 21.3033 4.65594C21.1708 4.3309 20.9753 4.0353 20.728 3.78618C20.4807 3.53705 20.1866 3.33932 19.8626 3.2044C19.5385 3.06947 19.191 3.00001 18.84 3.00002V3.03002Z" fill="white"/>
<path d="M18.84 22.0001C18.1157 22.0001 17.4077 21.7851 16.8056 21.3825C16.2035 20.9799 15.7344 20.4077 15.4577 19.7384C15.1809 19.069 15.109 18.3326 15.2511 17.6223C15.3931 16.9121 15.7427 16.26 16.2555 15.7485C16.7684 15.237 17.4215 14.8893 18.1321 14.7492C18.8427 14.6091 19.579 14.683 20.2476 14.9615C20.9162 15.2401 21.4871 15.7108 21.888 16.314C22.289 16.9171 22.502 17.6258 22.5 18.3501C22.4974 19.319 22.1106 20.2474 21.4245 20.9316C20.7384 21.6158 19.809 22.0001 18.84 22.0001ZM18.84 15.6901C18.3139 15.6901 17.7996 15.8461 17.3622 16.1383C16.9247 16.4306 16.5838 16.8461 16.3825 17.3321C16.1812 17.8182 16.1285 18.353 16.2311 18.869C16.3337 19.385 16.5871 19.859 16.9591 20.231C17.3311 20.603 17.8051 20.8563 18.3211 20.9589C18.837 21.0616 19.3719 21.0089 19.8579 20.8076C20.344 20.6062 20.7594 20.2653 21.0517 19.8279C21.344 19.3904 21.5 18.8762 21.5 18.3501C21.5026 17.9986 21.4359 17.6501 21.3035 17.3245C21.1711 16.9989 20.9757 16.7026 20.7286 16.4527C20.4815 16.2028 20.1874 16.0041 19.8633 15.8681C19.5392 15.7321 19.1915 15.6614 18.84 15.6601V15.6901Z" fill="white"/>
<path d="M16.23 17C16.1544 17.0178 16.0756 17.0178 16 17L8.07 12.43C7.99303 12.388 7.92903 12.3257 7.88496 12.2499C7.84089 12.1741 7.81842 12.0876 7.82 12C7.81911 11.91 7.84407 11.8216 7.89194 11.7454C7.9398 11.6692 8.00855 11.6083 8.09 11.57L16.27 7.35998C16.3278 7.33043 16.3908 7.31255 16.4555 7.30737C16.5202 7.30218 16.5853 7.30979 16.647 7.32975C16.7088 7.34972 16.766 7.38165 16.8154 7.42372C16.8648 7.4658 16.9055 7.5172 16.935 7.57498C16.9645 7.63276 16.9824 7.69579 16.9876 7.76048C16.9928 7.82518 16.9852 7.89025 16.9652 7.95201C16.9453 8.01376 16.9133 8.07097 16.8713 8.12038C16.8292 8.16979 16.7778 8.21043 16.72 8.23998L9.36 12L16.48 16.08C16.5739 16.1357 16.6469 16.2205 16.688 16.3216C16.7292 16.4227 16.7361 16.5344 16.7078 16.6398C16.6794 16.7452 16.6174 16.8384 16.5311 16.9052C16.4449 16.9721 16.3391 17.0089 16.23 17.01V17Z" fill="white"/>
</svg>
