<svg width="24" height="24" viewBox="0 0 24 24" fill="none" xmlns="http://www.w3.org/2000/svg">
<path d="M9.54 10.75C9.47746 10.7641 9.41254 10.7641 9.35 10.75C9.2876 10.7286 9.23225 10.6906 9.19 10.64C9.14217 10.5951 9.10405 10.5409 9.07799 10.4807C9.05193 10.4205 9.03848 10.3556 9.03848 10.29C9.03848 10.2244 9.05193 10.1595 9.07799 10.0993C9.10405 10.0391 9.14217 9.98485 9.19 9.93996C9.23225 9.88933 9.2876 9.85128 9.35 9.82996C9.44066 9.79203 9.54063 9.78224 9.63693 9.80185C9.73323 9.82147 9.8214 9.86959 9.89 9.93996C9.95852 10.0098 10.005 10.0983 10.0237 10.1944C10.0425 10.2904 10.0326 10.3899 9.99532 10.4804C9.95805 10.5709 9.89505 10.6485 9.81411 10.7035C9.73317 10.7585 9.63786 10.7886 9.54 10.79V10.75Z" fill="white"/>
<path d="M13.46 14.7101C13.3975 14.725 13.3325 14.725 13.27 14.7101C13.2057 14.6868 13.1476 14.6492 13.1 14.6001C13.0095 14.5062 12.9592 14.3806 12.96 14.2501C12.9607 14.1169 13.0105 13.9887 13.1 13.8901C13.1507 13.8475 13.2081 13.8137 13.27 13.7901C13.3602 13.7535 13.4589 13.7435 13.5546 13.7612C13.6503 13.7789 13.7389 13.8237 13.81 13.8901C13.9023 13.9878 13.9557 14.1158 13.96 14.2501C13.9574 14.3819 13.9039 14.5076 13.8107 14.6008C13.7175 14.694 13.5918 14.7475 13.46 14.7501V14.7101Z" fill="white"/>
<path d="M16.79 20.54H6.78999C6.32362 20.5453 5.86088 20.4574 5.42897 20.2814C4.99706 20.1054 4.60468 19.8449 4.27488 19.5151C3.94509 19.1853 3.68454 18.7929 3.50853 18.361C3.33253 17.9291 3.24463 17.4664 3.24999 17V6.99998C3.24999 6.07173 3.61874 5.18149 4.27511 4.52511C4.93149 3.86873 5.82173 3.49998 6.74999 3.49998H16.75C17.213 3.49469 17.6724 3.58132 18.1017 3.75484C18.5309 3.92836 18.9215 4.18533 19.2508 4.51086C19.58 4.83639 19.8414 5.22402 20.0198 5.65129C20.1982 6.07856 20.29 6.53697 20.29 6.99998V17C20.2953 17.463 20.2087 17.9224 20.0351 18.3517C19.8616 18.7809 19.6046 19.1715 19.2791 19.5008C18.9536 19.83 18.566 20.0914 18.1387 20.2698C17.7114 20.4482 17.253 20.54 16.79 20.54ZM6.78999 4.53998C6.46167 4.53469 6.13553 4.59412 5.83019 4.71489C5.52484 4.83566 5.24628 5.0154 5.01041 5.24384C4.77454 5.47228 4.58599 5.74495 4.45551 6.04627C4.32504 6.34759 4.2552 6.67167 4.24999 6.99998V17C4.24999 17.663 4.51338 18.2989 4.98222 18.7678C5.45106 19.2366 6.08695 19.5 6.74999 19.5H16.75C17.413 19.5 18.0489 19.2366 18.5178 18.7678C18.9866 18.2989 19.25 17.663 19.25 17V6.99998C19.25 6.33694 18.9866 5.70106 18.5178 5.23222C18.0489 4.76338 17.413 4.49998 16.75 4.49998L6.78999 4.53998Z" fill="white"/>
</svg>
