<svg width="24" height="24" viewBox="0 0 24 24" fill="none" xmlns="http://www.w3.org/2000/svg">
<path d="M10.81 20.1301C10.5444 20.1317 10.2812 20.0803 10.0356 19.979C9.79012 19.8777 9.56724 19.7285 9.38 19.5401L4.38 14.5401C4.1895 14.3539 4.03815 14.1314 3.93481 13.8859C3.83147 13.6403 3.77824 13.3766 3.77824 13.1101C3.77824 12.8437 3.83147 12.58 3.93481 12.3344C4.03815 12.0888 4.1895 11.8664 4.38 11.6801L4.62 11.4401C4.80626 11.2496 5.0287 11.0983 5.27427 10.9949C5.51984 10.8916 5.78357 10.8384 6.05 10.8384C6.31642 10.8384 6.58016 10.8916 6.82572 10.9949C7.07129 11.0983 7.29373 11.2496 7.48 11.4401L12.48 16.4401C12.672 16.6265 12.8247 16.8496 12.9289 17.0961C13.0332 17.3426 13.0869 17.6075 13.0869 17.8751C13.0869 18.1428 13.0332 18.4077 12.9289 18.6542C12.8247 18.9006 12.672 19.1237 12.48 19.3101L12.24 19.5401C12.0528 19.7285 11.8299 19.8777 11.5843 19.979C11.3388 20.0803 11.0756 20.1317 10.81 20.1301ZM6.05 11.8601C5.91601 11.8593 5.78322 11.8855 5.65954 11.937C5.53585 11.9886 5.42379 12.0644 5.33 12.1601L5.09 12.3901C4.99166 12.4836 4.91335 12.596 4.85985 12.7206C4.80634 12.8453 4.77874 12.9795 4.77874 13.1151C4.77874 13.2508 4.80634 13.385 4.85985 13.5096C4.91335 13.6343 4.99166 13.7467 5.09 13.8401L10.09 18.8401C10.1833 18.9369 10.2951 19.0139 10.4188 19.0665C10.5425 19.1191 10.6756 19.1462 10.81 19.1462C10.9444 19.1462 11.0775 19.1191 11.2012 19.0665C11.3249 19.0139 11.4367 18.9369 11.53 18.8401L11.77 18.6001C11.8669 18.5052 11.9435 18.3915 11.9951 18.266C12.0466 18.1405 12.0721 18.0058 12.07 17.8701C12.0708 17.7361 12.0446 17.6034 11.9931 17.4797C11.9416 17.356 11.8657 17.2439 11.77 17.1501L6.77 12.1501C6.67537 12.0562 6.56293 11.9822 6.43928 11.9324C6.31563 11.8826 6.18328 11.858 6.05 11.8601Z" fill="white"/>
<path d="M17.92 13.1201C17.6537 13.1203 17.39 13.0674 17.1445 12.9644C16.8989 12.8613 16.6764 12.7103 16.49 12.5201L11.49 7.52011C11.2995 7.33385 11.1481 7.1114 11.0448 6.86584C10.9415 6.62027 10.8882 6.35653 10.8882 6.09011C10.8882 5.82369 10.9415 5.55995 11.0448 5.31438C11.1481 5.06882 11.2995 4.84637 11.49 4.66011L11.72 4.42011C11.9063 4.22962 12.1287 4.07826 12.3743 3.97493C12.6198 3.87159 12.8836 3.81836 13.15 3.81836C13.4164 3.81836 13.6802 3.87159 13.9257 3.97493C14.1713 4.07826 14.3937 4.22962 14.58 4.42011L19.58 9.42011C19.7684 9.60735 19.9176 9.83024 20.0189 10.0758C20.1201 10.3213 20.1715 10.5845 20.17 10.8501C20.1715 11.1157 20.1201 11.3789 20.0189 11.6245C19.9176 11.87 19.7684 12.0929 19.58 12.2801L19.34 12.5101C19.1556 12.7009 18.9351 12.8531 18.6913 12.9578C18.4475 13.0625 18.1853 13.1177 17.92 13.1201ZM13.16 4.84011C13.026 4.83933 12.8932 4.86548 12.7695 4.91702C12.6459 4.96855 12.5338 5.04442 12.44 5.14011L12.2 5.38011C12.1032 5.47339 12.0262 5.58523 11.9737 5.70894C11.9211 5.83265 11.894 5.96569 11.894 6.10011C11.894 6.23453 11.9211 6.36757 11.9737 6.49128C12.0262 6.61499 12.1032 6.72683 12.2 6.82011L17.2 11.8201C17.2933 11.9169 17.4051 11.9939 17.5288 12.0465C17.6525 12.099 17.7856 12.1261 17.92 12.1261C18.0544 12.1261 18.1875 12.099 18.3112 12.0465C18.4349 11.9939 18.5467 11.9169 18.64 11.8201L18.88 11.5801C18.9757 11.4863 19.0516 11.3743 19.1031 11.2506C19.1546 11.1269 19.1808 10.9941 19.18 10.8601C19.1821 10.7244 19.1566 10.5898 19.1051 10.4643C19.0535 10.3388 18.9769 10.2251 18.88 10.1301L13.88 5.13011C13.7854 5.03622 13.6729 4.9622 13.5493 4.9124C13.4256 4.8626 13.2933 4.83802 13.16 4.84011Z" fill="white"/>
<path d="M19.55 10.0001C19.2844 10.0016 19.0212 9.95024 18.7757 9.84894C18.5301 9.74765 18.3072 9.59846 18.12 9.41009L14.7 6.00009C14.5095 5.81383 14.3582 5.59138 14.2548 5.34582C14.1515 5.10025 14.0983 4.83651 14.0983 4.57009C14.0983 4.30367 14.1515 4.03993 14.2548 3.79436C14.3582 3.5488 14.5095 3.32635 14.7 3.14009L14.94 2.90009C15.1263 2.7096 15.3487 2.55824 15.5943 2.45491C15.8398 2.35157 16.1036 2.29834 16.37 2.29834C16.6364 2.29834 16.9002 2.35157 17.1457 2.45491C17.3913 2.55824 17.6137 2.7096 17.8 2.90009L21.22 6.32009C21.4105 6.50635 21.5619 6.7288 21.6652 6.97436C21.7685 7.21993 21.8218 7.48367 21.8218 7.75009C21.8218 8.01651 21.7685 8.28025 21.6652 8.52582C21.5619 8.77138 21.4105 8.99383 21.22 9.18009L21 9.37009C20.8138 9.56812 20.5892 9.72613 20.3399 9.83444C20.0906 9.94276 19.8218 9.99913 19.55 10.0001ZM16.37 3.30009C16.236 3.29931 16.1032 3.32546 15.9795 3.377C15.8559 3.42853 15.7438 3.5044 15.65 3.60009L15.41 3.84009C15.3117 3.93351 15.2334 4.04596 15.1799 4.1706C15.1263 4.29523 15.0988 4.42945 15.0988 4.56509C15.0988 4.70073 15.1263 4.83495 15.1799 4.95958C15.2334 5.08422 15.3117 5.19667 15.41 5.29009L18.83 8.70009C18.9233 8.79687 19.0351 8.87385 19.1588 8.92644C19.2825 8.97902 19.4156 9.00612 19.55 9.00612C19.6844 9.00612 19.8175 8.97902 19.9412 8.92644C20.0649 8.87385 20.1767 8.79687 20.27 8.70009L20.51 8.47009C20.6068 8.37681 20.6838 8.26497 20.7363 8.14126C20.7889 8.01755 20.816 7.88451 20.816 7.75009C20.816 7.61567 20.7889 7.48263 20.7363 7.35892C20.6838 7.23521 20.6068 7.12337 20.51 7.03009L17.1 3.56009C17.005 3.46318 16.8914 3.3866 16.7659 3.33503C16.6404 3.28345 16.5057 3.25796 16.37 3.26009V3.30009Z" fill="white"/>
<path d="M7.63 21.7401C7.3644 21.7416 7.10117 21.6902 6.85564 21.5889C6.61012 21.4876 6.38724 21.3384 6.2 21.1501L2.78 17.7301C2.5895 17.5438 2.43815 17.3214 2.33481 17.0758C2.23148 16.8302 2.17825 16.5665 2.17825 16.3001C2.17825 16.0336 2.23148 15.7699 2.33481 15.5243C2.43815 15.2788 2.5895 15.0563 2.78 14.8701L3 14.6301C3.18626 14.4396 3.4087 14.2882 3.65427 14.1849C3.89984 14.0816 4.16357 14.0283 4.43 14.0283C4.69642 14.0283 4.96016 14.0816 5.20572 14.1849C5.45129 14.2882 5.67373 14.4396 5.86 14.6301L9.3 18.0501C9.49049 18.2363 9.64185 18.4588 9.74518 18.7043C9.84852 18.9499 9.90175 19.2136 9.90175 19.4801C9.90175 19.7465 9.84852 20.0102 9.74518 20.2558C9.64185 20.5014 9.49049 20.7238 9.3 20.9101L9.06 21.1501C8.87276 21.3384 8.64987 21.4876 8.40435 21.5889C8.15883 21.6902 7.89559 21.7416 7.63 21.7401ZM4.45 15.0001C4.31601 14.9993 4.18323 15.0254 4.05954 15.077C3.93586 15.1285 3.82379 15.2044 3.73 15.3001L3.49 15.5301C3.29976 15.7257 3.1923 15.9872 3.19 16.2601C3.18921 16.3941 3.21537 16.5268 3.2669 16.6505C3.31844 16.7742 3.3943 16.8863 3.49 16.9801L6.9 20.4401C6.99342 20.5384 7.10587 20.6167 7.2305 20.6702C7.35514 20.7237 7.48936 20.7513 7.625 20.7513C7.76063 20.7513 7.89485 20.7237 8.01949 20.6702C8.14413 20.6167 8.25658 20.5384 8.35 20.4401L8.59 20.2001C8.68833 20.1067 8.76664 19.9942 8.82015 19.8696C8.87365 19.7449 8.90125 19.6107 8.90125 19.4751C8.90125 19.3394 8.87365 19.2052 8.82015 19.0806C8.76664 18.9559 8.68833 18.8435 8.59 18.7501L5.17 15.3401C5.07967 15.2371 4.96915 15.1538 4.8453 15.0953C4.72144 15.0368 4.5869 15.0044 4.45 15.0001Z" fill="white"/>
<path d="M10.78 16.0001C10.6495 16.0009 10.5239 15.9506 10.43 15.8601L8.21 13.5901C8.11839 13.4966 8.06707 13.371 8.06707 13.2401C8.06707 13.1092 8.11839 12.9835 8.21 12.8901L12.89 8.21008C12.9839 8.11954 13.1095 8.06929 13.24 8.07008C13.3705 8.06929 13.4961 8.11954 13.59 8.21008L15.81 10.4301C15.9022 10.5252 15.9538 10.6526 15.9538 10.7851C15.9538 10.9176 15.9022 11.0449 15.81 11.1401L11.13 15.8101C11.0878 15.864 11.0349 15.9087 10.9747 15.9414C10.9145 15.9741 10.8482 15.9941 10.78 16.0001ZM9.27 13.2401L10.78 14.7501L14.78 10.7501L13.24 9.27008L9.27 13.2401Z" fill="white"/>
</svg>
