<svg width="24" height="24" viewBox="0 0 24 24" fill="none" xmlns="http://www.w3.org/2000/svg">
<path d="M11.61 21.49C11.5446 21.4896 11.4799 21.4762 11.4198 21.4504C11.3597 21.4246 11.3054 21.3871 11.26 21.34L3.26 13.34C3.18963 13.2714 3.14151 13.1832 3.12189 13.0869C3.10227 12.9906 3.11207 12.8907 3.15 12.8C3.18751 12.7087 3.25121 12.6305 3.33307 12.5754C3.41493 12.5202 3.51129 12.4905 3.61 12.49H7.17V3C7.17 2.86739 7.22268 2.74021 7.31645 2.64645C7.41021 2.55268 7.53739 2.5 7.67 2.5H15.67C15.7357 2.5 15.8007 2.51293 15.8613 2.53806C15.922 2.56319 15.9771 2.60002 16.0236 2.64645C16.07 2.69288 16.1068 2.748 16.1319 2.80866C16.1571 2.86932 16.17 2.93434 16.17 3V12.5H19.61C19.7107 12.4971 19.8099 12.5253 19.894 12.5808C19.9781 12.6362 20.043 12.7163 20.08 12.81C20.1174 12.9024 20.1269 13.0037 20.1074 13.1015C20.0878 13.1992 20.0401 13.2891 19.97 13.36L11.97 21.36C11.8714 21.4484 11.7423 21.495 11.61 21.49ZM4.84 13.49L11.61 20.26L18.4 13.47H15.68C15.6123 13.4769 15.5439 13.4667 15.481 13.4405C15.4182 13.4144 15.3628 13.3729 15.32 13.32C15.2267 13.2271 15.1729 13.1017 15.17 12.97V3.51H8.17V13C8.17 13.1326 8.11732 13.2598 8.02355 13.3536C7.92978 13.4473 7.80261 13.5 7.67 13.5L4.84 13.49Z" fill="white"/>
</svg>
