<svg width="24" height="24" viewBox="0 0 24 24" fill="none" xmlns="http://www.w3.org/2000/svg">
<path d="M17.66 21.56H6.34002C5.31098 21.56 4.32409 21.1512 3.59645 20.4236C2.86881 19.6959 2.46002 18.709 2.46002 17.68V6.35998C2.46002 5.33094 2.86881 4.34405 3.59645 3.61641C4.32409 2.88877 5.31098 2.47998 6.34002 2.47998H17.66C18.6891 2.47998 19.676 2.88877 20.4036 3.61641C21.1312 4.34405 21.54 5.33094 21.54 6.35998V17.68C21.54 18.709 21.1312 19.6959 20.4036 20.4236C19.676 21.1512 18.6891 21.56 17.66 21.56ZM6.34002 3.47998C5.5762 3.47998 4.84366 3.78341 4.30355 4.32351C3.76345 4.86362 3.46002 5.59616 3.46002 6.35998V17.68C3.46002 18.4438 3.76345 19.1763 4.30355 19.7164C4.84366 20.2566 5.5762 20.56 6.34002 20.56H17.66C18.4238 20.56 19.1564 20.2566 19.6965 19.7164C20.2366 19.1763 20.54 18.4438 20.54 17.68V6.35998C20.54 5.59616 20.2366 4.86362 19.6965 4.32351C19.1564 3.78341 18.4238 3.47998 17.66 3.47998H6.34002Z" fill="white"/>
<path d="M15.76 16.39C15.6249 16.3897 15.4954 16.3358 15.4 16.24L7.76002 8.60004C7.71316 8.55356 7.67596 8.49826 7.65058 8.43733C7.62519 8.3764 7.61212 8.31105 7.61212 8.24504C7.61212 8.17904 7.62519 8.11368 7.65058 8.05276C7.67596 7.99183 7.71316 7.93653 7.76002 7.89004C7.80491 7.84221 7.85913 7.80409 7.91933 7.77803C7.97952 7.75197 8.04442 7.73853 8.11002 7.73853C8.17562 7.73853 8.24052 7.75197 8.30072 7.77803C8.36091 7.80409 8.41513 7.84221 8.46002 7.89004L16.11 15.54C16.1785 15.6099 16.225 15.6984 16.2438 15.7945C16.2625 15.8905 16.2526 15.99 16.2153 16.0805C16.1781 16.171 16.1151 16.2485 16.0341 16.3036C15.9532 16.3586 15.8579 16.3887 15.76 16.39Z" fill="white"/>
<path d="M8.18999 16.3099C8.05684 16.3092 7.92863 16.2593 7.82999 16.1699C7.73775 16.0747 7.68616 15.9474 7.68616 15.8149C7.68616 15.6824 7.73775 15.555 7.82999 15.4599L15.48 7.80989C15.5266 7.76327 15.582 7.72629 15.6429 7.70106C15.7038 7.67583 15.7691 7.66284 15.835 7.66284C15.9009 7.66284 15.9662 7.67583 16.0271 7.70106C16.088 7.72629 16.1434 7.76327 16.19 7.80989C16.2366 7.85651 16.2736 7.91185 16.2988 7.97276C16.3241 8.03367 16.337 8.09896 16.337 8.16489C16.337 8.23082 16.3241 8.2961 16.2988 8.35701C16.2736 8.41792 16.2366 8.47327 16.19 8.51989L8.53999 16.1699C8.44494 16.2587 8.32006 16.3086 8.18999 16.3099Z" fill="white"/>
</svg>
