<svg width="24" height="24" viewBox="0 0 24 24" fill="none" xmlns="http://www.w3.org/2000/svg">
<path d="M18.62 18.1H5.38C4.35269 18.1 3.36731 17.6926 2.63996 16.9671C1.9126 16.2417 1.50265 15.2573 1.5 14.23V5.77002C1.50265 4.74272 1.9126 3.75839 2.63996 3.03291C3.36731 2.30743 4.35269 1.90002 5.38 1.90002H18.62C19.6473 1.90002 20.6327 2.30743 21.36 3.03291C22.0874 3.75839 22.4974 4.74272 22.5 5.77002V14.23C22.4974 15.2573 22.0874 16.2417 21.36 16.9671C20.6327 17.6926 19.6473 18.1 18.62 18.1ZM5.38 2.90002C4.61791 2.90002 3.88688 3.20207 3.34706 3.74002C2.80724 4.27796 2.50265 5.00794 2.5 5.77002V14.23C2.50265 14.9921 2.80724 15.7221 3.34706 16.26C3.88688 16.798 4.61791 17.1 5.38 17.1H18.62C19.3821 17.1 20.1131 16.798 20.6529 16.26C21.1928 15.7221 21.4974 14.9921 21.5 14.23V5.77002C21.4974 5.00794 21.1928 4.27796 20.6529 3.74002C20.1131 3.20207 19.3821 2.90002 18.62 2.90002H5.38Z" fill="white"/>
<path d="M12 22.1C11.8674 22.1 11.7402 22.0473 11.6464 21.9535C11.5527 21.8598 11.5 21.7326 11.5 21.6V17.6C11.5 17.4674 11.5527 17.3402 11.6464 17.2464C11.7402 17.1527 11.8674 17.1 12 17.1C12.1326 17.1 12.2598 17.1527 12.3536 17.2464C12.4473 17.3402 12.5 17.4674 12.5 17.6V21.6C12.5 21.7326 12.4473 21.8598 12.3536 21.9535C12.2598 22.0473 12.1326 22.1 12 22.1Z" fill="white"/>
<path d="M18 22.1H6C5.86739 22.1 5.74021 22.0473 5.64645 21.9535C5.55268 21.8598 5.5 21.7326 5.5 21.6C5.5 21.4674 5.55268 21.3402 5.64645 21.2464C5.74021 21.1527 5.86739 21.1 6 21.1H18C18.1326 21.1 18.2598 21.1527 18.3536 21.2464C18.4473 21.3402 18.5 21.4674 18.5 21.6C18.5 21.7326 18.4473 21.8598 18.3536 21.9535C18.2598 22.0473 18.1326 22.1 18 22.1Z" fill="white"/>
</svg>
