<svg width="24" height="24" viewBox="0 0 24 24" fill="none" xmlns="http://www.w3.org/2000/svg">
<path d="M12 21.45C11.9116 21.4517 11.8246 21.4274 11.75 21.38L4 16.91C3.92431 16.864 3.86162 16.7994 3.81786 16.7224C3.77411 16.6454 3.75075 16.5585 3.75 16.47V7.52997C3.75075 7.44141 3.77411 7.3545 3.81786 7.2775C3.86162 7.2005 3.92431 7.13595 4 7.08997L11.75 2.61997C11.826 2.57608 11.9122 2.55298 12 2.55298C12.0878 2.55298 12.174 2.57608 12.25 2.61997L20 7.08997C20.0757 7.13595 20.1384 7.2005 20.1821 7.2775C20.2259 7.3545 20.2492 7.44141 20.25 7.52997V16.47C20.2492 16.5585 20.2259 16.6454 20.1821 16.7224C20.1384 16.7994 20.0757 16.864 20 16.91L12.25 21.38C12.1754 21.4274 12.0884 21.4517 12 21.45ZM4.75 16.19L12 20.37L19.25 16.19V7.80997L12 3.62997L4.75 7.80997V16.19Z" fill="white"/>
</svg>
