<svg width="24" height="24" viewBox="0 0 24 24" fill="none" xmlns="http://www.w3.org/2000/svg">
<path d="M12 12.9399C11.8674 12.9399 11.7402 12.8872 11.6464 12.7934C11.5527 12.6997 11.5 12.5725 11.5 12.4399V6.88989C11.5 6.75728 11.5527 6.63011 11.6464 6.53634C11.7402 6.44257 11.8674 6.38989 12 6.38989C12.1326 6.38989 12.2598 6.44257 12.3536 6.53634C12.4473 6.63011 12.5 6.75728 12.5 6.88989V12.4399C12.5 12.5725 12.4473 12.6997 12.3536 12.7934C12.2598 12.8872 12.1326 12.9399 12 12.9399Z" fill="white"/>
<path d="M14.77 10.1699H9.23001C9.0974 10.1699 8.97023 10.1172 8.87646 10.0235C8.78269 9.92971 8.73001 9.80253 8.73001 9.66992C8.73001 9.53731 8.78269 9.41014 8.87646 9.31637C8.97023 9.2226 9.0974 9.16992 9.23001 9.16992H14.77C14.9026 9.16992 15.0298 9.2226 15.1236 9.31637C15.2173 9.41014 15.27 9.53731 15.27 9.66992C15.27 9.80253 15.2173 9.92971 15.1236 10.0235C15.0298 10.1172 14.9026 10.1699 14.77 10.1699Z" fill="white"/>
<path d="M19.43 21.78C19.3232 21.7809 19.2187 21.7495 19.13 21.69L12 16.42L4.87001 21.69C4.79206 21.7388 4.70196 21.7646 4.61001 21.7646C4.51805 21.7646 4.42795 21.7388 4.35001 21.69C4.26586 21.6487 4.19499 21.5847 4.14548 21.5051C4.09597 21.4256 4.06982 21.3337 4.07001 21.24V5.58997C4.07266 4.69527 4.42993 3.83812 5.06352 3.20641C5.6971 2.5747 6.55531 2.21997 7.45001 2.21997H16.55C17.4447 2.21997 18.3029 2.5747 18.9365 3.20641C19.5701 3.83812 19.9274 4.69527 19.93 5.58997V21.28C19.9302 21.3737 19.904 21.4656 19.8545 21.5451C19.805 21.6247 19.7342 21.6887 19.65 21.73C19.5823 21.7655 19.5064 21.7827 19.43 21.78ZM12 15.29C12.1074 15.2943 12.2114 15.329 12.3 15.39L18.93 20.29V5.58997C18.9274 4.96049 18.6754 4.35769 18.2294 3.91352C17.7833 3.46934 17.1795 3.21997 16.55 3.21997H7.45001C6.82052 3.21997 6.21667 3.46934 5.77062 3.91352C5.32457 4.35769 5.07265 4.96049 5.07001 5.58997V20.29L11.7 15.39C11.7886 15.329 11.8926 15.2943 12 15.29Z" fill="white"/>
</svg>
