<svg width="24" height="24" viewBox="0 0 24 24" fill="none" xmlns="http://www.w3.org/2000/svg">
<path d="M12 12.5H6.36C6.22739 12.5 6.10022 12.4473 6.00645 12.3536C5.91268 12.2598 5.86 12.1326 5.86 12V6.52002C5.86 6.38741 5.91268 6.26023 6.00645 6.16647C6.10022 6.0727 6.22739 6.02002 6.36 6.02002H12C12.1326 6.02002 12.2598 6.0727 12.3536 6.16647C12.4473 6.26023 12.5 6.38741 12.5 6.52002V12C12.5 12.1326 12.4473 12.2598 12.3536 12.3536C12.2598 12.4473 12.1326 12.5 12 12.5ZM6.86 11.5H11.5V7.00002H6.86V11.5Z" fill="white"/>
<path d="M17.64 12.5H12C11.8674 12.5 11.7402 12.4473 11.6464 12.3536C11.5527 12.2598 11.5 12.1326 11.5 12V6.52C11.4973 6.45268 11.5082 6.3855 11.5322 6.32251C11.5561 6.25952 11.5925 6.20201 11.6392 6.15345C11.6859 6.10488 11.7419 6.06625 11.8039 6.03988C11.8659 6.01351 11.9326 5.99995 12 6H17.64C17.7726 6 17.8998 6.05268 17.9936 6.14645C18.0873 6.24022 18.14 6.36739 18.14 6.5V12C18.14 12.1326 18.0873 12.2598 17.9936 12.3536C17.8998 12.4473 17.7726 12.5 17.64 12.5ZM12.5 11.5H17.14V7H12.5V11.5Z" fill="white"/>
<path d="M17.64 18H12C11.8674 18 11.7402 17.9473 11.6464 17.8536C11.5527 17.7598 11.5 17.6326 11.5 17.5V12C11.5 11.8674 11.5527 11.7402 11.6464 11.6464C11.7402 11.5527 11.8674 11.5 12 11.5H17.64C17.7726 11.5 17.8998 11.5527 17.9936 11.6464C18.0873 11.7402 18.14 11.8674 18.14 12V17.48C18.1427 17.5473 18.1318 17.6145 18.1078 17.6775C18.0839 17.7405 18.0475 17.798 18.0008 17.8466C17.9541 17.8951 17.8981 17.9338 17.8361 17.9601C17.7741 17.9865 17.7074 18.0001 17.64 18ZM12.5 17H17.14V12.5H12.5V17Z" fill="white"/>
</svg>
