<svg width="24" height="24" viewBox="0 0 24 24" fill="none" xmlns="http://www.w3.org/2000/svg">
<path d="M9.18 12.5H3.53C3.46186 12.5041 3.3936 12.4942 3.32943 12.4709C3.26526 12.4476 3.20654 12.4115 3.15689 12.3646C3.10724 12.3178 3.0677 12.2613 3.04072 12.1986C3.01373 12.1358 2.99988 12.0683 3 12V6.52002C3 6.38741 3.05268 6.26023 3.14645 6.16647C3.24022 6.0727 3.36739 6.02002 3.5 6.02002H9.18C9.31261 6.02002 9.43979 6.0727 9.53355 6.16647C9.62732 6.26023 9.68 6.38741 9.68 6.52002V12C9.68 12.1326 9.62732 12.2598 9.53355 12.3536C9.43979 12.4473 9.31261 12.5 9.18 12.5ZM4 11.5H8.68V7.00002H4V11.5Z" fill="white"/>
<path d="M14.82 12.5H9.17999C9.04738 12.5 8.92021 12.4473 8.82644 12.3536C8.73267 12.2598 8.67999 12.1326 8.67999 12V6.52002C8.67999 6.38741 8.73267 6.26023 8.82644 6.16647C8.92021 6.0727 9.04738 6.02002 9.17999 6.02002H14.82C14.9526 6.02002 15.0798 6.0727 15.1735 6.16647C15.2673 6.26023 15.32 6.38741 15.32 6.52002V12C15.32 12.1326 15.2673 12.2598 15.1735 12.3536C15.0798 12.4473 14.9526 12.5 14.82 12.5ZM9.67999 11.5H14.32V7.00002H9.67999V11.5Z" fill="white"/>
<path d="M20.47 12.5H14.82C14.6874 12.5 14.5602 12.4473 14.4665 12.3536C14.3727 12.2598 14.32 12.1326 14.32 12V6.52002C14.32 6.38741 14.3727 6.26023 14.4665 6.16647C14.5602 6.0727 14.6874 6.02002 14.82 6.02002H20.47C20.6026 6.02002 20.7298 6.0727 20.8236 6.16647C20.9173 6.26023 20.97 6.38741 20.97 6.52002V12C20.97 12.1326 20.9173 12.2598 20.8236 12.3536C20.7298 12.4473 20.6026 12.5 20.47 12.5ZM15.32 11.5H20V7.00002H15.32V11.5Z" fill="white"/>
<path d="M9.18003 18H3.53003C3.39742 18 3.27024 17.9473 3.17648 17.8536C3.08271 17.7598 3.03003 17.6326 3.03003 17.5V12C3.03003 11.8674 3.08271 11.7402 3.17648 11.6464C3.27024 11.5527 3.39742 11.5 3.53003 11.5H9.18003C9.31264 11.5 9.43981 11.5527 9.53358 11.6464C9.62735 11.7402 9.68003 11.8674 9.68003 12V17.48C9.68272 17.5473 9.67178 17.6145 9.64787 17.6775C9.62395 17.7405 9.58755 17.798 9.54085 17.8466C9.49415 17.8951 9.43811 17.9338 9.37611 17.9601C9.3141 17.9865 9.24741 18.0001 9.18003 18ZM4.00003 17H8.68003V12.5H4.00003V17Z" fill="white"/>
</svg>
