<svg width="24" height="24" viewBox="0 0 24 24" fill="none" xmlns="http://www.w3.org/2000/svg">
<path d="M18.79 11.57C18.7237 11.5717 18.6577 11.5602 18.5959 11.5362C18.5341 11.5121 18.4777 11.476 18.43 11.43L13.23 6.21999C13.1831 6.17351 13.1459 6.11821 13.1205 6.05728C13.0952 5.99635 13.0821 5.931 13.0821 5.86499C13.0821 5.79899 13.0952 5.73364 13.1205 5.67271C13.1459 5.61178 13.1831 5.55648 13.23 5.50999C13.3235 5.41838 13.4491 5.36707 13.58 5.36707C13.7109 5.36707 13.8365 5.41838 13.93 5.50999L19.14 10.72C19.2322 10.8151 19.2838 10.9425 19.2838 11.075C19.2838 11.2075 19.2322 11.3348 19.14 11.43C19.0938 11.4753 19.0391 11.511 18.979 11.535C18.9189 11.559 18.8547 11.5709 18.79 11.57Z" fill="white"/>
<path d="M13.63 11.52C13.4999 11.5188 13.375 11.4688 13.28 11.38C13.2331 11.3335 13.1959 11.2782 13.1705 11.2173C13.1451 11.1564 13.1321 11.091 13.1321 11.025C13.1321 10.959 13.1451 10.8936 13.1705 10.8327C13.1959 10.7718 13.2331 10.7165 13.28 10.67L18.48 5.46C18.5751 5.36775 18.7025 5.31616 18.835 5.31616C18.9675 5.31616 19.0948 5.36775 19.19 5.46C19.2368 5.50648 19.274 5.56178 19.2994 5.62271C19.3248 5.68364 19.3379 5.74899 19.3379 5.815C19.3379 5.88101 19.3248 5.94636 19.2994 6.00729C19.274 6.06822 19.2368 6.12352 19.19 6.17L14 11.38C13.8988 11.4718 13.7666 11.5218 13.63 11.52Z" fill="white"/>
<path d="M7.78997 11.55C7.17092 11.55 6.56577 11.3665 6.05104 11.0225C5.53631 10.6786 5.13513 10.1898 4.89823 9.61784C4.66133 9.04591 4.59934 8.41657 4.72012 7.80941C4.84089 7.20225 5.13899 6.64453 5.57673 6.2068C6.01447 5.76906 6.57218 5.47095 7.17934 5.35018C7.7865 5.22941 8.41584 5.2914 8.98777 5.5283C9.55971 5.7652 10.0485 6.16638 10.3925 6.68111C10.7364 7.19583 10.92 7.80099 10.92 8.42004C10.9173 9.24936 10.5867 10.044 10.0003 10.6304C9.41389 11.2168 8.61929 11.5474 7.78997 11.55ZM7.78997 6.29004C7.3687 6.29004 6.95689 6.41496 6.60661 6.64901C6.25633 6.88306 5.98333 7.21572 5.82211 7.60492C5.6609 7.99413 5.61872 8.4224 5.7009 8.83558C5.78309 9.24876 5.98595 9.62829 6.28384 9.92618C6.58172 10.2241 6.96125 10.4269 7.37443 10.5091C7.78761 10.5913 8.21588 10.5491 8.60509 10.3879C8.9943 10.2267 9.32696 9.95368 9.56101 9.60341C9.79505 9.25313 9.91997 8.84131 9.91997 8.42004C9.91997 7.85513 9.69557 7.31336 9.29611 6.9139C8.89666 6.51445 8.35489 6.29004 7.78997 6.29004Z" fill="white"/>
<path d="M7.78997 19.75C7.17092 19.75 6.56577 19.5664 6.05104 19.2225C5.53631 18.8786 5.13513 18.3897 4.89823 17.8178C4.66133 17.2459 4.59934 16.6165 4.72012 16.0094C4.84089 15.4022 5.13899 14.8445 5.57673 14.4067C6.01447 13.969 6.57218 13.6709 7.17934 13.5501C7.7865 13.4294 8.41584 13.4913 8.98777 13.7282C9.55971 13.9652 10.0485 14.3663 10.3925 14.8811C10.7364 15.3958 10.92 16.0009 10.92 16.62C10.92 17.4501 10.5902 18.2462 10.0032 18.8332C9.41623 19.4202 8.6201 19.75 7.78997 19.75ZM7.78997 14.49C7.3687 14.49 6.95689 14.6149 6.60661 14.849C6.25633 15.083 5.98333 15.4157 5.82211 15.8049C5.6609 16.1941 5.61872 16.6224 5.7009 17.0355C5.78309 17.4487 5.98595 17.8282 6.28384 18.1261C6.58172 18.424 6.96125 18.6269 7.37443 18.7091C7.78761 18.7913 8.21588 18.7491 8.60509 18.5879C8.9943 18.4266 9.32696 18.1536 9.56101 17.8034C9.79505 17.4531 9.91997 17.0413 9.91997 16.62C9.91735 16.0559 9.69209 15.5156 9.29321 15.1168C8.89432 14.7179 8.35408 14.4926 7.78997 14.49Z" fill="white"/>
<path d="M16.21 19.75C15.5909 19.75 14.9857 19.5664 14.471 19.2225C13.9563 18.8786 13.5551 18.3897 13.3182 17.8178C13.0813 17.2459 13.0193 16.6165 13.1401 16.0094C13.2609 15.4022 13.559 14.8445 13.9967 14.4067C14.4345 13.969 14.9922 13.6709 15.5993 13.5501C16.2065 13.4294 16.8358 13.4913 17.4078 13.7282C17.9797 13.9652 18.4685 14.3663 18.8125 14.8811C19.1564 15.3958 19.34 16.0009 19.34 16.62C19.34 17.4501 19.0102 18.2462 18.4232 18.8332C17.8362 19.4202 17.0401 19.75 16.21 19.75ZM16.21 14.49C15.7887 14.49 15.3769 14.6149 15.0266 14.849C14.6763 15.083 14.4033 15.4157 14.2421 15.8049C14.0809 16.1941 14.0387 16.6224 14.1209 17.0355C14.2031 17.4487 14.4059 17.8282 14.7038 18.1261C15.0017 18.424 15.3812 18.6269 15.7944 18.7091C16.2076 18.7913 16.6359 18.7491 17.0251 18.5879C17.4143 18.4266 17.7469 18.1536 17.981 17.8034C18.215 17.4531 18.34 17.0413 18.34 16.62C18.34 16.0551 18.1155 15.5133 17.7161 15.1139C17.3166 14.7144 16.7749 14.49 16.21 14.49Z" fill="white"/>
</svg>
