<svg width="24" height="24" viewBox="0 0 24 24" fill="none" xmlns="http://www.w3.org/2000/svg">
<path d="M12 22.56C3.55001 22.56 3.45001 14.14 3.45001 14.06V6.00002C3.45003 5.9038 3.47727 5.80955 3.52859 5.72815C3.57991 5.64675 3.6532 5.58153 3.74001 5.54002L11.79 1.77002C11.8547 1.73587 11.9268 1.71802 12 1.71802C12.0732 1.71802 12.1453 1.73587 12.21 1.77002L20.26 5.54002C20.3468 5.58153 20.4201 5.64675 20.4714 5.72815C20.5227 5.80955 20.55 5.9038 20.55 6.00002V14.09C20.57 14.14 20.47 22.56 12 22.56ZM4.47001 6.28002V14.06C4.47001 14.36 4.58001 21.56 12.02 21.56C19.46 21.56 19.57 14.36 19.57 14.06V6.28002L12 2.74002L4.47001 6.28002Z" fill="white"/>
<path d="M4.42004 16.7901C4.2849 16.7898 4.15542 16.7358 4.06004 16.6401C3.96779 16.5449 3.9162 16.4176 3.9162 16.2851C3.9162 16.1526 3.96779 16.0252 4.06004 15.9301L16.06 3.93008C16.1049 3.88225 16.1591 3.84413 16.2193 3.81807C16.2795 3.79201 16.3444 3.77856 16.41 3.77856C16.4756 3.77856 16.5405 3.79201 16.6007 3.81807C16.6609 3.84413 16.7151 3.88225 16.76 3.93008C16.8069 3.97656 16.8441 4.03187 16.8695 4.0928C16.8949 4.15372 16.9079 4.21908 16.9079 4.28508C16.9079 4.35109 16.8949 4.41644 16.8695 4.47737C16.8441 4.5383 16.8069 4.5936 16.76 4.64008L4.76004 16.6401C4.67018 16.7319 4.54843 16.7856 4.42004 16.7901Z" fill="white"/>
<path d="M7.13004 21.1701C7.06318 21.1672 6.99764 21.1506 6.93744 21.1213C6.87725 21.0921 6.82368 21.0508 6.78004 21.0001C6.73318 20.9536 6.69598 20.8983 6.67059 20.8374C6.64521 20.7765 6.63214 20.7111 6.63214 20.6451C6.63214 20.5791 6.64521 20.5137 6.67059 20.4528C6.69598 20.3919 6.73318 20.3366 6.78004 20.2901L19.69 7.4001C19.7365 7.35323 19.7918 7.31604 19.8528 7.29065C19.9137 7.26527 19.979 7.2522 20.045 7.2522C20.111 7.2522 20.1764 7.26527 20.2373 7.29065C20.2983 7.31604 20.3536 7.35323 20.4 7.4001C20.4479 7.44499 20.486 7.4992 20.5121 7.5594C20.5381 7.6196 20.5516 7.6845 20.5516 7.7501C20.5516 7.81569 20.5381 7.88059 20.5121 7.94079C20.486 8.00099 20.4479 8.05521 20.4 8.1001L7.49004 21.0001C7.4445 21.0511 7.38916 21.0925 7.32731 21.1217C7.26547 21.1509 7.19838 21.1673 7.13004 21.1701Z" fill="white"/>
</svg>
