<svg width="24" height="24" viewBox="0 0 24 24" fill="none" xmlns="http://www.w3.org/2000/svg">
<path d="M17.93 17.87C16.9198 17.868 15.9328 17.5667 15.0938 17.004C14.2548 16.4413 13.6013 15.6425 13.2161 14.7086C12.8309 13.7747 12.7311 12.7476 12.9294 11.757C13.1277 10.7664 13.6152 9.85683 14.3302 9.14318C15.0453 8.42953 15.9558 7.94385 16.9468 7.74748C17.9377 7.55112 18.9647 7.6529 19.8978 8.03996C20.831 8.42701 21.6284 9.08198 22.1895 9.9221C22.7506 10.7622 23.05 11.7498 23.05 12.76C23.05 13.4319 22.9175 14.0972 22.6601 14.7178C22.4026 15.3385 22.0254 15.9022 21.5498 16.3769C21.0742 16.8515 20.5097 17.2277 19.8886 17.4839C19.2675 17.7401 18.6019 17.8713 17.93 17.87ZM17.93 8.65002C17.1176 8.65199 16.3239 8.89472 15.6493 9.34753C14.9748 9.80035 14.4495 10.4429 14.14 11.1941C13.8305 11.9453 13.7505 12.7713 13.9102 13.568C14.0699 14.3646 14.4621 15.0959 15.0373 15.6697C15.6125 16.2435 16.3449 16.634 17.1419 16.7918C17.9388 16.9495 18.7647 16.8676 19.5151 16.5562C20.2656 16.2448 20.9069 15.718 21.358 15.0424C21.8092 14.3667 22.05 13.5725 22.05 12.76C22.0474 11.6691 21.6121 10.6237 20.8398 9.8532C20.0674 9.08271 19.021 8.65001 17.93 8.65002Z" fill="white"/>
<path d="M17 15.5801C16.9194 15.5806 16.8401 15.5599 16.77 15.5201C16.6878 15.4801 16.6186 15.4174 16.5708 15.3394C16.523 15.2615 16.4984 15.1715 16.5 15.0801V10.6701C16.4989 10.5774 16.5235 10.4862 16.5712 10.4068C16.6189 10.3273 16.6877 10.2627 16.77 10.2201C16.8487 10.1734 16.9385 10.1488 17.03 10.1488C17.1215 10.1488 17.2113 10.1734 17.29 10.2201L20.44 12.4201C20.5072 12.4654 20.5623 12.5265 20.6006 12.5979C20.6389 12.6693 20.6593 12.749 20.66 12.8301C20.6611 12.9114 20.6415 12.9918 20.603 13.0635C20.5645 13.1352 20.5084 13.196 20.44 13.2401L17.29 15.4501C17.2093 15.5226 17.1079 15.568 17 15.5801ZM17.5 11.6301V14.1201L19.29 12.8701L17.5 11.6301Z" fill="white"/>
<path d="M14.94 22.48H8.94C8.0152 22.48 7.12798 22.114 6.47217 21.462C5.81637 20.8099 5.44529 19.9248 5.44 19V5C5.44 4.07174 5.80875 3.1815 6.46513 2.52513C6.79013 2.20012 7.17597 1.94231 7.60061 1.76642C8.02525 1.59053 8.48038 1.5 8.94 1.5H14.94C15.8683 1.5 16.7585 1.86875 17.4149 2.52513C18.0713 3.1815 18.44 4.07174 18.44 5V8.14C18.44 8.27261 18.3873 8.39979 18.2936 8.49355C18.1998 8.58732 18.0726 8.64 17.94 8.64C17.8074 8.64 17.6802 8.58732 17.5864 8.49355C17.4927 8.39979 17.44 8.27261 17.44 8.14V5C17.44 4.33696 17.1766 3.70107 16.7078 3.23223C16.2389 2.76339 15.603 2.5 14.94 2.5H8.94C8.27696 2.5 7.64108 2.76339 7.17224 3.23223C6.70339 3.70107 6.44 4.33696 6.44 5V19C6.44 19.663 6.70339 20.2989 7.17224 20.7678C7.64108 21.2366 8.27696 21.5 8.94 21.5H14.94C15.603 21.5 16.2389 21.2366 16.7078 20.7678C17.1766 20.2989 17.44 19.663 17.44 19V17.37C17.44 17.2374 17.4927 17.1102 17.5864 17.0164C17.6802 16.9227 17.8074 16.87 17.94 16.87C18.0718 16.8726 18.1975 16.9261 18.2907 17.0193C18.3839 17.1125 18.4374 17.2382 18.44 17.37V19C18.4347 19.9248 18.0636 20.8099 17.4078 21.462C16.752 22.114 15.8648 22.48 14.94 22.48Z" fill="white"/>
<path d="M11.94 19.48C11.8775 19.4948 11.8125 19.4948 11.75 19.48C11.6857 19.4567 11.6276 19.4191 11.58 19.37C11.5355 19.3245 11.5014 19.2699 11.48 19.21C11.4651 19.1475 11.4651 19.0824 11.48 19.02C11.4792 18.8895 11.5295 18.7639 11.62 18.67C11.6911 18.6027 11.7801 18.5573 11.8764 18.5393C11.9726 18.5212 12.072 18.5312 12.1627 18.5681C12.2533 18.605 12.3315 18.6673 12.3878 18.7474C12.444 18.8275 12.4761 18.9221 12.48 19.02C12.4904 19.0829 12.4904 19.1471 12.48 19.21C12.4551 19.2705 12.4176 19.3251 12.37 19.37C12.3129 19.4223 12.2438 19.4597 12.1688 19.4789C12.0938 19.4981 12.0152 19.4985 11.94 19.48Z" fill="white"/>
</svg>
