<svg width="24" height="24" viewBox="0 0 24 24" fill="none" xmlns="http://www.w3.org/2000/svg">
<path d="M7 19.3799C6.07428 19.3773 5.18707 19.009 4.53155 18.3554C3.87603 17.7017 3.50527 16.8156 3.5 15.8899V13.3899C3.49997 13.2563 3.55233 13.1281 3.64582 13.0327C3.73931 12.9374 3.86648 12.8825 4 12.8799C4.13181 12.8824 4.2575 12.9359 4.35072 13.0292C4.44394 13.1224 4.49744 13.2481 4.5 13.3799V15.8799C4.50263 16.5421 4.76687 17.1765 5.23514 17.6447C5.70341 18.113 6.33777 18.3772 7 18.3799H17C17.3282 18.3812 17.6534 18.3174 17.9568 18.1921C18.2601 18.0668 18.5356 17.8826 18.7672 17.65C18.9988 17.4175 19.182 17.1413 19.3061 16.8374C19.4301 16.5335 19.4926 16.2081 19.49 15.8799V13.3799C19.49 13.2473 19.5427 13.1201 19.6364 13.0263C19.7302 12.9326 19.8574 12.8799 19.99 12.8799C20.1209 12.8799 20.2466 12.9312 20.3401 13.0228C20.4336 13.1144 20.4874 13.239 20.49 13.3699V15.8699C20.4847 16.7929 20.115 17.6765 19.4614 18.3283C18.8077 18.9801 17.9231 19.3473 17 19.3499H7V19.3799Z" fill="white"/>
<path d="M12 15.8699C11.8682 15.8673 11.7425 15.8138 11.6493 15.7206C11.5561 15.6274 11.5026 15.5017 11.5 15.3699V6.36987C11.5 6.23726 11.5527 6.11009 11.6464 6.01632C11.7402 5.92255 11.8674 5.86987 12 5.86987C12.1309 5.86985 12.2566 5.92115 12.3501 6.01277C12.4436 6.10438 12.4974 6.22901 12.5 6.35987V15.3599C12.5 15.4934 12.4477 15.6216 12.3542 15.717C12.2607 15.8124 12.1335 15.8673 12 15.8699Z" fill="white"/>
<path d="M7.73999 9.87997C7.60811 9.87809 7.48231 9.82418 7.38999 9.72997C7.29774 9.63482 7.24615 9.5075 7.24615 9.37497C7.24615 9.24244 7.29774 9.11512 7.38999 9.01997L11.62 4.76997C11.6665 4.72311 11.7218 4.68591 11.7827 4.66052C11.8436 4.63514 11.909 4.62207 11.975 4.62207C12.041 4.62207 12.1064 4.63514 12.1673 4.66052C12.2282 4.68591 12.2835 4.72311 12.33 4.76997L16.58 8.99997C16.6269 9.04645 16.6641 9.10175 16.6894 9.16268C16.7148 9.22361 16.7279 9.28896 16.7279 9.35497C16.7279 9.42097 16.7148 9.48633 16.6894 9.54726C16.6641 9.60819 16.6269 9.66349 16.58 9.70997C16.4865 9.80158 16.3609 9.8529 16.23 9.8529C16.0991 9.8529 15.9735 9.80158 15.88 9.70997L12 5.82997L8.09999 9.72997C8.0046 9.82569 7.87513 9.87964 7.73999 9.87997Z" fill="white"/>
</svg>
