<svg width="24" height="24" viewBox="0 0 24 24" fill="none" xmlns="http://www.w3.org/2000/svg">
<path d="M9.50001 8.37991C9.36835 8.37698 9.24294 8.32323 9.15001 8.22991C9.10121 8.18375 9.06264 8.12785 9.0368 8.06584C9.01096 8.00382 8.99843 7.93708 9.00001 7.86991C8.99921 7.80434 9.01214 7.73932 9.03798 7.67904C9.06381 7.61877 9.10197 7.56456 9.15001 7.51991C9.24466 7.43061 9.36988 7.38086 9.50001 7.38086C9.63015 7.38086 9.75536 7.43061 9.85001 7.51991C9.89711 7.56529 9.93464 7.61964 9.9604 7.67975C9.98616 7.73986 9.99963 7.80452 10 7.86991C10.0016 7.93708 9.98906 8.00382 9.96322 8.06584C9.93738 8.12785 9.89881 8.18375 9.85001 8.22991C9.75709 8.32323 9.63167 8.37698 9.50001 8.37991Z" fill="white"/>
<path d="M12.91 8.37992C12.7753 8.37749 12.6466 8.32385 12.55 8.22992C12.4595 8.13598 12.4092 8.01038 12.41 7.87992C12.4077 7.7462 12.458 7.61692 12.55 7.51992C12.6463 7.42993 12.7732 7.37988 12.905 7.37988C13.0368 7.37988 13.1637 7.42993 13.26 7.51992C13.3557 7.6153 13.4097 7.74478 13.41 7.87992C13.4075 8.01172 13.354 8.13742 13.2607 8.23064C13.1675 8.32386 13.0418 8.37736 12.91 8.37992Z" fill="white"/>
<path d="M11.34 10.59C11.2771 10.5996 11.213 10.5996 11.15 10.59C11.0929 10.5591 11.0393 10.5222 10.99 10.48C10.8977 10.3823 10.8444 10.2543 10.84 10.12C10.84 10.0491 10.8541 9.97903 10.8816 9.91376C10.909 9.84849 10.9493 9.7894 11 9.73996C11.0467 9.69441 11.1008 9.6572 11.16 9.62996C11.2528 9.59501 11.3535 9.58679 11.4508 9.60624C11.548 9.62568 11.6378 9.67201 11.71 9.73996C11.7988 9.83501 11.8488 9.95989 11.85 10.09C11.8529 10.1564 11.8419 10.2227 11.8177 10.2846C11.7936 10.3465 11.7569 10.4028 11.7099 10.4498C11.6629 10.4968 11.6066 10.5335 11.5447 10.5577C11.4827 10.5818 11.4164 10.5928 11.35 10.59H11.34Z" fill="white"/>
<path d="M11.81 21.5C9.93152 21.498 8.09577 20.9392 6.53482 19.8941C4.97387 18.849 3.75779 17.3646 3.04029 15.6286C2.32279 13.8925 2.13608 11.9827 2.50377 10.1405C2.87146 8.29836 3.77704 6.60656 5.10603 5.27896C6.43503 3.95136 8.12778 3.04756 9.97033 2.68181C11.8129 2.31606 13.7225 2.50478 15.4578 3.2241C17.1931 3.94343 18.6762 5.16107 19.7197 6.72312C20.7631 8.28517 21.32 10.1215 21.32 12C21.3147 14.5197 20.3108 16.9345 18.5281 18.7152C16.7455 20.4959 14.3297 21.4974 11.81 21.5ZM11.81 3.5C10.1293 3.50198 8.48689 4.00217 7.09039 4.93737C5.69389 5.87256 4.60598 7.20077 3.96417 8.75411C3.32236 10.3075 3.15545 12.0162 3.48456 13.6644C3.81366 15.3126 4.62399 16.8262 5.81314 18.0139C7.00228 19.2017 8.51685 20.0102 10.1654 20.3374C11.814 20.6646 13.5225 20.4957 15.0751 19.852C16.6277 19.2084 17.9546 18.1189 18.8882 16.7213C19.8217 15.3237 20.32 13.6807 20.32 12C20.3174 9.74474 19.4196 7.58276 17.824 5.98898C16.2283 4.39521 14.0653 3.5 11.81 3.5Z" fill="white"/>
</svg>
