<svg width="24" height="24" viewBox="0 0 24 24" fill="none" xmlns="http://www.w3.org/2000/svg">
<path d="M12 21.4501C11.9194 21.4506 11.8401 21.4299 11.77 21.3901C11.46 21.2301 4.14 17.3401 2.62 12.1401C1.75 9.14007 2.04 6.36007 3.38 4.57007C3.86267 3.92557 4.49385 3.40717 5.21986 3.05896C5.94588 2.71075 6.74525 2.54303 7.55 2.57007C8.49501 2.52869 9.42973 2.78029 10.2263 3.29044C11.0228 3.80059 11.6423 4.54439 12 5.42007C12.3625 4.54999 12.984 3.81259 13.7801 3.30806C14.5763 2.80354 15.5085 2.55634 16.45 2.60007C17.2547 2.57303 18.0541 2.74075 18.7801 3.08896C19.5062 3.43717 20.1373 3.95557 20.62 4.60007C21.96 6.39007 22.25 9.22007 21.38 12.1701C19.86 17.3701 12.54 21.2601 12.23 21.4201C12.1572 21.4496 12.078 21.4599 12 21.4501ZM7.55 3.60007C6.90315 3.56942 6.25852 3.69629 5.67152 3.96976C5.08451 4.24323 4.57268 4.65513 4.18 5.17007C3.03 6.71007 2.8 9.17007 3.58 11.8601C4.84 16.1601 10.75 19.6701 12 20.3801C13.25 19.6701 19.16 16.1501 20.42 11.8601C21.2 9.21007 20.97 6.71007 19.82 5.17007C19.4273 4.65513 18.9155 4.24323 18.3285 3.96976C17.7415 3.69629 17.0969 3.56942 16.45 3.60007C12.73 3.60007 12.51 7.36007 12.5 7.52007C12.5 7.65268 12.4473 7.77985 12.3536 7.87362C12.2598 7.96739 12.1326 8.02007 12 8.02007C11.8674 8.02007 11.7402 7.96739 11.6464 7.87362C11.5527 7.77985 11.5 7.65268 11.5 7.52007C11.49 7.36007 11.27 3.60007 7.55 3.60007Z" fill="white"/>
<path d="M12 15.3801C11.8674 15.3801 11.7402 15.3274 11.6464 15.2337C11.5527 15.1399 11.5 15.0127 11.5 14.8801V12.3301L7.77999 10.5101C7.70305 10.4665 7.63904 10.4032 7.59451 10.3268C7.54998 10.2504 7.52652 10.1635 7.52652 10.0751C7.52652 9.98665 7.54998 9.89979 7.59451 9.82337C7.63904 9.74695 7.70305 9.68371 7.77999 9.6401L11.78 7.0801C11.8912 7.01666 12.0225 6.9983 12.1468 7.0288C12.2712 7.0593 12.3791 7.13633 12.4483 7.24403C12.5176 7.35172 12.5428 7.48187 12.519 7.60765C12.4951 7.73343 12.4239 7.84526 12.32 7.9201L8.99999 10.0001L12.2 11.5701C12.2834 11.6122 12.3537 11.6765 12.403 11.7559C12.4524 11.8352 12.479 11.9266 12.48 12.0201V14.8801C12.4801 15.0093 12.4302 15.1336 12.3407 15.2268C12.2512 15.32 12.1291 15.3749 12 15.3801Z" fill="white"/>
</svg>
