<svg width="24" height="24" viewBox="0 0 24 24" fill="none" xmlns="http://www.w3.org/2000/svg">
<path d="M16.21 18H7.78999C6.19869 18 4.67257 17.3679 3.54735 16.2426C2.42213 15.1174 1.78999 13.5913 1.78999 12C1.78999 10.4087 2.42213 8.88258 3.54735 7.75736C4.67257 6.63214 6.19869 6 7.78999 6H16.21C17.8013 6 19.3274 6.63214 20.4526 7.75736C21.5779 8.88258 22.21 10.4087 22.21 12C22.21 13.5913 21.5779 15.1174 20.4526 16.2426C19.3274 17.3679 17.8013 18 16.21 18ZM7.78999 7C6.46391 7 5.19214 7.52678 4.25446 8.46447C3.31678 9.40215 2.78999 10.6739 2.78999 12C2.78999 13.3261 3.31678 14.5979 4.25446 15.5355C5.19214 16.4732 6.46391 17 7.78999 17H16.21C17.5361 17 18.8078 16.4732 19.7455 15.5355C20.6832 14.5979 21.21 13.3261 21.21 12C21.21 10.6739 20.6832 9.40215 19.7455 8.46447C18.8078 7.52678 17.5361 7 16.21 7H7.78999Z" fill="white"/>
<path d="M6.68999 14.0799C6.55738 14.0799 6.4302 14.0272 6.33643 13.9335C6.24267 13.8397 6.18999 13.7125 6.18999 13.5799V10.4199C6.18999 10.2873 6.24267 10.1601 6.33643 10.0664C6.4302 9.9726 6.55738 9.91992 6.68999 9.91992C6.82179 9.92248 6.94749 9.97598 7.04071 10.0692C7.13393 10.1624 7.18743 10.2881 7.18999 10.4199V13.5799C7.18743 13.7117 7.13393 13.8374 7.04071 13.9306C6.94749 14.0239 6.82179 14.0774 6.68999 14.0799Z" fill="white"/>
<path d="M10 14.0799C9.86739 14.0799 9.74021 14.0272 9.64645 13.9335C9.55268 13.8397 9.5 13.7125 9.5 13.5799V10.4199C9.5 10.2873 9.55268 10.1601 9.64645 10.0664C9.74021 9.9726 9.86739 9.91992 10 9.91992C10.1326 9.91992 10.2598 9.9726 10.3536 10.0664C10.4473 10.1601 10.5 10.2873 10.5 10.4199V13.5799C10.5 13.7125 10.4473 13.8397 10.3536 13.9335C10.2598 14.0272 10.1326 14.0799 10 14.0799Z" fill="white"/>
</svg>
