<svg width="24" height="24" viewBox="0 0 24 24" fill="none" xmlns="http://www.w3.org/2000/svg">
<path d="M12 21.5C10.1211 21.5 8.28435 20.9428 6.72208 19.899C5.15982 18.8551 3.94218 17.3714 3.22314 15.6355C2.50411 13.8996 2.31598 11.9895 2.68254 10.1466C3.0491 8.30383 3.95389 6.61109 5.28249 5.28249C6.61108 3.95389 8.30382 3.0491 10.1466 2.68254C11.9895 2.31598 13.8996 2.50412 15.6355 3.22315C17.3714 3.94218 18.8551 5.15982 19.899 6.72209C20.9428 8.28435 21.5 10.1211 21.5 12C21.4974 14.5187 20.4956 16.9336 18.7146 18.7146C16.9336 20.4956 14.5187 21.4974 12 21.5ZM12 3.5C10.3189 3.5 8.67547 3.99852 7.27765 4.93251C5.87984 5.8665 4.79037 7.19402 4.14702 8.74719C3.50368 10.3004 3.33535 12.0094 3.66333 13.6583C3.9913 15.3071 4.80085 16.8217 5.98959 18.0104C7.17834 19.1992 8.69289 20.0087 10.3417 20.3367C11.9906 20.6647 13.6996 20.4963 15.2528 19.853C16.806 19.2096 18.1335 18.1202 19.0675 16.7224C20.0015 15.3245 20.5 13.6811 20.5 12C20.4974 9.74648 19.601 7.58601 18.0075 5.99252C16.414 4.39903 14.2535 3.50265 12 3.5Z" fill="white"/>
<path d="M20.8 10.5901H3.2C3.06739 10.5901 2.94022 10.5374 2.84645 10.4436C2.75268 10.3499 2.7 10.2227 2.7 10.0901C2.7 9.95748 2.75268 9.8303 2.84645 9.73653C2.94022 9.64277 3.06739 9.59009 3.2 9.59009H20.8C20.9326 9.59009 21.0598 9.64277 21.1536 9.73653C21.2473 9.8303 21.3 9.95748 21.3 10.0901C21.3 10.2227 21.2473 10.3499 21.1536 10.4436C21.0598 10.5374 20.9326 10.5901 20.8 10.5901Z" fill="white"/>
</svg>
