<svg width="24" height="24" viewBox="0 0 24 24" fill="none" xmlns="http://www.w3.org/2000/svg">
<path d="M20.86 17.14H18.28C17.7977 17.1315 17.3381 16.934 17 16.59L15.46 15.05C15.3798 14.9702 15.2846 14.9071 15.1799 14.8642C15.0752 14.8213 14.9631 14.7995 14.85 14.8H11.85C11.7182 14.7974 11.5925 14.7439 11.4993 14.6507C11.4061 14.5575 11.3526 14.4318 11.35 14.3C11.35 14.1674 11.4027 14.0402 11.4965 13.9464C11.5902 13.8527 11.7174 13.8 11.85 13.8H14.85C15.3441 13.7985 15.8186 13.9927 16.17 14.34L17.7 15.89C17.8633 16.0492 18.082 16.1388 18.31 16.14H20.89C21.1154 16.14 21.3316 16.0504 21.491 15.891C21.6505 15.7316 21.74 15.5154 21.74 15.29V8.70999C21.74 8.48455 21.6505 8.26835 21.491 8.10894C21.3316 7.94954 21.1154 7.85999 20.89 7.85999H11.89C11.7574 7.85999 11.6302 7.80731 11.5365 7.71354C11.4427 7.61977 11.39 7.49259 11.39 7.35999C11.39 7.22738 11.4427 7.1002 11.5365 7.00643C11.6302 6.91266 11.7574 6.85999 11.89 6.85999H20.89C21.3807 6.85999 21.8512 7.0549 22.1982 7.40184C22.5451 7.74878 22.74 8.21933 22.74 8.70999V15.29C22.74 15.5355 22.6912 15.7785 22.5964 16.0049C22.5015 16.2314 22.3626 16.4367 22.1876 16.6089C22.0126 16.781 21.8051 16.9167 21.5772 17.0079C21.3493 17.0991 21.1055 17.144 20.86 17.14Z" fill="white"/>
<path d="M5.71999 17.14H3.13999C2.64934 17.14 2.17879 16.9451 1.83185 16.5981C1.4849 16.2512 1.28999 15.7806 1.28999 15.29V8.70999C1.28999 8.21933 1.4849 7.74878 1.83185 7.40184C2.17879 7.0549 2.64934 6.85999 3.13999 6.85999H12.14C12.2726 6.85999 12.3998 6.91266 12.4935 7.00643C12.5873 7.1002 12.64 7.22738 12.64 7.35999C12.64 7.49259 12.5873 7.61977 12.4935 7.71354C12.3998 7.80731 12.2726 7.85999 12.14 7.85999H3.13999C2.91456 7.85999 2.69836 7.94954 2.53895 8.10894C2.37955 8.26835 2.28999 8.48455 2.28999 8.70999V15.29C2.28999 15.5154 2.37955 15.7316 2.53895 15.891C2.69836 16.0504 2.91456 16.14 3.13999 16.14H5.71999C5.94804 16.1388 6.16673 16.0492 6.32999 15.89L7.85999 14.34C8.21138 13.9927 8.68594 13.7985 9.17999 13.8H12.18C12.3126 13.8 12.4398 13.8527 12.5335 13.9464C12.6273 14.0402 12.68 14.1674 12.68 14.3C12.6774 14.4318 12.6239 14.5575 12.5307 14.6507C12.4375 14.7439 12.3118 14.7974 12.18 14.8H9.17999C9.06687 14.7995 8.95476 14.8213 8.85009 14.8642C8.74541 14.9071 8.65023 14.9702 8.56999 15.05L6.99999 16.59C6.66191 16.934 6.20226 17.1315 5.71999 17.14Z" fill="white"/>
</svg>
