<svg width="24" height="24" viewBox="0 0 24 24" fill="none" xmlns="http://www.w3.org/2000/svg">
<path d="M9.18 12.5H3.53C3.46186 12.5041 3.3936 12.4942 3.32943 12.4709C3.26526 12.4476 3.20654 12.4115 3.15689 12.3646C3.10724 12.3178 3.0677 12.2613 3.04072 12.1986C3.01373 12.1358 2.99988 12.0683 3 12V6.52002C3 6.38741 3.05268 6.26023 3.14645 6.16647C3.24022 6.0727 3.36739 6.02002 3.5 6.02002H9.18C9.31261 6.02002 9.43979 6.0727 9.53355 6.16647C9.62732 6.26023 9.68 6.38741 9.68 6.52002V12C9.68 12.1326 9.62732 12.2598 9.53355 12.3536C9.43979 12.4473 9.31261 12.5 9.18 12.5ZM4 11.5H8.68V7.00002H4V11.5Z" fill="white"/>
<path d="M14.82 12.5H9.18C9.04739 12.5 8.92021 12.4473 8.82645 12.3536C8.73268 12.2598 8.68 12.1326 8.68 12V6.52002C8.68 6.38741 8.73268 6.26023 8.82645 6.16647C8.92021 6.0727 9.04739 6.02002 9.18 6.02002H14.82C14.9526 6.02002 15.0798 6.0727 15.1736 6.16647C15.2673 6.26023 15.32 6.38741 15.32 6.52002V12C15.32 12.1326 15.2673 12.2598 15.1736 12.3536C15.0798 12.4473 14.9526 12.5 14.82 12.5ZM9.68 11.5H14.32V7.00002H9.68V11.5Z" fill="white"/>
<path d="M20.47 12.5H14.82C14.6874 12.5 14.5602 12.4473 14.4664 12.3536C14.3727 12.2598 14.32 12.1326 14.32 12V6.52002C14.32 6.38741 14.3727 6.26023 14.4664 6.16647C14.5602 6.0727 14.6874 6.02002 14.82 6.02002H20.47C20.6026 6.02002 20.7298 6.0727 20.8236 6.16647C20.9173 6.26023 20.97 6.38741 20.97 6.52002V12C20.97 12.1326 20.9173 12.2598 20.8236 12.3536C20.7298 12.4473 20.6026 12.5 20.47 12.5ZM15.32 11.5H20V7.00002H15.32V11.5Z" fill="white"/>
<path d="M14.82 18H9.18C9.04739 18 8.92021 17.9473 8.82645 17.8536C8.73268 17.7598 8.68 17.6326 8.68 17.5V12C8.68 11.8674 8.73268 11.7402 8.82645 11.6464C8.92021 11.5527 9.04739 11.5 9.18 11.5H14.82C14.9526 11.5 15.0798 11.5527 15.1736 11.6464C15.2673 11.7402 15.32 11.8674 15.32 12V17.48C15.3227 17.5473 15.3118 17.6145 15.2878 17.6775C15.2639 17.7405 15.2275 17.798 15.1808 17.8466C15.1341 17.8951 15.0781 17.9338 15.0161 17.9601C14.9541 17.9865 14.8874 18.0001 14.82 18ZM9.68 17H14.32V12.5H9.68V17Z" fill="white"/>
</svg>
