<svg width="24" height="24" viewBox="0 0 24 24" fill="none" xmlns="http://www.w3.org/2000/svg">
<path d="M10.4 10.79C10.2682 10.7874 10.1425 10.7339 10.0493 10.6407C9.95606 10.5475 9.90256 10.4218 9.9 10.29C9.88512 10.2275 9.88512 10.1624 9.9 10.1C9.95333 9.97954 10.0496 9.88329 10.17 9.82996C10.2607 9.79203 10.3606 9.78224 10.4569 9.80185C10.5532 9.82147 10.6414 9.86959 10.71 9.93996C10.7606 9.98221 10.7987 10.0376 10.82 10.1C10.8342 10.1625 10.8342 10.2274 10.82 10.29C10.8174 10.4218 10.7639 10.5475 10.6707 10.6407C10.5775 10.7339 10.4518 10.7874 10.32 10.79H10.4Z" fill="white"/>
<path d="M16.78 10.79C16.7144 10.7908 16.6494 10.7779 16.5891 10.752C16.5289 10.7262 16.4746 10.688 16.43 10.64C16.3418 10.5576 16.2864 10.4461 16.274 10.3261C16.2616 10.2061 16.293 10.0856 16.3625 9.98691C16.4319 9.88823 16.5347 9.81799 16.6519 9.78915C16.769 9.76031 16.8927 9.77482 17 9.83C17.0612 9.85366 17.116 9.89133 17.16 9.94C17.2493 10.0346 17.2991 10.1599 17.2991 10.29C17.2991 10.4201 17.2493 10.5453 17.16 10.64C17.116 10.6887 17.0612 10.7263 17 10.75C16.9308 10.7805 16.8555 10.7942 16.78 10.79Z" fill="white"/>
<path d="M10.4 16.7898C10.3375 16.8047 10.2725 16.8047 10.21 16.7898C10.1476 16.7685 10.0923 16.7305 10.05 16.6798C10.002 16.6352 9.9638 16.581 9.93797 16.5207C9.91213 16.4604 9.8992 16.3954 9.9 16.3298C9.88512 16.2674 9.88512 16.2023 9.9 16.1398C9.92132 16.0774 9.95937 16.0221 10.01 15.9798C10.1035 15.8882 10.2291 15.8369 10.36 15.8369C10.4909 15.8369 10.6165 15.8882 10.71 15.9798C10.7606 16.0221 10.7987 16.0774 10.82 16.1398C10.8349 16.2023 10.8349 16.2674 10.82 16.3298C10.8174 16.4616 10.7639 16.5873 10.6707 16.6806C10.5775 16.7738 10.4518 16.8273 10.32 16.8298L10.4 16.7898Z" fill="white"/>
<path d="M16.78 16.7899C16.7175 16.804 16.6525 16.804 16.59 16.7899C16.5288 16.7662 16.474 16.7285 16.43 16.6799C16.35 16.5973 16.301 16.4897 16.291 16.3752C16.2811 16.2607 16.3109 16.1462 16.3755 16.0512C16.4401 15.9561 16.5354 15.8861 16.6455 15.8531C16.7556 15.8201 16.8738 15.826 16.98 15.8699C17.0412 15.8935 17.096 15.9312 17.14 15.9799C17.2293 16.0745 17.2791 16.1997 17.2791 16.3299C17.2791 16.46 17.2293 16.5852 17.14 16.6799C17.0902 16.721 17.0328 16.752 16.971 16.7708C16.9092 16.7897 16.8443 16.7962 16.78 16.7899Z" fill="white"/>
<path d="M18.63 21.8398H8.63C7.70255 21.8372 6.81385 21.4676 6.15804 20.8118C5.50223 20.156 5.13264 19.2673 5.13 18.3398V8.33984C5.13 7.41159 5.49875 6.52135 6.15513 5.86497C6.8115 5.20859 7.70174 4.83984 8.63 4.83984H18.63C19.5583 4.83984 20.4485 5.20859 21.1049 5.86497C21.7613 6.52135 22.13 7.41159 22.13 8.33984V18.3398C22.1274 19.2673 21.7578 20.156 21.102 20.8118C20.4462 21.4676 19.5574 21.8372 18.63 21.8398ZM8.63 5.83984C7.96777 5.84248 7.33341 6.10671 6.86514 6.57499C6.39687 7.04326 6.13263 7.67761 6.13 8.33984V18.3398C6.13263 19.0021 6.39687 19.6364 6.86514 20.1047C7.33341 20.573 7.96777 20.8372 8.63 20.8398H18.63C19.2922 20.8372 19.9266 20.573 20.3949 20.1047C20.8631 19.6364 21.1274 19.0021 21.13 18.3398V8.33984C21.1274 7.67761 20.8631 7.04326 20.3949 6.57499C19.9266 6.10671 19.2922 5.84248 18.63 5.83984H8.63Z" fill="white"/>
<path d="M5.61 19.2H5.37C4.44174 19.2 3.5515 18.8312 2.89513 18.1748C2.23875 17.5184 1.87 16.6282 1.87 15.7V5.69995C1.87 4.7717 2.23875 3.88146 2.89513 3.22508C3.5515 2.5687 4.44174 2.19995 5.37 2.19995H15.37C16.2253 2.19893 17.0512 2.51204 17.6909 3.07983C18.3306 3.64762 18.7395 4.43055 18.84 5.27995C18.8472 5.34561 18.8414 5.41206 18.823 5.47548C18.8045 5.53891 18.7738 5.59808 18.7324 5.64962C18.6911 5.70115 18.6401 5.74405 18.5822 5.77585C18.5243 5.80765 18.4607 5.82773 18.395 5.83495C18.3293 5.84218 18.2629 5.8364 18.1995 5.81794C18.136 5.79949 18.0769 5.76872 18.0253 5.7274C17.9213 5.64394 17.8546 5.52256 17.84 5.38995C17.7665 4.78455 17.4734 4.22717 17.0163 3.8235C16.5592 3.41984 15.9698 3.19796 15.36 3.19995H5.36C4.69777 3.20259 4.06341 3.46682 3.59514 3.9351C3.12687 4.40337 2.86263 5.03772 2.86 5.69995V15.7C2.86 16.363 3.12339 16.9989 3.59223 17.4677C4.06107 17.9366 4.69696 18.2 5.36 18.2H5.6C5.73261 18.2 5.85979 18.2526 5.95355 18.3464C6.04732 18.4402 6.1 18.5673 6.1 18.7C6.10003 18.8308 6.04872 18.9565 5.95711 19.05C5.86549 19.1435 5.74087 19.1973 5.61 19.2Z" fill="white"/>
</svg>
