<svg width="24" height="24" viewBox="0 0 24 24" fill="none" xmlns="http://www.w3.org/2000/svg">
<path d="M11 22.3501C9.0611 22.3527 7.18131 21.6828 5.68095 20.4547C4.18059 19.2266 3.15252 17.5162 2.77192 15.615C2.39132 13.7139 2.68176 11.7395 3.59373 10.0285C4.5057 8.31748 5.98277 6.97563 7.77323 6.23162C9.5637 5.4876 11.5568 5.38748 13.4128 5.9483C15.2688 6.50912 16.8729 7.69618 17.9518 9.3072C19.0306 10.9182 19.5175 12.8535 19.3293 14.7832C19.1412 16.713 18.2897 18.5178 16.92 19.8901C16.1449 20.6712 15.2226 21.2909 14.2064 21.7132C13.1903 22.1354 12.1004 22.3519 11 22.3501ZM11 6.60008C9.2922 6.59849 7.63672 7.18923 6.31573 8.27161C4.99474 9.35399 4.09003 10.861 3.75581 12.5358C3.42158 14.2105 3.67854 15.9494 4.48287 17.4559C5.28721 18.9624 6.58913 20.1434 8.16672 20.7974C9.7443 21.4515 11.4999 21.5381 13.1342 21.0427C14.7686 20.5472 16.1805 19.5002 17.1293 18.0803C18.0781 16.6603 18.5051 14.9552 18.3375 13.2557C18.1698 11.5561 17.4179 9.96732 16.21 8.76008C15.5262 8.07519 14.7141 7.53187 13.8201 7.16123C12.9261 6.79059 11.9678 6.5999 11 6.60008Z" fill="white"/>
<path d="M18.37 11.73C18.2381 11.7281 18.1123 11.6742 18.02 11.58C17.9277 11.4849 17.8762 11.3576 17.8762 11.225C17.8762 11.0925 17.9277 10.9652 18.02 10.87L20.17 8.72002L16.31 4.86002L14.19 7.00002C14.1435 7.04689 14.0882 7.08408 14.0273 7.10947C13.9663 7.13485 13.901 7.14792 13.835 7.14792C13.769 7.14792 13.7036 7.13485 13.6427 7.10947C13.5818 7.08408 13.5265 7.04689 13.48 7.00002C13.3877 6.90487 13.3362 6.77755 13.3362 6.64502C13.3362 6.5125 13.3877 6.38517 13.48 6.29002L16 3.79002C16.0974 3.70218 16.2238 3.65356 16.355 3.65356C16.4861 3.65356 16.6126 3.70218 16.71 3.79002L21.28 8.37002C21.3278 8.41491 21.3659 8.46913 21.392 8.52933C21.4181 8.58953 21.4315 8.65443 21.4315 8.72002C21.4315 8.78562 21.4181 8.85052 21.392 8.91072C21.3659 8.97092 21.3278 9.02513 21.28 9.07002L18.78 11.58C18.727 11.6338 18.6628 11.6752 18.5919 11.7011C18.5209 11.7271 18.4452 11.7369 18.37 11.73Z" fill="white"/>
<path d="M18.52 6.85997C18.4543 6.87245 18.3869 6.87187 18.3214 6.85826C18.256 6.84466 18.1939 6.81831 18.1386 6.7807C18.0834 6.74309 18.0361 6.69497 17.9994 6.63908C17.9628 6.58319 17.9375 6.52063 17.925 6.45497C17.9125 6.38931 17.9131 6.32183 17.9267 6.2564C17.9403 6.19096 17.9667 6.12884 18.0043 6.07359C18.0419 6.01834 18.09 5.97104 18.1459 5.93438C18.2018 5.89773 18.2643 5.87245 18.33 5.85997C18.5655 5.76396 18.777 5.61751 18.9498 5.43091C19.1226 5.24432 19.2524 5.02213 19.33 4.77997C19.45 4.15997 19.05 3.36997 18.16 2.47997C18.0677 2.38482 18.0162 2.2575 18.0162 2.12497C18.0162 1.99244 18.0677 1.86512 18.16 1.76997C18.2065 1.72311 18.2618 1.68591 18.3227 1.66052C18.3836 1.63514 18.449 1.62207 18.515 1.62207C18.581 1.62207 18.6464 1.63514 18.7073 1.66052C18.7682 1.68591 18.8235 1.72311 18.87 1.76997C20 2.99997 20.51 3.99997 20.31 4.99997C20.1949 5.40208 19.9903 5.77292 19.7115 6.08466C19.4326 6.3964 19.0868 6.64095 18.7 6.79997C18.6458 6.83448 18.584 6.85509 18.52 6.85997Z" fill="white"/>
</svg>
