<svg width="24" height="24" viewBox="0 0 24 24" fill="none" xmlns="http://www.w3.org/2000/svg">
<path d="M19 19.5801H5.89C5.39047 19.5801 4.91125 19.3823 4.55709 19.0301C4.20293 18.6778 4.00264 18.1996 4 17.7001V9.08008C4 8.94747 4.05268 8.82029 4.14645 8.72652C4.24021 8.63276 4.36739 8.58008 4.5 8.58008H20.33C20.4626 8.58008 20.5898 8.63276 20.6836 8.72652C20.7773 8.82029 20.83 8.94747 20.83 9.08008V17.7001C20.8302 18.1901 20.639 18.6609 20.2972 19.0121C19.9553 19.3632 19.4899 19.567 19 19.5801ZM5 9.58008V17.7001C4.99999 17.8165 5.02308 17.9317 5.06793 18.0392C5.11278 18.1466 5.17849 18.244 5.26127 18.3259C5.34405 18.4077 5.44224 18.4724 5.55017 18.516C5.65809 18.5596 5.7736 18.5814 5.89 18.5801H19C19.1159 18.5814 19.231 18.5596 19.3383 18.5158C19.4457 18.4721 19.5433 18.4073 19.6252 18.3253C19.7072 18.2433 19.772 18.1458 19.8157 18.0384C19.8595 17.931 19.8813 17.816 19.88 17.7001V9.58008H5Z" fill="white"/>
<path d="M15.26 14.58C15.1274 14.58 15.0002 14.5273 14.9064 14.4335C14.8127 14.3398 14.76 14.2126 14.76 14.08V9.17998L13.32 5.41998H2.87999L4.92999 8.82998C4.9949 8.94389 5.01248 9.07874 4.97892 9.20548C4.94537 9.33223 4.86338 9.44072 4.75061 9.5076C4.63784 9.57447 4.50332 9.59438 4.37601 9.56302C4.24871 9.53167 4.13881 9.45157 4.06999 9.33998L1.56999 5.16998C1.52798 5.09335 1.50595 5.00737 1.50595 4.91998C1.50595 4.83259 1.52798 4.74661 1.56999 4.66998C1.61362 4.59441 1.67626 4.53157 1.7517 4.48772C1.82713 4.44386 1.91273 4.42051 1.99999 4.41998H13.67C13.7705 4.41842 13.869 4.44847 13.9515 4.50589C14.0341 4.5633 14.0965 4.64518 14.13 4.73998L15.73 8.89998C15.7395 8.9596 15.7395 9.02036 15.73 9.07998V14.08C15.7302 14.2075 15.6817 14.3304 15.5943 14.4233C15.5069 14.5163 15.3873 14.5723 15.26 14.58Z" fill="white"/>
<path d="M20.33 9.57997H15.33C15.2488 9.58015 15.1688 9.56014 15.0972 9.52174C15.0257 9.48333 14.9648 9.42774 14.92 9.35997C14.8752 9.29299 14.8473 9.21619 14.8386 9.1361C14.8299 9.05601 14.8407 8.975 14.87 8.89997L16.54 4.72997C16.5764 4.63787 16.6398 4.55895 16.7219 4.50361C16.804 4.44827 16.901 4.41911 17 4.41997H22C22.0814 4.41887 22.1617 4.43848 22.2334 4.47696C22.3052 4.51545 22.3659 4.57154 22.41 4.63997C22.4592 4.70493 22.4898 4.78203 22.4987 4.86305C22.5075 4.94406 22.4941 5.02595 22.46 5.09997L20.8 9.26997C20.7619 9.36286 20.6966 9.44212 20.6128 9.49741C20.529 9.5527 20.4304 9.58147 20.33 9.57997ZM16.07 8.57997H20L21.27 5.41997H17.34L16.07 8.57997Z" fill="white"/>
</svg>
