<svg width="24" height="24" viewBox="0 0 24 24" fill="none" xmlns="http://www.w3.org/2000/svg">
<path d="M13 22.75C12.8914 22.7523 12.7854 22.717 12.7 22.65L5.84999 17.53C5.78845 17.4829 5.73846 17.4224 5.70381 17.3531C5.66915 17.2838 5.65075 17.2075 5.64999 17.13V6.88001C5.64921 6.80083 5.66688 6.72257 5.70159 6.6514C5.73631 6.58024 5.78711 6.51813 5.84999 6.47001L12.7 1.35001C12.7872 1.2866 12.8922 1.25244 13 1.25244C13.1078 1.25244 13.2128 1.2866 13.3 1.35001L20.15 6.47001C20.2129 6.51813 20.2637 6.58024 20.2984 6.6514C20.3331 6.72257 20.3508 6.80083 20.35 6.88001V17.13C20.3492 17.2075 20.3308 17.2838 20.2962 17.3531C20.2615 17.4224 20.2115 17.4829 20.15 17.53L13.3 22.65C13.2145 22.717 13.1085 22.7523 13 22.75ZM6.64999 16.87L13 21.63L19.35 16.87V7.13001L13 2.37001L6.64999 7.13001V16.87Z" fill="white"/>
<path d="M13 22.75C12.8674 22.75 12.7402 22.6973 12.6464 22.6036C12.5527 22.5098 12.5 22.3826 12.5 22.25V1.75C12.5 1.61739 12.5527 1.49021 12.6464 1.39645C12.7402 1.30268 12.8674 1.25 13 1.25C13.1326 1.25 13.2598 1.30268 13.3536 1.39645C13.4473 1.49021 13.5 1.61739 13.5 1.75V22.25C13.5 22.3826 13.4473 22.5098 13.3536 22.6036C13.2598 22.6973 13.1326 22.75 13 22.75Z" fill="white"/>
</svg>
