<svg width="24" height="24" viewBox="0 0 24 24" fill="none" xmlns="http://www.w3.org/2000/svg">
<path d="M6.41003 9.99989C6.3346 10.0194 6.25546 10.0194 6.18003 9.99989C6.06003 9.93989 3.18003 8.41989 2.60003 6.34989C2.41773 5.84124 2.35361 5.29778 2.41252 4.76068C2.47143 4.22357 2.65182 3.70693 2.94003 3.24989C3.14873 2.96914 3.42249 2.74329 3.73777 2.59175C4.05306 2.4402 4.40043 2.3675 4.75003 2.37989C5.06718 2.36572 5.38315 2.42726 5.67181 2.55942C5.96047 2.69158 6.21351 2.89055 6.41003 3.13989C6.60754 2.88913 6.86221 2.6893 7.15274 2.55708C7.44326 2.42487 7.76122 2.36411 8.08003 2.37989C8.4295 2.36835 8.77658 2.44143 9.09173 2.59291C9.40687 2.74438 9.68075 2.96977 9.89003 3.24989C10.1766 3.70772 10.3552 4.22476 10.4124 4.76184C10.4696 5.29893 10.4038 5.84199 10.22 6.34989C9.61003 8.37989 6.77003 9.89989 6.64003 9.99989C6.5646 10.0194 6.48546 10.0194 6.41003 9.99989ZM4.75003 3.33989C4.55777 3.33153 4.36634 3.36993 4.19217 3.45179C4.018 3.53365 3.86629 3.65652 3.75003 3.80989C3.56034 4.1389 3.44502 4.50547 3.4122 4.88382C3.37937 5.26217 3.42983 5.64313 3.56003 5.99989C4.00003 7.39989 5.76003 8.55989 6.41003 8.99989C7.06003 8.55989 8.86003 7.39989 9.26003 5.99989C9.39511 5.6398 9.44988 5.25455 9.42051 4.87109C9.39115 4.48763 9.27836 4.11521 9.09003 3.77989C8.97377 3.62652 8.82206 3.50365 8.64789 3.42179C8.47372 3.33993 8.2823 3.30153 8.09003 3.30989C7.93172 3.30701 7.7745 3.33657 7.62805 3.39675C7.4816 3.45693 7.34901 3.54646 7.23847 3.65981C7.12792 3.77317 7.04176 3.90795 6.98527 4.05587C6.92878 4.20379 6.90318 4.3617 6.91003 4.51989C6.90238 4.64723 6.84634 4.76683 6.75339 4.8542C6.66043 4.94158 6.5376 4.99012 6.41003 4.98989C6.28082 4.98999 6.15658 4.94007 6.06336 4.85058C5.97015 4.7611 5.9152 4.639 5.91003 4.50989C5.91271 4.35635 5.88461 4.20383 5.82738 4.06132C5.77016 3.91882 5.68498 3.78922 5.57686 3.68017C5.46874 3.57112 5.33988 3.48482 5.19787 3.42638C5.05586 3.36794 4.90359 3.33853 4.75003 3.33989Z" fill="white"/>
<path d="M15.13 21.6599C15.0494 21.6604 14.9701 21.6397 14.9 21.5999C14.7 21.4899 10 18.9999 9.00001 15.6099C8.7024 14.7915 8.59458 13.9162 8.68466 13.05C8.77474 12.1839 9.06037 11.3495 9.52001 10.6099C9.84572 10.1867 10.2681 9.84785 10.7519 9.62166C11.2356 9.39546 11.7664 9.28854 12.3 9.30986C12.8715 9.27969 13.44 9.41092 13.9404 9.68855C14.4409 9.96618 14.8531 10.379 15.13 10.8799C15.4108 10.3734 15.8296 9.95705 16.3376 9.67914C16.8456 9.40123 17.4221 9.27317 18 9.30986C18.5386 9.2876 19.0746 9.39603 19.5622 9.62589C20.0497 9.85576 20.4745 10.2002 20.8 10.6299C21.2601 11.3694 21.5452 12.2043 21.6336 13.0708C21.722 13.9374 21.6113 14.8126 21.31 15.6299C20.31 19.0099 15.61 21.5099 15.41 21.6299C15.3211 21.6649 15.2243 21.6753 15.13 21.6599ZM12.3 10.3099C11.9169 10.2883 11.5343 10.3608 11.1856 10.5212C10.837 10.6816 10.5329 10.9249 10.3 11.2299C9.93907 11.8435 9.71947 12.53 9.6572 13.2392C9.59492 13.9485 9.69154 14.6627 9.94 15.3299C10.7 17.9099 14.19 20.0499 15.12 20.5799C16.06 20.0499 19.55 17.8999 20.3 15.3299C20.5521 14.6638 20.6515 13.9497 20.5909 13.2401C20.5304 12.5305 20.3113 11.8435 19.95 11.2299C19.7165 10.9255 19.4123 10.6827 19.0638 10.5224C18.7154 10.3621 18.333 10.2891 17.95 10.3099C17.6441 10.3072 17.3408 10.3653 17.0575 10.4809C16.7743 10.5964 16.5168 10.767 16.3001 10.9828C16.0833 11.1987 15.9116 11.4554 15.7948 11.7381C15.6781 12.0209 15.6187 12.324 15.62 12.6299C15.6148 12.7581 15.5595 12.8791 15.466 12.967C15.3725 13.0549 15.2483 13.1026 15.12 13.0999C14.9924 13.1001 14.8696 13.0515 14.7766 12.9642C14.6837 12.8768 14.6277 12.7572 14.62 12.6299C14.6213 12.3248 14.5622 12.0225 14.4461 11.7405C14.33 11.4584 14.1591 11.2021 13.9434 10.9864C13.7277 10.7707 13.4715 10.5999 13.1894 10.4838C12.9073 10.3676 12.605 10.3085 12.3 10.3099Z" fill="white"/>
</svg>
