<svg width="24" height="24" viewBox="0 0 24 24" fill="none" xmlns="http://www.w3.org/2000/svg">
<path d="M20.37 9.00011H3.63001C3.07346 8.96252 2.55197 8.71492 2.17106 8.30742C1.79014 7.89991 1.57825 7.36292 1.57825 6.80511C1.57825 6.24729 1.79014 5.7103 2.17106 5.3028C2.55197 4.89529 3.07346 4.64769 3.63001 4.61011H20.37C20.9266 4.64769 21.448 4.89529 21.829 5.3028C22.2099 5.7103 22.4218 6.24729 22.4218 6.80511C22.4218 7.36292 22.2099 7.89991 21.829 8.30742C21.448 8.71492 20.9266 8.96252 20.37 9.00011ZM3.63001 5.65011C3.3598 5.70614 3.11717 5.85359 2.94298 6.06761C2.76878 6.28164 2.67368 6.54916 2.67368 6.82511C2.67368 7.10106 2.76878 7.36858 2.94298 7.5826C3.11717 7.79663 3.3598 7.94407 3.63001 8.00011H20.37C20.6681 7.97281 20.9452 7.83511 21.147 7.61402C21.3487 7.39293 21.4606 7.10442 21.4606 6.80511C21.4606 6.50579 21.3487 6.21728 21.147 5.99619C20.9452 5.77511 20.6681 5.6374 20.37 5.61011L3.63001 5.65011Z" fill="white"/>
<path d="M19.29 19.6H4.71001C4.5774 19.6 4.45022 19.5474 4.35645 19.4536C4.26269 19.3598 4.21001 19.2326 4.21001 19.1V8.54004C4.21001 8.40743 4.26269 8.28025 4.35645 8.18649C4.45022 8.09272 4.5774 8.04004 4.71001 8.04004H19.29C19.4226 8.04004 19.5498 8.09272 19.6436 8.18649C19.7373 8.28025 19.79 8.40743 19.79 8.54004V19.1C19.79 19.2326 19.7373 19.3598 19.6436 19.4536C19.5498 19.5474 19.4226 19.6 19.29 19.6ZM5.21001 18.6H18.79V9.00004H5.21001V18.6Z" fill="white"/>
<path d="M12 17.09C11.8674 17.09 11.7402 17.0374 11.6464 16.9436C11.5527 16.8498 11.5 16.7227 11.5 16.59V11.05C11.5 10.9174 11.5527 10.7903 11.6464 10.6965C11.7402 10.6027 11.8674 10.55 12 10.55C12.1326 10.55 12.2598 10.6027 12.3536 10.6965C12.4473 10.7903 12.5 10.9174 12.5 11.05V16.59C12.5 16.7227 12.4473 16.8498 12.3536 16.9436C12.2598 17.0374 12.1326 17.09 12 17.09Z" fill="white"/>
<path d="M14.77 14.3201H9.23001C9.0974 14.3201 8.97023 14.2674 8.87646 14.1736C8.78269 14.0799 8.73001 13.9527 8.73001 13.8201C8.73001 13.6875 8.78269 13.5603 8.87646 13.4665C8.97023 13.3727 9.0974 13.3201 9.23001 13.3201H14.77C14.9026 13.3201 15.0298 13.3727 15.1236 13.4665C15.2173 13.5603 15.27 13.6875 15.27 13.8201C15.27 13.9527 15.2173 14.0799 15.1236 14.1736C15.0298 14.2674 14.9026 14.3201 14.77 14.3201Z" fill="white"/>
</svg>
