<svg width="24" height="24" viewBox="0 0 24 24" fill="none" xmlns="http://www.w3.org/2000/svg">
<path d="M18.43 18.29C15.57 18.29 14.14 15.47 13.72 14.47H10.28C9.85999 15.47 8.42999 18.29 5.56999 18.29C1.92999 18.29 1.92999 15.29 1.92999 13.88C1.92999 12.21 4.81999 6.61997 5.14999 5.97997C5.19094 5.89847 5.25382 5.83002 5.33155 5.78232C5.40929 5.73462 5.49879 5.70956 5.58999 5.70997H18.41C18.5012 5.70956 18.5907 5.73462 18.6684 5.78232C18.7462 5.83002 18.809 5.89847 18.85 5.97997C19.18 6.61997 22.07 12.21 22.07 13.88C22.07 15.31 22.07 18.29 18.43 18.29ZM9.93999 13.47H14.06C14.1643 13.4692 14.2662 13.5018 14.3507 13.5629C14.4352 13.6241 14.4981 13.7106 14.53 13.81C14.53 13.81 15.75 17.29 18.43 17.29C20.87 17.29 21.07 15.74 21.07 13.88C21.07 12.88 19.31 9.04997 18.07 6.70997H5.88999C4.68999 9.04997 2.88999 12.85 2.88999 13.88C2.88999 15.74 3.08999 17.29 5.52999 17.29C8.20999 17.29 9.41999 13.84 9.42999 13.81C9.46368 13.7038 9.53255 13.6122 9.62527 13.5504C9.71798 13.4886 9.82899 13.4602 9.93999 13.47Z" fill="white"/>
</svg>
