<svg width="24" height="24" viewBox="0 0 24 24" fill="none" xmlns="http://www.w3.org/2000/svg">
<path d="M12 21.5C10.1211 21.5 8.28435 20.9428 6.72208 19.899C5.15981 18.8551 3.94217 17.3714 3.22314 15.6355C2.50411 13.8996 2.31598 11.9895 2.68254 10.1466C3.0491 8.30383 3.95388 6.61109 5.28248 5.28249C6.61108 3.95389 8.30382 3.0491 10.1466 2.68254C11.9895 2.31598 13.8996 2.50412 15.6355 3.22315C17.3714 3.94218 18.8551 5.15982 19.899 6.72209C20.9428 8.28435 21.5 10.1211 21.5 12C21.4973 14.5187 20.4956 16.9336 18.7146 18.7146C16.9336 20.4956 14.5187 21.4974 12 21.5ZM12 3.5C10.3189 3.5 8.67547 3.99852 7.27765 4.93251C5.87983 5.8665 4.79037 7.19402 4.14702 8.74719C3.50368 10.3004 3.33535 12.0094 3.66332 13.6583C3.9913 15.3071 4.80084 16.8217 5.98959 18.0104C7.17834 19.1992 8.69289 20.0087 10.3417 20.3367C11.9906 20.6647 13.6996 20.4963 15.2528 19.853C16.806 19.2096 18.1335 18.1202 19.0675 16.7224C20.0015 15.3245 20.5 13.6811 20.5 12C20.4973 9.74648 19.601 7.58601 18.0075 5.99252C16.414 4.39903 14.2535 3.50265 12 3.5Z" fill="white"/>
<path d="M8.27 16.45C8.13739 16.45 8.01021 16.3973 7.91644 16.3036C7.82268 16.2098 7.77 16.0826 7.77 15.95V12.63C7.77 12.4974 7.82268 12.3702 7.91644 12.2765C8.01021 12.1827 8.13739 12.13 8.27 12.13C8.40261 12.13 8.52978 12.1827 8.62355 12.2765C8.71732 12.3702 8.77 12.4974 8.77 12.63V16C8.75756 16.1238 8.69944 16.2384 8.60698 16.3217C8.51453 16.4049 8.39438 16.4506 8.27 16.45Z" fill="white"/>
<path d="M12 16.45C11.8674 16.45 11.7402 16.3974 11.6464 16.3036C11.5527 16.2098 11.5 16.0827 11.5 15.95V8.05005C11.5 7.91744 11.5527 7.79026 11.6464 7.6965C11.7402 7.60273 11.8674 7.55005 12 7.55005C12.1326 7.55005 12.2598 7.60273 12.3536 7.6965C12.4473 7.79026 12.5 7.91744 12.5 8.05005V16C12.4876 16.1238 12.4294 16.2385 12.337 16.3217C12.2445 16.4049 12.1244 16.4507 12 16.45Z" fill="white"/>
<path d="M15.73 16.4501C15.5974 16.4501 15.4702 16.3974 15.3764 16.3036C15.2827 16.2098 15.23 16.0827 15.23 15.9501V10.8101C15.23 10.6775 15.2827 10.5503 15.3764 10.4565C15.4702 10.3627 15.5974 10.3101 15.73 10.3101C15.8626 10.3101 15.9898 10.3627 16.0835 10.4565C16.1773 10.5503 16.23 10.6775 16.23 10.8101V16.0001C16.2176 16.1238 16.1594 16.2385 16.067 16.3217C15.9745 16.4049 15.8544 16.4507 15.73 16.4501Z" fill="white"/>
</svg>
