<svg width="24" height="24" viewBox="0 0 24 24" fill="none" xmlns="http://www.w3.org/2000/svg">
<path d="M12.21 21.9999H11.79C10.4109 21.9999 9.08823 21.452 8.11304 20.4768C7.13786 19.5016 6.59 18.179 6.59 16.7999V7.92986C6.59 7.05107 6.93841 6.20813 7.55887 5.5858C8.17933 4.96346 9.02121 4.61251 9.9 4.60986H14.1C14.9788 4.61251 15.8207 4.96346 16.4411 5.5858C17.0616 6.20813 17.41 7.05107 17.41 7.92986V16.8199C17.4047 18.1955 16.8545 19.513 15.8799 20.4839C14.9053 21.4548 13.5857 21.9999 12.21 21.9999ZM9.9 5.60986C9.5958 5.60986 9.2946 5.66994 9.01369 5.78665C8.73277 5.90337 8.47767 6.07441 8.26304 6.28998C8.0484 6.50554 7.87846 6.76138 7.76296 7.04279C7.64746 7.32421 7.58868 7.62567 7.59 7.92986V16.8199C7.59 17.9338 8.0325 19.0021 8.82015 19.7897C9.6078 20.5774 10.6761 21.0199 11.79 21.0199H12.21C13.3239 21.0199 14.3922 20.5774 15.1798 19.7897C15.9675 19.0021 16.41 17.9338 16.41 16.8199V7.92986C16.4113 7.62567 16.3525 7.32421 16.237 7.04279C16.1215 6.76138 15.9516 6.50554 15.737 6.28998C15.5223 6.07441 15.2672 5.90337 14.9863 5.78665C14.7054 5.66994 14.4042 5.60986 14.1 5.60986H9.9Z" fill="white"/>
<path d="M16.91 13.82H7.09C6.95739 13.82 6.83021 13.7673 6.73645 13.6735C6.64268 13.5798 6.59 13.4526 6.59 13.32V2.46997C6.59 2.33736 6.64268 2.21019 6.73645 2.11642C6.83021 2.02265 6.95739 1.96997 7.09 1.96997C7.22181 1.97253 7.3475 2.02603 7.44072 2.11925C7.53394 2.21247 7.58744 2.33816 7.59 2.46997V12.82H16.91C17.0426 12.82 17.1698 12.8726 17.2636 12.9664C17.3573 13.0602 17.41 13.1874 17.41 13.32C17.41 13.4526 17.3573 13.5798 17.2636 13.6735C17.1698 13.7673 17.0426 13.82 16.91 13.82Z" fill="white"/>
<path d="M13.63 17.72H10.37C10.2374 17.72 10.1102 17.6673 10.0164 17.5735C9.92268 17.4798 9.87 17.3526 9.87 17.22C9.87 17.0874 9.92268 16.9602 10.0164 16.8664C10.1102 16.7727 10.2374 16.72 10.37 16.72H13.63C13.7626 16.72 13.8898 16.7727 13.9836 16.8664C14.0773 16.9602 14.13 17.0874 14.13 17.22C14.13 17.3526 14.0773 17.4798 13.9836 17.5735C13.8898 17.6673 13.7626 17.72 13.63 17.72Z" fill="white"/>
</svg>
