<svg width="24" height="24" viewBox="0 0 24 24" fill="none" xmlns="http://www.w3.org/2000/svg">
<path d="M15 20.22H6.08C5.241 20.2174 4.43726 19.8822 3.84493 19.288C3.2526 18.6938 2.91999 17.889 2.92 17.05V8.16C2.92264 7.32273 3.25641 6.5205 3.84845 5.92846C4.4405 5.33641 5.24273 5.00264 6.08 5H8.75C8.88261 5 9.00978 5.05268 9.10355 5.14645C9.19732 5.24021 9.25 5.36739 9.25 5.5C9.25 5.63261 9.19732 5.75979 9.10355 5.85355C9.00978 5.94732 8.88261 6 8.75 6H6.08C5.50794 6.00263 4.96006 6.23105 4.55555 6.63556C4.15104 7.04007 3.92263 7.58794 3.92 8.16V17.05C3.91999 17.6238 4.14724 18.1742 4.55204 18.5809C4.95683 18.9876 5.50621 19.2174 6.08 19.22H15C15.285 19.22 15.5671 19.1639 15.8304 19.0548C16.0937 18.9458 16.3329 18.7859 16.5344 18.5844C16.7359 18.3829 16.8958 18.1437 17.0048 17.8804C17.1139 17.6171 17.17 17.335 17.17 17.05V15.27C17.17 15.1374 17.2227 15.0102 17.3164 14.9164C17.4102 14.8227 17.5374 14.77 17.67 14.77C17.8026 14.77 17.9298 14.8227 18.0236 14.9164C18.1173 15.0102 18.17 15.1374 18.17 15.27V17.05C18.17 17.8907 17.836 18.697 17.2415 19.2915C16.647 19.886 15.8407 20.22 15 20.22Z" fill="white"/>
<path d="M17.63 8.52C17.5008 8.5201 17.3766 8.47018 17.2833 8.38069C17.1901 8.29121 17.1352 8.16911 17.13 8.04C17.1101 7.66947 16.9928 7.31074 16.79 7C16.6268 6.74186 16.4081 6.52325 16.15 6.36C15.8498 6.16604 15.5063 6.04924 15.15 6.02C15.0843 6.01743 15.0198 6.00193 14.9601 5.97439C14.9004 5.94685 14.8468 5.90782 14.8022 5.85952C14.7576 5.81123 14.723 5.75461 14.7003 5.69292C14.6776 5.63123 14.6673 5.56567 14.67 5.5C14.6672 5.37336 14.7135 5.25055 14.7993 5.15733C14.885 5.06411 15.0036 5.00772 15.13 5C15.6853 5.02474 16.2238 5.19736 16.69 5.5C17.0697 5.73909 17.3909 6.06031 17.63 6.44C17.9326 6.90618 18.1053 7.44475 18.13 8C18.1327 8.06567 18.1224 8.13123 18.0997 8.19292C18.077 8.25461 18.0424 8.31123 17.9978 8.35952C17.9532 8.40782 17.8996 8.44685 17.8399 8.47439C17.7802 8.50193 17.7157 8.51743 17.65 8.52H17.63Z" fill="white"/>
<path d="M13 13.1099H10.53C10.3974 13.1099 10.2702 13.0572 10.1764 12.9634C10.0827 12.8696 10.03 12.7425 10.03 12.6099V10.0899C10.0292 9.95939 10.0795 9.83379 10.17 9.73985L15.17 4.73985C15.2635 4.64824 15.3891 4.59692 15.52 4.59692C15.6509 4.59692 15.7765 4.64824 15.87 4.73985L16.74 5.60985C16.8316 5.70332 16.8829 5.82898 16.8829 5.95985C16.8829 6.09073 16.8316 6.21639 16.74 6.30985C16.6935 6.35672 16.6382 6.39391 16.5773 6.4193C16.5164 6.44468 16.451 6.45775 16.385 6.45775C16.319 6.45775 16.2536 6.44468 16.1927 6.4193C16.1318 6.39391 16.0765 6.35672 16.03 6.30985L15.52 5.80985L11 10.2999V12.1099H12.81L17.34 7.56985L16.83 7.05985C16.7384 6.96639 16.6871 6.84073 16.6871 6.70985C16.6871 6.57898 16.7384 6.45332 16.83 6.35985C16.8765 6.31299 16.9318 6.27579 16.9927 6.25041C17.0536 6.22502 17.119 6.21195 17.185 6.21195C17.251 6.21195 17.3164 6.22502 17.3773 6.25041C17.4382 6.27579 17.4935 6.31299 17.54 6.35985L18.4 7.21985C18.4469 7.26633 18.4841 7.32163 18.5094 7.38256C18.5348 7.44349 18.5479 7.50885 18.5479 7.57485C18.5479 7.64086 18.5348 7.70621 18.5094 7.76714C18.4841 7.82807 18.4469 7.88337 18.4 7.92985L13.4 12.9299C13.35 12.9867 13.2885 13.0321 13.2195 13.0632C13.1505 13.0942 13.0757 13.1101 13 13.1099Z" fill="white"/>
<path d="M18.08 8.0699C17.9465 8.07119 17.8176 8.02106 17.72 7.9299L16.86 7.0599C16.7684 6.96644 16.7171 6.84078 16.7171 6.7099C16.7171 6.57902 16.7684 6.45337 16.86 6.3599C16.9065 6.31304 16.9618 6.27584 17.0227 6.25045C17.0836 6.22507 17.149 6.212 17.215 6.212C17.281 6.212 17.3464 6.22507 17.4073 6.25045C17.4682 6.27584 17.5235 6.31304 17.57 6.3599L18.08 6.8699L19.88 5.0599L18.08 3.2599L16.27 5.0599L16.78 5.5699C16.8716 5.66337 16.9229 5.78902 16.9229 5.9199C16.9229 6.05078 16.8716 6.17644 16.78 6.2699C16.7335 6.31677 16.6782 6.35396 16.6173 6.37935C16.5564 6.40473 16.491 6.4178 16.425 6.4178C16.359 6.4178 16.2936 6.40473 16.2327 6.37935C16.1718 6.35396 16.1165 6.31677 16.07 6.2699L15.21 5.4099C15.162 5.36526 15.1238 5.31105 15.098 5.25077C15.0721 5.19049 15.0592 5.12548 15.06 5.0599C15.059 4.99282 15.0718 4.92626 15.0976 4.86433C15.1234 4.80241 15.1617 4.74644 15.21 4.6999L17.72 2.1999C17.7665 2.15304 17.8218 2.11584 17.8827 2.09046C17.9436 2.06507 18.009 2.052 18.075 2.052C18.141 2.052 18.2064 2.06507 18.2673 2.09046C18.3282 2.11584 18.3835 2.15304 18.43 2.1999L20.94 4.6999C21.0323 4.79505 21.0838 4.92237 21.0838 5.0549C21.0838 5.18743 21.0323 5.31475 20.94 5.4099L18.43 7.9299C18.3361 8.02044 18.2105 8.07068 18.08 8.0699Z" fill="white"/>
</svg>
