<svg width="24" height="24" viewBox="0 0 24 24" fill="none" xmlns="http://www.w3.org/2000/svg">
<path d="M12 22.47C9.92923 22.47 7.90497 21.856 6.18318 20.7055C4.4614 19.5551 3.11943 17.9199 2.32698 16.0067C1.53454 14.0936 1.32719 11.9884 1.73118 9.95744C2.13517 7.92646 3.13234 6.06088 4.5966 4.59663C6.06085 3.13237 7.92643 2.1352 9.95741 1.73121C11.9884 1.32722 14.0936 1.53457 16.0067 2.32702C17.9198 3.11946 19.555 4.46143 20.7055 6.18321C21.8559 7.905 22.47 9.92926 22.47 12C22.4647 14.7752 21.3599 17.4352 19.3976 19.3976C17.4352 21.36 14.7752 22.4647 12 22.47ZM12 2.53003C10.127 2.53003 8.29609 3.08544 6.73875 4.12602C5.18142 5.16659 3.96763 6.64561 3.25086 8.37602C2.5341 10.1064 2.34656 12.0105 2.71197 13.8475C3.07737 15.6845 3.9793 17.3719 5.3037 18.6963C6.62811 20.0207 8.3155 20.9227 10.1525 21.2881C11.9895 21.6535 13.8936 21.4659 15.624 20.7492C17.3544 20.0324 18.8334 18.8186 19.874 17.2613C20.9146 15.704 21.47 13.873 21.47 12C21.4674 9.48925 20.4688 7.08205 18.6934 5.30666C16.918 3.53126 14.5108 2.53268 12 2.53003Z" fill="white"/>
<path d="M13.92 15.82H10.08C9.99232 15.8216 9.90589 15.7991 9.83009 15.7551C9.75428 15.711 9.692 15.647 9.65 15.57L7.73 12.25C7.68611 12.174 7.66301 12.0878 7.66301 12C7.66301 11.9122 7.68611 11.826 7.73 11.75L9.65 8.43001C9.692 8.35304 9.75428 8.28904 9.83009 8.24497C9.90589 8.2009 9.99232 8.17843 10.08 8.18001H13.92C14.0077 8.17843 14.0941 8.2009 14.1699 8.24497C14.2457 8.28904 14.308 8.35304 14.35 8.43001L16.27 11.75C16.3139 11.826 16.337 11.9122 16.337 12C16.337 12.0878 16.3139 12.174 16.27 12.25L14.35 15.57C14.308 15.647 14.2457 15.711 14.1699 15.7551C14.0941 15.7991 14.0077 15.8216 13.92 15.82ZM10.37 14.82H13.63L15.26 12L13.63 9.18001H10.37L8.74 12L10.37 14.82Z" fill="white"/>
<path d="M8.16 12.5H2C1.86739 12.5 1.74021 12.4473 1.64645 12.3536C1.55268 12.2598 1.5 12.1326 1.5 12C1.5 11.8674 1.55268 11.7402 1.64645 11.6464C1.74021 11.5527 1.86739 11.5 2 11.5H8.16C8.29261 11.5 8.41979 11.5527 8.51355 11.6464C8.60732 11.7402 8.66 11.8674 8.66 12C8.66 12.1326 8.60732 12.2598 8.51355 12.3536C8.41979 12.4473 8.29261 12.5 8.16 12.5Z" fill="white"/>
<path d="M22 12.5H15.84C15.7074 12.5 15.5802 12.4473 15.4864 12.3536C15.3927 12.2598 15.34 12.1326 15.34 12C15.34 11.8674 15.3927 11.7402 15.4864 11.6464C15.5802 11.5527 15.7074 11.5 15.84 11.5H22C22.1326 11.5 22.2598 11.5527 22.3535 11.6464C22.4473 11.7402 22.5 11.8674 22.5 12C22.5 12.1326 22.4473 12.2598 22.3535 12.3536C22.2598 12.4473 22.1326 12.5 22 12.5Z" fill="white"/>
</svg>
