<svg width="24" height="24" viewBox="0 0 24 24" fill="none" xmlns="http://www.w3.org/2000/svg">
<path d="M6.5 21.1201C5.70435 21.1201 4.94129 20.804 4.37868 20.2414C3.81607 19.6788 3.5 18.9158 3.5 18.1201V11.1201C3.5 10.3245 3.81607 9.56141 4.37868 8.9988C4.94129 8.43619 5.70435 8.12012 6.5 8.12012C7.29565 8.12012 8.05871 8.43619 8.62132 8.9988C9.18393 9.56141 9.5 10.3245 9.5 11.1201V18.1201C9.5 18.9158 9.18393 19.6788 8.62132 20.2414C8.05871 20.804 7.29565 21.1201 6.5 21.1201ZM6.5 9.12012C5.96957 9.12012 5.46086 9.33083 5.08579 9.7059C4.71071 10.081 4.5 10.5897 4.5 11.1201V18.1201C4.5 18.6506 4.71071 19.1593 5.08579 19.5343C5.46086 19.9094 5.96957 20.1201 6.5 20.1201C7.03043 20.1201 7.53914 19.9094 7.91421 19.5343C8.28929 19.1593 8.5 18.6506 8.5 18.1201V11.1201C8.5 10.5897 8.28929 10.081 7.91421 9.7059C7.53914 9.33083 7.03043 9.12012 6.5 9.12012Z" fill="white"/>
<path d="M18.06 21.1201H10.94C10.6196 21.1201 10.3023 21.057 10.0063 20.9344C9.71023 20.8118 9.44124 20.632 9.21467 20.4055C8.98809 20.1789 8.80836 19.9099 8.68574 19.6139C8.56312 19.3178 8.50001 19.0005 8.50001 18.6801V8.62012C8.49516 8.59031 8.49516 8.55992 8.50001 8.53012C8.80808 6.74147 9.48955 5.0378 10.5 3.53012C10.7106 3.25771 11.0025 3.05947 11.3333 2.96417C11.6642 2.86887 12.0168 2.88146 12.34 3.00012C12.6752 3.1108 12.9673 3.32367 13.1753 3.60883C13.3834 3.89399 13.4969 4.23714 13.5 4.59012V8.12012H18.06C18.38 8.1188 18.697 8.18068 18.993 8.30221C19.289 8.42374 19.558 8.60252 19.7847 8.8283C20.0115 9.05408 20.1913 9.32241 20.3141 9.61788C20.4368 9.91336 20.5 10.2302 20.5 10.5501V18.6801C20.5 19.0005 20.4369 19.3178 20.3143 19.6139C20.1917 19.9099 20.0119 20.1789 19.7853 20.4055C19.5588 20.632 19.2898 20.8118 18.9938 20.9344C18.6977 21.057 18.3804 21.1201 18.06 21.1201ZM9.50001 8.66012V18.6601C9.50001 19.042 9.65172 19.4083 9.92177 19.6784C10.1918 19.9484 10.5581 20.1001 10.94 20.1001H18.06C18.4419 20.1001 18.8082 19.9484 19.0782 19.6784C19.3483 19.4083 19.5 19.042 19.5 18.6601V10.5501C19.5 10.3615 19.4627 10.1747 19.3902 10.0006C19.3177 9.82641 19.2115 9.66832 19.0776 9.5354C18.9438 9.40248 18.785 9.29736 18.6103 9.22609C18.4357 9.15481 18.2486 9.1188 18.06 9.12012H13C12.8674 9.12012 12.7402 9.06744 12.6465 8.97367C12.5527 8.8799 12.5 8.75273 12.5 8.62012V4.62012C12.5065 4.46443 12.4608 4.31104 12.3702 4.18425C12.2797 4.05745 12.1494 3.9645 12 3.92012C11.8679 3.87213 11.7238 3.86759 11.5889 3.90716C11.454 3.94673 11.3353 4.02835 11.25 4.14012C10.3653 5.51207 9.76982 7.0501 9.50001 8.66012Z" fill="white"/>
</svg>
