<svg width="24" height="24" viewBox="0 0 24 24" fill="none" xmlns="http://www.w3.org/2000/svg">
<path d="M12 15.24H6.35999C6.22738 15.24 6.1002 15.1873 6.00643 15.0936C5.91266 14.9998 5.85999 14.8726 5.85999 14.74V9.26001C5.85999 9.1274 5.91266 9.00022 6.00643 8.90646C6.1002 8.81269 6.22738 8.76001 6.35999 8.76001H12C12.1326 8.76001 12.2598 8.81269 12.3535 8.90646C12.4473 9.00022 12.5 9.1274 12.5 9.26001V14.74C12.5 14.8726 12.4473 14.9998 12.3535 15.0936C12.2598 15.1873 12.1326 15.24 12 15.24ZM6.85999 14.24H11.5V9.76001H6.85999V14.24Z" fill="white"/>
<path d="M17.64 15.24H12C11.8674 15.24 11.7402 15.1873 11.6464 15.0936C11.5527 14.9998 11.5 14.8726 11.5 14.74V9.26001C11.5 9.1274 11.5527 9.00022 11.6464 8.90646C11.7402 8.81269 11.8674 8.76001 12 8.76001H17.64C17.7726 8.76001 17.8998 8.81269 17.9936 8.90646C18.0873 9.00022 18.14 9.1274 18.14 9.26001V14.74C18.14 14.8726 18.0873 14.9998 17.9936 15.0936C17.8998 15.1873 17.7726 15.24 17.64 15.24ZM12.5 14.24H17.14V9.76001H12.5V14.24Z" fill="white"/>
<path d="M17.64 9.76003H12C11.8674 9.76003 11.7402 9.70735 11.6464 9.61358C11.5527 9.51981 11.5 9.39264 11.5 9.26003V3.78003C11.5 3.64742 11.5527 3.52024 11.6464 3.42648C11.7402 3.33271 11.8674 3.28003 12 3.28003H17.64C17.7726 3.28003 17.8998 3.33271 17.9936 3.42648C18.0873 3.52024 18.14 3.64742 18.14 3.78003V9.26003C18.14 9.39264 18.0873 9.51981 17.9936 9.61358C17.8998 9.70735 17.7726 9.76003 17.64 9.76003ZM12.5 8.76003H17.14V4.28003H12.5V8.76003Z" fill="white"/>
<path d="M12 20.73H6.35999C6.22738 20.73 6.1002 20.6773 6.00643 20.5835C5.91266 20.4898 5.85999 20.3626 5.85999 20.23V14.74C5.85999 14.6074 5.91266 14.4802 6.00643 14.3864C6.1002 14.2927 6.22738 14.24 6.35999 14.24H12C12.1326 14.24 12.2598 14.2927 12.3535 14.3864C12.4473 14.4802 12.5 14.6074 12.5 14.74V20.23C12.5 20.3626 12.4473 20.4898 12.3535 20.5835C12.2598 20.6773 12.1326 20.73 12 20.73ZM6.85999 19.73H11.5V15.24H6.85999V19.73Z" fill="white"/>
</svg>
