<svg width="24" height="24" viewBox="0 0 24 24" fill="none" xmlns="http://www.w3.org/2000/svg">
<path d="M12.14 21.45C12.0517 21.4506 11.9651 21.4263 11.89 21.38L4.14 16.91C4.06431 16.864 4.00162 16.7994 3.95786 16.7224C3.91411 16.6454 3.89075 16.5585 3.89 16.47V7.52997C3.89075 7.44141 3.91411 7.3545 3.95786 7.2775C4.00162 7.2005 4.06431 7.13595 4.14 7.08997L11.89 2.61997C11.966 2.57608 12.0522 2.55298 12.14 2.55298C12.2278 2.55298 12.314 2.57608 12.39 2.61997L20.14 7.08997C20.217 7.13444 20.2808 7.19866 20.3248 7.276C20.3687 7.35335 20.3912 7.44102 20.39 7.52997V16.47C20.3912 16.5589 20.3687 16.6466 20.3248 16.7239C20.2808 16.8013 20.217 16.8655 20.14 16.91L12.39 21.38C12.3159 21.4285 12.2286 21.4529 12.14 21.45ZM4.89 16.19L12.14 20.37L19.39 16.19V7.80997L12.14 3.62997L4.89 7.80997V16.19Z" fill="white"/>
<path d="M12.14 15.9301C12.0074 15.9301 11.8802 15.8774 11.7864 15.7836C11.6927 15.6899 11.64 15.5627 11.64 15.4301V8.73008C11.6451 8.62443 11.6823 8.52283 11.7466 8.43885C11.8109 8.35487 11.8993 8.29251 12 8.26009C12.0928 8.22514 12.1935 8.21692 12.2907 8.23637C12.388 8.25581 12.4778 8.30214 12.55 8.37009L15.29 11.1101C15.3366 11.1567 15.3736 11.212 15.3988 11.273C15.4241 11.3339 15.437 11.3992 15.437 11.4651C15.437 11.531 15.4241 11.5963 15.3988 11.6572C15.3736 11.7181 15.3366 11.7735 15.29 11.8201C15.2434 11.8667 15.188 11.9037 15.1271 11.9289C15.0662 11.9541 15.0009 11.9671 14.935 11.9671C14.8691 11.9671 14.8038 11.9541 14.7429 11.9289C14.682 11.9037 14.6266 11.8667 14.58 11.8201L12.64 9.93009V15.4301C12.64 15.5627 12.5873 15.6899 12.4936 15.7836C12.3998 15.8774 12.2726 15.9301 12.14 15.9301Z" fill="white"/>
<path d="M9.4 12C9.26811 11.9981 9.14232 11.9442 9.05 11.85C8.95775 11.7548 8.90616 11.6275 8.90616 11.495C8.90616 11.3624 8.95775 11.2351 9.05 11.14L11.79 8.39997C11.8842 8.30582 12.0118 8.25293 12.145 8.25293C12.2782 8.25293 12.4058 8.30582 12.5 8.39997C12.5942 8.49413 12.647 8.62182 12.647 8.75498C12.647 8.88813 12.5942 9.01582 12.5 9.10997L9.76 11.82C9.71534 11.8728 9.6604 11.916 9.59851 11.947C9.53662 11.9779 9.46908 11.996 9.4 12Z" fill="white"/>
</svg>
