<svg width="24" height="24" viewBox="0 0 24 24" fill="none" xmlns="http://www.w3.org/2000/svg">
<path d="M10.72 20.67C8.84108 20.67 7.00436 20.1129 5.44209 19.069C3.87982 18.0251 2.66218 16.5414 1.94315 14.8055C1.22412 13.0696 1.03599 11.1595 1.40255 9.31669C1.7691 7.47387 2.67389 5.78113 4.00249 4.45253C5.33109 3.12394 7.02383 2.21915 8.86665 1.85259C10.7095 1.48603 12.6196 1.67416 14.3555 2.39319C16.0914 3.11223 17.5751 4.32986 18.619 5.89213C19.6628 7.4544 20.22 9.29113 20.22 11.17C20.2147 13.688 19.2121 16.1013 17.4317 17.8817C15.6512 19.6622 13.2379 20.6648 10.72 20.67ZM10.72 2.67005C9.03887 2.67005 7.39548 3.16856 5.99766 4.10256C4.59984 5.03655 3.51037 6.36407 2.86703 7.91724C2.22368 9.47041 2.05536 11.1795 2.38333 12.8283C2.7113 14.4772 3.52085 15.9917 4.7096 17.1805C5.89834 18.3692 7.4129 19.1787 9.06174 19.5067C10.7106 19.8347 12.4196 19.6664 13.9728 19.023C15.526 18.3797 16.8535 17.2902 17.7875 15.8924C18.7215 14.4946 19.22 12.8512 19.22 11.17C19.2174 8.91652 18.321 6.75605 16.7275 5.16256C15.134 3.56908 12.9735 2.67269 10.72 2.67005Z" fill="white"/>
<path d="M13.28 22.33C10.8772 22.3296 8.56306 21.4225 6.8 19.79C6.75313 19.7435 6.71594 19.6882 6.69055 19.6273C6.66517 19.5664 6.6521 19.501 6.6521 19.435C6.6521 19.369 6.66517 19.3036 6.69055 19.2427C6.71594 19.1818 6.75313 19.1265 6.8 19.08C6.84562 19.0334 6.90008 18.9964 6.96018 18.9712C7.02028 18.9459 7.08481 18.9329 7.15 18.9329C7.21519 18.9329 7.27972 18.9459 7.33982 18.9712C7.39992 18.9964 7.45438 19.0334 7.5 19.08C8.41207 19.9106 9.49382 20.533 10.6703 20.9041C11.8468 21.2751 13.0899 21.3859 14.3134 21.2289C15.537 21.0718 16.7118 20.6506 17.7564 19.9945C18.8011 19.3383 19.6905 18.4629 20.3633 17.4288C21.036 16.3948 21.4758 15.2268 21.6524 14.0059C21.8289 12.785 21.7379 11.5403 21.3856 10.3581C21.0334 9.17584 20.4283 8.08431 19.6123 7.15913C18.7963 6.23394 17.789 5.49722 16.66 5C16.5998 4.97494 16.5452 4.93811 16.4995 4.89169C16.4537 4.84526 16.4176 4.79017 16.3934 4.72963C16.3692 4.6691 16.3573 4.60434 16.3584 4.53915C16.3596 4.47397 16.3737 4.40966 16.4 4.35C16.425 4.28856 16.4622 4.23283 16.5093 4.18619C16.5565 4.13955 16.6126 4.10296 16.6743 4.07866C16.736 4.05435 16.802 4.04282 16.8683 4.04477C16.9346 4.04672 16.9998 4.06211 17.06 4.09C19.0606 4.9612 20.7004 6.49457 21.7036 8.43238C22.7068 10.3702 23.0124 12.5943 22.5689 14.7308C22.1254 16.8674 20.9599 18.7861 19.2683 20.1646C17.5767 21.543 15.4621 22.297 13.28 22.3V22.33Z" fill="white"/>
<path d="M7.72001 16.2901C7.61461 16.2917 7.51198 16.2563 7.43001 16.1901C7.35313 16.1386 7.29315 16.0656 7.25758 15.9802C7.222 15.8949 7.21241 15.8009 7.23001 15.7101L7.76001 12.6201L5.51001 10.4301C5.44397 10.3646 5.39748 10.2821 5.37576 10.1917C5.35403 10.1014 5.35793 10.0067 5.38701 9.91843C5.41609 9.83015 5.46921 9.75172 5.5404 9.69195C5.61158 9.63218 5.69802 9.59343 5.79001 9.58007L8.89001 9.13007L10.28 6.32007C10.3263 6.24347 10.3916 6.18013 10.4696 6.13616C10.5475 6.09219 10.6355 6.06909 10.725 6.06909C10.8145 6.06909 10.9025 6.09219 10.9805 6.13616C11.0584 6.18013 11.1237 6.24347 11.17 6.32007L12.56 9.13007L15.66 9.58007C15.752 9.59343 15.8384 9.63218 15.9096 9.69195C15.9808 9.75172 16.0339 9.83015 16.063 9.91843C16.0921 10.0067 16.096 10.1014 16.0743 10.1917C16.0525 10.2821 16.006 10.3646 15.94 10.4301L13.69 12.6201L14.22 15.7101C14.2335 15.8007 14.2218 15.8934 14.1863 15.9779C14.1507 16.0624 14.0925 16.1354 14.0182 16.1891C13.9439 16.2428 13.8562 16.275 13.7648 16.2822C13.6735 16.2895 13.5818 16.2714 13.5 16.2301L10.72 14.7701L8.00001 16.2301C7.91543 16.2793 7.81735 16.3004 7.72001 16.2901ZM10.72 13.7101C10.8036 13.7109 10.8859 13.7314 10.96 13.7701L13.07 14.8801L12.66 12.5301C12.6484 12.4501 12.6559 12.3685 12.682 12.292C12.708 12.2155 12.7519 12.1463 12.81 12.0901L14.51 10.4201L12.16 10.0801C12.0792 10.0702 12.0022 10.0403 11.9358 9.99315C11.8695 9.94601 11.8159 9.88309 11.78 9.81007L10.72 7.67007L9.67001 9.81007C9.63407 9.88309 9.58051 9.94601 9.51417 9.99315C9.44783 10.0403 9.37079 10.0702 9.29001 10.0801L6.94001 10.4201L8.64001 12.0901C8.69809 12.1463 8.74197 12.2155 8.76805 12.292C8.79413 12.3685 8.80166 12.4501 8.79001 12.5301L8.38001 14.8801L10.49 13.7701C10.5601 13.7303 10.6394 13.7096 10.72 13.7101Z" fill="white"/>
</svg>
