<svg width="24" height="24" viewBox="0 0 24 24" fill="none" xmlns="http://www.w3.org/2000/svg">
<path d="M8.79001 9.48002C8.72755 9.4949 8.66247 9.4949 8.60001 9.48002C8.53572 9.45675 8.47758 9.41913 8.43001 9.37002C8.3407 9.27537 8.29095 9.15016 8.29095 9.02002C8.29095 8.88989 8.3407 8.76468 8.43001 8.67002C8.47447 8.61739 8.52933 8.57452 8.59114 8.54409C8.65295 8.51366 8.72039 8.49633 8.78921 8.49319C8.85804 8.49006 8.92677 8.50118 8.99109 8.52586C9.05542 8.55054 9.11395 8.58825 9.16301 8.63662C9.21207 8.68499 9.25061 8.74298 9.2762 8.80695C9.30179 8.87092 9.31389 8.93949 9.31173 9.00835C9.30957 9.07721 9.2932 9.14489 9.26365 9.20712C9.2341 9.26936 9.19201 9.32482 9.14001 9.37002C9.09904 9.40334 9.05125 9.42724 9.00001 9.44002C8.93449 9.47082 8.86226 9.48458 8.79001 9.48002Z" fill="white"/>
<path d="M15.17 9.48005C15.1075 9.49421 15.0425 9.49421 14.98 9.48005C14.9188 9.45638 14.864 9.41871 14.82 9.37005C14.7714 9.32163 14.7331 9.26391 14.7073 9.20033C14.6815 9.13676 14.6688 9.06864 14.67 9.00005C14.6743 8.86575 14.7277 8.7377 14.82 8.64005C14.867 8.59758 14.9212 8.56373 14.98 8.54005C15.0717 8.50261 15.1721 8.49214 15.2696 8.50985C15.367 8.52757 15.4574 8.57274 15.53 8.64005C15.6195 8.73868 15.6693 8.86689 15.67 9.00005C15.666 9.12956 15.6164 9.25351 15.53 9.35005C15.4314 9.43847 15.3023 9.48509 15.17 9.48005Z" fill="white"/>
<path d="M8.79001 15.48C8.65488 15.4797 8.5254 15.4257 8.43001 15.33C8.3407 15.2353 8.29095 15.1101 8.29095 14.98C8.29095 14.8498 8.3407 14.7246 8.43001 14.63C8.47447 14.5774 8.52933 14.5345 8.59114 14.504C8.65295 14.4736 8.72039 14.4563 8.78921 14.4532C8.85804 14.45 8.92677 14.4611 8.99109 14.4858C9.05542 14.5105 9.11395 14.5482 9.16301 14.5966C9.21207 14.645 9.25061 14.7029 9.2762 14.7669C9.30179 14.8309 9.31389 14.8994 9.31173 14.9683C9.30957 15.0372 9.2932 15.1048 9.26365 15.1671C9.2341 15.2293 9.19201 15.2848 9.14001 15.33C9.09536 15.378 9.04116 15.4162 8.98088 15.442C8.9206 15.4679 8.85559 15.4808 8.79001 15.48Z" fill="white"/>
<path d="M15.17 15.48C15.1075 15.4942 15.0426 15.4942 14.98 15.48C14.9188 15.4563 14.864 15.4187 14.82 15.37C14.7724 15.3251 14.7349 15.2706 14.71 15.21C14.7007 15.147 14.7007 15.083 14.71 15.02C14.6996 14.9571 14.6996 14.8929 14.71 14.83C14.7349 14.7695 14.7724 14.7149 14.82 14.67C14.864 14.6213 14.9188 14.5837 14.98 14.56C15.0724 14.5226 15.1737 14.5131 15.2715 14.5326C15.3692 14.5522 15.4591 14.5999 15.53 14.67C15.6193 14.7647 15.6691 14.8899 15.6691 15.02C15.6691 15.1501 15.6193 15.2754 15.53 15.37C15.4802 15.4112 15.4228 15.4421 15.361 15.461C15.2992 15.4798 15.2343 15.4863 15.17 15.48Z" fill="white"/>
<path d="M17 20.52H7.00001C6.53701 20.5227 6.07809 20.4335 5.64983 20.2575C5.22156 20.0815 4.83247 19.8224 4.50508 19.495C4.17768 19.1676 3.9185 18.7785 3.74255 18.3502C3.56659 17.922 3.47735 17.463 3.48001 17V7.00004C3.47735 6.53704 3.56659 6.07812 3.74255 5.64986C3.9185 5.2216 4.17768 4.8325 4.50508 4.50511C4.83247 4.17771 5.22156 3.91853 5.64983 3.74258C6.07809 3.56662 6.53701 3.47738 7.00001 3.48004H17C17.463 3.47738 17.9219 3.56662 18.3502 3.74258C18.7785 3.91853 19.1675 4.17771 19.4949 4.50511C19.8223 4.8325 20.0815 5.2216 20.2575 5.64986C20.4334 6.07812 20.5227 6.53704 20.52 7.00004V17C20.5227 17.463 20.4334 17.922 20.2575 18.3502C20.0815 18.7785 19.8223 19.1676 19.4949 19.495C19.1675 19.8224 18.7785 20.0815 18.3502 20.2575C17.9219 20.4335 17.463 20.5227 17 20.52ZM7.00001 4.48004C6.66833 4.47737 6.33945 4.54074 6.0325 4.66643C5.72556 4.79213 5.4467 4.97765 5.21216 5.21219C4.97762 5.44673 4.7921 5.72559 4.6664 6.03253C4.54071 6.33948 4.47734 6.66836 4.48001 7.00004V17C4.47734 17.3317 4.54071 17.6606 4.6664 17.9675C4.7921 18.2745 4.97762 18.5533 5.21216 18.7879C5.4467 19.0224 5.72556 19.2079 6.0325 19.3336C6.33945 19.4593 6.66833 19.5227 7.00001 19.52H17C17.663 19.52 18.2989 19.2566 18.7678 18.7878C19.2366 18.319 19.5 17.6831 19.5 17.02V7.00004C19.5026 6.67005 19.4399 6.34281 19.3155 6.03719C19.191 5.73156 19.0073 5.4536 18.7749 5.21933C18.5425 4.98506 18.266 4.79912 17.9614 4.67223C17.6567 4.54535 17.33 4.48003 17 4.48004H7.00001Z" fill="white"/>
</svg>
