<svg width="24" height="24" viewBox="0 0 24 24" fill="none" xmlns="http://www.w3.org/2000/svg">
<path d="M12 12.52C11.9375 12.5342 11.8725 12.5342 11.81 12.52C11.7476 12.4987 11.6922 12.4606 11.65 12.41C11.6022 12.3651 11.564 12.3109 11.538 12.2507C11.5119 12.1905 11.4985 12.1256 11.4985 12.06C11.4985 11.9944 11.5119 11.9295 11.538 11.8693C11.564 11.8091 11.6022 11.7549 11.65 11.71C11.6922 11.6594 11.7476 11.6213 11.81 11.6C11.9317 11.55 12.0683 11.55 12.19 11.6C12.2524 11.6213 12.3077 11.6594 12.35 11.71C12.3978 11.7549 12.4359 11.8091 12.462 11.8693C12.4881 11.9295 12.5015 11.9944 12.5015 12.06C12.5015 12.1256 12.4881 12.1905 12.462 12.2507C12.4359 12.3109 12.3978 12.3651 12.35 12.41C12.3077 12.4606 12.2524 12.4987 12.19 12.52C12.1275 12.5342 12.0625 12.5342 12 12.52Z" fill="white"/>
<path d="M17 20.5401H7C6.5353 20.5427 6.07473 20.4529 5.64514 20.2757C5.21555 20.0985 4.82555 19.8375 4.49789 19.508C4.17023 19.1784 3.91147 18.787 3.73671 18.3564C3.56195 17.9258 3.47468 17.4647 3.48 17.0001V7.00006C3.47999 6.53874 3.57118 6.08198 3.74832 5.65603C3.92546 5.23008 4.18506 4.84335 4.51218 4.51809C4.83931 4.19282 5.22751 3.93543 5.65446 3.76072C6.08141 3.58601 6.53869 3.49742 7 3.50006H17C17.4613 3.49742 17.9186 3.58601 18.3455 3.76072C18.7725 3.93543 19.1607 4.19282 19.4878 4.51809C19.8149 4.84335 20.0745 5.23008 20.2517 5.65603C20.4288 6.08198 20.52 6.53874 20.52 7.00006V17.0001C20.5253 17.4647 20.438 17.9258 20.2633 18.3564C20.0885 18.787 19.8298 19.1784 19.5021 19.508C19.1744 19.8375 18.7844 20.0985 18.3549 20.2757C17.9253 20.4529 17.4647 20.5427 17 20.5401ZM7 4.50006C6.67001 4.49742 6.34277 4.56013 6.03714 4.68459C5.73152 4.80904 5.45355 4.99277 5.21929 5.22518C4.98502 5.45759 4.79908 5.73408 4.67219 6.03871C4.54531 6.34333 4.47999 6.67006 4.48 7.00006V17.0001C4.47465 17.3334 4.53603 17.6645 4.66053 17.9737C4.78503 18.283 4.97013 18.5642 5.20493 18.8009C5.43974 19.0376 5.71951 19.2249 6.02779 19.3518C6.33607 19.4788 6.66662 19.5428 7 19.5401H17C17.663 19.5401 18.2989 19.2767 18.7678 18.8078C19.2366 18.339 19.5 17.7031 19.5 17.0401V7.00006C19.5 6.33702 19.2366 5.70113 18.7678 5.23229C18.2989 4.76345 17.663 4.50006 17 4.50006H7Z" fill="white"/>
</svg>
