<svg width="24" height="24" viewBox="0 0 24 24" fill="none" xmlns="http://www.w3.org/2000/svg">
<path d="M12.14 22.4401C3.69003 22.4401 3.59003 14.0201 3.59003 13.9301V5.84008C3.59191 5.74556 3.62003 5.65343 3.67123 5.57397C3.72244 5.4945 3.79473 5.43084 3.88003 5.39008L11.93 1.61008C11.9979 1.58063 12.0711 1.56543 12.145 1.56543C12.219 1.56543 12.2922 1.58063 12.36 1.61008L20.36 5.39008C20.4468 5.42887 20.5204 5.49207 20.5719 5.57197C20.6234 5.65187 20.6505 5.74502 20.65 5.84008V13.9301C20.69 14.0001 20.59 22.4401 12.14 22.4401ZM4.59003 6.16008V13.9301C4.59003 14.2401 4.70003 21.4401 12.14 21.4401C19.58 21.4401 19.69 14.2401 19.69 13.9301V6.16008L12.14 2.61008L4.59003 6.16008Z" fill="white"/>
</svg>
