<svg width="24" height="24" viewBox="0 0 24 24" fill="none" xmlns="http://www.w3.org/2000/svg">
<path d="M12 22.5C11.1112 22.5501 10.2223 22.404 9.39624 22.0722C8.57019 21.7404 7.82723 21.231 7.22001 20.58C5.00001 18.08 5.48001 14.11 5.50001 13.94V6C5.50001 4.44 6.23001 1.5 9.00001 1.5C11.77 1.5 12.5 4.44 12.5 6V14C12.5 14.1326 12.4473 14.2598 12.3536 14.3536C12.2598 14.4473 12.1326 14.5 12 14.5C11.8674 14.5 11.7402 14.4473 11.6465 14.3536C11.5527 14.2598 11.5 14.1326 11.5 14V6C11.5 5.86 11.5 2.5 9.00001 2.5C6.50001 2.5 6.50001 5.86 6.50001 6V14C6.50001 14.1 6.07001 17.76 7.97001 19.92C8.48186 20.4582 9.10488 20.8784 9.7957 21.1513C10.4865 21.4242 11.2285 21.5432 11.97 21.5C12.7115 21.5432 13.4535 21.4242 14.1443 21.1513C14.8351 20.8784 15.4582 20.4582 15.97 19.92C17.87 17.76 17.45 14.1 17.44 14.06V2C17.44 1.86739 17.4927 1.74021 17.5865 1.64645C17.6802 1.55268 17.8074 1.5 17.94 1.5C18.0726 1.5 18.1998 1.55268 18.2936 1.64645C18.3873 1.74021 18.44 1.86739 18.44 2V14C18.44 14.11 18.93 18.08 16.72 20.58C16.1194 21.223 15.3862 21.7277 14.5712 22.0593C13.7562 22.3908 12.8789 22.5412 12 22.5Z" fill="white"/>
</svg>
