<svg width="24" height="24" viewBox="0 0 24 24" fill="none" xmlns="http://www.w3.org/2000/svg">
<path d="M16.79 21.88H6.78999C5.86174 21.88 4.9715 21.5113 4.31512 20.8549C3.65874 20.1985 3.28999 19.3083 3.28999 18.38V8.38C3.29263 7.45256 3.66223 6.56385 4.31803 5.90805C4.97384 5.25224 5.86255 4.88264 6.78999 4.88H16.79C17.7174 4.88264 18.6061 5.25224 19.262 5.90805C19.9178 6.56385 20.2874 7.45256 20.29 8.38V18.38C20.29 19.3083 19.9212 20.1985 19.2649 20.8549C18.6085 21.5113 17.7183 21.88 16.79 21.88ZM6.78999 5.88C6.12776 5.88264 5.49341 6.14688 5.02514 6.61515C4.55686 7.08342 4.29263 7.71777 4.28999 8.38V18.38C4.28999 19.043 4.55339 19.6789 5.02223 20.1478C5.49107 20.6166 6.12695 20.88 6.78999 20.88H16.79C17.453 20.88 18.0889 20.6166 18.5578 20.1478C19.0266 19.6789 19.29 19.043 19.29 18.38V8.38C19.2874 7.71777 19.0231 7.08342 18.5549 6.61515C18.0866 6.14688 17.4522 5.88264 16.79 5.88H6.78999Z" fill="white"/>
<path d="M21.65 11.1801H1.89999C1.76739 11.1801 1.64021 11.1274 1.54644 11.0336C1.45267 10.9398 1.39999 10.8127 1.39999 10.6801C1.39999 10.5474 1.45267 10.4203 1.54644 10.3265C1.64021 10.2327 1.76739 10.1801 1.89999 10.1801H21.65C21.7826 10.1801 21.9098 10.2327 22.0035 10.3265C22.0973 10.4203 22.15 10.5474 22.15 10.6801C22.1474 10.8119 22.0939 10.9376 22.0007 11.0308C21.9075 11.124 21.7818 11.1775 21.65 11.1801Z" fill="white"/>
<path d="M11.77 5.83002C11.7051 5.83273 11.6403 5.82165 11.58 5.79752C11.5197 5.77339 11.4651 5.73675 11.42 5.69002L8.78999 3.06002C8.74312 3.01354 8.70593 2.95824 8.68054 2.89731C8.65516 2.83638 8.64209 2.77103 8.64209 2.70502C8.64209 2.63902 8.65516 2.57366 8.68054 2.51274C8.70593 2.45181 8.74312 2.3965 8.78999 2.35002C8.88514 2.25777 9.01246 2.20619 9.14499 2.20619C9.27752 2.20619 9.40484 2.25777 9.49999 2.35002L11.77 4.63002L14.11 2.29002C14.2035 2.19841 14.3291 2.14709 14.46 2.14709C14.5909 2.14709 14.7165 2.19841 14.81 2.29002C14.8569 2.3365 14.8941 2.39181 14.9194 2.45273C14.9448 2.51366 14.9579 2.57902 14.9579 2.64502C14.9579 2.71103 14.9448 2.77638 14.9194 2.83731C14.8941 2.89824 14.8569 2.95354 14.81 3.00002L12.12 5.69002C12.0748 5.73675 12.0203 5.77339 11.96 5.79752C11.8997 5.82165 11.8349 5.83273 11.77 5.83002Z" fill="white"/>
<path d="M11.77 21.8801C11.6374 21.8801 11.5102 21.8274 11.4164 21.7336C11.3227 21.6398 11.27 21.5127 11.27 21.3801V10.6801C11.27 10.5474 11.3227 10.4203 11.4164 10.3265C11.5102 10.2327 11.6374 10.1801 11.77 10.1801C11.9026 10.1801 12.0298 10.2327 12.1235 10.3265C12.2173 10.4203 12.27 10.5474 12.27 10.6801V21.3801C12.27 21.5127 12.2173 21.6398 12.1235 21.7336C12.0298 21.8274 11.9026 21.8801 11.77 21.8801Z" fill="white"/>
</svg>
