<svg width="24" height="24" viewBox="0 0 24 24" fill="none" xmlns="http://www.w3.org/2000/svg">
<path d="M18 20.5399H5.99998C5.53697 20.5399 5.07856 20.4481 4.65129 20.2697C4.22402 20.0913 3.83639 19.8299 3.51086 19.5007C3.18533 19.1714 2.92836 18.7809 2.75484 18.3516C2.58132 17.9223 2.49469 17.4629 2.49998 16.9999V9.99992C2.51051 9.07861 2.88391 8.19861 3.53915 7.55086C4.19439 6.90311 5.07862 6.53986 5.99998 6.53992H18C18.9214 6.53986 19.8056 6.90311 20.4608 7.55086C21.1161 8.19861 21.4895 9.07861 21.5 9.99992V16.9999C21.5053 17.4629 21.4187 17.9223 21.2451 18.3516C21.0716 18.7809 20.8146 19.1714 20.4891 19.5007C20.1636 19.8299 19.7759 20.0913 19.3487 20.2697C18.9214 20.4481 18.463 20.5399 18 20.5399ZM5.99998 7.53992C5.3446 7.5424 4.71617 7.80113 4.24902 8.26081C3.78186 8.72049 3.51304 9.34465 3.49998 9.99992V16.9999C3.49468 17.3316 3.55542 17.661 3.67868 17.9689C3.80194 18.2769 3.98525 18.5572 4.21792 18.7936C4.4506 19.03 4.72799 19.2177 5.03395 19.3459C5.3399 19.474 5.66829 19.54 5.99998 19.5399H18C18.3317 19.54 18.6601 19.474 18.966 19.3459C19.272 19.2177 19.5494 19.03 19.782 18.7936C20.0147 18.5572 20.198 18.2769 20.3213 17.9689C20.4445 17.661 20.5053 17.3316 20.5 16.9999V9.99992C20.4869 9.34465 20.2181 8.72049 19.7509 8.26081C19.2838 7.80113 18.6554 7.5424 18 7.53992H5.99998Z" fill="white"/>
<path d="M21 17H15.45C14.6716 16.9871 13.9287 16.6722 13.3783 16.1217C12.8278 15.5713 12.5129 14.8284 12.5 14.05V13C12.4999 12.2129 12.8091 11.4574 13.3609 10.8962C13.9128 10.335 14.663 10.0131 15.45 10H21C21.1326 10 21.2598 10.0527 21.3536 10.1464C21.4473 10.2402 21.5 10.3674 21.5 10.5C21.5 10.6326 21.4473 10.7598 21.3536 10.8536C21.2598 10.9473 21.1326 11 21 11H15.45C14.9283 11.013 14.4323 11.2295 14.068 11.6032C13.7037 11.9768 13.4998 12.4781 13.5 13V14.1C13.5251 14.6044 13.7401 15.0806 14.1018 15.433C14.4635 15.7855 14.9451 15.988 15.45 16H21C21.1326 16 21.2598 16.0527 21.3536 16.1464C21.4473 16.2402 21.5 16.3674 21.5 16.5C21.5 16.6326 21.4473 16.7598 21.3536 16.8536C21.2598 16.9473 21.1326 17 21 17Z" fill="white"/>
<path d="M17 13.9999C16.8695 14.0007 16.7439 13.9505 16.65 13.8599C16.6014 13.8159 16.5637 13.7611 16.54 13.6999C16.526 13.634 16.526 13.5658 16.54 13.4999C16.5392 13.4343 16.5521 13.3693 16.578 13.3091C16.6038 13.2488 16.642 13.1946 16.69 13.1499C16.7586 13.0795 16.8468 13.0314 16.9431 13.0118C17.0394 12.9922 17.1394 13.002 17.23 13.0399C17.2906 13.0648 17.3451 13.1023 17.39 13.1499C17.438 13.1946 17.4762 13.2488 17.502 13.3091C17.5279 13.3693 17.5408 13.4343 17.54 13.4999C17.5541 13.5658 17.5541 13.634 17.54 13.6999C17.5163 13.7611 17.4787 13.8159 17.43 13.8599C17.3744 13.9154 17.3065 13.957 17.2317 13.9813C17.157 14.0056 17.0776 14.012 17 13.9999Z" fill="white"/>
<path d="M6.32999 7.53995C6.19738 7.55984 6.0623 7.52624 5.95447 7.44653C5.84663 7.36683 5.77488 7.24755 5.75499 7.11495C5.73509 6.98234 5.7687 6.84726 5.8484 6.73943C5.9281 6.63159 6.04738 6.55984 6.17999 6.53995L15.42 3.53995C15.6544 3.46386 15.9033 3.44331 16.147 3.47992C16.3907 3.51652 16.6226 3.60929 16.8243 3.75088C17.0261 3.89247 17.1921 4.07902 17.3094 4.29579C17.4266 4.51256 17.4919 4.75363 17.5 4.99995V6.99995C17.5 7.13255 17.4473 7.25973 17.3535 7.3535C17.2598 7.44727 17.1326 7.49995 17 7.49995C16.8674 7.49995 16.7402 7.44727 16.6464 7.3535C16.5527 7.25973 16.5 7.13255 16.5 6.99995V4.99995C16.5 4.90821 16.4783 4.81777 16.4365 4.73607C16.3948 4.65437 16.3343 4.58372 16.26 4.52995C16.1842 4.47571 16.0967 4.44019 16.0046 4.42629C15.9125 4.41238 15.8184 4.42049 15.73 4.44995L6.48999 7.44995C6.44357 7.49086 6.38905 7.52153 6.32999 7.53995Z" fill="white"/>
</svg>
