<svg width="24" height="24" viewBox="0 0 24 24" fill="none" xmlns="http://www.w3.org/2000/svg">
<path d="M20.62 19.88H3.39999C3.01185 19.88 2.63946 19.7265 2.36407 19.453C2.08867 19.1795 1.93263 18.8081 1.92999 18.42V7.62C1.92999 6.69174 2.29874 5.8015 2.95512 5.14512C3.6115 4.48874 4.50173 4.12 5.42999 4.12H18.59C19.5182 4.12 20.4085 4.48874 21.0649 5.14512C21.7212 5.8015 22.09 6.69174 22.09 7.62V18.42C22.0874 18.8081 21.9313 19.1795 21.6559 19.453C21.3805 19.7265 21.0081 19.88 20.62 19.88ZM5.42999 5.12C4.76695 5.12 4.13107 5.38339 3.66223 5.85223C3.19338 6.32107 2.92999 6.95695 2.92999 7.62V18.42C2.93261 18.5429 2.98328 18.6599 3.07114 18.7459C3.159 18.8319 3.27705 18.88 3.39999 18.88H20.62C20.7429 18.88 20.861 18.8319 20.9488 18.7459C21.0367 18.6599 21.0874 18.5429 21.09 18.42V7.62C21.09 6.95695 20.8266 6.32107 20.3578 5.85223C19.8889 5.38339 19.253 5.12 18.59 5.12H5.42999Z" fill="white"/>
<path d="M12 15.2899C11.3497 15.288 10.7146 15.0933 10.1749 14.7306C9.63517 14.3679 9.21504 13.8534 8.96756 13.2521C8.72008 12.6507 8.65636 11.9895 8.78443 11.352C8.9125 10.7145 9.22663 10.1292 9.68714 9.67005C10.1476 9.21094 10.7339 8.89859 11.3718 8.77245C12.0097 8.64631 12.6707 8.71205 13.2713 8.96135C13.8719 9.21066 14.3851 9.63235 14.7462 10.1732C15.1073 10.714 15.3 11.3497 15.3 11.9999C15.2973 12.8734 14.9485 13.7102 14.3299 14.3269C13.7113 14.9436 12.8735 15.29 12 15.2899ZM12 9.70995C11.5475 9.71192 11.1057 9.84791 10.7305 10.1007C10.3552 10.3536 10.0632 10.7119 9.89145 11.1305C9.71965 11.5491 9.67573 12.0092 9.76521 12.4528C9.8547 12.8964 10.0736 13.3035 10.3942 13.6227C10.7149 13.942 11.123 14.1591 11.5669 14.2466C12.0108 14.3342 12.4708 14.2883 12.8886 14.1147C13.3065 13.941 13.6635 13.6475 13.9147 13.2712C14.1659 12.8948 14.3 12.4524 14.3 11.9999C14.2973 11.3917 14.0539 10.8092 13.6228 10.3801C13.1918 9.95089 12.6083 9.70994 12 9.70995Z" fill="white"/>
<path d="M21.58 12.5H14.79C14.6574 12.5 14.5302 12.4473 14.4364 12.3536C14.3427 12.2598 14.29 12.1326 14.29 12C14.2925 11.8682 14.346 11.7425 14.4393 11.6493C14.5325 11.5561 14.6582 11.5026 14.79 11.5H21.58C21.7126 11.5 21.8398 11.5527 21.9335 11.6464C22.0273 11.7402 22.08 11.8674 22.08 12C22.08 12.1326 22.0273 12.2598 21.9335 12.3536C21.8398 12.4473 21.7126 12.5 21.58 12.5Z" fill="white"/>
<path d="M9.21999 12.5H2.42999C2.29738 12.5 2.17021 12.4473 2.07644 12.3536C1.98267 12.2598 1.92999 12.1326 1.92999 12C1.93255 11.8682 1.98605 11.7425 2.07927 11.6493C2.17249 11.5561 2.29819 11.5026 2.42999 11.5H9.21999C9.3526 11.5 9.47978 11.5527 9.57355 11.6464C9.66731 11.7402 9.71999 11.8674 9.71999 12C9.71999 12.1326 9.66731 12.2598 9.57355 12.3536C9.47978 12.4473 9.3526 12.5 9.21999 12.5Z" fill="white"/>
</svg>
