<svg width="24" height="24" viewBox="0 0 24 24" fill="none" xmlns="http://www.w3.org/2000/svg">
<path d="M13.71 16.0698C13.6111 16.0698 13.5145 16.0405 13.4322 15.9856C13.35 15.9306 13.2859 15.8525 13.2481 15.7612C13.2102 15.6698 13.2003 15.5693 13.2196 15.4723C13.2389 15.3753 13.2865 15.2862 13.3565 15.2163C13.4264 15.1463 13.5155 15.0987 13.6125 15.0794C13.7095 15.0601 13.81 15.07 13.9014 15.1079C13.9927 15.1457 14.0708 15.2098 14.1258 15.292C14.1807 15.3743 14.21 15.4709 14.21 15.5698C14.21 15.7024 14.1573 15.8296 14.0636 15.9234C13.9698 16.0171 13.8426 16.0698 13.71 16.0698Z" fill="white"/>
<path d="M13.5 13.58C13.3674 13.58 13.2402 13.5273 13.1464 13.4335C13.0527 13.3398 13 13.2126 13 13.08C13 12.9474 13.0527 12.8202 13.1464 12.7264C13.2402 12.6327 13.3674 12.58 13.5 12.58C14.0254 12.5435 14.5175 12.309 14.8768 11.9239C15.236 11.5388 15.4359 11.0317 15.4359 10.505C15.4359 9.97829 15.236 9.4712 14.8768 9.08608C14.5175 8.70096 14.0254 8.46649 13.5 8.42999C12.7528 8.34338 12.0009 8.54746 11.4 8.99999C11.1564 9.24519 10.9686 9.54011 10.8495 9.86458C10.7305 10.1891 10.6829 10.5354 10.71 10.88C10.71 11.0126 10.6573 11.1398 10.5636 11.2335C10.4698 11.3273 10.3426 11.38 10.21 11.38C10.0774 11.38 9.95021 11.3273 9.85644 11.2335C9.76268 11.1398 9.71 11.0126 9.71 10.88C9.67599 10.3953 9.74782 9.90905 9.9205 9.45491C10.0932 9.00077 10.3626 8.58962 10.71 8.24999C11.5097 7.62581 12.5216 7.33874 13.53 7.44999C14.3152 7.50181 15.0509 7.85224 15.5859 8.42934C16.1209 9.00644 16.4147 9.76644 16.407 10.5533C16.3993 11.3403 16.0907 12.0944 15.5446 12.6609C14.9984 13.2275 14.2561 13.5635 13.47 13.6L13.5 13.58Z" fill="white"/>
<path d="M13.0801 20.2399C11.7194 20.2412 10.3784 19.9153 9.17005 19.2899C9.11161 19.2597 9.0597 19.2183 9.01726 19.1681C8.97483 19.1178 8.94272 19.0597 8.92275 18.997C8.90279 18.9343 8.89537 18.8683 8.90091 18.8027C8.90645 18.7372 8.92485 18.6734 8.95505 18.6149C8.98525 18.5565 9.02667 18.5046 9.07694 18.4622C9.12721 18.4197 9.18534 18.3876 9.24802 18.3676C9.3107 18.3477 9.3767 18.3403 9.44225 18.3458C9.5078 18.3513 9.57161 18.3697 9.63005 18.3999C11.2485 19.2233 13.1103 19.4333 14.8715 18.991C16.6328 18.5487 18.1744 17.484 19.2119 15.9936C20.2493 14.5032 20.7124 12.6878 20.5156 10.8826C20.3188 9.07734 19.4755 7.40431 18.1413 6.17243C16.8071 4.94055 15.0723 4.23305 13.2571 4.18059C11.442 4.12812 9.66917 4.73424 8.26608 5.887C6.86299 7.03976 5.92442 8.66129 5.6237 10.4521C5.32299 12.243 5.68044 14.0821 6.63005 15.6299C6.69704 15.7445 6.71675 15.8806 6.68501 16.0094C6.65327 16.1383 6.57257 16.2496 6.46005 16.3199C6.40367 16.3544 6.34102 16.3774 6.27572 16.3875C6.21042 16.3976 6.14376 16.3947 6.07959 16.3789C6.01543 16.3631 5.95504 16.3347 5.90191 16.2954C5.84877 16.2561 5.80396 16.2067 5.77005 16.1499C4.67265 14.3926 4.25488 12.295 4.59525 10.2513C4.93561 8.20763 6.01068 6.35862 7.61839 5.05182C9.22611 3.74502 11.2558 3.0704 13.3259 3.15476C15.396 3.23912 17.364 4.07666 18.8601 5.50995C20.0154 6.5808 20.8504 7.95164 21.2719 9.46948C21.6935 10.9873 21.6849 12.5924 21.2472 14.1057C20.8095 15.619 19.9599 16.9808 18.7932 18.0393C17.6265 19.0978 16.1886 19.8112 14.6401 20.0999C14.1256 20.1957 13.6033 20.2426 13.0801 20.2399Z" fill="white"/>
<path d="M5.32003 20.76C5.12618 20.7563 4.93622 20.7049 4.76695 20.6104C4.59767 20.5159 4.4543 20.3811 4.34951 20.218C4.24471 20.0548 4.18173 19.8684 4.16612 19.6752C4.15052 19.4819 4.18277 19.2878 4.26003 19.11L5.78003 15.69C5.83439 15.568 5.935 15.4726 6.05971 15.4247C6.18442 15.3769 6.32303 15.3806 6.44503 15.435C6.56702 15.4893 6.66243 15.5899 6.71025 15.7147C6.75807 15.8394 6.75439 15.978 6.70003 16.1L5.17003 19.52C5.15055 19.5459 5.14003 19.5775 5.14003 19.61C5.14003 19.6424 5.15055 19.674 5.17003 19.7C5.19187 19.725 5.22055 19.743 5.25254 19.7519C5.28453 19.7608 5.31842 19.7601 5.35003 19.75L9.20003 18.38C9.32363 18.3392 9.45826 18.3482 9.57533 18.4051C9.69239 18.462 9.78264 18.5623 9.82691 18.6847C9.87119 18.8071 9.86598 18.9419 9.81241 19.0606C9.75884 19.1792 9.66112 19.2723 9.54003 19.32L5.72003 20.69C5.59207 20.7375 5.45651 20.7612 5.32003 20.76Z" fill="white"/>
</svg>
