<svg width="24" height="24" viewBox="0 0 24 24" fill="none" xmlns="http://www.w3.org/2000/svg">
<path d="M18.62 21.76C15.76 21.76 14.33 18.94 13.91 17.94H10.47C10.05 18.94 8.62 21.76 5.75 21.76C2.12 21.76 2.12 18.76 2.12 17.35C2.12 15.69 5.01 10.09 5.34 9.46001C5.37999 9.37777 5.44266 9.30866 5.52061 9.26083C5.59856 9.21299 5.68855 9.18842 5.78 9.19001H7.38C7.5126 9.19001 7.63978 9.24269 7.73355 9.33646C7.82732 9.43023 7.88 9.55741 7.88 9.69001C7.88 9.82262 7.82732 9.9498 7.73355 10.0436C7.63978 10.1373 7.5126 10.19 7.38 10.19H6.08C4.88 12.53 3.08 16.32 3.08 17.35C3.08 19.22 3.28 20.76 5.71 20.76C8.4 20.76 9.6 17.31 9.62 17.28C9.65452 17.1823 9.71798 17.0974 9.80195 17.0367C9.88591 16.9759 9.98639 16.9422 10.09 16.94H14.21C14.3136 16.9422 14.4141 16.9759 14.498 17.0367C14.582 17.0974 14.6455 17.1823 14.68 17.28C14.68 17.28 15.9 20.76 18.58 20.76C21.02 20.76 21.22 19.22 21.22 17.35C21.22 16.35 19.46 12.53 18.22 10.19H17C16.8674 10.19 16.7402 10.1373 16.6464 10.0436C16.5527 9.9498 16.5 9.82262 16.5 9.69001C16.5 9.55741 16.5527 9.43023 16.6464 9.33646C16.7402 9.24269 16.8674 9.19001 17 9.19001H18.6C18.6914 9.18842 18.7814 9.21299 18.8594 9.26083C18.9373 9.30866 19 9.37777 19.04 9.46001C19.37 10.09 22.26 15.69 22.26 17.35C22.26 18.78 22.26 21.76 18.62 21.76Z" fill="white"/>
<path d="M17 13.06H7.38C7.2474 13.06 7.12022 13.0073 7.02645 12.9136C6.93268 12.8198 6.88 12.6926 6.88 12.56V2.75C6.88 2.61739 6.93268 2.49021 7.02645 2.39645C7.12022 2.30268 7.2474 2.25 7.38 2.25H17C17.1326 2.25 17.2598 2.30268 17.3536 2.39645C17.4473 2.49021 17.5 2.61739 17.5 2.75V12.56C17.5 12.6926 17.4473 12.8198 17.3536 12.9136C17.2598 13.0073 17.1326 13.06 17 13.06ZM7.88 12.06H16.5V3.25H7.88V12.06Z" fill="white"/>
</svg>
