<svg width="24" height="24" viewBox="0 0 24 24" fill="none" xmlns="http://www.w3.org/2000/svg">
<path d="M6.05005 16.3901C5.96376 16.3906 5.87881 16.3688 5.80346 16.3267C5.72811 16.2847 5.66492 16.2238 5.62005 16.1501C4.4574 14.2205 4.09833 11.9117 4.62005 9.72011C5.00929 8.13113 5.84828 6.68803 7.03655 5.5636C8.22483 4.43917 9.71202 3.68108 11.3201 3.38011C11.4527 3.35624 11.5893 3.38602 11.7 3.46291C11.8106 3.5398 11.8862 3.6575 11.9101 3.79011C11.9339 3.92272 11.9041 4.05938 11.8272 4.17002C11.7504 4.28067 11.6327 4.35624 11.5001 4.38011C10.0791 4.64745 8.76589 5.32036 7.71896 6.31761C6.67202 7.31486 5.93611 8.59382 5.60005 10.0001C5.13524 11.9355 5.45139 13.9761 6.48005 15.6801C6.51453 15.7365 6.53748 15.7991 6.5476 15.8644C6.55771 15.9297 6.55478 15.9964 6.53897 16.0606C6.52316 16.1247 6.49479 16.1851 6.4555 16.2383C6.41621 16.2914 6.36677 16.3362 6.31005 16.3701C6.22689 16.4006 6.1369 16.4076 6.05005 16.3901Z" fill="white"/>
<path d="M12.8901 20.2401C11.5363 20.237 10.2028 19.9113 9.00006 19.2901C8.88333 19.2265 8.79606 19.1198 8.75684 18.9928C8.71761 18.8658 8.72953 18.7285 8.79006 18.6101C8.85174 18.4941 8.95661 18.407 9.08199 18.3678C9.20738 18.3285 9.34319 18.3401 9.46006 18.4001C10.5428 18.9643 11.7471 19.2552 12.9681 19.2476C14.189 19.2399 15.3896 18.9339 16.4652 18.3561C17.5408 17.7784 18.4589 16.9465 19.1395 15.9328C19.8201 14.9191 20.2425 13.7544 20.3701 12.5401C20.3766 12.4745 20.3961 12.4108 20.4273 12.3526C20.4584 12.2945 20.5008 12.243 20.5519 12.2012C20.6029 12.1594 20.6617 12.1281 20.7249 12.1091C20.7881 12.09 20.8544 12.0836 20.9201 12.0901C20.9857 12.0967 21.0494 12.1161 21.1076 12.1473C21.1657 12.1785 21.2172 12.2209 21.259 12.2719C21.3008 12.323 21.3321 12.3818 21.3511 12.445C21.3702 12.5082 21.3766 12.5745 21.3701 12.6401C21.1753 14.4603 20.3988 16.1692 19.1558 17.5131C17.9128 18.857 16.2696 19.7642 14.4701 20.1001C13.9491 20.1976 13.42 20.2445 12.8901 20.2401Z" fill="white"/>
<path d="M5.13003 20.76C4.96958 20.7601 4.81094 20.7263 4.66446 20.6608C4.51799 20.5953 4.38699 20.4996 4.28003 20.38C4.12353 20.2127 4.02008 20.0029 3.9827 19.7768C3.94533 19.5508 3.97572 19.3188 4.07003 19.11L5.60003 15.69C5.62418 15.6262 5.66114 15.568 5.70865 15.519C5.75615 15.47 5.81319 15.4312 5.87624 15.405C5.9393 15.3789 6.00704 15.366 6.07528 15.367C6.14353 15.368 6.21085 15.383 6.27308 15.4111C6.33531 15.4391 6.39114 15.4796 6.43714 15.53C6.48313 15.5805 6.51831 15.6398 6.54051 15.7043C6.56271 15.7689 6.57145 15.8373 6.56621 15.9053C6.56097 15.9734 6.54185 16.0397 6.51003 16.1L5.00003 19.52C4.98055 19.546 4.97003 19.5776 4.97003 19.61C4.97003 19.6425 4.98055 19.6741 5.00003 19.7C5.02101 19.7262 5.04968 19.7451 5.08197 19.754C5.11427 19.763 5.14857 19.7616 5.18003 19.75L9.03003 18.37C9.09241 18.3484 9.15844 18.3392 9.22436 18.3431C9.29028 18.3469 9.3548 18.3637 9.41423 18.3925C9.47366 18.4213 9.52684 18.4615 9.57073 18.5108C9.61462 18.5602 9.64836 18.6177 9.67003 18.68C9.6917 18.7424 9.70087 18.8085 9.69701 18.8744C9.69316 18.9403 9.67636 19.0048 9.64758 19.0642C9.61879 19.1237 9.57858 19.1769 9.52924 19.2207C9.47991 19.2646 9.42241 19.2984 9.36003 19.32L5.53003 20.69C5.40226 20.7382 5.26657 20.762 5.13003 20.76Z" fill="white"/>
<path d="M20.14 7.30005H14.36C14.2274 7.30005 14.1003 7.24737 14.0065 7.1536C13.9127 7.05983 13.86 6.93266 13.86 6.80005C13.86 6.66744 13.9127 6.54026 14.0065 6.4465C14.1003 6.35273 14.2274 6.30005 14.36 6.30005H20.14C20.2727 6.30005 20.3998 6.35273 20.4936 6.4465C20.5874 6.54026 20.64 6.66744 20.64 6.80005C20.64 6.93266 20.5874 7.05983 20.4936 7.1536C20.3998 7.24737 20.2727 7.30005 20.14 7.30005Z" fill="white"/>
<path d="M17.25 10.1902C17.1174 10.1902 16.9902 10.1375 16.8964 10.0437C16.8027 9.94994 16.75 9.82276 16.75 9.69016V3.91016C16.75 3.77755 16.8027 3.65037 16.8964 3.5566C16.9902 3.46283 17.1174 3.41016 17.25 3.41016C17.3826 3.41016 17.5098 3.46283 17.6036 3.5566C17.6973 3.65037 17.75 3.77755 17.75 3.91016V9.69016C17.75 9.82276 17.6973 9.94994 17.6036 10.0437C17.5098 10.1375 17.3826 10.1902 17.25 10.1902Z" fill="white"/>
</svg>
