<svg width="24" height="24" viewBox="0 0 24 24" fill="none" xmlns="http://www.w3.org/2000/svg">
<path d="M12 15.0702C11.3928 15.0702 10.7993 14.8901 10.2944 14.5528C9.78957 14.2155 9.39608 13.736 9.16371 13.175C8.93135 12.614 8.87056 11.9968 8.98901 11.4012C9.10747 10.8057 9.39986 10.2587 9.82921 9.82936C10.2586 9.40001 10.8056 9.10762 11.4011 8.98917C11.9966 8.87071 12.6139 8.93151 13.1749 9.16387C13.7358 9.39623 14.2153 9.78972 14.5526 10.2946C14.89 10.7994 15.07 11.393 15.07 12.0002C15.0674 12.8136 14.7431 13.5929 14.1679 14.1681C13.5928 14.7432 12.8134 15.0675 12 15.0702ZM12 9.93018C11.5906 9.93018 11.1904 10.0516 10.85 10.279C10.5096 10.5065 10.2443 10.8298 10.0876 11.208C9.93092 11.5863 9.88993 12.0025 9.9698 12.404C10.0497 12.8056 10.2468 13.1744 10.5363 13.4639C10.8258 13.7534 11.1946 13.9505 11.5962 14.0304C11.9977 14.1103 12.4139 14.0693 12.7922 13.9126C13.1704 13.7559 13.4937 13.4906 13.7212 13.1502C13.9486 12.8098 14.07 12.4096 14.07 12.0002C14.07 11.4512 13.8519 10.9247 13.4637 10.5365C13.0755 10.1483 12.549 9.93018 12 9.93018Z" fill="white"/>
<path d="M12 18.5C10.7144 18.5 9.45772 18.1188 8.3888 17.4046C7.31988 16.6903 6.48676 15.6752 5.99479 14.4874C5.50282 13.2997 5.37409 11.9928 5.6249 10.7319C5.8757 9.47104 6.49477 8.31285 7.40381 7.40381C8.31285 6.49477 9.47104 5.8757 10.7319 5.6249C11.9928 5.37409 13.2997 5.50282 14.4874 5.99479C15.6752 6.48676 16.6903 7.31988 17.4046 8.3888C18.1188 9.45772 18.5 10.7144 18.5 12C18.5 13.7239 17.8152 15.3772 16.5962 16.5962C15.3772 17.8152 13.7239 18.5 12 18.5ZM12 6.5C10.9122 6.5 9.84884 6.82257 8.94437 7.42692C8.0399 8.03127 7.33495 8.89025 6.91867 9.89524C6.50238 10.9002 6.39347 12.0061 6.60568 13.073C6.8179 14.1399 7.34173 15.1199 8.11092 15.8891C8.8801 16.6583 9.86011 17.1821 10.927 17.3943C11.9939 17.6065 13.0998 17.4976 14.1048 17.0813C15.1098 16.6651 15.9687 15.9601 16.5731 15.0556C17.1774 14.1512 17.5 13.0878 17.5 12C17.4974 10.5421 16.917 9.14471 15.8862 8.11384C14.8553 7.08296 13.4579 6.50265 12 6.5Z" fill="white"/>
<path d="M12 21.9301C10.036 21.9301 8.11618 21.3477 6.4832 20.2566C4.85022 19.1654 3.57747 17.6146 2.82589 15.8001C2.07431 13.9856 1.87766 11.9891 2.26081 10.0628C2.64397 8.13659 3.58971 6.36724 4.97844 4.9785C6.36718 3.58977 8.13653 2.64403 10.0628 2.26088C11.989 1.87772 13.9856 2.07437 15.8001 2.82595C17.6145 3.57753 19.1654 4.85028 20.2565 6.48326C21.3476 8.11624 21.93 10.0361 21.93 12.0001C21.9274 14.6329 20.8803 17.1571 19.0187 19.0187C17.157 20.8804 14.6328 21.9274 12 21.9301ZM12 3.07007C10.2338 3.07007 8.5073 3.59381 7.03877 4.57505C5.57024 5.55629 4.42566 6.95097 3.74977 8.58271C3.07388 10.2145 2.89703 12.01 3.2416 13.7422C3.58617 15.4745 4.43667 17.0657 5.68555 18.3145C6.93443 19.5634 8.5256 20.4139 10.2579 20.7585C11.9901 21.1031 13.7856 20.9262 15.4174 20.2503C17.0491 19.5744 18.4438 18.4298 19.425 16.9613C20.4063 15.4928 20.93 13.7663 20.93 12.0001C20.93 10.8274 20.699 9.66615 20.2503 8.58271C19.8015 7.49927 19.1437 6.51484 18.3145 5.68561C17.4852 4.85638 16.5008 4.1986 15.4174 3.74983C14.3339 3.30105 13.1727 3.07007 12 3.07007Z" fill="white"/>
</svg>
