<svg width="24" height="24" viewBox="0 0 24 24" fill="none" xmlns="http://www.w3.org/2000/svg">
<path d="M18 21.5601H6C5.86739 21.5601 5.74021 21.5074 5.64645 21.4136C5.55268 21.3198 5.5 21.1927 5.5 21.0601C5.50256 20.9283 5.55606 20.8026 5.64928 20.7093C5.7425 20.6161 5.86819 20.5626 6 20.5601H18C18.1326 20.5601 18.2598 20.6127 18.3536 20.7065C18.4473 20.8003 18.5 20.9275 18.5 21.0601C18.5 21.1927 18.4473 21.3198 18.3536 21.4136C18.2598 21.5074 18.1326 21.5601 18 21.5601Z" fill="white"/>
<path d="M18.74 17.5601H5.22001C4.22891 17.5574 3.27916 17.1625 2.57835 16.4617C1.87753 15.7609 1.48265 14.8112 1.48001 13.8201V6.30006C1.48265 5.30896 1.87753 4.35921 2.57835 3.65839C3.27916 2.95758 4.22891 2.5627 5.22001 2.56006H18.74C19.7311 2.5627 20.6809 2.95758 21.3817 3.65839C22.0825 4.35921 22.4774 5.30896 22.48 6.30006V13.8201C22.4774 14.8112 22.0825 15.7609 21.3817 16.4617C20.6809 17.1625 19.7311 17.5574 18.74 17.5601ZM5.22001 3.56006C4.49332 3.56006 3.79639 3.84874 3.28254 4.36259C2.76869 4.87644 2.48001 5.57337 2.48001 6.30006V13.8201C2.48001 14.5468 2.76869 15.2437 3.28254 15.7575C3.79639 16.2714 4.49332 16.5601 5.22001 16.5601H18.74C19.4667 16.5601 20.1636 16.2714 20.6775 15.7575C21.1913 15.2437 21.48 14.5468 21.48 13.8201V6.30006C21.48 5.57337 21.1913 4.87644 20.6775 4.36259C20.1636 3.84874 19.4667 3.56006 18.74 3.56006H5.22001Z" fill="white"/>
<path d="M12 21.5601C11.8674 21.5601 11.7402 21.5074 11.6464 21.4136C11.5527 21.3198 11.5 21.1927 11.5 21.0601V17.0601C11.5026 16.9283 11.5561 16.8026 11.6493 16.7093C11.7425 16.6161 11.8682 16.5626 12 16.5601C12.1326 16.5601 12.2598 16.6127 12.3536 16.7065C12.4473 16.8003 12.5 16.9275 12.5 17.0601V21.0601C12.5 21.1927 12.4473 21.3198 12.3536 21.4136C12.2598 21.5074 12.1326 21.5601 12 21.5601Z" fill="white"/>
</svg>
