<svg width="24" height="24" viewBox="0 0 24 24" fill="none" xmlns="http://www.w3.org/2000/svg">
<path d="M12.07 20.5401C11.9969 20.5424 11.9243 20.5273 11.8582 20.496C11.7922 20.4647 11.7345 20.4181 11.69 20.3601L1.69001 8.36007C1.60985 8.26883 1.56564 8.15153 1.56564 8.03007C1.56564 7.90862 1.60985 7.79132 1.69001 7.70007L5.59001 3.61007C5.64163 3.55444 5.7057 3.51184 5.77697 3.48576C5.84824 3.45969 5.92468 3.45089 6.00001 3.46007H18C18.1305 3.45929 18.2561 3.50953 18.35 3.60007L22.29 7.54007C22.3729 7.63195 22.4188 7.75131 22.4188 7.87507C22.4188 7.99884 22.3729 8.1182 22.29 8.21007L12.46 20.3601C12.3556 20.4646 12.2173 20.5285 12.07 20.5401ZM2.74001 8.06008L12.07 19.2501L21.25 7.93007L17.78 4.46007H6.16001L2.74001 8.06008Z" fill="white"/>
<path d="M21.93 8.54004H2.07001C1.9374 8.54004 1.81022 8.48736 1.71645 8.39359C1.62269 8.29982 1.57001 8.17265 1.57001 8.04004C1.57257 7.90823 1.62607 7.78254 1.71929 7.68932C1.81251 7.5961 1.9382 7.5426 2.07001 7.54004H21.93C22.0618 7.5426 22.1875 7.5961 22.2807 7.68932C22.3739 7.78254 22.4274 7.90823 22.43 8.04004C22.43 8.17265 22.3773 8.29982 22.2836 8.39359C22.1898 8.48736 22.0626 8.54004 21.93 8.54004Z" fill="white"/>
<path d="M12.07 20.54C11.9374 20.54 11.8102 20.4873 11.7165 20.3936C11.6227 20.2998 11.57 20.1726 11.57 20.04V4C11.57 3.86739 11.6227 3.74021 11.7165 3.64645C11.8102 3.55268 11.9374 3.5 12.07 3.5C12.2026 3.5 12.3298 3.55268 12.4236 3.64645C12.5173 3.74021 12.57 3.86739 12.57 4V20C12.5755 20.0689 12.5667 20.1383 12.5441 20.2036C12.5214 20.269 12.4855 20.329 12.4385 20.3797C12.3915 20.4305 12.3345 20.4709 12.2711 20.4985C12.2076 20.5261 12.1392 20.5402 12.07 20.54Z" fill="white"/>
</svg>
