<svg width="24" height="24" viewBox="0 0 24 24" fill="none" xmlns="http://www.w3.org/2000/svg">
<path d="M12.67 14.91H6.50999C5.9159 14.91 5.34615 14.674 4.92607 14.2539C4.50599 13.8339 4.26999 13.2641 4.26999 12.67V6.51002C4.26999 5.91593 4.50599 5.34618 4.92607 4.9261C5.34615 4.50602 5.9159 4.27002 6.50999 4.27002H12.67C13.2641 4.27002 13.8338 4.50602 14.2539 4.9261C14.674 5.34618 14.91 5.91593 14.91 6.51002V12.67C14.91 13.2641 14.674 13.8339 14.2539 14.2539C13.8338 14.674 13.2641 14.91 12.67 14.91ZM6.50999 5.27002C6.34678 5.26869 6.18494 5.29985 6.03389 5.36169C5.88284 5.42354 5.74562 5.51483 5.63021 5.63024C5.5148 5.74565 5.42351 5.88287 5.36166 6.03392C5.29982 6.18497 5.26866 6.34681 5.26999 6.51002V12.67C5.26999 12.9989 5.40063 13.3143 5.63318 13.5468C5.86572 13.7794 6.18112 13.91 6.50999 13.91H12.67C12.998 13.9074 13.3119 13.7759 13.5439 13.5439C13.7759 13.312 13.9074 12.9981 13.91 12.67V6.51002C13.91 6.18115 13.7793 5.86575 13.5468 5.63321C13.3143 5.40066 12.9989 5.27002 12.67 5.27002H6.50999Z" fill="white"/>
<path d="M17.49 19.73H11.33C10.7359 19.73 10.1662 19.494 9.74608 19.0739C9.326 18.6538 9.09 18.0841 9.09 17.49V11.33C9.09 10.7359 9.326 10.1661 9.74608 9.74605C10.1662 9.32596 10.7359 9.08997 11.33 9.08997H17.49C17.7842 9.08997 18.0754 9.1479 18.3472 9.26048C18.619 9.37305 18.8659 9.53804 19.0739 9.74605C19.2819 9.95405 19.4469 10.201 19.5595 10.4728C19.6721 10.7445 19.73 11.0358 19.73 11.33V17.49C19.73 17.7841 19.6721 18.0754 19.5595 18.3472C19.4469 18.6189 19.2819 18.8659 19.0739 19.0739C18.8659 19.2819 18.619 19.4469 18.3472 19.5595C18.0754 19.672 17.7842 19.73 17.49 19.73ZM11.33 10.09C11.0019 10.0926 10.6881 10.2241 10.4561 10.456C10.2241 10.688 10.0926 11.0019 10.09 11.33V17.49C10.09 17.8188 10.2206 18.1342 10.4532 18.3668C10.6857 18.5993 11.0011 18.73 11.33 18.73H17.49C17.6532 18.7313 17.815 18.7001 17.9661 18.6383C18.1171 18.5764 18.2544 18.4852 18.3698 18.3697C18.4852 18.2543 18.5765 18.1171 18.6383 17.9661C18.7002 17.815 18.7313 17.6532 18.73 17.49V11.33C18.73 11.1671 18.6979 11.0059 18.6356 10.8554C18.5733 10.705 18.482 10.5683 18.3668 10.4532C18.2517 10.338 18.115 10.2467 17.9645 10.1844C17.8141 10.122 17.6528 10.09 17.49 10.09H11.33Z" fill="white"/>
</svg>
