<svg width="24" height="24" viewBox="0 0 24 24" fill="none" xmlns="http://www.w3.org/2000/svg">
<path d="M4.77998 16.3299C4.69293 16.3284 4.60771 16.3047 4.53244 16.2609C4.45717 16.2171 4.39436 16.1548 4.34998 16.0799C3.63538 14.9049 3.21691 13.5739 3.13058 12.2014C3.04424 10.8288 3.29263 9.45585 3.85436 8.20055C4.4161 6.94525 5.27437 5.84521 6.35535 4.99503C7.43633 4.14486 8.70766 3.57001 10.06 3.31993C10.1244 3.30696 10.1908 3.3071 10.2552 3.32033C10.3196 3.33356 10.3807 3.35961 10.4348 3.39693C10.4889 3.43425 10.535 3.48208 10.5702 3.53757C10.6055 3.59306 10.6292 3.65508 10.64 3.71993C10.6604 3.85093 10.6291 3.98476 10.5525 4.09303C10.476 4.20131 10.3603 4.27552 10.23 4.29993C8.81415 4.56429 7.50456 5.23126 6.45812 6.22094C5.41169 7.21061 4.6728 8.48102 4.32998 9.87993C3.86572 11.8186 4.18175 13.8621 5.20998 15.5699C5.25307 15.6465 5.27567 15.7328 5.27557 15.8207C5.27548 15.9085 5.25271 15.9948 5.20945 16.0713C5.1662 16.1477 5.10394 16.2117 5.02869 16.257C4.95345 16.3023 4.86778 16.3274 4.77998 16.3299Z" fill="white"/>
<path d="M11.62 20.1799C10.2553 20.1653 8.91416 19.8223 7.71001 19.1799C7.65161 19.1503 7.59972 19.1094 7.5574 19.0595C7.51508 19.0095 7.4832 18.9516 7.46362 18.8892C7.44405 18.8267 7.43718 18.761 7.44343 18.6958C7.44968 18.6307 7.46892 18.5675 7.50001 18.5099C7.55995 18.3921 7.66407 18.3029 7.78962 18.2616C7.91516 18.2204 8.05192 18.2306 8.17001 18.2899C9.2528 18.8541 10.4571 19.145 11.678 19.1373C12.899 19.1296 14.0995 18.8236 15.1751 18.2459C16.2508 17.6681 17.1688 16.8362 17.8494 15.8225C18.53 14.8088 18.9525 13.6442 19.08 12.4299C19.0951 12.2981 19.161 12.1773 19.2637 12.0933C19.3664 12.0093 19.4978 11.9686 19.63 11.9799C19.7611 11.995 19.8809 12.0612 19.9633 12.1642C20.0457 12.2673 20.0841 12.3987 20.07 12.5299C19.8841 14.3527 19.112 16.0661 17.8698 17.413C16.6275 18.7598 14.9819 19.6675 13.18 19.9999C12.6668 20.1089 12.1445 20.1692 11.62 20.1799Z" fill="white"/>
<path d="M3.85999 20.69C3.66651 20.6881 3.47651 20.6382 3.30702 20.5449C3.13753 20.4516 2.99383 20.3176 2.8888 20.1551C2.78376 19.9926 2.72067 19.8066 2.70518 19.6137C2.68968 19.4209 2.72226 19.2272 2.79999 19.05L4.32999 15.62C4.35414 15.5561 4.39111 15.4979 4.43861 15.4489C4.48611 15.3999 4.54315 15.3611 4.60621 15.335C4.66926 15.3088 4.737 15.2959 4.80525 15.2969C4.8735 15.298 4.94081 15.313 5.00304 15.341C5.06528 15.369 5.12111 15.4095 5.1671 15.46C5.21309 15.5104 5.24827 15.5697 5.27047 15.6343C5.29267 15.6988 5.30142 15.7672 5.29618 15.8353C5.29094 15.9033 5.27181 15.9696 5.23999 16.03L3.70999 19.45C3.69658 19.4802 3.69225 19.5136 3.69755 19.5462C3.70284 19.5789 3.71753 19.6092 3.73981 19.6336C3.76209 19.658 3.791 19.6754 3.823 19.6836C3.855 19.6919 3.8887 19.6906 3.91999 19.68L7.76999 18.31C7.89359 18.2692 8.02823 18.2782 8.14529 18.3351C8.26235 18.392 8.35261 18.4923 8.39688 18.6147C8.44115 18.7371 8.43595 18.872 8.38238 18.9906C8.32881 19.1092 8.23109 19.2023 8.10999 19.25L4.25999 20.62C4.13204 20.6675 3.99648 20.6912 3.85999 20.69Z" fill="white"/>
<path d="M16 10.1298C15.8649 10.1295 15.7354 10.0756 15.64 9.97984L12.73 7.08984C12.6358 6.99569 12.5829 6.86799 12.5829 6.73484C12.5829 6.60169 12.6358 6.474 12.73 6.37984C12.8241 6.28569 12.9518 6.2328 13.085 6.2328C13.2181 6.2328 13.3458 6.28569 13.44 6.37984L15.44 8.37984V3.83984C15.44 3.70724 15.4927 3.58006 15.5864 3.48629C15.6802 3.39252 15.8074 3.33984 15.94 3.33984C16.0718 3.3424 16.1975 3.3959 16.2907 3.48912C16.3839 3.58234 16.4374 3.70804 16.44 3.83984V9.62984C16.4382 9.72826 16.408 9.82405 16.353 9.90568C16.298 9.9873 16.2205 10.0513 16.13 10.0898C16.0882 10.1077 16.0446 10.1211 16 10.1298Z" fill="white"/>
<path d="M16 10.13C15.8649 10.1297 15.7354 10.0757 15.64 9.97999C15.5477 9.88484 15.4962 9.75752 15.4962 9.62499C15.4962 9.49246 15.5477 9.36514 15.64 9.26999L18.54 6.37999C18.6335 6.28838 18.7591 6.23706 18.89 6.23706C19.0209 6.23706 19.1465 6.28838 19.24 6.37999C19.2869 6.42647 19.3241 6.48177 19.3494 6.5427C19.3748 6.60363 19.3879 6.66898 19.3879 6.73499C19.3879 6.801 19.3748 6.86635 19.3494 6.92728C19.3241 6.98821 19.2869 7.04351 19.24 7.08999L16.33 9.99999C16.2396 10.0822 16.1222 10.1284 16 10.13Z" fill="white"/>
</svg>
