<svg width="24" height="24" viewBox="0 0 24 24" fill="none" xmlns="http://www.w3.org/2000/svg">
<path d="M12 21.52C10.1219 21.52 8.28601 20.9634 6.72418 19.9204C5.16235 18.8774 3.9447 17.3949 3.22509 15.6601C2.50547 13.9254 2.31618 12.0163 2.68112 10.174C3.04606 8.33174 3.94886 6.63897 5.27546 5.30958C6.60206 3.98019 8.29293 3.07382 10.1344 2.70501C11.9759 2.33619 13.8854 2.52147 15.6217 3.23744C17.3579 3.95341 18.843 5.16793 19.8893 6.72757C20.9355 8.2872 21.4961 10.122 21.5 12C21.5013 13.2489 21.2566 14.4858 20.7799 15.6401C20.3032 16.7944 19.6038 17.8435 18.7217 18.7275C17.8395 19.6116 16.7919 20.3132 15.6386 20.7923C14.4853 21.2714 13.2489 21.5187 12 21.52ZM12 3.52002C10.318 3.52003 8.67384 4.01905 7.27559 4.95393C5.87735 5.88881 4.7879 7.21751 4.14514 8.77185C3.50239 10.3262 3.33523 12.0363 3.66483 13.6857C3.99443 15.335 4.80597 16.8496 5.99671 18.0375C7.18746 19.2255 8.70389 20.0334 10.354 20.3591C12.0042 20.6848 13.7139 20.5137 15.2667 19.8672C16.8195 19.2208 18.1457 18.1283 19.0772 16.7278C20.0088 15.3274 20.504 13.682 20.5 12C20.4921 9.74996 19.5934 7.59462 18.0005 6.00546C16.4075 4.41629 14.2501 3.52265 12 3.52002Z" fill="white"/>
<path d="M12 16.12C11.8674 16.12 11.7402 16.0674 11.6464 15.9736C11.5527 15.8798 11.5 15.7527 11.5 15.62V8.42004C11.5 8.28744 11.5527 8.16026 11.6464 8.06649C11.7402 7.97272 11.8674 7.92004 12 7.92004C12.1326 7.92004 12.2598 7.97272 12.3536 8.06649C12.4473 8.16026 12.5 8.28744 12.5 8.42004V15.62C12.5 15.7527 12.4473 15.8798 12.3536 15.9736C12.2598 16.0674 12.1326 16.12 12 16.12Z" fill="white"/>
<path d="M15.6 12.52H8.40002C8.26742 12.52 8.14024 12.4673 8.04647 12.3736C7.9527 12.2798 7.90002 12.1526 7.90002 12.02C7.90002 11.8874 7.9527 11.7602 8.04647 11.6665C8.14024 11.5727 8.26742 11.52 8.40002 11.52H15.6C15.7326 11.52 15.8598 11.5727 15.9536 11.6665C16.0473 11.7602 16.1 11.8874 16.1 12.02C16.1 12.1526 16.0473 12.2798 15.9536 12.3736C15.8598 12.4673 15.7326 12.52 15.6 12.52Z" fill="white"/>
</svg>
