<svg width="24" height="24" viewBox="0 0 24 24" fill="none" xmlns="http://www.w3.org/2000/svg">
<path d="M12 22.25C3.55002 22.25 3.45002 13.83 3.45002 13.74V5.65C3.4495 5.55494 3.47664 5.46179 3.52813 5.38189C3.57962 5.30199 3.65324 5.23879 3.74002 5.2L11.74 1.42C11.806 1.39018 11.8776 1.37476 11.95 1.37476C12.0224 1.37476 12.094 1.39018 12.16 1.42L20.26 5.2C20.3468 5.23879 20.4204 5.30199 20.4719 5.38189C20.5234 5.46179 20.5505 5.55494 20.55 5.65V13.74C20.55 13.83 20.45 22.25 12 22.25ZM4.45002 6V13.77C4.45002 14.08 4.56002 21.28 12 21.28C19.44 21.28 19.55 14.08 19.55 13.77V6L12 2.42L4.45002 6Z" fill="white"/>
<path d="M3.99999 12.5C3.88664 12.5005 3.77649 12.4624 3.68761 12.3921C3.59873 12.3217 3.53639 12.2232 3.51082 12.1128C3.48524 12.0024 3.49795 11.8865 3.54686 11.7843C3.59577 11.682 3.67797 11.5994 3.77999 11.55L11.78 7.49001C11.8517 7.45545 11.9304 7.4375 12.01 7.4375C12.0896 7.4375 12.1682 7.45545 12.24 7.49001L20 11.56C20.101 11.6291 20.1731 11.7329 20.2027 11.8516C20.2323 11.9703 20.2174 12.0958 20.1607 12.2042C20.104 12.3127 20.0095 12.3966 19.8951 12.44C19.7807 12.4835 19.6544 12.4835 19.54 12.44L12 8.50001L4.17999 12.45C4.12276 12.4754 4.06211 12.4922 3.99999 12.5Z" fill="white"/>
</svg>
