<svg width="24" height="24" viewBox="0 0 24 24" fill="none" xmlns="http://www.w3.org/2000/svg">
<path d="M3.65997 20.5C3.55651 20.4996 3.45553 20.4682 3.36997 20.41C3.30405 20.3642 3.25041 20.3028 3.21379 20.2313C3.17717 20.1598 3.15869 20.0804 3.15997 20V6.00004C3.15926 5.89847 3.1895 5.79909 3.24666 5.71513C3.30383 5.63117 3.38521 5.56661 3.47997 5.53004L8.58997 3.53004C8.70658 3.48966 8.83337 3.48966 8.94997 3.53004L13.8 5.43004L19.59 3.53004C19.659 3.50869 19.7321 3.5039 19.8033 3.51606C19.8746 3.52822 19.9419 3.55699 20 3.60004C20.0633 3.64548 20.1146 3.70564 20.1494 3.77533C20.1843 3.84502 20.2016 3.92215 20.2 4.00004V18C20.2007 18.1044 20.1682 18.2062 20.107 18.2908C20.0458 18.3753 19.9593 18.4381 19.86 18.47L13.86 20.47C13.7501 20.5098 13.6298 20.5098 13.52 20.47L8.75997 18.58L3.83997 20.47C3.78198 20.4896 3.7212 20.4998 3.65997 20.5ZM8.75997 17.5C8.82243 17.4852 8.88752 17.4852 8.94997 17.5L13.71 19.39L19.24 17.52V4.69004L13.94 6.43004C13.8301 6.46976 13.7098 6.46976 13.6 6.43004L8.75997 4.54004L4.15997 6.30004V19.3L8.58997 17.61C8.63887 17.5711 8.69782 17.5468 8.75997 17.54V17.5Z" fill="white"/>
</svg>
