<svg width="24" height="24" viewBox="0 0 24 24" fill="none" xmlns="http://www.w3.org/2000/svg">
<path d="M10.33 15.8299C10.2651 15.8326 10.2003 15.8216 10.14 15.7974C10.0797 15.7733 10.0251 15.7367 9.98 15.6899L6.86 12.5699C6.81313 12.5234 6.77593 12.4681 6.75055 12.4072C6.72517 12.3463 6.7121 12.2809 6.7121 12.2149C6.7121 12.1489 6.72517 12.0836 6.75055 12.0226C6.77593 11.9617 6.81313 11.9064 6.86 11.8599C6.95515 11.7677 7.08247 11.7161 7.215 11.7161C7.34752 11.7161 7.47485 11.7677 7.57 11.8599L10.33 14.6299L16.6 8.34993C16.6466 8.30331 16.702 8.26633 16.7629 8.2411C16.8238 8.21587 16.8891 8.20288 16.955 8.20288C17.0209 8.20288 17.0862 8.21587 17.1471 8.2411C17.208 8.26633 17.2634 8.30331 17.31 8.34993C17.3566 8.39655 17.3936 8.45189 17.4188 8.5128C17.4441 8.57371 17.457 8.639 17.457 8.70493C17.457 8.77086 17.4441 8.83614 17.4188 8.89705C17.3936 8.95796 17.3566 9.01331 17.31 9.05993L10.68 15.6899C10.6349 15.7367 10.5803 15.7733 10.52 15.7974C10.4597 15.8216 10.3949 15.8326 10.33 15.8299Z" fill="white"/>
<path d="M17.68 21.56H6.35998C5.33094 21.56 4.34405 21.1512 3.61641 20.4236C2.88877 19.6959 2.47998 18.709 2.47998 17.68V6.35998C2.47998 5.33094 2.88877 4.34405 3.61641 3.61641C4.34405 2.88877 5.33094 2.47998 6.35998 2.47998H17.68C18.709 2.47998 19.6959 2.88877 20.4236 3.61641C21.1512 4.34405 21.56 5.33094 21.56 6.35998V17.68C21.56 18.709 21.1512 19.6959 20.4236 20.4236C19.6959 21.1512 18.709 21.56 17.68 21.56ZM6.35998 3.47998C5.59616 3.47998 4.86362 3.78341 4.32351 4.32351C3.78341 4.86362 3.47998 5.59616 3.47998 6.35998V17.68C3.47998 18.4438 3.78341 19.1763 4.32351 19.7164C4.86362 20.2566 5.59616 20.56 6.35998 20.56H17.68C18.4438 20.56 19.1763 20.2566 19.7164 19.7164C20.2566 19.1763 20.56 18.4438 20.56 17.68V6.35998C20.56 5.59616 20.2566 4.86362 19.7164 4.32351C19.1763 3.78341 18.4438 3.47998 17.68 3.47998H6.35998Z" fill="white"/>
</svg>
