<svg width="24" height="24" viewBox="0 0 24 24" fill="none" xmlns="http://www.w3.org/2000/svg">
<path d="M8.78999 9.50008C8.65485 9.49975 8.52538 9.4458 8.42999 9.35008C8.34355 9.25355 8.29397 9.12959 8.28999 9.00008C8.2892 8.86961 8.33944 8.74401 8.42999 8.65008C8.50254 8.57596 8.59597 8.52572 8.69781 8.50607C8.79965 8.48641 8.90506 8.49828 8.99999 8.54008C9.06239 8.5614 9.11773 8.59945 9.15999 8.65008C9.246 8.74612 9.29245 8.87117 9.28999 9.00008C9.30043 9.06298 9.30043 9.12718 9.28999 9.19008C9.26512 9.25063 9.22762 9.30518 9.17999 9.35008C9.13232 9.4039 9.06962 9.44221 8.99999 9.46008C8.93447 9.49088 8.86224 9.50464 8.78999 9.50008Z" fill="white"/>
<path d="M12 12.52C11.8668 12.5193 11.7386 12.4695 11.64 12.38C11.5977 12.3272 11.5608 12.2703 11.53 12.21C11.5195 12.1471 11.5195 12.0829 11.53 12.02C11.5204 11.957 11.5204 11.893 11.53 11.83C11.5583 11.7714 11.5954 11.7174 11.64 11.67C11.7109 11.5999 11.8008 11.5522 11.8985 11.5326C11.9963 11.5131 12.0976 11.5226 12.19 11.56C12.2492 11.5873 12.3033 11.6245 12.35 11.67C12.3976 11.7149 12.4351 11.7695 12.46 11.83C12.4693 11.893 12.4693 11.957 12.46 12.02C12.4704 12.0829 12.4704 12.1471 12.46 12.21C12.4329 12.2723 12.3957 12.3298 12.35 12.38C12.2549 12.4688 12.1301 12.5188 12 12.52Z" fill="white"/>
<path d="M15.17 15.4999C15.1044 15.5007 15.0394 15.4878 14.9791 15.462C14.9188 15.4361 14.8646 15.398 14.82 15.3499C14.7723 15.305 14.7348 15.2505 14.71 15.1899C14.6995 15.127 14.6995 15.0628 14.71 14.9999C14.7007 14.9369 14.7007 14.8729 14.71 14.8099C14.7348 14.7494 14.7723 14.6948 14.82 14.6499C14.9151 14.5577 15.0425 14.5061 15.175 14.5061C15.3075 14.5061 15.4348 14.5577 15.53 14.6499C15.6164 14.7465 15.666 14.8704 15.67 14.9999C15.6849 15.0624 15.6849 15.1275 15.67 15.1899C15.6486 15.2499 15.6145 15.3045 15.57 15.3499C15.5224 15.399 15.4643 15.4367 15.4 15.4599C15.3288 15.4953 15.2489 15.5092 15.17 15.4999Z" fill="white"/>
<path d="M17 20.5401H7C6.5353 20.5427 6.07473 20.4529 5.64514 20.2757C5.21555 20.0985 4.82555 19.8375 4.49789 19.508C4.17023 19.1784 3.91147 18.787 3.73671 18.3564C3.56195 17.9258 3.47468 17.4647 3.48 17.0001V7.00006C3.47999 6.53874 3.57118 6.08198 3.74832 5.65603C3.92546 5.23008 4.18506 4.84335 4.51218 4.51809C4.83931 4.19282 5.22751 3.93543 5.65446 3.76072C6.08141 3.58601 6.53869 3.49742 7 3.50006H17C17.4613 3.49742 17.9186 3.58601 18.3455 3.76072C18.7725 3.93543 19.1607 4.19282 19.4878 4.51809C19.8149 4.84335 20.0745 5.23008 20.2517 5.65603C20.4288 6.08198 20.52 6.53874 20.52 7.00006V17.0001C20.5253 17.4647 20.438 17.9258 20.2633 18.3564C20.0885 18.787 19.8298 19.1784 19.5021 19.508C19.1744 19.8375 18.7844 20.0985 18.3549 20.2757C17.9253 20.4529 17.4647 20.5427 17 20.5401ZM7 4.50006C6.67001 4.49742 6.34277 4.56013 6.03714 4.68459C5.73152 4.80904 5.45355 4.99277 5.21929 5.22518C4.98502 5.45759 4.79908 5.73408 4.67219 6.03871C4.54531 6.34333 4.47999 6.67006 4.48 7.00006V17.0001C4.47465 17.3334 4.53603 17.6645 4.66053 17.9737C4.78503 18.283 4.97013 18.5642 5.20493 18.8009C5.43974 19.0376 5.71951 19.2249 6.02779 19.3518C6.33607 19.4788 6.66662 19.5428 7 19.5401H17C17.663 19.5401 18.2989 19.2767 18.7678 18.8078C19.2366 18.339 19.5 17.7031 19.5 17.0401V7.00006C19.5 6.33702 19.2366 5.70113 18.7678 5.23229C18.2989 4.76345 17.663 4.50006 17 4.50006H7Z" fill="white"/>
</svg>
