<svg width="24" height="24" viewBox="0 0 24 24" fill="none" xmlns="http://www.w3.org/2000/svg">
<path d="M8.79 9.4801C8.72754 9.49498 8.66246 9.49498 8.6 9.4801C8.53571 9.45683 8.47757 9.41921 8.43 9.3701C8.33906 9.2684 8.28916 9.13653 8.29 9.0001C8.27512 8.93764 8.27512 8.87256 8.29 8.8101C8.30808 8.74573 8.34241 8.68708 8.38969 8.6398C8.43698 8.59252 8.49562 8.55819 8.56 8.5401C8.65017 8.50352 8.74892 8.49349 8.84461 8.51121C8.94029 8.52893 9.02891 8.57366 9.1 8.6401C9.20704 8.73139 9.27504 8.86022 9.29 9.0001C9.28706 9.13176 9.23331 9.25718 9.14 9.3501C9.09363 9.39453 9.03866 9.42899 8.97846 9.45135C8.91826 9.47371 8.85412 9.48349 8.79 9.4801Z" fill="white"/>
<path d="M12 12.5C11.9376 12.5148 11.8725 12.5148 11.81 12.5C11.7447 12.4789 11.686 12.441 11.64 12.39C11.5954 12.3425 11.5583 12.2886 11.53 12.23C11.5204 12.167 11.5204 12.1029 11.53 12.04C11.5292 11.9095 11.5795 11.7839 11.67 11.69C11.7176 11.6409 11.7757 11.6032 11.84 11.58C11.9307 11.542 12.0307 11.5322 12.127 11.5519C12.2233 11.5715 12.3114 11.6196 12.38 11.69C12.4733 11.7829 12.5271 11.9083 12.53 12.04C12.5393 12.103 12.5393 12.167 12.53 12.23C12.5052 12.2905 12.4677 12.3451 12.42 12.39C12.364 12.4407 12.2966 12.4772 12.2235 12.4964C12.1504 12.5155 12.0737 12.5167 12 12.5Z" fill="white"/>
<path d="M15.17 9.47993C15.1075 9.49409 15.0426 9.49409 14.98 9.47993C14.9188 9.45626 14.864 9.41859 14.82 9.36993C14.7722 9.32504 14.7341 9.27082 14.708 9.21062C14.682 9.15042 14.6685 9.08553 14.6685 9.01993C14.6685 8.95433 14.682 8.88943 14.708 8.82923C14.7341 8.76904 14.7722 8.71482 14.82 8.66993C14.8646 8.60387 14.927 8.55184 15 8.51993C15.1218 8.46992 15.2583 8.46992 15.38 8.51993C15.4454 8.54099 15.504 8.57893 15.55 8.62993C15.6393 8.72458 15.6891 8.84979 15.6891 8.97993C15.6891 9.11006 15.6393 9.23528 15.55 9.32993C15.504 9.38092 15.4454 9.41887 15.38 9.43993C15.3148 9.4716 15.2423 9.4854 15.17 9.47993Z" fill="white"/>
<path d="M8.79 15.4801C8.72754 15.495 8.66246 15.495 8.6 15.4801C8.53571 15.4568 8.47757 15.4192 8.43 15.3701C8.33906 15.2684 8.28916 15.1365 8.29 15.0001C8.27512 14.9376 8.27512 14.8726 8.29 14.8101C8.30808 14.7457 8.34241 14.6871 8.38969 14.6398C8.43698 14.5925 8.49562 14.5582 8.56 14.5401C8.65017 14.5035 8.74892 14.4935 8.84461 14.5112C8.94029 14.5289 9.02891 14.5737 9.1 14.6401C9.19229 14.7378 9.24565 14.8658 9.25 15.0001C9.24706 15.1318 9.19331 15.2572 9.1 15.3501C9.01622 15.4302 8.90582 15.4765 8.79 15.4801Z" fill="white"/>
<path d="M15.17 15.48C15.1075 15.4941 15.0426 15.4941 14.98 15.48C14.9188 15.4563 14.864 15.4186 14.82 15.37C14.7722 15.3251 14.7341 15.2709 14.708 15.2107C14.682 15.1505 14.6685 15.0856 14.6685 15.02C14.6685 14.9544 14.682 14.8895 14.708 14.8293C14.7341 14.7691 14.7722 14.7149 14.82 14.67C14.864 14.6213 14.9188 14.5836 14.98 14.56C15.1018 14.51 15.2383 14.51 15.36 14.56C15.4254 14.581 15.484 14.619 15.53 14.67C15.6193 14.7646 15.6691 14.8898 15.6691 15.02C15.6691 15.1501 15.6193 15.2753 15.53 15.37C15.484 15.421 15.4254 15.4589 15.36 15.48C15.2976 15.4948 15.2325 15.4948 15.17 15.48Z" fill="white"/>
<path d="M17 20.52H7.00001C6.53701 20.5227 6.07809 20.4335 5.64983 20.2575C5.22156 20.0815 4.83247 19.8224 4.50508 19.495C4.17768 19.1676 3.9185 18.7785 3.74255 18.3502C3.56659 17.922 3.47735 17.463 3.48001 17V7.00004C3.47735 6.53704 3.56659 6.07812 3.74255 5.64986C3.9185 5.2216 4.17768 4.8325 4.50508 4.50511C4.83247 4.17771 5.22156 3.91853 5.64983 3.74258C6.07809 3.56662 6.53701 3.47738 7.00001 3.48004H17C17.463 3.47738 17.9219 3.56662 18.3502 3.74258C18.7785 3.91853 19.1675 4.17771 19.4949 4.50511C19.8223 4.8325 20.0815 5.2216 20.2575 5.64986C20.4334 6.07812 20.5227 6.53704 20.52 7.00004V17C20.5227 17.463 20.4334 17.922 20.2575 18.3502C20.0815 18.7785 19.8223 19.1676 19.4949 19.495C19.1675 19.8224 18.7785 20.0815 18.3502 20.2575C17.9219 20.4335 17.463 20.5227 17 20.52ZM7.00001 4.48004C6.66833 4.47737 6.33945 4.54074 6.0325 4.66643C5.72556 4.79213 5.4467 4.97765 5.21216 5.21219C4.97762 5.44673 4.7921 5.72559 4.6664 6.03253C4.54071 6.33948 4.47734 6.66836 4.48001 7.00004V17C4.47734 17.3317 4.54071 17.6606 4.6664 17.9675C4.7921 18.2745 4.97762 18.5533 5.21216 18.7879C5.4467 19.0224 5.72556 19.2079 6.0325 19.3336C6.33945 19.4593 6.66833 19.5227 7.00001 19.52H17C17.663 19.52 18.2989 19.2566 18.7678 18.7878C19.2366 18.319 19.5 17.6831 19.5 17.02V7.00004C19.5026 6.67005 19.4399 6.34281 19.3155 6.03719C19.191 5.73156 19.0073 5.4536 18.7749 5.21933C18.5425 4.98506 18.266 4.79912 17.9614 4.67223C17.6567 4.54535 17.33 4.48003 17 4.48004H7.00001Z" fill="white"/>
</svg>
