<svg width="24" height="24" viewBox="0 0 24 24" fill="none" xmlns="http://www.w3.org/2000/svg">
<path d="M14.74 15.3201H9.26C9.12739 15.3201 9.00022 15.2674 8.90645 15.1736C8.81268 15.0798 8.76 14.9527 8.76 14.8201V9.18005C8.76 9.04745 8.81268 8.92027 8.90645 8.8265C9.00022 8.73273 9.12739 8.68005 9.26 8.68005H14.74C14.8726 8.68005 14.9998 8.73273 15.0936 8.8265C15.1873 8.92027 15.24 9.04745 15.24 9.18005V14.8201C15.24 14.9527 15.1873 15.0798 15.0936 15.1736C14.9998 15.2674 14.8726 15.3201 14.74 15.3201ZM9.74 14.3201H14.22V9.68005H9.76L9.74 14.3201Z" fill="white"/>
<path d="M9.26 15.3201H3.77C3.63739 15.3201 3.51022 15.2674 3.41645 15.1736C3.32268 15.0798 3.27 14.9527 3.27 14.8201V9.18005C3.27 9.04745 3.32268 8.92027 3.41645 8.8265C3.51022 8.73273 3.63739 8.68005 3.77 8.68005H9.26C9.39261 8.68005 9.51979 8.73273 9.61355 8.8265C9.70732 8.92027 9.76 9.04745 9.76 9.18005V14.8201C9.76 14.9527 9.70732 15.0798 9.61355 15.1736C9.51979 15.2674 9.39261 15.3201 9.26 15.3201ZM4.26 14.3201H8.76V9.68005H4.27L4.26 14.3201Z" fill="white"/>
<path d="M20.22 15.3201H14.74C14.6074 15.3201 14.4802 15.2674 14.3864 15.1736C14.2927 15.0798 14.24 14.9527 14.24 14.8201V9.18005C14.24 9.04745 14.2927 8.92027 14.3864 8.8265C14.4802 8.73273 14.6074 8.68005 14.74 8.68005H20.22C20.3526 8.68005 20.4798 8.73273 20.5736 8.8265C20.6673 8.92027 20.72 9.04745 20.72 9.18005V14.8201C20.72 14.9527 20.6673 15.0798 20.5736 15.1736C20.4798 15.2674 20.3526 15.3201 20.22 15.3201ZM15.22 14.3201H19.7V9.68005H15.24L15.22 14.3201Z" fill="white"/>
</svg>
