<svg width="24" height="24" viewBox="0 0 24 24" fill="none" xmlns="http://www.w3.org/2000/svg">
<path d="M11.93 11.3701C11.04 11.3701 10.1699 11.1062 9.42993 10.6117C8.68991 10.1173 8.11313 9.41446 7.77254 8.59219C7.43194 7.76993 7.34283 6.86513 7.51646 5.99221C7.69009 5.1193 8.11868 4.31748 8.74801 3.68814C9.37735 3.0588 10.1792 2.63022 11.0521 2.45659C11.925 2.28295 12.8298 2.37207 13.6521 2.71266C14.4743 3.05326 15.1771 3.63003 15.6716 4.37005C16.1661 5.11007 16.43 5.9801 16.43 6.87012C16.43 8.06359 15.9559 9.20819 15.112 10.0521C14.2681 10.896 13.1235 11.3701 11.93 11.3701ZM11.93 3.37012C11.2373 3.37012 10.5603 3.57565 9.98446 3.96068C9.40868 4.34571 8.96008 4.89292 8.69547 5.53305C8.43086 6.17317 8.36214 6.87742 8.498 7.55662C8.63386 8.23583 8.96819 8.85945 9.45868 9.34853C9.94916 9.83761 10.5737 10.1702 11.2533 10.3041C11.9329 10.438 12.637 10.3673 13.2763 10.1008C13.9157 9.83438 14.4616 9.38422 14.845 8.80733C15.2284 8.23045 15.432 7.55278 15.43 6.86012C15.4287 6.40181 15.3371 5.94824 15.1605 5.52531C14.9839 5.10239 14.7257 4.71839 14.4007 4.39524C14.0757 4.07209 13.6903 3.81612 13.2663 3.64195C12.8424 3.46777 12.3883 3.3788 11.93 3.38012V3.37012Z" fill="white"/>
<path d="M18.39 21.6301H5.61C5.47739 21.6301 5.35022 21.5774 5.25645 21.4837C5.16268 21.3899 5.11 21.2627 5.11 21.1301C5.11 20.9975 5.16268 20.8703 5.25645 20.7766C5.35022 20.6828 5.47739 20.6301 5.61 20.6301H11.43V10.8701C11.43 10.7375 11.4827 10.6103 11.5764 10.5166C11.6702 10.4228 11.7974 10.3701 11.93 10.3701C12.0626 10.3701 12.1898 10.4228 12.2836 10.5166C12.3773 10.6103 12.43 10.7375 12.43 10.8701V20.6301H18.43C18.5626 20.6301 18.6898 20.6828 18.7836 20.7766C18.8773 20.8703 18.93 20.9975 18.93 21.1301C18.9302 21.1993 18.9161 21.2677 18.8885 21.3312C18.8609 21.3946 18.8205 21.4516 18.7697 21.4986C18.719 21.5456 18.659 21.5815 18.5936 21.6042C18.5283 21.6268 18.4589 21.6357 18.39 21.6301Z" fill="white"/>
</svg>
