<svg width="24" height="24" viewBox="0 0 24 24" fill="none" xmlns="http://www.w3.org/2000/svg">
<path d="M12 10.26C11.8915 10.2623 11.7855 10.2269 11.7 10.16L9.63002 8.61997C9.56903 8.57237 9.51942 8.51176 9.48483 8.44256C9.45023 8.37337 9.4315 8.29732 9.43002 8.21997V5.12997C9.43078 5.05248 9.44919 4.97618 9.48384 4.90687C9.5185 4.83757 9.56849 4.77706 9.63002 4.72997L11.7 3.17997C11.7872 3.11655 11.8922 3.0824 12 3.0824C12.1078 3.0824 12.2128 3.11655 12.3 3.17997L14.36 4.72997C14.4246 4.7749 14.4773 4.8347 14.5139 4.90432C14.5504 4.97394 14.5697 5.05133 14.57 5.12997V8.21997C14.5689 8.29844 14.5493 8.37555 14.5128 8.44504C14.4763 8.51453 14.424 8.57445 14.36 8.61997L12.3 10.16C12.2146 10.2269 12.1086 10.2623 12 10.26ZM10.43 7.99997L12 9.13997L13.57 7.99997V5.37997L12 4.20997L10.43 5.37997V7.99997Z" fill="white"/>
<path d="M12 20.93C10.6379 20.9265 9.3074 20.5199 8.17602 19.7614C7.04463 19.003 6.16302 17.9267 5.64226 16.6681C5.1215 15.4095 4.98489 14.025 5.24964 12.6889C5.51439 11.3528 6.16866 10.1249 7.13001 9.16002C7.22348 9.0684 7.34914 9.01709 7.48001 9.01709C7.61089 9.01709 7.73655 9.0684 7.83001 9.16002C7.87688 9.2065 7.91407 9.2618 7.93946 9.32273C7.96484 9.38366 7.97791 9.44901 7.97791 9.51502C7.97791 9.58102 7.96484 9.64638 7.93946 9.70731C7.91407 9.76824 7.87688 9.82354 7.83001 9.87002C7.00434 10.6949 6.44187 11.7462 6.21378 12.8908C5.98568 14.0355 6.1022 15.222 6.5486 16.3004C6.995 17.3789 7.75121 18.3006 8.72158 18.9492C9.69195 19.5977 10.8329 19.9439 12 19.9439C13.1672 19.9439 14.3081 19.5977 15.2784 18.9492C16.2488 18.3006 17.005 17.3789 17.4514 16.3004C17.8978 15.222 18.0143 14.0355 17.7862 12.8908C17.5582 11.7462 16.9957 10.6949 16.17 9.87002C16.1231 9.82354 16.0859 9.76824 16.0606 9.70731C16.0352 9.64638 16.0221 9.58102 16.0221 9.51502C16.0221 9.44901 16.0352 9.38366 16.0606 9.32273C16.0859 9.2618 16.1231 9.2065 16.17 9.16002C16.2635 9.0684 16.3891 9.01709 16.52 9.01709C16.6509 9.01709 16.7765 9.0684 16.87 9.16002C18.1615 10.4537 18.8869 12.207 18.8869 14.035C18.8869 15.863 18.1615 17.6163 16.87 18.91C16.2326 19.5526 15.4738 20.0621 14.6378 20.4089C13.8017 20.7556 12.9051 20.9328 12 20.93Z" fill="white"/>
</svg>
