<svg width="24" height="24" viewBox="0 0 24 24" fill="none" xmlns="http://www.w3.org/2000/svg">
<path d="M14.77 10.1699H9.23C9.09739 10.1699 8.97021 10.1172 8.87644 10.0235C8.78267 9.92971 8.73 9.80253 8.73 9.66992C8.73 9.53731 8.78267 9.41014 8.87644 9.31637C8.97021 9.2226 9.09739 9.16992 9.23 9.16992H14.77C14.9026 9.16992 15.0298 9.2226 15.1235 9.31637C15.2173 9.41014 15.27 9.53731 15.27 9.66992C15.27 9.80253 15.2173 9.92971 15.1235 10.0235C15.0298 10.1172 14.9026 10.1699 14.77 10.1699Z" fill="white"/>
<path d="M19.43 21.78C19.3232 21.7809 19.2186 21.7495 19.13 21.69L12 16.42L4.86999 21.69C4.79205 21.7388 4.70195 21.7646 4.60999 21.7646C4.51804 21.7646 4.42794 21.7388 4.34999 21.69C4.26584 21.6487 4.19497 21.5847 4.14546 21.5051C4.09596 21.4256 4.06981 21.3337 4.06999 21.24V5.58997C4.07264 4.69527 4.42991 3.83812 5.0635 3.20641C5.69709 2.5747 6.55529 2.21997 7.44999 2.21997H16.55C17.4447 2.21997 18.3029 2.5747 18.9365 3.20641C19.5701 3.83812 19.9273 4.69527 19.93 5.58997V21.28C19.9302 21.3737 19.904 21.4656 19.8545 21.5451C19.805 21.6247 19.7341 21.6887 19.65 21.73C19.5823 21.7655 19.5064 21.7827 19.43 21.78ZM12 15.29C12.1074 15.2943 12.2114 15.329 12.3 15.39L18.93 20.29V5.58997C18.9273 4.96049 18.6754 4.35769 18.2294 3.91352C17.7833 3.46934 17.1795 3.21997 16.55 3.21997H7.44999C6.82051 3.21997 6.21665 3.46934 5.7706 3.91352C5.32455 4.35769 5.07264 4.96049 5.06999 5.58997V20.29L11.7 15.39C11.7886 15.329 11.8926 15.2943 12 15.29Z" fill="white"/>
</svg>
