<svg width="24" height="24" viewBox="0 0 24 24" fill="none" xmlns="http://www.w3.org/2000/svg">
<path d="M8.07 20.4899C7.54305 20.4919 7.0274 20.3373 6.58843 20.0458C6.14947 19.7543 5.80698 19.3389 5.60441 18.8525C5.40185 18.366 5.34833 17.8303 5.45064 17.3134C5.55296 16.7965 5.80651 16.3216 6.17911 15.949C6.55172 15.5764 7.02661 15.3229 7.54353 15.2205C8.06044 15.1182 8.59611 15.1718 9.08256 15.3743C9.56902 15.5769 9.98435 15.9194 10.2759 16.3583C10.5674 16.7973 10.722 17.313 10.72 17.8399C10.72 18.1879 10.6515 18.5325 10.5183 18.854C10.3851 19.1755 10.1899 19.4677 9.94383 19.7137C9.69776 19.9598 9.40562 20.155 9.08411 20.2882C8.7626 20.4214 8.418 20.4899 8.07 20.4899ZM8.07 16.1799C7.74126 16.1779 7.41934 16.2736 7.14504 16.4548C6.87075 16.636 6.65642 16.8945 6.52925 17.1977C6.40207 17.5008 6.36777 17.8349 6.43069 18.1576C6.4936 18.4802 6.65091 18.777 6.88266 19.0101C7.11441 19.2433 7.41018 19.4024 7.73245 19.4672C8.05473 19.5321 8.38901 19.4998 8.69292 19.3745C8.99683 19.2491 9.25668 19.0364 9.43953 18.7632C9.62238 18.49 9.71999 18.1686 9.72 17.8399C9.72001 17.4014 9.54649 16.9807 9.23734 16.6696C8.92819 16.3586 8.50852 16.1825 8.07 16.1799Z" fill="white"/>
<path d="M15.28 20.4899C14.7531 20.4919 14.2374 20.3373 13.7984 20.0458C13.3595 19.7543 13.017 19.3389 12.8144 18.8525C12.6118 18.366 12.5583 17.8303 12.6606 17.3134C12.763 16.7965 13.0165 16.3216 13.3891 15.949C13.7617 15.5764 14.2366 15.3229 14.7535 15.2205C15.2704 15.1182 15.8061 15.1718 16.2926 15.3743C16.779 15.5769 17.1944 15.9194 17.4859 16.3583C17.7774 16.7973 17.932 17.313 17.93 17.8399C17.93 18.5427 17.6508 19.2168 17.1538 19.7137C16.6569 20.2107 15.9828 20.4899 15.28 20.4899ZM15.28 16.1799C14.9513 16.1779 14.6293 16.2736 14.355 16.4548C14.0807 16.636 13.8664 16.8945 13.7392 17.1977C13.6121 17.5008 13.5778 17.8349 13.6407 18.1576C13.7036 18.4802 13.8609 18.777 14.0927 19.0101C14.3244 19.2433 14.6202 19.4024 14.9425 19.4672C15.2647 19.5321 15.599 19.4998 15.9029 19.3745C16.2068 19.2491 16.4667 19.0364 16.6495 18.7632C16.8324 18.49 16.93 18.1686 16.93 17.8399C16.93 17.4014 16.7565 16.9807 16.4473 16.6696C16.1382 16.3586 15.7185 16.1825 15.28 16.1799Z" fill="white"/>
<path d="M13.13 18.3398H10.22C10.0874 18.3398 9.96022 18.2872 9.86645 18.1934C9.77268 18.0996 9.72 17.9725 9.72 17.8398C9.72 17.7072 9.77268 17.5801 9.86645 17.4863C9.96022 17.3925 10.0874 17.3398 10.22 17.3398H13.13C13.2626 17.3398 13.3898 17.3925 13.4836 17.4863C13.5773 17.5801 13.63 17.7072 13.63 17.8398C13.6274 17.9717 13.5739 18.0973 13.4807 18.1906C13.3875 18.2838 13.2618 18.3373 13.13 18.3398Z" fill="white"/>
<path d="M3.84 14.5099C3.74579 14.5126 3.65288 14.4875 3.57285 14.4377C3.49283 14.3879 3.42924 14.3156 3.39 14.2299C3.36099 14.1709 3.34393 14.1066 3.33979 14.041C3.33565 13.9753 3.34452 13.9094 3.36589 13.8472C3.38726 13.7849 3.4207 13.7275 3.46431 13.6782C3.50792 13.6289 3.56083 13.5887 3.62 13.5599C6.23173 12.4607 9.04725 11.9289 11.88 11.9999C12.0126 11.9999 12.1398 12.0526 12.2336 12.1464C12.3273 12.2401 12.38 12.3673 12.38 12.4999C12.38 12.6325 12.3273 12.7597 12.2336 12.8535C12.1398 12.9473 12.0126 12.9999 11.88 12.9999H11.68C9.06862 12.958 6.47602 13.448 4.06 14.4399C3.99199 14.4775 3.91723 14.5013 3.84 14.5099Z" fill="white"/>
<path d="M19.92 14.5099C19.8473 14.5237 19.7727 14.5237 19.7 14.5099C17.289 13.4939 14.6962 12.9802 12.08 12.9999C12.0137 13.01 11.9463 13.01 11.88 12.9999C11.7474 12.9999 11.6202 12.9472 11.5265 12.8534C11.4327 12.7597 11.38 12.6325 11.38 12.4999C11.38 12.3673 11.4327 12.2401 11.5265 12.1463C11.6202 12.0526 11.7474 11.9999 11.88 11.9999C14.7125 11.9075 17.5311 12.433 20.14 13.5399C20.1992 13.5687 20.2521 13.6089 20.2957 13.6582C20.3393 13.7075 20.3728 13.7649 20.3941 13.8271C20.4155 13.8894 20.4244 13.9552 20.4202 14.0209C20.4161 14.0866 20.399 14.1508 20.37 14.2099C20.3338 14.2993 20.2715 14.3758 20.1913 14.4293C20.111 14.4828 20.0165 14.5109 19.92 14.5099Z" fill="white"/>
<path d="M6.6 10.9999H6.54C6.40881 10.9825 6.28987 10.9138 6.20927 10.8088C6.12867 10.7038 6.09297 10.5712 6.11 10.4399C6.26 9.27994 7.11 3.43994 9.71 3.43994H12C12.1326 3.43994 12.2598 3.49262 12.3536 3.58639C12.4473 3.68016 12.5 3.80733 12.5 3.93994C12.5 4.07255 12.4473 4.19973 12.3536 4.29349C12.2598 4.38726 12.1326 4.43994 12 4.43994H9.71C8.46 4.43994 7.43 7.98994 7.1 10.5199C7.09483 10.6491 7.03988 10.7712 6.94667 10.8606C6.85346 10.9501 6.72922 11 6.6 10.9999Z" fill="white"/>
<path d="M17.16 11C17.0387 11.0012 16.9211 10.9582 16.8291 10.8791C16.7371 10.8 16.677 10.6901 16.66 10.57C16.33 8.03999 15.3 4.48999 14.05 4.48999H11.8C11.6674 4.48999 11.5402 4.43731 11.4464 4.34354C11.3527 4.24978 11.3 4.1226 11.3 3.98999C11.3 3.85738 11.3527 3.73021 11.4464 3.63644C11.5402 3.54267 11.6674 3.48999 11.8 3.48999H14.05C16.61 3.48999 17.5 9.27999 17.65 10.49C17.667 10.6212 17.6313 10.7539 17.5507 10.8589C17.4701 10.9638 17.3512 11.0326 17.22 11.05L17.16 11Z" fill="white"/>
</svg>
