<svg width="24" height="24" viewBox="0 0 24 24" fill="none" xmlns="http://www.w3.org/2000/svg">
<path d="M13.49 15.69H3.99998C3.39967 15.69 2.82379 15.4522 2.39837 15.0286C1.97295 14.6051 1.73263 14.0303 1.72998 13.43V6.10998C1.73263 5.50967 1.97295 4.93485 2.39837 4.5113C2.82379 4.08776 3.39967 3.84997 3.99998 3.84998H16C16.6003 3.84997 17.1762 4.08776 17.6016 4.5113C18.027 4.93485 18.2673 5.50967 18.27 6.10998V7.24998C18.27 7.38258 18.2173 7.50976 18.1235 7.60353C18.0298 7.6973 17.9026 7.74998 17.77 7.74998C17.6382 7.74742 17.5125 7.69392 17.4193 7.6007C17.326 7.50748 17.2725 7.38178 17.27 7.24998V6.10998C17.27 5.94367 17.2371 5.779 17.1731 5.62547C17.1092 5.47195 17.0155 5.3326 16.8974 5.21547C16.7793 5.09833 16.6393 5.00573 16.4852 4.943C16.3312 4.88027 16.1663 4.84866 16 4.84998H3.99998C3.66754 4.85261 3.34962 4.98653 3.11548 5.22254C2.88135 5.45855 2.74997 5.77753 2.74998 6.10998V13.43C2.75255 13.7616 2.88476 14.0791 3.11835 14.3146C3.35193 14.55 3.66836 14.6848 3.99998 14.69H13.47C13.6026 14.69 13.7298 14.7427 13.8235 14.8364C13.9173 14.9302 13.97 15.0574 13.97 15.19C13.9701 15.3192 13.9202 15.4434 13.8307 15.5366C13.7412 15.6299 13.6191 15.6848 13.49 15.69Z" fill="white"/>
<path d="M10 18.7799C9.86739 18.7799 9.74021 18.7273 9.64645 18.6335C9.55268 18.5397 9.5 18.4126 9.5 18.2799V15.1899C9.5 15.0573 9.55268 14.9302 9.64645 14.8364C9.74021 14.7426 9.86739 14.6899 10 14.6899C10.1326 14.6899 10.2598 14.7426 10.3536 14.8364C10.4473 14.9302 10.5 15.0573 10.5 15.1899V18.2799C10.5 18.4126 10.4473 18.5397 10.3536 18.6335C10.2598 18.7273 10.1326 18.7799 10 18.7799Z" fill="white"/>
<path d="M13.49 18.7899H5.34998C5.21817 18.7874 5.09247 18.7339 4.99926 18.6406C4.90604 18.5474 4.85254 18.4217 4.84998 18.2899C4.84998 18.1573 4.90265 18.0301 4.99642 17.9364C5.09019 17.8426 5.21737 17.7899 5.34998 17.7899H13.49C13.6226 17.7899 13.7498 17.8426 13.8435 17.9364C13.9373 18.0301 13.99 18.1573 13.99 18.2899C13.99 18.4225 13.9373 18.5497 13.8435 18.6435C13.7498 18.7372 13.6226 18.7899 13.49 18.7899Z" fill="white"/>
<path d="M19.53 21.5H15.71C14.9921 21.4974 14.3043 21.211 13.7967 20.7033C13.289 20.1957 13.0026 19.5079 13 18.79V9.45999C13 8.7386 13.2866 8.04676 13.7967 7.53666C14.3068 7.02656 14.9986 6.73999 15.72 6.73999H19.54C20.2614 6.73999 20.9532 7.02656 21.4633 7.53666C21.9734 8.04676 22.26 8.7386 22.26 9.45999V18.79C22.2587 19.1472 22.187 19.5006 22.0491 19.8301C21.9112 20.1596 21.7098 20.4588 21.4563 20.7104C21.2028 20.962 20.9022 21.1613 20.5717 21.2968C20.2412 21.4323 19.8872 21.5013 19.53 21.5ZM15.71 7.73999C15.2556 7.74263 14.8206 7.92501 14.5002 8.24729C14.1798 8.56957 14 9.00555 14 9.45999V18.79C14.0026 19.2444 14.185 19.6794 14.5073 19.9998C14.8296 20.3202 15.2656 20.5 15.72 20.5H19.54C19.9944 20.5 20.4304 20.3202 20.7527 19.9998C21.075 19.6794 21.2574 19.2444 21.26 18.79V9.45999C21.26 9.00382 21.0788 8.56633 20.7562 8.24377C20.4337 7.9212 19.9962 7.73999 19.54 7.73999H15.71Z" fill="white"/>
<path d="M17.62 19.43C17.4895 19.4308 17.3639 19.3805 17.27 19.29C17.2217 19.2434 17.1834 19.1875 17.1576 19.1255C17.1318 19.0636 17.119 18.9971 17.12 18.93C17.1192 18.8644 17.1321 18.7994 17.158 18.7391C17.1838 18.6788 17.2219 18.6246 17.27 18.58C17.3386 18.5096 17.4268 18.4615 17.5231 18.4419C17.6194 18.4223 17.7193 18.432 17.81 18.47C17.8686 18.4983 17.9226 18.5354 17.97 18.58C18.018 18.6246 18.0562 18.6788 18.082 18.7391C18.1079 18.7994 18.1208 18.8644 18.12 18.93C18.121 18.9971 18.1081 19.0636 18.0823 19.1255C18.0565 19.1875 18.0183 19.2434 17.97 19.29C17.9226 19.3346 17.8686 19.3717 17.81 19.4C17.7488 19.4205 17.6845 19.4306 17.62 19.43Z" fill="white"/>
</svg>
