<svg width="24" height="24" viewBox="0 0 24 24" fill="none" xmlns="http://www.w3.org/2000/svg">
<path d="M17.66 21.53H6.33999C5.31095 21.53 4.32406 21.1212 3.59642 20.3935C2.86878 19.6659 2.45999 18.679 2.45999 17.65V6.32995C2.45999 5.30091 2.86878 4.31402 3.59642 3.58638C4.32406 2.85874 5.31095 2.44995 6.33999 2.44995H17.66C18.689 2.44995 19.6759 2.85874 20.4036 3.58638C21.1312 4.31402 21.54 5.30091 21.54 6.32995V17.65C21.54 18.1595 21.4396 18.664 21.2446 19.1348C21.0497 19.6055 20.7639 20.0332 20.4036 20.3935C20.0433 20.7538 19.6155 21.0396 19.1448 21.2346C18.6741 21.4296 18.1695 21.53 17.66 21.53ZM6.33999 3.44995C5.57617 3.44995 4.84363 3.75338 4.30352 4.29348C3.76342 4.83359 3.45999 5.56613 3.45999 6.32995V17.65C3.45999 18.4138 3.76342 19.1463 4.30352 19.6864C4.84363 20.2265 5.57617 20.53 6.33999 20.53H17.66C18.4238 20.53 19.1564 20.2265 19.6965 19.6864C20.2366 19.1463 20.54 18.4138 20.54 17.65V6.32995C20.54 5.56613 20.2366 4.83359 19.6965 4.29348C19.1564 3.75338 18.4238 3.44995 17.66 3.44995H6.33999Z" fill="white"/>
<path d="M8.19 12.6899C7.66477 12.6918 7.15072 12.5382 6.71264 12.2484C6.27457 11.9586 5.9321 11.5457 5.72839 11.0615C5.52467 10.5774 5.46885 10.0438 5.56795 9.52801C5.66704 9.01221 5.91663 8.53728 6.28523 8.16311C6.65384 7.78894 7.12497 7.53227 7.63923 7.42546C8.1535 7.31864 8.68787 7.36647 9.175 7.56291C9.66212 7.75934 10.0802 8.09559 10.3765 8.52927C10.6728 8.96296 10.8341 9.47465 10.84 9.99986C10.8453 10.3512 10.7807 10.7001 10.6499 11.0263C10.5191 11.3524 10.3247 11.6493 10.0781 11.8996C9.83152 12.1499 9.53759 12.3487 9.21344 12.4844C8.88929 12.62 8.5414 12.6899 8.19 12.6899ZM8.19 8.37986C7.85958 8.37796 7.53612 8.47472 7.26101 8.65774C6.9859 8.84076 6.77168 9.10172 6.64575 9.40721C6.51983 9.7127 6.48794 10.0488 6.55417 10.3725C6.6204 10.6963 6.78173 10.9929 7.01751 11.2243C7.25329 11.4558 7.55279 11.6117 7.87767 11.672C8.20255 11.7323 8.53802 11.6942 8.84115 11.5627C9.14428 11.4312 9.40127 11.2122 9.57921 10.9338C9.75715 10.6554 9.84796 10.3302 9.84 9.99986C9.82961 9.56829 9.6515 9.15775 9.34347 8.85531C9.03543 8.55287 8.62169 8.38233 8.19 8.37986Z" fill="white"/>
<path d="M16 12.69C15.4739 12.6958 14.9579 12.5456 14.5173 12.2583C14.0766 11.9709 13.731 11.5594 13.5242 11.0756C13.3175 10.5919 13.2588 10.0577 13.3556 9.54059C13.4524 9.02349 13.7004 8.54671 14.0682 8.17055C14.4359 7.79438 14.907 7.53571 15.4218 7.42726C15.9366 7.3188 16.4719 7.36543 16.9602 7.56124C17.4485 7.75706 17.8678 8.09326 18.165 8.52735C18.4622 8.96143 18.624 9.4739 18.63 9.99995C18.6339 10.3493 18.5691 10.696 18.439 11.0202C18.309 11.3444 18.1164 11.6399 17.8721 11.8897C17.6279 12.1395 17.3369 12.3387 17.0157 12.476C16.6944 12.6133 16.3493 12.686 16 12.69ZM16 8.37995C15.7718 8.3622 15.5425 8.39182 15.3263 8.46694C15.1101 8.54207 14.9119 8.66107 14.7439 8.81649C14.5759 8.9719 14.4419 9.16037 14.3502 9.37005C14.2586 9.57974 14.2112 9.80611 14.2112 10.035C14.2112 10.2638 14.2586 10.4902 14.3502 10.6998C14.4419 10.9095 14.5759 11.098 14.7439 11.2534C14.9119 11.4088 15.1101 11.5278 15.3263 11.603C15.5425 11.6781 15.7718 11.7077 16 11.69C16.4167 11.6575 16.8058 11.4691 17.0897 11.1623C17.3736 10.8555 17.5312 10.4529 17.5312 10.035C17.5312 9.61698 17.3736 9.21439 17.0897 8.90759C16.8058 8.60079 16.4167 8.41237 16 8.37995Z" fill="white"/>
<path d="M16 17.1699H8.19C8.05739 17.1699 7.93022 17.1172 7.83645 17.0235C7.74268 16.9297 7.69 16.8025 7.69 16.6699C7.69 16.5373 7.74268 16.4101 7.83645 16.3164C7.93022 16.2226 8.05739 16.1699 8.19 16.1699H16C16.1318 16.1725 16.2575 16.226 16.3507 16.3192C16.4439 16.4124 16.4974 16.5381 16.5 16.6699C16.5 16.8025 16.4473 16.9297 16.3536 17.0235C16.2598 17.1172 16.1326 17.1699 16 17.1699Z" fill="white"/>
</svg>
