<svg width="24" height="24" viewBox="0 0 24 24" fill="none" xmlns="http://www.w3.org/2000/svg">
<path d="M5.34999 16.3299C5.26273 16.3294 5.17713 16.306 5.1017 16.2622C5.02626 16.2183 4.96362 16.1555 4.91999 16.0799C4.20299 14.9061 3.78228 13.5755 3.69415 12.2028C3.60602 10.8302 3.85312 9.4567 4.41413 8.20083C4.97513 6.94496 5.83322 5.84441 6.91437 4.99408C7.99552 4.14376 9.26728 3.56919 10.62 3.31993C10.6844 3.30696 10.7508 3.3071 10.8152 3.32033C10.8796 3.33356 10.9407 3.35961 10.9948 3.39693C11.0489 3.43425 11.095 3.48208 11.1302 3.53757C11.1655 3.59306 11.1892 3.65508 11.2 3.71993C11.2234 3.84982 11.1944 3.9837 11.1195 4.09235C11.0446 4.201 10.9297 4.27562 10.8 4.29993C9.38316 4.56194 8.07234 5.22811 7.02551 6.21817C5.97868 7.20822 5.24052 8.47989 4.89999 9.87993C4.43164 11.8173 4.74414 13.8611 5.76999 15.5699C5.80564 15.6251 5.82959 15.6871 5.84033 15.7519C5.85108 15.8167 5.8484 15.883 5.83246 15.9468C5.81653 16.0105 5.78767 16.0703 5.74768 16.1225C5.70769 16.1746 5.65742 16.218 5.59999 16.2499C5.52548 16.2988 5.43905 16.3265 5.34999 16.3299Z" fill="white"/>
<path d="M12.18 20.1801C10.8186 20.1643 9.481 19.8213 8.27999 19.1801C8.22155 19.1499 8.16963 19.1085 8.1272 19.0582C8.08477 19.0079 8.05265 18.9498 8.03269 18.8871C8.01273 18.8244 8.0053 18.7585 8.01084 18.6929C8.01639 18.6274 8.03478 18.5635 8.06499 18.5051C8.09519 18.4467 8.13661 18.3947 8.18688 18.3523C8.23715 18.3099 8.29528 18.2778 8.35796 18.2578C8.42064 18.2378 8.48664 18.2304 8.55219 18.236C8.61773 18.2415 8.68155 18.2599 8.73999 18.2901C9.82278 18.8543 11.0271 19.1452 12.248 19.1375C13.469 19.1299 14.6695 18.8238 15.7451 18.2461C16.8207 17.6684 17.7388 16.8364 18.4194 15.8227C19.1 14.8091 19.5224 13.6444 19.65 12.4301C19.6651 12.3001 19.7296 12.181 19.8301 12.0972C19.9306 12.0135 20.0594 11.9715 20.19 11.9801C20.2558 11.9863 20.3197 12.0056 20.378 12.0367C20.4363 12.0678 20.4879 12.1101 20.5297 12.1612C20.5715 12.2124 20.6028 12.2713 20.6218 12.3346C20.6407 12.3979 20.6469 12.4644 20.64 12.5301C20.4136 14.6174 19.4253 16.5478 17.8644 17.9519C16.3034 19.356 14.2795 20.1351 12.18 20.1401V20.1801Z" fill="white"/>
<path d="M4.43001 20.6899C4.26936 20.6912 4.11031 20.658 3.96365 20.5924C3.81699 20.5268 3.68615 20.4305 3.58001 20.3099C3.4195 20.1471 3.31319 19.9387 3.2756 19.7131C3.23801 19.4876 3.27099 19.256 3.37001 19.0499L4.89001 15.6199C4.91693 15.5595 4.95549 15.505 5.00348 15.4595C5.05146 15.414 5.10795 15.3784 5.1697 15.3547C5.23145 15.331 5.29726 15.3197 5.36337 15.3215C5.42948 15.3232 5.4946 15.338 5.55501 15.3649C5.61542 15.3918 5.66993 15.4304 5.71544 15.4784C5.76095 15.5264 5.79656 15.5828 5.82024 15.6446C5.84392 15.7063 5.8552 15.7721 5.85345 15.8383C5.85169 15.9044 5.83693 15.9695 5.81001 16.0299L4.28001 19.4499C4.2666 19.4801 4.26227 19.5135 4.26757 19.5462C4.27286 19.5788 4.28755 19.6091 4.30983 19.6335C4.33211 19.6579 4.36101 19.6753 4.39301 19.6836C4.42501 19.6918 4.45872 19.6905 4.49001 19.6799L8.34001 18.3099C8.40162 18.2862 8.46739 18.2752 8.53336 18.2775C8.59933 18.2799 8.66415 18.2955 8.72393 18.3235C8.7837 18.3516 8.83719 18.3914 8.8812 18.4406C8.92521 18.4898 8.95882 18.5474 8.98001 18.6099C9.02504 18.7346 9.01874 18.872 8.96248 18.992C8.90623 19.112 8.80463 19.2048 8.68001 19.2499L4.83001 20.6199C4.70183 20.6666 4.56642 20.6903 4.43001 20.6899Z" fill="white"/>
<path d="M18.59 9.28C18.4549 9.27967 18.3254 9.22572 18.23 9.13L14.14 5C14.0484 4.90653 13.9971 4.78088 13.9971 4.65C13.9971 4.51912 14.0484 4.39346 14.14 4.3C14.1865 4.25313 14.2418 4.21594 14.3027 4.19055C14.3636 4.16517 14.429 4.1521 14.495 4.1521C14.561 4.1521 14.6264 4.16517 14.6873 4.19055C14.7482 4.21594 14.8035 4.25313 14.85 4.3L18.94 8.39C19.0085 8.45988 19.055 8.54834 19.0737 8.64441C19.0925 8.74047 19.0826 8.83992 19.0453 8.93042C19.0081 9.02092 18.945 9.0985 18.8641 9.15353C18.7832 9.20856 18.6879 9.23862 18.59 9.24V9.28Z" fill="white"/>
<path d="M14.5 9.28004C14.3649 9.27971 14.2354 9.22576 14.14 9.13004C14.0484 9.03657 13.9971 8.91091 13.9971 8.78004C13.9971 8.64916 14.0484 8.5235 14.14 8.43004L18.23 4.34004C18.2765 4.29317 18.3318 4.25598 18.3927 4.23059C18.4536 4.20521 18.519 4.19214 18.585 4.19214C18.651 4.19214 18.7164 4.20521 18.7773 4.23059C18.8382 4.25598 18.8935 4.29317 18.94 4.34004C18.9878 4.38493 19.026 4.43915 19.052 4.49934C19.0781 4.55954 19.0915 4.62444 19.0915 4.69004C19.0915 4.75563 19.0781 4.82053 19.052 4.88073C19.026 4.94093 18.9878 4.99515 18.94 5.04004L14.85 9.13004C14.8046 9.17713 14.7503 9.21467 14.6902 9.24043C14.6301 9.26619 14.5654 9.27966 14.5 9.28004Z" fill="white"/>
</svg>
