<svg width="24" height="24" viewBox="0 0 24 24" fill="none" xmlns="http://www.w3.org/2000/svg">
<path d="M12 16.81C10.7888 16.8074 9.62791 16.3251 8.77144 15.4686C7.91497 14.6121 7.43264 13.4513 7.43 12.24V6.24004C7.43 5.028 7.91148 3.86561 8.76852 3.00857C9.62556 2.15152 10.788 1.67004 12 1.67004C13.212 1.67004 14.3744 2.15152 15.2315 3.00857C16.0885 3.86561 16.57 5.028 16.57 6.24004V12.24C16.5674 13.4513 16.085 14.6121 15.2286 15.4686C14.3721 16.3251 13.2112 16.8074 12 16.81ZM12 2.65004C11.0532 2.65004 10.1451 3.02617 9.47563 3.69567C8.80612 4.36518 8.43 5.27322 8.43 6.22004V12.22C8.43 13.1669 8.80612 14.0749 9.47563 14.7444C10.1451 15.4139 11.0532 15.79 12 15.79C12.9468 15.79 13.8549 15.4139 14.5244 14.7444C15.1939 14.0749 15.57 13.1669 15.57 12.22V6.22004C15.57 5.75122 15.4777 5.287 15.2983 4.85386C15.1188 4.42073 14.8559 4.02718 14.5244 3.69567C14.1929 3.36417 13.7993 3.1012 13.3662 2.92179C12.933 2.74238 12.4688 2.65004 12 2.65004Z" fill="white"/>
<path d="M16.07 22.3501H7.93C7.79739 22.3501 7.67021 22.2974 7.57645 22.2037C7.48268 22.1099 7.43 21.9827 7.43 21.8501C7.43 21.7175 7.48268 21.5903 7.57645 21.4965C7.67021 21.4028 7.79739 21.3501 7.93 21.3501H11.5V16.3501C11.5 16.2175 11.5527 16.0903 11.6464 15.9965C11.7402 15.9028 11.8674 15.8501 12 15.8501C12.1326 15.8501 12.2598 15.9028 12.3536 15.9965C12.4473 16.0903 12.5 16.2175 12.5 16.3501V21.3501H16.07C16.2026 21.3501 16.3298 21.4028 16.4236 21.4965C16.5173 21.5903 16.57 21.7175 16.57 21.8501C16.57 21.9827 16.5173 22.1099 16.4236 22.2037C16.3298 22.2974 16.2026 22.3501 16.07 22.3501Z" fill="white"/>
</svg>
