<svg width="24" height="24" viewBox="0 0 24 24" fill="none" xmlns="http://www.w3.org/2000/svg">
<path d="M20.34 9.0999H3.66001C3.09568 9.06205 2.56682 8.81117 2.18049 8.39807C1.79417 7.98497 1.57925 7.4405 1.57925 6.8749C1.57925 6.30931 1.79417 5.76484 2.18049 5.35174C2.56682 4.93863 3.09568 4.68776 3.66001 4.6499H20.34C20.9043 4.68776 21.4332 4.93863 21.8195 5.35174C22.2058 5.76484 22.4208 6.30931 22.4208 6.8749C22.4208 7.4405 22.2058 7.98497 21.8195 8.39807C21.4332 8.81117 20.9043 9.06205 20.34 9.0999ZM3.66001 5.6499C3.35422 5.67756 3.06983 5.81858 2.86273 6.04526C2.65563 6.27193 2.5408 6.56787 2.5408 6.8749C2.5408 7.18194 2.65563 7.47787 2.86273 7.70455C3.06983 7.93122 3.35422 8.07225 3.66001 8.0999H20.34C20.6458 8.07225 20.9302 7.93122 21.1373 7.70455C21.3444 7.47787 21.4592 7.18194 21.4592 6.8749C21.4592 6.56787 21.3444 6.27193 21.1373 6.04526C20.9302 5.81858 20.6458 5.67756 20.34 5.6499H3.66001Z" fill="white"/>
<path d="M19.29 19.6499H4.71001C4.5774 19.6499 4.45022 19.5972 4.35645 19.5034C4.26269 19.4096 4.21001 19.2825 4.21001 19.1499V8.59985C4.21001 8.46725 4.26269 8.34007 4.35645 8.2463C4.45022 8.15253 4.5774 8.09985 4.71001 8.09985H19.29C19.4226 8.09985 19.5498 8.15253 19.6436 8.2463C19.7373 8.34007 19.79 8.46725 19.79 8.59985V19.1499C19.79 19.2825 19.7373 19.4096 19.6436 19.5034C19.5498 19.5972 19.4226 19.6499 19.29 19.6499ZM5.21001 18.6499H18.79V9.09985H5.21001V18.6499Z" fill="white"/>
<path d="M14.77 14.3699H9.23001C9.0974 14.3699 8.97023 14.3172 8.87646 14.2234C8.78269 14.1297 8.73001 14.0025 8.73001 13.8699C8.73001 13.7373 8.78269 13.6101 8.87646 13.5163C8.97023 13.4226 9.0974 13.3699 9.23001 13.3699H14.77C14.9026 13.3699 15.0298 13.4226 15.1236 13.5163C15.2173 13.6101 15.27 13.7373 15.27 13.8699C15.27 14.0025 15.2173 14.1297 15.1236 14.2234C15.0298 14.3172 14.9026 14.3699 14.77 14.3699Z" fill="white"/>
</svg>
