<svg width="24" height="24" viewBox="0 0 24 24" fill="none" xmlns="http://www.w3.org/2000/svg">
<path d="M18.21 12.5H14.21C13.4885 12.4921 12.7993 12.1999 12.2919 11.687C11.7845 11.174 11.5 10.4815 11.5 9.76001V5.76001C11.5 5.6274 11.5527 5.50022 11.6464 5.40646C11.7402 5.31269 11.8674 5.26001 12 5.26001H16C16.7215 5.26791 17.4107 5.56007 17.9181 6.07307C18.4255 6.58606 18.71 7.27848 18.71 8.00001V12C18.71 12.1326 18.6573 12.2598 18.5636 12.3536C18.4698 12.4473 18.3426 12.5 18.21 12.5ZM12.5 6.29001V9.76001C12.5 10.2215 12.6833 10.6641 13.0096 10.9904C13.3359 11.3167 13.7785 11.5 14.24 11.5H17.71V8.00001C17.7023 7.5489 17.5197 7.11842 17.2006 6.79939C16.8816 6.48036 16.4511 6.29772 16 6.29001H12.5Z" fill="white"/>
<path d="M16 18.71H7.99998C7.28366 18.7022 6.59889 18.4142 6.09234 17.9077C5.5858 17.4011 5.29778 16.7164 5.28998 16V8.00004C5.29778 7.28372 5.5858 6.59895 6.09234 6.0924C6.59889 5.58586 7.28366 5.29784 7.99998 5.29004H16C16.7163 5.29784 17.4011 5.58586 17.9076 6.0924C18.4142 6.59895 18.7022 7.28372 18.71 8.00004V16C18.7022 16.7164 18.4142 17.4011 17.9076 17.9077C17.4011 18.4142 16.7163 18.7022 16 18.71ZM7.99998 6.29004C7.54887 6.29775 7.11839 6.48039 6.79936 6.79942C6.48033 7.11845 6.29769 7.54893 6.28998 8.00004V16C6.29769 16.4512 6.48033 16.8816 6.79936 17.2007C7.11839 17.5197 7.54887 17.7023 7.99998 17.71H16C16.4511 17.7023 16.8816 17.5197 17.2006 17.2007C17.5196 16.8816 17.7023 16.4512 17.71 16V8.00004C17.7023 7.54893 17.5196 7.11845 17.2006 6.79942C16.8816 6.48039 16.4511 6.29775 16 6.29004H7.99998Z" fill="white"/>
</svg>
