<svg width="24" height="24" viewBox="0 0 24 24" fill="none" xmlns="http://www.w3.org/2000/svg">
<path d="M11.5 13C10.4122 13 9.34884 12.6774 8.44437 12.0731C7.5399 11.4687 6.83495 10.6098 6.41867 9.60476C6.00238 8.59977 5.89346 7.4939 6.10568 6.42701C6.3179 5.36011 6.84173 4.3801 7.61092 3.61092C8.3801 2.84173 9.36011 2.3179 10.427 2.10568C11.4939 1.89346 12.5998 2.00238 13.6048 2.41867C14.6098 2.83495 15.4687 3.5399 16.0731 4.44437C16.6774 5.34884 17 6.41221 17 7.5C16.9974 8.95788 16.417 10.3553 15.3862 11.3862C14.3553 12.417 12.9579 12.9974 11.5 13ZM11.5 3C10.61 3 9.73996 3.26392 8.99994 3.75839C8.25992 4.25286 7.68314 4.95566 7.34254 5.77793C7.00195 6.60019 6.91284 7.50499 7.08647 8.37791C7.2601 9.25082 7.68869 10.0526 8.31802 10.682C8.94736 11.3113 9.74918 11.7399 10.6221 11.9135C11.495 12.0872 12.3998 11.9981 13.2221 11.6575C14.0443 11.3169 14.7471 10.7401 15.2416 10.0001C15.7361 9.26005 16 8.39002 16 7.5C15.9974 6.30734 15.5224 5.16428 14.6791 4.32094C13.8357 3.4776 12.6927 3.00264 11.5 3Z" fill="white"/>
<path d="M2.5 21C2.36739 21 2.24021 20.9473 2.14645 20.8536C2.05268 20.7598 2 20.6326 2 20.5C2.00265 18.2465 2.89903 16.086 4.49252 14.4925C6.086 12.899 8.24647 12.0026 10.5 12H12.5C12.6326 12 12.7598 12.0527 12.8536 12.1464C12.9473 12.2402 13 12.3674 13 12.5C13 12.6326 12.9473 12.7598 12.8536 12.8536C12.7598 12.9473 12.6326 13 12.5 13H10.5C8.51088 13 6.60322 13.7902 5.1967 15.1967C3.79018 16.6032 3 18.5109 3 20.5C3 20.6326 2.94732 20.7598 2.85355 20.8536C2.75979 20.9473 2.63261 21 2.5 21Z" fill="white"/>
<path d="M14.5 22C14.4344 22.0008 14.3694 21.9879 14.3091 21.962C14.2488 21.9362 14.1946 21.898 14.15 21.85L10.15 17.85C10.0572 17.7572 10.005 17.6313 10.005 17.5C10.005 17.3687 10.0572 17.2428 10.15 17.15C10.2428 17.0572 10.3687 17.005 10.5 17.005C10.6313 17.005 10.7572 17.0572 10.85 17.15L14.48 20.77L21.12 13.17C21.2075 13.0692 21.3315 13.0073 21.4646 12.9979C21.5978 12.9886 21.7292 13.0325 21.83 13.12C21.9308 13.2075 21.9927 13.3315 22.002 13.4646C22.0114 13.5978 21.9675 13.7292 21.88 13.83L14.88 21.83C14.8352 21.8819 14.78 21.9239 14.718 21.9532C14.656 21.9825 14.5885 21.9984 14.52 22H14.5Z" fill="white"/>
</svg>
