<svg width="24" height="24" viewBox="0 0 24 24" fill="none" xmlns="http://www.w3.org/2000/svg">
<path d="M20.5 22.5H3.5C3.36739 22.5 3.24021 22.4473 3.14645 22.3536C3.05268 22.2598 3 22.1326 3 22C3 21.8674 3.05268 21.7402 3.14645 21.6464C3.24021 21.5527 3.36739 21.5 3.5 21.5H20.5C20.6326 21.5 20.7598 21.5527 20.8536 21.6464C20.9473 21.7402 21 21.8674 21 22C21 22.1326 20.9473 22.2598 20.8536 22.3536C20.7598 22.4473 20.6326 22.5 20.5 22.5Z" fill="white"/>
<path d="M6.5 22.5C6.36739 22.5 6.24021 22.4473 6.14645 22.3536C6.05268 22.2598 6 22.1326 6 22V2.00001C6.00136 1.91409 6.02399 1.82984 6.06587 1.7548C6.10775 1.67976 6.16758 1.61627 6.24 1.57001C6.31386 1.53062 6.39629 1.51001 6.48 1.51001C6.56371 1.51001 6.64614 1.53062 6.72 1.57001L18.72 7.57001C18.8045 7.61095 18.8758 7.67488 18.9257 7.75447C18.9756 7.83405 19.0021 7.92608 19.0021 8.02001C19.0021 8.11394 18.9756 8.20597 18.9257 8.28555C18.8758 8.36514 18.8045 8.42907 18.72 8.47001L7 14.31V22C7 22.1326 6.94732 22.2598 6.85355 22.3536C6.75979 22.4473 6.63261 22.5 6.5 22.5ZM7 2.81001V13.19L17.38 8.00001L7 2.81001Z" fill="white"/>
</svg>
