<svg width="24" height="24" viewBox="0 0 24 24" fill="none" xmlns="http://www.w3.org/2000/svg">
<path d="M15.42 22.72H8.57999C8.44738 22.72 8.3202 22.6673 8.22643 22.5735C8.13266 22.4798 8.07999 22.3526 8.07999 22.22V15.37C8.07999 15.2374 8.13266 15.1102 8.22643 15.0164C8.3202 14.9227 8.44738 14.87 8.57999 14.87H15.42C15.5526 14.87 15.6798 14.9227 15.7735 15.0164C15.8673 15.1102 15.92 15.2374 15.92 15.37V22.22C15.92 22.3526 15.8673 22.4798 15.7735 22.5735C15.6798 22.6673 15.5526 22.72 15.42 22.72ZM9.07999 21.72H14.92V15.87H9.07999V21.72Z" fill="white"/>
<path d="M17.25 15.87H6.75C6.61739 15.87 6.49021 15.8173 6.39645 15.7235C6.30268 15.6298 6.25 15.5026 6.25 15.37C6.25 15.2374 6.30268 15.1102 6.39645 15.0164C6.49021 14.9227 6.61739 14.87 6.75 14.87H17.25C17.3826 14.87 17.5098 14.9227 17.6036 15.0164C17.6973 15.1102 17.75 15.2374 17.75 15.37C17.75 15.5026 17.6973 15.6298 17.6036 15.7235C17.5098 15.8173 17.3826 15.87 17.25 15.87Z" fill="white"/>
<path d="M15.42 9.13003H8.57999C8.44738 9.13003 8.3202 9.07735 8.22643 8.98358C8.13266 8.88981 8.07999 8.76264 8.07999 8.63003V1.78003C8.07999 1.64742 8.13266 1.52024 8.22643 1.42648C8.3202 1.33271 8.44738 1.28003 8.57999 1.28003H15.42C15.5526 1.28003 15.6798 1.33271 15.7735 1.42648C15.8673 1.52024 15.92 1.64742 15.92 1.78003V8.63003C15.92 8.76264 15.8673 8.88981 15.7735 8.98358C15.6798 9.07735 15.5526 9.13003 15.42 9.13003ZM9.07999 8.13003H14.92V2.28003H9.07999V8.13003Z" fill="white"/>
<path d="M17.25 9.13H6.75C6.61739 9.13 6.49021 9.07733 6.39645 8.98356C6.30268 8.88979 6.25 8.76261 6.25 8.63C6.25 8.4974 6.30268 8.37022 6.39645 8.27645C6.49021 8.18268 6.61739 8.13 6.75 8.13H17.25C17.3826 8.13 17.5098 8.18268 17.6036 8.27645C17.6973 8.37022 17.75 8.4974 17.75 8.63C17.75 8.76261 17.6973 8.88979 17.6036 8.98356C17.5098 9.07733 17.3826 9.13 17.25 9.13Z" fill="white"/>
</svg>
