<svg width="24" height="24" viewBox="0 0 24 24" fill="none" xmlns="http://www.w3.org/2000/svg">
<path d="M20 21.8H3.94C3.80739 21.8 3.68022 21.7474 3.58645 21.6536C3.49268 21.5598 3.44 21.4327 3.44 21.3C3.44 21.1674 3.49268 21.0403 3.58645 20.9465C3.68022 20.8527 3.80739 20.8 3.94 20.8H20C20.1326 20.8 20.2598 20.8527 20.3536 20.9465C20.4473 21.0403 20.5 21.1674 20.5 21.3C20.5 21.4327 20.4473 21.5598 20.3536 21.6536C20.2598 21.7474 20.1326 21.8 20 21.8Z" fill="white"/>
<path d="M18.09 21.8C17.9574 21.8 17.8302 21.7473 17.7364 21.6535C17.6427 21.5598 17.59 21.4326 17.59 21.3V4.36C17.59 4.09478 17.4846 3.84042 17.2971 3.65289C17.1096 3.46535 16.8552 3.36 16.59 3.36H7.31C7.04478 3.36 6.79043 3.46535 6.60289 3.65289C6.41535 3.84042 6.31 4.09478 6.31 4.36V21.3C6.31 21.4326 6.25732 21.5598 6.16355 21.6535C6.06978 21.7473 5.94261 21.8 5.81 21.8C5.67739 21.8 5.55021 21.7473 5.45644 21.6535C5.36268 21.5598 5.31 21.4326 5.31 21.3V4.37C5.31 3.83956 5.52071 3.33085 5.89578 2.95578C6.27086 2.58071 6.77956 2.37 7.31 2.37H16.63C17.1604 2.37 17.6691 2.58071 18.0442 2.95578C18.4193 3.33085 18.63 3.83956 18.63 4.37V21.3C18.6302 21.3692 18.6161 21.4376 18.5885 21.501C18.5609 21.5645 18.5205 21.6215 18.4697 21.6685C18.419 21.7155 18.359 21.7514 18.2936 21.7741C18.2283 21.7967 18.1589 21.8055 18.09 21.8Z" fill="white"/>
<path d="M10.13 21.8C9.9974 21.8 9.87022 21.7474 9.77645 21.6536C9.68268 21.5598 9.63 21.4327 9.63 21.3V17.3C9.63 17.1674 9.68268 17.0403 9.77645 16.9465C9.87022 16.8527 9.9974 16.8 10.13 16.8C10.2626 16.8 10.3898 16.8527 10.4836 16.9465C10.5773 17.0403 10.63 17.1674 10.63 17.3V21.3C10.63 21.4327 10.5773 21.5598 10.4836 21.6536C10.3898 21.7474 10.2626 21.8 10.13 21.8Z" fill="white"/>
<path d="M18.09 13.9H5.84C5.70819 13.8975 5.58249 13.844 5.48928 13.7507C5.39606 13.6575 5.34256 13.5318 5.34 13.4C5.34 13.2674 5.39267 13.1402 5.48644 13.0465C5.58021 12.9527 5.70739 12.9 5.84 12.9H18.09C18.2226 12.9 18.3498 12.9527 18.4436 13.0465C18.5373 13.1402 18.59 13.2674 18.59 13.4C18.59 13.5326 18.5373 13.6598 18.4436 13.7536C18.3498 13.8473 18.2226 13.9 18.09 13.9Z" fill="white"/>
<path d="M11.63 8.47002C11.4974 8.47002 11.3702 8.41735 11.2765 8.32358C11.1827 8.22981 11.13 8.10263 11.13 7.97002V2.90002C11.13 2.76742 11.1827 2.64024 11.2765 2.54647C11.3702 2.4527 11.4974 2.40002 11.63 2.40002C11.7626 2.40002 11.8898 2.4527 11.9836 2.54647C12.0773 2.64024 12.13 2.76742 12.13 2.90002V8.00002C12.1224 8.12737 12.0663 8.24696 11.9734 8.33434C11.8804 8.42171 11.7576 8.47025 11.63 8.47002Z" fill="white"/>
<path d="M13.13 10C12.9974 10 12.8702 9.94732 12.7765 9.85355C12.6827 9.75979 12.63 9.63261 12.63 9.5C12.63 9.23478 12.5246 8.98043 12.3371 8.79289C12.1496 8.60536 11.8952 8.5 11.63 8.5C11.3648 8.5 11.1104 8.60536 10.9229 8.79289C10.7354 8.98043 10.63 9.23478 10.63 9.5C10.63 9.63261 10.5773 9.75979 10.4836 9.85355C10.3898 9.94732 10.2626 10 10.13 10C9.9974 10 9.87022 9.94732 9.77645 9.85355C9.68268 9.75979 9.63 9.63261 9.63 9.5C9.63 8.96957 9.84072 8.46086 10.2158 8.08579C10.5909 7.71071 11.0996 7.5 11.63 7.5C12.1604 7.5 12.6691 7.71071 13.0442 8.08579C13.4193 8.46086 13.63 8.96957 13.63 9.5C13.63 9.63261 13.5773 9.75979 13.4836 9.85355C13.3898 9.94732 13.2626 10 13.13 10Z" fill="white"/>
</svg>
