<svg width="24" height="24" viewBox="0 0 24 24" fill="none" xmlns="http://www.w3.org/2000/svg">
<path d="M15 22.5H9C8.07174 22.5 7.1815 22.1313 6.52513 21.4749C5.86875 20.8185 5.5 19.9283 5.5 19V5C5.5 4.07174 5.86875 3.1815 6.52513 2.52513C7.1815 1.86875 8.07174 1.5 9 1.5H15C15.9283 1.5 16.8185 1.86875 17.4749 2.52513C18.1313 3.1815 18.5 4.07174 18.5 5V19C18.5 19.9283 18.1313 20.8185 17.4749 21.4749C16.8185 22.1313 15.9283 22.5 15 22.5ZM9 2.5C8.33696 2.5 7.70107 2.76339 7.23223 3.23223C6.76339 3.70107 6.5 4.33696 6.5 5V19C6.5 19.663 6.76339 20.2989 7.23223 20.7678C7.70107 21.2366 8.33696 21.5 9 21.5H15C15.663 21.5 16.2989 21.2366 16.7678 20.7678C17.2366 20.2989 17.5 19.663 17.5 19V5C17.5 4.33696 17.2366 3.70107 16.7678 3.23223C16.2989 2.76339 15.663 2.5 15 2.5H9Z" fill="white"/>
<path d="M13 19.5H11C10.8674 19.5 10.7402 19.4473 10.6464 19.3536C10.5527 19.2598 10.5 19.1326 10.5 19C10.5 18.8674 10.5527 18.7402 10.6464 18.6464C10.7402 18.5527 10.8674 18.5 11 18.5H13C13.1326 18.5 13.2598 18.5527 13.3536 18.6464C13.4473 18.7402 13.5 18.8674 13.5 19C13.5 19.1326 13.4473 19.2598 13.3536 19.3536C13.2598 19.4473 13.1326 19.5 13 19.5Z" fill="white"/>
</svg>
