<svg width="24" height="24" viewBox="0 0 24 24" fill="none" xmlns="http://www.w3.org/2000/svg">
<path d="M12 21.9299C11.9131 21.9304 11.8273 21.9098 11.75 21.8699L4 17.3899C3.92996 17.3499 3.87064 17.2936 3.82711 17.2256C3.78358 17.1577 3.75712 17.0803 3.75 16.9999V7.99995C3.75224 7.9144 3.77641 7.83085 3.82018 7.75732C3.86395 7.68378 3.92587 7.62271 4 7.57995L11.75 3.09995C11.826 3.05606 11.9122 3.03296 12 3.03296C12.0878 3.03296 12.174 3.05606 12.25 3.09995L20 7.57995C20.0756 7.62357 20.1384 7.68622 20.1823 7.76165C20.2261 7.83709 20.2495 7.92269 20.25 8.00995V17.0099C20.2495 17.0972 20.2261 17.1828 20.1823 17.2582C20.1384 17.3337 20.0756 17.3963 20 17.4399L12.25 21.9199C12.1686 21.9428 12.083 21.9462 12 21.9299ZM4.75 16.6699L12 20.8499L19.25 16.6699V8.29995L12 4.10995L4.75 8.29995V16.6699Z" fill="white"/>
<path d="M12 16.41C11.8695 16.4107 11.7439 16.3605 11.65 16.27L8.90998 13.53C8.86312 13.4835 8.82592 13.4282 8.80054 13.3672C8.77515 13.3063 8.76208 13.241 8.76208 13.175C8.76208 13.109 8.77515 13.0436 8.80054 12.9827C8.82592 12.9217 8.86312 12.8664 8.90998 12.82C9.00345 12.7283 9.12911 12.677 9.25998 12.677C9.39086 12.677 9.51652 12.7283 9.60998 12.82L11.5 14.71V9.20996C11.5 9.07735 11.5527 8.95018 11.6464 8.85641C11.7402 8.76264 11.8674 8.70996 12 8.70996C12.1326 8.70996 12.2598 8.76264 12.3535 8.85641C12.4473 8.95018 12.5 9.07735 12.5 9.20996V15.91C12.5015 16.0104 12.4727 16.1089 12.4174 16.1927C12.3621 16.2766 12.2829 16.3418 12.19 16.38C12.1286 16.3996 12.0645 16.4097 12 16.41Z" fill="white"/>
<path d="M12 16.4099C11.9351 16.4126 11.8703 16.4016 11.81 16.3774C11.7496 16.3533 11.6951 16.3167 11.65 16.2699C11.6031 16.2234 11.5659 16.1681 11.5405 16.1072C11.5151 16.0463 11.5021 15.9809 11.5021 15.9149C11.5021 15.8489 11.5151 15.7836 11.5405 15.7226C11.5659 15.6617 11.6031 15.6064 11.65 15.5599L14.39 12.8199C14.4834 12.7283 14.6091 12.677 14.74 12.677C14.8709 12.677 14.9965 12.7283 15.09 12.8199C15.1368 12.8664 15.174 12.9217 15.1994 12.9826C15.2248 13.0436 15.2379 13.1089 15.2379 13.1749C15.2379 13.2409 15.2248 13.3063 15.1994 13.3672C15.174 13.4281 15.1368 13.4834 15.09 13.5299L12.35 16.2699C12.3048 16.3167 12.2503 16.3533 12.19 16.3774C12.1296 16.4016 12.0649 16.4126 12 16.4099Z" fill="white"/>
</svg>
